<?xml version="1.0" encoding="UTF-8"?>
<svg id="a" data-name="FLAT COLORED" xmlns="http://www.w3.org/2000/svg" width="2000" height="2000" viewBox="0 0 2000 2000">
  <g>
    <rect x="960.856" y="391.422" width="164.11" height="912.26" fill="#1fc19a" stroke-width="0"/>
    <path d="m1124.966,517.192v116.4c-96.77-.13-139.35-2.41-164.11-8.9v-111.02c40.32-7.63,102.22-13.46,164.11,3.52Z" opacity=".15" stroke-width="0"/>
    <polygon points="1033.446 1047.271 783.356 1646.852 627.516 1646.852 877.606 1047.271 1033.446 1047.271" fill="#1fc19a" stroke-width="0"/>
    <polygon points="1033.446 1047.271 783.356 1646.852 715.876 1646.852 952.996 1047.271 1033.446 1047.271" opacity=".15" stroke-width="0"/>
    <polygon points="1033.451 1047.273 1189.297 1047.273 1439.386 1646.847 1283.54 1646.847 1033.451 1047.273" fill="#1fc19a" stroke-width="0"/>
    <polygon points="1033.72 1047.271 1283.81 1646.852 1351.29 1646.852 1114.17 1047.271 1033.72 1047.271" opacity=".15" stroke-width="0"/>
    <circle cx="1032.282" cy="1006.147" r="459.87" transform="translate(-409.105 1024.627) rotate(-45)" fill="#f24646" stroke-width="0"/>
    <path d="m1424.415,1246.246c-81.11,131.06-226.19,218.54-391.31,218.54-253.57,0-459.87-206.3-459.87-459.87,0-145.81,68.21-275.99,174.41-360.3-43.47,70.19-68.57,152.89-68.57,241.34,0,253.57,206.3,459.87,459.87,459.87,107.77,0,206.99-37.26,285.47-99.58Z" opacity=".15" stroke-width="0"/>
    <circle cx="1032.282" cy="1006.147" r="300.078" transform="translate(-409.105 1024.627) rotate(-45)" fill="#ffc200" stroke-width="0"/>
    <circle cx="1032.282" cy="1006.147" r="140.287" fill="#f24646" stroke-width="0"/>
    <g>
      <path d="m1032.279,1018.647c-1.692,0-3.395-.343-5.006-1.048-4.551-1.99-7.491-6.485-7.491-11.452v-58.696c0-6.903,5.597-12.5,12.5-12.5s12.5,5.597,12.5,12.5v30.115l553.918-512.121c5.069-4.685,12.979-4.375,17.664.693,4.686,5.068,4.376,12.978-.692,17.664l-574.903,531.523c-2.356,2.178-5.401,3.321-8.489,3.321Z" fill="#fff" stroke-width="0"/>
      <path d="m1088.302,1030.023c-.825,0-1.661-.082-2.501-.253l-56.007-11.373c-6.765-1.374-11.136-7.972-9.762-14.737,1.374-6.765,7.972-11.139,14.738-9.763l56.007,11.373c6.766,1.374,11.137,7.972,9.763,14.737-1.203,5.926-6.416,10.016-12.237,10.016Z" fill="#fff" stroke-width="0"/>
      <polygon points="1583.289 478.846 1583.289 353.148 1433.544 502.893 1428.532 633.603 1559.242 628.591 1708.986 478.846 1583.289 478.846" fill="#1fc19a" stroke-width="0"/>
    </g>
    <g>
      <path d="m884.691,1209.33c-6.573,0-12.082-5.131-12.468-11.776-.4-6.893,4.864-12.804,11.756-13.203l32.887-1.905L403.31,626.975c-4.687-5.068-4.377-12.978.692-17.664,5.069-4.685,12.977-4.376,17.664.693l531.524,574.903c3.283,3.55,4.223,8.676,2.414,13.161-1.809,4.484-6.042,7.524-10.87,7.804l-59.31,3.438c-.246.014-.491.021-.735.021Z" fill="#fff" stroke-width="0"/>
      <path d="m944.025,1205.896c-.825,0-1.661-.082-2.501-.253-6.765-1.374-11.136-7.972-9.762-14.737l11.373-56.007c1.374-6.766,7.972-11.142,14.738-9.763,6.765,1.374,11.136,7.972,9.762,14.737l-11.373,56.007c-1.203,5.926-6.416,10.016-12.237,10.016Z" fill="#fff" stroke-width="0"/>
      <polygon points="416.711 642.386 291.014 642.386 440.758 792.131 571.468 797.143 566.456 666.433 416.711 516.688 416.711 642.386" fill="#1fc19a" stroke-width="0"/>
    </g>
  </g>
  <path d="m1211.508,663.502c-2.208,0-4.445-.585-6.471-1.815-71.575-43.414-130.011-40.604-130.593-40.568-6.898.386-12.801-4.869-13.197-11.762-.397-6.893,4.87-12.801,11.762-13.197,2.694-.153,66.846-3.248,144.993,44.152,5.903,3.58,7.786,11.268,4.205,17.17-2.351,3.877-6.474,6.02-10.699,6.02Z" fill="#fff" stroke-width="0"/>
  <path d="m1275.769,708.19c-3.801,0-7.554-1.726-10.01-5.001-4.406-5.874-16.06-14.449-22.372-18.475-5.818-3.71-7.531-11.436-3.823-17.257,3.707-5.819,11.427-7.537,17.251-3.831,2.06,1.311,20.376,13.139,28.944,24.562,4.142,5.522,3.023,13.357-2.5,17.5-2.248,1.686-4.881,2.501-7.49,2.501Z" fill="#fff" stroke-width="0"/>
  <path d="m1019.774,1274.259c-6.79,0-12.359-5.436-12.493-12.256-.135-6.899,5.345-12.602,12.243-12.741h0c.605-.013,61.049-1.605,108.402-29.325,5.958-3.486,13.615-1.485,17.102,4.474,3.488,5.958,1.485,13.614-4.473,17.102-53.099,31.081-117.804,32.69-120.533,32.744-.083.001-.166.002-.249.002Z" fill="#fff" stroke-width="0"/>
  <path d="m708.03,1580.469c-1.545,0-3.116-.288-4.639-.897-6.409-2.564-9.527-9.839-6.963-16.248l24.169-60.414c2.564-6.411,9.839-9.527,16.249-6.963,6.41,2.564,9.527,9.839,6.963,16.248l-24.169,60.414c-1.955,4.888-6.649,7.86-11.61,7.86Z" fill="#fff" stroke-width="0"/>
  <path d="m744.724,1482.537c-1.396,0-2.814-.235-4.204-.731-6.501-2.321-9.889-9.475-7.567-15.976l8.276-23.172c2.322-6.502,9.476-9.888,15.976-7.567,6.501,2.321,9.889,9.475,7.567,15.976l-8.276,23.172c-1.826,5.112-6.638,8.299-11.772,8.299Z" fill="#fff" stroke-width="0"/>
  <path d="m1417.264,1154.261c-2.296,0-4.619-.632-6.699-1.956-5.824-3.706-7.541-11.433-3.835-17.257,12.888-20.252,18.948-65.578,20.195-81.334.545-6.882,6.574-12.005,13.448-11.475,6.882.545,12.019,6.565,11.474,13.447-.203,2.566-5.193,63.19-24.025,92.783-2.382,3.743-6.426,5.791-10.558,5.791Z" fill="#fff" stroke-width="0"/>
  <path d="m1388.575,1223.227c-2.065,0-4.156-.512-6.086-1.59-6.026-3.368-8.182-10.983-4.814-17.01l10.482-18.759c3.369-6.027,10.983-8.182,17.01-4.815,6.026,3.368,8.182,10.983,4.815,17.01l-10.483,18.759c-2.289,4.097-6.542,6.404-10.923,6.404Z" fill="#fff" stroke-width="0"/>
</svg>