<?xml version="1.0" encoding="UTF-8"?>
<svg id="a" data-name="FLAT COLORED" xmlns="http://www.w3.org/2000/svg" width="2000" height="2000" viewBox="0 0 2000 2000">
  <g>
    <g>
      <rect x="1071.737" y="1039.054" width="57.722" height="353.762" transform="translate(-407.782 572.039) rotate(-24.734)" fill="#ffc200" stroke-width="0"/>
      <path d="m893.496,1111.205c-76.097.155-151.487-23.262-218.018-67.719-66.71-44.576-120.328-107.775-155.058-182.765-46.041-99.411-54.514-209.483-23.858-309.939,15.268-50.029,39.424-95.064,71.798-133.853,34.062-40.811,75.604-72.745,123.472-94.914,46.752-21.653,96.764-32.685,148.647-32.791,76.096-.155,151.486,23.262,218.018,67.719,66.71,44.576,120.329,107.775,155.059,182.765,46.04,99.411,54.513,209.483,23.857,309.939-15.267,50.029-39.423,95.064-71.797,133.853-34.062,40.811-75.603,72.745-123.471,94.914-46.753,21.653-96.766,32.686-148.648,32.791Z" fill="#1fc19a" stroke-width="0"/>
      <path d="m1169.57,741.89c-2.03,48.65-14.37,95.27-35.9,136.22-4.76,9.07-9.97,17.86-15.64,26.33-25.48,38.19-59.87,69.92-102.061,91.57-3.21,1.65-6.47,3.24-9.78,4.77-4.29,1.99-8.62,3.86-12.97,5.6-44.99,18.04-92.68,23.03-139.32,16.58-10.03-1.39-20.01-3.3-29.91-5.73-45.59-11.19-89.36-33.27-127.66-64.67-7.03-5.75-13.87-11.83-20.51-18.22-31.04-29.83-57.56-66.31-77.25-108.45-.17-.37-.35-.75-.52-1.12-3.36-7.25-6.46-14.55-9.29-21.88-17.44-44.89-25.36-91.06-24.61-135.73v-.01c.16-9.44.7-18.81,1.63-28.09,4.27-42.94,16.66-83.87,36.36-120.19,4.84-8.92,10.12-17.56,15.83-25.88,26.47-38.6,62.19-70.4,105.96-91.51,1.28-.62,2.57-1.23,3.86-1.83,6.32-2.93,12.71-5.59,19.14-7.98,44.33-16.53,91.09-20.58,136.74-13.68,10.11,1.53,20.16,3.59,30.12,6.18,38.2,9.9,75.05,27.46,108.38,51.73,7.55,5.5,14.93,11.35,22.09,17.52,33.85,29.2,63.1,65.85,85.11,108.81,2.26,4.41,4.45,8.89,6.55,13.43,1.42,3.06,2.78,6.12,4.11,9.19,18.37,42.62,27.99,86.65,29.59,129.65.35,9.19.33,18.33-.05,27.39Z" fill="#fff" stroke-width="0"/>
      <path d="m1159.938,1344.75h0c-27.157,36.427-32.842,82.622-14.949,121.464l111.684,242.442c5.003,10.859,18.595,15.27,30.359,9.85l74.379-34.263c11.764-5.419,17.246-18.616,12.244-29.476l-111.683-242.441c-17.893-38.842-56.698-64.542-102.032-67.575h0Z" fill="#f24646" stroke-width="0"/>
      <g>
        <path d="m1015.97,996.01c-3.21,1.65-6.47,3.24-9.78,4.77-4.29,1.99-8.62,3.86-12.97,5.6l-69.1-155.22-10.17-22.84-53.07-119.2-10.17-22.84-54.5-122.43-10.17-22.84-62.11-139.53c1.28-.62,2.57-1.23,3.86-1.83,6.32-2.93,12.71-5.59,19.14-7.98l61.95,139.17,10.17,22.84,54.5,122.43,10.17,22.84,53.07,119.21,10.17,22.83,69.01,155.02Z" fill="#ffc200" stroke-width="0"/>
        <path d="m853.9,1022.96c-10.03-1.39-20.01-3.3-29.91-5.73l-45.14-101.4-10.17-22.84-53.07-119.2-10.16-22.85-54.51-122.42v-.01l-10.16-22.83-38.64-86.81c4.84-8.92,10.12-17.56,15.83-25.88l45.64,102.52,10.17,22.84,54.5,122.43,10.17,22.84,53.07,119.21,10.16,22.83,52.22,117.3Z" fill="#ffc200" stroke-width="0"/>
        <path d="m1133.67,878.11c-4.76,9.07-9.97,17.86-15.64,26.33l-51.87-116.52-10.16-22.83-53.07-119.21-10.17-22.84-54.5-122.43-10.17-22.84-44.42-99.78c10.11,1.53,20.16,3.59,30.12,6.18l37.14,83.44,10.17,22.83,54.5,122.43,10.16,22.84h.01l53.06,119.21,10.17,22.84,44.67,100.35Z" fill="#ffc200" stroke-width="0"/>
        <path d="m1140.03,584.85l-114.26,50.86h-.01l-22.83,10.17-119.21,53.07-22.84,10.17-122.43,54.5-22.84,10.17-117.04,52.1c-.17-.37-.35-.75-.52-1.12-3.36-7.25-6.46-14.55-9.29-21.88l116.69-51.95,22.83-10.16,122.43-54.5,22.84-10.17,119.21-53.07,22.84-10.17,113.77-50.64c2.26,4.41,4.45,8.89,6.55,13.43,1.42,3.06,2.78,6.12,4.11,9.19Z" fill="#ffc200" stroke-width="0"/>
        <path d="m1044.26,453.42l-83.16,37.02-22.84,10.17-119.21,53.07-22.84,10.17-122.43,54.5-22.84,10.16v.01l-86.79,38.63c.16-9.44.7-18.81,1.63-28.09l75-33.38,22.83-10.17,122.43-54.5,22.84-10.17,119.21-53.07,22.84-10.16,71.24-31.71c7.55,5.5,14.93,11.35,22.09,17.52Z" fill="#ffc200" stroke-width="0"/>
        <path d="m1169.57,741.89l-80.57,35.87-22.84,10.16-119.2,53.07-22.84,10.17-122.44,54.5-22.83,10.17-82.52,36.73c-7.03-5.75-13.87-11.83-20.51-18.22l92.86-41.35,22.84-10.16,122.43-54.51,22.84-10.16,119.21-53.07,22.83-10.17,90.79-40.42c.35,9.19.33,18.33-.05,27.39Z" fill="#ffc200" stroke-width="0"/>
      </g>
    </g>
    <g>
      <rect x="1235.438" y="947.763" width="24.999" height="68.414" transform="translate(-318.619 1241.801) rotate(-47.616)" fill="#ffc200" stroke-width="0"/>
      <path d="m1273.509,988.735s181.644,58.734,139.548,131.229c-30.495,52.517-98.449,17.713-156.956-112.154l17.407-19.074Z" fill="#ffc200" stroke-width="0"/>
      <rect x="1275.123" y="906.133" width="25" height="68.414" transform="translate(-199.645 1515.012) rotate(-57.267)" fill="#ffc200" stroke-width="0"/>
      <path d="m1313.966,942.722s188.92,27.451,159.573,105.977c-21.26,56.886-94.087,33.967-173.536-84.255l13.963-21.722Z" fill="#ffc200" stroke-width="0"/>
      <rect x="1197.475" y="991.216" width="24.999" height="68.413" transform="translate(-374.772 961.33) rotate(-37.964)" fill="#ffc200" stroke-width="0"/>
      <path d="m1214.749,1051.439s44.563,185.63,120.085,149.245c54.711-26.358,25.246-96.792-99.727-165.131l-20.359,15.886Z" fill="#ffc200" stroke-width="0"/>
      <path d="m1154.758,896.933h0c24.34-26.671,65.693-28.56,92.364-4.22l22.328,20.377-88.144,96.584-22.329-20.378c-26.671-24.34-28.56-65.693-4.22-92.364Z" fill="#f24646" stroke-width="0"/>
    </g>
  </g>
  <path d="m1269.695,1564.055c-4.873,0-9.504-2.867-11.52-7.638l-37.241-88.138c-2.686-6.359.29-13.692,6.649-16.379,6.359-2.688,13.692.29,16.38,6.649l37.241,88.138c2.687,6.359-.29,13.692-6.649,16.379-1.588.671-3.237.989-4.859.989Z" fill="#fff" stroke-width="0"/>
  <path d="m1304.733,1631.779c-4.631,0-9.081-2.584-11.246-7.028l-10.483-21.517c-3.023-6.207-.443-13.689,5.763-16.712,6.206-3.021,13.689-.443,16.712,5.762l10.483,21.517c3.024,6.207.443,13.689-5.763,16.712-1.763.859-3.628,1.266-5.466,1.266Z" fill="#fff" stroke-width="0"/>
  <path d="m588.771,916.941c-4.079,0-8.076-1.993-10.475-5.662-42.279-64.674-57.482-123.843-58.107-126.33-1.687-6.695,2.374-13.488,9.068-15.175,6.691-1.685,13.485,2.372,15.174,9.065.223.873,15.03,57.938,54.791,118.76,3.777,5.778,2.155,13.525-3.623,17.303-2.109,1.379-4.482,2.039-6.828,2.039Z" fill="#fff" stroke-width="0"/>
  <path d="m637.682,974.121c-2.739,0-5.496-.896-7.801-2.74-8.872-7.098-17.499-16.272-17.862-16.66-4.722-5.036-4.467-12.946.569-17.668,5.036-4.723,12.942-4.466,17.666.566h0c.077.082,7.796,8.281,15.244,14.24,5.391,4.313,6.265,12.179,1.952,17.57-2.469,3.085-6.102,4.691-9.769,4.691Z" fill="#fff" stroke-width="0"/>
  <path d="m972.576,373.57c-2.557,0-5.136-.781-7.358-2.404-27.57-20.119-69.935-25.781-70.359-25.836-6.842-.884-11.681-7.144-10.803-13.987.878-6.843,7.128-11.685,13.971-10.811,1.989.253,49.087,6.475,81.928,30.44,5.577,4.069,6.799,11.889,2.73,17.466-2.447,3.353-6.251,5.132-10.107,5.132Z" fill="#fff" stroke-width="0"/>
</svg>