<?xml version="1.0" encoding="UTF-8"?>
<svg id="a" data-name="FLAT COLORED" xmlns="http://www.w3.org/2000/svg" width="2000" height="2000" viewBox="0 0 2000 2000">
  <g>
    <path d="m1238.58,1353.264c28.422,82.694,64.156,165.077,120.6,262.469l38.799,13.11c13.741,4.644,21.178,19.523,16.557,33.264-6.149,18.272-22.873,42.927-66.418,64.155l.008.018c-.407.193-.799.368-1.206.56-.398.188-.782.382-1.189.574l-.009-.018c-44.007,20.252-73.678,17.578-91.713,10.764-13.561-5.127-20.365-20.306-15.264-33.877l14.429-38.329c-39.608-105.368-80.732-185.187-126.727-259.566-6.366-10.307-12.833-20.5-19.399-30.645-6.566-10.146-13.245-20.249-20.032-30.346-48.704-72.554-103.18-145.239-166.725-237.861-145.089-211.484-305.247-566.022-331.123-678.305-18.322-79.523,14.988-135.572,67.059-160.242,50.644-23.994,116.542-14.947,166.476,49.598,70.51,91.137,243.42,439.633,315.182,685.858,31.427,107.838,53.18,196.027,78.469,279.674,3.515,11.647,7.112,23.21,10.805,34.717s7.484,22.967,11.419,34.426Z" fill="#ffc200" stroke-width="0"/>
    <path d="m1414.536,1662.107c-6.149,18.272-22.873,42.927-66.418,64.155l.008.018c-.407.193-.799.368-1.206.56-.398.188-.782.382-1.189.574l-.009-.018c-44.007,20.252-73.678,17.578-91.713,10.764-13.561-5.127-20.365-20.306-15.264-33.877l14.429-38.329c-39.608-105.368-80.732-185.187-126.727-259.566-6.366-10.307-12.833-20.5-19.399-30.645l120.112-56.906c3.692,11.507,7.484,22.967,11.419,34.426,28.422,82.694,64.156,165.077,120.6,262.469l38.799,13.11c13.741,4.644,21.178,19.523,16.557,33.264Z" fill="#f24646" stroke-width="0"/>
    <path d="m1216.357,1284.121c7.039,23.289,14.354,46.226,22.224,69.143l-112.132,53.125c-12.741-20.61-25.857-40.798-39.43-60.991l129.339-61.277Z" fill="#1fc19a" stroke-width="0"/>
    <path d="m1318.858,1707.437c-13.561-5.127-20.365-20.306-15.264-33.877l14.429-38.329c-39.608-105.368-80.732-185.187-126.727-259.566-6.366-10.307-12.833-20.5-19.399-30.645-6.566-10.146-13.245-20.249-20.031-30.346-48.704-72.554-103.18-145.239-166.725-237.861-145.089-211.484-305.247-566.022-331.123-678.305-14.4-62.5,3.097-110.496,36.526-140.159-11.932,1.888-23.473,5.504-34.314,10.64-52.072,24.67-85.382,80.719-67.059,160.242,25.876,112.283,186.035,466.821,331.123,678.305,63.545,92.622,118.021,165.307,166.725,237.861,6.786,10.097,13.465,20.2,20.032,30.346,6.566,10.146,13.033,20.338,19.399,30.645,45.995,74.379,87.119,154.198,126.727,259.566l-14.429,38.329c-5.101,13.571,1.703,28.749,15.264,33.877,18.034,6.815,47.706,9.488,91.713-10.764l.009.018c.407-.193.791-.386,1.189-.574.407-.193.799-.368,1.206-.56l-.008-.018c11.798-5.751,21.612-11.755,29.796-17.814-26.565,6.713-45.907,3.958-59.056-1.011Z" opacity=".15" stroke-width="0"/>
    <g>
      <path d="m1029.637,585.652c35.786,42.017,30.737,105.092-11.28,140.878l-.002.002c-7.261,6.184-15.151,11.15-23.421,14.913-39.582,18.022-87.854,8.56-117.457-26.197-5.26-6.175-9.638-12.805-13.144-19.74-8.722-17.231-12.065-36.327-10.22-54.927,2.458-24.821,14.157-48.762,34.647-66.213,42.017-35.786,105.092-30.733,140.878,11.284Z" fill="#fff" stroke-width="0"/>
      <path d="m877.477,715.248c13.469,15.814,30.802,26.392,49.425,31.525,30.857,8.511,65.25,2.076,91.454-20.243,26.203-22.318,38.032-55.249,34.54-87.067-.513-4.68-1.356-9.333-2.536-13.926-3.223,23.465-14.753,45.879-34.202,62.444-26.205,22.319-60.598,28.755-91.455,20.243-18.623-5.133-35.956-15.712-49.425-31.525-10.186-11.96-17.065-25.627-20.722-39.887-1.121,8.149-1.238,16.424-.338,24.626,2.106,19.201,9.79,37.997,23.258,53.81Z" opacity=".15" stroke-width="0"/>
    </g>
  </g>
  <path d="m1087.003,1035.226c-6.076,0-11.405-4.439-12.344-10.629-5.103-33.685-42.093-143.247-42.466-144.35-2.212-6.54,1.296-13.634,7.835-15.846,6.547-2.214,13.636,1.296,15.847,7.835,1.552,4.588,38.071,112.767,43.503,148.616,1.034,6.826-3.661,13.197-10.486,14.231-.635.096-1.266.143-1.889.143Z" fill="#fff" stroke-width="0"/>
  <path d="m1106.096,1107.227c-5.497,0-10.535-3.654-12.052-9.214l-6.207-22.759c-1.816-6.66,2.11-13.532,8.771-15.349,6.656-1.817,13.531,2.11,15.349,8.77l6.207,22.759c1.816,6.66-2.11,13.532-8.771,15.349-1.101.3-2.208.443-3.297.443Z" fill="#fff" stroke-width="0"/>
  <path d="m779.711,358.083c-3.533,0-7.044-1.489-9.517-4.388-31.206-36.587-67.757-35.421-69.305-35.352-6.901.394-12.759-4.876-13.152-11.769-.395-6.892,4.914-12.801,11.807-13.195,2.026-.117,50.097-2.307,89.672,44.092,4.479,5.252,3.853,13.142-1.399,17.622-2.353,2.008-5.236,2.99-8.105,2.99Z" fill="#fff" stroke-width="0"/>
  <path d="m823.218,420.192c-4.411,0-8.688-2.34-10.964-6.478l-12.138-22.069c-3.326-6.049-1.12-13.65,4.929-16.977,6.053-3.328,13.65-1.12,16.978,4.929l12.138,22.069c3.326,6.049,1.12,13.65-4.93,16.977-1.91,1.051-3.976,1.55-6.013,1.55Z" fill="#fff" stroke-width="0"/>
</svg>