<?xml version="1.0" encoding="UTF-8"?>
<svg id="a" data-name="FLAT COLORED" xmlns="http://www.w3.org/2000/svg" width="2000" height="2000" viewBox="0 0 2000 2000">
  <g>
    <path d="m1530.03,1000c0,83.33-19.23,162.16-53.5,232.31-.55,1.14-1.11,2.27-1.67,3.4-.44.89-.88,1.78-1.34,2.66-.49.98-.98,1.95-1.48,2.92-.62,1.22-1.25,2.43-1.88,3.63-3.66,7.03-7.48,13.95-11.44,20.78-.75,1.29-1.51,2.58-2.27,3.86-.79,1.35-1.6,2.69-2.41,4.03-.8,1.34-1.62,2.67-2.44,4-1.63,2.66-3.29,5.31-4.99,7.94-2.05,3.21-4.14,6.39-6.27,9.55-.48.73-.97,1.45-1.46,2.18-6.45,9.51-13.2,18.79-20.24,27.84-94.59,121.65-241.04,200.96-406.14,204.79-4.15.09-8.32.14-12.5.14s-8.35-.05-12.5-.14c-167.5-3.88-315.79-85.46-410.22-210.1-5.58-7.36-10.97-14.88-16.16-22.53-1.63-2.4-3.24-4.82-4.82-7.25-54.6-83.32-86.33-182.96-86.33-290.01,0-18.39.94-36.55,2.77-54.46.99-9.81,2.26-19.54,3.8-29.18,12.39-78.22,41.9-150.74,84.57-213.61,4.47-6.58,9.08-13.06,13.84-19.43.73-.98,1.46-1.96,2.2-2.94.86-1.13,1.72-2.26,2.59-3.39.81-1.05,1.62-2.1,2.44-3.14.81-1.05,1.63-2.08,2.46-3.12,2.46-3.11,4.96-6.19,7.5-9.24.81-.97,1.62-1.94,2.42-2.9,1.75-2.07,3.51-4.13,5.29-6.17.87-1,1.74-2,2.62-2.99.87-.99,1.75-1.98,2.63-2.96.88-.99,1.77-1.97,2.66-2.95.89-.98,1.78-1.95,2.68-2.92,1.88-2.05,3.79-4.08,5.71-6.1,1.73-1.81,3.47-3.61,5.22-5.4.92-.94,1.85-1.89,2.79-2.82.93-.94,1.86-1.87,2.8-2.8.94-.93,1.88-1.86,2.83-2.78.95-.92,1.9-1.84,2.85-2.76.95-.92,1.91-1.83,2.87-2.74s1.92-1.81,2.89-2.72c.73-.69,1.46-1.36,2.19-2.04h.01c.23-.22.47-.44.7-.65.98-.9,1.95-1.79,2.93-2.67.97-.89,1.95-1.77,2.93-2.64,6.62-5.91,13.39-11.66,20.31-17.23,87.91-70.93,198.95-114.33,320.03-117.14,4.15-.09,8.32-.14,12.5-.14s8.35.05,12.5.14c120.88,2.8,231.75,46.07,319.6,116.78,9.31,7.49,18.35,15.29,27.12,23.38,29.96,27.62,56.72,58.65,79.67,92.48,43.19,63.64,72.89,137.16,85.02,216.47,1.46,9.49,2.66,19.07,3.6,28.72,1.67,17.13,2.52,34.5,2.52,52.06Z" fill="#f24646" stroke-width="0"/>
    <rect x="987.497" y="469.97" width="25" height="1060.06" fill="#fff" stroke-width="0"/>
    <path d="m1527.51,947.94c-141.51-61.2-276.89-91.99-399.13-104.3-8.61-.87-17.15-1.65-25.62-2.34-31.03-2.52-61.16-3.87-90.26-4.25-8.42-.12-16.76-.15-25-.1-33.01.18-64.6,1.58-94.58,3.88v.01c-8.66.65-17.19,1.39-25.58,2.2-33.52,3.22-64.82,7.52-93.62,12.4-68.18,11.56-127.74,27.13-176.56,42.59-57.63,18.26-100.27,36.36-124.42,47.51.99-9.81,2.26-19.54,3.8-29.18,13.67-6.02,30.84-13.15,51.28-20.85,18.49-6.97,40.99-14.88,67.02-22.98,47.52-14.79,106.77-30.22,174.7-41.73,33.36-5.66,66.86-10.06,100.41-13.22,8.36-.78,16.72-1.49,25.09-2.12,30.81-2.32,61.65-3.59,92.46-3.8,8.34-.05,16.67-.03,25,.07,29.41.34,58.79,1.66,88.08,3.93,8.38.65,16.75,1.39,25.11,2.19.02.01.04.01.06.01,135.61,13.13,269.37,47.2,398.16,101.36,1.46,9.49,2.66,19.07,3.6,28.72Z" fill="#fff" stroke-width="0"/>
    <path d="m895.04,815.46c-.02.77-.05,1.54-.08,2.31-.33,7.68-1.02,15.36-2.04,23.06v.01c-4.51,33.74-15.67,67.58-33.29,100.88-23.66,44.73-58.59,87.53-103.82,127.22-23.13,20.29-47.76,41.91-71.12,64.93-54.68,53.89-102.36,115.49-107.41,185.92-5.58-7.36-10.97-14.88-16.16-22.53-1.63-2.4-3.24-4.82-4.82-7.25,7.18-33.44,23.02-67.01,47.69-101.34,19.08-26.55,41.98-51.62,67.01-76.08,21.56-21.09,44.7-41.71,68.32-62.44,88.51-77.66,119.39-151.97,128.02-207.11,1.41-9.03,2.23-17.54,2.61-25.46.01-.3.03-.6.04-.9,2.42-55.37-15.46-105.95-50.35-142.43-44.13-46.14-116.25-59.87-168.97-63.27-2.17-.14-4.32-.26-6.46-.37-1.21-.06-2.42-.12-3.61-.17.23-.22.47-.44.7-.65.98-.9,1.95-1.79,2.93-2.67.97-.89,1.95-1.77,2.93-2.64,6.62-5.91,13.39-11.66,20.31-17.23,29.99,2.88,57.46,8.42,81.87,16.52,36.44,12.1,66.18,30,88.37,53.2,19.16,20.04,33.9,43.92,43.81,70.97,10.05,27.45,14.6,56.88,13.52,87.52Z" fill="#fff" stroke-width="0"/>
    <path d="m1433.08,1267.18c-8.59-25.91-22.39-51.98-41.45-78.51-35.52-49.42-84.28-93.72-135.34-138.52-88.18-77.38-119.15-151.43-127.91-206.51-1.46-9.15-2.3-17.77-2.69-25.79-.03-.39-.04-.78-.06-1.17-2.42-55.37,15.46-105.95,50.35-142.43,44.13-46.14,116.25-59.87,168.97-63.27,4.83-.31,9.6-.54,14.27-.71-8.77-8.09-17.81-15.89-27.12-23.38-31.53,2.76-60.34,8.42-85.82,16.88-36.45,12.1-66.18,30-88.37,53.2-19.16,20.04-33.9,43.92-43.81,70.97-10.07,27.51-14.61,57.01-13.52,87.72.02.7.05,1.41.08,2.11.34,7.83,1.04,15.68,2.1,23.53,4.55,33.59,15.69,67.27,33.23,100.42,23.66,44.73,58.59,87.53,103.81,127.22,67.38,59.12,147.45,129.39,171.69,213.01,4.05,14,6.55,28.39,7.15,43.15,7.04-9.05,13.79-18.33,20.24-27.84.49-.73.98-1.45,1.46-2.18-1.74-9.29-4.16-18.58-7.26-27.9Z" fill="#fff" stroke-width="0"/>
    <path d="m1476.53,1232.31c-.55,1.14-1.11,2.27-1.67,3.4-.44.89-.88,1.78-1.34,2.66-.49.98-.98,1.95-1.48,2.92-.62,1.22-1.25,2.43-1.88,3.63-3.66,7.03-7.48,13.95-11.44,20.78-.75,1.29-1.51,2.58-2.27,3.86-.79,1.35-1.6,2.69-2.41,4.03-.8,1.34-1.62,2.67-2.44,4-1.64,2.66-3.3,5.31-4.99,7.94-2.05,3.21-4.14,6.39-6.27,9.55-.48.73-.97,1.45-1.46,2.18-6.45,9.51-13.2,18.79-20.24,27.84-94.59,121.65-241.04,200.96-406.14,204.79-4.15.09-8.32.14-12.5.14s-8.35-.05-12.5-.14c-167.5-3.88-315.79-85.46-410.22-210.1-5.58-7.36-10.97-14.88-16.16-22.53-1.63-2.4-3.24-4.82-4.82-7.25-54.6-83.32-86.33-182.96-86.33-290.01,0-18.39.94-36.55,2.77-54.46.99-9.81,2.26-19.54,3.8-29.18,12.39-78.22,41.9-150.74,84.57-213.61,4.47-6.58,9.08-13.06,13.84-19.43.73-.98,1.46-1.96,2.2-2.94.86-1.13,1.72-2.26,2.59-3.39.81-1.05,1.62-2.1,2.44-3.14.81-1.05,1.63-2.08,2.46-3.12,2.46-3.11,4.96-6.19,7.5-9.24.81-.97,1.62-1.94,2.42-2.9,1.75-2.07,3.51-4.13,5.29-6.17.87-1,1.74-2,2.62-2.99.87-.99,1.75-1.98,2.63-2.96.88-.99,1.77-1.97,2.66-2.95.89-.98,1.78-1.95,2.68-2.92,1.88-2.05,3.79-4.08,5.71-6.1,1.73-1.81,3.47-3.61,5.22-5.4.92-.94,1.85-1.89,2.79-2.82.93-.94,1.86-1.87,2.8-2.8.94-.93,1.88-1.86,2.83-2.78.95-.92,1.9-1.84,2.85-2.76.95-.92,1.91-1.83,2.87-2.74s1.92-1.81,2.89-2.72c.73-.69,1.46-1.36,2.19-2.04h.01c.23-.22.47-.44.7-.65.98-.9,1.95-1.79,2.93-2.67.97-.89,1.95-1.77,2.93-2.64-.99,2.04-1.98,4.08-2.95,6.13-32.42,68.6-50.55,145.28-50.55,226.18,0,12.01.4,23.93,1.18,35.74.57,8.56,1.35,17.06,2.32,25.5,8.96,77.91,34.82,150.69,73.84,214.56,4.39,7.21,8.96,14.3,13.69,21.28.04.06.08.12.12.18,70.74,104.25,177.64,181.96,302.69,215.11,8.25,2.19,16.59,4.18,25,5.98,35.85,7.65,73.05,11.68,111.19,11.68,106.1,0,204.92-31.18,287.8-84.87,7.32-4.74,14.52-9.66,21.59-14.77,15.1-10.86,29.6-22.51,43.45-34.87Z" opacity=".15" stroke-width="0"/>
  </g>
  <path d="m788.328,576.186c-4.284,0-8.456-2.202-10.785-6.16-3.5-5.946-1.525-13.6,4.418-17.105,2.086-1.23,51.707-30.153,106.307-32.753,6.895-.331,12.752,4.996,13.081,11.891.328,6.896-4.996,12.753-11.892,13.081-48.287,2.299-94.347,29.051-94.807,29.321-1.989,1.169-4.17,1.725-6.322,1.725Z" fill="#fff" stroke-width="0"/>
  <path d="m1391.206,766.538c-5.213,0-10.075-3.285-11.839-8.496-17.223-50.885-52.704-92.243-53.061-92.655-4.517-5.22-3.948-13.114,1.273-17.632,5.221-4.518,13.114-3.947,17.632,1.272,1.586,1.833,39.06,45.524,57.836,101,2.214,6.539-1.293,13.634-7.832,15.848-1.329.449-2.681.663-4.009.663Z" fill="#fff" stroke-width="0"/>
  <path d="m1418.445,839.668c-5.086,0-9.866-3.127-11.729-8.179l-9.379-25.435c-2.388-6.478.927-13.665,7.404-16.053,6.475-2.388,13.663.925,16.053,7.403l9.379,25.435c2.388,6.478-.927,13.665-7.404,16.053-1.426.526-2.887.775-4.323.775Z" fill="#fff" stroke-width="0"/>
  <path d="m739.611,1386.399c-2.032,0-4.093-.497-6-1.543-53.218-29.184-90.352-80.983-91.906-83.174-3.996-5.63-2.671-13.433,2.959-17.428,5.627-3.994,13.426-2.672,17.423,2.953h0c.35.491,35.479,49.371,83.546,75.729,6.053,3.319,8.269,10.918,4.949,16.97-2.273,4.146-6.555,6.492-10.971,6.492Z" fill="#fff" stroke-width="0"/>
  <path d="m805.84,1429.432c-3.935,0-7.808-1.853-10.241-5.319l-20.14-28.69c-3.967-5.65-2.602-13.446,3.049-17.413,5.651-3.965,13.447-2.602,17.412,3.049l20.14,28.69c3.967,5.65,2.602,13.446-3.049,17.413-2.185,1.533-4.69,2.27-7.171,2.27Z" fill="#fff" stroke-width="0"/>
  <path d="m1153.28,1059.086c-3.479,0-6.941-1.444-9.412-4.269-27.038-30.901-40-60.354-40.538-61.592-2.753-6.331.147-13.695,6.479-16.448,6.323-2.749,13.684.144,16.441,6.465h0c.118.27,12.089,27.291,36.433,55.113,4.546,5.195,4.02,13.092-1.176,17.638-2.371,2.075-5.306,3.093-8.226,3.093Z" fill="#fff" stroke-width="0"/>
</svg>