<?xml version="1.0" encoding="UTF-8"?>
<svg id="a" data-name="FLAT COLORED" xmlns="http://www.w3.org/2000/svg" width="2000" height="2000" viewBox="0 0 2000 2000">
  <g>
    <g>
      <g>
        <path d="m1530.03,1000c0,110.17-33.61,212.49-91.15,297.26-95.32,140.48-256.32,232.77-438.88,232.77s-343.56-92.29-438.88-232.77c-57.54-84.77-91.15-187.09-91.15-297.26s33.61-212.48,91.14-297.25c95.33-140.48,256.33-232.78,438.89-232.78s343.57,92.3,438.89,232.78c57.53,84.77,91.14,187.09,91.14,297.25Z" fill="#fff" stroke-width="0"/>
        <path d="m1530.03,1000c0,110.17-33.61,212.49-91.15,297.26h-877.76c-57.54-84.77-91.15-187.09-91.15-297.26s33.61-212.48,91.14-297.25h877.78c57.53,84.77,91.14,187.09,91.14,297.25Z" fill="#ffc200" stroke-width="0"/>
      </g>
      <g>
        <circle cx="1000" cy="1000" r="236.048" fill="#fff" stroke-width="0"/>
        <path d="m914.752,1093.554c10.709.743,17.113.519,30.417-.377,17.809-.896,36.986-5.838,51.08-14.801,17.514-10.898,29.379-28.753,34.568-47.482l-1.168-.495c-11.417,10.674-28.093,17.03-52.189,17.03-47.506,0-90.637-34.143-90.637-94.965,0-57.885,45.407-110.462,113.281-110.462,77.793,0,113.069,60.385,113.069,131.337,0,65.692-21.017,112.773-54.229,143.307-28.011,25.31-66.767,39.062-114.002,41.078-10.402.672-21.795-.047-30.192-.543v-63.628Zm52.695-146.504c.225,21.878,9.577,44.133,32.528,44.133,14.165,0,23.223-7.077,27.114-13.575,2.359-5.119,3.078-10.933,3.078-25.061.248-25.758-8.739-51.964-32.351-51.964-18.092,0-30.818,18.528-30.37,46.468Z" fill="#1fc19a" stroke-width="0"/>
      </g>
    </g>
    <path d="m469.97,1000c0,110.17,33.61,212.49,91.15,297.26,95.32,140.48,256.32,232.77,438.88,232.77s343.56-92.29,438.88-232.77c14.02-20.66,26.62-42.35,37.65-64.95-93.71,83.66-217.34,134.51-352.84,134.51-182.56,0-343.56-92.29-438.88-232.77-57.54-84.77-91.15-187.09-91.15-297.26,0-83.32,19.23-162.16,53.5-232.31-32.55,29.05-61.48,62.06-86.05,98.27-57.53,84.77-91.14,187.09-91.14,297.25Z" opacity=".15" stroke-width="0"/>
  </g>
  <path d="m1449.68,967.638c-6.643,0-12.173-5.229-12.478-11.933-4.752-104.559-56.973-184.03-57.5-184.82-3.829-5.745-2.276-13.505,3.468-17.334,5.746-3.828,13.505-2.276,17.334,3.468,2.309,3.464,56.607,86.119,61.672,197.552.313,6.896-5.024,12.741-11.92,13.055-.193.009-.386.013-.577.013Z" fill="#fff" stroke-width="0"/>
  <path d="m1440.577,1095.916c-1.878,0-3.786-.425-5.58-1.323-6.175-3.087-8.678-10.595-5.59-16.77,6.219-12.438,8.076-44.157,7.785-61.229-.118-6.901,5.381-12.593,12.282-12.712,6.934-.097,12.593,5.377,12.714,12.277.09,5.142.565,50.873-10.421,72.843-2.19,4.38-6.605,6.913-11.19,6.913Z" fill="#fff" stroke-width="0"/>
  <path d="m716.867,906.4c-1.182,0-2.383-.169-3.573-.523-6.616-1.971-10.382-8.932-8.412-15.548,17.962-60.304,48.427-95.132,49.715-96.585,4.579-5.167,12.48-5.642,17.645-1.062,5.162,4.575,5.641,12.465,1.075,17.631-.443.507-28.236,32.633-44.476,87.153-1.616,5.426-6.589,8.935-11.975,8.935Z" fill="#fff" stroke-width="0"/>
  <path d="m798.106,781.142c-3.114,0-6.23-1.154-8.651-3.479-4.973-4.775-5.149-12.666-.384-17.648,1.434-1.5,14.469-14.832,30.322-21.173,6.41-2.564,13.684.554,16.248,6.964,2.564,6.41-.554,13.685-6.964,16.248-11.02,4.408-21.452,15.15-21.556,15.258-2.455,2.547-5.733,3.83-9.015,3.83Z" fill="#fff" stroke-width="0"/>
  <path d="m592.729,1263.914c-3.507,0-6.994-1.467-9.465-4.33-25.19-29.167-42.855-95.594-43.595-98.408-1.755-6.677,2.234-13.512,8.911-15.268,6.676-1.755,13.512,2.234,15.267,8.911,4.642,17.624,20.574,67.857,38.337,88.423,4.512,5.225,3.934,13.118-1.29,17.63-2.362,2.041-5.271,3.04-8.165,3.04Z" fill="#fff" stroke-width="0"/>
</svg>