<?xml version="1.0" encoding="UTF-8"?>
<svg id="a" data-name="FLAT COLORED" xmlns="http://www.w3.org/2000/svg" width="2000" height="2000" viewBox="0 0 2000 2000">
  <g>
    <g>
      <path d="m1510.061,1300.479c0,188.82-60.322,314.467-99.845,376.528-18,28.265-49.172,45.379-82.676,45.379h-115.793c-33.505,0-64.676-17.114-82.676-45.379-39.523-62.061-99.845-187.708-99.845-376.528,0-246.247,93.47-368.867,123.539-483.439,4.225-16.077,7.196-32.003,8.482-48.08.908-11.345,1.664-22.128,2.269-32.392,1.134-19.156,1.772-36.498,1.977-52.316.432-32.403-.897-58.399-3.296-80.472-3.025-27.886-7.758-49.506-12.76-69.808-9.832-39.89-36.984-179.28,48.512-245.166,42.159-32.489,101.239-32.489,143.398,0,85.486,65.886,58.334,205.276,48.502,245.166-5.003,20.302-9.724,41.922-12.76,69.808-2.399,22.074-3.728,48.08-3.296,80.472.206,15.818.832,33.159,1.977,52.316.605,10.264,1.361,21.047,2.269,32.392,1.286,16.077,4.257,32.003,8.493,48.08,30.058,114.572,123.529,237.192,123.529,483.439Z" fill="#fff" stroke-width="0"/>
      <path d="m1373.794,684.252h-208.301c.432-32.403-.897-58.399-3.296-80.472h214.892c-2.399,22.074-3.728,48.08-3.296,80.472Z" fill="#f24646" stroke-width="0"/>
      <path d="m1386.532,817.04h-233.767c4.225-16.077,7.196-32.003,8.482-48.08.908-11.345,1.664-22.128,2.269-32.392h212.255c.605,10.264,1.361,21.047,2.269,32.392,1.286,16.077,4.257,32.003,8.493,48.08Z" fill="#f24646" stroke-width="0"/>
      <path d="m1309.414,1722.389h-97.663c-33.505,0-64.676-17.114-82.676-45.379-39.523-62.061-99.845-187.708-99.845-376.517,0-280.81,121.54-400.86,132.021-531.53,10.47-130.67.119-186.552-11.82-234.988-9.832-39.88-36.984-179.28,48.512-245.166,31.82-24.526,73.277-30.534,109.828-18.044-13.376,4.441-26.104,11.345-37.449,20.691-83.357,68.566-51.775,207.026-40.679,246.582,13.473,48.026,25.607,103.551,19.297,234.491-6.321,130.94-123.972,254.804-115.026,535.463,6.007,188.723,70.305,312.381,111.784,373.157,14.997,21.976,38.075,36.66,63.714,41.241Z" opacity=".15" stroke-width="0"/>
    </g>
    <g>
      <path d="m1208.728,1376.167c0,74.702-22.79,144.082-61.806,201.561-64.633,95.254-173.801,157.833-297.589,157.833s-232.956-62.579-297.589-157.833c-39.016-57.48-61.806-126.859-61.806-201.561s22.79-144.075,61.799-201.555c64.64-95.255,173.808-157.84,297.595-157.84s232.963,62.585,297.596,157.84c39.009,57.479,61.799,126.859,61.799,201.555Z" fill="#1fc19a" stroke-width="0"/>
      <path d="m489.939,1376.167c0,74.702,22.79,144.082,61.806,201.561,64.633,95.254,173.801,157.833,297.589,157.833s232.956-62.579,297.589-157.833c9.507-14.009,18.05-28.716,25.529-44.04-63.541,56.727-147.37,91.206-239.248,91.206-123.787,0-232.956-62.579-297.589-157.833-39.016-57.479-61.805-126.859-61.805-201.561,0-56.497,13.039-109.955,36.276-157.521-22.071,19.698-41.687,42.081-58.347,66.633-39.009,57.48-61.799,126.859-61.799,201.555Z" opacity=".15" stroke-width="0"/>
      <circle cx="878.037" cy="1343.661" r="46.842" transform="translate(-628.859 1896.505) rotate(-76.984)" opacity=".15" stroke-width="0"/>
      <circle cx="704.759" cy="1281.439" r="46.842" transform="translate(-706.193 1666.128) rotate(-76.441)" opacity=".15" stroke-width="0"/>
      <circle cx="846.026" cy="1175.523" r="46.841" opacity=".15" stroke-width="0"/>
    </g>
  </g>
  <path d="m1107.617,1259.601c-5.314,0-10.24-3.414-11.92-8.751-19.388-61.621-55.653-87.523-56.018-87.778-5.694-3.903-7.123-11.667-3.22-17.361,3.902-5.694,11.706-7.13,17.4-3.228,1.767,1.212,43.54,30.479,65.685,100.863,2.072,6.586-1.587,13.603-8.172,15.676-1.248.393-2.513.579-3.756.579Z" fill="#fff" stroke-width="0"/>
  <path d="m1124.781,1336.989c-6.643,0-12.173-5.23-12.478-11.933-.474-10.422-4.624-24.54-4.666-24.682-1.96-6.616,1.812-13.573,8.429-15.536,6.616-1.959,13.569,1.804,15.536,8.418.206.694,5.062,17.154,5.676,30.665.314,6.897-5.023,12.741-11.92,13.055-.193.009-.386.013-.577.013Z" fill="#fff" stroke-width="0"/>
  <path d="m623.059,1172.328c-2.61,0-5.242-.814-7.49-2.501-5.523-4.142-6.642-11.978-2.5-17.5.786-1.048,19.583-25.822,48.557-39.404,6.252-2.932,13.693-.238,16.624,6.013,2.93,6.251.238,13.693-6.013,16.624-23.389,10.964-39.013,31.56-39.168,31.767-2.455,3.274-6.209,5.001-10.01,5.001Z" fill="#fff" stroke-width="0"/>
  <path d="m889.537,1692.88c-6.384,0-11.832-4.866-12.432-11.349-.636-6.869,4.413-12.954,11.28-13.598h0c.414-.039,41.819-4.182,70.842-25.019,5.607-4.024,13.418-2.743,17.444,2.864,4.026,5.608,2.744,13.418-2.864,17.444-34.635,24.865-81.14,29.42-83.103,29.602-.392.037-.782.055-1.167.055Z" fill="#fff" stroke-width="0"/>
  <path d="m836.764,1699.223c-9.173,0-20.092-2.265-21.435-2.551-6.752-1.439-11.059-8.08-9.619-14.832,1.439-6.75,8.082-11.063,14.828-9.619,4.366.925,13.011,2.277,17.645,1.961,6.884-.468,12.85,4.738,13.315,11.627.467,6.888-4.739,12.85-11.627,13.316-1,.067-2.042.098-3.107.098Z" fill="#fff" stroke-width="0"/>
</svg>