<?xml version="1.0" encoding="UTF-8"?>
<svg id="a" data-name="FLAT COLORED" xmlns="http://www.w3.org/2000/svg" width="2000" height="2000" viewBox="0 0 2000 2000">
  <g>
    <path d="m1491.829,1374.547c-26.34,30.257-69.398,69.005-139.572,116.639-47.614,32.318-86.608,53.789-118.386,67.739-13.224,5.812-25.211,10.318-36.029,13.764-45.258,14.392-94.589-3.004-121.263-42.293l-123.796-182.365-25.348-37.345,446.322-252.284,10.328,15.207v.01l53.514,78.842,56.773,83.633,5.105,7.52c27.39,40.349,24.366,94.157-7.648,130.933Z" fill="#1fc19a" stroke-width="0"/>
    <path d="m1494.372,1236.094c-43.746,70.557-123.03,132.396-171.753,166.216-22.806,15.825-54.093,10.426-70.331-12.085-16.297-22.599-11.417-54.113,10.966-70.714,94.226-69.86,148.084-128.636,174.345-167.05l56.773,83.633Z" fill="#ffc200" stroke-width="0"/>
    <path d="m1384.082,1073.615l-10.327-15.214-446.32,252.281,149.148,219.717c26.67,39.289,75.997,56.684,121.256,42.288,10.822-3.442,22.809-7.949,36.034-13.758,0,0-88.44-45.579-162.076-188.788,0,0,196.283-58.061,312.285-296.526Z" opacity=".15" stroke-width="0"/>
    <path d="m1417.408,899.037c.22,64.62-11.84,122.92-33.32,174.56v.01c0,.01-.01.01-.01.01.01.01,0,.01,0,.01-17.22,41.42-40.49,78.57-68.31,111.26-73.23,86.04-178.02,141.24-287.18,162.46-24.79,4.82-50.19,4.77-75.8.68h-.01c-82.96-13.22-168.07-68.71-241.25-137.85v-.01c-88.69-83.77-159.86-187.58-188.42-260.44-59.43-151.56-86.72-285.09,148.3-448.25,219.88-152.65,364.51-40.3,382.24-25.19,1.22,1.04,1.84,1.62,1.84,1.62,7.92,6.48,12.46,18.16,12.62,18.58l.1-.2.15-.3c.04-.08.09-.19.14-.3l.35-.69c1.28-2.46,4.27-7.7,9.38-13.83,13.74-16.5,42.83-39.44,95.08-31.91,79.25,11.41,243.21,196.93,244.1,449.78Z" fill="#f24646" stroke-width="0"/>
    <path d="m1131.358,720.147s-11.87-5.79-28.42-18.18c-34.86-26.09-90.49-81.44-99.82-173.65,0,0-83.34-81.67-235.21,6.47-188.08,109.17-265.39,399.74-56.38,675.38-88.69-83.77-159.86-187.58-188.42-260.44-59.43-151.56-86.72-285.09,148.3-448.25,219.88-152.65,364.51-40.3,382.24-25.19,1.22,1.04,1.84,1.62,1.84,1.62,7.92,6.48,12.46,18.16,12.62,18.58v.01s-29.69,104.09,63.25,223.65Z" opacity=".15" stroke-width="0"/>
    <path d="m1068.497,495.689c-.128.265-.23.465-.292.602l.292-.602Z" fill="#ffc200" stroke-width="0"/>
    <path d="m1184.898,793.037c-2.39,2.16-5.39,3.23-8.38,3.23-3.41,0-6.81-1.39-9.27-4.12-1.45-1.6-33.54-37.32-64.31-90.18-2.33-3.99-4.65-8.08-6.94-12.26-19.32-35.19-33.07-69.48-40.85-101.91-9.65-40.19-10.15-77.7-1.5-111.51,1.22,1.04,1.84,1.62,1.84,1.62,7.92,6.48,12.46,18.16,12.62,18.58l.1-.2.15-.3c.04-.08.09-.19.14-.3l.35-.69c1.28-2.46,4.27-7.7,9.38-13.83-35.51,133.97,106.12,292.62,107.56,294.21,4.63,5.12,4.23,13.03-.89,17.66Z" fill="#fff" stroke-width="0"/>
  </g>
  <path d="m854.512,1255.917c-1.612,0-3.249-.313-4.829-.976-53.592-22.475-110.085-91.675-112.463-94.61-4.347-5.363-3.523-13.234,1.84-17.581,5.363-4.347,13.233-3.522,17.58,1.838h0c.544.67,54.938,67.265,102.711,87.299,6.366,2.67,9.363,9.995,6.693,16.361-2.007,4.787-6.648,7.669-11.533,7.669Z" fill="#fff" stroke-width="0"/>
  <path d="m943.084,1299.777c-.617,0-1.241-.046-1.87-.141-18.768-2.814-39.223-16.171-41.493-17.685-5.744-3.829-7.296-11.59-3.467-17.334,3.827-5.742,11.581-7.295,17.324-3.474h0c4.909,3.258,20.111,12.084,31.344,13.77,6.827,1.023,11.532,7.388,10.508,14.216-.93,6.198-6.263,10.647-12.346,10.647Z" fill="#fff" stroke-width="0"/>
  <path d="m1321.674,728.329c-6.039,0-11.351-4.385-12.33-10.538-8.177-51.396-43.829-108.973-44.189-109.549-3.654-5.856-1.871-13.565,3.983-17.222,5.854-3.655,13.562-1.877,17.22,3.976,1.576,2.52,38.69,62.389,47.675,118.867,1.084,6.817-3.563,13.224-10.381,14.309-.665.105-1.327.157-1.979.157Z" fill="#fff" stroke-width="0"/>
  <path d="m1228.594,569.018c-3.666,0-7.3-1.605-9.769-4.691l-13.242-16.552c-4.312-5.391-3.439-13.257,1.952-17.569,5.39-4.311,13.256-3.439,17.569,1.952l13.242,16.552c4.312,5.391,3.439,13.257-1.952,17.569-2.305,1.844-5.062,2.739-7.801,2.739Z" fill="#fff" stroke-width="0"/>
  <path d="m1247.615,1504.192c-5.426,0-10.422-3.56-12.003-9.033-1.915-6.63,1.903-13.556,8.529-15.476h0c.35-.102,35.307-10.415,61.086-30.887,5.405-4.294,13.269-3.391,17.562,2.016,4.293,5.406,3.391,13.27-2.016,17.562-29.729,23.608-68.066,34.856-69.684,35.323-1.159.335-2.327.494-3.475.494Z" fill="#fff" stroke-width="0"/>
</svg>