<?xml version="1.0" encoding="UTF-8"?>
<svg id="a" data-name="FLAT COLORED" xmlns="http://www.w3.org/2000/svg" width="2000" height="2000" viewBox="0 0 2000 2000">
  <g>
    <path d="m1267.886,951.854c.068,30.828-.439,60.739-1.475,89.741-13.32,371.63-114.144,594.371-218.591,683.136-27.459,23.339-68.18,23.339-95.639,0-23.182-19.696-46.179-45.72-68.072-78.404-.01-.01-.01,0-.01,0v-.01c-84.517-126.077-152.716-351.201-151.984-694.463.732-347.11,127.795-568.338,210.496-667.248,29.92-35.789,84.859-35.789,114.779,0,82.7,98.91,209.744,320.139,210.496,667.248Z" fill="#ffc200" stroke-width="0"/>
    <path d="m1153.546,999.996c0,45.447-2.129,89.38-6.113,130.921-18.603,194.257-77.574,336.192-147.433,336.192s-128.831-141.935-147.433-336.192c-3.984-41.541-6.113-85.474-6.113-130.921s2.129-89.38,6.113-130.92c18.612-194.247,77.574-336.183,147.433-336.183s128.821,141.935,147.433,336.183c3.984,41.541,6.113,85.474,6.113,130.92Z" fill="#f24646" stroke-width="0"/>
    <path d="m1153.546,999.996c0,45.447-2.129,89.38-6.113,130.921h-294.867c-3.984-41.541-6.113-85.474-6.113-130.921s2.129-89.38,6.113-130.92h294.867c3.984,41.541,6.113,85.474,6.113,130.92Z" fill="#1fc19a" stroke-width="0"/>
    <path d="m1034.754,1455.088c-11.171,7.871-22.801,12.021-34.754,12.021-69.859,0-128.831-141.935-147.433-336.192-3.984-41.541-6.113-85.474-6.113-130.921s2.129-89.38,6.113-130.92c18.612-194.247,77.574-336.183,147.433-336.183,11.953,0,23.583,4.15,34.754,12.021-54.099,38.064-97.26,163.136-112.689,324.162-3.984,41.541-6.113,85.474-6.113,130.92s2.129,89.38,6.113,130.921c15.419,161.036,58.581,286.107,112.689,324.172Z" opacity=".15" stroke-width="0"/>
    <path d="m1266.411,1041.596c-13.32,371.63-114.144,594.371-218.591,683.136-27.459,23.339-68.18,23.339-95.639,0-23.182-19.696-46.179-45.72-68.072-78.404,1.973.713,281.107,100.932,382.293-604.683,0-.02,0-.03.01-.049Z" opacity=".15" stroke-width="0"/>
    <g>
      <g>
        <path d="m648.753,1348.161c-3.298,0-6.589-1.297-9.046-3.871-4.766-4.995-4.58-12.907.415-17.673l694.626-662.753c4.993-4.766,12.907-4.58,17.673.415s4.58,12.907-.415,17.673l-694.626,662.753c-2.42,2.31-5.527,3.456-8.627,3.456Z" fill="#fff" stroke-width="0"/>
        <path d="m1515.387,510.259l-38.214-40.052c-10.938-11.464-29.098-11.89-40.561-.952l-132.303,126.232c-6.025,5.749-9.255,13.832-8.851,22.15l3.554,73.122c.692,14.237,11.731,25.806,25.919,27.166l72.875,6.982c8.29.794,16.515-2.053,22.541-7.801l132.303-126.232c11.464-10.938,11.89-29.098.953-40.561l-38.214-40.052Z" fill="#1fc19a" stroke-width="0"/>
        <path d="m484.613,1489.734l38.214,40.052c10.938,11.464,29.098,11.89,40.561.952l132.303-126.232c6.025-5.749,9.255-13.832,8.851-22.15l-3.554-73.122c-.692-14.237-11.731-25.806-25.919-27.166l-72.875-6.982c-8.29-.794-16.515,2.053-22.541,7.801l-132.303,126.232c-11.464,10.938-11.89,29.098-.953,40.561l38.214,40.052Z" fill="#1fc19a" stroke-width="0"/>
      </g>
      <g>
        <path d="m1346.319,1336.465c-3.057,0-6.119-1.113-8.529-3.364l-701.66-655.301c-5.045-4.712-5.316-12.622-.603-17.668,4.711-5.043,12.621-5.316,17.667-.603l701.661,655.301c5.045,4.712,5.315,12.622.604,17.668-2.462,2.635-5.796,3.968-9.139,3.968Z" fill="#fff" stroke-width="0"/>
        <path d="m1518.609,1486.321l37.785-40.458c10.815-11.58,10.194-29.734-1.385-40.549l-133.642-124.813c-6.086-5.684-14.342-8.443-22.623-7.56l-72.796,7.76c-14.173,1.511-25.088,13.198-25.628,27.441l-2.773,73.156c-.315,8.322,3.001,16.37,9.087,22.054l133.642,124.813c11.58,10.815,29.734,10.194,40.549-1.385l37.785-40.458Z" fill="#1fc19a" stroke-width="0"/>
        <path d="m481.391,513.672l-37.785,40.458c-10.815,11.58-10.194,29.734,1.385,40.549l133.642,124.813c6.086,5.684,14.342,8.443,22.623,7.56l72.796-7.76c14.173-1.511,25.088-13.198,25.628-27.441l2.773-73.156c.315-8.322-3.001-16.37-9.087-22.054l-133.642-124.813c-11.58-10.815-29.734-10.194-40.549,1.385l-37.785,40.458Z" fill="#1fc19a" stroke-width="0"/>
      </g>
    </g>
  </g>
  <path d="m811.768,658.537c-1.035,0-2.086-.13-3.135-.4-6.684-1.726-10.703-8.544-8.977-15.228,1.34-5.188,33.118-127.497,59.668-166.894,3.858-5.725,11.626-7.236,17.351-3.381,5.725,3.858,7.239,11.627,3.38,17.352-24.163,35.856-55.876,157.946-56.194,159.175-1.455,5.636-6.531,9.377-12.094,9.377Z" fill="#fff" stroke-width="0"/>
  <path d="m891.197,455.778c-1.879,0-3.786-.425-5.581-1.322-6.175-3.088-8.677-10.597-5.59-16.771l8.276-16.551c3.087-6.174,10.596-8.677,16.77-5.59,6.175,3.088,8.677,10.597,5.59,16.771l-8.276,16.551c-2.19,4.379-6.605,6.912-11.19,6.912Z" fill="#fff" stroke-width="0"/>
  <path d="m1178.367,633.71c-5.714,0-10.87-3.942-12.182-9.75-6.199-27.456-19.064-58.446-25.976-75.096-3.391-8.167-4.488-10.855-5.015-13.037-1.621-6.711,2.506-13.464,9.217-15.084,6.626-1.602,13.29,2.4,15.019,8.957.405,1.235,2.165,5.476,3.869,9.579,7.199,17.342,20.601,49.623,27.273,79.175,1.521,6.733-2.706,13.426-9.441,14.946-.926.209-1.852.31-2.765.31Zm-18.913-103.916c.015.055.028.11.041.166-.012-.05-.024-.105-.041-.166Z" fill="#fff" stroke-width="0"/>
  <path d="m890.391,1582.123c-4.291,0-8.468-2.211-10.795-6.181-21.609-36.862-44.161-111.289-45.11-114.439-1.992-6.61,1.751-13.583,8.361-15.575,6.611-1.988,13.583,1.751,15.576,8.36.224.743,22.642,74.723,42.741,109.011,3.491,5.955,1.494,13.613-4.462,17.105-1.986,1.164-4.162,1.718-6.31,1.718Z" fill="#fff" stroke-width="0"/>
</svg>