<?xml version="1.0" encoding="UTF-8"?>
<svg id="a" data-name="FLAT COLORED" xmlns="http://www.w3.org/2000/svg" width="2000" height="2000" viewBox="0 0 2000 2000">
  <g>
    <g>
      <path d="m1417.74,1491.12v42.1h-835.48v-42.1c0-52.02,42.17-94.19,94.19-94.19h8.29v-42.3c0-44.95,36.44-81.4,81.41-81.4h9.62l.17-.63,6.75-25,94.21-349.15,5.23-19.37c-17.04-2.75-32.82-6.09-47.02-9.91-47.69-12.84-77.53-31.17-77.53-51.51,0-19.77,28.18-37.64,73.53-50.42,12.39-3.49,26.07-6.6,40.8-9.26-4.29-3.1-8.47-6.36-12.52-9.75-47.82-40.14-78.23-100.36-78.23-167.69,0-114.13,87.37-207.85,198.87-217.94,6.58-.6,13.24-.9,19.97-.9,120.86,0,218.84,97.98,218.84,218.84,0,63.96-27.44,121.51-71.19,161.51-6.2,5.67-12.73,10.99-19.56,15.93,20.46,3.7,38.88,8.26,54.66,13.5,37.16,12.35,59.67,28.51,59.67,46.18,0,17.87-23.02,34.19-60.93,46.58h-.01c-19.11,6.26-42.01,11.52-67.66,15.48l5.28,18.93,97.36,348.95,6.97,25,.18.63h10.24c44.97,0,81.41,36.45,81.41,81.4v42.3h8.29c2.93,0,5.83.13,8.69.41h.02c47.94,4.38,85.48,44.7,85.48,93.78Z" fill="#fff" stroke-width="0"/>
      <path d="m1332.24,1397.34c-2.86-.28-5.76-.41-8.69-.41h-8.29v-24.36h-533.5c10.76-106.69,94.07-95.14,94.07-95.14l.81-4.83h346.79l-6.97-25h-335.6l57.77-342.44c22.55,1.79,43.71,2.65,64.25,2.65,4.98,0,9.93-.05,14.85-.15,32.39-.66,64.55-3.47,101.37-9.01l-5.28-18.93c25.65-3.96,48.55-9.22,67.66-15.48-2.19-.9-4.66-1.19-7.15-.69-80.85,15.98-144.37,23.49-231.51,16.8l.18-1.07s-114.06-17.49-92.37-71.37c21.7-53.88,149.37-49.68,149.37-49.68,0,0-1.66-.18-4.64-.84,51.81-1.54,108.18,2.64,182.17,14.37,1.8.28,3.57.17,5.22-.28-15.78-5.24-34.2-9.8-54.66-13.5,6.83-4.94,13.36-10.26,19.56-15.93-55.7-7.66-101.57-10.73-145.43-9.83-17.49.36-34.92,1.34-53.06,3.04-30.4-22.4-66.29-66.31-83.13-151.97-29.89-152.03,95.87-212.78,114-220.69-111.5,10.09-198.87,103.81-198.87,217.94,0,67.33,30.41,127.55,78.23,167.69,4.05,3.39,8.23,6.65,12.52,9.75-14.73,2.66-28.41,5.77-40.8,9.26-45.35,12.78-73.53,30.65-73.53,50.42,0,20.34,29.84,38.67,77.53,51.51,14.2,3.82,29.98,7.16,47.02,9.91l-5.23,19.37-94.21,349.15-6.75,25-.17.63h-9.62c-44.97,0-81.41,36.45-81.41,81.4v42.3h-8.29c-52.02,0-94.19,42.17-94.19,94.19v42.1h157.12c-.03-1.309-.05-2.61-.07-3.89-1.87-129.08,41.35-128.05,41.35-128.05-.02-1.25-.03-2.49-.04-3.71h549.21c.82,0,1.63-.08,2.41-.23Z" opacity=".15" stroke-width="0"/>
    </g>
    <rect x="491.862" y="1529.333" width="1016.276" height="108.968" rx="54.484" ry="54.484" fill="#f24646" stroke-width="0"/>
  </g>
  <path d="m1282.931,1600.327h-90.206c-6.903,0-12.5-5.597-12.5-12.5s5.597-12.5,12.5-12.5h90.206c6.903,0,12.5,5.597,12.5,12.5s-5.597,12.5-12.5,12.5Z" fill="#fff" stroke-width="0"/>
  <path d="m1383.069,1600.327h-41.932c-6.903,0-12.5-5.597-12.5-12.5s5.597-12.5,12.5-12.5h41.932c6.903,0,12.5,5.597,12.5,12.5s-5.597,12.5-12.5,12.5Z" fill="#fff" stroke-width="0"/>
</svg>