<?xml version="1.0" encoding="UTF-8"?>
<svg id="a" data-name="FLAT COLORED" xmlns="http://www.w3.org/2000/svg" width="2000" height="2000" viewBox="0 0 2000 2000">
  <g>
    <g>
      <path d="m1301.824,1294.908l198.897,306.531s3.534,4.46,3.94,12.365c.595,11.497-5.466,30.289-38.821,53.162l.039.061c-.77.5-1.529.98-2.279,1.454-.748.497-1.495.995-2.266,1.495l-.039-.061c-58.129,35.652-74.054,5.156-74.054,5.156l-198.898-306.531-74.123-12.771-20.993-3.613,5.591-26.816,33.765-162.02-2.977-4.588,3.765.817.78-3.766,2.977,4.588,188.487,40.997-5.254,20.643-18.537,72.895Z" fill="#1fc19a" stroke-width="0"/>
      <path d="m1357.906,1197.652l-139.207,90.327s-.995.646-2.813,1.825l-139.207,90.327c-30.004,19.468-46.414-9.518-46.414-9.518L501.015,554.959c-25.962-59.065,42.355-120.837,88.255-154.065,17.618-12.736,31.919-21.277,36.356-23.86,15.015-10.813,153.264-107.394,213.249-41.3l529.249,815.654s19.786,26.796-10.218,46.265Z" fill="#ffc200" stroke-width="0"/>
    </g>
    <path d="m1504.661,1613.805c.595,11.497-5.466,30.289-38.821,53.162l.039.061c-.77.5-1.529.98-2.279,1.454-.748.497-1.495.995-2.266,1.495l-.039-.061c-58.129,35.652-74.054,5.156-74.054,5.156l-198.898-306.531-74.123-12.771-37.544,24.361c-30.004,19.468-46.414-9.518-46.414-9.518L501.015,554.959c-25.962-59.065,42.355-120.837,88.255-154.065-17.62,28.581-35.256,68.343-25.799,99.393l553.807,853.501,73.555-47.728,45.694,20.22,204.38,314.98s19.831,19.718,63.755-27.456Z" opacity=".15" stroke-width="0"/>
    <path d="m1111.955,512.201c43.606,67.204,24.478,157.037-42.725,200.643l-.003.002c-11.613,7.535-23.903,13.199-36.514,17.06-60.358,18.496-128.057-4.199-164.128-59.79-6.409-9.877-11.464-20.243-15.207-30.883-9.314-26.441-10.534-54.554-4.382-80.977,8.205-35.263,29.544-67.52,62.317-88.785,67.203-43.606,157.036-24.473,200.642,42.73Z" fill="#f24646" stroke-width="0"/>
    <path d="m868.584,670.115c16.412,25.293,39.371,43.777,65.209,54.668,42.811,18.052,93.523,15.257,135.436-11.939,41.911-27.194,65.128-72.368,66.084-118.82.141-6.832-.197-13.688-1.032-20.52-9.052,33.167-29.86,63.258-60.969,83.444-41.913,27.196-92.624,29.991-135.436,11.939-25.838-10.89-48.797-29.374-65.209-54.668-12.412-19.129-19.742-40.094-22.324-61.305-3.145,11.518-4.87,23.407-5.117,35.38-.58,28.032,6.946,56.53,23.357,81.821Z" opacity=".15" stroke-width="0"/>
  </g>
  <path d="m1160.736,948.743c-4.066,0-8.054-1.981-10.455-5.632l-67.496-102.621c-3.794-5.768-2.193-13.519,3.574-17.312,5.769-3.794,13.519-2.194,17.312,3.574l67.496,102.621c3.794,5.768,2.193,13.519-3.574,17.312-2.117,1.392-4.501,2.058-6.858,2.058Z" fill="#fff" stroke-width="0"/>
  <path d="m1204.598,1012.501c-4.082,0-8.081-1.996-10.479-5.668l-14.069-21.552c-3.773-5.781-2.146-13.526,3.634-17.3,5.78-3.774,13.526-2.147,17.3,3.634l14.069,21.552c3.773,5.781,2.146,13.526-3.634,17.3-2.108,1.376-4.479,2.034-6.821,2.034Z" fill="#fff" stroke-width="0"/>
  <path d="m622.802,446.397c-3.684,0-7.332-1.621-9.8-4.731-4.291-5.408-3.386-13.269,2.021-17.56,2.189-1.737,54.017-42.708,89.295-56.474,6.43-2.511,13.679.669,16.189,7.1,2.51,6.432-.669,13.68-7.101,16.189-31.769,12.397-82.336,52.366-82.843,52.768-2.298,1.823-5.04,2.708-7.761,2.708Z" fill="#fff" stroke-width="0"/>
  <path d="m751.899,376.466c-5.445,0-10.454-3.583-12.02-9.078-1.89-6.636,1.949-13.547,8.583-15.442,1.358-.388,13.551-3.791,23.296-3.791,6.904,0,12.5,5.597,12.5,12.5s-5.596,12.5-12.5,12.5c-4.709,0-12.582,1.737-16.438,2.832-1.141.324-2.291.478-3.422.478Z" fill="#fff" stroke-width="0"/>
  <path d="m1413.564,1554.122c-4.04,0-8.003-1.955-10.412-5.568l-32.276-48.414c-3.83-5.744-2.277-13.505,3.467-17.334,5.744-3.83,13.505-2.278,17.334,3.467l32.276,48.414c3.83,5.744,2.277,13.505-3.467,17.334-2.131,1.421-4.54,2.101-6.922,2.101Z" fill="#fff" stroke-width="0"/>
</svg>