<?xml version="1.0" encoding="UTF-8"?>
<svg id="a" data-name="FLAT COLORED" xmlns="http://www.w3.org/2000/svg" width="2000" height="2000" viewBox="0 0 2000 2000">
  <g>
    <path d="m1467.003,1637.038c-67.46,16.11-119.5-12.09-153.76-42.61-31.17-27.76-47.64-57.44-47.64-57.44l24.53-29.88s8.81,5.01,23.15,11.03c11.02,4.63,25.31,9.84,41.39,13.83,23.15,5.75,50.02,8.95,76.15,4.15,67.87-12.46,69.14-110.12,69.14-110.12h100.25s6.61,177.66-133.21,211.04Z" fill="#fff" stroke-width="0"/>
    <polygon points="1600.213 416.622 1600.213 1425.998 1499.963 1425.998 1499.963 421.036 1600.213 416.622" fill="#fff" stroke-width="0"/>
    <path d="m1499.963,416.622v1009.376s-1.27,97.66-69.14,110.12c-26.13,4.8-53,1.6-76.15-4.15.01-.56.02-1.13.02-1.69,0-25.46-13.53-47.77-33.79-60.12-1.88,12.12-5.15,32.58-7.62,47.98-1.87,11.67-3.28,20.42-3.28,20.42,0,0,14.36,12,37.36,23,27.9,13.37,68.5,25.28,111.6,12.58,78.62-23.17,83.7-148.14,83.7-148.14V416.622h-42.7Z" opacity=".15" stroke-width="0"/>
    <rect x="1467.006" y="358.277" width="166.166" height="116.69" rx="26.6" ry="26.6" fill="#1fc19a" stroke-width="0"/>
    <path d="m427.034,955.381h77.103v243.31h-77.103c-33.229,0-60.207-26.978-60.207-60.207v-122.897c0-33.229,26.978-60.207,60.207-60.207Z" fill="#1fc19a" stroke-width="0"/>
    <path d="m1527.213,955.381h77.104v243.31h-77.104c-33.229,0-60.207-26.978-60.207-60.207v-122.897c0-33.229,26.978-60.207,60.207-60.207Z" transform="translate(3071.323 2154.072) rotate(180)" fill="#1fc19a" stroke-width="0"/>
    <path d="m1298.108,1335.691c-100.525,0-154.883-22.14-198.559-39.93-35.017-14.262-60.316-24.566-112.756-24.566s-77.739,10.305-112.755,24.566c-43.677,17.79-98.033,39.93-198.559,39.93-86.144,0-139.105-36.147-168.364-66.469-68.369-70.854-69.535-170.278-69.151-188.26.145-54.867,11.272-104.183,33.08-146.597,18.696-36.362,44.891-67.154,77.857-91.522,46.141-34.103,103.726-52.886,162.146-52.886h551.494c58.421,0,116.005,18.782,162.146,52.886,32.967,24.367,59.161,55.159,77.857,91.522,21.808,42.414,32.936,91.728,33.08,146.596.383,17.982-.781,117.405-69.15,188.26-29.26,30.323-82.221,66.47-168.365,66.47Z" fill="#f24646" stroke-width="0"/>
    <path d="m1444.86,1151.374c-15.65,48.38-53.83,104.32-146.76,104.32-7.84,0-15.31-.15-22.46-.43-137.36-5.41-153.27-60.19-275.65-63.87-1.07-.03-2.14-.06-3.23-.09-1.08-.02-2.17-.04-3.27-.06-2.2-.03-4.43-.05-6.7-.05-141.39,0-147.6,64.5-311.31,64.5s-157.52-173.64-157.52-173.64c0-92.71,38.44-145.27,78.49-174.87,21.33-15.76,45.64-26.66,71.25-32.41l.01-.01c14.14-3.18,28.68-4.8,43.33-4.8h551.5c41.17,0,81.48,12.75,114.59,37.22,40.05,29.6,78.49,82.16,78.49,174.87,0,0,1.16,32.46-10.76,69.32Z" fill="#ffc200" stroke-width="0"/>
    <path d="m1354.693,1530.278c0,.56-.01,1.13-.02,1.69-.25,10.61-2.85,20.64-7.31,29.59-7.21,14.52-19.3,26.18-34.12,32.87-8.81,3.98-18.6,6.19-28.9,6.19-38.85,0-70.34-31.49-70.34-70.34s31.49-70.35,70.34-70.35c13.39,0,25.91,3.74,36.56,10.23,20.26,12.35,33.79,34.66,33.79,60.12Z" fill="#ffc200" stroke-width="0"/>
    <path d="m1345.583,1563.935c-7.33,12.97-18.67,23.36-32.34,29.53-8.81,3.98-18.6,6.19-28.9,6.19-38.85,0-70.34-31.49-70.34-70.34,0-26.27,14.39-49.17,35.73-61.25-5.8,10.22-9.11,22.04-9.11,34.63,0,38.85,31.49,70.34,70.34,70.34,10.3,0,20.09-2.21,28.9-6.19,1.96-.88,3.86-1.85,5.72-2.91Z" opacity=".15" stroke-width="0"/>
    <path d="m1444.86,1151.374c-15.65,48.38-53.83,104.32-146.76,104.32-7.84,0-15.31-.15-22.46-.43-137.36-5.41-153.27-60.19-275.65-63.87-1.07-.03-2.14-.06-3.23-.09-1.08-.02-2.17-.04-3.27-.06-2.2-.03-4.43-.05-6.7-.05-141.39,0-147.6,64.5-311.31,64.5s-157.52-173.64-157.52-173.64c0-92.71,38.44-145.27,78.49-174.87,21.33-15.76,45.64-26.66,71.25-32.41-1.47,1.11-144.059,149.334-69.045,253.088,105.103,145.372,288.414-82.345,528.375,56.552,0,0,198.66,107.57,317.83-33.04Z" opacity=".15" stroke-width="0"/>
  </g>
  <path d="m1079.759,929.982h-108.69c-6.903,0-12.5-5.597-12.5-12.5s5.597-12.5,12.5-12.5h108.69c6.903,0,12.5,5.597,12.5,12.5s-5.597,12.5-12.5,12.5Z" fill="#fff" stroke-width="0"/>
  <path d="m1185.965,929.982h-39.172c-6.903,0-12.5-5.597-12.5-12.5s5.597-12.5,12.5-12.5h39.172c6.904,0,12.5,5.597,12.5,12.5s-5.596,12.5-12.5,12.5Z" fill="#fff" stroke-width="0"/>
  <path d="m603.898,1294.124c-1.31,0-2.644-.207-3.955-.644-65.433-21.812-91.392-60.469-92.464-62.104-3.788-5.771-2.18-13.521,3.591-17.309,5.757-3.777,13.478-2.189,17.276,3.542.401.59,23.089,33.348,79.503,52.153,6.549,2.183,10.088,9.262,7.905,15.811-1.746,5.237-6.623,8.55-11.856,8.55Z" fill="#fff" stroke-width="0"/>
  <path d="m659.165,1305.478c-5.128,0-7.815-.189-8.228-.222-6.883-.529-12.034-6.539-11.503-13.422.529-6.874,6.532-12.008,13.392-11.507.151.012,5.152.348,15.16-.025,6.892-.256,12.699,5.13,12.954,12.028.256,6.898-5.129,12.698-12.028,12.954-3.895.145-7.137.193-9.746.193Z" fill="#fff" stroke-width="0"/>
  <path d="m1393.407,1173.293c-2.838,0-5.69-.961-8.034-2.929-5.286-4.441-5.972-12.325-1.531-17.611,10.689-12.725,16.58-49.483,17.783-69.665.411-6.89,6.326-12.142,13.217-11.736,6.89.408,12.145,6.32,11.74,13.21-.364,6.183-4.116,61.08-23.597,84.272-2.472,2.943-6.013,4.46-9.578,4.46Z" fill="#fff" stroke-width="0"/>
</svg>