<?xml version="1.0" encoding="UTF-8"?>
<svg id="a" data-name="FLAT COLORED" xmlns="http://www.w3.org/2000/svg" width="2000" height="2000" viewBox="0 0 2000 2000">
  <g>
    <g>
      <path d="m1530.02,1000c0,83.33-19.23,162.18-53.5,232.33h-.01c-.52,1.08-1.05,2.16-1.58,3.23-.95,1.92-1.92,3.83-2.89,5.73-.98,1.91-1.96,3.81-2.96,5.7-.99,1.86-1.98,3.72-2.99,5.57-.17.32-.35.63-.51.94-.17.32-.34.63-.52.94-.68,1.25-1.37,2.51-2.06,3.75-.01.03-.03.06-.05.08-2.08,3.72-4.21,7.42-6.37,11.08-1.09,1.84-2.18,3.67-3.29,5.49-.26.42-.52.85-.78,1.27-.85,1.4-1.71,2.78-2.57,4.17-2.26,3.61-4.56,7.2-6.9,10.75-1.17,1.78-2.35,3.55-3.54,5.31-1.09,1.62-2.2,3.24-3.32,4.85-.03.06-.07.11-.11.17-.14.22-.29.44-.45.65-1.12,1.61-2.25,3.22-3.38,4.82-.05.07-.11.15-.16.23-1.19,1.65-2.37,3.3-3.57,4.94-1.25,1.71-2.51,3.42-3.78,5.12-1.28,1.7-2.56,3.4-3.85,5.08s-2.58,3.35-3.88,5.01c-.01.02-.02.03-.03.04-3.94,5-7.96,9.93-12.06,14.78-1.37,1.62-2.75,3.23-4.14,4.83-1.38,1.6-2.78,3.2-4.19,4.78-2.81,3.17-5.67,6.31-8.55,9.41-2.89,3.11-5.82,6.18-8.78,9.21-5.92,6.07-11.99,11.99-18.2,17.77-1.55,1.44-3.11,2.88-4.68,4.3-1.57,1.43-3.14,2.84-4.73,4.25-1.59,1.41-3.18,2.81-4.78,4.19-1.61,1.39-3.22,2.77-4.84,4.14-1.62,1.37-3.24,2.73-4.88,4.08-1.64,1.35-3.28,2.69-4.93,4.02-1.65,1.33-3.32,2.66-4.98,3.97-3.34,2.62-6.71,5.2-10.11,7.75-3.4,2.54-6.84,5.05-10.3,7.51-3.42,2.43-6.88,4.83-10.36,7.19-.04.03-.08.06-.12.08-1.69,1.14-3.39,2.27-5.09,3.39-.02.01-.03.03-.05.04-.11.07-.22.14-.33.21,0,.01-.01.01-.01.01-.04.02-.07.05-.11.07-1.42.93-2.84,1.86-4.26,2.78-.52.34-1.04.67-1.57,1-1.54.99-3.09,1.96-4.64,2.93-1.81,1.13-3.62,2.25-5.45,3.36-1.76,1.07-3.52,2.13-5.3,3.18-.06.03-.12.07-.18.1-1.67.99-3.35,1.97-5.04,2.94-.57.33-1.14.66-1.71.98-1.08.63-2.16,1.24-3.25,1.84-.64.37-1.28.73-1.92,1.08-1.36.76-2.73,1.52-4.11,2.27-.33.18-.66.36-.99.54-1.25.68-2.5,1.35-3.76,2.01-.18.1-.36.2-.54.29-.66.36-1.32.7-1.98,1.05-1.47.77-2.95,1.54-4.44,2.3-1.8.92-3.61,1.84-5.42,2.74-1.81.91-3.63,1.8-5.45,2.68-.74.36-1.48.72-2.22,1.07-1.51.73-3.03,1.44-4.54,2.15-1.95.91-3.9,1.81-5.86,2.69-1.85.84-3.7,1.66-5.56,2.48-.22.1-.45.2-.67.29-1.53.67-3.07,1.33-4.61,1.98-.7.3-1.41.6-2.12.9-1.23.52-2.47,1.04-3.72,1.55-2.48,1.02-4.97,2.03-7.48,3.01-1.25.49-2.5.98-3.76,1.46-.63.24-1.26.49-1.89.72-.8.31-1.6.61-2.41.92-.41.15-.81.3-1.22.45-.81.3-1.62.6-2.44.9-2.03.74-4.06,1.47-6.1,2.19-1.02.36-2.05.72-3.07,1.07-1.01.35-2.02.7-3.03,1.04-2.42.82-4.86,1.62-7.3,2.41-1.03.33-2.07.67-3.12.99-5.37,1.7-10.79,3.31-16.24,4.84-.11.03-.22.06-.33.09-.91.26-1.83.51-2.75.76-2.06.57-4.12,1.12-6.19,1.66-1.61.42-3.21.83-4.82,1.23-.99.25-1.98.49-2.97.73-2.18.54-4.36,1.06-6.56,1.56-1.09.25-2.18.5-3.27.75-1.1.25-2.21.49-3.31.73-1.04.23-2.08.45-3.13.67-1.07.23-2.15.45-3.23.67-1.07.22-2.15.44-3.23.65-1.35.27-2.71.54-4.07.79-1.89.36-3.79.71-5.69,1.05-1.09.2-2.18.39-3.27.57-.87.16-1.75.31-2.64.45-1.22.21-2.45.41-3.68.6-.29.05-.58.09-.87.14-.88.14-1.76.28-2.65.41-.33.05-.66.1-.99.15-1.24.19-2.49.38-3.74.56-1.43.21-2.87.4-4.3.59-1.18.16-2.37.32-3.55.47-.26.03-.51.07-.77.1-.69.09-1.39.17-2.09.25-.36.06-.72.1-1.09.14-1.1.14-2.21.27-3.32.39-1.11.13-2.22.25-3.33.37-.49.06-.97.11-1.46.15-.39.05-.77.09-1.16.13-.79.08-1.58.16-2.37.23-.37.04-.73.08-1.09.11-.2.02-.4.04-.6.06-1.43.14-2.86.27-4.29.39-1.18.11-2.37.2-3.55.3-.05,0-.1.01-.15.01-.23.02-.45.04-.68.05-.47.04-.93.08-1.4.11-1.09.08-2.17.16-3.26.24-.04,0-.07.01-.11.01-1.12.08-2.25.15-3.37.22-.03.01-.05.01-.08.01-.37.02-.73.05-1.1.06-.24.02-.49.04-.73.05-.07,0-.15.01-.22.01-1.24.08-2.47.14-3.71.21h-.02c-.37.02-.74.04-1.12.06-1.04.05-2.08.1-3.13.15-1.14.05-2.29.1-3.44.14-.28.01-.56.02-.84.03-.22.01-.44.02-.66.02-.04.01-.08.01-.12.01-.14.01-.27.01-.41.01h-.02c-.46.02-.93.04-1.39.05-1.12.04-2.25.07-3.37.1-.66.01-1.33.03-1.99.04-.53.02-1.06.03-1.59.03-.52.02-1.04.02-1.56.03h-.04c-1.22.02-2.44.04-3.67.05h-.56c-.34.01-.68.01-1.02.01-.81.01-1.62.01-2.43.01h-.91c-1.4,0-2.79-.01-4.18-.02-1.43-.01-2.85-.02-4.27-.05-.88-.01-1.76-.03-2.63-.05-1.01-.02-2.02-.04-3.03-.07-1.23-.03-2.46-.07-3.68-.11-.73-.02-1.46-.05-2.18-.08-.18-.01-.36-.01-.54-.02-1-.03-2-.07-3.01-.12-1.31-.05-2.61-.11-3.92-.18-2.33-.12-4.65-.25-6.97-.41-1.56-.09-3.11-.2-4.67-.32-1.7-.12-3.4-.25-5.09-.4-.49-.03-.97-.08-1.45-.12-1.68-.14-3.36-.29-5.03-.45-1.32-.12-2.63-.25-3.94-.39-.8-.08-1.6-.16-2.39-.25-1.24-.13-2.48-.27-3.72-.41-1.16-.13-2.33-.27-3.49-.41-.03,0-.05-.01-.08-.01-.72-.09-1.45-.17-2.16-.27-1.24-.15-2.48-.31-3.71-.47-1.3-.17-2.61-.35-3.91-.54-.18-.02-.36-.04-.54-.07-.89-.12-1.77-.25-2.66-.38-.79-.12-1.59-.24-2.39-.36-2.1-.31-4.19-.64-6.28-.99-1.11-.17-2.21-.36-3.32-.55-.07-.01-.15-.02-.22-.04-1.05-.17-2.1-.35-3.15-.54-1.31-.23-2.63-.47-3.94-.71-1.32-.24-2.63-.49-3.94-.74l-2.01-.39c-.14-.02-.28-.05-.42-.08-1.06-.21-2.12-.42-3.17-.64-1.5-.3-2.98-.61-4.47-.93-1.17-.24-2.34-.5-3.5-.75-.39-.09-.77-.17-1.16-.26-1.42-.31-2.83-.63-4.23-.96-1.48-.34-2.96-.68-4.43-1.04-1.5-.36-3-.72-4.5-1.09-2.57-.64-5.12-1.3-7.67-1.98-.43-.11-.85-.22-1.27-.34-1.38-.37-2.74-.74-4.11-1.12-1.45-.4-2.9-.81-4.35-1.22-1.73-.5-3.46-1-5.19-1.51-1.72-.51-3.44-1.03-5.16-1.56-1.72-.53-3.44-1.07-5.15-1.62-1.71-.54-3.41-1.1-5.12-1.66-1.7-.56-3.4-1.13-5.09-1.71-1.7-.58-3.39-1.17-5.08-1.77-1.69-.59-3.37-1.2-5.05-1.81-1.57-.58-3.14-1.16-4.71-1.74-1.79-.67-3.58-1.36-5.36-2.06-.29-.11-.58-.22-.87-.34-1.36-.52-2.71-1.06-4.07-1.6-1.58-.63-3.15-1.27-4.72-1.91-.08-.03-.15-.06-.23-.1-1.47-.6-2.93-1.21-4.39-1.83-.41-.17-.81-.35-1.21-.52-1.1-.46-2.2-.93-3.29-1.41-.7-.3-1.39-.6-2.09-.91-1.25-.54-2.49-1.09-3.73-1.65-1.62-.72-3.24-1.46-4.85-2.2-1.5-.69-2.99-1.38-4.48-2.09-1.74-.82-3.47-1.64-5.19-2.48-1.58-.76-3.16-1.54-4.73-2.32-.13-.06-.26-.13-.39-.19-1.46-.73-2.91-1.46-4.35-2.2-4.21-2.14-8.39-4.34-12.53-6.6-.85-.46-1.71-.93-2.56-1.4-2.4-1.32-4.79-2.66-7.16-4.02-.78-.44-1.54-.88-2.31-1.32-.15-.09-.31-.18-.46-.27-.44-.25-.87-.5-1.3-.76-.91-.53-1.81-1.05-2.71-1.59-.02-.01-.05-.03-.07-.04-1.54-.91-3.08-1.82-4.6-2.76-1.06-.63-2.12-1.28-3.18-1.93-1-.61-2-1.23-2.99-1.86-.96-.6-1.92-1.2-2.88-1.81-2.25-1.41-4.48-2.85-6.7-4.31-1.11-.72-2.22-1.46-3.32-2.19-1.11-.73-2.21-1.47-3.31-2.22-1.39-.94-2.77-1.88-4.15-2.83-.62-.42-1.24-.85-1.86-1.29-1.1-.76-2.2-1.53-3.29-2.31-.23-.15-.45-.31-.67-.47-.17-.12-.35-.25-.52-.37-.67-.48-1.34-.96-2.01-1.44-.55-.39-1.11-.79-1.66-1.2-.7-.5-1.4-1.01-2.1-1.53-2.14-1.56-4.27-3.14-6.38-4.74-.89-.67-1.78-1.34-2.66-2.02-.07-.05-.13-.1-.2-.15-1.02-.78-2.04-1.56-3.05-2.35-1.39-1.08-2.77-2.16-4.14-3.25-1.11-.88-2.21-1.76-3.3-2.65-.38-.31-.77-.62-1.15-.93-.1-.08-.19-.15-.29-.23-.81-.65-1.61-1.31-2.41-1.97-.03-.02-.06-.05-.09-.08-1.09-.89-2.18-1.79-3.27-2.71-.21-.17-.42-.35-.64-.53-1.19-.99-2.38-2-3.56-3.01-1-.86-2.01-1.72-3.01-2.59-2-1.73-3.98-3.47-5.95-5.23-.99-.88-1.97-1.77-2.95-2.66-.98-.88-1.96-1.78-2.93-2.67-.98-.9-1.94-1.79-2.91-2.69-.97-.91-1.93-1.81-2.89-2.72-.96-.91-1.92-1.82-2.87-2.74-.95-.92-1.9-1.84-2.85-2.76-.94-.93-1.89-1.85-2.83-2.78-.93-.93-1.87-1.87-2.8-2.8-.61-.62-1.22-1.23-1.83-1.85-.05-.05-.1-.1-.15-.15-1.19-1.22-2.39-2.44-3.57-3.67-1.5-1.54-2.98-3.1-4.45-4.66-.11-.12-.22-.23-.33-.35-1.17-1.25-2.34-2.51-3.51-3.77-.02-.02-.04-.04-.05-.06-.63-.68-1.26-1.36-1.88-2.05-.43-.47-.86-.94-1.29-1.42-.67-.73-1.33-1.47-1.99-2.21-.95-1.05-1.89-2.11-2.84-3.18-.89-1.01-1.77-2.02-2.64-3.03-.8-.91-1.58-1.82-2.36-2.74-.86-1-1.72-2.01-2.57-3.02-1.44-1.7-2.86-3.42-4.28-5.14-.18-.22-.36-.43-.54-.65-.92-1.13-1.84-2.26-2.76-3.4-.83-1.03-1.65-2.06-2.48-3.1-1.64-2.07-3.27-4.16-4.89-6.26-.69-.89-1.37-1.78-2.05-2.68-.02-.03-.05-.06-.07-.09-.23-.31-.46-.61-.69-.92-.61-.8-1.21-1.61-1.82-2.41-.05-.07-.1-.13-.15-.2-.11-.15-.22-.29-.32-.44-1.08-1.45-2.15-2.9-3.21-4.36-.14-.18-.27-.37-.4-.55-1.1-1.51-2.19-3.02-3.27-4.54-.04-.06-.09-.12-.13-.18-.03-.04-.06-.08-.09-.12-.64-.91-1.28-1.81-1.91-2.72-1.53-2.17-3.04-4.35-4.52-6.55-.9-1.32-1.79-2.65-2.68-3.99-1.77-2.66-3.53-5.34-5.25-8.04-.75-1.17-1.49-2.34-2.22-3.51-.33-.52-.66-1.05-.99-1.58-.56-.88-1.11-1.77-1.65-2.66-.51-.82-1.01-1.64-1.51-2.46v-.01c-.4-.65-.79-1.3-1.18-1.94-.05-.09-.11-.18-.16-.27-.78-1.3-1.56-2.59-2.32-3.89-1.65-2.79-3.26-5.58-4.85-8.4-.8-1.4-1.59-2.81-2.37-4.23-.51-.91-1.01-1.82-1.5-2.73-.04-.07-.08-.15-.12-.22-.02-.04-.04-.08-.06-.12-.96-1.76-1.91-3.51-2.85-5.28-.08-.15-.16-.31-.24-.46-.69-1.31-1.39-2.63-2.07-3.96-.37-.71-.74-1.43-1.11-2.15-.36-.71-.73-1.43-1.09-2.15-.66-1.28-1.3-2.57-1.94-3.87-.68-1.37-1.35-2.74-2.02-4.12-.67-1.37-1.33-2.75-1.99-4.13-.08-.17-.17-.35-.25-.52-.65-1.36-1.29-2.73-1.92-4.1-.54-1.16-1.07-2.32-1.59-3.48-.64-1.4-1.27-2.8-1.89-4.21-.88-1.97-1.74-3.95-2.59-5.94-.52-1.21-1.04-2.42-1.55-3.64-.16-.36-.31-.73-.46-1.1-.64-1.52-1.27-3.05-1.89-4.58-.51-1.25-1.01-2.49-1.51-3.74v-.01c-.82-2.05-1.62-4.1-2.41-6.16-.06-.16-.12-.32-.18-.48-.34-.88-.67-1.75-1-2.63v-.01c-.56-1.49-1.12-2.99-1.66-4.49-.41-1.1-.81-2.21-1.21-3.32-.69-1.92-1.36-3.85-2.03-5.79-.53-1.51-1.04-3.03-1.54-4.55-.01-.03-.02-.05-.03-.08-.49-1.44-.96-2.89-1.43-4.34-.35-1.08-.7-2.16-1.04-3.24-.24-.72-.47-1.45-.69-2.18-.35-1.13-.7-2.26-1.04-3.39-.44-1.44-.88-2.87-1.3-4.31-.34-1.11-.67-2.23-.99-3.35-.07-.25-.15-.5-.21-.75-.35-1.18-.68-2.36-1.01-3.55-.33-1.17-.65-2.34-.97-3.52-.07-.22-.13-.45-.18-.67-.32-1.15-.62-2.29-.93-3.45-.01-.05-.03-.11-.04-.16-.35-1.31-.68-2.61-1.01-3.91-.03-.13-.07-.25-.1-.38-.33-1.28-.65-2.55-.96-3.83-.02-.09-.05-.19-.07-.28-.42-1.75-.84-3.49-1.25-5.23l-.21-.87c-.4-1.73-.8-3.46-1.18-5.19-.39-1.73-.77-3.47-1.14-5.22-.01-.04-.01-.08-.02-.11-.76-3.56-1.47-7.13-2.15-10.71-.31-1.64-.62-3.27-.91-4.91,0-.02-.01-.03-.01-.05-.09-.49-.18-.98-.26-1.47-.01-.04-.01-.07-.02-.11-.22-1.22-.43-2.44-.64-3.67-.08-.45-.15-.91-.23-1.36-.19-1.14-.38-2.28-.56-3.42-.01-.09-.03-.18-.04-.27-.14-.86-.27-1.73-.41-2.6-.1-.63-.2-1.26-.29-1.89-.02-.11-.03-.21-.05-.32-.12-.79-.24-1.59-.35-2.38-.23-1.56-.45-3.11-.66-4.67-.24-1.77-.48-3.53-.7-5.3-.01-.06-.02-.12-.02-.18-.19-1.46-.37-2.92-.53-4.39-.09-.67-.17-1.35-.24-2.03-.14-1.17-.26-2.34-.39-3.51-.09-.81-.17-1.61-.25-2.42-.34-3.31-.65-6.63-.93-9.96-.12-1.43-.23-2.86-.34-4.29v-.04c-.06-.79-.12-1.57-.17-2.36-.09-1.2-.17-2.41-.25-3.62-.04-.58-.08-1.16-.11-1.75-.07-1.18-.14-2.35-.2-3.53-.03-.58-.07-1.16-.09-1.74-.06-1.11-.11-2.22-.16-3.33v-.04c-.04-.8-.07-1.59-.1-2.4-.02-.32-.03-.64-.04-.96-.04-.93-.07-1.86-.1-2.79-.01-.23-.01-.47-.02-.7-.01-.09-.01-.18-.01-.27-.05-1.46-.09-2.93-.12-4.4v-.18c-.02-.76-.04-1.52-.05-2.29-.04-1.45-.06-2.9-.07-4.35-.02-1.89-.03-3.78-.03-5.67,0-1.56.01-3.13.02-4.69.02-1.87.04-3.74.08-5.61.03-1.52.06-3.03.11-4.54.08-3.08.19-6.16.33-9.23,0-.08.01-.16.01-.24.04-.86.08-1.73.12-2.59.06-1.24.13-2.48.2-3.72,0-.07.01-.14.01-.21.09-1.58.19-3.16.29-4.74.01-.15.02-.29.03-.43.07-1.02.14-2.04.22-3.06.04-.62.09-1.24.14-1.86.12-1.69.26-3.38.41-5.06.1-1.15.2-2.3.31-3.45.07-.79.14-1.58.22-2.37.03-.29.06-.59.09-.89.11-1.12.22-2.25.34-3.37.2-1.92.41-3.83.64-5.74.13-1.14.26-2.28.4-3.41.03-.27.07-.55.1-.82.01-.02.01-.05.01-.08.17-1.38.35-2.75.53-4.13.3-2.21.6-4.42.92-6.63.04-.26.08-.51.12-.77.13-.89.26-1.78.39-2.67.03-.19.06-.39.09-.58.14-.93.29-1.86.44-2.79.15-.98.31-1.96.47-2.93.24-1.42.48-2.84.72-4.26.27-1.58.55-3.15.83-4.72.33-1.78.67-3.57,1.01-5.35.01-.07.03-.13.04-.2.22-1.12.44-2.24.66-3.36.02-.08.03-.17.05-.25.26-1.28.52-2.56.79-3.84.19-.92.38-1.83.58-2.74.21-1.01.43-2.02.65-3.02.22-1.01.45-2.02.68-3.03.56-2.52,1.15-5.02,1.76-7.53v-.02c.39-1.62.79-3.24,1.21-4.86.36-1.48.74-2.95,1.13-4.42.4-1.55.81-3.09,1.23-4.63.31-1.16.63-2.32.95-3.48.18-.63.35-1.27.53-1.9.36-1.28.73-2.55,1.1-3.82.43-1.49.86-2.97,1.31-4.45.94-3.14,1.91-6.28,2.91-9.4.37-1.14.74-2.28,1.12-3.42.29-.91.59-1.82.9-2.73.45-1.36.91-2.72,1.37-4.07.53-1.54,1.07-3.08,1.61-4.62.54-1.53,1.09-3.06,1.65-4.59.49-1.36,1-2.73,1.51-4.09.01-.05.03-.09.05-.14.09-.26.19-.52.29-.78.06-.17.13-.33.19-.5.44-1.16.88-2.33,1.33-3.49.03-.1.07-.2.11-.3.06-.14.11-.29.17-.43.45-1.18.92-2.35,1.38-3.53.65-1.65,1.31-3.29,1.98-4.93.61-1.5,1.22-3,1.85-4.49.56-1.36,1.13-2.72,1.71-4.07.03-.07.06-.13.09-.2.07-.16.14-.33.21-.49.03-.08.07-.15.1-.23.47-1.1.94-2.2,1.43-3.29.16-.39.33-.78.51-1.16.48-1.11.98-2.22,1.47-3.32.14-.33.29-.65.43-.96.62-1.36,1.23-2.71,1.85-4.05.68-1.47,1.36-2.93,2.05-4.39.69-1.46,1.39-2.92,2.09-4.37.7-1.45,1.41-2.9,2.13-4.35.65-1.32,1.31-2.64,1.98-3.95.08-.17.16-.34.25-.5.71-1.39,1.42-2.78,2.14-4.17.74-1.43,1.49-2.86,2.24-4.28.75-1.42,1.51-2.84,2.28-4.25.56-1.04,1.12-2.08,1.69-3.1.01-.02.02-.03.03-.05,2.06-3.75,4.16-7.47,6.32-11.15.5-.88,1.01-1.75,1.53-2.63.75-1.27,1.5-2.54,2.26-3.8.85-1.41,1.7-2.81,2.56-4.2.68-1.11,1.36-2.21,2.05-3.31.18-.29.37-.59.55-.88.85-1.36,1.71-2.71,2.57-4.06s1.73-2.7,2.61-4.04c.87-1.34,1.75-2.68,2.64-4.01.89-1.34,1.78-2.67,2.68-3.99,2.13-3.13,4.29-6.24,6.48-9.33.47-.67.95-1.33,1.43-2,.75-1.06,1.51-2.11,2.28-3.16.06-.08.12-.17.18-.25.87-1.2,1.75-2.39,2.64-3.59.92-1.24,1.85-2.49,2.79-3.72.94-1.24,1.88-2.47,2.82-3.7.95-1.23,1.9-2.46,2.86-3.68,1.09-1.4,2.2-2.8,3.32-4.19.82-1.03,1.65-2.06,2.48-3.08.98-1.2,1.96-2.4,2.95-3.6.99-1.19,1.98-2.38,2.98-3.57,1-1.18,2-2.37,3.01-3.54.03-.04.07-.08.1-.12.97-1.14,1.95-2.27,2.94-3.4,1.02-1.17,2.04-2.33,3.07-3.49,1.03-1.16,2.06-2.31,3.1-3.46.01-.02.02-.04.04-.05,1.03-1.14,2.06-2.26,3.09-3.39,1.08-1.18,2.17-2.36,3.27-3.53,1.02-1.09,2.05-2.17,3.08-3.26,1.07-1.12,2.14-2.23,3.22-3.35.97-1,1.95-2,2.93-3,1.37-1.4,2.76-2.8,4.16-4.19,2.01-1.99,4.03-3.97,6.07-5.93,1.4-1.35,2.81-2.69,4.22-4.03.18-.17.37-.34.56-.52,1.3-1.22,2.61-2.44,3.92-3.65.11-.1.22-.2.33-.3,1.4-1.29,2.81-2.57,4.23-3.84.49-.45.98-.89,1.48-1.33l.01-.01c90.78-81.06,209.68-131.33,340.25-134.38,4.19-.09,8.39-.14,12.6-.14,4.14,0,8.28.05,12.4.14,286.98,6.59,517.61,241.31,517.61,529.89Z" fill="#fff" stroke-width="0"/>
      <path d="m659.043,684.577s-77.534,84.978-104.615,182.161l-69.64,8.355c24.039-99.571,76.212-188.168,147.623-256.923l26.632,66.406Z" fill="#1fc19a" stroke-width="0"/>
      <path d="m598.502,1014.915s-3.187,148.704,0,214.559c0,0,107.279,81.787,190.129,111.528l88.16-129.585-120.025-206.436s-123.212,9.58-158.264,9.934Z" fill="#1fc19a" stroke-width="0"/>
      <path d="m999.994,1468.822v61.208c-50.581,0-99.519-7.085-145.852-20.33l40.711-50.799s40.352,12.039,105.141,9.921Z" fill="#1fc19a" stroke-width="0"/>
      <path d="m619.89,1228.85l-12.01,7.59-61.05,38.57c-.4-.65-.79-1.3-1.18-1.94-.05-.09-.11-.18-.16-.27-.78-1.3-1.56-2.59-2.32-3.89-1.65-2.79-3.26-5.58-4.85-8.4-.8-1.4-1.59-2.81-2.37-4.23-.51-.91-1.01-1.82-1.5-2.73-.04-.07-.08-.15-.12-.22l63.55-40.15,8.65-5.47,13.36,21.14Z" fill="#1fc19a" stroke-width="0"/>
      <path d="m598.752,1035.574c-43.898-83.35-63.797-176.975-64.623-180.919l24.469-5.124c.196.933,20.054,94.228,62.274,174.394l-22.12,11.649Z" fill="#1fc19a" stroke-width="0"/>
      <path d="m640.451,702.61l-11.622-22.134c72.899-38.279,201.894-48.432,207.349-48.846l1.891,24.929c-1.286.098-129.317,10.186-197.618,46.051Z" fill="#1fc19a" stroke-width="0"/>
      <rect x="680.419" y="885.544" width="277.352" height="25" transform="translate(-370.904 1145.636) rotate(-59.386)" fill="#1fc19a" stroke-width="0"/>
      <path d="m891.187,1482.149c-91.51-80.908-126.962-161.013-128.426-164.384l22.924-9.974c.34.778,34.976,78.632,122.062,155.628l-16.56,18.73Z" fill="#1fc19a" stroke-width="0"/>
      <rect x="819.095" y="1197.315" width="180.909" height="25" fill="#1fc19a" stroke-width="0"/>
      <path d="m1000.003,539.808v-.038c-.016.006-.031.013-.046.019-.015-.006-.031-.013-.046-.019v.038c-111.831,46.024-187.558,108.303-187.558,108.303l70.103,144.456h235.002l70.103-144.456s-75.727-62.28-187.558-108.303Z" fill="#1fc19a" stroke-width="0"/>
      <path d="m1340.872,684.577s77.534,84.978,104.615,182.161l69.641,8.355c-24.039-99.571-76.212-188.168-147.624-256.923l-26.632,66.406Z" fill="#1fc19a" stroke-width="0"/>
      <path d="m1401.413,1014.915s3.186,148.704,0,214.559c0,0-107.28,81.787-190.129,111.528l-88.16-129.585,120.026-206.436s123.212,9.58,158.264,9.934Z" fill="#1fc19a" stroke-width="0"/>
      <path d="m999.921,1468.822v61.208c50.581,0,99.519-7.085,145.852-20.33l-40.711-50.799s-40.352,12.039-105.141,9.921Z" fill="#1fc19a" stroke-width="0"/>
      <path d="m1465.07,1254.45c-3.77,6.89-7.7,13.69-11.78,20.39-.25.43-.51.85-.77,1.27h-.01l-16.7-10.89-43.95-28.66-11.98-7.81,13.65-20.94,8.49,5.54,54.8,35.72,8.24,5.37.01.01Z" fill="#1fc19a" stroke-width="0"/>
      <path d="m1401.162,1035.574l-22.119-11.649c42.22-80.166,62.078-173.461,62.273-174.394l24.47,5.124c-.826,3.944-20.726,97.569-64.624,180.919Z" fill="#1fc19a" stroke-width="0"/>
      <path d="m1359.464,702.61c-68.301-35.865-196.333-45.953-197.618-46.051l1.891-24.929c5.456.414,134.451,10.567,207.351,48.846l-11.623,22.134Z" fill="#1fc19a" stroke-width="0"/>
      <rect x="1168.32" y="759.368" width="25" height="277.352" transform="translate(-292.744 726.501) rotate(-30.614)" fill="#1fc19a" stroke-width="0"/>
      <path d="m1108.727,1482.149l-16.559-18.73c87.084-76.996,121.722-154.851,122.061-155.628l22.924,9.974c-1.465,3.371-36.917,83.476-128.427,164.384Z" fill="#1fc19a" stroke-width="0"/>
      <rect x="999.911" y="1197.315" width="180.909" height="25" fill="#1fc19a" stroke-width="0"/>
      <rect x="987.411" y="469.97" width="25" height="87.504" fill="#1fc19a" stroke-width="0"/>
    </g>
    <g opacity=".15">
      <path d="m1476.54,1232.31c-.53,1.09-1.06,2.17-1.61,3.25-.95,1.92-1.92,3.83-2.89,5.73-.98,1.91-1.96,3.81-2.96,5.7-.99,1.86-1.98,3.72-2.99,5.57-.17.32-.35.63-.51.94-.17.32-.34.64-.51.95-.68,1.25-1.37,2.5-2.07,3.74-.01.03-.03.06-.05.08-2.07,3.72-4.19,7.41-6.37,11.08-1.09,1.84-2.18,3.67-3.29,5.49-.25.43-.51.85-.77,1.27-.85,1.4-1.71,2.79-2.58,4.17-2.25,3.62-4.55,7.2-6.9,10.75-1.17,1.78-2.35,3.55-3.54,5.31-.2.31-.4.61-.61.92-.89,1.31-1.79,2.63-2.71,3.93-.03.06-.07.11-.11.17-.14.22-.29.44-.45.65-1.12,1.61-2.25,3.22-3.38,4.82-.05.07-.11.15-.16.23-1.19,1.65-2.37,3.3-3.57,4.94-1.25,1.71-2.51,3.42-3.78,5.12-1.28,1.7-2.56,3.4-3.85,5.08s-2.58,3.35-3.88,5.01c-.01.02-.02.03-.03.04-3.93,5-7.94,9.93-12.06,14.78-1.37,1.62-2.75,3.23-4.14,4.83-1.38,1.6-2.78,3.2-4.19,4.78-2.8,3.17-5.65,6.31-8.55,9.41-2.88,3.11-5.81,6.18-8.78,9.21-5.92,6.07-11.99,12-18.2,17.77-1.55,1.44-3.11,2.88-4.68,4.3-1.57,1.43-3.14,2.84-4.73,4.25-1.59,1.41-3.18,2.81-4.78,4.19-1.61,1.39-3.22,2.77-4.84,4.14-1.62,1.37-3.24,2.73-4.88,4.08-1.64,1.35-3.28,2.69-4.93,4.02-1.65,1.33-3.32,2.66-4.98,3.97-3.34,2.63-6.71,5.22-10.11,7.75-3.4,2.55-6.83,5.06-10.3,7.51-3.42,2.44-6.88,4.84-10.36,7.19-.04.03-.08.06-.12.08-1.69,1.14-3.39,2.27-5.09,3.39-.02.01-.03.03-.05.04-.11.08-.22.15-.33.21,0,.01-.01.01-.01.01-.04.02-.07.05-.11.07-1.42.93-2.84,1.86-4.26,2.78-.52.34-1.04.67-1.57,1-1.54.99-3.09,1.96-4.64,2.93-1.81,1.13-3.62,2.25-5.45,3.36-1.76,1.07-3.52,2.13-5.3,3.18-.06.03-.12.07-.18.1-1.67.99-3.35,1.97-5.04,2.94-.57.33-1.14.66-1.71.98-1.08.63-2.16,1.24-3.25,1.84-.64.37-1.28.73-1.92,1.08-1.36.76-2.73,1.52-4.11,2.27-.33.18-.66.36-.99.54-1.25.68-2.5,1.35-3.76,2.01-.18.1-.36.2-.54.29-.66.36-1.32.7-1.98,1.05-1.47.77-2.95,1.54-4.44,2.3-1.8.92-3.61,1.84-5.42,2.74-1.81.91-3.63,1.8-5.45,2.68-.74.36-1.48.72-2.22,1.07-1.51.73-3.03,1.44-4.54,2.15-1.95.91-3.9,1.81-5.86,2.69-1.85.84-3.7,1.66-5.56,2.48-.22.1-.45.2-.67.29-1.53.67-3.07,1.33-4.61,1.98-.7.31-1.41.61-2.12.9-1.23.52-2.47,1.04-3.72,1.55-2.48,1.02-4.97,2.03-7.48,3.01-1.25.49-2.5.98-3.76,1.46-.63.24-1.26.49-1.89.72-.8.31-1.6.61-2.41.92-.41.15-.81.3-1.22.45-.81.3-1.62.6-2.44.9-2.03.74-4.06,1.47-6.1,2.19-1.02.36-2.05.72-3.07,1.07-1.01.35-2.02.7-3.03,1.04-2.42.82-4.86,1.62-7.3,2.41-1.03.33-2.07.67-3.12.99-5.37,1.7-10.79,3.31-16.24,4.84-.11.03-.22.06-.33.09-.91.26-1.83.51-2.75.76-2.06.57-4.12,1.12-6.19,1.66-1.61.42-3.21.83-4.82,1.23-.99.25-1.98.49-2.97.73-2.18.54-4.36,1.06-6.56,1.56-1.09.25-2.18.5-3.27.75-1.1.25-2.21.49-3.31.73-1.04.23-2.08.45-3.13.67-1.07.23-2.15.45-3.23.67-1.07.22-2.15.44-3.23.65-1.35.27-2.71.54-4.07.79-1.89.36-3.79.71-5.69,1.05-1.09.2-2.18.39-3.27.57-.87.16-1.75.31-2.64.45-1.22.21-2.45.41-3.68.6-.29.05-.58.09-.87.14-.88.14-1.76.28-2.65.41-.33.05-.66.1-.99.15-1.24.19-2.49.38-3.74.56-1.43.21-2.87.4-4.3.59-1.18.16-2.37.32-3.55.47-.26.03-.51.07-.77.1-1.06.13-2.12.27-3.18.39-1.1.14-2.21.27-3.32.39-1.11.13-2.22.25-3.33.37-.88.1-1.75.19-2.62.28-.79.08-1.58.16-2.37.23-.37.04-.73.08-1.09.11-.2.02-.4.04-.6.06-1.43.14-2.86.27-4.29.39-1.18.11-2.37.2-3.55.3-.05,0-.1.01-.15.01-.23.02-.45.04-.68.05-.47.04-.93.08-1.4.11-1.09.08-2.17.16-3.26.24-.04,0-.07.01-.11.01-1.12.08-2.25.15-3.37.22-.03.01-.05.01-.08.01-.61.04-1.22.08-1.83.11-.07,0-.15.01-.22.01-1.24.08-2.47.14-3.71.21h-.02c-.37.02-.74.04-1.12.06-1.04.05-2.08.1-3.13.15-1.14.05-2.29.1-3.44.14-.28.01-.56.02-.84.03-.16,0-.31.01-.47.01-.06.01-.13.01-.19.01-.04.01-.08.01-.12.01-.14.01-.27.01-.41.01h-.02c-.46.02-.93.04-1.39.05-.99.03-1.97.06-2.96.08-.14.01-.27.01-.41.02-.66.01-1.33.03-1.99.04-.53.02-1.06.03-1.59.03-.52.02-1.04.02-1.56.03h-.04c-1.22.02-2.44.04-3.67.05h-.56c-.34,0-.68.01-1.02.01-.81.01-1.62.01-2.43.01h-.91c-1.4,0-2.79-.01-4.18-.02-1.43-.01-2.85-.02-4.27-.05-.88-.01-1.76-.03-2.63-.05-1.01-.02-2.02-.04-3.03-.07-1.23-.03-2.46-.07-3.68-.11-.73-.02-1.46-.05-2.18-.08-.18-.01-.36-.01-.54-.02-1-.03-2-.07-3.01-.12-1.31-.05-2.61-.11-3.92-.18-2.33-.12-4.65-.25-6.97-.41-1.56-.09-3.11-.2-4.67-.32-1.7-.12-3.4-.25-5.09-.4-.49-.03-.97-.08-1.45-.12-1.68-.14-3.36-.29-5.03-.45-1.32-.12-2.63-.25-3.94-.39-.8-.08-1.6-.16-2.39-.25-1.24-.13-2.48-.27-3.72-.41-1.16-.13-2.33-.27-3.49-.41-.03,0-.05-.01-.08-.01-.72-.09-1.45-.17-2.16-.27-1.24-.15-2.48-.31-3.71-.47-1.3-.17-2.61-.35-3.91-.54-.18-.02-.36-.04-.54-.07-.89-.12-1.77-.25-2.66-.38-.79-.12-1.59-.24-2.39-.36-2.1-.31-4.19-.64-6.28-.99-1.11-.17-2.21-.36-3.32-.55-.07-.01-.15-.02-.22-.04-1.05-.17-2.1-.35-3.15-.54-1.31-.23-2.63-.47-3.94-.71-1.32-.24-2.63-.49-3.94-.74l-2.01-.39c-.14-.02-.28-.05-.42-.08-1.06-.21-2.12-.42-3.17-.64-1.5-.3-2.98-.61-4.47-.93-1.17-.24-2.34-.5-3.5-.75-.39-.09-.77-.17-1.16-.26-1.42-.31-2.83-.63-4.23-.96-1.48-.34-2.96-.68-4.43-1.04-1.5-.36-3-.72-4.5-1.09-2.57-.64-5.12-1.3-7.67-1.98-.43-.11-.85-.22-1.27-.34-1.38-.37-2.74-.74-4.11-1.12-1.45-.4-2.9-.81-4.35-1.22-1.73-.5-3.46-1-5.19-1.51-1.72-.51-3.44-1.03-5.16-1.56-1.72-.53-3.44-1.07-5.15-1.62-1.71-.54-3.41-1.1-5.12-1.66-1.7-.56-3.4-1.13-5.09-1.71-1.7-.58-3.39-1.17-5.08-1.77-1.69-.59-3.37-1.2-5.05-1.81-1.57-.58-3.14-1.16-4.71-1.74-1.79-.67-3.58-1.36-5.36-2.06-.29-.11-.58-.22-.87-.34-1.36-.52-2.71-1.06-4.07-1.6-1.58-.63-3.15-1.27-4.72-1.91-.08-.03-.15-.06-.23-.1-1.47-.6-2.93-1.21-4.39-1.83-.41-.17-.81-.35-1.21-.52-1.1-.46-2.2-.93-3.29-1.41-.7-.3-1.39-.6-2.09-.91-1.25-.54-2.49-1.09-3.73-1.65-1.62-.72-3.24-1.46-4.85-2.2-1.5-.69-2.99-1.38-4.48-2.09-1.74-.82-3.47-1.64-5.19-2.48-1.58-.76-3.16-1.54-4.73-2.32-.13-.06-.26-.13-.39-.19-1.46-.73-2.91-1.46-4.35-2.2-4.21-2.14-8.39-4.34-12.53-6.6-.85-.46-1.71-.93-2.56-1.4-2.4-1.32-4.79-2.66-7.16-4.02-.78-.44-1.54-.88-2.31-1.32-.15-.09-.31-.18-.46-.27-.44-.25-.87-.5-1.3-.76-.91-.53-1.81-1.05-2.71-1.59-.02-.01-.05-.03-.07-.04-1.54-.91-3.08-1.82-4.6-2.76-1.06-.63-2.12-1.28-3.18-1.93-1-.61-2-1.23-2.99-1.86-.96-.6-1.92-1.2-2.88-1.81-2.25-1.41-4.48-2.85-6.7-4.31-1.11-.72-2.22-1.46-3.32-2.19-1.11-.73-2.21-1.47-3.31-2.22-1.39-.94-2.77-1.88-4.15-2.83-.62-.42-1.24-.85-1.86-1.29-1.1-.76-2.2-1.53-3.29-2.31-.23-.15-.45-.31-.67-.47-.17-.12-.35-.25-.52-.37-.67-.48-1.34-.96-2.01-1.44-.55-.39-1.11-.79-1.66-1.2-.7-.5-1.4-1.01-2.1-1.53-2.14-1.56-4.27-3.14-6.38-4.74-.89-.67-1.78-1.34-2.66-2.02-.07-.05-.13-.1-.2-.15-1.02-.78-2.04-1.56-3.05-2.35-1.39-1.08-2.77-2.16-4.14-3.25-1.11-.88-2.21-1.76-3.3-2.65-.38-.31-.77-.62-1.15-.93-.1-.08-.19-.15-.29-.23-.81-.65-1.61-1.31-2.41-1.97-.03-.02-.06-.05-.09-.08-1.09-.89-2.18-1.79-3.27-2.71-.21-.17-.42-.35-.64-.53-1.19-.99-2.38-2-3.56-3.01-1-.86-2.01-1.72-3.01-2.59-2-1.73-3.98-3.47-5.95-5.23-.99-.88-1.97-1.77-2.95-2.66-.98-.88-1.96-1.78-2.93-2.67-.98-.9-1.94-1.79-2.91-2.69-.97-.91-1.93-1.81-2.89-2.72-.96-.91-1.92-1.82-2.87-2.74-.95-.92-1.9-1.84-2.85-2.76-.94-.93-1.89-1.85-2.83-2.78-.93-.93-1.87-1.87-2.8-2.8-.61-.62-1.22-1.23-1.83-1.85-.05-.05-.1-.1-.15-.15-1.19-1.22-2.39-2.44-3.57-3.67-1.49-1.54-2.98-3.1-4.45-4.66-.11-.12-.22-.23-.33-.35-1.17-1.25-2.34-2.51-3.51-3.77-.02-.02-.04-.04-.05-.06-.63-.68-1.26-1.36-1.88-2.05-.43-.47-.86-.94-1.29-1.42-.67-.73-1.33-1.47-1.99-2.21-.95-1.05-1.89-2.11-2.84-3.18-.89-1.01-1.77-2.02-2.64-3.03-.8-.91-1.58-1.82-2.36-2.74-.86-1-1.72-2.01-2.57-3.02-1.44-1.7-2.86-3.42-4.28-5.14-.18-.22-.36-.43-.54-.65-.92-1.13-1.84-2.26-2.76-3.4-.83-1.03-1.65-2.06-2.48-3.1-1.64-2.07-3.27-4.16-4.89-6.26-.69-.89-1.37-1.78-2.05-2.68-.02-.03-.05-.06-.07-.09-.23-.31-.46-.61-.69-.92-.61-.8-1.21-1.61-1.82-2.41-.05-.07-.1-.13-.15-.2-.11-.15-.22-.29-.32-.44-1.08-1.45-2.15-2.9-3.21-4.36-.14-.18-.27-.37-.4-.55-1.1-1.51-2.19-3.02-3.27-4.54-.04-.06-.09-.12-.13-.18-.03-.04-.06-.08-.09-.12-.64-.91-1.28-1.81-1.91-2.72-1.53-2.17-3.03-4.35-4.52-6.55-.9-1.32-1.79-2.65-2.68-3.99-1.77-2.66-3.53-5.34-5.25-8.04-.75-1.17-1.49-2.34-2.22-3.51-.33-.52-.66-1.05-.99-1.58-.56-.88-1.11-1.77-1.65-2.66-.51-.82-1.01-1.64-1.51-2.46v-.01c-.4-.65-.79-1.3-1.18-1.94-.05-.09-.11-.18-.16-.27-.78-1.3-1.56-2.59-2.32-3.89-1.65-2.79-3.26-5.58-4.85-8.4-.8-1.4-1.59-2.81-2.37-4.23-.51-.91-1.01-1.82-1.5-2.73-.04-.07-.08-.15-.12-.22-.02-.04-.04-.08-.06-.12-.96-1.76-1.91-3.51-2.85-5.28-.08-.15-.16-.31-.24-.46-.69-1.31-1.39-2.63-2.07-3.96-.37-.71-.74-1.43-1.11-2.15-.36-.71-.73-1.43-1.09-2.15-.66-1.28-1.3-2.57-1.94-3.87-.68-1.37-1.35-2.74-2.02-4.12-.67-1.37-1.33-2.75-1.99-4.13-.08-.17-.17-.35-.25-.52-.65-1.36-1.29-2.73-1.92-4.1-.54-1.16-1.07-2.32-1.59-3.48-.64-1.4-1.27-2.8-1.89-4.21-.88-1.97-1.74-3.95-2.59-5.94-.52-1.21-1.04-2.42-1.55-3.64-.16-.36-.31-.73-.46-1.1-.64-1.52-1.27-3.05-1.89-4.58-.51-1.25-1.01-2.49-1.51-3.74v-.01c-.82-2.05-1.62-4.1-2.41-6.16-.06-.16-.12-.32-.18-.48-.34-.88-.67-1.75-1-2.63v-.01c-.56-1.49-1.12-2.99-1.66-4.49-.41-1.1-.81-2.21-1.21-3.32-.69-1.92-1.36-3.85-2.03-5.79-.53-1.51-1.04-3.03-1.54-4.55-.01-.03-.02-.05-.03-.08-.49-1.44-.96-2.89-1.43-4.34-.35-1.08-.7-2.16-1.04-3.24-.24-.72-.47-1.45-.69-2.18-.35-1.13-.7-2.26-1.04-3.39-.44-1.44-.88-2.87-1.3-4.31-.34-1.11-.67-2.23-.99-3.35-.07-.25-.15-.5-.21-.75-.35-1.18-.68-2.36-1.01-3.55-.33-1.17-.65-2.34-.97-3.52-.07-.22-.13-.45-.18-.67-.32-1.15-.62-2.29-.93-3.45-.01-.05-.03-.11-.04-.16-.35-1.31-.68-2.61-1.01-3.91-.03-.13-.07-.25-.1-.38-.33-1.28-.65-2.55-.96-3.83-.02-.09-.05-.19-.07-.28-.42-1.75-.84-3.49-1.25-5.23l-.21-.87c-.4-1.73-.8-3.46-1.18-5.19-.39-1.73-.77-3.47-1.14-5.22-.01-.04-.01-.08-.02-.11-.76-3.56-1.47-7.13-2.15-10.71-.31-1.64-.62-3.27-.91-4.91,0-.02-.01-.03-.01-.05-.09-.49-.18-.98-.26-1.47-.01-.04-.01-.07-.02-.11-.22-1.22-.43-2.44-.64-3.67-.08-.45-.15-.91-.23-1.36-.19-1.14-.38-2.28-.56-3.42-.01-.09-.03-.18-.04-.27-.14-.86-.27-1.73-.41-2.6-.1-.63-.2-1.26-.29-1.89-.02-.11-.03-.21-.05-.32-.12-.79-.24-1.59-.35-2.38-.23-1.56-.45-3.11-.66-4.67-.24-1.77-.48-3.53-.7-5.3-.01-.06-.02-.12-.02-.18-.19-1.46-.37-2.92-.53-4.39-.09-.67-.17-1.35-.24-2.03-.14-1.17-.26-2.34-.39-3.51-.09-.81-.17-1.61-.25-2.42-.34-3.31-.65-6.63-.93-9.96-.12-1.43-.23-2.86-.34-4.29v-.04c-.06-.79-.12-1.57-.17-2.36-.09-1.2-.17-2.41-.25-3.62-.04-.58-.08-1.16-.11-1.75-.07-1.18-.14-2.35-.2-3.53-.03-.58-.07-1.16-.09-1.74-.06-1.11-.11-2.22-.16-3.33v-.04c-.04-.8-.07-1.59-.1-2.4-.02-.32-.03-.64-.04-.96-.04-.93-.07-1.86-.1-2.79-.01-.23-.01-.47-.02-.7-.01-.09-.01-.18-.01-.27-.05-1.46-.09-2.93-.12-4.4v-.18c-.02-.76-.04-1.52-.05-2.29-.04-1.45-.06-2.9-.07-4.35-.02-1.89-.03-3.78-.03-5.67,0-1.56.01-3.13.02-4.69.02-1.87.04-3.74.08-5.61.03-1.52.06-3.03.11-4.54.08-3.08.19-6.16.33-9.23,0-.08.01-.16.01-.24.04-.86.08-1.73.12-2.59.06-1.24.13-2.48.2-3.72,0-.07.01-.14.01-.21.09-1.58.19-3.16.29-4.74.01-.15.02-.29.03-.43.07-1.02.14-2.04.22-3.06.04-.62.09-1.24.14-1.86.13-1.69.26-3.38.41-5.06.1-1.15.2-2.3.31-3.45.07-.79.14-1.58.22-2.37.03-.29.06-.59.09-.89.11-1.12.22-2.25.34-3.37.2-1.92.41-3.83.64-5.74.13-1.14.26-2.27.4-3.41.03-.27.07-.55.1-.82.01-.02.01-.05.01-.08.17-1.38.35-2.75.53-4.13.3-2.21.6-4.42.92-6.63.04-.26.08-.51.12-.77.13-.89.26-1.78.39-2.67.03-.19.06-.39.09-.58.14-.93.29-1.86.44-2.79.15-.98.31-1.96.47-2.93.24-1.42.48-2.84.72-4.26.27-1.58.55-3.15.83-4.72.33-1.78.67-3.57,1.01-5.35.01-.07.03-.13.04-.2.22-1.12.44-2.24.66-3.36.02-.08.03-.17.05-.25.26-1.28.52-2.56.79-3.84.19-.92.38-1.83.58-2.74.21-1.01.43-2.02.65-3.02.22-1.01.45-2.02.68-3.03.56-2.52,1.15-5.02,1.76-7.53v-.02c.39-1.62.79-3.24,1.21-4.86.36-1.48.74-2.95,1.13-4.42.4-1.55.81-3.09,1.23-4.63.31-1.16.63-2.32.95-3.48.18-.63.35-1.27.53-1.9.36-1.28.73-2.55,1.1-3.82.43-1.49.86-2.97,1.31-4.45.94-3.14,1.91-6.28,2.91-9.4.37-1.14.74-2.28,1.12-3.42.29-.91.59-1.82.9-2.73.45-1.36.91-2.72,1.37-4.07.53-1.54,1.07-3.08,1.61-4.62.54-1.53,1.09-3.06,1.65-4.59.49-1.36,1-2.73,1.51-4.09.01-.05.03-.09.05-.14.09-.26.19-.52.29-.78.06-.17.13-.33.19-.5.44-1.16.88-2.33,1.33-3.49.03-.1.07-.2.11-.3.06-.14.11-.29.17-.43.45-1.18.92-2.35,1.38-3.53.65-1.65,1.31-3.29,1.98-4.93.61-1.5,1.22-3,1.85-4.49.56-1.36,1.13-2.72,1.71-4.07.03-.07.06-.13.09-.2.07-.16.14-.33.21-.49.03-.08.07-.15.1-.23.47-1.1.94-2.2,1.43-3.29.16-.39.33-.78.51-1.16.48-1.11.98-2.22,1.47-3.32.14-.33.29-.65.43-.96.62-1.36,1.23-2.71,1.85-4.05.68-1.47,1.36-2.93,2.05-4.39.69-1.46,1.39-2.92,2.09-4.37.7-1.45,1.41-2.9,2.13-4.35.65-1.32,1.31-2.64,1.98-3.95.08-.17.16-.34.25-.5.71-1.39,1.42-2.78,2.14-4.17.74-1.43,1.49-2.86,2.24-4.28.75-1.42,1.51-2.84,2.28-4.25.56-1.04,1.12-2.08,1.69-3.1.01-.02.02-.03.03-.05,2.06-3.75,4.16-7.47,6.32-11.15.5-.88,1.01-1.75,1.53-2.63.75-1.27,1.5-2.54,2.26-3.8.85-1.41,1.7-2.81,2.56-4.2.68-1.11,1.36-2.21,2.05-3.31.18-.29.37-.59.55-.88.85-1.36,1.71-2.71,2.57-4.06s1.73-2.7,2.61-4.04c.87-1.34,1.75-2.68,2.64-4.01.89-1.34,1.78-2.67,2.68-3.99,2.13-3.13,4.29-6.24,6.48-9.33.47-.67.95-1.33,1.43-2,.75-1.06,1.51-2.11,2.28-3.16.06-.08.12-.17.18-.25.87-1.2,1.75-2.39,2.64-3.59.92-1.24,1.85-2.49,2.79-3.72.94-1.24,1.88-2.47,2.82-3.7.95-1.23,1.9-2.46,2.86-3.68,1.09-1.4,2.2-2.8,3.32-4.19.82-1.03,1.65-2.06,2.48-3.08.98-1.2,1.96-2.4,2.95-3.6.99-1.19,1.98-2.38,2.98-3.57,1-1.18,2-2.37,3.01-3.54.03-.04.07-.08.1-.12.97-1.14,1.95-2.27,2.94-3.4,1.02-1.17,2.04-2.33,3.07-3.49,1.03-1.16,2.06-2.31,3.1-3.46.01-.02.02-.04.04-.05,1.03-1.14,2.06-2.26,3.09-3.39,1.08-1.18,2.17-2.36,3.27-3.53,1.02-1.09,2.05-2.17,3.08-3.26,1.07-1.12,2.14-2.23,3.22-3.35.97-1,1.95-2,2.93-3,1.37-1.4,2.76-2.8,4.16-4.19,2.01-1.99,4.03-3.97,6.07-5.93,1.4-1.35,2.81-2.69,4.22-4.03.18-.17.37-.34.56-.52,1.3-1.22,2.61-2.44,3.92-3.65.11-.1.22-.2.33-.3,1.4-1.29,2.81-2.57,4.23-3.84.49-.45.98-.89,1.48-1.33-3.77,7.75-7.37,15.59-10.78,23.55-18.94,44.14-32.05,91.36-38.37,140.72v.01c-2.86,22.27-4.33,44.97-4.33,68.01,0,62.14,10.69,121.78,30.34,177.18,15.18,42.83,35.72,83.12,60.81,120.08,38.82,57.22,88.54,106.44,146.17,144.69,83.87,55.66,184.5,88.08,292.71,88.08,19.41,0,38.57-1.04,57.44-3.08,11.19-1.2,22.27-2.76,33.24-4.66,81.75-14.08,157.08-46.9,221.43-93.86,7.14-5.21,14.15-10.6,21.01-16.15,6.7-5.42,13.27-11,19.69-16.74h.01l.02-.02Z" stroke-width="0"/>
    </g>
  </g>
  <path d="m902.391,669.709c-4.409,0-8.683-2.337-10.96-6.472-3.331-6.047-1.128-13.649,4.919-16.98l70.88-39.036c6.048-3.331,13.65-1.128,16.98,4.919,3.331,6.047,1.128,13.649-4.919,16.98l-70.88,39.036c-1.912,1.053-3.98,1.553-6.019,1.553Z" fill="#fff" stroke-width="0"/>
  <path d="m1003.771,614.537c-4.332,0-8.543-2.253-10.853-6.28-3.436-5.987-1.368-13.627,4.619-17.063l8.653-4.966c5.984-3.436,13.626-1.369,17.063,4.619,3.436,5.987,1.368,13.627-4.62,17.064l-8.652,4.966c-1.961,1.126-4.1,1.661-6.21,1.661Z" fill="#fff" stroke-width="0"/>
  <path d="m1228.857,1288.614c-5.378,0-10.345-3.498-11.969-8.914-1.982-6.613,1.772-13.581,8.384-15.564,1.204-.365,80.734-24.87,114.084-73.857,3.884-5.706,11.659-7.185,17.367-3.298,5.707,3.885,7.184,11.661,3.299,17.367-38.468,56.503-123.95,82.649-127.57,83.735-1.197.359-2.406.53-3.595.53Z" fill="#fff" stroke-width="0"/>
  <path d="m1361.272,1164.607c-1.492,0-3.009-.269-4.485-.837-6.443-2.479-9.657-9.711-7.179-16.154,1.959-5.092.598-13.678-.325-16.812-1.948-6.623,1.842-13.571,8.465-15.52,6.62-1.949,13.57,1.841,15.52,8.464.546,1.856,5.175,18.545-.325,32.843-1.911,4.967-6.647,8.016-11.67,8.016Z" fill="#fff" stroke-width="0"/>
  <path d="m800.718,1196.052c-2.856,0-5.728-.974-8.077-2.966-27.653-23.445-43.866-69.127-44.542-71.061-2.28-6.516,1.153-13.647,7.669-15.928,6.515-2.28,13.642,1.15,15.925,7.663.19.538,14.72,41.27,37.115,60.256,5.266,4.464,5.915,12.352,1.451,17.618-2.473,2.916-5.996,4.417-9.541,4.417Z" fill="#fff" stroke-width="0"/>
</svg>