<?xml version="1.0" encoding="UTF-8"?>
<svg id="a" data-name="FLAT COLORED" xmlns="http://www.w3.org/2000/svg" width="2000" height="2000" viewBox="0 0 2000 2000">
  <g>
    <g>
      <path d="m1409.764,721.677c0,93.136-28.414,179.636-77.057,251.299-80.582,118.76-216.689,196.78-371.022,196.78s-290.441-78.021-371.022-196.78c-48.644-71.663-77.057-158.163-77.057-251.299s28.413-179.628,77.048-251.291c80.59-118.76,216.697-196.789,371.031-196.789s290.449,78.029,371.031,196.789c48.635,71.663,77.049,158.163,77.049,251.291Z" fill="#fff" stroke-width="0"/>
      <path d="m513.605,721.677c0,93.136,28.413,179.636,77.057,251.299,80.582,118.76,216.689,196.78,371.023,196.78s290.441-78.021,371.023-196.78c11.852-17.466,22.504-35.802,31.829-54.908-79.221,70.725-183.736,113.713-298.286,113.713-154.333,0-290.44-78.021-371.023-196.78-48.643-71.663-77.057-158.163-77.057-251.299,0-70.438,16.257-137.088,45.228-196.391-27.517,24.558-51.974,52.465-72.745,83.076-48.635,71.663-77.048,158.163-77.048,251.291Z" opacity=".15" stroke-width="0"/>
    </g>
    <path d="m1186.074,1169.758c-108,88.68-144.41,231.95-187.28,403.75l-9.17,36.75c-1.81,7.26-5.74,12.7-10.73,16.34-15.03,10.95-39.7,5.5-45.15-16.34l-9.17-36.75c-21.43-85.9-40.77-164.67-68.26-233.05-13.43-33.42-28.81-64.36-47.33-92.43-19.36-29.37-42.16-55.6-69.77-78.27h446.86Z" fill="#1fc19a" stroke-width="0"/>
    <path d="m978.894,1626.598c-15.03,10.95-39.7,5.5-45.15-16.34l-9.17-36.75c-21.43-85.9-40.77-164.67-68.26-233.05-13.43-33.42-28.81-64.36-47.33-92.43l71.4,13.37h0s56.72,162.36,68.31,268.29c6.97,63.67,20.51,87.79,30.2,96.91Z" opacity=".15" stroke-width="0"/>
    <rect x="690.729" y="1169.757" width="541.909" height="91.64" rx="45.82" ry="45.82" fill="#ffc200" stroke-width="0"/>
    <path d="m789.514,1261.397h-52.96c-25.31,0-45.82-20.52-45.82-45.82,0-12.66,5.13-24.11,13.42-32.4,8.29-8.29,19.75-13.42,32.4-13.42h52.96c-12.65,0-24.11,5.13-32.4,13.42-8.29,8.29-13.42,19.74-13.42,32.4,0,25.3,20.52,45.82,45.82,45.82Z" opacity=".15" stroke-width="0"/>
    <circle cx="1206.118" cy="896.681" r="51.548" transform="translate(-251.335 529.817) rotate(-22.5)" opacity=".15" stroke-width="0"/>
    <circle cx="1029.092" cy="837.203" r="51.547" transform="translate(-290.578 972.889) rotate(-45)" opacity=".15" stroke-width="0"/>
    <circle cx="1263.038" cy="712.079" r="51.548" opacity=".15" stroke-width="0"/>
  </g>
  <path d="m980.878,1450.663c-.617,0-1.241-.045-1.87-.14-6.827-1.024-11.531-7.389-10.507-14.216,7.55-50.333,16.787-75.87,17.177-76.932,2.377-6.482,9.566-9.809,16.039-7.433,6.477,2.374,9.805,9.545,7.44,16.022h0c-.087.24-8.81,24.564-15.933,72.051-.93,6.198-6.263,10.646-12.346,10.647Z" fill="#fff" stroke-width="0"/>
  <path d="m1012.315,1328.745c-1.198,0-2.416-.174-3.622-.538-6.608-1.998-10.346-8.974-8.348-15.583l3.586-11.862c1.998-6.608,8.976-10.343,15.582-8.348,6.608,1.998,10.346,8.974,8.348,15.583l-3.586,11.862c-1.633,5.402-6.594,8.886-11.96,8.886Z" fill="#fff" stroke-width="0"/>
  <path d="m1147.207,1228.077h-43.034c-6.903,0-12.5-5.596-12.5-12.5s5.597-12.5,12.5-12.5h43.034c6.903,0,12.5,5.596,12.5,12.5s-5.597,12.5-12.5,12.5Z" fill="#fff" stroke-width="0"/>
  <path d="m580.312,813.71c-5.073,0-9.844-3.111-11.717-8.144-27.279-73.309-16.048-154.963-15.556-158.403.978-6.834,7.315-11.58,14.142-10.606,6.834.977,11.582,7.307,10.608,14.141-.154,1.1-10.724,79.071,14.236,146.15,2.408,6.47-.886,13.667-7.355,16.075-1.436.535-2.91.788-4.357.788Z" fill="#fff" stroke-width="0"/>
  <path d="m599.627,870.538c-4.868,0-9.496-2.861-11.515-7.626l-8.828-20.832c-2.694-6.356.275-13.693,6.632-16.387,6.354-2.694,13.692.276,16.386,6.632l8.828,20.832c2.694,6.356-.275,13.693-6.632,16.387-1.592.674-3.245.994-4.871.994Z" fill="#fff" stroke-width="0"/>
</svg>