<?xml version="1.0" encoding="UTF-8"?>
<svg id="a" data-name="FLAT COLORED" xmlns="http://www.w3.org/2000/svg" width="2000" height="2000" viewBox="0 0 2000 2000">
  <g>
    <path d="m547.003,1267.126h-78.498c-31.255,0-56.592-25.337-56.592-56.592v-129.614c0-31.255,25.337-56.592,56.592-56.592h78.498v242.797Z" fill="#1fc19a" stroke-width="0"/>
    <path d="m1452.997,1024.329h78.498c31.255,0,56.592,25.337,56.592,56.592v129.614c0,31.255-25.337,56.592-56.592,56.592h-78.498v-242.797Z" fill="#1fc19a" stroke-width="0"/>
    <path d="m1520.537,786.276v459.717c0,68.682-42.541,127.436-102.708,151.334-18.581,7.388-38.859,11.441-60.068,11.441h-715.52c-21.221,0-41.487-4.066-60.08-11.453-60.167-23.898-102.708-82.64-102.708-151.322v-459.717h1041.083Z" fill="#f24646" stroke-width="0"/>
    <path d="m1434.307,709.051l-434.311-58.644-361.46,48.809-72.839,9.835s4.073-15.586,15.853-39.082c31.385-62.641,117.554-181.489,327.328-210.918,25.334-3.56,52.476-5.804,81.541-6.499v-.235c3.218,0,6.414.032,9.578.064,3.175-.032,6.361-.064,9.578-.064v.235c269.733,6.392,373.711,147.229,408.891,217.428,11.769,23.485,15.842,39.071,15.842,39.071Z" fill="#f24646" stroke-width="0"/>
    <path d="m1114.632,624.196v19.241h-229.272v-19.241c0-50.177,32.251-92.829,77.148-108.351,11.748-4.073,24.362-6.286,37.488-6.286,31.652,0,60.322,12.838,81.06,33.576,20.748,20.749,33.576,49.408,33.576,81.06Z" fill="#fff" stroke-width="0"/>
    <path d="m981.504,643.438h-96.143v-19.241c0-50.177,32.251-92.829,77.148-108.351,0,0-43.454,60.792,8.445,106.79,8.381,7.429,11.427,14.42,10.551,20.802Z" opacity=".15" stroke-width="0"/>
    <path d="m1559.505,874.164c.524,23.036-27.943,38.365-52.796,28.744-61.519-23.806-200.453-54.977-506.712-55.618-306.248.641-445.193,31.812-506.712,55.618-24.843,9.621-53.309-5.708-52.785-28.744,1.379-60.803,25.281-115.331,25.281-115.331,25.249-38.472,66.693-67.313,115.769-88.863,45.966-20.193,98.634-33.993,150.938-43.304,117.939-20.984,234.061-19.177,267.509-16.58,48.296-3.752,268.845-5.837,418.469,59.894,49.065,21.54,90.509,50.391,115.748,88.853,0,0,15.735,35.874,22.416,81.883,1.55,10.711,2.619,21.967,2.875,33.448Z" fill="#1fc19a" stroke-width="0"/>
    <path d="m1417.83,1028.889v368.438c-18.581,7.388-38.859,11.441-60.068,11.441h-715.52c-21.221,0-41.487-4.066-60.08-11.453v-368.426c270.416-77.322,549.422-73.021,835.667,0Z" opacity=".15" stroke-width="0"/>
    <path d="m1559.505,874.164c.524,23.036-27.943,38.365-52.796,28.744-61.519-23.806-200.453-54.977-506.712-55.618-306.248.641-445.193,31.812-506.712,55.618-24.843,9.621-53.309-5.708-52.785-28.744,1.379-60.803,25.281-115.331,25.281-115.331,25.249-38.472,66.693-67.313,115.769-88.863,31.385-62.641,117.554-181.489,327.328-210.918-46.992,16.59-156.711,65.688-176.39,167.614v.011s-58.365,18.258-93.951,72.54c-14.837,22.63-25.709,51.524-26.756,87.965,0,0,510.325-110.072,944.85,53.534,1.55,10.711,2.619,21.967,2.875,33.448Z" opacity=".15" stroke-width="0"/>
    <g>
      <path d="m1000,1547.683v-25c178.253,0,279.305-22.002,332.688-40.459,45.596-15.764,64.98-31.631,71.18-37.691v-211.802l101.281-319.702c-15.994-6.099-51.429-18.109-109.064-30.012-73.772-15.235-199.676-33.332-383.586-34.12v132.948h-25v-157.975h12.5c193.789,0,325.967,19.028,402.725,34.991,83.979,17.465,121.585,34.925,123.145,35.659l9.892,4.66-106.893,337.415v216.657l-2.252,3.225c-1.768,2.53-19.043,25.36-80.545,47.532-80.382,28.978-196.817,43.672-346.071,43.672Z" fill="#ffc200" stroke-width="0"/>
      <g>
        <path d="m999.999,1547.683c-149.253,0-265.689-14.693-346.071-43.672-61.502-22.172-78.777-45.002-80.545-47.532l-2.252-3.225v-216.657l-106.893-337.415,9.892-4.66c1.56-.734,39.165-18.194,123.145-35.659,76.759-15.963,208.936-34.991,402.726-34.991h12.5v157.975h-25v-132.948c-183.91.788-309.814,18.885-383.586,34.12-57.631,11.901-93.062,23.91-109.064,30.013l101.28,319.701v211.802c6.199,6.06,25.585,21.926,71.18,37.691,53.384,18.457,154.436,40.459,332.689,40.459v25Z" fill="#ffc200" stroke-width="0"/>
        <path d="m1489.652,1044.09c-310.764-68.54-556.859-65.015-708.586-49.986-164.395,16.282-256.494,49.197-257.406,49.527l-8.543-23.494c3.808-1.386,95.182-34.132,262.333-50.797,97.888-9.76,201.496-11.881,307.949-6.308,132.964,6.962,270.786,26.02,409.638,56.644l-5.385,24.414Z" fill="#ffc200" stroke-width="0"/>
        <rect x="583.631" y="1222.164" width="832.737" height="25" fill="#ffc200" stroke-width="0"/>
        <rect x="583.631" y="1324.722" width="832.737" height="25" fill="#ffc200" stroke-width="0"/>
        <rect x="842.917" y="1329.645" width="25" height="203.848" transform="translate(-478.05 430.073) rotate(-22.232)" fill="#ffc200" stroke-width="0"/>
        <rect x="1039.45" y="1419.069" width="203.848" height="24.999" transform="translate(-615.626 1946.426) rotate(-67.767)" fill="#ffc200" stroke-width="0"/>
      </g>
    </g>
  </g>
  <path d="m1289.827,694.943c-1.382,0-2.786-.23-4.162-.717-38.947-13.754-93.535-19.448-132.471-21.804-45.661-2.762-80.42-1.717-84.03-1.294-6.843.814-13.08-4.069-13.91-10.903-.829-6.836,3.983-13.05,10.815-13.904,9.111-1.142,146.993-4.248,227.92,24.333,6.51,2.299,9.924,9.44,7.624,15.948-1.812,5.133-6.636,8.341-11.786,8.341Z" fill="#fff" stroke-width="0"/>
  <path d="m1361.69,716.33c-1.345,0-2.712-.218-4.055-.679l-19.311-6.62c-6.53-2.238-10.01-9.348-7.77-15.878,2.239-6.53,9.349-10.011,15.878-7.771l19.311,6.62c6.53,2.238,10.01,9.348,7.77,15.878-1.778,5.188-6.63,8.449-11.823,8.449Z" fill="#fff" stroke-width="0"/>
  <path d="m705.141,593.176c-3.184,0-6.366-1.207-8.803-3.625-4.895-4.859-4.936-12.758-.084-17.66,1.456-1.471,36.178-36.145,81.367-46.677,6.722-1.571,13.443,2.612,15.011,9.337,1.566,6.723-2.613,13.443-9.337,15.011-38.029,8.863-68.978,39.619-69.285,39.929-2.443,2.455-5.657,3.686-8.869,3.686Z" fill="#fff" stroke-width="0"/>
  <path d="m515.116,1270.81c-6.903,0-12.5-5.597-12.5-12.5v-62.069c0-6.903,5.597-12.5,12.5-12.5s12.5,5.597,12.5,12.5v62.069c0,6.903-5.597,12.5-12.5,12.5Z" fill="#fff" stroke-width="0"/>
</svg>