<?xml version="1.0" encoding="UTF-8"?>
<svg id="a" data-name="FLAT COLORED" xmlns="http://www.w3.org/2000/svg" width="2000" height="2000" viewBox="0 0 2000 2000">
  <g>
    <path d="m1444.131,772.911c23.009,77.771,28.998,161.053,1.182,236.413-20.341,55.111-57.248,102.32-84.858,154.172-27.611,51.852-45.927,113.944-25.493,169.021,14.877,40.1,47.899,70.255,72.12,105.506,24.221,35.251,39.134,84.341,14.94,119.611-11.068,16.135-28.641,26.581-46.484,34.609-3.733,1.679-7.518,3.242-11.359,4.657-3.9,1.438-7.857,2.724-11.869,3.813-3.982,1.082-8.019,1.97-12.097,2.603-4.003.622-8.047.997-12.099,1.052-3.972.054-7.952-.202-11.875-.84-3.9-.634-7.739-1.647-11.425-3.073-1.874-.725-3.677-1.581-5.472-2.48-.385-.193-.806-.258-1.189-.445-.486-.237-.934-.601-1.38-.905-.9-.613-1.79-1.241-2.669-1.882-3.458-2.521-6.759-5.255-9.887-8.175-3.078-2.875-5.986-5.929-8.724-9.128-2.732-3.192-5.295-6.529-7.701-9.973-2.424-3.471-4.689-7.052-6.816-10.711-2.155-3.708-4.17-7.497-6.07-11.342-1.929-3.904-3.741-7.866-5.463-11.866-1.748-4.06-3.403-8.159-4.994-12.282-1.612-4.176-3.157-8.377-4.665-12.591-1.521-4.254-3.004-8.521-4.474-12.793-1.478-4.294-2.943-8.593-4.422-12.887-1.48-4.299-2.974-8.594-4.508-12.874-1.53-4.269-3.099-8.524-4.733-12.754-1.625-4.205-3.316-8.385-5.098-12.526-1.768-4.108-3.626-8.178-5.6-12.192-1.958-3.98-4.031-7.904-6.242-11.75-2.197-3.821-4.532-7.564-7.023-11.2-1.815-2.65-3.713-5.243-5.699-7.768-37.443-47.6-101.647-65.01-161.994-70.106-60.347-5.096-122.218-.934-180.381-17.811-76.869-22.305-139.18-79.284-188.343-142.446-64.703-83.127-112.19-181.925-122.575-286.753-16.888-170.463,73.833-346.983,222.399-432.253,148.566-85.27,346.907-74.498,485.211,26.571,82.078,59.98,141.771,147.204,179.615,241.556,6.824,17.013,12.961,34.473,18.211,52.22Z" fill="#f24646" stroke-width="0"/>
    <path d="m1431.038,1041.88c-19.577,38.46-44.991,74.358-65.991,112.285-29.46,53.188-50.662,116.599-31.523,174.313,18.096,54.567,111.427,132.97,102.646,197.831-2.923,21.655-17.252,41.811-49.59,59.061l-8.829,4.709c-129.938,69.312-136.797-126.548-183.805-187.147-37.265-48.045-101.747-65.75-162.339-70.903-43.188-3.687-87.148-2.579-129.995-7.741l529.424-282.409Z" fill="#ffc200" stroke-width="0"/>
    <path d="m1461.79,946.191c-2.131,16.115-5.599,32.045-10.593,47.66-5.331,16.628-12.272,32.537-20.159,48.029l-529.424,282.409c-17.268-2.074-34.347-5.17-51.126-10.004-15.75-4.55-30.904-10.546-45.475-17.752l656.777-350.342Z" fill="#1fc19a" stroke-width="0"/>
    <path d="m1436.17,1526.31c-2.923,21.655-17.252,41.811-49.59,59.061l-8.829,4.709c-129.938,69.312-136.797-126.548-183.805-187.147-37.265-48.045-101.747-65.75-162.339-70.903-43.188-3.687-87.148-2.579-129.995-7.741-17.268-2.074-34.347-5.17-51.126-10.004-15.75-4.55-30.904-10.546-45.475-17.752-51.916-25.657-96.402-66.596-133.684-111.51-91.838-110.646-148.343-255.458-132.574-398.38.015-.095.03-.191.036-.282,4.087-29.354,80.977,561.312,623.467,398.894,104.868,188.789,174.273,324.506,273.913,341.055Z" opacity=".15" stroke-width="0"/>
    <g>
      <path d="m1397.129,795.657c30.077,56.385,8.752,126.48-47.634,156.558h-.002c-9.743,5.199-19.898,8.862-30.184,11.072-49.233,10.587-101.493-12.066-126.373-58.708-4.421-8.287-7.732-16.87-9.981-25.582-5.6-21.65-4.654-44.077,2.037-64.659,8.925-27.467,28.084-51.651,55.581-66.318,56.385-30.077,126.479-8.748,156.557,47.637Z" fill="#fff" stroke-width="0"/>
      <path d="m1192.936,904.579c11.32,21.222,28.308,37.478,48.102,47.894,32.796,17.266,73.291,18.5,108.457-.258,35.164-18.757,56.696-53.079,60.622-89.933.578-5.42.776-10.893.579-16.38-9.455,25.744-28.044,48.242-54.145,62.165-35.166,18.758-75.662,17.524-108.457.258-19.794-10.417-36.782-26.672-48.102-47.894-8.561-16.05-12.958-33.212-13.565-50.246-3.285,8.94-5.466,18.271-6.478,27.771-2.372,22.24,1.668,45.403,12.987,66.623Z" opacity=".15" stroke-width="0"/>
    </g>
  </g>
  <path d="m1096.438,495.227c-1.964,0-3.957-.464-5.816-1.443-45.135-23.782-95.792-31.081-150.566-21.697-41.395,7.092-69.7,21.585-69.981,21.73-6.125,3.17-13.668.787-16.848-5.333-3.18-6.12-.81-13.656,5.307-16.844,1.261-.657,31.41-16.194,76.406-24.04,59.798-10.428,117.664-2.105,167.336,24.065,6.107,3.218,8.45,10.778,5.231,16.886-2.238,4.249-6.579,6.676-11.069,6.676Z" fill="#fff" stroke-width="0"/>
  <path d="m1193.28,551.5c-3.463,0-6.907-1.43-9.378-4.23-10.743-12.176-27.082-21.214-27.246-21.304-6.047-3.318-8.271-10.911-4.96-16.962,3.31-6.052,10.892-8.279,16.944-4.978.822.449,20.297,11.163,34.008,26.704,4.567,5.177,4.073,13.076-1.102,17.643-2.377,2.097-5.328,3.127-8.266,3.127Z" fill="#fff" stroke-width="0"/>
  <path d="m593.679,873.848c-5.662,0-10.791-3.873-12.153-9.622-11.703-49.413-.514-100.31-.032-102.452,1.516-6.735,8.207-10.964,14.939-9.452,6.732,1.515,10.962,8.197,9.454,14.928h0c-.105.47-10.375,47.55-.034,91.214,1.591,6.718-2.565,13.453-9.283,15.044-.968.229-1.937.339-2.892.339Z" fill="#fff" stroke-width="0"/>
  <path d="m1283.483,1323.641c-5.107,0-9.902-3.153-11.748-8.232-10.854-29.85-4.239-80.737-3.953-82.889.913-6.842,7.191-11.652,14.043-10.738,6.841.912,11.648,7.196,10.738,14.038h0c-1.722,12.987-4.599,51.067,2.666,71.046,2.359,6.488-.987,13.66-7.476,16.019-1.409.513-2.852.756-4.27.756Z" fill="#fff" stroke-width="0"/>
</svg>