<?xml version="1.0" encoding="UTF-8"?>
<svg id="a" data-name="FLAT COLORED" xmlns="http://www.w3.org/2000/svg" width="2000" height="2000" viewBox="0 0 2000 2000">
  <g>
    <path d="m1463.631,996.222s-5.599,21.13-13.617,52.066l-.009.009v.009c0,.018-.009.037-.018.064-.009.028-.009.046-.018.073-17.978,69.375-48.043,187.857-54.329,227.946-2.355,15.019-7.221,32.466-14.872,51.268v.009c-21.873,53.853-66.48,118.811-139.832,169.402-98.533,67.955-190.395,109.969-241.105,110.326v.009c-.11,0-.229,0-.339-.009-.101.009-.22.009-.321.009v-.009c-50.719-.358-142.572-42.371-241.104-110.326-98.964-68.257-145.605-162.667-154.704-220.68-6.689-42.655-40.309-174.066-57.637-240.637-6.039-23.202-10.098-38.523-10.355-39.485,0-.028-.009-.046-.009-.055.183-1.063,14.835-87.445,10.391-233.114,0-.037,0-.064-.009-.101,0-.22-.009-.449-.018-.678v-.028c-4.545-147.053,100.1-225.289,100.1-225.289,0,0,7.587-62.943,47.017-69.769,39.439-6.818,65.976-53.844,97.067-59.91,30.715-5.993,53.275,5.764,53.834,6.057l.009.009c63.703-25.025,148.638-20.471,148.638-20.471h14.221s84.935-4.554,148.629,20.471c0,0,22.753-12.132,53.843-6.066,31.091,6.066,57.638,53.092,97.067,59.91,39.439,6.827,47.017,69.769,47.017,69.769,0,0,104.654,78.236,100.109,225.289-.082,2.566-.156,5.113-.22,7.642-3.821,142.425,10.575,226.288,10.575,226.288Z" fill="#1fc19a" stroke-width="0"/>
    <path d="m1450.014,1048.288s0,.009-.009.018c0,.018-.009.037-.018.064-.834,2.318-1.695,4.628-2.584,6.946-.009.018-.018.037-.018.055-5.663,14.68-12.407,29.286-20.407,43.627-21.176,37.963-55.273,66.278-95.225,87.363-131.209,69.311-325.48,60.762-331.748,60.468-4.398.211-101.548,4.49-204.442-16.998,0,0-.055-.009-.165-.037-58.948-12.315-119.773-33.098-166.121-67.946-22.972-17.264-42.389-37.982-56.254-62.851-11.555-20.718-20.498-41.977-27.297-63.245-4.234-13.195-7.642-26.4-10.355-39.485,0-.028-.009-.046-.009-.055-25.282-122.156,10.364-233.921,10.364-233.921v.028c0,.073,0,.302.018.678.009.037.009.064.009.101.367,6.268,5.654,47.2,80.683,49.326,13.635.394,29.579-.504,48.208-3.116,129.679-18.198,313.476-17.511,313.476-17.511h23.76s183.797-.687,313.476,17.511c101.658,14.276,123.155-22.725,127.7-39.375,1.256-4.6,1.219-7.642,1.219-7.642,0,0,46.421,145.55-4.261,285.996Z" fill="#ffc200" stroke-width="0"/>
    <path d="m888.789,682.608c-115.265,4.545-188.067-54.604-188.067-54.604-12.132-48.529-54.898-91.001-54.898-91.001,0,0,7.587-62.943,47.017-69.769,39.439-6.818,65.976-53.844,97.067-59.91,30.715-5.993,53.275,5.764,53.834,6.057l.009.009c62.659,132.712,45.037,269.218,45.037,269.218Z" fill="#f24646" stroke-width="0"/>
    <path d="m858.927,655.879c-30.019-5.993-103.28-22.89-133.922-50.297-3.775-3.372-3.592-9.346.33-12.544l10.144-8.274,32.099-26.17c1.915-1.567,4.417-2.199,6.845-1.714,13.644,2.749,59.552,15.568,85.374,67.167,3.226,6.442,6.139,13.488,8.632,21.195,1.952,6.002-3.308,11.876-9.502,10.639Z" fill="#ffc200" stroke-width="0"/>
    <path d="m1110.191,682.608c115.265,4.545,188.067-54.604,188.067-54.604,12.132-48.529,54.897-91.001,54.897-91.001,0,0-7.587-62.943-47.017-69.769-39.439-6.818-65.976-53.844-97.067-59.91-30.715-5.993-53.276,5.764-53.834,6.057l-.009.009c-62.659,132.712-45.038,269.218-45.038,269.218Z" fill="#f24646" stroke-width="0"/>
    <path d="m1273.644,593.038l-42.242-34.45c-1.914-1.561-4.419-2.191-6.84-1.705-15.352,3.082-71.52,18.923-94.013,88.353-1.945,6.003,3.314,11.879,9.502,10.644,30.022-5.99,103.279-22.892,133.926-50.297,3.775-3.376,3.592-9.346-.332-12.546Z" fill="#ffc200" stroke-width="0"/>
    <path d="m1037.025,1315.063c-19.35,8.293-34.918,116.068-37.529,135.13-2.611-19.062-18.179-126.838-37.529-135.13-21.234-9.1-139.535-25.783-194.136-45.5,0,0,165.319,97.826,172.144,168.352,6.485,67.014,54.731,65.216,59.521,64.871,4.79.345,53.036,2.143,59.521-64.871,6.825-70.526,172.143-168.352,172.143-168.352-54.6,19.717-172.902,36.4-194.135,45.5Z" fill="#f24646" stroke-width="0"/>
    <path d="m1450.014,1048.288s0,.009-.009.018c0,.018-.009.037-.018.064-.009.028-.009.046-.018.073-.202.605-.99,3.015-2.566,6.873-.009.018-.018.037-.018.055-8.329,20.407-31.586,93.368-115.632,130.989-395.947,177.237-686.611,46.452-691.7,16.089-.092,1.805,1.904,150.684,154.702,258.215,153.568,108.063,204.737,103.516,204.737,103.516,0,0,268.851-24.869,381.276-236.514-21.873,53.853-66.48,118.811-139.832,169.402-98.533,67.955-190.395,109.969-241.105,110.326v.009c-.11,0-.229,0-.339-.009-.101.009-.22.009-.321.009v-.009c-50.719-.358-142.572-42.371-241.104-110.326-98.964-68.257-145.605-162.667-154.704-220.68-6.689-42.655-40.309-174.066-57.637-240.637-4.234-13.195-7.642-26.4-10.355-39.485,0-.028-.009-.046-.009-.055-25.282-122.156,10.364-233.921,10.364-233.921-4.545-147.053,100.1-225.289,100.1-225.289,0,0-63.73,156.133-19.389,275.421,0,0-88.756,404.816,468.62,377.51,0,0,221.532-12.563,354.949-141.637l.009-.009Z" opacity=".15" stroke-width="0"/>
    <path d="m888.789,682.608c-17.438-169.484-98.881-275.284-98.881-275.284,30.715-5.993,53.275,5.764,53.834,6.057l.009.009c62.659,132.712,45.037,269.218,45.037,269.218Z" opacity=".15" stroke-width="0"/>
    <path d="m1110.191,682.608c17.438-169.484,98.881-275.284,98.881-275.284-30.715-5.993-53.276,5.764-53.834,6.057l-.009.009c-62.659,132.712-45.038,269.218-45.038,269.218Z" opacity=".15" stroke-width="0"/>
    <path d="m859.797,624.046c-69.44,13.727-124.318-39.283-124.318-39.283l32.099-26.17c1.915-1.567,4.417-2.199,6.845-1.714,13.644,2.749,59.552,15.568,85.374,67.167Z" opacity=".15" stroke-width="0"/>
    <path d="m1139.296,624.046c69.44,13.727,124.318-39.283,124.318-39.283l-32.099-26.17c-1.915-1.567-4.417-2.199-6.845-1.714-13.644,2.749-59.552,15.568-85.374,67.167Z" opacity=".15" stroke-width="0"/>
    <path d="m967.15,1431.342s-13.65-71.284-20.728-87.462c-7.078-16.178-72.295-28.817-72.295-28.817,0,0,72.295,56.623,93.023,116.279Z" opacity=".15" stroke-width="0"/>
    <path d="m1027.818,1431.342s13.65-71.284,20.728-87.462c7.078-16.178,72.295-28.817,72.295-28.817,0,0-72.295,56.623-93.023,116.279Z" opacity=".15" stroke-width="0"/>
  </g>
  <path d="m1088.425,1199.827c-23.521,0-37.258-2.295-38.096-2.438-6.804-1.171-11.37-7.635-10.2-14.439,1.17-6.799,7.621-11.366,14.421-10.203.446.074,28.637,4.647,73.577-.069,41.535-4.358,106.32-17.778,179.085-56.959,6.075-3.271,13.659-.999,16.932,5.08,3.273,6.078.999,13.659-5.08,16.932-76.833,41.371-145.44,55.425-189.464,59.929-15.822,1.619-29.669,2.168-41.175,2.168Z" fill="#fff" stroke-width="0"/>
  <path d="m1358.804,1117.434c-4.482,0-8.815-2.417-11.059-6.654-3.229-6.102-.902-13.666,5.199-16.897l18.759-9.931c6.102-3.229,13.667-.902,16.897,5.199,3.229,6.101.902,13.666-5.199,16.896l-18.759,9.931c-1.864.986-3.866,1.455-5.838,1.455Z" fill="#fff" stroke-width="0"/>
  <path d="m676.295,864.881c-6.072,0-11.4-4.434-12.342-10.622-1.038-6.824,3.652-13.199,10.477-14.237,4.719-.719,116.214-17.532,176.454-13.773,6.89.431,12.126,6.365,11.695,13.256-.43,6.89-6.332,12.128-13.256,11.695-57.542-3.597-170.004,13.365-171.133,13.536-.637.098-1.269.145-1.895.145Z" fill="#fff" stroke-width="0"/>
  <path d="m948.173,850.701h-22.346c-6.903,0-12.5-5.597-12.5-12.5s5.597-12.5,12.5-12.5h22.346c6.903,0,12.5,5.597,12.5,12.5s-5.597,12.5-12.5,12.5Z" fill="#fff" stroke-width="0"/>
  <path d="m898.656,455.363c-5.503,0-10.546-3.659-12.059-9.223-1.81-6.658,2.112-13.522,8.769-15.338,1.562-.426,38.773-10.404,83.218-8.708,6.898.266,12.275,6.073,12.011,12.972-.267,6.898-6.086,12.272-12.972,12.011-40.448-1.561-75.341,7.753-75.688,7.848-1.095.296-2.195.439-3.278.439Z" fill="#fff" stroke-width="0"/>
</svg>