<?xml version="1.0" encoding="UTF-8"?>
<svg id="a" data-name="FLAT COLORED" xmlns="http://www.w3.org/2000/svg" width="2000" height="2000" viewBox="0 0 2000 2000">
  <g>
    <path d="m1477.208,1289.574c-.01,1.58-.03,3.16-.06,4.73-.06,3.47-.14,6.92-.26,10.34-.1,3.28-.24,6.55-.4,9.8-.06,1.33-.13,2.65-.21,3.98-.02.45-.05.91-.08,1.36-.06,1.25-.14,2.5-.23,3.74-.01.2-.02.4-.04.59-.09,1.44-.19,2.88-.3,4.31-.03.35-.05.7-.08,1.04-.02.3-.04.6-.07.9-.04.66-.1,1.31-.15,1.96-.04.5-.08,1-.12,1.49-.12,1.41-.24,2.81-.38,4.21-.01.27-.04.53-.07.78-.05.58-.11,1.17-.17,1.75-.05.66-.12,1.32-.19,1.98-.03.37-.07.74-.11,1.11-.02.27-.05.55-.08.82-.06.58-.12,1.16-.18,1.74-.03.24-.05.47-.08.7-.08.8-.17,1.59-.26,2.38-.03.24-.05.47-.08.71-.04.35-.08.71-.12,1.06-.02.15-.04.3-.05.44-.22,1.8-.44,3.59-.66,5.37-.18,1.36-.35,2.71-.54,4.06-.06.42-.11.83-.17,1.25l-.21,1.47c-.01.1-.02.19-.04.29-.19,1.36-.39,2.72-.6,4.07-.06.45-.13.9-.21,1.34-.12.85-.25,1.69-.39,2.53-.13.86-.27,1.72-.42,2.58-.03.25-.07.51-.12.76-.04.25-.08.49-.12.74-.21,1.23-.42,2.45-.63,3.67-.8,4.54-1.66,9.03-2.58,13.47-.19.94-.39,1.88-.59,2.81-.19.89-.38,1.78-.57,2.67-.29,1.28-.57,2.56-.87,3.83-.22.97-.44,1.94-.68,2.9-.25,1.07-.5,2.14-.77,3.2-.29,1.19-.58,2.38-.88,3.56-.09.34-.18.69-.27,1.04-.34,1.31-.68,2.62-1.03,3.92-.4,1.5-.81,3-1.23,4.49-.32,1.16-.65,2.31-.99,3.46-.14.5-.29,1.01-.44,1.51-.36,1.23-.72,2.45-1.09,3.67-.03.1-.06.2-.1.3-.43,1.43-.88,2.86-1.33,4.28-.46,1.45-.93,2.89-1.41,4.33-.47,1.43-.96,2.86-1.45,4.28-.49,1.42-.99,2.83-1.49,4.23-.02.06-.04.12-.06.17-.95,2.64-1.92,5.25-2.93,7.84-1.54,3.99-3.15,7.92-4.82,11.78-.28.66-.57,1.32-.86,1.98-.33.75-.66,1.5-.99,2.24-.19.43-.38.85-.58,1.27-.44.98-.89,1.96-1.35,2.94-.05.13-.11.26-.18.39-.54,1.16-1.09,2.32-1.65,3.47-.06.15-.14.3-.21.45-.46.96-.93,1.91-1.4,2.85-.26.53-.52,1.05-.79,1.57-.49.99-.99,1.97-1.5,2.94-.56,1.09-1.13,2.17-1.71,3.25-.15.29-.3.59-.47.88-.38.72-.77,1.44-1.17,2.16-.9,1.65-1.82,3.28-2.75,4.9-.66,1.16-1.34,2.32-2.02,3.46-.68,1.15-1.36,2.28-2.05,3.41-2.78,4.55-5.67,8.98-8.67,13.27-.36.52-.73,1.05-1.09,1.56-.54.76-1.09,1.52-1.63,2.27-.71.98-1.42,1.95-2.14,2.92-.66.88-1.32,1.76-1.99,2.63-.53.69-1.06,1.37-1.59,2.05-.33.44-.67.86-1.02,1.29-.45.58-.91,1.15-1.38,1.72-.29.37-.58.74-.89,1.1-.5.62-1.01,1.24-1.53,1.85-.73.88-1.46,1.76-2.21,2.62-.44.52-.89,1.03-1.34,1.54-.5.58-1,1.14-1.51,1.71-1.58,1.78-3.19,3.54-4.83,5.26-.64.68-1.29,1.36-1.95,2.04-3.77,3.89-7.66,7.62-11.66,11.19-.61.55-1.22,1.09-1.84,1.62-1.21,1.07-2.43,2.11-3.67,3.14-.72.6-1.44,1.2-2.17,1.78-.3.26-.6.5-.91.74-.85.69-1.71,1.37-2.57,2.04-.95.75-1.91,1.48-2.88,2.21-.96.73-1.94,1.44-2.91,2.15-.92.67-1.84,1.33-2.76,1.97-.19.14-.38.28-.57.4-.59.42-1.19.83-1.79,1.24-.52.36-1.05.72-1.58,1.07-.65.44-1.31.87-1.97,1.31-.24.16-.48.31-.72.46-.79.52-1.58,1.02-2.37,1.51-.22.15-.44.29-.66.42-.89.56-1.78,1.1-2.67,1.64-1.01.61-2.02,1.21-3.04,1.8-1.07.63-2.15,1.25-3.24,1.85-2.42,1.35-4.87,2.66-7.35,3.91-.84.44-1.69.86-2.53,1.27-1.12.55-2.24,1.09-3.37,1.62-.97.45-1.95.9-2.93,1.34-1.12.5-2.24.99-3.38,1.46-.86.37-1.73.72-2.6,1.07-1.01.41-2.03.8-3.05,1.19-.71.27-1.42.54-2.14.8-.91.34-1.82.67-2.74.98-.69.24-1.39.48-2.08.71-.78.27-1.57.53-2.36.78-3.16,1.01-6.38,1.95-9.64,2.82-1.63.43-3.27.85-4.93,1.24-1.65.41-3.32.78-5,1.14-.84.18-1.69.35-2.53.52-.78.16-1.56.31-2.34.46-.11.03-.23.05-.34.06-.79.16-1.58.3-2.38.44-1.09.2-2.18.39-3.28.56-1.51.25-3.02.48-4.55.7-.88.13-1.76.25-2.65.36-.5.07-.99.13-1.49.19-.67.09-1.35.18-2.03.25-.9.11-1.81.21-2.72.31-.84.09-1.69.17-2.53.25-.61.06-1.21.12-1.82.17-2.74.25-5.5.45-8.29.61-.57.03-1.13.07-1.7.09-1.48.08-2.98.15-4.47.2-.65.02-1.31.05-1.97.06-.81.03-1.63.05-2.44.07-.96.02-1.92.03-2.88.04-1.09.01-2.19.02-3.28.02-70.49.01-154.11-24.41-238.13-69.7-1.11-.6-2.23-1.2-3.34-1.81v-.01c-.22-.11-.45-.23-.67-.36-.54-.29-1.08-.59-1.62-.88-.35-.2-.69-.39-1.04-.59-1.11-.61-2.23-1.23-3.34-1.85-2.22-1.24-4.45-2.5-6.67-3.77h-.01c-1.8-1.04-3.61-2.08-5.41-3.13-.42-.24-.84-.48-1.25-.73-1.11-.65-2.23-1.3-3.34-1.96-1.11-.66-2.22-1.31-3.33-1.98-1.11-.67-2.23-1.34-3.34-2.01-.03-.01-.06-.03-.08-.05-1.86-1.12-3.72-2.26-5.58-3.41-1.45-.88-2.89-1.78-4.33-2.68-1.11-.69-2.22-1.39-3.32-2.09-.22-.13-.43-.27-.65-.41-.9-.56-1.79-1.13-2.69-1.71-.43-.28-.87-.56-1.3-.84-1.09-.69-2.18-1.4-3.28-2.11-.54-.35-1.07-.7-1.61-1.04-1.99-1.3-3.98-2.61-5.97-3.93-1.47-.98-2.95-1.96-4.42-2.95-3.68-2.48-7.35-4.99-11.02-7.55-.45-.31-.91-.63-1.37-.95-.28-.19-.55-.39-.82-.58-1.1-.77-2.2-1.55-3.3-2.32-1.92-1.36-3.83-2.73-5.75-4.12-1.92-1.38-3.83-2.77-5.74-4.18-1.65-1.2-3.29-2.41-4.92-3.63-.09-.06-.17-.13-.26-.19-.4-.3-.79-.59-1.19-.89-1.52-1.13-3.03-2.27-4.54-3.42-.18-.13-.35-.27-.53-.4h-.01v-.01c-103.03-78.25-198.17-187.03-260.24-319.27-67.82-144.54-102-289.47-105.12-414.05v-.01c-.16-6.26-.23-12.47-.23-18.63,0-1.26,0-2.51.01-3.76-.01-.41,0-.82,0-1.22.01-.38.01-.76.02-1.13.01-1.49.03-2.97.05-4.45.01-.91.03-1.81.04-2.72.03-1.68.07-3.35.11-5.02v-.06c.05-2.02.11-4.03.18-6.04.07-1.98.15-3.96.24-5.93v-.03c.09-1.99.18-3.97.28-5.94.1-1.98.22-3.95.34-5.91.1-1.53.2-3.06.3-4.58.06-.87.12-1.73.19-2.6.01-.24.03-.48.05-.72.08-1.04.15-2.07.24-3.1.05-.63.1-1.25.15-1.88.01-.18.02-.36.04-.54.11-1.37.23-2.73.36-4.09v-.04c.12-1.44.26-2.87.4-4.3.02-.19.04-.39.06-.58.03-.28.05-.56.08-.84.02-.21.04-.42.06-.62.03-.21.05-.43.07-.64.15-1.49.31-2.97.47-4.45v-.02c.83-7.58,1.8-15.04,2.9-22.38v-.01c6.27-41.87,16.95-79.78,31.91-112.58,21.85-47.97,52.85-85.05,92.51-107.61,4.17-2.37,8.43-4.58,12.79-6.63,4.46-2.09,9.06-3.98,13.8-5.67,81.99-29.23,203.69,1.91,326.08,75.93,3.79,2.29,7.58,4.62,11.37,7,1.27.79,2.53,1.59,3.79,2.39,3.25,2.06,6.5,4.15,9.76,6.27,1.79,1.17,3.59,2.35,5.38,3.54h.01c4.03,2.67,8.06,5.39,12.09,8.16,2.01,1.38,4.03,2.78,6.04,4.18,2.01,1.4,4.02,2.82,6.03,4.24,2.01,1.43,4.02,2.87,6.03,4.31,5.16,3.72,10.31,7.51,15.44,11.39,1.43,1.07,2.86,2.15,4.28,3.23,1.43,1.08,2.86,2.17,4.28,3.27,3.98,3.08,7.95,6.19,11.91,9.34,108.74,86.45,209.56,204.3,273.5,340.54,65.41,139.38,97.66,272.31,100.61,385.85.2,7.63.26,15.18.19,22.64Z" fill="#f24646" stroke-width="0"/>
    <path d="m529.4,629.785c-5.233,34.893-7.399,72.524-6.401,112.233,306.163-32.088,486.584-130.631,579.915-201.481-31.708-25.216-64.086-47.759-96.413-67.316-19.46,13.043-42.36,26.865-68.977,40.733-82.537,43.007-214.974,93.277-408.123,115.831Z" fill="#ffc200" stroke-width="0"/>
    <path d="m888.362,1475.349c34.776,26.413,70.441,49.35,106.041,68.526,29.549-15.474,62.688-31.902,98.554-48.193,99.295-45.114,235.684-96.348,376.371-116.056,6.115-34.753,8.73-72.506,7.686-112.696-55.124,6.43-112.582,17.686-171.911,33.715-83.434,22.532-170.872,54.517-259.895,95.082-61.363,27.959-114.777,55.991-156.845,79.623Z" fill="#ffc200" stroke-width="0"/>
    <path d="m1340.318,1587.893c-2.42,1.35-4.87,2.66-7.35,3.91-.84.44-1.69.86-2.53,1.27-1.12.55-2.24,1.09-3.37,1.62-.97.45-1.95.9-2.93,1.34-1.12.5-2.24.99-3.38,1.46-.86.37-1.73.72-2.6,1.07-1.01.41-2.03.8-3.05,1.19.09-3.29.2-8.63.2-15.85,0-20.42-.87-55.86-5.39-102.3-1.83-18.85-4.39-40.62-7.94-64.82-.08-.48-.15-.97-.22-1.45-4.76-32.15-11.28-68.56-20.22-108.11h-.01c-9.02-39.93-20.51-83.06-35.13-128.26-3.32-10.25-6.82-20.69-10.54-31.32-2.71-7.75-5.53-15.59-8.46-23.53-7.12-19.27-14.9-39.09-23.42-59.34-3.21-7.61-6.51-15.28-9.92-23.01-9.08-20.56-18.91-41.53-29.57-62.82-3.73-7.47-7.57-14.98-11.51-22.52-9.81-18.78-20.27-37.78-31.41-56.93-4.19-7.2-8.47-14.42-12.85-21.66-11.38-18.8-23.43-37.72-36.18-56.7-4.66-6.95-9.42-13.9-14.27-20.85-12.9-18.5-26.49-37.04-40.79-55.57-5.17-6.71-10.43-13.41-15.8-20.1-22.49-28.1-46.65-56.13-72.63-83.9-26.68-28.53-55.27-56.8-85.9-84.59-55.87-50.7-118.51-99.81-188.76-146.13-.19-.13-.38-.26-.56-.4,4.17-2.37,8.43-4.58,12.79-6.63,4.46-2.09,9.06-3.98,13.8-5.67,67.6,45.43,130.6,95,188.73,148.47,29.35,26.98,57.45,54.95,84.28,83.89,25.03,26.99,48.95,54.82,71.73,83.45,5.31,6.67,10.55,13.38,15.72,20.14,10.94,14.25,21.59,28.69,31.96,43.32,2.9,4.1,5.79,8.21,8.64,12.34,4.8,6.92,9.54,13.88,14.21,20.88,12.65,18.94,24.84,38.19,36.57,57.72,4.32,7.19,8.58,14.43,12.77,21.7,11.24,19.45,22.02,39.17,32.34,59.15,3.87,7.48,7.67,15,11.41,22.56,10.16,20.53,19.85,41.33,29.06,62.38,3.35,7.64,6.63,15.32,9.85,23.03,8.25,19.77,16.09,39.76,23.5,59.95,2.88,7.82,5.68,15.67,8.42,23.54,3.76,10.77,7.39,21.59,10.9,32.47,14.57,45.13,26.07,88.23,35.14,128.21,9.06,39.93,15.7,76.74,20.57,109.35.03.17.05.34.08.51,3.9,26.17,6.65,49.62,8.6,69.79,4.87,50.41,5.56,87.62,5.42,107.75Z" fill="#fff" stroke-width="0"/>
    <path d="m975.307,763.972c-4.62,0-9.062-2.572-11.233-7.001-3.039-6.198-.478-13.686,5.721-16.726l95.693-46.912c6.2-3.039,13.688-.477,16.726,5.722,3.039,6.198.477,13.687-5.721,16.726l-95.693,46.912c-1.77.868-3.646,1.279-5.493,1.279Z" fill="#fff" stroke-width="0"/>
    <path d="m1021.994,844.493c-4.62,0-9.062-2.572-11.233-7.001-3.039-6.198-.478-13.686,5.721-16.726l105.053-51.5c6.199-3.039,13.687-.477,16.726,5.722,3.039,6.198.477,13.686-5.721,16.726l-105.053,51.5c-1.771.868-3.646,1.279-5.493,1.279Z" fill="#fff" stroke-width="0"/>
    <path d="m1066.922,922.332c-4.81,0-9.396-2.793-11.453-7.48-2.773-6.322.102-13.695,6.424-16.469l107.138-47.009c6.321-2.778,13.695.102,16.469,6.424,2.773,6.322-.102,13.695-6.424,16.469l-107.138,47.009c-1.634.718-3.339,1.057-5.016,1.057Z" fill="#fff" stroke-width="0"/>
    <path d="m1111.255,995.882c-5.245,0-10.13-3.327-11.866-8.579-2.167-6.555,1.39-13.625,7.944-15.792l111.083-36.726c6.555-2.167,13.626,1.391,15.792,7.944,2.167,6.555-1.39,13.625-7.944,15.792l-111.083,36.726c-1.302.431-2.626.635-3.926.635Z" fill="#fff" stroke-width="0"/>
    <path d="m1155.309,1081.353c-5.138,0-9.951-3.191-11.775-8.306-2.318-6.503,1.075-13.654,7.578-15.972l110.206-39.281c6.504-2.316,13.653,1.076,15.971,7.577,2.318,6.503-1.075,13.654-7.578,15.972l-110.206,39.281c-1.387.494-2.804.729-4.196.729Z" fill="#fff" stroke-width="0"/>
    <path d="m1187.887,1162.809c-5.249,0-10.136-3.331-11.869-8.589-2.162-6.556,1.4-13.623,7.957-15.785l111.112-36.639c6.558-2.161,13.624,1.399,15.786,7.957,2.162,6.556-1.4,13.623-7.957,15.785l-111.112,36.639c-1.299.429-2.619.632-3.917.632Z" fill="#fff" stroke-width="0"/>
    <path d="m1476.888,1304.643c-.1,3.28-.24,6.55-.4,9.8-.06,1.33-.13,2.65-.21,3.98-.02.45-.05.91-.08,1.36-.07,1.25-.15,2.5-.23,3.74-.01.2-.02.4-.04.59-.09,1.44-.19,2.88-.3,4.31-.02.35-.05.69-.08,1.04-.02.3-.04.6-.07.9-.04.66-.1,1.31-.15,1.96-.04.5-.08,1-.12,1.49-.12,1.41-.24,2.81-.38,4.21-.01.27-.04.53-.07.78-.05.59-.1,1.17-.17,1.75-.05.66-.12,1.32-.19,1.98-.03.37-.07.74-.11,1.11-.02.27-.05.55-.08.82-.06.58-.12,1.17-.18,1.74-.03.24-.05.47-.08.7-.08.8-.17,1.59-.26,2.38-.03.24-.05.47-.08.71-.04.35-.08.71-.12,1.06-.02.15-.04.29-.05.44-.22,1.8-.44,3.59-.66,5.37-.18,1.36-.35,2.71-.54,4.06-.05.42-.11.83-.17,1.25l-.21,1.47c-.01.1-.02.19-.04.29-.19,1.36-.39,2.72-.6,4.07-.06.45-.13.9-.21,1.34-.12.85-.25,1.69-.39,2.53-.13.86-.27,1.72-.42,2.58-.03.25-.07.51-.12.76-.04.25-.08.49-.12.74-.21,1.23-.42,2.45-.63,3.67-.8,4.54-1.66,9.03-2.58,13.47-.19.94-.39,1.88-.59,2.81-.19.89-.38,1.78-.57,2.67-.29,1.28-.57,2.56-.87,3.83-.22.97-.44,1.94-.68,2.9-.25,1.07-.5,2.14-.77,3.2-.29,1.19-.58,2.38-.88,3.56-.09.34-.18.69-.27,1.04-.34,1.31-.68,2.62-1.03,3.92-.4,1.5-.81,3-1.23,4.49-.32,1.16-.65,2.31-.99,3.46-.14.5-.29,1.01-.44,1.51-.36,1.23-.72,2.45-1.09,3.67-.03.1-.06.2-.1.3-.43,1.43-.88,2.86-1.33,4.28-.46,1.45-.93,2.89-1.41,4.33-.47,1.43-.96,2.86-1.45,4.28-.49,1.42-.99,2.83-1.49,4.23-.02.06-.04.12-.06.17-.95,2.64-1.93,5.26-2.93,7.84-1.54,3.99-3.15,7.92-4.82,11.78-.28.66-.57,1.32-.86,1.98-.33.75-.66,1.5-.99,2.24-.19.43-.38.85-.58,1.27-.44.98-.89,1.96-1.35,2.94-.05.13-.11.26-.18.39-.54,1.16-1.09,2.32-1.65,3.47-.06.15-.14.3-.21.45-.46.96-.93,1.91-1.4,2.85-.26.53-.52,1.05-.79,1.57-.49.99-.99,1.97-1.5,2.94-.56,1.09-1.13,2.17-1.71,3.25-.15.29-.3.59-.47.88-.38.72-.77,1.44-1.17,2.16-.9,1.65-1.82,3.28-2.75,4.9-.66,1.16-1.34,2.32-2.02,3.46-.68,1.15-1.36,2.28-2.05,3.41-2.78,4.55-5.67,8.98-8.67,13.27-.36.52-.73,1.05-1.09,1.56-.54.76-1.09,1.52-1.63,2.27-.71.98-1.42,1.95-2.14,2.92-.66.88-1.32,1.76-1.99,2.63-.53.69-1.06,1.37-1.59,2.05-.33.44-.67.86-1.02,1.29-.45.58-.91,1.15-1.38,1.72-.29.37-.58.74-.89,1.1-.5.62-1.01,1.24-1.53,1.85-.73.88-1.46,1.76-2.21,2.62-.44.52-.89,1.03-1.34,1.54-.5.58-1,1.14-1.51,1.71-1.58,1.78-3.19,3.54-4.83,5.26-.64.68-1.29,1.36-1.95,2.04-3.77,3.89-7.66,7.62-11.66,11.19-.61.55-1.22,1.09-1.84,1.62-1.21,1.07-2.43,2.11-3.67,3.14-.72.6-1.44,1.2-2.17,1.78-.3.26-.6.5-.91.74-.85.69-1.71,1.37-2.57,2.04-.95.75-1.91,1.48-2.88,2.21-.96.73-1.94,1.44-2.91,2.15-.92.67-1.84,1.33-2.76,1.97-.19.14-.38.28-.57.4-.59.42-1.19.83-1.79,1.24-.52.36-1.05.72-1.58,1.07-.65.44-1.31.87-1.97,1.31-.24.16-.48.31-.72.46-.79.52-1.58,1.02-2.37,1.51-.22.15-.44.29-.66.42-.89.56-1.78,1.1-2.67,1.64-1.01.61-2.02,1.21-3.04,1.8-1.07.63-2.15,1.25-3.24,1.85-2.42,1.35-4.87,2.66-7.35,3.91-.84.44-1.69.86-2.53,1.27-1.12.55-2.24,1.09-3.37,1.62-.97.45-1.95.9-2.93,1.34-1.12.5-2.24.99-3.38,1.46-.86.37-1.73.72-2.6,1.07-1.01.41-2.03.8-3.05,1.19-.71.27-1.42.54-2.14.8-.91.34-1.82.67-2.74.98-.69.24-1.39.48-2.08.71-.78.27-1.57.53-2.36.78-3.16,1.02-6.37,1.96-9.64,2.82-1.63.43-3.27.85-4.93,1.24-1.65.41-3.32.78-5,1.14-.84.18-1.69.35-2.53.52-.78.16-1.56.31-2.34.46-.11.03-.23.05-.34.06-.79.16-1.58.3-2.38.44-1.09.2-2.18.39-3.28.56-1.5.25-3.02.48-4.55.7-.88.13-1.76.25-2.65.36-.5.07-.99.13-1.49.19-.67.09-1.35.18-2.03.25-.9.11-1.81.21-2.72.31-.84.09-1.69.17-2.53.25-.61.06-1.21.12-1.82.17-2.74.25-5.5.45-8.29.61-.57.03-1.13.07-1.7.09-1.48.08-2.98.15-4.47.2-.65.02-1.31.05-1.97.06-.81.03-1.63.05-2.44.07-.96.02-1.92.03-2.88.04-1.09.01-2.19.02-3.28.02-70.49.01-154.11-24.41-238.13-69.7-1.11-.6-2.23-1.2-3.34-1.81-.22-.12-.44-.24-.67-.37-.54-.29-1.08-.59-1.62-.88-1.46-.81-2.92-1.62-4.38-2.44-2.22-1.24-4.45-2.5-6.67-3.77h-.01c-1.8-1.04-3.61-2.08-5.41-3.13-.42-.24-.84-.48-1.25-.73-1.11-.65-2.23-1.3-3.34-1.96-1.11-.66-2.22-1.31-3.33-1.98-1.11-.67-2.23-1.34-3.34-2.01-.03-.01-.06-.03-.08-.05-1.86-1.12-3.72-2.26-5.58-3.41-1.45-.88-2.89-1.78-4.33-2.68-1.11-.69-2.22-1.39-3.32-2.09-.22-.13-.43-.27-.65-.41-.9-.56-1.79-1.13-2.69-1.71-.43-.28-.87-.56-1.3-.84-1.09-.69-2.18-1.4-3.28-2.11-.54-.35-1.07-.7-1.61-1.04-1.99-1.3-3.98-2.61-5.97-3.93-1.47-.98-2.95-1.96-4.42-2.95-3.68-2.48-7.35-4.99-11.02-7.55-.45-.31-.91-.63-1.37-.95-.28-.19-.55-.39-.82-.58-1.1-.77-2.2-1.55-3.3-2.32-1.92-1.36-3.83-2.73-5.75-4.12-1.92-1.38-3.83-2.77-5.74-4.18-1.65-1.2-3.29-2.41-4.92-3.63-.09-.06-.17-.13-.26-.19-.4-.3-.79-.59-1.19-.89-1.52-1.13-3.03-2.27-4.54-3.42-.18-.13-.35-.27-.53-.4l-.01-.01c-103.03-78.25-198.17-187.03-260.24-319.27-67.82-144.54-102-289.47-105.12-414.05v-.01c-.16-6.26-.23-12.47-.23-18.63,0-2.04.01-4.08.03-6.11.01-1.49.03-2.97.05-4.45.01-.91.03-1.81.04-2.72.03-1.68.07-3.35.11-5.02v-.06c.11-4.01.25-8,.42-11.97v-.03c.17-3.98.38-7.93.62-11.85.1-1.53.2-3.06.3-4.58.06-.87.12-1.73.19-2.6.01-.24.03-.48.05-.72.08-1.04.15-2.07.24-3.1.02-.24.03-.48.05-.72.04-.38.07-.77.1-1.16.13-1.55.26-3.09.4-4.63v-.04c.15-1.63.3-3.26.46-4.88.03-.28.05-.56.08-.84.02-.21.04-.42.06-.62.03-.21.05-.43.07-.64.15-1.49.31-2.97.47-4.45v-.02c.83-7.58,1.8-15.04,2.9-22.38v-.01c6.27-41.87,16.95-79.78,31.91-112.58,0,0-4.96,42.32-2.93,108.93.98,31.96,3.57,69.51,9.08,110.66,26.56,197.95,121,479.14,430.48,621.54,23.63,10.87,46.43,20.13,68.41,27.91,93.47,33.08,172.02,39.38,235.4,29.09,4.96-.81,9.83-1.71,14.6-2.72,3.36-.7,6.68-1.46,9.94-2.26,8.11-1.98,15.92-4.25,23.46-6.79,61.25-20.54,103.73-58.15,127.13-98.92Z" opacity=".15" stroke-width="0"/>
  </g>
  <path d="m1234.855,789.157c-4.319,0-8.519-2.24-10.834-6.248-33.178-57.416-101.888-125.794-102.578-126.478-4.903-4.858-4.94-12.774-.081-17.677s12.773-4.942,17.676-.082c2.914,2.887,71.76,71.389,106.628,131.73,3.454,5.977,1.409,13.623-4.569,17.077-1.969,1.138-4.12,1.679-6.242,1.679Z" fill="#fff" stroke-width="0"/>
  <path d="m1278.028,866.124c-4.578,0-8.987-2.524-11.181-6.895l-12.88-25.655c-3.098-6.17-.607-13.682,5.562-16.779,6.169-3.097,13.682-.607,16.779,5.562l12.88,25.655c3.098,6.17.607,13.682-5.562,16.779-1.799.903-3.713,1.332-5.599,1.332Z" fill="#fff" stroke-width="0"/>
  <path d="m662.046,1077.896c-4.795,0-9.369-2.774-11.436-7.441-37.899-85.569-64.31-212.259-65.416-217.61-1.397-6.761,2.951-13.373,9.712-14.771,6.758-1.393,13.373,2.95,14.771,9.711.266,1.285,26.988,129.449,63.792,212.547,2.795,6.312-.055,13.695-6.367,16.49-1.645.73-3.364,1.074-5.055,1.074Z" fill="#fff" stroke-width="0"/>
  <path d="m586.502,813.984c-6.065,0-11.388-4.422-12.339-10.602l-3.31-21.517c-1.05-6.823,3.63-13.205,10.454-14.255,6.817-1.06,13.205,3.63,14.255,10.454l3.31,21.517c1.05,6.823-3.63,13.205-10.454,14.255-.644.1-1.284.147-1.916.147Z" fill="#fff" stroke-width="0"/>
  <path d="m1221.553,1573.952c-5.331,0-10.081-.479-14.136-1.158-8.198-1.373-12.776-10.235-9.179-17.728h0c2.41-5.022,7.844-7.817,13.34-6.911,7.298,1.203,18.625,1.591,32.228-2.943,6.88-2.297,14.347,1.73,16.104,8.924,1.553,6.357-2.293,12.845-8.508,14.895-11.136,3.674-21.248,4.922-29.85,4.922Z" fill="#fff" stroke-width="0"/>
</svg>