<?xml version="1.0" encoding="UTF-8"?>
<svg id="a" data-name="FLAT COLORED" xmlns="http://www.w3.org/2000/svg" width="2000" height="2000" viewBox="0 0 2000 2000">
  <g>
    <path d="m1175.697,403.826c-93.946-83.525-231.85-127.534-359.53-92.894-83.19,22.567-156.755,77.187-205.731,146.707-4.865,6.91-9.498,13.965-13.862,21.15-48.311,79.496-65.905,173.711-55.132,262.752,12.486,103.324,62.888,200.38,140.402,270.391,141.942,128.203,365.444,164.719,479.077,316.245,1.107,1.472,2.197,2.952,3.281,4.445.112.147,13.118-4.601,29.196-10.928,26.486-10.406,61.319-25.087,60.628-29.239-.303-1.853-.679-4.102-1.098-6.662-2.702-16.404-7.368-45.391-8.866-63.319-12.782-153.295,72.974-303.704,81.414-458.231,4.046-73.936-10.766-147.629-41.456-213.941-25.618-55.349-62.296-105.548-108.323-146.475Zm2.393,668.935c-.723,6.509-1.39,13.379-2.01,20.612-4.05,47.733-.299,94.02,5.448,131.758.72,4.766-1.595,8.75-5.06,11.051-4.6,3.088-11.218,3.23-15.403-1.625-24.947-28.893-57.69-61.824-96.601-89.767-5.909-4.247-11.573-8.2-16.998-11.899-7.825-5.324-5.199-17.236,4.344-19.848,19.184-5.248,37.977-12.111,56.315-20.558.59-.272,1.181-.544,1.767-.825,17.624-8.229,34.407-17.733,50.287-28.505,8.191-5.546,18.952.199,17.913,9.606Z" fill="#ffc200" stroke-width="0"/>
    <path d="m1301.99,1296.837l126.905,275.485c7.063,15.331.361,33.48-14.97,40.543l-105.676,48.681c-15.331,7.063-33.48.361-40.543-14.97l-126.905-275.485c-7.063-15.331-.361-33.48,14.97-40.543l105.676-48.681c15.331-7.063,33.48-.361,40.543,14.97Z" fill="#f24646" stroke-width="0"/>
    <path d="m1441.81,1561.232l17.682,38.383c5.322,11.553.272,25.231-11.291,30.557l-149.082,68.676c-11.553,5.322-25.231.272-30.553-11.281l-17.682-38.383c-4.351-9.446-1.766-20.326,5.647-26.868,1.644-1.473,3.528-2.715,5.635-3.686l149.082-68.677c2.107-.971,4.284-1.599,6.472-1.891,9.803-1.378,19.738,3.723,24.09,13.169Z" fill="#1fc19a" stroke-width="0"/>
    <path d="m1047.466,1132.891c5.426,3.699,11.089,7.652,16.998,11.899,38.911,27.943,71.653,60.875,96.601,89.767,4.185,4.854,10.802,4.712,15.403,1.625l32.238,69.981s-8.796,5.571-15.307,15.529c-6.215,9.524-10.344,23.052-2.733,39.574,15.581,33.824,110.32,239.482,110.32,239.482,0,0-12.662,10.754,1.652,41.826,3.092,6.712,6.792,12.186,10.99,16.495,15.219,15.637,36.973,16.064,60.034,5.441l-74.541,34.338c-11.553,5.322-25.231.272-30.553-11.281l-17.682-38.383c-4.351-9.446-1.766-20.326,5.647-26.868l-115.73-251.225c-7.063-15.331-.361-33.48,14.97-40.543l5.15-2.372c-113.633-151.526-337.135-188.043-479.077-316.245-77.513-70.011-127.915-167.066-140.402-270.391-10.773-89.041,6.821-183.256,55.132-262.752,4.364-7.185,8.997-14.241,13.862-21.15,0,0-76.067,176.509,75.816,416.563,151.882,240.054,376.108,114.28,376.108,114.28l47.53,103.178c-.586.281-1.177.553-1.767.825-18.338,8.448-37.13,15.31-56.315,20.558-9.543,2.612-12.169,14.524-4.344,19.848Z" opacity=".15" stroke-width="0"/>
    <g>
      <path d="m1414.628,920.178c17.457,52.358-10.836,108.957-63.194,126.414h-.002c-9.047,3.017-18.223,4.669-27.301,5.062-43.45,1.896-84.671-24.948-99.112-68.259-2.566-7.695-4.144-15.482-4.8-23.225-1.638-19.244,2.41-38.202,11.083-54.759,11.571-22.097,31.38-39.918,56.913-48.431,52.358-17.457,108.956,10.839,126.412,63.197Z" fill="#1fc19a" stroke-width="0"/>
      <path d="m1225.02,983.395c6.57,19.706,18.684,36.003,34.032,47.734,25.427,19.443,59.729,26.349,92.383,15.462,32.652-10.887,55.948-36.997,64.62-67.809,1.276-4.532,2.236-9.163,2.861-13.863-11.773,20.553-30.854,37.021-55.09,45.102-32.654,10.887-66.956,3.981-92.383-15.462-15.347-11.731-27.461-28.029-34.031-47.734-4.969-14.903-6.231-30.152-4.285-44.743-4.09,7.137-7.296,14.767-9.531,22.709-5.235,18.593-5.145,38.9,1.425,58.604Z" opacity=".15" stroke-width="0"/>
    </g>
    <path d="m1233.44,753.68c-2.12,49.55-14.98,96.98-37.41,138.38-4.79,8.86-10.02,17.44-15.68,25.7-24.58,35.93-57.21,65.93-96.91,86.86-4.21,2.22-8.5,4.34-12.87,6.35-3.24,1.49-6.5,2.92-9.77,4.26-42.6,17.61-87.7,23.36-132.06,18.64-9.96-1.06-19.87-2.64-29.72-4.74-46.17-9.83-90.71-30.91-129.85-61.58-7.19-5.64-14.19-11.59-20.99-17.86-30.31-27.95-56.52-62.13-76.56-101.64-2.14-4.2-4.2-8.46-6.19-12.78-1.51-3.29-2.97-6.58-4.38-9.88-17.85-41.9-27.22-85.13-28.8-127.38-.35-9.25-.33-18.44.06-27.56,2.12-49.69,15.05-97.24,37.59-138.72,4.8-8.85,10.04-17.41,15.7-25.66,25.25-36.78,58.93-67.33,100-88.26,2.8-1.43,5.64-2.81,8.51-4.15l1.65-.76c4.17-1.92,8.39-3.72,12.61-5.39,41.71-16.57,85.71-21.87,129-17.21,9.96,1.07,19.88,2.67,29.73,4.78,46.03,9.87,90.44,30.91,129.47,61.5,7.19,5.63,14.2,11.59,21,17.86,31.07,28.66,57.85,63.87,78.09,104.67,1.59,3.21,3.15,6.46,4.66,9.75,1.99,4.32,3.89,8.66,5.69,13.01,17.01,40.92,25.95,83.06,27.49,124.26.35,9.24.33,18.43-.06,27.55Z" fill="#fff" stroke-width="0"/>
    <g>
      <rect x="922.053" y="382.196" width="25" height="658.19" transform="translate(-211.871 456.27) rotate(-24.734)" fill="#ff6022" stroke-width="0"/>
      <path d="m928.74,1033.87c-9.96-1.06-19.87-2.64-29.72-4.74l-46.13-100.15-10.46-22.71-52.03-112.94-10.46-22.71-53.44-116.03-10.46-22.71-46.14-100.15c4.8-8.85,10.04-17.41,15.7-25.66l53.14,115.35,10.46,22.71,53.45,116.03,10.46,22.71,52.03,112.94,10.46,22.71,53.14,115.35Z" fill="#ff6022" stroke-width="0"/>
      <path d="m1196.03,892.06c-4.79,8.86-10.02,17.44-15.68,25.7l-53.06-115.19-10.46-22.7-52.03-112.95-10.46-22.71-53.45-116.02-10.46-22.71-53.06-115.18c9.96,1.07,19.88,2.67,29.73,4.78l46.03,99.94,10.47,22.71,53.44,116.02,10.46,22.71,52.03,112.95h.01l10.45,22.71,46.04,99.94Z" fill="#ff6022" stroke-width="0"/>
      <path d="m1206.01,601.87l-118.51,54.59-22.7,10.46-112.96,52.04-22.7,10.46-116.03,53.45-22.71,10.46-118.78,54.72c-2.14-4.2-4.2-8.46-6.19-12.78-1.51-3.29-2.97-6.58-4.38-9.88l118.89-54.77,22.71-10.46,116.03-53.45,22.7-10.46,112.96-52.04,22.7-10.46,118.62-54.64c1.59,3.21,3.15,6.46,4.66,9.75,1.99,4.32,3.89,8.66,5.69,13.01Z" fill="#ff6022" stroke-width="0"/>
      <path d="m1117.57,474.44l-93.97,43.29-22.71,10.46-112.96,52.03-22.7,10.46-116.03,53.45-22.7,10.46-94.25,43.42c-.35-9.25-.33-18.44.06-27.56l83.73-38.57,22.7-10.46,116.03-53.45,22.7-10.46,112.96-52.03,22.7-10.46,83.44-38.44c7.19,5.63,14.2,11.59,21,17.86Z" fill="#ff6022" stroke-width="0"/>
      <path d="m1233.44,753.68l-83.45,38.44-22.7,10.45-112.96,52.04-22.7,10.46-116.03,53.45-22.71,10.46-83.72,38.57c-7.19-5.64-14.19-11.59-20.99-17.86l94.25-43.42,22.71-10.46,116.03-53.44,22.71-10.46,112.95-52.04,22.7-10.46h.01l93.96-43.28c.35,9.24.33,18.43-.06,27.55Z" fill="#ff6022" stroke-width="0"/>
    </g>
  </g>
  <path d="m1073.954,401.182c-2.445,0-4.916-.716-7.082-2.208-51.509-35.499-101.7-42.831-102.201-42.901-6.83-.953-11.607-7.258-10.665-14.089.943-6.831,7.228-11.609,14.062-10.679,2.273.31,56.337,8.039,112.991,47.084,5.685,3.917,7.117,11.702,3.199,17.386-2.425,3.519-6.331,5.408-10.304,5.408Z" fill="#fff" stroke-width="0"/>
  <path d="m848.303,356.192c-5.498,0-10.536-3.655-12.052-9.214-1.816-6.661,2.11-13.532,8.77-15.349.831-.226,20.594-5.529,41.874-3.705,6.878.589,11.977,6.643,11.387,13.521-.589,6.878-6.647,11.979-13.521,11.387-16.631-1.425-33,2.872-33.161,2.915-1.101.3-2.208.443-3.296.443Z" fill="#fff" stroke-width="0"/>
  <path d="m1295.35,1442.4c-4.907,0-9.562-2.908-11.555-7.724l-29.793-72c-2.64-6.379.392-13.69,6.771-16.33,6.378-2.639,13.69.392,16.33,6.771l29.793,72c2.64,6.379-.392,13.69-6.771,16.33-1.562.647-3.182.953-4.774.953Z" fill="#fff" stroke-width="0"/>
  <path d="m1320.593,1500.468c-4.802,0-9.38-2.782-11.443-7.458l-7.173-16.258c-2.787-6.316.075-13.695,6.391-16.482,6.315-2.785,13.695.074,16.482,6.391l7.173,16.258c2.787,6.316-.075,13.695-6.391,16.482-1.641.724-3.354,1.066-5.038,1.066Z" fill="#fff" stroke-width="0"/>
  <path d="m928.755,1096.053c-.451,0-.905-.024-1.364-.074-55.039-5.975-106.104-32.01-108.251-33.116-6.138-3.16-8.551-10.698-5.391-16.836,3.159-6.135,10.694-8.551,16.83-5.394h0c.486.249,49.199,25.03,99.511,30.491,6.863.745,11.823,6.913,11.078,13.776-.695,6.404-6.113,11.152-12.412,11.152Z" fill="#fff" stroke-width="0"/>
  <path d="m984.003,1100.409c-2.728,0-4.912-.233-6.547-.7-6.638-1.897-10.481-8.815-8.585-15.453,1.784-6.243,8.013-10.013,14.266-8.863,1.106.067,7.873.21,27.358-4.052,6.743-1.476,13.408,2.795,14.883,9.541,1.475,6.744-2.796,13.407-9.54,14.882-14.136,3.092-24.793,4.645-31.834,4.645Zm.309-24.742s.009.002.013.003c-.004-.001-.008-.002-.013-.003Zm-.013-.004s.008.002.012.003c-.004-.001-.008-.002-.012-.003Zm-.012-.003s.006.002.009.003c-.003,0-.006-.002-.009-.003Z" fill="#fff" stroke-width="0"/>
</svg>