<?xml version="1.0" encoding="UTF-8"?>
<svg id="a" data-name="FLAT COLORED" xmlns="http://www.w3.org/2000/svg" width="2000" height="2000" viewBox="0 0 2000 2000">
  <g>
    <g>
      <path d="m1029.006,1362.741c-1.88,14.26-4.25,28.41-7.17,42.37-9.04,43.33-23.39,84.74-44.98,121.02-1.77-.08-3.54-.16-5.31-.26-1.33-.07-2.65-.14-3.97-.22-.62-.04-1.24-.08-1.86-.12-.41-.02-.82-.05-1.23-.08-1.16-.07-2.31-.15-3.47-.24-3.6-.26-7.19-.56-10.76-.9-1.58-.14-3.15-.29-4.72-.46-.16-.01-.33-.03-.5-.05-3.23-.33-6.45-.69-9.65-1.09-.47-.05-.94-.11-1.41-.17-4.64-.58-9.25-1.22-13.85-1.92-.64-.09-1.29-.19-1.93-.29-1.38-.21-2.75-.43-4.12-.66-1.72-.28-3.43-.57-5.13-.87-5.07-.88-10.11-1.83-15.13-2.86-.22-.04-.44-.08-.65-.13-1.53-.31-3.05-.64-4.57-.96-1.69-.36-3.37-.73-5.04-1.11-1.68-.38-3.36-.77-5.03-1.16-1.67-.4-3.34-.8-5-1.21-1.66-.41-3.32-.82-4.97-1.24-.01,0-.02-.01-.02-.01-1.66-.43-3.32-.86-4.97-1.3-3.31-.89-6.6-1.8-9.88-2.75-3.11-.89-6.2-1.82-9.29-2.76-.17-.05-.34-.1-.51-.16-4.88-1.51-9.73-3.09-14.55-4.74-6.42-2.2-12.79-4.52-19.1-6.95-7.89-3.05-15.68-6.27-23.38-9.68-15.4-6.82-30.41-14.35-44.98-22.55-5.84-3.29-11.6-6.68-17.29-10.17-5.67-3.49-11.28-7.07-16.81-10.76-.02-.01-.04-.02-.05-.04-1.38-.92-2.77-1.86-4.14-2.79-2.76-1.88-5.49-3.78-8.21-5.71-1.36-.96-2.71-1.93-4.06-2.91-1.35-.98-2.69-1.96-4.03-2.95-1.34-.99-2.67-1.98-4-2.98-1.32-.99-2.62-1.98-3.93-2.98-.01-.01-.03-.02-.05-.04-1.32-1.02-2.63-2.03-3.94-3.06-1.31-1.03-2.61-2.06-3.91-3.09-1.41-1.12-2.82-2.26-4.22-3.4-1.18-.96-2.35-1.93-3.52-2.9-1.28-1.06-2.55-2.13-3.82-3.2-1.27-1.08-2.54-2.15-3.79-3.24-1.24-1.07-2.48-2.14-3.71-3.22-.02-.01-.03-.03-.05-.05-1.25-1.1-2.5-2.2-3.73-3.31-1.24-1.11-2.47-2.22-3.7-3.34-.11-.09-.21-.19-.31-.28-1.12-1.03-2.24-2.06-3.36-3.1-1.21-1.13-2.42-2.26-3.63-3.41-1.07-1.01-2.13-2.03-3.19-3.04-.13-.13-.27-.26-.41-.4-1.2-1.15-2.39-2.31-3.57-3.48-1.16-1.14-2.32-2.29-3.48-3.45-2.72-2.73-5.42-5.49-8.09-8.29-.79-.83-1.58-1.66-2.37-2.5-1.13-1.2-2.26-2.4-3.37-3.61-1-1.08-2-2.17-3-3.27-.72-.79-1.44-1.58-2.15-2.38-2.75-3.05-5.46-6.15-8.14-9.27-1.04-1.2-2.06-2.41-3.09-3.63-3.88-4.61-7.68-9.28-11.4-14.02-39.47-50.25-69.99-107.85-89.18-170.41-15.02-48.94-23.09-100.88-23.09-154.7,0-31.41,2.75-62.13,8.02-91.99,13.62-77.4,44.16-148.95,87.64-210.7,0,0,132.28,222.1,431.15,292.11,0,0,29.72,109.48,34.55,239.83,1.61,43.33.47,88.96-5.44,133.64Z" fill="#ffc200" stroke-width="0"/>
      <path d="m1021.833,1405.106s-312.3,15.944-525.655-250.557c-15.025-48.941-23.093-100.879-23.093-154.701,0-31.404,2.753-62.131,8.019-91.99,68.267,97.498,238.671,285.971,553.341,321.24,2.126,57.155-.533,118.321-12.612,176.008Z" fill="#fff" stroke-width="0"/>
      <path d="m628.926,835.601c-34.507-27.73-64.878-59.321-87.395-95.042,111.784-197.785,334.639-297.189,549.36-259.472,50.426,8.842,100.362,25.243,148.313,49.688,27.978,14.263,54.103,30.671,78.313,48.924,62.767,47.29,112.646,106.993,147.906,173.775,0,0-257.951,16.979-456.061,251.449,0,0-111.032-23.25-229.358-78.149-51.885-24.065-105.172-54.214-151.079-91.175Z" fill="#1fc19a" stroke-width="0"/>
      <path d="m628.926,835.601s127.636-285.472,461.965-354.513c50.426,8.842,100.362,25.243,148.313,49.688,27.978,14.263,54.103,30.671,78.313,48.924-117.868,16.538-363.174,82.752-537.512,347.076-51.885-24.065-105.172-54.214-151.079-91.175Z" fill="#fff" stroke-width="0"/>
      <path d="m1389.316,1355.083c-34.502,37.818-75.135,71.175-121.48,98.527-27.043,15.965-54.91,29.218-83.293,39.865-73.58,27.612-150.72,37.686-225.996,31.623,0,0,32.035-58.583,51.504-154.654,18.847-92.969,25.947-221.047-19.127-365.124,0,0,79.178-81.243,188.976-151.661,48.131-30.888,102.166-59.688,157.98-78.614,10.609-3.61,21.292-6.86,32.011-9.699,31.603-8.384,63.539-13.194,95.081-13.087,106.976,200.428,71.34,441.829-75.655,602.825Z" fill="#f24646" stroke-width="0"/>
      <path d="m1337.878,775.048s172.484,260.835,51.441,580.039c-34.509,37.818-75.134,71.167-121.483,98.527-27.044,15.964-54.904,29.213-83.294,39.857,49.259-108.351,124.942-350.903-4.645-639.812,48.139-30.884,102.164-59.688,157.982-78.611Z" fill="#fff" stroke-width="0"/>
    </g>
    <path d="m610.675,1355.079q.01,0,.01.01c34.51,37.82,75.13,71.17,121.48,98.53,17.49,10.32,35.33,19.5,53.42,27.58,9.89,4.42,19.85,8.51,29.87,12.28,73.58,27.61,150.72,37.68,226,31.62,0,0-.02-.03-.04-.08,2.78-.21,5.56-.44,8.33-.71,1.58-.14,3.15-.29,4.72-.46.16-.01.33-.03.5-.05,3.23-.33,6.45-.69,9.65-1.09.47-.05.94-.11,1.41-.17,4.64-.58,9.25-1.22,13.85-1.92.64-.09,1.29-.19,1.93-.29,1.38-.21,2.75-.43,4.12-.66,1.72-.28,3.43-.57,5.13-.87,5.07-.88,10.11-1.83,15.13-2.86.22-.04.44-.08.65-.13,1.53-.31,3.05-.64,4.57-.96,1.69-.36,3.37-.73,5.04-1.11,1.68-.38,3.36-.77,5.03-1.16,1.67-.4,3.34-.8,5-1.21,1.66-.41,3.32-.82,4.97-1.24.01,0,.02-.01.02-.01,1.66-.43,3.32-.86,4.97-1.3,3.31-.89,6.6-1.8,9.88-2.75,3.11-.89,6.2-1.82,9.29-2.76.17-.05.34-.1.51-.16,4.88-1.51,9.73-3.09,14.55-4.74,6.42-2.2,12.79-4.52,19.1-6.95,7.89-3.05,15.68-6.27,23.38-9.68,15.4-6.82,30.41-14.35,44.98-22.55,5.84-3.29,11.6-6.68,17.29-10.17,5.67-3.49,11.28-7.07,16.81-10.76.02-.01.04-.02.05-.04,1.38-.92,2.77-1.86,4.14-2.79,2.76-1.88,5.49-3.78,8.21-5.71,1.36-.96,2.71-1.93,4.06-2.91,1.35-.98,2.69-1.96,4.03-2.95,1.34-.99,2.67-1.98,4-2.98,1.32-.99,2.62-1.98,3.93-2.98.01-.01.03-.02.05-.04,1.32-1.02,2.63-2.03,3.94-3.06,1.31-1.03,2.61-2.06,3.91-3.09,1.41-1.12,2.82-2.26,4.22-3.4,1.18-.96,2.35-1.93,3.52-2.9,1.28-1.06,2.55-2.13,3.82-3.2,1.27-1.08,2.54-2.15,3.79-3.24,1.24-1.07,2.48-2.14,3.71-3.22.02-.01.03-.03.05-.05,1.25-1.1,2.5-2.2,3.73-3.31,1.24-1.11,2.47-2.22,3.7-3.34.11-.09.21-.19.31-.28,1.12-1.03,2.24-2.06,3.36-3.1,1.21-1.13,2.42-2.26,3.63-3.41,1.07-1.01,2.13-2.03,3.19-3.04.13-.13.27-.26.41-.4,1.2-1.15,2.39-2.31,3.57-3.48,1.16-1.14,2.32-2.29,3.48-3.45,2.72-2.73,5.42-5.49,8.09-8.29.79-.83,1.58-1.66,2.37-2.5,1.13-1.2,2.26-2.4,3.37-3.61,1-1.08,2-2.17,3-3.27.72-.79,1.44-1.58,2.15-2.38,2.75-3.05,5.46-6.15,8.14-9.27,1.04-1.2,2.06-2.41,3.09-3.63,3.88-4.61,7.68-9.28,11.4-14.02,25.73-32.75,47.65-68.62,65.11-106.96-.72.67-1.44,1.33-2.16,1.99-.1.09-.2.19-.31.28-1.23,1.12-2.46,2.23-3.7,3.34-1.23,1.11-2.48,2.21-3.73,3.31-.02.02-.03.04-.05.05-1.23,1.08-2.47,2.15-3.71,3.22-1.25,1.09-2.52,2.16-3.79,3.24-1.27,1.07-2.54,2.14-3.82,3.2-1.17.97-2.34,1.94-3.52,2.9-1.4,1.14-2.81,2.28-4.22,3.4-1.3,1.03-2.6,2.06-3.91,3.09-1.31,1.03-2.62,2.04-3.94,3.06-.02.02-.04.03-.05.04-1.31,1-2.61,1.99-3.93,2.98-1.33,1-2.66,1.99-4,2.98-1.34.99-2.68,1.97-4.03,2.95-1.35.98-2.7,1.95-4.06,2.91-2.72,1.93-5.45,3.83-8.21,5.71-1.37.93-2.76,1.87-4.14,2.79-.01.02-.03.03-.05.04-5.53,3.69-11.14,7.27-16.81,10.76-5.69,3.49-11.45,6.88-17.29,10.17-14.57,8.2-29.58,15.73-44.98,22.55-7.7,3.41-15.49,6.63-23.38,9.68-6.31,2.43-12.68,4.75-19.1,6.95-4.82,1.65-9.67,3.23-14.55,4.74-.17.06-.34.11-.51.16-3.09.94-6.18,1.87-9.29,2.76-3.28.95-6.57,1.86-9.88,2.75-1.65.44-3.31.87-4.97,1.3,0,0-.01.01-.02.01-1.65.42-3.31.83-4.97,1.24-1.66.41-3.33.81-5,1.21-1.67.39-3.35.78-5.03,1.16-1.67.38-3.35.75-5.04,1.11-1.52.32-3.04.65-4.57.96-.21.05-.43.09-.65.13-5.02,1.03-10.06,1.98-15.13,2.86-1.7.3-3.41.59-5.13.87-1.37.23-2.74.45-4.12.66-.64.1-1.29.2-1.93.29-4.6.7-9.21,1.34-13.85,1.92-.47.06-.94.12-1.41.17-3.2.4-6.42.76-9.65,1.09-.17.02-.34.04-.5.05-1.57.17-3.14.32-4.72.46-2.76.26-5.54.49-8.33.71.03.04.04.07.04.07-75.27,6.07-152.41-4.01-225.99-31.62-10.03-3.76-19.99-7.85-29.88-12.27-18.09-8.08-35.93-17.27-53.42-27.59-46.35-27.36-86.97-60.71-121.48-98.53v-.01c-139.84-153.17-178.9-379.1-90.25-573.3-43.98,40.56-80.04,87.82-107.41,139.31h-.19c-106.98,200.42-71.35,441.82,75.64,602.82Z" opacity=".15" stroke-width="0"/>
  </g>
  <path d="m789.973,1003.227c-1.083,0-2.184-.142-3.279-.439-50.487-13.691-97.316-47.709-99.285-49.151-5.57-4.079-6.78-11.9-2.701-17.47,4.078-5.57,11.9-6.778,17.47-2.702.666.485,45.255,32.773,91.06,45.194,6.663,1.807,10.599,8.673,8.793,15.336-1.51,5.567-6.552,9.231-12.057,9.231Z" fill="#fff" stroke-width="0"/>
  <path d="m865.275,1033.02c-1.396,0-2.814-.235-4.204-.731l-23.172-8.276c-6.501-2.322-9.89-9.475-7.568-15.976,2.322-6.502,9.477-9.889,15.976-7.568l23.172,8.276c6.501,2.322,9.89,9.475,7.568,15.976-1.826,5.112-6.638,8.299-11.772,8.299Z" fill="#fff" stroke-width="0"/>
  <path d="m697.731,642.148c-3.444,0-6.871-1.414-9.341-4.188-4.589-5.156-4.132-13.056,1.024-17.646,2.793-2.487,68.994-61.105,119.424-77.43,6.569-2.127,13.616,1.475,15.742,8.043,2.126,6.568-1.475,13.616-8.043,15.742-45.421,14.703-109.855,71.743-110.501,72.317-2.382,2.12-5.35,3.162-8.306,3.162Z" fill="#fff" stroke-width="0"/>
  <path d="m1087.08,1287.503c-.948,0-1.911-.108-2.874-.335-6.72-1.582-10.886-8.311-9.305-15.031,9.271-39.406-.097-102.637-.192-103.271-1.031-6.826,3.668-13.195,10.494-14.226,6.828-1.033,13.195,3.668,14.226,10.494.42,2.784,10.172,68.682-.192,112.729-1.355,5.757-6.488,9.64-12.157,9.64Z" fill="#fff" stroke-width="0"/>
  <path d="m1099.498,716.428c-4.017,0-7.962-1.932-10.376-5.513-3.856-5.721-2.353-13.482,3.366-17.343,2.765-1.867,68.864-45.953,169.611-66.409,6.768-1.373,13.364,2.997,14.737,9.763,1.374,6.766-2.997,13.364-9.763,14.737-95.599,19.41-159.965,62.203-160.604,62.633-2.141,1.441-4.569,2.131-6.971,2.131Z" fill="#fff" stroke-width="0"/>
  <path d="m1303.608,642.675c-5.786,0-10.98-4.04-12.219-9.927-1.422-6.756,2.901-13.385,9.657-14.807l20.966-4.413c6.757-1.419,13.385,2.902,14.807,9.657,1.422,6.756-2.901,13.385-9.657,14.807l-20.966,4.414c-.868.183-1.735.27-2.588.27Z" fill="#fff" stroke-width="0"/>
</svg>