<?xml version="1.0" encoding="UTF-8"?>
<svg id="a" data-name="FLAT COLORED" xmlns="http://www.w3.org/2000/svg" width="2000" height="2000" viewBox="0 0 2000 2000">
  <g>
    <rect x="231.552" y="943.444" width="1536.897" height="102.245" fill="#ffc200" stroke-width="0"/>
    <rect x="231.556" y="1010.707" width="1536.888" height="34.981" opacity=".15" stroke-width="0"/>
    <g>
      <path d="m453.461,712.634h92.941v574.731h-92.941c-57.679,0-104.507-46.828-104.507-104.507v-365.717c0-57.679,46.828-104.507,104.507-104.507Z" fill="#1fc19a" stroke-width="0"/>
      <path d="m546.4,1235.555v51.811h-92.94c-57.711,0-104.504-46.792-104.504-104.504v-365.721c0-42.268,25.083-78.657,61.172-95.122-6.018,13.197-9.372,27.867-9.372,43.31v390.793c0,43.869,35.573,79.431,79.431,79.431h66.212Z" opacity=".15" stroke-width="0"/>
      <path d="m793.657,721.282v557.437c0,22.096-4.911,43.052-13.713,61.817-23.268,49.651-73.693,84.042-132.145,84.042-80.56,0-145.87-65.31-145.87-145.858v-557.437c0-59.56,35.713-110.791,86.89-133.435,18.034-7.996,37.991-12.424,58.98-12.424,40.279,0,76.734,16.325,103.139,42.719,26.395,26.395,42.719,62.87,42.719,103.139Z" fill="#f24646" stroke-width="0"/>
      <path d="m779.944,1340.535c-23.267,49.651-73.692,84.042-132.145,84.042-80.56,0-145.869-65.31-145.869-145.858v-557.437c0-59.56,35.712-110.791,86.89-133.435-8.813,18.764-13.724,39.721-13.724,61.828v557.426c0,80.56,65.299,145.858,145.859,145.858,21,0,40.957-4.439,58.99-12.424Z" opacity=".15" stroke-width="0"/>
    </g>
    <g>
      <path d="m1560.773,712.634h92.941v574.731h-92.941c-57.679,0-104.507-46.828-104.507-104.507v-365.717c0-57.679,46.828-104.507,104.507-104.507Z" transform="translate(3109.981 2000) rotate(180)" fill="#1fc19a" stroke-width="0"/>
      <path d="m1456.269,1235.555v51.811h92.94c57.711,0,104.504-46.792,104.504-104.504v-365.721c0-42.268-25.083-78.657-61.172-95.122,6.018,13.197,9.372,27.867,9.372,43.31v390.793c0,43.869-35.573,79.431-79.431,79.431h-66.212Z" opacity=".15" stroke-width="0"/>
      <path d="m1209.011,721.282v557.437c0,22.096,4.911,43.052,13.713,61.817,23.268,49.651,73.693,84.042,132.145,84.042,80.56,0,145.87-65.31,145.87-145.858v-557.437c0-59.56-35.713-110.791-86.89-133.435-18.034-7.996-37.991-12.424-58.98-12.424-40.279,0-76.734,16.325-103.139,42.719-26.395,26.395-42.719,62.87-42.719,103.139Z" fill="#f24646" stroke-width="0"/>
      <path d="m1222.724,1340.535c23.267,49.651,73.692,84.042,132.145,84.042,80.559,0,145.869-65.31,145.869-145.858v-557.437c0-59.56-35.712-110.791-86.89-133.435,8.813,18.764,13.724,39.721,13.724,61.828v557.426c0,80.56-65.299,145.858-145.859,145.858-21,0-40.957-4.439-58.99-12.424Z" opacity=".15" stroke-width="0"/>
    </g>
  </g>
  <path d="m1255.482,893.155c-6.903,0-12.5-5.597-12.5-12.5v-121.655c0-6.903,5.597-12.5,12.5-12.5s12.5,5.597,12.5,12.5v121.655c0,6.903-5.597,12.5-12.5,12.5Z" fill="#fff" stroke-width="0"/>
  <path d="m1255.482,984.604c-6.903,0-12.5-5.597-12.5-12.5v-24.828c0-6.903,5.597-12.5,12.5-12.5s12.5,5.597,12.5,12.5v24.828c0,6.903-5.597,12.5-12.5,12.5Z" fill="#fff" stroke-width="0"/>
  <path d="m455.207,890.259c-6.903,0-12.5-5.597-12.5-12.5v-84.414c0-6.903,5.597-12.5,12.5-12.5s12.5,5.597,12.5,12.5v84.414c0,6.903-5.597,12.5-12.5,12.5Z" fill="#fff" stroke-width="0"/>
  <path d="m455.207,955.944c-6.903,0-12.5-5.597-12.5-12.5v-10.237c0-6.903,5.597-12.5,12.5-12.5s12.5,5.597,12.5,12.5v10.237c0,6.903-5.597,12.5-12.5,12.5Z" fill="#fff" stroke-width="0"/>
  <path d="m746.504,720.054c-5.901,0-11.152-4.196-12.274-10.208-6.649-35.619-27.993-52.314-28.898-53.007-5.537-4.124-6.65-11.931-2.527-17.467,4.125-5.538,11.987-6.658,17.524-2.535,1.219.908,29.953,22.758,38.478,68.421,1.267,6.786-3.208,13.315-9.994,14.582-.775.145-1.547.214-2.308.214Z" fill="#fff" stroke-width="0"/>
  <path d="m668.301,636.19c-2.575,0-5.173-.793-7.405-2.438-.696-.513-1.497-.953-2.337-1.329-4.586-2.056-7.628-6.504-7.628-11.53h0c0-9.033,9.312-15.204,17.546-11.488,2.169.979,4.382,2.196,6.54,3.71,5.671,3.979,7.53,11.907,3.617,17.624-2.437,3.561-6.358,5.451-10.332,5.451Z" fill="#fff" stroke-width="0"/>
  <path d="m1535.621,1181.155c-6.903,0-12.5-5.597-12.5-12.5v-43.448c0-6.903,5.597-12.5,12.5-12.5s12.5,5.597,12.5,12.5v43.448c0,6.903-5.597,12.5-12.5,12.5Z" fill="#fff" stroke-width="0"/>
  <path d="m1387.609,1389.848c-5.754,0-10.931-3.996-12.203-9.848-1.463-6.73,2.794-13.373,9.513-14.859.551-.128,32.594-7.767,46.658-36.349,3.048-6.193,10.541-8.742,16.734-5.697,6.194,3.048,8.745,10.54,5.697,16.734-19.543,39.717-61.938,49.34-63.732,49.731-.895.194-1.788.288-2.667.288Z" fill="#fff" stroke-width="0"/>
</svg>