<?xml version="1.0" standalone="no"?>
<!DOCTYPE svg PUBLIC "-//W3C//DTD SVG 20010904//EN"
 "http://www.w3.org/TR/2001/REC-SVG-20010904/DTD/svg10.dtd">
<svg version="1.0" xmlns="http://www.w3.org/2000/svg"
 width="200.000000pt" height="200.000000pt" viewBox="0 0 200.000000 200.000000"
 preserveAspectRatio="xMidYMid meet">

<g transform="translate(0.000000,200.000000) scale(0.100000,-0.100000)"
fill="#000000" stroke="none">
<path d="M855 1989 c-305 -44 -597 -253 -739 -529 -323 -627 79 -1374 781
-1453 620 -69 1165 476 1096 1096 -64 564 -579 966 -1138 886z m240 -538 c83
-37 130 -125 89 -165 -26 -26 -58 -19 -102 24 -44 43 -85 52 -137 28 -57 -26
-72 -111 -30 -168 30 -41 31 -59 5 -88 -26 -28 -45 -27 -95 3 -57 36 -99 33
-141 -9 -37 -37 -45 -82 -23 -129 22 -48 93 -71 142 -46 12 6 87 76 167 155
155 153 188 174 268 174 131 0 226 -97 226 -230 0 -133 -94 -230 -224 -230
-70 0 -116 22 -182 88 l-58 56 -52 -51 c-69 -67 -123 -93 -190 -93 -202 1
-304 242 -165 389 38 40 100 70 143 71 30 0 32 2 36 44 13 112 109 196 223
196 36 0 76 -8 100 -19z m-63 -163 c27 -22 30 -53 7 -81 -11 -15 -28 -27 -38
-27 -29 0 -61 30 -61 57 0 51 54 81 92 51z m-87 -568 c49 -25 61 -25 109 1 51
27 87 22 105 -15 12 -25 11 -31 -6 -55 -39 -53 -135 -82 -209 -62 -94 25 -139
86 -98 132 22 24 50 24 99 -1z"/>
<path d="M1142 1055 l-57 -55 57 -55 c49 -48 61 -55 97 -55 86 0 137 94 92
168 -23 35 -55 52 -103 52 -23 0 -43 -13 -86 -55z"/>
</g>
</svg>
