<svg xmlns="http://www.w3.org/2000/svg" xmlns:xlink="http://www.w3.org/1999/xlink" version="1.1" width="256" height="256" viewBox="0 0 256 256" xml:space="preserve">
<g style="stroke: none; stroke-width: 0; stroke-dasharray: none; stroke-linecap: butt; stroke-linejoin: miter; stroke-miterlimit: 10; fill: none; fill-rule: nonzero; opacity: 1;" transform="translate(1.4065934065934016 1.4065934065934016) scale(2.81 2.81)">
	<path d="M 45 89.818 c 24.712 -9.852 37.069 -19.703 37.069 -73.469 C 68.154 12.953 55.798 7.443 45 -0.182 C 34.202 7.443 21.846 12.953 7.931 16.348 C 7.931 70.115 20.288 79.966 45 89.818 z" style="stroke: none; stroke-width: 1; stroke-dasharray: none; stroke-linecap: butt; stroke-linejoin: miter; stroke-miterlimit: 10; fill: rgb(55,108,251); fill-rule: nonzero; opacity: 1;" transform=" matrix(1 0 0 1 0 0) " stroke-linecap="round"/>
	<path d="M 45 10.859 C 45 10.858 45 10.858 45 10.859 c -8.352 5.439 -17.719 9.633 -27.926 12.503 C 17.616 65.059 27.16 72.144 45 79.427 c 0 0 0 0 0 0 V 10.859 z" style="stroke: none; stroke-width: 1; stroke-dasharray: none; stroke-linecap: butt; stroke-linejoin: miter; stroke-miterlimit: 10; fill: rgb(230,236,255); fill-rule: nonzero; opacity: 1;" transform=" matrix(1 0 0 1 0 0) " stroke-linecap="round"/>
	<path d="M 45 10.859 C 45 10.858 45 10.858 45 10.859 c 8.352 5.439 17.719 9.633 27.926 12.503 C 72.385 65.059 62.841 72.144 45 79.427 c 0 0 0 0 0 0 V 10.859 z" style="stroke: none; stroke-width: 1; stroke-dasharray: none; stroke-linecap: butt; stroke-linejoin: miter; stroke-miterlimit: 10; fill: rgb(248,250,255); fill-rule: nonzero; opacity: 1;" transform=" matrix(1 0 0 1 0 0) " stroke-linecap="round"/>
	<circle cx="44.998" cy="66.898" r="2.428" style="stroke: none; stroke-width: 1; stroke-dasharray: none; stroke-linecap: butt; stroke-linejoin: miter; stroke-miterlimit: 10; fill: rgb(55,108,251); fill-rule: nonzero; opacity: 1;" transform="  matrix(1 0 0 1 0 0) "/>
	<path d="M 48.52 62.995 c -0.198 -0.225 -0.419 -0.432 -0.656 -0.616 c -0.826 -0.638 -1.817 -0.975 -2.864 -0.975 c -1.048 0 -2.038 0.337 -2.864 0.975 c -0.237 0.183 -0.458 0.391 -0.656 0.616 l -2.071 -1.824 c 0.313 -0.356 0.663 -0.683 1.039 -0.974 c 1.315 -1.016 2.888 -1.552 4.552 -1.552 s 3.237 0.537 4.551 1.552 c 0.375 0.29 0.725 0.618 1.04 0.975 L 48.52 62.995 z" style="stroke: none; stroke-width: 1; stroke-dasharray: none; stroke-linecap: butt; stroke-linejoin: miter; stroke-miterlimit: 10; fill: rgb(55,108,251); fill-rule: nonzero; opacity: 1;" transform=" matrix(1 0 0 1 0 0) " stroke-linecap="round"/>
	<path d="M 37.26 58.622 l -1.985 -1.917 c 0.455 -0.471 0.948 -0.913 1.466 -1.314 c 2.385 -1.842 5.241 -2.816 8.259 -2.816 s 5.874 0.974 8.259 2.815 c 0.518 0.401 1.011 0.843 1.467 1.315 l -1.986 1.916 c -0.363 -0.375 -0.756 -0.728 -1.168 -1.047 c -1.896 -1.465 -4.169 -2.24 -6.571 -2.24 s -4.675 0.775 -6.572 2.24 C 38.016 57.894 37.622 58.246 37.26 58.622 z" style="stroke: none; stroke-width: 1; stroke-dasharray: none; stroke-linecap: butt; stroke-linejoin: miter; stroke-miterlimit: 10; fill: rgb(55,108,251); fill-rule: nonzero; opacity: 1;" transform=" matrix(1 0 0 1 0 0) " stroke-linecap="round"/>
	<path d="M 56.927 54.223 c -0.515 -0.518 -1.069 -1.007 -1.648 -1.453 c -2.966 -2.292 -6.521 -3.503 -10.279 -3.503 s -7.313 1.211 -10.279 3.503 c -0.579 0.448 -1.133 0.937 -1.647 1.453 l -1.956 -1.946 c 0.598 -0.601 1.242 -1.169 1.916 -1.69 c 3.455 -2.669 7.592 -4.08 11.967 -4.08 s 8.512 1.411 11.966 4.079 c 0.672 0.519 1.317 1.088 1.916 1.69 L 56.927 54.223 z" style="stroke: none; stroke-width: 1; stroke-dasharray: none; stroke-linecap: butt; stroke-linejoin: miter; stroke-miterlimit: 10; fill: rgb(55,108,251); fill-rule: nonzero; opacity: 1;" transform=" matrix(1 0 0 1 0 0) " stroke-linecap="round"/>
	<path d="M 32.368 41.678 h -4.047 l -5.125 -15.356 h 4.026 l 3.092 10.771 h 0.042 l 3.112 -10.771 h 4.047 L 32.368 41.678 z" style="stroke: none; stroke-width: 1; stroke-dasharray: none; stroke-linecap: butt; stroke-linejoin: miter; stroke-miterlimit: 10; fill: rgb(55,108,251); fill-rule: nonzero; opacity: 1;" transform=" matrix(1 0 0 1 0 0) " stroke-linecap="round"/>
	<path d="M 49.887 35.536 c -1.328 1.162 -2.76 1.328 -4.482 1.328 h -1.702 v 4.814 h -3.756 V 26.322 h 5.021 c 1.577 0 3.466 0.062 4.731 1.12 c 1.204 1.018 1.806 2.49 1.806 4.068 C 51.506 32.92 50.967 34.581 49.887 35.536 z M 45.156 29.766 h -1.453 v 3.652 h 1.598 c 1.287 0 2.449 -0.29 2.449 -1.847 C 47.75 29.974 46.443 29.766 45.156 29.766 z" style="stroke: none; stroke-width: 1; stroke-dasharray: none; stroke-linecap: butt; stroke-linejoin: miter; stroke-miterlimit: 10; fill: rgb(55,108,251); fill-rule: nonzero; opacity: 1;" transform=" matrix(1 0 0 1 0 0) " stroke-linecap="round"/>
	<path d="M 63.401 41.678 l -5.852 -9.338 l -0.042 0.021 l 0.104 9.317 h -3.756 V 26.322 h 3.383 l 5.935 9.649 l 0.042 -0.041 l -0.166 -9.608 h 3.756 v 15.356 H 63.401 z" style="stroke: none; stroke-width: 1; stroke-dasharray: none; stroke-linecap: butt; stroke-linejoin: miter; stroke-miterlimit: 10; fill: rgb(55,108,251); fill-rule: nonzero; opacity: 1;" transform=" matrix(1 0 0 1 0 0) " stroke-linecap="round"/>
</g>
</svg>