<?xml version="1.0" encoding="utf-8"?>
<!-- Generator: Adobe Illustrator 18.0.0, SVG Export Plug-In . SVG Version: 6.00 Build 0)  -->
<!DOCTYPE svg PUBLIC "-//W3C//DTD SVG 1.1//EN" "http://www.w3.org/Graphics/SVG/1.1/DTD/svg11.dtd">
<svg version="1.1" id="Layer_1" xmlns="http://www.w3.org/2000/svg" xmlns:xlink="http://www.w3.org/1999/xlink" x="0px" y="0px"
	 viewBox="0 0 512 512" enable-background="new 0 0 512 512" xml:space="preserve">
<g>
	<g>
		<g>
			<g>
				<g>
					<path fill="#E6E7E8" d="M58.5,348.9l2.2-22.5c0.2-1.7,3.2-30.6,17.9-61.6H33.2v-94.3h48.2v0.3c4-0.8,8.1-1.3,12.2-1.3
						c9.8,0,19.6,2.5,29.1,7.3c4.9,2.5,9.9,3.8,14.9,3.8c11.9,0,20.8-7.1,20.8-7.1l12.3-10.3l10.9,12.4l23.2,26.7l-15,14
						c-0.6,0.6-8.7,8.9-16.7,25.4c-8.1,16.7-17.8,45.4-17.8,87.1v20.3H58.5z M82.2,257.8c2.9-5.5,6.2-11,9.9-16.3
						c-0.9-0.3-1.7-0.5-2.4-0.5c-2.9,0-5.8,2.4-7.5,4V257.8z"/>
				</g>
			</g>
			<g>
				<g>
					<path fill="#E6E7E8" d="M69.6,337.6l1-9.9c0.3-2.7,5.8-54.7,39.5-92.1c-4.6-0.7-9.1-2.1-13.3-4.2c-2.4-1.2-4.8-1.8-7.1-1.8
						c-6,0-11.1,3.9-14.3,7.1c-2,2-3.1,4.8-3.1,7.8l0,9l-29.1,0l0-71.7l28.3,0l0,4c5.8-2.7,13.3-5,22.1-5c8.4,0,16.8,2.1,25,6.3
						c6.2,3.2,12.6,4.8,19,4.8c15.4,0,26.6-9.2,26.7-9.3l5.5-4.6l4.8,5.5l15.5,17.8l-6.7,6.2c-0.1,0.1-9.6,9.2-19,28.6
						c-8.7,17.9-19,48.5-19,92.5v9L69.6,337.6z"/>
				</g>
			</g>
			<g>
				<g>
					<path fill="#414042" d="M155.4,357.8H58.5c-2.5,0-4.9-1.1-6.6-2.9c-1.7-1.9-2.5-4.4-2.3-6.9l2.2-22.5
						c0.3-2.8,2.7-25.1,13.2-51.8H33.2c-4.9,0-8.9-4-8.9-8.9v-94.3c0-4.9,4-8.9,8.9-8.9h48.2c0.2,0,0.4,0,0.5,0
						c15-2.6,30.4-0.1,44.8,7.3c3.6,1.8,7.3,2.8,10.9,2.8c8,0,14.5-4.6,15.3-5.2l12.1-10.2c3.7-3.1,9.2-2.7,12.4,0.9l10.9,12.4
						l23.2,26.7c3.2,3.6,2.9,9.1-0.7,12.4L196,222.6c-0.9,1-7.8,8.4-14.9,22.9c-7.7,15.9-16.9,43.2-16.9,83.2v20.3
						C164.3,353.8,160.3,357.8,155.4,357.8z M68.3,340h78.1v-11.3c0-43.3,10.2-73.4,18.7-91c8.5-17.7,17.4-26.8,18.4-27.8
						c0.1-0.1,0.2-0.2,0.2-0.2l8.7-8.1l-22.6-26l-5.6,4.7c-0.6,0.5-11.6,9.2-26.6,9.2c-6.5,0-12.9-1.6-19-4.7
						c-11.6-5.9-23.7-7.7-35.4-5.2c-1.3,0.3-2.7,0.2-4-0.1H42.1v76.5h31.1v-11c0-2.4,1-4.7,2.7-6.4c6.3-6.1,12.8-8,19.4-5.4
						c2.5,1,4.5,3.1,5.3,5.7c0.8,2.6,0.4,5.4-1.2,7.7c-3.3,4.8-6.5,10-9.4,15.4c-0.6,1.2-1.5,2.2-2.5,2.9c0,1.3-0.3,2.6-0.9,3.8
						c-14.1,29.8-17,57.5-17.1,58.6L68.3,340z"/>
				</g>
			</g>
			<g>
				<g>
					<path fill="#D04527" d="M81.3,325.8c2.2-14.5,13.8-75,61-102.2l-2.2-5c-1,0.6-10.5,5.8-22.6,5.8h0c-5.9,0-11.5-1.3-16.7-3.8
						c-3.7-1.8-7.4-2.7-11.2-2.7c-9.2,0-16.6,5.4-21.1,10c-3.6,3.6-5.9,8.5-6.5,13.9h-8.5v-48.2h7.6V207l4.1-3.8
						c0.1-0.1,11.5-10.6,28.4-10.6c7,0,13.9,1.8,20.8,5.3c7.5,3.8,15.3,5.8,23.3,5.8c15.3,0,26.8-7.1,31.1-10.2l6.1,7.1
						c-8.3,9-39,47.4-39.7,125.3H81.3z"/>
				</g>
			</g>
		</g>
		<g>
			<g>
				<path fill="#414042" d="M78.6,273.7c-1.3,0-2.7-0.3-4-1c-4.4-2.2-6.2-7.6-4-12l3.5-7.1c2.2-4.4,7.6-6.2,12-4
					c4.4,2.2,6.2,7.6,4,12l-3.5,7.1C85,271.9,81.9,273.7,78.6,273.7z"/>
			</g>
		</g>
	</g>
	<g>
		<g>
			<g>
				<path fill="#D04527" d="M181.7,390.1c0,0,14-143.2,118.9-203.6c0,0-39.2,23.1-78.3,4c-24.5-11.9-44.5,1.3-56.2,13
					c-7,7-11,17-11,27.6v0h-25.2V129.2h23.8v19.4c0,0,42-39.4,97.9-10.8s101.5-10.4,101.5-10.4l17.8,20.5c0,0-77.3,72-77.3,242.2
					H181.7z"/>
			</g>
		</g>
		<g>
			<g>
				<path fill="#E6E7E8" d="M165,407l1.8-18.8c0.5-5.1,10.9-103.5,74.7-174.3c-8.8-1.3-17.2-4-25.2-7.9c-4.5-2.2-9-3.3-13.4-3.3
					c-11.3,0-20.9,7.3-27.1,13.4c-3.7,3.7-5.9,9.1-5.9,14.8v16.9h-55V112.2h53.6v7.6c11-5.1,25.2-9.4,41.8-9.4
					c15.9,0,31.9,4,47.3,11.9c11.7,6,23.8,9,36,9c29.2,0,50.2-17.4,50.4-17.5l10.4-8.7l9.1,10.4l29.3,33.7l-12.6,11.8
					c-0.1,0.1-18.1,17.4-35.9,54.1c-16.4,33.9-36,91.7-36,175V407H165z"/>
			</g>
		</g>
		<g>
			<g>
				<path fill="#414042" d="M308.5,415.9H165c-2.5,0-4.9-1.1-6.6-2.9c-1.7-1.9-2.5-4.4-2.3-6.9l1.8-18.8c0.4-4.1,10-96.2,67.4-168.1
					c-4.4-1.4-8.7-3.1-12.9-5.2c-3.3-1.6-6.5-2.4-9.5-2.4c-8.2,0-15.8,5.9-20.8,10.8c-2,2-3.3,5.2-3.3,8.5v16.9c0,4.9-4,8.9-8.9,8.9
					h-55c-4.9,0-8.9-4-8.9-8.9V112.2c0-4.9,4-8.9,8.9-8.9h53.6c3.1,0,5.8,1.6,7.4,3.9c11.3-3.8,22.8-5.8,34.4-5.8
					c17.4,0,34.7,4.3,51.4,12.9c10.4,5.3,21.1,8,31.9,8c25.6,0,44.6-15.3,44.8-15.5l10.3-8.7c3.7-3.1,9.2-2.7,12.4,0.9l9.1,10.4
					l29.3,33.8c3.1,3.6,2.9,9.1-0.7,12.4l-12.6,11.8c-0.1,0.1-17.2,16.8-33.9,51.5c-16,33-35.1,89.6-35.1,171.1V407
					C317.4,411.9,313.4,415.9,308.5,415.9z M174.9,398.1h124.7v-8c0-85,20-144.2,36.8-178.9c18.6-38.4,37.6-56.5,37.8-56.7l6.4-5.9
					l-27-31l-3.7,3.1c-1,0.8-23.9,19.6-56.2,19.6c-13.6,0-27.1-3.4-40-10c-26.8-13.7-55.1-14.5-81.3-2.3c-2.8,1.3-6,1.1-8.6-0.6
					c-2.2-1.4-3.6-3.6-4-6.2h-35.8V239h37.1v-8c0-8.1,3.1-15.8,8.5-21.2c7.3-7.3,19.1-16,33.4-16c5.8,0,11.6,1.4,17.3,4.2
					c7.1,3.5,14.8,5.9,22.7,7.1c3.2,0.5,5.9,2.7,7,5.8s0.4,6.5-1.8,9c-62,68.8-72.1,165.1-72.5,169.2L174.9,398.1z"/>
			</g>
		</g>
		<g>
			<g>
				<path fill="#D04527" d="M187.5,384.4c4.2-27.9,26.5-141.6,115.2-192.8l-4.5-10.1c-2,1.1-19.7,10.9-42.6,10.9
					c-11.2,0-21.8-2.4-31.4-7.1c-7-3.4-14.1-5.1-21.2-5.1c-17.4,0-31.5,10.4-40.2,19c-6.8,6.8-11.1,16.1-12.3,26.2h-15.6v-90.5h13.8
					v25.7l8.1-7.6c0.2-0.2,21.8-19.9,53.6-19.9c13.1,0,26.3,3.3,39.2,9.9c14.2,7.3,29.1,11,44.1,11c28.7,0,50.4-13.3,58.7-19.3
					l11.3,13c-6.8,7.5-21.3,25.2-35.8,54.8c-17.5,35.7-38.4,95.9-39.3,182.1H187.5z"/>
			</g>
		</g>
	</g>
	<g>
		<g>
			<g>
				<g>
					<path fill="#E6E7E8" d="M332.5,348.9l2.2-22.5c0.2-1.7,3.2-30.6,17.9-61.6h-45.4v-94.3h48.2v0.3c4-0.8,8.1-1.3,12.2-1.3
						c9.8,0,19.6,2.5,29.1,7.3c4.9,2.5,9.9,3.8,14.9,3.8c11.9,0,20.8-7.1,20.8-7.1l12.3-10.3l10.9,12.4l23.2,26.7l-15,14
						c-0.6,0.6-8.7,8.9-16.7,25.4c-8.1,16.7-17.8,45.4-17.8,87.1v20.3H332.5z M356.1,257.8c2.9-5.5,6.2-11,9.9-16.3
						c-0.9-0.3-1.7-0.5-2.4-0.5c-2.9,0-5.8,2.4-7.5,4V257.8z"/>
				</g>
			</g>
			<g>
				<g>
					<path fill="#D04527" d="M352.4,328.6c0,0,7.4-75.7,62.8-107.6c0,0-20.7,12.2-41.4,2.1c-12.9-6.3-23.5,0.7-29.7,6.8
						c-3.7,3.7-5.8,9-5.8,14.6l0,0H325l0-53.8h12.6V201c0,0,22.2-20.9,51.8-5.7c29.6,15.1,53.6-5.5,53.6-5.5l9.4,10.8
						c0,0-40.9,38.1-40.9,128L352.4,328.6z"/>
				</g>
			</g>
			<g>
				<g>
					<path fill="#E6E7E8" d="M343.6,337.6l1-9.9c0.3-2.7,5.8-54.7,39.5-92.1c-4.6-0.7-9.1-2.1-13.3-4.2c-2.4-1.2-4.8-1.8-7.1-1.8
						c-6,0-11.1,3.9-14.3,7.1c-2,2-3.1,4.8-3.1,7.8v9l-29.1,0l0-71.7l28.3,0v4c5.8-2.7,13.3-5,22.1-5c8.4,0,16.8,2.1,25,6.3
						c6.2,3.2,12.6,4.8,19,4.8c15.4,0,26.6-9.2,26.7-9.3l5.5-4.6l4.8,5.5l15.5,17.8l-6.7,6.2c-0.1,0.1-9.6,9.2-19,28.6
						c-8.7,17.9-19,48.5-19,92.5v9L343.6,337.6z"/>
				</g>
			</g>
			<g>
				<g>
					<path fill="#414042" d="M429.3,357.8h-96.9c-2.5,0-4.9-1.1-6.6-2.9c-1.7-1.9-2.5-4.4-2.3-6.9l2.2-22.5
						c0.3-2.8,2.7-25.2,13.2-51.8h-31.8c-4.9,0-8.9-4-8.9-8.9v-94.3c0-4.9,4-8.9,8.9-8.9h48.2c0.2,0,0.4,0,0.5,0
						c15-2.6,30.4-0.1,44.8,7.3c3.6,1.8,7.3,2.8,10.9,2.8c8,0,14.5-4.6,15.3-5.2l12.1-10.2c3.7-3.1,9.2-2.7,12.4,0.9l10.9,12.4
						l23.2,26.7c3.2,3.6,2.9,9.1-0.7,12.4L470,222.5c-0.9,0.9-7.9,8.5-14.9,22.9c-7.7,15.9-16.9,43.2-16.9,83.2v20.3
						C438.2,353.8,434.2,357.8,429.3,357.8z M342.3,340h78.1v-11.3c0-43.3,10.2-73.4,18.7-91c8.5-17.7,17.4-26.8,18.4-27.8
						c0.1-0.1,0.2-0.2,0.2-0.2l8.7-8.1l-22.6-26l-5.6,4.7c-0.6,0.5-11.6,9.2-26.6,9.2c-6.5,0-12.9-1.6-19-4.7
						c-11.6-5.9-23.7-7.7-35.4-5.2c-1.3,0.3-2.7,0.2-4-0.1h-37.1v76.5h31.1v-11c0-2.4,1-4.7,2.7-6.4c6.3-6.1,12.8-8,19.4-5.4
						c2.5,1,4.5,3.1,5.3,5.7c0.8,2.6,0.4,5.4-1.2,7.7c-3.3,4.8-6.5,10-9.4,15.4c-0.6,1.2-1.5,2.2-2.5,2.9c0,1.3-0.3,2.6-0.9,3.8
						c-14.1,29.7-17,57.5-17.1,58.6L342.3,340z"/>
				</g>
			</g>
			<g>
				<g>
					<path fill="#D04527" d="M355.2,325.8c2.2-14.5,13.8-75,61-102.2l-2.2-5c-1,0.6-10.5,5.8-22.6,5.8h0c-5.9,0-11.5-1.3-16.7-3.8
						c-3.7-1.8-7.4-2.7-11.2-2.7c-9.2,0-16.6,5.4-21.1,10c-3.6,3.6-5.9,8.5-6.5,13.9h-8.5v-48.2h7.6V207l4.1-3.8
						c0.1-0.1,11.5-10.6,28.4-10.6c7,0,13.9,1.8,20.8,5.3c7.5,3.8,15.3,5.8,23.3,5.8c15.3,0,26.8-7.1,31.1-10.2l6.1,7.1
						c-8.3,9-39,47.4-39.7,125.3H355.2z"/>
				</g>
			</g>
		</g>
		<g>
			<g>
				<path fill="#414042" d="M352.6,273.7c-1.3,0-2.7-0.3-4-1c-4.4-2.2-6.2-7.6-4-12l3.5-7.1c2.2-4.4,7.6-6.2,12-4
					c4.4,2.2,6.2,7.6,4,12l-3.5,7.1C359,271.9,355.8,273.7,352.6,273.7z"/>
			</g>
		</g>
	</g>
</g>
</svg>
