<?xml version="1.0" encoding="utf-8"?>
<!-- Generator: Adobe Illustrator 18.0.0, SVG Export Plug-In . SVG Version: 6.00 Build 0)  -->
<!DOCTYPE svg PUBLIC "-//W3C//DTD SVG 1.1//EN" "http://www.w3.org/Graphics/SVG/1.1/DTD/svg11.dtd">
<svg version="1.1" id="Layer_1" xmlns="http://www.w3.org/2000/svg" xmlns:xlink="http://www.w3.org/1999/xlink" x="0px" y="0px"
	 viewBox="0 0 512 512" enable-background="new 0 0 512 512" xml:space="preserve">
<g>
	<g>
		<g>
			<path fill="#E6E7E8" d="M349.5,428.4H162.5c-20.4,0-36.9-16.5-36.9-36.9V120.6c0-20.4,16.5-36.9,36.9-36.9h187.1
				c20.4,0,36.9,16.5,36.9,36.9v270.9C386.5,411.8,369.9,428.4,349.5,428.4z"/>
		</g>
	</g>
	<g>
		<g>
			<path fill="#414042" d="M349.5,437.3H162.5c-25.3,0-45.8-20.6-45.8-45.8V120.6c0-25.3,20.6-45.8,45.8-45.8h187.1
				c25.3,0,45.8,20.6,45.8,45.8v270.9C395.4,416.7,374.8,437.3,349.5,437.3z M162.5,92.6c-15.4,0-28,12.6-28,28v270.9
				c0,15.4,12.6,28,28,28h187.1c15.4,0,28-12.6,28-28V120.6c0-15.4-12.6-28-28-28H162.5z"/>
		</g>
	</g>
	<g>
		<g>
			<path fill="#414042" d="M323.4,265.8L323.4,265.8c0,0-36.1-34.6-56.7-69.6c-4.8-8.1-16.6-8.1-21.4,0
				c-20.7,35-56.7,69.6-56.7,69.6l0,0c-12.6,11.7-17.7,31.4-7.2,51.1c3,5.5,7.6,10.1,13.1,13c23.7,12.6,47.4,2.4,57-16.2
				c-1.2,12.7-4.6,33.8-14.5,49.5c-3,4.8,0.3,11.1,6,11.1h13h13c5.7,0,9-6.3,6-11.1c-9.9-15.7-13.3-36.8-14.5-49.5
				c9.6,18.6,33.3,28.7,57,16.2c5.5-2.9,10.1-7.5,13.1-13C341.2,297.2,336,277.5,323.4,265.8z"/>
		</g>
	</g>
	<g>
		<g>
			<path fill="#414042" d="M200.3,183.4v-11.5h7.1l-7.5-19.5h-18.6l-7.2,19.5h8.5v11.5h-29.1v-11.5h8.3l7.2-19.5h-5.4V141h9.7
				l12.1-32.5l9.9-0.1l12.5,32.6H218v11.5h-5.7l7.5,19.5h9.7v11.5H200.3z M195.6,141l-5.1-13.2l-4.9,13.2H195.6z"/>
		</g>
	</g>
	<g>
		<g>
			<path fill="#414042" d="M218.5,173.6l-8.8-22.9h6.5v-8h-9.6l-12.5-32.6l-7.5,0l-12.1,32.5h-9.2v8h6.2l-8.5,22.9h-7.8v8h25.6v-8
				h-9.3l8.5-22.9h21l8.8,22.9H202v8h25.6v-8H218.5z M183.1,142.7l7.3-19.8l7.6,19.8H183.1z"/>
		</g>
	</g>
</g>
</svg>
