<?xml version="1.0" encoding="utf-8"?>
<!-- Generator: Adobe Illustrator 18.0.0, SVG Export Plug-In . SVG Version: 6.00 Build 0)  -->
<!DOCTYPE svg PUBLIC "-//W3C//DTD SVG 1.1//EN" "http://www.w3.org/Graphics/SVG/1.1/DTD/svg11.dtd">
<svg version="1.1" id="Layer_1" xmlns="http://www.w3.org/2000/svg" xmlns:xlink="http://www.w3.org/1999/xlink" x="0px" y="0px"
	 viewBox="0 0 512 512" enable-background="new 0 0 512 512" xml:space="preserve">
<g>
	<g>
		<g>
			<g>
				<path fill="#E6E7E8" d="M272,354.6l-125.2,0.1c-17.5,0-31.7-14.2-31.7-31.7L115,137.1c0-17.5,14.2-31.7,31.7-31.7l125.2-0.1
					c17.5,0,31.7,14.2,31.7,31.7l0.1,185.8C303.8,340.4,289.6,354.6,272,354.6z"/>
			</g>
		</g>
		<g>
			<g>
				<path fill="#414042" d="M146.7,362.6C146.7,362.6,146.7,362.6,146.7,362.6c-21.7,0-39.4-17.7-39.4-39.4l-0.1-185.8
					c0-10.5,4.1-20.4,11.5-27.9c7.4-7.4,17.3-11.5,27.8-11.5L271.8,98c21.7,0,39.4,17.7,39.4,39.4l0.1,185.8
					c0,10.5-4.1,20.4-11.5,27.9c-7.4,7.4-17.3,11.5-27.8,11.5L146.7,362.6z M271.8,113.4l-125.2,0.1c-6.4,0-12.5,2.5-17,7.1
					c-4.5,4.5-7,10.6-7,17l0.1,185.8c0,13.3,10.8,24,24.1,24v7.7l0-7.7l125.2-0.1c6.4,0,12.5-2.5,17-7.1c4.5-4.5,7-10.6,7-17
					l-0.1-185.8C295.9,124.1,285.1,113.4,271.8,113.4z"/>
			</g>
		</g>
		<g>
			<g>
				<path fill="#D04527" d="M263,239.2l-45.3-52.6c-4.5-5.2-12.6-5.2-17,0l-45.2,52.6c-3.6,4.2-3.6,10.4,0,14.7l45.3,52.6
					c4.5,5.2,12.6,5.2,17,0l45.2-52.6C266.7,249.6,266.7,243.4,263,239.2z"/>
			</g>
		</g>
		<g>
			<g>
				<g>
					<path fill="#E6E7E8" d="M307.1,368.6l-117.5-43.3c-16.4-6.1-24.8-24.3-18.8-40.7l64.3-174.3c6.1-16.4,24.3-24.8,40.7-18.8
						l117.5,43.3c16.4,6.1,24.8,24.3,18.8,40.7l-64.3,174.3C341.8,366.2,323.6,374.6,307.1,368.6z"/>
				</g>
			</g>
			<g>
				<g>
					<path fill="#414042" d="M317.9,378.5c-4.6,0-9.2-0.8-13.6-2.4l-117.5-43.3c-20.4-7.5-30.8-30.2-23.3-50.6l64.3-174.3
						c5.7-15.4,20.5-25.8,37-25.8c4.6,0,9.2,0.8,13.6,2.4l117.5,43.3c9.9,3.6,17.7,10.9,22.1,20.5s4.8,20.3,1.2,30.1l-64.3,174.3
						C349.2,368.1,334.3,378.5,317.9,378.5z M264.7,97.4c-10,0-19.1,6.3-22.6,15.7l-64.3,174.3c-4.6,12.4,1.8,26.3,14.2,30.9
						l117.5,43.3c2.7,1,5.5,1.5,8.3,1.5c10,0,19.1-6.3,22.6-15.7l64.3-174.3c2.2-6,2-12.6-0.7-18.4c-2.7-5.8-7.5-10.3-13.5-12.5
						L273,98.9C270.3,97.9,267.5,97.4,264.7,97.4z"/>
				</g>
			</g>
		</g>
		<g>
			<g>
				<g>
					<path fill="#D04527" d="M143.4,182.7l14.9-18.4l-2.2-0.3c-5-0.6-9.1-2.3-12.3-5c-3.8-3.2-5.6-7.4-5.6-12.9
						c0-6.7,1.9-11.9,6-15.8c2-1.9,4.2-3.4,6.8-4.3c2.3-0.9,4.9-1.3,7.8-1.3c5.8,0,10.5,1.8,14.3,5.6c4,4,5.9,9.1,5.9,15.6
						c0,3.6-0.8,7.2-2.4,10.6c-1.5,3-4.1,6.9-7.9,11.5l-11.9,14.8L143.4,182.7z M155.6,136.6c-1.2,0.4-2.3,1.2-3.3,2.1
						c-1.8,1.8-2.6,3.9-2.6,6.3c0,2.4,0.9,4.5,2.7,6.3c1.8,1.7,3.9,2.6,6.3,2.6c1.1,0,2.1-0.2,3-0.5c1.2-0.4,2.3-1.2,3.3-2.1
						c1.8-1.8,2.6-3.9,2.6-6.3c0-2.4-0.9-4.5-2.7-6.2c-1.8-1.7-3.9-2.6-6.3-2.6C157.5,136,156.5,136.2,155.6,136.6z"/>
				</g>
			</g>
		</g>
		<g>
			<g>
				<path fill="#414042" d="M323.5,235.6c-0.1,0-0.2-0.1-0.3-0.1c2.6-3,4.7-6.5,6.1-10.5c6.1-17.2-3-36-20.1-42.1
					c-17.2-6.1-36,3-42.1,20.1c-1.4,4-2,8-1.8,11.9c-0.1,0-0.2-0.1-0.3-0.1c-17.2-6.1-36,3-42.1,20.1c-6.1,17.2,3,36,20.1,42.1
					c10.8,3.8,22.2,1.6,30.7-4.8c-4.3,9-11.9,22.2-22.4,30.5c-3.5,2.7-2.6,8.2,1.5,9.6l9.5,3.4l9.5,3.4c4.1,1.5,8.2-2.2,7.2-6.5
					c-3-13.1-0.6-28.1,1.6-37.8c2.6,10.3,10.1,19.2,20.9,23c17.2,6.1,36-3,42.1-20.1C349.7,260.5,340.7,241.7,323.5,235.6z"/>
			</g>
		</g>
		<g>
			<g>
				<polygon fill="#414042" points="298.4,130.4 302.7,132 305.6,123.9 285.9,116.7 282.9,124.8 286.3,126 264.2,134.9 269.6,120 
					276.2,122.4 279.1,114.3 259.3,107.1 256.4,115.2 261.5,117.1 248.9,151.9 243.7,150.1 240.8,158.1 260.6,165.3 263.5,157.2 
					257,154.9 260.3,145.7 267.5,142.8 274.3,161.2 270.3,159.7 267.3,167.8 287.1,174.9 290,166.9 284.9,165 275.5,139.6 				"/>
			</g>
		</g>
	</g>
	<g>
		<g>
			<g>
				<rect x="25.1" y="376.5" fill="#E6E7E8" width="10.8" height="14.1"/>
			</g>
		</g>
		<g>
			<g>
				<rect x="171.1" y="376.5" fill="#E6E7E8" width="10.8" height="14.1"/>
			</g>
		</g>
		<g>
			<g>
				<rect x="223.9" y="376.5" fill="#E6E7E8" width="10.8" height="14.1"/>
			</g>
		</g>
		<g>
			<g>
				<g>
					<g>
						<path fill="#E6E7E8" d="M476.3,387.4l-6.8,0l0-2.1l17.4,0l0-34.4l-64.6,0l0,14l-5.6-13.5l-22.7,0l-15.5,36.4l-8.6,0
							c2.7-3.8,4.1-8.4,4.1-13.6c0-5.6-1.7-10.6-5.1-14.8c-4.1-5.2-11.9-8.2-20.7-8.2l-8.6,0v0l-30.5,0l0,26.3l5,0l0,10.4l-3,0
							L296,351.4l-22.7,0l-12.3,28.9l0-10c0-11.2-9.7-20.4-21.7-20.4l-20.1,0c-5.6,0-10.9,2-14.9,5.6c-0.8,0.7-1.4,1.4-2.1,2.2
							c-4-4.7-10.1-7.8-17-7.8l-20.1,0c-5.6,0-10.9,2-14.9,5.6c-4.3,3.8-6.8,9.2-6.8,14.8l0,11.5l-12.6-30.3l-22.7,0l-13.2,31.2
							c-0.3-0.6-0.6-1.2-1-1.8c-0.5-0.8-1-1.5-1.6-2.2c0.5-1.8,0.7-3.8,0.7-5.9c0-12.9-8.4-21-21.9-21l-14.2,0v0l-31.8,0l0,27l5.7,0
							l0,8.8l-5.7,0l0,27l47.3,0c4,0,7.5-0.6,10.6-1.8l0,1.9l72.7,0l0-2.1c2.9,1.3,6,2.1,9.4,2.1h0l20.1,0c5.6,0,10.9-2,14.9-5.6
							c0.8-0.7,1.4-1.4,2.1-2.2c4,4.7,10.1,7.8,17,7.8h0l20.1,0c3.2,0,6.2-0.7,8.9-1.8l0,1.8h12.8l17.6,0l42.2,0h0h48h0h12.8h17.6
							h42.2h0h34.7L476.3,387.4z M174.2,384.9l0-5.3h1.9l0,5.3H174.2z M228.4,384.8l0-5.3h1.9l0,5.3H228.4z M430.8,385.3l8.9,0
							l0,2.1l-6.4,0l0,0.5l-1.4,0L430.8,385.3z"/>
					</g>
				</g>
				<g>
					<g>
						<path fill="#414042" d="M239.4,349.8c12,0,21.7,9.1,21.7,20.4l0,10l12.3-28.9l22.7,0l15.2,36.4l3,0l0-10.4l-5,0l0-26.3l30.5,0
							v0l8.6,0c8.8,0,16.6,3.1,20.7,8.3c3.4,4.2,5.1,9.2,5.1,14.8c0,5.2-1.4,9.8-4.1,13.6l8.6,0l15.5-36.4l22.7,0l5.6,13.5l0-14
							l64.6,0l0,34.4l-17.4,0l0,2.1l6.8,0l0,27.2h-34.7h0h-42.2h-17.6H369h0h-48l-42.2,0l-17.6,0h-12.8l0-1.8
							c-2.7,1.2-5.7,1.8-8.9,1.8l-20.1,0h0c-6.9,0-13-3-17-7.8c-0.6,0.8-1.3,1.5-2.1,2.2c-4,3.6-9.4,5.6-14.9,5.6l-20.1,0h0
							c-3.4,0-6.6-0.8-9.4-2.1l0,2.1l-72.7,0l0-1.9c-3.1,1.2-6.7,1.8-10.6,1.8l-47.3,0l0-27l5.7,0l0-8.8l-5.7,0l0-27l31.8,0v0
							l14.2,0c13.5,0,21.9,8,21.9,21c0,2.1-0.2,4.1-0.7,5.9c0.6,0.7,1.1,1.4,1.6,2.2c0.4,0.6,0.7,1.2,1,1.8l13.2-31.2l22.7,0
							l12.6,30.3l0-11.5c0-5.6,2.5-11,6.8-14.8c4-3.6,9.4-5.6,14.9-5.6l20.1,0c6.9,0,13,3,17,7.8c0.6-0.8,1.3-1.5,2.1-2.2
							c4-3.6,9.4-5.6,14.9-5.6L239.4,349.8 M228.4,384.8h1.9l0-5.3h-1.9L228.4,384.8 M174.2,384.9h1.9l0-5.3h-1.9L174.2,384.9
							 M431.9,387.9l1.4,0l0-0.5l6.4,0l0-2.1l-8.9,0L431.9,387.9 M320.9,414.5L320.9,414.5 M239.4,334.5
							C239.4,334.5,239.3,334.5,239.4,334.5l-20.1,0c-6,0-11.8,1.4-17,4c-5.2-2.6-11-4-17-4l-20.1,0c-8.2,0-16,2.6-22.4,7.3
							c-2.9-3.5-7.2-5.7-11.9-5.7c0,0,0,0,0,0l-22.7,0c-5.5,0-10.6,3-13.3,7.7c-6.3-4.7-14.4-7.4-23.7-7.4l-13.6,0
							c-0.2,0-0.4,0-0.6,0c0,0,0,0,0,0l-31.8,0c-4.1,0-8,1.6-10.8,4.5s-4.5,6.8-4.5,10.8l0,27c0,1.5,0.2,3,0.6,4.4
							c-0.4,1.4-0.6,2.9-0.6,4.4l0,27c0,8.5,6.9,15.3,15.3,15.3c0,0,0,0,0,0l47.3,0c2.3,0,4.5-0.1,6.6-0.4c1.3,0.3,2.6,0.5,4,0.5
							c0,0,0,0,0,0l72.7,0c1.2,0,2.5-0.2,3.7-0.4c1.9,0.3,3.8,0.4,5.8,0.4l20.1,0c6,0,11.8-1.4,17-4c5.2,2.6,11,4,17,4l20.1,0
							c1.8,0,3.7-0.1,5.5-0.4c1.1,0.3,2.3,0.4,3.4,0.4h12.8l17.6,0l42.2,0h48h12.8h17.6h42.2h34.7c4.1,0,8-1.6,10.8-4.5
							c2.9-2.9,4.5-6.8,4.5-10.8l0-14.7c6.1-2,10.6-7.8,10.6-14.6l0-34.4c0-8.5-6.9-15.3-15.3-15.3c0,0,0,0,0,0l-64.6,0
							c-1.4,0-2.8,0.2-4.1,0.6c-0.5,0-1-0.1-1.5-0.1c0,0,0,0,0,0l-22.7,0c-6.1,0-11.7,3.7-14.1,9.3l-0.9,2.2
							c-7.2-7.5-18.2-11.8-30.7-11.8l-7.7,0c-0.3,0-0.6,0-0.9,0c0,0,0,0,0,0l-30.5,0c-2.5,0-4.8,0.6-6.8,1.6
							c-1.9-0.9-4.1-1.4-6.3-1.4c0,0,0,0,0,0l-22.7,0c-4.6,0-8.9,2.1-11.8,5.6C255.3,337.2,247.7,334.5,239.4,334.5L239.4,334.5z"/>
					</g>
				</g>
				<g>
					<g>
						<g>
							<path fill="#D04527" d="M78.5,381.8c1.5-0.9,2.7-2,3.4-3.3c0.9-1.5,1.3-3.4,1.3-5.7c0-7.6-4.1-11.3-12.2-11.3l-23.8,0l0,0
								l-12.5,0l0,7.7l5.7,0l0,28.1l-5.7,0l0,7.7l5.7,0l6.7,0l25.1,0c5.5,0,9.5-1.5,12.2-4.4c1.8-2,2.8-4.7,2.8-7.9
								c0-2.5-0.6-4.7-1.7-6.6C84.3,383.9,82,382.5,78.5,381.8z M51.8,370l15.9,0c1.1,0,1.9,0.1,2.5,0.3c1.8,0.6,2.7,1.9,2.7,3.9
								c0,1.1-0.3,2.1-1,2.8c-0.8,1-2.2,1.4-4.2,1.4l-15.9,0L51.8,370z M74.1,395.2c-1.1,0.7-3.2,1-6,1l-16.3,0l0-9.2l16.1,0
								c2,0,3.4,0.1,4.3,0.2c2.6,0.4,3.9,1.9,3.9,4.5C76,393.3,75.4,394.5,74.1,395.2z"/>
						</g>
					</g>
					<g>
						<g>
							<path fill="#D04527" d="M124.3,361.1l-9.9,0l-15.5,36.5l-6.3,0l0,1.4l0,5.9l3.2,0l11.4,0l5.7,0l2.6,0l0-7.3l-5,0l1.4-3
								l15.1,0l1.1,3l-5.2,0l0,7.3l2,0l5.9,0l11.5,0l2.8,0l0.6,0l0-7.3l-6.5,0L124.3,361.1z M114,388.6l5.3-14l5.2,14L114,388.6z"/>
						</g>
					</g>
					<g>
						<g>
							<path fill="#D04527" d="M289.6,361.1l-9.9,0l-15.5,36.5l-6.3,0l0,1.4l0,5.9l3.2,0l11.4,0l5.7,0l2.6,0l0-7.3l-5,0l1.4-3
								l15.1,0l1.1,3l-5.2,0l0,7.3l2,0l5.9,0l11.5,0l2.8,0l0.6,0l0-7.3l-6.5,0L289.6,361.1z M279.3,388.6l5.3-14l5.2,14L279.3,388.6
								z"/>
						</g>
					</g>
					<g>
						<g>
							<path fill="#D04527" d="M185.2,359.5l-20.1,0c-6.6,0-12.1,4.8-12,10.8l0,23.9c0,5.9,5.4,10.7,12.1,10.7l20.1,0
								c6.6,0,12-4.8,12-10.8l0-5.2l-11.5,0l0,5.2c0,0.1-0.2,0.3-0.5,0.3l-20.1,0c-0.3,0-0.5-0.2-0.5-0.3l0-23.9
								c0-0.1,0.2-0.3,0.5-0.3l20.1,0c0.3,0,0.5,0.2,0.5,0.3l0,5.5l11.5,0l0-5.5C197.3,364.3,191.8,359.5,185.2,359.5z"/>
						</g>
					</g>
					<g>
						<g>
							<path fill="#D04527" d="M239.4,359.5l-20.1,0c-6.6,0-12.1,4.8-12,10.8l0,23.9c0,5.9,5.4,10.7,12.1,10.7l20.1,0
								c6.6,0,12-4.8,12-10.8l0-5.2l-11.5,0l0,5.2c0,0.1-0.2,0.3-0.5,0.3l-20.1,0c-0.3,0-0.5-0.2-0.5-0.3l0-23.9
								c0-0.1,0.2-0.3,0.5-0.3l20.1,0c0.3,0,0.5,0.2,0.5,0.3l0,5.5l11.5,0l0-5.5C251.4,364.3,246,359.5,239.4,359.5z"/>
						</g>
					</g>
					<g>
						<g>
							<path fill="#D04527" d="M354.9,386.6c2.6-0.6,4.6-1.6,6.1-3.1c2.3-2.3,3.5-5.4,3.5-9.2c0-3.4-1-6.3-3-8.8
								c-2.5-3.1-8-4.6-13.2-4.6l-18.3,0v0l-11.2,0l0,7l5,0l0,29.7l-5,0l0,7h5h11.4h3.7l0-7l-3.7,0l0-9.8h8L351,399l0,5.5h3.6h14.1
								h2.4l0-7l-7.8,0L354.9,386.6z M345.8,380.3l-10.6,0l0-10.9l10.6,0c2.4,0,4.1,0.5,5.2,1.5c1.1,1.1,1.7,2.4,1.7,3.9
								c0,1.6-0.6,2.9-1.7,4C349.9,379.8,348.2,380.3,345.8,380.3z"/>
						</g>
					</g>
				</g>
				<g>
					<g>
						<path fill="#D04527" d="M78.5,381.8c1.5-0.9,2.7-2,3.4-3.3c0.9-1.5,1.3-3.4,1.3-5.7c0-7.6-4.1-11.3-12.2-11.3l-23.8,0l0,0
							l-12.5,0l0,7.7l5.7,0l0,28.1l-5.7,0l0,7.7l5.7,0l6.7,0l25.1,0c5.5,0,9.5-1.5,12.2-4.4c1.8-2,2.8-4.7,2.8-7.9
							c0-2.5-0.6-4.7-1.7-6.6C84.3,383.9,82,382.5,78.5,381.8z M51.8,370l15.9,0c1.1,0,1.9,0.1,2.5,0.3c1.8,0.6,2.7,1.9,2.7,3.9
							c0,1.1-0.3,2.1-1,2.8c-0.8,1-2.2,1.4-4.2,1.4l-15.9,0L51.8,370z M74.1,395.2c-1.1,0.7-3.2,1-6,1l-16.3,0l0-9.2l16.1,0
							c2,0,3.4,0.1,4.3,0.2c2.6,0.4,3.9,1.9,3.9,4.5C76,393.3,75.4,394.5,74.1,395.2z"/>
					</g>
				</g>
				<g>
					<g>
						<path fill="#D04527" d="M124.3,361.1l-9.9,0l-15.5,36.5l-6.3,0l0,1.4l0,5.9l3.2,0l11.4,0l5.7,0l2.6,0l0-7.3l-5,0l1.4-3l15.1,0
							l1.1,3l-5.2,0l0,7.3l2,0l5.9,0l11.5,0l2.8,0l0.6,0l0-7.3l-6.5,0L124.3,361.1z M114,388.6l5.3-14l5.2,14L114,388.6z"/>
					</g>
				</g>
				<g>
					<g>
						<path fill="#D04527" d="M289.6,361.1l-9.9,0l-15.5,36.5l-6.3,0l0,1.4l0,5.9l3.2,0l11.4,0l5.7,0l2.6,0l0-7.3l-5,0l1.4-3l15.1,0
							l1.1,3l-5.2,0l0,7.3l2,0l5.9,0l11.5,0l2.8,0l0.6,0l0-7.3l-6.5,0L289.6,361.1z M279.3,388.6l5.3-14l5.2,14L279.3,388.6z"/>
					</g>
				</g>
				<g>
					<g>
						<path fill="#D04527" d="M410.3,361.1l-9.9,0l-15.5,36.5l-6.3,0l0,1.4l0,5.9l3.2,0l11.4,0l5.7,0l2.6,0l0-7.3l-5,0l1.4-3l15.1,0
							l1.1,3l-5.2,0l0,7.3l2,0l5.9,0l11.5,0l2.8,0l0.6,0l0-7.3l-6.5,0L410.3,361.1z M400,388.6l5.3-14l5.2,14L400,388.6z"/>
					</g>
				</g>
				<g>
					<g>
						<path fill="#D04527" d="M185.2,359.5l-20.1,0c-6.6,0-12.1,4.8-12,10.8l0,23.9c0,5.9,5.4,10.7,12.1,10.7l20.1,0
							c6.6,0,12-4.8,12-10.8l0-5.2l-11.5,0l0,5.2c0,0.1-0.2,0.3-0.5,0.3l-20.1,0c-0.3,0-0.5-0.2-0.5-0.3l0-23.9
							c0-0.1,0.2-0.3,0.5-0.3l20.1,0c0.3,0,0.5,0.2,0.5,0.3l0,5.5l11.5,0l0-5.5C197.3,364.3,191.8,359.5,185.2,359.5z"/>
					</g>
				</g>
				<g>
					<g>
						<path fill="#D04527" d="M239.4,359.5l-20.1,0c-6.6,0-12.1,4.8-12,10.8l0,23.9c0,5.9,5.4,10.7,12.1,10.7l20.1,0
							c6.6,0,12-4.8,12-10.8l0-5.2l-11.5,0l0,5.2c0,0.1-0.2,0.3-0.5,0.3l-20.1,0c-0.3,0-0.5-0.2-0.5-0.3l0-23.9
							c0-0.1,0.2-0.3,0.5-0.3l20.1,0c0.3,0,0.5,0.2,0.5,0.3l0,5.5l11.5,0l0-5.5C251.4,364.3,246,359.5,239.4,359.5z"/>
					</g>
				</g>
				<g>
					<g>
						<path fill="#D04527" d="M354.9,386.6c2.6-0.6,4.6-1.6,6.1-3.1c2.3-2.3,3.5-5.4,3.5-9.2c0-3.4-1-6.3-3-8.8
							c-2.5-3.1-8-4.6-13.2-4.6l-18.3,0v0l-11.2,0l0,7l5,0l0,29.7l-5,0l0,7h5h11.4h3.7l0-7l-3.7,0l0-9.8h8L351,399l0,5.5h3.6h14.1
							h2.4l0-7l-7.8,0L354.9,386.6z M345.8,380.3l-10.6,0l0-10.9l10.6,0c2.4,0,4.1,0.5,5.2,1.5c1.1,1.1,1.7,2.4,1.7,3.9
							c0,1.6-0.6,2.9-1.7,4C349.9,379.8,348.2,380.3,345.8,380.3z"/>
					</g>
				</g>
				<g>
					<g>
						<polygon fill="#D04527" points="432,360.6 432,375.7 442.5,375.7 442.5,371.1 449.3,371.1 449.3,397 443,397 443,404.6 
							466.7,404.6 466.7,397 459.9,397 459.9,371.1 466.7,371.1 466.7,375.6 477.3,375.6 477.3,360.6 						"/>
					</g>
				</g>
			</g>
			<g>
				<g>
					<rect x="429.5" y="380.4" fill="#E6E7E8" width="10.8" height="14.1"/>
				</g>
			</g>
		</g>
		<g>
			<g>
				<rect x="465.6" y="380.4" fill="#E6E7E8" width="10.8" height="14.1"/>
			</g>
		</g>
	</g>
</g>
</svg>
