<?xml version="1.0" encoding="utf-8"?>
<!-- Generator: Adobe Illustrator 18.0.0, SVG Export Plug-In . SVG Version: 6.00 Build 0)  -->
<!DOCTYPE svg PUBLIC "-//W3C//DTD SVG 1.1//EN" "http://www.w3.org/Graphics/SVG/1.1/DTD/svg11.dtd">
<svg version="1.1" id="Layer_1" xmlns="http://www.w3.org/2000/svg" xmlns:xlink="http://www.w3.org/1999/xlink" x="0px" y="0px"
	 viewBox="0 0 512 512" enable-background="new 0 0 512 512" xml:space="preserve">
<g>
	<g>
		<g>
			<path fill="#66B445" d="M427.3,394.4H161.9c-13.4,0-24.2-10.8-24.2-24.2V105.9c0-13.4,10.8-24.2,24.2-24.2h265.5
				c13.4,0,24.2,10.8,24.2,24.2v264.3C451.5,383.6,440.7,394.4,427.3,394.4z"/>
		</g>
	</g>
	<g>
		<g>
			<polygon fill="#61903E" points="167.3,82.7 202.9,394.4 238.6,82.7 			"/>
		</g>
	</g>
	<g>
		<g>
			<polygon fill="#D7E3D2" points="259.1,82.7 294.7,394.4 330.4,82.7 			"/>
		</g>
	</g>
	<g>
		<g>
			<polygon fill="#61903E" points="350.9,82.7 386.5,394.4 422.2,82.7 			"/>
		</g>
	</g>
	<g>
		<g>
			<path fill="#414042" d="M211.5,395.4h-17.1L158.7,83.7l8.6-9.6h71.3l8.6,9.6L211.5,395.4z M176.9,91.3l26,227.2l26-227.2H176.9z"
				/>
		</g>
	</g>
	<g>
		<g>
			<path fill="#414042" d="M286.2,395.4L250.5,83.7l8.6-9.6h71.3l8.6,9.6l-35.6,311.7H286.2z M268.7,91.3l26,227.2l26-227.2H268.7z"
				/>
		</g>
	</g>
	<g>
		<g>
			<path fill="#414042" d="M395.1,395.4H378L342.3,83.7l8.6-9.6h71.3l8.6,9.6L395.1,395.4z M360.6,91.3l26,227.2l26-227.2H360.6z"/>
		</g>
	</g>
	<g>
		<g>
			<path fill="#414042" d="M427.3,403H161.9c-18.1,0-32.8-14.7-32.8-32.8V105.9c0-18.1,14.7-32.8,32.8-32.8h265.5
				c18.1,0,32.8,14.7,32.8,32.8v264.3C460.2,388.3,445.4,403,427.3,403z M161.9,90.3c-8.6,0-15.6,7-15.6,15.6v264.3
				c0,8.6,7,15.6,15.6,15.6h265.5c8.6,0,15.6-7,15.6-15.6V105.9c0-8.6-7-15.6-15.6-15.6H161.9z"/>
		</g>
	</g>
	<g>
		<g>
			<g>
				<path fill="#D04527" d="M71.2,401.9l104.6,26.7c9,2.3,17.8-4.5,17.8-13.9v-106c0-6.5-4.4-12.2-10.8-13.9L78.3,268.1
					c-9-2.3-17.8,4.5-17.8,13.9v106C60.5,394.6,64.9,400.3,71.2,401.9z"/>
			</g>
		</g>
		<g>
			<g>
				<path fill="#D04527" d="M271.5,394.9l-60,29.5c-8.2,4-17.8-1.9-17.8-11.1v-108c0-4.7,2.7-9,6.9-11.1l60-29.5
					c8.2-4,17.8,1.9,17.8,11.1v108C278.4,388.5,275.8,392.8,271.5,394.9z"/>
			</g>
		</g>
		<g>
			<g>
				<path fill="#F15A22" d="M60.5,282v4.6L193.7,320v-11.4c0-6.5-4.4-12.2-10.8-13.9L78.3,268.1C69.3,265.8,60.5,272.7,60.5,282z"/>
			</g>
		</g>
		<g>
			<g>
				<path fill="#F15A22" d="M193.7,305.2V320l84.8-40.7v-3.6c0-9.2-9.6-15.1-17.8-11.1l-60,29.5
					C196.4,296.2,193.7,300.5,193.7,305.2z"/>
			</g>
		</g>
		<g>
			<g>
				<path fill="#F15A22" d="M261.7,251.6L155,224.6c-4.7-1.2-9.8-0.7-14.2,1.4L76.6,256c-5.4,2.5-4.7,10.5,1.1,12l108.6,27.7
					c4.7,1.2,9.7,0.7,14.1-1.5l62.5-30.7C268.3,260.9,267.4,253.1,261.7,251.6z"/>
			</g>
		</g>
		<g>
			<g>
				<path fill="#F15A22" d="M60.5,282v4.6L193.7,320v-11.4c0-6.5-4.4-12.2-10.8-13.9L78.3,268.1C69.3,265.8,60.5,272.7,60.5,282z"/>
			</g>
		</g>
		<g>
			<g>
				<path fill="#F15A22" d="M193.7,305.2V320l84.8-40.7v-3.6c0-9.2-9.6-15.1-17.8-11.1l-60,29.5
					C196.4,296.2,193.7,300.5,193.7,305.2z"/>
			</g>
		</g>
		<g>
			<g>
				<path fill="#414042" d="M206.1,434.3c-11.6,0-21-9.4-21-21V305.1c0-7.9,4.6-15.2,11.6-18.7l60.1-29.5c2.9-1.4,6-2.2,9.3-2.2
					c11.6,0,21,9.4,21,21v107.9c0,8-4.6,15.4-11.8,18.9l-60,29.5C212.4,433.5,209.3,434.3,206.1,434.3z M266,272
					c-0.6,0-1.1,0.1-1.7,0.4l-60.1,29.5c-1.2,0.6-2,1.9-2,3.2v108.1c0,2.3,1.9,3.8,3.7,3.8c0.6,0,1.1-0.1,1.6-0.4l60-29.5
					c1.3-0.6,2.2-2,2.2-3.5V275.8C269.8,273.4,267.9,272,266,272z"/>
			</g>
		</g>
		<g>
			<g>
				<path fill="#414042" d="M179.4,437.6L179.4,437.6c-1.9,0-3.8-0.2-5.7-0.7L69.1,410.2c-10.1-2.6-17.2-11.7-17.2-22.2V281.9
					c0-12.6,10.2-22.8,22.8-22.8c1.9,0,3.8,0.2,5.7,0.7L185,286.4c10.2,2.6,17.3,11.8,17.3,22.3v106c0,6.2-2.4,12-6.8,16.4
					C191.1,435.3,185.4,437.6,179.4,437.6z M74.6,276.3c-2.7,0-5.6,2.1-5.6,5.6v106.2c0,2.6,1.7,4.8,4.2,5.5L178,420.2
					c0.5,0.1,1,0.2,1.4,0.2l0,0c1.5,0,2.9-0.6,4-1.7c0.8-0.8,1.7-2.1,1.7-4.1v-106c0-2.6-1.8-4.9-4.3-5.6L76,276.5
					C75.6,276.3,75.1,276.3,74.6,276.3z"/>
			</g>
		</g>
		<g>
			<g>
				<path fill="#E6E7E8" d="M112.1,346.2c0,7,5.7,14.2,12.7,16s12.7-2.4,12.7-9.4c0-7-5.7-14.2-12.7-16
					C117.7,335,112.1,339.2,112.1,346.2z"/>
			</g>
		</g>
		<g>
			<g>
				<path fill="#E6E7E8" d="M139.4,326.7c0,7,5.7,14.2,12.7,16c7,1.8,12.7-2.4,12.7-9.4c0-7-5.7-14.2-12.7-16
					C145.1,315.5,139.4,319.7,139.4,326.7z"/>
			</g>
		</g>
		<g>
			<g>
				<path fill="#E6E7E8" d="M84.7,312.4c0,7,5.7,14.2,12.7,16c7,1.8,12.7-2.4,12.7-9.4c0-7-5.7-14.2-12.7-16
					C90.4,301.2,84.7,305.4,84.7,312.4z"/>
			</g>
		</g>
		<g>
			<g>
				<path fill="#E6E7E8" d="M139.4,380.1c0,7,5.7,14.2,12.7,16c7,1.8,12.7-2.4,12.7-9.4c0-7-5.7-14.2-12.7-16
					C145.1,368.9,139.4,373.1,139.4,380.1z"/>
			</g>
		</g>
		<g>
			<g>
				<ellipse fill="#E6E7E8" cx="236.9" cy="346.1" rx="7.9" ry="12"/>
			</g>
		</g>
		<g>
			<g>
				<ellipse fill="#E6E7E8" cx="219.9" cy="320.9" rx="7.9" ry="12"/>
			</g>
		</g>
		<g>
			<g>
				<ellipse fill="#E6E7E8" cx="253.9" cy="371.3" rx="7.9" ry="12"/>
			</g>
		</g>
		<g>
			<g>
				<path fill="#E6E7E8" d="M84.7,365.8c0,7,5.7,14.2,12.7,16c7,1.8,12.7-2.4,12.7-9.4c0-7-5.7-14.2-12.7-16
					C90.4,354.6,84.7,358.8,84.7,365.8z"/>
			</g>
		</g>
		<g>
			<g>
				<path fill="#E6E7E8" d="M194.4,252.9c-3.1,2.4-1,5.7,4.8,7.3c5.8,1.6,13,1,16.2-1.4c3.1-2.4,1-5.7-4.8-7.3
					C204.8,249.8,197.6,250.5,194.4,252.9z"/>
			</g>
		</g>
		<g>
			<g>
				<path fill="#E6E7E8" d="M149.2,240.1c-3.1,2.4-1,5.7,4.8,7.3s13,1,16.2-1.4c3.1-2.4,1-5.7-4.8-7.3S152.4,237.7,149.2,240.1z"/>
			</g>
		</g>
		<g>
			<g>
				<path fill="#E6E7E8" d="M170.5,271.1c-3.1,2.4-1,5.7,4.8,7.3c5.8,1.6,13,1,16.2-1.4c3.1-2.4,1-5.7-4.8-7.3
					S173.6,268.7,170.5,271.1z"/>
			</g>
		</g>
		<g>
			<g>
				<path fill="#E6E7E8" d="M125.3,258.4c-3.1,2.4-1,5.7,4.8,7.3c5.8,1.6,13,1,16.2-1.4s1-5.7-4.8-7.3
					C135.7,255.4,128.4,256,125.3,258.4z"/>
			</g>
		</g>
		<g>
			<g>
				<path fill="#414042" d="M191.4,304.9L191.4,304.9c-2.4,0-4.8-0.3-7.2-0.9L75.6,276.3c-6.2-1.6-10.6-6.7-11.2-13.1
					c-0.6-6.4,2.8-12.3,8.6-15l64.2-30.1c6.2-2.9,13.5-3.6,20.1-1.9l106.5,27c6.2,1.6,10.6,6.7,11.2,13c0.7,6.3-2.6,12.2-8.3,15
					L204.2,302C200.3,303.9,195.9,304.9,191.4,304.9z M85.9,261.2l102.6,26.1c2.7,0.7,5.6,0.4,8.1-0.8l57-28L153,232.9
					c-2.8-0.7-5.9-0.4-8.6,0.8L85.9,261.2z"/>
			</g>
		</g>
		<g>
			<g>
				<path fill="#414042" d="M191.4,304.9C191.4,304.9,191.4,304.9,191.4,304.9c-2.4,0-4.8-0.3-7.2-0.9L75.6,276.3
					c-6.2-1.6-10.6-6.7-11.2-13.1c-0.6-6.4,2.8-12.3,8.6-15l63.9-30c6.4-3,13.8-3.7,20.7-2l106.2,27c6.2,1.6,10.6,6.7,11.2,13
					c0.7,6.3-2.6,12.2-8.3,15L204.2,302C200.3,303.9,195.9,304.9,191.4,304.9z M85.9,261.2l102.6,26.1c2.7,0.7,5.6,0.4,8.1-0.8
					l57-28L153.3,233c-3-0.8-6.3-0.5-9.1,0.9L85.9,261.2z"/>
			</g>
		</g>
		<g>
			<g>
				<path fill="#414042" d="M188.5,438.9c-4.6,0-9.2-0.6-13.7-1.7l-105.8-27c-10.1-2.6-17.2-11.7-17.2-22.2V282.3
					c0-14.7,8.6-28.2,21.9-34.4l63.5-29.8c6.2-2.9,13.4-3.6,20-1.9l107.9,27.4c12.9,3.3,22,14.9,22,28.3v111.8
					c0,8-4.6,15.4-11.8,18.9l-62.3,30.6C205.4,437,197,438.9,188.5,438.9z M149.8,232.5c-1.8,0-3.7,0.4-5.3,1.2L81,263.5
					c-7.3,3.4-12,10.8-12,18.8v105.8c0,2.6,1.7,4.8,4.2,5.5l105.8,27c8.7,2.2,18.2,1.2,26.2-2.7l62.3-30.6c1.3-0.6,2.2-2,2.2-3.5
					V271.9c0-5.5-3.7-10.2-9-11.6l-107.9-27.4C151.9,232.7,150.9,232.5,149.8,232.5z"/>
			</g>
		</g>
	</g>
	<g>
		<g>
			<g>
				<circle fill="#E6E7E8" cx="386.5" cy="160.1" r="39.7"/>
			</g>
		</g>
		<g>
			<g>
				<path fill="#414042" d="M386.5,208.5c-26.7,0-48.3-21.7-48.3-48.3s21.7-48.3,48.3-48.3c26.7,0,48.3,21.7,48.3,48.3
					S413.2,208.5,386.5,208.5z M386.5,129c-17.2,0-31.1,14-31.1,31.1c0,17.2,14,31.1,31.1,31.1c17.2,0,31.1-14,31.1-31.1
					C417.7,143,403.7,129,386.5,129z"/>
			</g>
		</g>
	</g>
	<g>
		<g>
			<g>
				<circle fill="#4F4F4F" cx="386.5" cy="239.6" r="39.7"/>
			</g>
		</g>
		<g>
			<g>
				<path fill="#414042" d="M386.5,287.9c-26.7,0-48.3-21.7-48.3-48.3s21.7-48.3,48.3-48.3c26.7,0,48.3,21.7,48.3,48.3
					S413.2,287.9,386.5,287.9z M386.5,208.5c-17.2,0-31.1,14-31.1,31.1s14,31.1,31.1,31.1c17.2,0,31.1-14,31.1-31.1
					S403.7,208.5,386.5,208.5z"/>
			</g>
		</g>
	</g>
	<g>
		<g>
			<g>
				<circle fill="#E6E7E8" cx="202.9" cy="160.1" r="39.7"/>
			</g>
		</g>
		<g>
			<g>
				<path fill="#414042" d="M202.9,208.5c-26.7,0-48.3-21.7-48.3-48.3s21.7-48.3,48.3-48.3s48.3,21.7,48.3,48.3
					S229.6,208.5,202.9,208.5z M202.9,129c-17.2,0-31.1,14-31.1,31.1c0,17.2,14,31.1,31.1,31.1s31.1-14,31.1-31.1
					C234,143,220.1,129,202.9,129z"/>
			</g>
		</g>
	</g>
</g>
</svg>
