<?xml version="1.0" encoding="utf-8"?>
<!-- Generator: Adobe Illustrator 18.0.0, SVG Export Plug-In . SVG Version: 6.00 Build 0)  -->
<!DOCTYPE svg PUBLIC "-//W3C//DTD SVG 1.1//EN" "http://www.w3.org/Graphics/SVG/1.1/DTD/svg11.dtd">
<svg version="1.1" id="Layer_1" xmlns="http://www.w3.org/2000/svg" xmlns:xlink="http://www.w3.org/1999/xlink" x="0px" y="0px"
	 viewBox="0 0 512 512" enable-background="new 0 0 512 512" xml:space="preserve">
<g>
	<g>
		<g>
			<g>
				<rect x="286.9" y="244.2" fill="#AA2C23" width="41.3" height="124.1"/>
			</g>
		</g>
		<g>
			<g>
				<path fill="#414042" d="M328.2,377.1h-41.3c-4.9,0-8.8-3.9-8.8-8.8V244.2c0-4.9,3.9-8.8,8.8-8.8h41.3c4.9,0,8.8,3.9,8.8,8.8
					v124.1C337,373.2,333,377.1,328.2,377.1z M295.6,359.5h23.7V253h-23.7V359.5z"/>
			</g>
		</g>
		<g>
			<g>
				<path fill="#F2D3BC" d="M369.3,349.8h-0.7c10.7,0,19.3-8.7,19.3-19.3c0-10.7-8.7-19.3-19.3-19.3h-5.7c0,0-4.3,0-12.3,0
					c-11,0-29.1,0-52.7,0c-40.8,0-71.9,29-71.9,29h-29v85.5h30.3c16.2,18.9,50.9,21.7,50.9,21.7h57v0.1h23.4c7.7,0,14-6.3,14-14
					s-6.3-14-14-14h-0.3l0-0.2h4.8c8.8,0,15.9-7.1,15.9-15.9c0-8.8-7.1-15.9-15.9-15.9h-3.5l0-0.2h9.7c10.3,0,18.7-8.4,18.7-18.7
					C388,358.2,379.6,349.8,369.3,349.8z"/>
			</g>
		</g>
		<g>
			<g>
				<path fill="#414042" d="M358.5,456.2h-23.4c-0.4,0-0.8,0-1.3-0.1h-55.8c-0.2,0-0.5,0-0.7,0c-1.5-0.1-34.9-3-54-21.7H197
					c-4.9,0-8.8-3.9-8.8-8.8v-85.5c0-4.9,3.9-8.8,8.8-8.8h25.7c8.8-7.3,38.1-29,75.2-29h70.7c15.5,0,28.1,12.6,28.1,28.1
					c0,7.4-2.9,14.1-7.5,19.1c4.7,4.9,7.5,11.6,7.5,18.9c0,9.5-4.8,17.8-12.1,22.8c2,3.6,3.1,7.6,3.1,12c0,7.8-3.6,14.7-9.2,19.2
					c1.8,3.2,2.8,6.9,2.8,10.9C381.3,445.9,371.1,456.2,358.5,456.2z M336.4,438.6h22.1c2.9,0,5.2-2.3,5.2-5.2
					c0-2.9-2.3-5.2-5.2-5.2h-0.3c-2.4,0-4.7-1-6.3-2.7c-1.7-1.7-2.5-4.1-2.4-6.5c0.2-4.7,4.1-8.6,8.8-8.6h4.8c3.9,0,7.1-3.2,7.1-7.1
					s-3.2-7.1-7.1-7.1h-3.5c-2.4,0-4.7-1-6.4-2.7c-1.7-1.7-2.5-4.1-2.4-6.5c0.2-4.7,4.1-8.6,8.8-8.6h9.7c5.5,0,9.9-4.4,9.9-9.9
					s-4.4-9.9-9.9-9.9h-0.7c-4.9,0-8.8-3.9-8.8-8.8c0-4.9,3.9-8.8,8.8-8.8c5.8,0,10.5-4.7,10.5-10.5s-4.7-10.5-10.5-10.5h-70.7
					c-36.7,0-65.7,26.4-66,26.6c-1.6,1.5-3.8,2.3-6,2.3h-20.2v67.9h21.5c2.6,0,5,1.1,6.7,3.1c12.8,15,41.3,18.3,44.6,18.6h56.6
					C335.6,438.5,336,438.5,336.4,438.6z"/>
			</g>
		</g>
		<g>
			<g>
				<circle fill="#E6E7E8" cx="306.3" cy="154.9" r="91.4"/>
			</g>
		</g>
		<g>
			<g>
				<path fill="#414042" d="M306.3,255.1c-55.2,0-100.2-44.9-100.2-100.2S251.1,54.7,306.3,54.7s100.2,44.9,100.2,100.2
					S361.5,255.1,306.3,255.1z M306.3,72.3c-45.5,0-82.6,37-82.6,82.6s37,82.6,82.6,82.6c45.5,0,82.6-37,82.6-82.6
					S351.8,72.3,306.3,72.3z"/>
			</g>
		</g>
		<g>
			<g>
				<g>
					<g>
						<rect x="161" y="327" fill="#E6E7E8" width="46.1" height="113.2"/>
					</g>
				</g>
				<g>
					<g>
						<path fill="#414042" d="M207.1,449H161c-4.9,0-8.8-3.9-8.8-8.8V327c0-4.9,3.9-8.8,8.8-8.8h46.1c4.9,0,8.8,3.9,8.8,8.8v113.2
							C215.9,445,212,449,207.1,449z M169.8,431.4h28.6v-95.6h-28.6V431.4z"/>
					</g>
				</g>
			</g>
			<g>
				<g>
					<rect x="114.3" y="316.6" fill="#4F4F4F" width="59.2" height="131.9"/>
				</g>
			</g>
			<g>
				<g>
					<path fill="#414042" d="M173.5,457.3h-59.2c-4.9,0-8.8-3.9-8.8-8.8V316.6c0-4.9,3.9-8.8,8.8-8.8h59.2c4.9,0,8.8,3.9,8.8,8.8
						v131.9C182.3,453.3,178.4,457.3,173.5,457.3z M123.1,439.7h41.6V325.4h-41.6V439.7z"/>
				</g>
			</g>
			<g>
				<g>
					<path fill="#414042" d="M173.5,370.9h-58c-4.9,0-8.8-3.9-8.8-8.8s3.9-8.8,8.8-8.8h58c4.9,0,8.8,3.9,8.8,8.8
						S178.4,370.9,173.5,370.9z"/>
				</g>
			</g>
			<g>
				<g>
					<circle fill="#414042" cx="143.9" cy="398.3" r="10.7"/>
				</g>
			</g>
		</g>
	</g>
	<g>
		<g>
			<path fill="#D04527" d="M345.9,203c-2.2,0-4.5-0.9-6.2-2.6l-76.8-76.8c-3.4-3.4-3.4-9,0-12.4c3.4-3.4,9-3.4,12.4,0l76.8,76.8
				c3.4,3.4,3.4,9,0,12.4C350.4,202.1,348.2,203,345.9,203z"/>
		</g>
	</g>
	<g>
		<g>
			<path fill="#D04527" d="M269.1,203c-2.2,0-4.5-0.9-6.2-2.6c-3.4-3.4-3.4-9,0-12.4l76.8-76.8c3.4-3.4,9-3.4,12.4,0
				c3.4,3.4,3.4,9,0,12.4l-76.8,76.8C273.6,202.1,271.4,203,269.1,203z"/>
		</g>
	</g>
</g>
</svg>
