<?xml version="1.0" encoding="utf-8"?>
<!-- Generator: Adobe Illustrator 18.0.0, SVG Export Plug-In . SVG Version: 6.00 Build 0)  -->
<!DOCTYPE svg PUBLIC "-//W3C//DTD SVG 1.1//EN" "http://www.w3.org/Graphics/SVG/1.1/DTD/svg11.dtd">
<svg version="1.1" id="Layer_1" xmlns="http://www.w3.org/2000/svg" xmlns:xlink="http://www.w3.org/1999/xlink" x="0px" y="0px"
	 viewBox="0 0 512 512" enable-background="new 0 0 512 512" xml:space="preserve">
<g>
	<g>
		<g>
			<path fill="#D8AD2F" d="M75.9,265.4c3.9,13.6,10.5,29.2,20.9,46.6c40,66.5,110,104.3,163.4,94.4c17.4-3.2,27.6,1.3,27.6,1.3
				c-3.5-7.4,0-13.2,3.3-16.8c-47.5-10.6-93.4-25.4-135.4-52.6c-21.4-13.8-41.2-29.8-59.1-47.9C88.7,282.5,81.9,274.6,75.9,265.4z"
				/>
		</g>
	</g>
	<g>
		<g>
			<g>
				<path fill="#F2C637" d="M111.2,147.4c0,0-5.7,37.8,0.5,46.1s17.4-0.4,34.9,30.3c14.9,26.1,17.7,92.7,117.5,137.6
					c13.4,6.1,20.4,18.8,31.4,25.9c0,0-13.5,8.2-7.7,20.4c0,0-10.1-4.4-27.6-1.3c-53.5,9.8-123.4-27.9-163.4-94.4
					c-46.6-77.5-16.1-118-16.1-118s-5.5-18.9,0.2-47C82.5,140.1,111.6,140.3,111.2,147.4z"/>
			</g>
		</g>
		<g>
			<g>
				<path fill="#D8AD2F" d="M96.9,312c40,66.5,110,104.3,163.4,94.4c17.4-3.2,27.6,1.3,27.6,1.3c-3.5-7.4,0-13.2,3.3-16.8
					c-1.7,1.9-25.7-5.6-29.1-6.3c-9.7-2.1-19.3-4.3-28.9-6.9c-17.1-4.6-33.6-10.1-49.4-18.1c-31-15.6-58.5-38.3-79.7-65.8
					c-11.6-15-22.6-30.2-32.1-46.7C66.5,237.5,86.4,294.6,96.9,312z"/>
			</g>
		</g>
		<g>
			<g>
				<path fill="#414042" d="M287.8,416.2c-0.9,0-1.9-0.2-2.8-0.5c-0.2-0.1-4.9-1.6-13.3-1.6c-3.3,0-6.8,0.2-10.4,0.7
					c-5.5,0.7-11,1.1-16.6,1.1c-68.3,0-132-54-159.5-107.3C48.8,238.1,64,203.2,71.5,192c-1.4-7.6-3.4-24.6,1.1-46.6
					c1.6-7.6,10.2-11.9,23.8-11.9c5.4,0,15.2,0.8,20.2,6.1c2.2,2.3,3.3,5.3,3.2,8.4c0,0.3,0,0.5-0.1,0.8c-2.6,17.3-3,35.9-1,39.9
					c0.4,0.5,1.1,0.8,3.7,1.6c9.3,3.1,19.5,7.9,31.7,29.4c3.4,5.9,6,13.2,9.1,21.7c11.3,31.1,28.3,78,104.5,112.4
					c9.2,4.2,15.7,10.8,21.4,16.6c3.7,3.8,7.3,7.4,11.1,9.9c2.5,1.6,3.9,4.3,3.9,7.3c0,2.9-1.6,5.6-4.1,7.1
					c-1.1,0.7-6.7,4.6-4.4,9.5c1.5,3.1,0.9,6.8-1.4,9.3C292.5,415.3,290.2,416.2,287.8,416.2z M88.9,151.3c-4.4,24,0,40.2,0.1,40.4
					c0.9,3.1,0.2,6.3-2.3,8.5c-0.1,0.1-24.4,26.8,13.8,100.8c24.6,47.5,83.5,98,144.3,98c4.8,0,9.6-0.3,14.4-0.9
					c4.3-0.6,8.5-0.8,12.6-0.8c2.4,0,4.5,0.1,6.4,0.2c0.7-3.6,2.4-6.9,4.4-9.6c-2-1.9-3.9-3.8-5.8-5.7c-5.1-5.2-9.9-10.1-16.2-13
					c-82.8-37.3-102-90.4-113.5-122.1c-2.8-7.7-5.2-14.4-7.9-19.1c-10-17.6-16.8-19.8-22.2-21.6c-3.8-1.3-8.4-2.8-12.1-7.8
					c-6.5-8.8-4.9-31.9-2.8-47.6c-1.4-0.3-3.3-0.5-5.7-0.5C92.9,150.5,90.4,150.9,88.9,151.3z"/>
			</g>
		</g>
		<g>
			<g>
				<path fill="#414042" d="M111.2,147.4c0,0,2.5-3.6,0.2-11.6l-27.1-2.1L81,147.1C81,147.1,98.9,137.7,111.2,147.4z"/>
			</g>
			<g>
				<path fill="#414042" d="M111.2,155.9c-1.9,0-3.8-0.6-5.3-1.9c-2.2-1.7-4.9-2.6-8.3-2.6c-6.5,0-12.6,3.1-12.6,3.1
					c-3,1.5-6.6,1.2-9.2-0.9c-2.6-2.1-3.8-5.5-3-8.7l3.3-13.4c1-4.1,4.8-6.8,9-6.5l27.1,2.1c3.6,0.3,6.6,2.7,7.6,6.1
					c3.3,11.1-0.3,17.3-1.4,18.9c-1.4,1.9-3.4,3.2-5.8,3.5C112,155.9,111.6,155.9,111.2,155.9z"/>
			</g>
		</g>
		<g>
			<g>
				<path fill="#414042" d="M295.5,387.3c0,0-12.8,8.2-7.7,20.4l7.3,2.6l7.8-14.6L295.5,387.3z"/>
			</g>
			<g>
				<path fill="#414042" d="M295.2,418.8c-0.9,0-1.9-0.2-2.8-0.5l-7.3-2.6c-2.3-0.8-4.1-2.5-5.1-4.8c-6.2-14.9,4.5-26.7,11-30.8
					c3.6-2.3,8.2-1.6,11,1.5l7.4,8.4c2.4,2.7,2.8,6.5,1.1,9.6l-7.8,14.6C301.2,417.1,298.3,418.8,295.2,418.8z"/>
			</g>
		</g>
	</g>
	<g>
		<g>
			<g>
				<path fill="#F2C637" d="M129.5,112c0,0,18.3,36.4,28.8,39.9c10.5,3.5,14.9-11,49,5.1c29,13.7,62.6,73.2,177.2,51.7
					c15.4-2.9,29.3,3.9,43.3,3.5c0,0-6.7,15.3,5.8,22.5c0,0-11.6,2.3-24.8,15.7c-40.5,41.1-114.9,47.6-190.7,14
					c-88.2-39.1-86.5-93-86.5-93S115.2,158,103,130.1C99.9,123.1,125.5,105.5,129.5,112z"/>
			</g>
		</g>
		<g>
			<g>
				<path fill="#F2C637" d="M161,155.7c0,0,76.6,124.8,238.5,70l28.3-13.6c-14,0.5-27.9-6.4-43.3-3.5
					c-114.6,21.6-148.2-38-177.2-51.6c-29.8-14.1-36.9-4.8-45.2-4.6C161.4,154.5,161,155.7,161,155.7z"/>
			</g>
		</g>
		<g>
			<g>
				<path fill="#FFD664" d="M161,155.7c0,0,77.3,127.5,239.3,72.7l0,0c9.4-5.6,5.8-20-5.2-20.5c-3.5-0.2-7,0-10.6,0.7
					c-114.6,21.6-148.2-38-177.2-51.6c-29.8-14.1-36.9-4.8-45.2-4.6C161.4,154.5,161,155.7,161,155.7z"/>
			</g>
		</g>
		<g>
			<g>
				<path fill="#414042" d="M310.8,294.3c-34.8,0-71.9-9.4-104.5-26.4c-75.5-39.5-83.3-79.1-83.4-93.1c-5.8-5.6-18.1-19.2-27.7-41.3
					c-1.2-2.8-1.9-7.5,1.9-13.3c5.4-8.2,19.7-18.1,29.3-18.1c4.4,0,8.2,2,10.4,5.4c0.1,0.2,0.3,0.4,0.4,0.7
					c8.6,17,19.8,33.7,24,35.6c0.2,0.1,0.4,0.1,0.6,0.1c0.9,0,2.3-0.4,4-0.9c3.3-1,7.8-2.3,13.9-2.3c8.9,0,19.1,2.8,31.4,8.6
					c7.4,3.5,14.5,9.2,22.8,15.8c21,16.8,49.8,39.7,104.1,39.7c13.9,0,29.1-1.5,45-4.5c3.1-0.6,6.3-0.9,9.6-0.9
					c6.8,0,13,1.2,19.1,2.3c5.6,1.1,10.9,2,15.9,1.9c2.9-0.1,5.7,1.3,7.4,3.7c1.7,2.4,1.9,5.5,0.8,8.2c-0.6,1.3-3.2,8.6,2.2,11.7
					c3,1.7,4.7,5,4.3,8.4c-0.4,3.4-2.9,6.2-6.2,7.2c0,0-9.3,2.9-21.3,13.8C387.5,281.2,351.6,294.3,310.8,294.3z M111.8,128.8
					c11,24,25.1,35.6,25.2,35.7c2.5,2.1,3.8,5.1,3,8.3c0,0.2-5,38.6,74.3,80c30.2,15.8,64.5,24.5,96.6,24.5
					c36.4,0,68.3-11.5,92.2-33.3c6.2-5.7,11.9-9.6,16.6-12.3c-1.8-3.8-2.3-7.9-2.2-11.7c-3.1-0.4-6.1-1-9-1.5c-5.5-1-10.7-2-15.9-2
					c-2.3,0-4.4,0.2-6.4,0.6c-17,3.2-33.2,4.8-48.2,4.8c-60.4,0-93.2-26.2-114.9-43.5c-7.4-5.9-13.8-11-19.4-13.7
					c-9.9-4.7-17.8-6.9-24-6.9c-3.7,0-6.3,0.8-9,1.6c-2.7,0.8-5.5,1.6-8.8,1.6c-2.1,0-4.1-0.3-6.2-1c-11.3-3.7-24.7-26.8-31.7-40.1
					C119.9,121.6,114,125.9,111.8,128.8z"/>
			</g>
		</g>
		<g>
			<g>
				<path fill="#414042" d="M129.5,112c0,0,0-4.7-7-10.3l-24.9,14.7l5.4,13.7C103,130.1,112.8,111,129.5,112z"/>
			</g>
			<g>
				<path fill="#414042" d="M103,138.6c-0.2,0-0.3,0-0.5,0c-3.3-0.2-6.3-2.3-7.5-5.4l-5.4-13.7c-1.5-3.9,0-8.3,3.6-10.4l24.9-14.7
					c3.1-1.8,6.9-1.5,9.7,0.7c7.7,6.1,9.6,12.1,10.1,15.2c0.1,0.6,0.2,1.1,0.2,1.7c0,4.7-3.8,8.5-8.6,8.5c0,0,0,0,0,0
					c-0.2,0-0.3,0-0.5,0c-0.3,0-0.5,0-0.7,0c-10.2,0-17.6,13.4-17.6,13.5C109.1,136.8,106.1,138.6,103,138.6z"/>
			</g>
		</g>
		<g>
			<g>
				<path fill="#414042" d="M427.8,212.1c0,0-6.1,14.9,5.8,22.5l8-2.2l-2.2-17.5L427.8,212.1z"/>
			</g>
			<g>
				<path fill="#414042" d="M433.6,243c-1.6,0-3.2-0.5-4.6-1.3c-14.2-9-12.2-25.5-9.2-32.9c1.6-3.9,5.8-6,9.9-5.1l11.6,2.8
					c3.5,0.8,6,3.7,6.5,7.2l2.2,17.5c0.5,4.2-2.1,8.1-6.2,9.3l-8,2.2C435.2,242.9,434.4,243,433.6,243z"/>
			</g>
		</g>
	</g>
	<g>
		<g>
			<path fill="#F2C637" d="M122.2,114.5c0,0,5.2,45.6,14.9,53.4c9.8,7.8,20.1-5.8,49.9,24.4c25.4,25.7,66.8,83.1,196.7,104.6
				c17.5,2.9,29.5,15.5,44.5,20.4c0,0-13.1,13.6-2.6,26.1c0,0-14.9-5.1-32.4,7c-45.1,31.2-170.9,5.1-241-56.7
				c-83.5-73.6-51-115.6-51-115.6S89,157.8,87,123.4C86.5,114.9,120.4,106.1,122.2,114.5z"/>
		</g>
	</g>
	<g>
		<g>
			<path fill="#F2C637" d="M138.4,173.1c0,0,61.5,143.2,254.5,147.7l35.3-3.5c-15-4.9-27-17.5-44.5-20.4
				C253.9,275.4,212.5,218,187,192.3c-26.1-26.4-37.3-19.4-46.2-22.3C139.3,171.9,138.4,173.1,138.4,173.1z"/>
		</g>
	</g>
	<g>
		<g>
			<path fill="#FFD664" d="M139,170.6c-4.6,0.5-7.1,5.6-5,9.7C153.2,218,228,338.7,393,320.8h0c10.7-1.1,13.2-15.7,3.4-20
				c-4-1.8-8.1-3.2-12.7-3.9C253.9,275.4,212.5,218,187,192.3c-24.2-24.5-35.6-20.2-44.2-21.8c-1.1-0.2-2.1-0.1-3.2,0.1
				C139.5,170.6,139.3,170.6,139,170.6z"/>
		</g>
	</g>
	<g>
		<g>
			<path fill="#414042" d="M123.7,119.6c0,0,1.8-5-3.4-13.6l-32.1,6l0.4,16.5C88.6,128.5,111.6,140.1,123.7,119.6z"/>
		</g>
		<g>
			<path fill="#414042" d="M102.9,140.3C102.9,140.3,103,140.3,102.9,140.3c-9.7,0-17.4-3.7-18.3-4.2c-2.8-1.4-4.6-4.3-4.7-7.4
				l-0.4-16.5c-0.1-4.2,2.9-7.8,7-8.6l32.1-6c3.5-0.6,7,0.9,8.9,4c7,11.5,4.7,19.5,4.1,20.9c-0.2,0.5-0.4,0.9-0.7,1.4
				C124.9,134.5,114.9,140.3,102.9,140.3z M97,122.5c1.7,0.4,3.8,0.8,6,0.8c5.4,0,9.4-2.1,12.5-6.6c0-0.3-0.1-0.6-0.2-1.1L96.9,119
				L97,122.5z"/>
		</g>
	</g>
	<g>
		<g>
			<path fill="#414042" d="M428.3,317.3c0,0-12.7,12.8-2.6,26.1l7.8,0l4.7-20.2L428.3,317.3z"/>
		</g>
		<g>
			<path fill="#414042" d="M433.4,351.9C433.4,351.9,433.4,351.9,433.4,351.9l-7.8,0c-2.7,0-5.1-1.3-6.8-3.3
				c-11.6-15.1-2.9-31,3.3-37.2c2.8-2.8,7.1-3.3,10.5-1.3l9.9,5.9c3.2,1.9,4.8,5.6,4,9.2l-4.7,20.2
				C440.9,349.2,437.4,351.9,433.4,351.9z"/>
		</g>
	</g>
	<g>
		<g>
			<path fill="#414042" d="M90,142.3c0,0-7.3,2.3-10.6-11.9c-4.5-19,4.9-15.5,16.1-20.5c10.9-4.9,25.5-15.1,30,1.1
				c4.3,15.3-8.4,17.8-8.4,17.8S88.3,133,90,142.3z"/>
		</g>
		<g>
			<path fill="#414042" d="M88.8,150.9c-4,0-13.8-1.8-17.8-18.6c-4.9-20.8,5.1-25.4,14.8-28.2c2-0.6,4.1-1.2,6.2-2.1
				c1.5-0.6,3-1.4,4.5-2.2c6-2.9,12.7-6.3,19.5-6.3c4.1,0,14,1.5,17.8,15c2.6,9.3,0.5,15.6-1.8,19.3c-4.5,7.3-12.3,9-13.1,9.2
				c-0.1,0-0.3,0.1-0.5,0.1c-8,1.2-16.9,3.8-19.8,5.9c-0.3,3.3-2.6,6.2-5.9,7.3C91.9,150.6,90.6,150.9,88.8,150.9z M86.8,121.7
				c-0.1,0.8,0,2.8,0.9,6.7c0.1,0.5,0.2,0.9,0.3,1.3c7.8-5.7,20.9-8.3,27.4-9.3c0.4-0.1,1.5-0.6,2-1.5c0.6-1.1,0.6-3.2-0.1-5.7
				c-0.4-1.5-0.8-2.2-1.1-2.5c-0.1,0-0.1,0-0.2,0c-2.7,0-7.8,2.5-11.9,4.5c-1.8,0.9-3.5,1.7-5.1,2.4c-3.2,1.4-6.1,2.2-8.5,2.9
				C89.3,120.9,87.7,121.4,86.8,121.7z"/>
		</g>
	</g>
	<g>
		<g>
			<path fill="#414042" d="M337.6,372.1c-64.3,0-142.8-29.6-190.9-72c-73.2-64.5-62-108-55.1-122.2c-4-8.2-11.5-27-13.1-53.9
				c-0.1-2.5,0.4-6.2,3.9-9.9c6.5-6.8,21.7-11.4,31.9-11.4c12.7,0,15.6,7.1,16.2,10.2c0.1,0.3,0.1,0.5,0.1,0.8
				c2.5,21.9,8,44.2,11.8,47.7c1,0.8,2.1,0.9,5.9,1.2c9,0.6,22.7,1.4,44.8,23.9c2.6,2.7,5.4,5.6,8.3,8.8
				c26.1,27.9,69.7,74.5,183.6,93.4c11.7,1.9,21.1,7.5,29.4,12.5c5.6,3.3,10.9,6.5,16.4,8.3c2.8,0.9,4.9,3.2,5.6,6
				c0.7,2.8-0.1,5.8-2.1,8c-1.2,1.3-7.4,8.6-2.2,14.7c2.5,2.9,2.7,7.1,0.5,10.3c-2.2,3.2-6.2,4.5-9.8,3.3c0,0,0,0,0,0
				c0,0-11.2-3.4-24.7,6C384.3,367,363.3,372.1,337.6,372.1z M95.7,125c2.2,30.3,12.9,48.5,13,48.7c1.8,3,1.6,6.8-0.6,9.6
				c-0.2,0.3-6.3,9-3.9,25.6c2.4,16.3,13.6,43.1,53.8,78.4c50.5,44.5,128.6,67.8,179.6,67.8c22.2,0,39.8-4,50.8-11.7
				c9.2-6.4,17.9-8.7,24.6-9.4c-0.2-4.6,0.9-9.1,2.6-12.9c-3.4-1.7-6.6-3.7-9.8-5.6c-7.7-4.6-15-8.9-23.5-10.3
				c-119.7-19.8-165.8-69.1-193.4-98.6c-2.9-3.1-5.6-5.9-8-8.4c-17.6-17.8-26.5-18.3-33.7-18.8c-4.7-0.3-10.1-0.6-15.5-4.9
				c-10.4-8.2-15.5-38.5-17.6-54.9C107.7,119.7,98.8,122.8,95.7,125z"/>
		</g>
	</g>
</g>
</svg>
