<?xml version="1.0" encoding="utf-8"?>
<!-- Generator: Adobe Illustrator 18.0.0, SVG Export Plug-In . SVG Version: 6.00 Build 0)  -->
<!DOCTYPE svg PUBLIC "-//W3C//DTD SVG 1.1//EN" "http://www.w3.org/Graphics/SVG/1.1/DTD/svg11.dtd">
<svg version="1.1" id="Layer_1" xmlns="http://www.w3.org/2000/svg" xmlns:xlink="http://www.w3.org/1999/xlink" x="0px" y="0px"
	 viewBox="0 0 512 512" enable-background="new 0 0 512 512" xml:space="preserve">
<g>
	<g>
		<g>
			<path fill="#8D4F76" d="M394.7,420.4H117.3c-13.3,0-24.2-10.8-24.2-24v-61.5c0-13.3,10.8-24,24.2-24h277.4
				c13.3,0,24.2,10.8,24.2,24v61.5C418.8,409.6,408,420.4,394.7,420.4z"/>
		</g>
	</g>
	<g>
		<g>
			<path fill="#BB6FA0" d="M394.7,327.8c3.9,0,7,3.1,7,7v61.5c0,3.9-3.2,7-7,7H117.3c-3.9,0-7-3.1-7-7v-61.5c0-3.9,3.2-7,7-7H394.7
				 M394.7,310.8H117.3c-13.3,0-24.2,10.8-24.2,24v61.5c0,13.3,10.8,24,24.2,24h277.4c13.3,0,24.2-10.8,24.2-24v-61.5
				C418.8,321.6,408,310.8,394.7,310.8L394.7,310.8z"/>
		</g>
	</g>
	<g>
		<g>
			<path fill="#BB6FA0" d="M386.3,333.5c5.4,0,9.7,4.3,9.7,9.7V388c0,5.3-4.4,9.7-9.7,9.7H125.7c-5.4,0-9.7-4.3-9.7-9.7v-44.8
				c0-5.3,4.4-9.7,9.7-9.7H386.3 M386.3,310.8H125.7c-18,0-32.5,14.5-32.5,32.4V388c0,17.9,14.6,32.4,32.5,32.4h260.6
				c18,0,32.5-14.5,32.5-32.4v-44.8C418.8,325.3,404.3,310.8,386.3,310.8L386.3,310.8z"/>
		</g>
	</g>
	<g>
		<g>
			<path fill="#8D4F76" d="M394.7,310.3H117.3c-13.3,0-24.2-10.8-24.2-24v-61.5c0-13.3,10.8-24,24.2-24h277.4
				c13.3,0,24.2,10.8,24.2,24v61.5C418.8,299.5,408,310.3,394.7,310.3z"/>
		</g>
	</g>
	<g>
		<g>
			<path fill="#8D4F76" d="M394.7,201.2H117.3c-13.3,0-24.2-10.8-24.2-24v-61.5c0-13.3,10.8-24,24.2-24h277.4
				c13.3,0,24.2,10.8,24.2,24v61.5C418.8,190.4,408,201.2,394.7,201.2z"/>
		</g>
	</g>
	<g>
		<g>
			<g>
				<path fill="#BB6FA0" d="M386.3,114.3c5.4,0,9.7,4.3,9.7,9.7v44.8c0,5.3-4.4,9.7-9.7,9.7H125.7c-5.4,0-9.7-4.3-9.7-9.7V124
					c0-5.3,4.4-9.7,9.7-9.7H386.3 M386.3,91.6H125.7c-18,0-32.5,14.5-32.5,32.4v44.8c0,17.9,14.6,32.4,32.5,32.4h260.6
					c18,0,32.5-14.5,32.5-32.4V124C418.8,106.1,404.3,91.6,386.3,91.6L386.3,91.6z"/>
			</g>
		</g>
	</g>
	<g>
		<g>
			<g>
				<path fill="#BB6FA0" d="M386.3,223.4c5.4,0,9.7,4.3,9.7,9.7v44.8c0,5.3-4.4,9.7-9.7,9.7H125.7c-5.4,0-9.7-4.3-9.7-9.7V233
					c0-5.3,4.4-9.7,9.7-9.7H386.3 M386.3,200.7H125.7c-18,0-32.5,14.5-32.5,32.4v44.8c0,17.9,14.6,32.4,32.5,32.4h260.6
					c18,0,32.5-14.5,32.5-32.4V233C418.8,215.2,404.3,200.7,386.3,200.7L386.3,200.7z"/>
			</g>
		</g>
	</g>
	<g>
		<g>
			<path fill="#414042" d="M394.7,209.7H117.3c-18,0-32.7-14.6-32.7-32.6v-61.5c0-17.9,14.7-32.6,32.7-32.6h277.4
				c18,0,32.7,14.6,32.7,32.6v61.5C427.4,195.1,412.7,209.7,394.7,209.7z M117.3,100.1c-8.6,0-15.6,7-15.6,15.5v61.5
				c0,8.6,7,15.5,15.6,15.5h277.4c8.6,0,15.6-7,15.6-15.5v-61.5c0-8.6-7-15.5-15.6-15.5H117.3z"/>
		</g>
	</g>
	<g>
		<g>
			<path fill="#414042" d="M394.7,318.8H117.3c-18,0-32.7-14.6-32.7-32.5v-61.5c0-17.9,14.7-32.5,32.7-32.5h277.4
				c18,0,32.7,14.6,32.7,32.5v61.5C427.4,304.2,412.7,318.8,394.7,318.8z M117.3,209.2c-8.6,0-15.6,7-15.6,15.5v61.5
				c0,8.6,7,15.5,15.6,15.5h277.4c8.6,0,15.6-7,15.6-15.5v-61.5c0-8.6-7-15.5-15.6-15.5H117.3z"/>
		</g>
	</g>
	<g>
		<g>
			<path fill="#414042" d="M394.7,428.9H117.3c-18,0-32.7-14.6-32.7-32.6v-61.5c0-17.9,14.7-32.5,32.7-32.5h277.4
				c18,0,32.7,14.6,32.7,32.5v61.5C427.4,414.3,412.7,428.9,394.7,428.9z M117.3,319.3c-8.6,0-15.6,7-15.6,15.5v61.5
				c0,8.6,7,15.5,15.6,15.5h277.4c8.6,0,15.6-7,15.6-15.5v-61.5c0-8.6-7-15.5-15.6-15.5H117.3z"/>
		</g>
	</g>
	<g>
		<g>
			<path fill="#AFDBEF" d="M204.5,254c1.7-1,2.9-2.2,3.8-3.6c1-1.7,1.5-3.7,1.5-6.2c0-8.2-4.5-12.3-13.4-12.3h-10.6H178h-6.3v7.5
				h6.3v32.1h-6.2v7.6h6.2v0h19.8c6,0,10.4-1.6,13.4-4.8c2-2.2,3-5.1,3-8.6c0-2.7-0.6-5.1-1.9-7.2
				C210.9,256.3,208.3,254.8,204.5,254z M190.3,241.2h2.3c1.2,0,2.1,0.1,2.8,0.3c1.9,0.7,2.9,2.1,2.9,4.3c0,1.2-0.4,2.3-1.1,3.1
				c-0.9,1-2.4,1.6-4.6,1.6h-2.3V241.2z M199.6,268.6c-1.2,0.7-3.4,1.1-6.6,1.1h-2.7v-10h2.5c2.2,0,3.7,0.1,4.6,0.2
				c2.8,0.5,4.3,2.1,4.3,4.8C201.8,266.5,201.1,267.8,199.6,268.6z"/>
		</g>
	</g>
	<g>
		<g>
			<path fill="#AFDBEF" d="M260.5,231.8h-13.5l-15.8,40.9h-5.6v6.3h3.1h13h5.6v-6.3h-2.9l2-4.8h14.8l1.6,4.8h-3.6v6.3h5.8h13.2h2.8
				v-6.3H276L260.5,231.8z M248.5,261.5l5.2-15.1l5.1,15.1H248.5z"/>
		</g>
	</g>
	<g>
		<g>
			<path fill="#AFDBEF" d="M322.8,259.7c2.8-0.6,5-1.7,6.6-3.3c2.5-2.5,3.8-5.8,3.8-10c0-3.6-1.1-6.8-3.3-9.5c-2.7-3.3-6.8-5-12.5-5
				H305v0h-12.1v7.6h5.4v33.4h-5.4v6.3h5.4h12.4h4v-6.3h-4V261l7.9,12.2v5.9h3.9h15.3h2.6v-6.3h-7.5L322.8,259.7z M312.9,253h-2.3
				v-11.8h2.3c2.6,0,4.5,0.5,5.6,1.6c1.2,1.2,1.9,2.6,1.9,4.2s-0.6,3.1-1.9,4.3C317.4,252.4,315.5,253,312.9,253z"/>
		</g>
	</g>
	<g>
		<g>
			<path fill="#AFDBEF" d="M204.5,364.1c1.7-1,2.9-2.2,3.8-3.6c1-1.7,1.5-3.7,1.5-6.2c0-8.2-4.5-12.3-13.4-12.3h-10.6H178h-6.3v7.5
				h6.3v32.1h-6.2v7.6h6.2v0h19.8c6,0,10.4-1.6,13.4-4.8c2-2.2,3-5.1,3-8.6c0-2.7-0.6-5.1-1.9-7.2
				C210.9,366.4,208.3,364.9,204.5,364.1z M190.3,351.3h2.3c1.2,0,2.1,0.1,2.8,0.3c1.9,0.7,2.9,2.1,2.9,4.3c0,1.2-0.4,2.3-1.1,3.1
				c-0.9,1-2.4,1.6-4.6,1.6h-2.3V351.3z M199.6,378.8c-1.2,0.7-3.4,1.1-6.6,1.1h-2.7v-10h2.5c2.2,0,3.7,0.1,4.6,0.2
				c2.8,0.5,4.3,2.1,4.3,4.8C201.8,376.7,201.1,378,199.6,378.8z"/>
		</g>
	</g>
	<g>
		<g>
			<path fill="#AFDBEF" d="M260.5,342h-13.5l-15.8,40.9h-5.6v6.3h3.1h13h5.6v-6.3h-2.9l2-4.8h14.8l1.6,4.8h-3.6v6.3h5.8h13.2h2.8
				v-6.3H276L260.5,342z M248.5,371.7l5.2-15.1l5.1,15.1H248.5z"/>
		</g>
	</g>
	<g>
		<g>
			<path fill="#AFDBEF" d="M322.8,369.9c2.8-0.6,5-1.7,6.6-3.3c2.5-2.5,3.8-5.8,3.8-10c0-3.6-1.1-6.8-3.3-9.5c-2.7-3.3-6.8-5-12.5-5
				H305v0h-12.1v7.6h5.4v33.4h-5.4v6.3h5.4h12.4h4v-6.3h-4v-11.8l7.9,12.2v5.9h3.9h15.3h2.6v-6.3h-7.5L322.8,369.9z M312.9,363.1
				h-2.3v-11.8h2.3c2.6,0,4.5,0.5,5.6,1.6c1.2,1.2,1.9,2.6,1.9,4.2s-0.6,3.1-1.9,4.3C317.4,362.6,315.5,363.1,312.9,363.1z"/>
		</g>
	</g>
	<g>
		<g>
			<path fill="#AFDBEF" d="M204.5,145.6c1.7-1,2.9-2.2,3.8-3.6c1-1.7,1.5-3.7,1.5-6.2c0-8.2-4.5-12.3-13.4-12.3h-10.6H178h-6.3v7.5
				h6.3v32.1h-6.2v7.6h6.2v0h19.8c6,0,10.4-1.6,13.4-4.8c2-2.2,3-5.1,3-8.6c0-2.7-0.6-5.1-1.9-7.2
				C210.9,147.9,208.3,146.4,204.5,145.6z M190.3,132.8h2.3c1.2,0,2.1,0.1,2.8,0.3c1.9,0.7,2.9,2.1,2.9,4.3c0,1.2-0.4,2.3-1.1,3.1
				c-0.9,1-2.4,1.6-4.6,1.6h-2.3V132.8z M199.6,160.3c-1.2,0.7-3.4,1.1-6.6,1.1h-2.7v-10h2.5c2.2,0,3.7,0.1,4.6,0.2
				c2.8,0.5,4.3,2.1,4.3,4.8C201.8,158.2,201.1,159.5,199.6,160.3z"/>
		</g>
	</g>
	<g>
		<g>
			<path fill="#AFDBEF" d="M260.5,123.5h-13.5l-15.8,40.9h-5.6v6.3h3.1h13h5.6v-6.3h-2.9l2-4.8h14.8l1.6,4.8h-3.6v6.3h5.8h13.2h2.8
				v-6.3H276L260.5,123.5z M248.5,153.2l5.2-15.1l5.1,15.1H248.5z"/>
		</g>
	</g>
	<g>
		<g>
			<path fill="#AFDBEF" d="M322.8,151.4c2.8-0.6,5-1.7,6.6-3.3c2.5-2.5,3.8-5.8,3.8-10c0-3.6-1.1-6.8-3.3-9.5c-2.7-3.3-6.8-5-12.5-5
				H305v0h-12.1v7.6h5.4v33.4h-5.4v6.3h5.4h12.4h4v-6.3h-4v-11.8l7.9,12.2v5.9h3.9h15.3h2.6v-6.3h-7.5L322.8,151.4z M312.9,144.6
				h-2.3v-11.8h2.3c2.6,0,4.5,0.5,5.6,1.6c1.2,1.2,1.9,2.6,1.9,4.2c0,1.7-0.6,3.1-1.9,4.3C317.4,144.1,315.5,144.6,312.9,144.6z"/>
		</g>
	</g>
</g>
</svg>
