<?xml version="1.0" encoding="utf-8"?>
<!-- Generator: Adobe Illustrator 18.0.0, SVG Export Plug-In . SVG Version: 6.00 Build 0)  -->
<!DOCTYPE svg PUBLIC "-//W3C//DTD SVG 1.1//EN" "http://www.w3.org/Graphics/SVG/1.1/DTD/svg11.dtd">
<svg version="1.1" id="Layer_1" xmlns="http://www.w3.org/2000/svg" xmlns:xlink="http://www.w3.org/1999/xlink" x="0px" y="0px"
	 viewBox="0 0 512 512" enable-background="new 0 0 512 512" xml:space="preserve">
<g>
	<g>
		<g>
			<circle fill="#E6E7E8" cx="255.7" cy="256" r="163.3"/>
		</g>
	</g>
	<g>
		<g>
			<path fill="#C6C6C5" d="M419,259.2c0,89-72.1,161.1-161.1,161.1c-19.6,0-38.3-3.5-55.7-9.9c24.3-4.6,48.2-11.9,70.8-21.9
				c41.4-18.3,79.2-45.5,106.5-81.6c17.2-22.7,30.1-49,36.8-76.6C418.1,239.7,419,249.3,419,259.2z"/>
		</g>
	</g>
	<g>
		<g>
			<path fill="#414042" d="M255.7,427.9c-94.8,0-171.9-77.1-171.9-171.9S160.9,84.1,255.7,84.1S427.6,161.2,427.6,256
				S350.5,427.9,255.7,427.9z M255.7,101.3C170.4,101.3,101,170.7,101,256s69.4,154.7,154.7,154.7S410.4,341.3,410.4,256
				S341,101.3,255.7,101.3z"/>
		</g>
	</g>
	<g>
		<g>
			<path fill="#414042" d="M158,395.4c-1.8,0-3.6-0.6-5.1-1.7c-43.8-32.8-69-83-69-137.7s25.1-104.9,69-137.7c1.9-1.4,4.4-2,6.7-1.6
				c2.4,0.4,4.4,1.8,5.7,3.9c21.7,34.6,34.1,83.9,34.1,135.4s-12.4,100.8-34.1,135.4c-1.3,2-3.3,3.4-5.7,3.9
				C159,395.4,158.5,395.4,158,395.4z M155.5,138.1C120.8,167.6,101,210,101,256s19.8,88.4,54.5,117.9c17-31.3,26.6-73.7,26.6-117.9
				S172.5,169.4,155.5,138.1z"/>
		</g>
	</g>
	<g>
		<g>
			<path fill="#414042" d="M158,395.4c-1.8,0-3.6-0.6-5.1-1.7c-43.8-32.8-69-83-69-137.7s25.1-104.9,69-137.7c1.9-1.4,4.4-2,6.7-1.6
				c2.4,0.4,4.4,1.8,5.7,3.9c21.7,34.6,34.1,83.9,34.1,135.4s-12.4,100.8-34.1,135.4c-1.3,2-3.3,3.4-5.7,3.9
				C159,395.4,158.5,395.4,158,395.4z M155.5,138.1C120.8,167.6,101,210,101,256s19.8,88.4,54.5,117.9c17-31.3,26.6-73.7,26.6-117.9
				S172.5,169.4,155.5,138.1z"/>
		</g>
	</g>
	<g>
		<g>
			<path fill="#414042" d="M152.5,172.8c-2.3,0-4.6-0.9-6.3-2.8c-3.2-3.5-3-8.9,0.5-12.1c0.9-0.9,23.1-20.8,48.2-16.9
				c4.7,0.7,7.9,5.1,7.2,9.8c-0.7,4.7-5.1,7.9-9.8,7.2c-16.8-2.6-33.8,12.5-33.9,12.6C156.7,172.1,154.6,172.8,152.5,172.8z"/>
		</g>
	</g>
	<g>
		<g>
			<path fill="#414042" d="M162.7,211.5c-2.3,0-4.6-0.9-6.3-2.8c-3.2-3.5-3-8.9,0.5-12.1c0.9-0.8,21.8-19.9,49.6-14.1
				c4.6,1,7.6,5.5,6.6,10.2c-1,4.6-5.5,7.6-10.2,6.6c-18.9-4-34.2,9.7-34.4,9.9C166.9,210.8,164.8,211.5,162.7,211.5z"/>
		</g>
	</g>
	<g>
		<g>
			<path fill="#414042" d="M169.3,247.9c-2.7,0-5.4-1.3-7.1-3.7c-2.7-3.9-1.8-9.2,2.1-12c1-0.7,24.4-16.7,51-7.1
				c4.5,1.6,6.8,6.5,5.2,11c-1.6,4.5-6.5,6.8-11,5.2c-18.4-6.6-35.2,4.9-35.4,5C172.8,247.4,171,247.9,169.3,247.9z"/>
		</g>
	</g>
	<g>
		<g>
			<path fill="#414042" d="M212.7,288.7c-1.5,0-3-0.4-4.3-1.2c-16.9-9.9-35.6-1.9-35.8-1.8c-4.3,1.9-9.4-0.1-11.3-4.4
				c-1.9-4.3,0.1-9.4,4.4-11.3c1.1-0.5,27-11.5,51.4,2.7c4.1,2.4,5.5,7.7,3.1,11.8C218.6,287.2,215.7,288.7,212.7,288.7z"/>
		</g>
	</g>
	<g>
		<g>
			<path fill="#414042" d="M205.8,329.7c-1.8,0-3.7-0.6-5.3-1.8c-15.5-12-35-6.5-35.2-6.5c-4.6,1.3-9.3-1.3-10.7-5.8
				c-1.3-4.6,1.3-9.3,5.8-10.7c1.1-0.3,28.2-8,50.6,9.4c3.8,2.9,4.4,8.3,1.5,12.1C210.9,328.5,208.4,329.7,205.8,329.7z"/>
		</g>
	</g>
	<g>
		<g>
			<path fill="#414042" d="M193.8,371.8c-2.2,0-4.4-0.8-6.1-2.5c-13.8-13.9-33.9-11-34.1-11c-4.7,0.7-9.1-2.5-9.8-7.2
				c-0.7-4.7,2.5-9.1,7.2-9.8c1.2-0.2,29-4.2,48.9,15.8c3.3,3.4,3.3,8.8,0,12.2C198.2,371,196,371.8,193.8,371.8z"/>
		</g>
	</g>
	<g>
		<g>
			<path fill="#414042" d="M354,395.4c-0.5,0-1.1,0-1.6-0.1c-2.4-0.4-4.4-1.8-5.7-3.9c-21.7-34.6-34.1-83.9-34.1-135.4
				s12.4-100.8,34.1-135.4c1.3-2,3.3-3.4,5.7-3.9c2.4-0.4,4.8,0.1,6.7,1.6c43.8,32.8,69,83,69,137.7s-25.1,104.9-69,137.7
				C357.7,394.8,355.9,395.4,354,395.4z M356.5,138.1c-17,31.3-26.6,73.7-26.6,117.9s9.6,86.6,26.6,117.9
				C391.2,344.4,411,302,411,256S391.2,167.6,356.5,138.1z"/>
		</g>
	</g>
	<g>
		<g>
			<path fill="#414042" d="M354,395.4c-0.5,0-1.1,0-1.6-0.1c-2.4-0.4-4.4-1.8-5.7-3.9c-21.7-34.6-34.1-83.9-34.1-135.4
				s12.4-100.8,34.1-135.4c1.3-2,3.3-3.4,5.7-3.9c2.4-0.4,4.8,0.1,6.7,1.6c43.8,32.8,69,83,69,137.7s-25.1,104.9-69,137.7
				C357.7,394.8,355.9,395.4,354,395.4z M356.5,138.1c-17,31.3-26.6,73.7-26.6,117.9s9.6,86.6,26.6,117.9
				C391.2,344.4,411,302,411,256S391.2,167.6,356.5,138.1z"/>
		</g>
	</g>
	<g>
		<g>
			<path fill="#414042" d="M359.5,172.8c-2.1,0-4.1-0.7-5.8-2.2c-0.3-0.3-17.1-15.2-34-12.6c-4.7,0.7-9.1-2.5-9.8-7.2
				c-0.7-4.7,2.5-9.1,7.2-9.8c25.1-3.9,47.2,16.1,48.2,16.9c3.5,3.2,3.7,8.6,0.5,12.1C364.1,171.9,361.8,172.8,359.5,172.8z"/>
		</g>
	</g>
	<g>
		<g>
			<path fill="#414042" d="M349.3,211.5c-2.1,0-4.2-0.7-5.8-2.3c-0.3-0.2-15.6-13.8-34.4-9.9c-4.6,1-9.2-2-10.2-6.6
				c-1-4.6,2-9.2,6.6-10.2c27.7-5.8,48.7,13.3,49.6,14.1c3.5,3.2,3.7,8.7,0.5,12.1C353.9,210.6,351.6,211.5,349.3,211.5z"/>
		</g>
	</g>
	<g>
		<g>
			<path fill="#414042" d="M342.7,247.9c-1.7,0-3.4-0.5-4.9-1.5c-0.3-0.2-17.3-11.6-35.4-5.1c-4.5,1.6-9.4-0.7-11-5.2
				c-1.6-4.5,0.7-9.4,5.2-11c26.7-9.6,50.1,6.5,51,7.1c3.9,2.7,4.8,8.1,2.1,12C348,246.6,345.4,247.9,342.7,247.9z"/>
		</g>
	</g>
	<g>
		<g>
			<path fill="#414042" d="M299.3,288.7c-3,0-5.8-1.5-7.4-4.3c-2.4-4.1-1-9.4,3.1-11.8c24.4-14.3,50.3-3.2,51.4-2.7
				c4.3,1.9,6.3,7,4.4,11.3c-1.9,4.3-7,6.3-11.3,4.4c-0.3-0.1-19.2-7.9-35.8,1.8C302.3,288.3,300.8,288.7,299.3,288.7z"/>
		</g>
	</g>
	<g>
		<g>
			<path fill="#414042" d="M306.2,329.7c-2.6,0-5.1-1.1-6.8-3.3c-2.9-3.8-2.2-9.1,1.5-12.1c22.3-17.3,49.4-9.7,50.6-9.4
				c4.6,1.3,7.2,6.1,5.8,10.7c-1.3,4.5-6.1,7.2-10.6,5.9c-0.4-0.1-20-5.4-35.3,6.4C309.9,329.1,308,329.7,306.2,329.7z"/>
		</g>
	</g>
	<g>
		<g>
			<path fill="#414042" d="M318.2,371.8c-2.2,0-4.4-0.8-6.1-2.5c-3.4-3.3-3.4-8.8,0-12.2c19.9-20.1,47.8-16,48.9-15.8
				c4.7,0.7,7.9,5.1,7.2,9.8c-0.7,4.7-5.1,7.9-9.8,7.2c-0.4-0.1-20.6-2.7-34.2,11C322.6,371,320.4,371.8,318.2,371.8z"/>
		</g>
	</g>
</g>
</svg>
