<?xml version="1.0" encoding="utf-8"?>
<!-- Generator: Adobe Illustrator 18.0.0, SVG Export Plug-In . SVG Version: 6.00 Build 0)  -->
<!DOCTYPE svg PUBLIC "-//W3C//DTD SVG 1.1//EN" "http://www.w3.org/Graphics/SVG/1.1/DTD/svg11.dtd">
<svg version="1.1" id="Layer_1" xmlns="http://www.w3.org/2000/svg" xmlns:xlink="http://www.w3.org/1999/xlink" x="0px" y="0px"
	 viewBox="0 0 512 512" enable-background="new 0 0 512 512" xml:space="preserve">
<g>
	<g>
		<g>
			<circle fill="#EDB940" cx="256" cy="256" r="163.3"/>
		</g>
	</g>
	<g>
		<g>
			<path fill="#BB8B30" d="M419.3,256c0,89-72.1,161.1-161.1,161.1c-19.6,0-38.3-3.5-55.7-9.9c24.3-4.6,48.2-11.9,70.8-21.9
				c41.4-18.3,79.2-45.5,106.5-81.6c17.2-22.7,30.1-49,36.8-76.6C418.4,236.5,419.3,246.1,419.3,256z"/>
		</g>
	</g>
	<g>
		<g>
			<path fill="#414042" d="M256,427.9c-94.8,0-171.9-77.1-171.9-171.9S161.2,84.1,256,84.1S427.9,161.2,427.9,256
				S350.8,427.9,256,427.9z M256,101.3c-85.3,0-154.7,69.4-154.7,154.7S170.7,410.7,256,410.7S410.7,341.3,410.7,256
				S341.3,101.3,256,101.3z"/>
		</g>
	</g>
	<g>
		<g>
			<path fill="#414042" d="M142,381.5c-2.2,0-4.3-0.8-6-2.4c-33.5-32.6-51.9-76.3-51.9-123c0-46.7,18.4-90.4,51.9-123
				c3.2-3.1,8.3-3.3,11.6-0.3c34.7,30.3,76,76.2,76,123.4s-41.4,93.1-76,123.4C146,380.8,144,381.5,142,381.5z M142.4,151
				c-26.6,28.6-41.1,65.6-41.1,105c0,39.4,14.5,76.4,41.1,105c30.6-27.8,64.1-66.9,64.1-105S173,178.7,142.4,151z"/>
		</g>
	</g>
	<g>
		<g>
			<path fill="#414042" d="M370,381.5c-2,0-4-0.7-5.6-2.1c-34.7-30.3-76-76.2-76-123.4s41.4-93.1,76-123.4c3.4-2.9,8.4-2.8,11.6,0.3
				c33.5,32.6,51.9,76.3,51.9,123c0,46.7-18.4,90.4-51.9,123C374.3,380.7,372.2,381.5,370,381.5z M369.6,151
				c-30.6,27.8-64.1,66.9-64.1,105s33.5,77.3,64.1,105c26.6-28.6,41.1-65.6,41.1-105S396.1,179.6,369.6,151z"/>
		</g>
	</g>
	<g>
		<g>
			<path fill="#414042" d="M256,427.9c-4.7,0-8.6-3.8-8.6-8.6V92.7c0-4.7,3.8-8.6,8.6-8.6s8.6,3.8,8.6,8.6v326.5
				C264.6,424,260.7,427.9,256,427.9z"/>
		</g>
	</g>
	<g>
		<g>
			<path fill="#414042" d="M419.3,264.6H92.7c-4.7,0-8.6-3.8-8.6-8.6s3.8-8.6,8.6-8.6h326.5c4.7,0,8.6,3.8,8.6,8.6
				S424,264.6,419.3,264.6z"/>
		</g>
	</g>
	<g>
		<g>
			<path fill="#414042" d="M370,381.5c-2,0-4-0.7-5.6-2.1c-34.7-30.3-76-76.2-76-123.4s41.4-93.1,76-123.4c3.4-2.9,8.4-2.8,11.6,0.3
				c33.5,32.6,51.9,76.3,51.9,123c0,46.7-18.4,90.4-51.9,123C374.3,380.7,372.2,381.5,370,381.5z M369.6,151
				c-30.6,27.8-64.1,66.9-64.1,105s33.5,77.3,64.1,105c26.6-28.6,41.1-65.6,41.1-105S396.1,179.6,369.6,151z"/>
		</g>
	</g>
	<g>
		<g>
			<path fill="#414042" d="M142,381.5c-2.2,0-4.3-0.8-6-2.4c-33.5-32.6-51.9-76.3-51.9-123c0-46.7,18.4-90.4,51.9-123
				c3.2-3.1,8.3-3.3,11.6-0.3c34.7,30.3,76,76.2,76,123.4s-41.4,93.1-76,123.4C146,380.8,144,381.5,142,381.5z M142.4,151
				c-26.6,28.6-41.1,65.6-41.1,105c0,39.4,14.5,76.4,41.1,105c30.6-27.8,64.1-66.9,64.1-105S173,178.7,142.4,151z"/>
		</g>
	</g>
</g>
</svg>
