<?xml version="1.0" encoding="utf-8"?>
<!-- Generator: Adobe Illustrator 18.0.0, SVG Export Plug-In . SVG Version: 6.00 Build 0)  -->
<!DOCTYPE svg PUBLIC "-//W3C//DTD SVG 1.1//EN" "http://www.w3.org/Graphics/SVG/1.1/DTD/svg11.dtd">
<svg version="1.1" id="Layer_1" xmlns="http://www.w3.org/2000/svg" xmlns:xlink="http://www.w3.org/1999/xlink" x="0px" y="0px"
	 viewBox="0 0 512 512" enable-background="new 0 0 512 512" xml:space="preserve">
<g>
	<g>
		<g>
			<ellipse fill="#414042" cx="256" cy="108.9" rx="21.5" ry="21.3"/>
		</g>
	</g>
	<g>
		<g>
			<g>
				<ellipse fill="#CF743B" cx="256" cy="402.3" rx="33.9" ry="33.7"/>
			</g>
		</g>
		<g>
			<g>
				<path fill="#414042" d="M256,444.5c-23.4,0-42.4-18.9-42.4-42.2c0-23.3,19-42.2,42.4-42.2s42.4,18.9,42.4,42.2
					C298.4,425.6,279.4,444.5,256,444.5z M256,377.2c-13.9,0-25.3,11.3-25.3,25.2c0,13.9,11.3,25.2,25.3,25.2
					c13.9,0,25.3-11.3,25.3-25.2C281.3,388.5,269.9,377.2,256,377.2z"/>
			</g>
		</g>
		<g>
			<g>
				<path fill="#ECB636" d="M394.2,345.6c-21-20.3-32.2-48.6-32.2-77.7V235c0-1.1,0-2.2,0-3.3c-0.8-36.3-21.5-67.5-51.5-84.1h0
					c0,0-0.1,0-0.1,0c-2-1.1-4.1-2.2-6.2-3.2c-12.7-8.4-14.1-23.4-14-30.4c0.1-1.2,0.2-2.5,0.2-3.8C290.4,91.3,275,76,256,76
					c-19,0-34.4,15.4-34.4,34.2c0,0,0,0,0,0l0,0c0,0,0,0.1,0,0.4c0,1.1,0.1,2.2,0.2,3.2c0.1,6.9-1.2,22.2-14,30.6
					c-2.1,1-4.1,2-6,3.1c-0.1,0-0.1,0.1-0.2,0.1h0c-30,16.6-50.7,47.8-51.5,84.1c0,1.1,0,2.2,0,3.3v32.9c0,29.1-11.3,57.4-32.2,77.7
					c-9.5,9.2-17.4,21.4-17.4,36.3l0,0c102,27.2,209.3,27.2,311.3,0l0,0C411.6,367,403.7,354.8,394.2,345.6z M256,96.4
					c7.7,0,13.9,6.2,13.9,13.8c0,7.6-6.2,13.8-13.9,13.8c-7.7,0-13.9-6.2-13.9-13.8C242.1,102.6,248.3,96.4,256,96.4z"/>
			</g>
		</g>
		<g>
			<g>
				<g>
					<path fill="#BB8B30" d="M214.1,350.4c0,0,2.6,0.2,7.5,0.1C216.8,350.4,214.1,350.4,214.1,350.4z M406.5,361.6
						c-3.2-6.1-7.5-11.4-12.3-16C373.3,325.3,362,297,362,267.9v-10.8c-1.3,26.5-9.4,54.9-50.6,72.5c-41.2,17.6-75.3,20.5-89.8,20.8
						c32.2,0.5,159,3.9,189.8,27.1C410.8,371.8,409,366.5,406.5,361.6z"/>
				</g>
			</g>
		</g>
		<g>
			<g>
				<path fill="#BB8B30" d="M214.1,350.4c0,0,2.7,0,7.5,0.1C216.8,350.6,214.1,350.4,214.1,350.4z"/>
			</g>
		</g>
		<g>
			<g>
				<path fill="#BB8B30" d="M239.6,402.1c28.7-18.4,14.2-51.2-18-51.7c14.5-0.3,69.5-4.9,100.7-37c34.8-35.8,32.5-69.4,34.4-111
					l5.2,65.5c0,29.1,11.3,57.4,32.2,77.7c4.8,4.6,9.3,9.9,12.3,16C427.8,405.9,239,396.3,239.6,402.1z"/>
			</g>
		</g>
		<g>
			<g>
				<path fill="#414042" d="M256,410.8c-53.3,0-106.4-7-157.9-20.7c-3.7-1-6.3-4.4-6.3-8.2c0-15.3,6.7-29.5,20-42.4
					c18.8-18.3,29.6-44.4,29.6-71.6V235c0-1.2,0-2.3,0-3.5c0.9-37.6,22.1-72.4,55.4-91.1c0.3-0.2,0.7-0.4,1.1-0.6
					c1.9-1,3.7-2,5.6-2.9c8.5-6,9.8-16.6,9.7-22.7c-0.1-1-0.2-2-0.2-3.1c-0.1-0.5-0.1-1.1,0-1.6c0.3-23.3,19.5-42.1,42.9-42.1
					c23.7,0,42.9,19.2,42.9,42.7c0,1.4-0.1,2.8-0.2,4.2c0,6.1,1.3,16.6,9.7,22.5c1.9,0.9,3.7,1.8,5.6,2.9c0.4,0.2,0.9,0.4,1.2,0.7
					c33.2,18.7,54.4,53.5,55.2,91c0,1.2,0,2.3,0,3.5v32.9c0,27.2,10.8,53.3,29.6,71.6c13.3,12.9,20,27.2,20,42.4
					c0,3.9-2.6,7.2-6.3,8.2C362.4,403.9,309.3,410.8,256,410.8z M109.6,375.5c47.8,12.1,97.1,18.3,146.4,18.3s98.6-6.2,146.4-18.3
					c-1.6-8.2-6.4-16.2-14.2-23.8c-22.1-21.5-34.8-52-34.8-83.8V235c0-1,0-2.1,0-3.1c-0.7-31.8-18.8-61.2-47.1-76.9c0,0,0,0-0.1,0
					c0,0,0,0,0,0c-1.9-1-3.8-2-5.7-2.9c-0.4-0.2-0.8-0.4-1.1-0.6c-16.3-10.8-17.9-29.9-17.8-37.6c0-0.3,0-0.6,0.1-0.8
					c0.1-1,0.2-1.9,0.2-2.8c0-14.2-11.6-25.7-25.8-25.7c-14.2,0-25.7,11.4-25.8,25.5c0,0.2,0,0.3,0,0.5c0,0.9,0.1,1.7,0.1,2.4
					c0,0.3,0,0.5,0,0.8c0.1,7.8-1.4,27-17.8,37.8c-0.3,0.2-0.7,0.4-1.1,0.6c-1.8,0.8-3.7,1.8-5.5,2.8c0,0-0.1,0.1-0.1,0.1
					c0,0,0,0,0,0c-28.3,15.7-46.4,45.1-47.1,76.9c0,1,0,2.1,0,3.1v32.9c0,31.8-12.7,62.3-34.8,83.8
					C115.9,359.3,111.2,367.3,109.6,375.5z"/>
			</g>
		</g>
		<g>
			<g>
				<path fill="#414042" d="M255.7,360.8c-75.4,0-127.7-16.9-131-17.9c-4.5-1.5-6.9-6.3-5.4-10.8c1.5-4.5,6.3-6.9,10.8-5.4
					c1.5,0.5,117.7,37.7,252-0.1c4.5-1.3,9.3,1.4,10.6,5.9c1.3,4.5-1.4,9.2-5.9,10.5C339.4,356.3,294.5,360.8,255.7,360.8z"/>
			</g>
		</g>
		<g>
			<g>
				<path fill="#FFCE6D" d="M203.2,181.1c-13.9,13.7-18.6,31.4-10.5,39.5c8.1,8.1,25.9,3.6,39.8-10.2c13.9-13.7,18.6-31.4,10.5-39.5
					C234.9,162.8,217.1,167.4,203.2,181.1z"/>
			</g>
		</g>
	</g>
</g>
</svg>
