<?xml version="1.0" encoding="utf-8"?>
<!-- Generator: Adobe Illustrator 18.0.0, SVG Export Plug-In . SVG Version: 6.00 Build 0)  -->
<!DOCTYPE svg PUBLIC "-//W3C//DTD SVG 1.1//EN" "http://www.w3.org/Graphics/SVG/1.1/DTD/svg11.dtd">
<svg version="1.1" id="Layer_1" xmlns="http://www.w3.org/2000/svg" xmlns:xlink="http://www.w3.org/1999/xlink" x="0px" y="0px"
	 viewBox="0 0 512 512" enable-background="new 0 0 512 512" xml:space="preserve">
<g>
	<g>
		<g>
			<path fill="#414042" d="M301.2,391.2h-78.5c-0.8,0-1.5-0.1-2.3-0.2h-39.3c-5.6,0-10.8-2.9-13.8-7.6l-2.8-4.5l-2.6,4.3
				c-2.9,4.9-8.2,7.8-13.9,7.8H85.9c-8.9,0-16.2-7.2-16.2-16.1v-47.2c0-6.8,4.2-12.6,10.2-14.9c-6-2.4-10.2-8.2-10.2-14.9v-48.1
				c0-1.3,0.1-2.5,0.4-3.6v-31c0-7.3,4.9-13.4,11.6-15.4c-6.7-2-11.6-8.1-11.6-15.4v-47.3c0-8.9,7.2-16.1,16.2-16.1h58.2
				c0.3,0,0.6,0,0.9,0h36.1c10,0,19.1,1.8,27,5.2c3-3.2,7.2-5.2,11.9-5.2h78.5c3.2,0,6.3,0.9,8.8,2.6c4.8-1.7,9.9-2.6,15.1-2.6h62.9
				c23.7,0,43.1,18.9,43.8,42.3c7.3,1.5,12.8,8,12.8,15.7v50.7c0,3.8-1.3,7.3-3.5,10.1c2.2,2.8,3.5,6.3,3.5,10.1v47.2
				c0,6.7-4.1,12.4-9.9,14.8c5.8,2.4,9.9,8.2,9.9,14.8v48.1c0,8.9-7.2,16.1-16.2,16.1H304.8C303.6,391.1,302.4,391.2,301.2,391.2z
				 M225,359h72.7c1.2-0.3,2.3-0.4,3.6-0.4h108.7v-16.3c-7.3-1.5-12.8-8-12.8-15.7v-29.7c0-7.7,5.5-14.2,12.8-15.7v-15.4h-2.8
				c-6.2,0-11.8-3.5-14.5-9c-2.7-5.5-2-12.1,1.8-16.9c1.2-1.6,2.7-4.2,2.7-7.8v-2.4c0-7.7,5.5-14.2,12.8-15.7v-19.2
				c-7.3-1.5-12.8-8-12.8-15.7v-14.5c0-6.3-5.1-11.4-11.5-11.4h-62.9c-4.2,0-8.1,2.1-10.6,5.5c-4,5.8-11.4,8.3-18.1,6.2
				c-5.5-1.7-9.6-6.2-10.9-11.7h-46.6v6.2c0,3.3-1,6.4-2.8,9c8.2,0.7,14.7,7.6,14.7,16v30.8c0,8.9-7.2,16.1-16.2,16.1
				c-8.3,0-15.3-6.2-16.1-14.4c-0.4-4-1.6-7.5-3.5-10.7c-0.6-1-1.4-2-2.4-2.9c-4.7-4.4-6.3-11.1-4.1-17.2c0.5-1.3,0.8-2.7,1-4.2
				c0.5-3.5,2.2-6.6,4.6-9c-2.7-1.7-5-4.3-6.3-7.5c-3.4-8.2-11.5-12.3-24-12.3h-37c-0.3,0-0.6,0-0.9,0h-41.1v15.6
				c7.2,1.6,12.6,8,12.6,15.7v30.8c0,7.7-5.4,14.1-12.6,15.7v18.9c0,1.3-0.1,2.5-0.4,3.6V282c7.6,1.3,13.4,7.9,13.4,15.9v29.9
				c0,7.9-5.8,14.6-13.4,15.9v15.3H139l11.5-19.2c2.9-4.8,8.1-7.8,13.8-7.8c0,0,0.1,0,0.1,0c5.6,0,10.8,2.9,13.8,7.6l12,19.4h32.5
				C223.5,358.9,224.2,358.9,225,359z M300.7,343.9h-10.6c-8.9,0-16.2-7.2-16.2-16.1v-30.9c0-8.9,7.2-16.1,16.2-16.1h10.6
				c8.9,0,16.2,7.2,16.2,16.1v30.9C316.9,336.7,309.6,343.9,300.7,343.9z M234.6,343.8h-4.9c-8.9,0-16.2-7.2-16.2-16.1v-29.9
				c0-8.9,7.2-16.1,16.2-16.1h4.9c8.9,0,16.2,7.2,16.2,16.1v29.9C250.8,336.6,243.5,343.8,234.6,343.8z M299.8,265.7h-0.8
				c-8.9,0-16.2-7.2-16.2-16.1v-1.1c0-7,4.6-13.2,11.3-15.3c6.7-2.1,14.1,0.4,18.1,6.1l0.3,0.4c3.8,4.9,4.5,11.5,1.7,17
				S305.9,265.7,299.8,265.7z M293.7,231.2h-5.9c-8.9,0-16.2-7.2-16.2-16.1v-30.8c0-8.9,7.2-16.1,16.2-16.1h5.9
				c8.9,0,16.2,7.2,16.2,16.1v30.8C309.9,224,302.6,231.2,293.7,231.2z"/>
		</g>
	</g>
	<g>
		<g>
			<g>
				<path fill="#E6E7E8" d="M413.3,229.6h12.8v-50.7h-12.8v-14.5c0-15.2-12.4-27.5-27.6-27.5h-62.9c-9.9,0-18.6,4.9-23.8,12.4v-12.4
					h-78.5v22.3c-5.9-14.2-19.5-22.3-38.9-22.3h-37v0H86.3v47.3h12.6v30.8H86.3v34.6h-0.4v48.1h13.4v29.9H85.9V375h13.4H130h18.1
					l16.2-27l16.8,27h41.5v0.2h78.5v-0.4h124.9v-48.1h-12.8v-29.7h12.8v-47.2h-18.9c3.8-4.9,6.1-11,6.1-17.7V229.6z M300.7,327.8
					h-10.6v-30.9h10.6V327.8z M229.7,327.7v-29.9h4.9v29.9H229.7z M298.9,249.6v-1.1c0.3,0.4,0.6,0.7,0.8,1.1H298.9z M287.8,184.2
					h5.9v30.8h-5.9V184.2z M232.3,215.1L232.3,215.1c-0.7-6.3-2.6-12.1-5.8-17.4c-1.4-2.3-3.2-4.4-5.2-6.3c0.8-2.3,1.4-4.7,1.8-7.2
					h9.2V215.1z"/>
			</g>
		</g>
		<g>
			<g>
				<g>
					<g>
						<polygon fill="#D04527" points="410.7,281.6 410.7,265 397.9,265 376.6,265 363.3,265 363.3,281.6 376.6,281.6 376.6,322.8 
							337.6,265.4 337.6,265 337.4,265 316.1,265 303,265 303,281.6 316.1,281.6 316.1,343.1 303,343.1 303,359.4 316.1,359.4 
							337.4,359.4 348.7,359.4 348.7,343.1 337.4,343.1 337.4,301.6 376.4,359.2 376.4,359.4 376.6,359.4 397.9,359.4 410.7,359.4 
							410.7,341.9 397.9,341.9 397.9,281.6 						"/>
					</g>
				</g>
				<g>
					<g>
						<polygon fill="#D04527" points="238,281.6 250,281.6 250,343.1 238,343.1 238,359.8 250,359.8 274.8,359.8 285.9,359.8 
							285.9,343.1 274.8,343.1 274.8,281.6 285.9,281.6 285.9,264.9 238,264.9 						"/>
					</g>
				</g>
			</g>
			<g>
				<g>
					<g>
						<path fill="#D04527" d="M197.8,196.6c3.4-2,5.9-4.4,7.5-7.2c2-3.3,2.9-7.5,2.9-12.4c0-16.5-8.9-24.8-26.8-24.8h-52.4v0h-27.4
							v16.8h12.6v61.4h-12.6v16.8h12.6h14.8h55.2c12,0,21-3.2,26.8-9.7c4.1-4.5,6.1-10.2,6.1-17.3c0-5.5-1.3-10.3-3.8-14.4
							C210.6,201.2,205.4,198.2,197.8,196.6z M139.1,171h34.8c2.3,0,4.2,0.2,5.6,0.7c3.9,1.4,5.8,4.2,5.8,8.6c0,2.5-0.7,4.5-2.2,6.2
							c-1.9,2.1-4.9,3.1-9.2,3.1h-34.8V171z M188.1,226.1c-2.5,1.5-6.9,2.2-13.2,2.2h-35.8v-20h35.4c4.4,0,7.5,0.1,9.3,0.4
							c5.7,1,8.6,4.2,8.6,9.7C192.4,221.9,191,224.4,188.1,226.1z"/>
					</g>
				</g>
				<g>
					<g>
						<path fill="#D04527" d="M410.7,194.2h-49.2v20.1h14.3v9.9h-35.6c-3.8,0-6.8-3-6.8-6.8v-36.7c0-3.8,3.1-6.8,6.8-6.8h37.4v11.2
							h20.2l0-11.2h0v-9.6c0-6.7-5.5-12.2-12.3-12.2h-62.9c-7.6,0-13.7,6.1-13.7,13.6V232c0,7.5,6.1,13.6,13.7,13.6h61.5
							c7.6,0,13.7-6.1,13.7-13.6v-17.7h12.8V194.2z"/>
					</g>
				</g>
				<g>
					<g>
						<polygon fill="#D04527" points="235.7,168.9 247.7,168.9 247.7,230.4 235.7,230.4 235.7,247.1 247.7,247.1 272.5,247.1 
							283.6,247.1 283.6,230.4 272.5,230.4 272.5,168.9 283.6,168.9 283.6,152.2 235.7,152.2 						"/>
					</g>
				</g>
			</g>
		</g>
		<g>
			<g>
				<g>
					<g>
						<polygon fill="#D04527" points="410.7,281.6 410.7,265 397.9,265 376.6,265 363.3,265 363.3,281.6 376.6,281.6 376.6,322.8 
							337.6,265.4 337.6,265 337.4,265 316.1,265 303,265 303,281.6 316.1,281.6 316.1,343.1 303,343.1 303,359.4 316.1,359.4 
							337.4,359.4 348.7,359.4 348.7,343.1 337.4,343.1 337.4,301.6 376.4,359.2 376.4,359.4 376.6,359.4 397.9,359.4 410.7,359.4 
							410.7,341.9 397.9,341.9 397.9,281.6 						"/>
					</g>
				</g>
				<g>
					<g>
						<polygon fill="#D04527" points="238,281.6 250,281.6 250,343.1 238,343.1 238,359.8 250,359.8 274.8,359.8 285.9,359.8 
							285.9,343.1 274.8,343.1 274.8,281.6 285.9,281.6 285.9,264.9 238,264.9 						"/>
					</g>
				</g>
			</g>
			<g>
				<g>
					<g>
						<path fill="#D04527" d="M197.8,196.6c3.4-2,5.9-4.4,7.5-7.2c2-3.3,2.9-7.5,2.9-12.4c0-16.5-8.9-24.8-26.8-24.8h-52.4v0h-27.4
							v16.8h12.6v61.4h-12.6v16.8h12.6h14.8h55.2c12,0,21-3.2,26.8-9.7c4.1-4.5,6.1-10.2,6.1-17.3c0-5.5-1.3-10.3-3.8-14.4
							C210.6,201.2,205.4,198.2,197.8,196.6z M139.1,171h34.8c2.3,0,4.2,0.2,5.6,0.7c3.9,1.4,5.8,4.2,5.8,8.6c0,2.5-0.7,4.5-2.2,6.2
							c-1.9,2.1-4.9,3.1-9.2,3.1h-34.8V171z M188.1,226.1c-2.5,1.5-6.9,2.2-13.2,2.2h-35.8v-20h35.4c4.4,0,7.5,0.1,9.3,0.4
							c5.7,1,8.6,4.2,8.6,9.7C192.4,221.9,191,224.4,188.1,226.1z"/>
					</g>
				</g>
				<g>
					<g>
						<path fill="#D04527" d="M410.7,194.2h-49.2v20.1h14.3v9.9h-35.6c-3.8,0-6.8-3-6.8-6.8v-36.7c0-3.8,3.1-6.8,6.8-6.8h37.4v11.2
							h20.2l0-11.2h0v-9.6c0-6.7-5.5-12.2-12.3-12.2h-62.9c-7.6,0-13.7,6.1-13.7,13.6V232c0,7.5,6.1,13.6,13.7,13.6h61.5
							c7.6,0,13.7-6.1,13.7-13.6v-17.7h12.8V194.2z"/>
					</g>
				</g>
				<g>
					<g>
						<polygon fill="#D04527" points="235.7,168.9 247.7,168.9 247.7,230.4 235.7,230.4 235.7,247.1 247.7,247.1 272.5,247.1 
							283.6,247.1 283.6,230.4 272.5,230.4 272.5,168.9 283.6,168.9 283.6,152.2 235.7,152.2 						"/>
					</g>
				</g>
			</g>
		</g>
		<g>
			<g>
				<path fill="#D04527" d="M177,265v17.6h13.4V313l-15.1-23h-22.5l-14.1,22.7v-30.1h13V265h-50.4v17.6h13.4v77.1h24.8l24.7-41.2
					l25.5,41.2h24.6v-77.1h13.1V265H177z"/>
			</g>
		</g>
		<g>
			<g>
				<rect x="101.3" y="343" fill="#D04527" width="13.4" height="16.6"/>
			</g>
		</g>
		<g>
			<g>
				<rect x="214.3" y="343" fill="#D04527" width="13.4" height="16.6"/>
			</g>
		</g>
	</g>
</g>
</svg>
