<?xml version="1.0" encoding="utf-8"?>
<!-- Generator: Adobe Illustrator 18.0.0, SVG Export Plug-In . SVG Version: 6.00 Build 0)  -->
<!DOCTYPE svg PUBLIC "-//W3C//DTD SVG 1.1//EN" "http://www.w3.org/Graphics/SVG/1.1/DTD/svg11.dtd">
<svg version="1.1" id="Layer_1" xmlns="http://www.w3.org/2000/svg" xmlns:xlink="http://www.w3.org/1999/xlink" x="0px" y="0px"
	 viewBox="0 0 512 512" enable-background="new 0 0 512 512" xml:space="preserve">
<g>
	<g>
		<g>
			<rect x="72" y="101.4" fill="#E6E7E8" width="309.3" height="309.3"/>
		</g>
	</g>
	<g>
		<g>
			<rect x="72" y="101.4" fill="#D8AD2F" width="309.3" height="102.8"/>
		</g>
	</g>
	<g>
		<g>
			<g>
				<path fill="#414042" d="M381.3,419.3H72c-4.8,0-8.6-3.9-8.6-8.6V101.4c0-4.8,3.9-8.6,8.6-8.6h309.3c4.8,0,8.6,3.9,8.6,8.6v309.3
					C389.9,415.4,386.1,419.3,381.3,419.3z M80.6,402h292.1V110H80.6V402z"/>
			</g>
		</g>
		<g>
			<g>
				<g>
					<path fill="#414042" d="M176.3,419.3c-4.8,0-8.6-3.9-8.6-8.6V204.2c0-4.8,3.9-8.6,8.6-8.6s8.6,3.9,8.6,8.6v206.5
						C184.9,415.4,181,419.3,176.3,419.3z"/>
				</g>
			</g>
			<g>
				<g>
					<path fill="#414042" d="M277.1,419.3c-4.8,0-8.6-3.9-8.6-8.6v-203c0-4.8,3.9-8.6,8.6-8.6s8.6,3.9,8.6,8.6v203
						C285.7,415.4,281.8,419.3,277.1,419.3z"/>
				</g>
			</g>
		</g>
		<g>
			<g>
				<g>
					<path fill="#414042" d="M381.3,212.8H72c-4.8,0-8.6-3.9-8.6-8.6s3.9-8.6,8.6-8.6h309.3c4.8,0,8.6,3.9,8.6,8.6
						S386.1,212.8,381.3,212.8z"/>
				</g>
			</g>
			<g>
				<g>
					<path fill="#414042" d="M381.3,316.5H72c-4.8,0-8.6-3.9-8.6-8.6s3.9-8.6,8.6-8.6h309.3c4.8,0,8.6,3.9,8.6,8.6
						S386.1,316.5,381.3,316.5z"/>
				</g>
			</g>
		</g>
	</g>
	<g>
		<g>
			<g>
				<path fill="#E6E7E8" d="M322.4,123H305c-4.6,0-8.9,1.8-12.1,4.6c-2.7-2.8-6.5-4.5-10.7-4.5h-22.8c-0.3,0-0.6,0-0.8,0v0h-49.1
					v-0.1h-38.2v2.7c-3.1-1.8-6.9-2.7-11.2-2.7h-8.2v0h-30.9v27.7v27.7H161c4.2,0,7.5-0.8,10.2-1.9v1.8h27.6h10.6h48.4
					c0.5,0.1,1.1,0.1,1.6,0.1h22.3c4.4,0,8.4-1.9,11.2-4.8c3.2,2.8,7.4,4.6,12,4.6h17.4c10,0,18.2-8.2,18.2-18.2v-18.8
					C340.6,131.2,332.4,123,322.4,123z"/>
			</g>
		</g>
		<g>
			<g>
				<g>
					<polygon fill="#D04527" points="235.9,133.2 231,133.2 231,139.4 235.9,139.4 235.9,154.7 221.5,133.4 221.5,133.2 
						221.4,133.2 213.5,133.2 208.7,133.2 208.7,139.4 213.5,139.4 213.5,162.2 208.7,162.2 208.7,168.3 213.5,168.3 221.4,168.3 
						225.6,168.3 225.6,162.2 221.4,162.2 221.4,146.8 235.8,168.2 235.8,168.3 235.9,168.3 243.7,168.3 248.5,168.3 248.5,161.8 
						243.7,161.8 243.7,139.4 248.5,139.4 248.5,133.2 243.7,133.2 					"/>
				</g>
			</g>
			<g>
				<g>
					<path fill="#D04527" d="M164,149.6c1.3-0.7,2.2-1.6,2.8-2.7c0.7-1.2,1.1-2.8,1.1-4.6c0-6.1-3.3-9.2-9.9-9.2h-19.3v0h-10.1v6.2
						h4.6v22.8h-4.6v6.2h4.6h5.5H159c4.4,0,7.7-1.2,9.9-3.6c1.5-1.6,2.2-3.8,2.2-6.4c0-2-0.5-3.8-1.4-5.3
						C168.7,151.3,166.8,150.2,164,149.6z M142.3,140.1h12.9c0.9,0,1.5,0.1,2.1,0.3c1.4,0.5,2.2,1.6,2.2,3.2c0,0.9-0.3,1.7-0.8,2.3
						c-0.7,0.8-1.8,1.2-3.4,1.2h-12.9V140.1z M160.4,160.6c-0.9,0.6-2.6,0.8-4.9,0.8h-13.2V154h13.1c1.6,0,2.8,0.1,3.4,0.2
						c2.1,0.4,3.2,1.6,3.2,3.6C162,159,161.4,159.9,160.4,160.6z"/>
				</g>
			</g>
			<g>
				<g>
					<polygon fill="#D04527" points="180.3,139.3 184.7,139.3 184.7,162.1 180.3,162.1 180.3,168.3 184.7,168.3 193.8,168.3 
						197.9,168.3 197.9,162.1 193.8,162.1 193.8,139.3 197.9,139.3 197.9,133.1 180.3,133.1 					"/>
				</g>
			</g>
			<g>
				<g>
					<path fill="#D04527" d="M293.1,149h-18.4v7.6h5.4v3.7h-13.3c-1.4,0-2.6-1.1-2.6-2.6V144c0-1.4,1.1-2.6,2.6-2.6h14v4.2h7.6
						l0-4.2h0v-3.6c0-2.5-2.1-4.6-4.6-4.6h-23.5c-2.8,0-5.1,2.3-5.1,5.1v24.9c0,2.8,2.3,5.1,5.1,5.1h23c2.8,0,5.1-2.3,5.1-5.1v-6.7
						h4.8V149z"/>
				</g>
			</g>
			<g>
				<g>
					<path fill="#D04527" d="M325,168.1h-17.9c-4.3,0-7.9-3.5-7.9-7.9v-19.3c0-4.3,3.5-7.9,7.9-7.9H325c4.3,0,7.9,3.5,7.9,7.9v19.3
						C332.9,164.6,329.3,168.1,325,168.1z M308.8,158.5h14.5v-15.9h-14.5V158.5z"/>
				</g>
			</g>
		</g>
	</g>
	<g>
		<g>
			<rect x="283.5" y="365.9" fill="#E6E7E8" width="98.3" height="40.1"/>
		</g>
	</g>
	<g>
		<g>
			<path fill="#414042" d="M381.8,414.6h-98.3c-4.8,0-8.6-3.9-8.6-8.6v-40.1c0-4.8,3.9-8.6,8.6-8.6h98.3c4.8,0,8.6,3.9,8.6,8.6V406
				C390.4,410.8,386.6,414.6,381.8,414.6z M292.1,397.4h81v-22.8h-81V397.4z"/>
		</g>
	</g>
	<g>
		<g>
			<circle fill="#DB802D" cx="125.4" cy="256.1" r="27"/>
		</g>
	</g>
	<g>
		<g>
			<circle fill="#DB802D" cx="230.7" cy="360" r="27"/>
		</g>
	</g>
	<g>
		<g>
			<path fill="#F2D3BC" d="M330.2,297.2V268c0-15.4-10.5-27.9-25.9-27.9h0c-15.4,0-24.9,12.5-24.9,27.9V293c0,29.6,4.1,58.6,21,82.9
				l0,0h68.9l0,0c23.4-34.3,28.8-57.7,28.8-102.7v-1.6c0-73-16-83.7-78-83.7h-22.3c-14.4,0-26.2,11.7-26.2,26.2v0
				c0,14.4,13.6,26.2,28.1,26.2h9.6"/>
		</g>
	</g>
	<g>
		<g>
			<path fill="#414042" d="M369.3,384.6h-68.9c-2.8,0-5.5-1.4-7.1-3.7c-19.9-28.8-22.5-62.1-22.5-87.8V268c0-10,3.2-18.7,8.5-25.1
				c-9.8-6.3-16.3-17-16.3-28.7c0-19.2,15.6-34.8,34.8-34.8h22.3c39.1,0,60.1,6,72.2,20.8c12,14.6,14.3,36.4,14.3,71.5v1.6
				c0,44.2-4.5,71.5-30.4,107.7C374.7,383.2,372.1,384.6,369.3,384.6z M305.1,367.3h59.8c19-27.7,24.6-49.7,24.6-94.1v-1.6
				c0-31.1-1.7-50-10.4-60.6c-8.5-10.3-25.6-14.5-59-14.5h-22.3c-9.7,0-17.5,7.9-17.5,17.5c0,9.2,9.3,17.5,19.5,17.5h0.7
				c2.5-0.3,5.2-0.3,7.8,0h1.1c1.4,0,2.7,0.3,3.9,0.9c15.1,3.9,25.6,17.8,25.6,35.4v29.3c0,4.8-3.9,8.6-8.6,8.6s-8.6-3.9-8.6-8.6
				V268c0-8.7-5-17.6-14.5-19.1h-5.6c-9.3,1.5-13.5,10.3-13.5,19.1V293C288.1,325.4,293.4,348.6,305.1,367.3z"/>
		</g>
	</g>
	<g>
		<g>
			<g>
				<rect x="283.5" y="365.9" fill="#E6E7E8" width="98.3" height="40.1"/>
			</g>
		</g>
		<g>
			<g>
				<path fill="#414042" d="M381.8,414.6h-98.3c-4.8,0-8.6-3.9-8.6-8.6v-40.1c0-4.8,3.9-8.6,8.6-8.6h98.3c4.8,0,8.6,3.9,8.6,8.6V406
					C390.4,410.8,386.6,414.6,381.8,414.6z M292.1,397.4h81v-22.8h-81V397.4z"/>
			</g>
		</g>
	</g>
	<g>
		<g>
			<path fill="#414042" d="M335.9,236.6c0,0,9.3,4.4,9.3,24.7c0,22.1-14.9,24.7-14.9,24.7l0-29.3C330.2,256.8,336,245.9,335.9,236.6
				z"/>
		</g>
		<g>
			<path fill="#414042" d="M330.3,294.6c-2,0-4-0.7-5.5-2c-2-1.6-3.1-4.1-3.1-6.6l0-29.3c0-1.4,0.3-2.8,1-4.1
				c1.3-2.5,4.7-10.3,4.7-16c0-3,1.5-5.8,4-7.4c2.5-1.6,5.7-1.8,8.3-0.5c2.4,1.1,14.2,8,14.2,32.5c0,23.2-14.4,31.8-22,33.2
				C331.3,294.6,330.8,294.6,330.3,294.6z"/>
		</g>
	</g>
	<g>
		<g>
			<g>
				
					<rect x="332.2" y="121" transform="matrix(0.5262 0.8503 -0.8503 0.5262 332.9881 -212.696)" fill="#E6E7E8" width="50.3" height="142.9"/>
			</g>
		</g>
		<g>
			<g>
				
					<rect x="263.1" y="226.8" transform="matrix(-0.5262 -0.8503 0.8503 -0.5262 241.1478 606.3799)" fill="#E6E7E8" width="52.8" height="18.4"/>
			</g>
		</g>
		<g>
			<g>
				<path fill="#E6E7E8" d="M255.3,244.9c0,0,15.2-6.4,12.5-26.4l15.4,24.9l-20.9,12.9L255.3,244.9z"/>
			</g>
		</g>
		<g>
			<g>
				<path fill="#E6E7E8" d="M266.3,262.7c0,0,12.5-10.7,29.2,0.6l-15.4-24.9l-20.9,12.9L266.3,262.7z"/>
			</g>
		</g>
		<g>
			<g>
				
					<rect x="244.7" y="250.7" transform="matrix(0.5262 0.8503 -0.8503 0.5262 339.6976 -95.1178)" fill="#DB802D" width="21.1" height="13.2"/>
			</g>
		</g>
		<g>
			<g>
				<path fill="#414042" d="M404.9,133.5l26.4,42.7l-121.5,75.2l-17.4,11.9c-5.8-3.9-10.7-5.2-14.6-5.2c-7.5,0-11.5,4.6-11.5,4.6
					l0.1,0.1l-11.2,6.9l-11.1-17.9l11.2-6.9c0,0,15.2-6.4,12.5-26.4l15.6-9.7l0,0L404.9,133.5 M404.9,116.3c-3.2,0-6.3,0.9-9.1,2.6
					l-121.5,75.2c-0.3,0.2-0.5,0.3-0.8,0.5l-14.8,9.2c-5.8,3.6-8.9,10.2-8,16.9c0.7,5.1-0.9,7.4-2.5,8.4c-1,0.3-0.9,0.4-2,1.1
					l-11.2,6.9c-8.1,5-10.6,15.6-5.6,23.7l11.1,17.9c2.4,3.9,6.3,6.7,10.7,7.7c1.3,0.3,2.6,0.5,3.9,0.5c3.2,0,6.3-0.9,9.1-2.6
					l11.2-6.9c1-0.6,1.9-1.3,2.7-2.1c0.7,0.1,2.2,0.5,4.7,2.2c2.9,2,6.3,3,9.7,3c3.4,0,6.8-1,9.7-3l17.1-11.7l121.1-75
					c8.1-5,10.6-15.6,5.6-23.7l-26.4-42.7c-2.4-3.9-6.3-6.7-10.7-7.7C407.5,116.4,406.2,116.3,404.9,116.3L404.9,116.3z"/>
			</g>
		</g>
	</g>
	<g>
		<g>
			<g>
				<path fill="#F2D3BC" d="M330.2,286v-40.5c0-15.4-11.8-27.9-25.7-27.9h0c-13.9,0-25.1,12.5-25.1,27.9v42.7"/>
			</g>
		</g>
		<g>
			<g>
				<path fill="#414042" d="M330.2,301.6c-4.8,0-8.6-3.9-8.6-8.6v-47.4c0-10.4-7.8-19.3-17-19.3c-9.1,0-16.5,8.6-16.5,19.3V293
					c0,4.8-3.9,8.6-8.6,8.6s-8.6-3.9-8.6-8.6v-47.4c0-20.1,15.1-36.5,33.7-36.5c18.9,0,34.3,16.4,34.3,36.5V293
					C338.8,297.7,335,301.6,330.2,301.6z"/>
			</g>
		</g>
	</g>
</g>
</svg>
