<?xml version="1.0" encoding="utf-8"?>
<!-- Generator: Adobe Illustrator 18.0.0, SVG Export Plug-In . SVG Version: 6.00 Build 0)  -->
<!DOCTYPE svg PUBLIC "-//W3C//DTD SVG 1.1//EN" "http://www.w3.org/Graphics/SVG/1.1/DTD/svg11.dtd">
<svg version="1.1" id="Layer_1" xmlns="http://www.w3.org/2000/svg" xmlns:xlink="http://www.w3.org/1999/xlink" x="0px" y="0px"
	 viewBox="0 0 512 512" enable-background="new 0 0 512 512" xml:space="preserve">
<g>
	<g>
		<g>
			<g>
				<g>
					<g>
						<path fill="#E6E7E8" d="M280.4,355.1H140.2c-19.7,0-35.7-16-35.7-35.7V111.3c0-19.7,16-35.7,35.7-35.7h140.2
							c19.7,0,35.7,16,35.7,35.7v208.2C316.1,339.2,300.1,355.1,280.4,355.1z"/>
					</g>
				</g>
				<g>
					<g>
						<path fill="#414042" d="M280.4,363.7H140.2c-24.4,0-44.3-19.9-44.3-44.3V111.3c0-24.4,19.9-44.3,44.3-44.3h140.2
							c24.4,0,44.3,19.9,44.3,44.3v208.2C324.7,343.9,304.8,363.7,280.4,363.7z M140.2,84.2c-14.9,0-27,12.1-27,27v208.2
							c0,14.9,12.1,27,27,27h140.2c14.9,0,27-12.1,27-27V111.3c0-14.9-12.1-27-27-27H140.2z"/>
					</g>
				</g>
			</g>
			<g>
				<g>
					<path fill="#D04527" d="M152.1,156.2c-8.8,0-16-7.2-16-16v-7.5h-5.2v-7.5h19v7.5h-5.4c0,0-0.1,1,0,6.8c0,4.2,3.5,7.7,7.7,7.7
						c2.7,0,5.2-1.4,6.6-3.7c1.1-1.8,1.1-3.8,1.1-5.6v-15.5l0-18.3h-7.2v-7.5h25.9v7.5h-7.8v33.9c0,2.4-0.1,4.4-0.4,5.9
						c-1.6,8.4-9.4,12.3-15.9,12.3l-1.6,0l0,0c-0.2,0-0.4,0-0.5,0C152.1,156.2,152.1,156.2,152.1,156.2z"/>
				</g>
			</g>
			<g>
				<g>
					<g>
						<path fill="#D04527" d="M272.9,236c6.9-7.3,10.9-17.6,10.3-28.8c-1-19.3-16.1-34.8-34.5-35.8c-18.4-1-33.9,12.3-37.6,30.1
							c-3.6-17.8-19.2-31-37.5-30.1c-18.3,0.9-33.3,16.2-34.5,35.3c-0.7,10.2,2.5,19.6,8.1,26.7l53.3,78.3c5.3,7.2,15.7,7.2,20.9,0
							L272.9,236z"/>
					</g>
				</g>
			</g>
		</g>
		<g>
			<g>
				<g>
					<path fill="#E6E7E8" d="M320.1,370.8l-131.4-49c-18.5-6.9-27.8-27.4-21-45.9l72.7-195.1c6.9-18.5,27.4-27.8,45.9-21l131.4,49
						c18.5,6.9,27.8,27.4,21,45.9l-72.7,195.1C359.1,368.3,338.5,377.7,320.1,370.8z"/>
				</g>
			</g>
			<g>
				<g>
					<path fill="#414042" d="M332.5,381.7c-5.3,0-10.5-0.9-15.5-2.8l-131.4-49c-11.1-4.1-19.9-12.3-24.8-23.1
						c-4.9-10.8-5.3-22.8-1.2-33.9l72.7-195.1c6.4-17.2,23.1-28.8,41.5-28.8c5.3,0,10.5,0.9,15.5,2.8l131.4,49
						c11.1,4.1,19.9,12.3,24.8,23.1c4.9,10.8,5.3,22.8,1.2,33.9L374,352.9C367.6,370.1,350.9,381.7,332.5,381.7z M273.9,66.3
						c-11.2,0-21.4,7.1-25.3,17.6L175.8,279c-2.5,6.8-2.3,14.1,0.7,20.7c3,6.6,8.4,11.6,15.2,14.1l131.4,49c3.1,1.1,6.2,1.7,9.4,1.7
						c11.2,0,21.4-7.1,25.3-17.6l72.7-195.1c2.5-6.8,2.3-14.1-0.7-20.7c-3-6.6-8.4-11.6-15.2-14.1L283.3,68
						C280.2,66.9,277.1,66.3,273.9,66.3z"/>
				</g>
			</g>
			<g>
				<g>
					<path fill="#414042" d="M351.6,241.9L351.6,241.9c0,0-17.6-36.5-23.4-69c-1.3-7.5-10.3-10.9-16.3-6.1
						c-25.6,20.8-62.8,36.8-62.8,36.8l0,0c-12.9,5.3-22.4,18.8-19.9,36.8c0.7,5,2.9,9.8,6.3,13.6c14.4,16.2,35.3,15.3,47.9,3.9
						c-4.5,9.3-13.1,24.4-25.1,33.5c-3.7,2.8-2.9,8.5,1.4,10.1l9.9,3.7l9.9,3.7c4.3,1.6,8.6-2.2,7.7-6.7c-3.1-14.7,0.3-31.7,3-41.7
						c2,16.8,17.2,31.2,38.7,28.4c5-0.7,9.8-2.8,13.6-6.2C356.2,270.8,357.9,254.4,351.6,241.9z"/>
				</g>
			</g>
			<g>
				<g>
					<path fill="#414042" d="M281.5,144.4l3.2-8.7l5.4,2l-0.2-16.9l-14.2-5.3l-11,12.8l6.5,2.4l-3.2,8.7l-22.1-8.2l3.2-8.7l6.3,2.4
						l11-12.8l-4.1-1.5l3.2-8.7l7.4,2.7l18.4-21.3l7.5,2.8l0.3,28.3l7.7,2.9l-3.2,8.7l-4.3-1.6l0.2,16.9l7.3,2.7l-3.2,8.7
						L281.5,144.4z M289.8,110.9l-0.1-11.5l-7.5,8.7L289.8,110.9z"/>
				</g>
			</g>
			<g>
				<g>
					<path fill="#414042" d="M298.1,142.2l-0.2-19.9l4.9,1.8l2.3-6.1l-7.3-2.7L297.5,87l-5.7-2.1l-18.4,21.3l-7-2.6l-2.3,6.1
						l4.7,1.8l-12.9,15l-5.9-2.2l-2.3,6.1l19.5,7.3l2.3-6.1l-7-2.6l12.9-15l16,5.9l0.2,19.9l-6-2.2l-2.3,6.1l19.5,7.3l2.3-6.1
						L298.1,142.2z M279.9,108.6l11.2-13l0.2,17.2L279.9,108.6z"/>
				</g>
			</g>
		</g>
	</g>
	<g>
		<g>
			<g>
				<path fill="#E6E7E8" d="M371.4,419.9l-9.3-9.8l8.8-7.5l8.7,0l0-15.7l34.6-0.1l-0.1-25.6l-8.2,0l-9.3-9.8l8.8-7.5l8.7,0
					l-0.1-25.6l-67.2,0.2l0,9.3l-7-5.1c-4-2.9-8.7-4.4-13.6-4.4h-26.5c-12.3,0-22.3,9.4-22.3,20.9v5.3l-8.4,1.7l-10.8-26h-22.7
					l-13.6,31.9h-34.1v-31.6h-42.1v4.3l-6-2.5c-3.1-1.2-6.5-1.9-10.3-1.9h-13.6l-4.4,0H79.7v26.2h6.4v14h-6.4V387h51.1
					c3.3,0,6.5-0.4,9.3-1.2l4.7-1.4v16.4h-30.6v25.8h4.4l1.1,2.8c3.6,9.2,12.3,15.1,22.1,15.1h15.9c4.2,0,8.4-1.1,12-3.3l6.6-3.9
					v7.5h77.5v-3l6,2.3c2.7,1.1,5.6,1.6,8.6,1.6h26.5c3.9,0,7.8-1,11.2-2.8l6.5-3.5l0,6.4l67.2-0.2l-0.1-25.6L371.4,419.9z
					 M188.1,394.9v-7.8h11.7l-3.3,7.8H188.1z M246,402.9h-9l-6.7-15.8h19c-2.1,3.2-3.3,6.9-3.3,10.9V402.9z M286.6,416.4h-10.1
					v-10.1h10.1V416.4z"/>
			</g>
		</g>
		<g>
			<g>
				<path fill="#414042" d="M414,318.5l0.1,25.6l-8.7,0l-8.8,7.5l9.3,9.8l8.2,0l0.1,25.6l-34.6,0.1l0,15.7l-8.7,0l-8.8,7.5l9.3,9.8
					l8.2,0l0.1,25.6l-67.2,0.2l0-6.4l-6.5,3.5c-3.4,1.9-7.3,2.8-11.2,2.8h-26.5c-2.9,0-5.8-0.5-8.6-1.6l-6-2.3v3h-77.5v-7.5
					l-6.6,3.9c-3.7,2.2-7.8,3.3-12,3.3h-15.9c-9.8,0-18.5-5.9-22.1-15.1l-1.1-2.8h-4.4v-25.8h30.6v-16.4l-4.7,1.4
					c-2.8,0.8-6,1.2-9.3,1.2H79.7v-26.2h6.4v-14h-6.4v-26.2h31.6l4.4,0h13.6c3.8,0,7.2,0.6,10.3,1.9l6,2.5v-4.3h42.1v31.6h34.1
					l13.6-31.9h22.7l10.8,26l8.4-1.7v-5.3c0-11.5,10-20.9,22.3-20.9h26.5c5,0,9.7,1.5,13.6,4.4l7,5.1l0-9.3L414,318.5 M237,402.9h9
					v-5c0-4,1.2-7.7,3.3-10.9h-19L237,402.9 M188.1,394.9h8.4l3.3-7.8h-11.7V394.9 M276.5,416.4h10.1v-10.1h-10.1V416.4 M414,301.3
					C414,301.3,414,301.3,414,301.3l-67.2,0.2c-2.8,0-5.5,0.7-7.8,1.9c-4.1-1.3-8.4-2-12.7-2h-26.5c-10.4,0-19.8,3.8-26.8,10.1
					c-3.1-5.1-8.7-8.4-14.8-8.4h-22.7c-6.9,0-13.2,4.1-15.9,10.5l-9.1,21.4H205v-14.3c0-9.5-7.7-17.2-17.2-17.2h-42.1
					c-2.2,0-4.2,0.4-6.1,1.1c-3.3-0.7-6.7-1.1-10.3-1.1h-13.6l-4.3,0H79.7c-9.5,0-17.2,7.7-17.2,17.2v26.2c0,2.5,0.5,4.9,1.5,7
					c-1,2.1-1.5,4.5-1.5,7V387c0,9.5,7.7,17.2,17.2,17.2h17.3v22.4c0,6.9,4.1,12.9,9.9,15.6c7.4,12,20.4,19.5,34.9,19.5h15.9
					c3.7,0,7.3-0.5,10.9-1.5c2.3,1.2,5,1.8,7.8,1.8h77.5c1.4,0,2.7-0.2,4-0.5c3.4,0.9,6.9,1.4,10.5,1.4h26.5c3.6,0,7.2-0.5,10.7-1.4
					c2.2,1,4.5,1.5,6.9,1.5c0,0,0,0,0,0l67.2-0.2c4.6,0,8.9-1.8,12.2-5.1c3.2-3.2,5-7.6,5-12.2l-0.1-25.6c0-3.1-0.9-6.1-2.3-8.6
					c1.2-2.1,2-4.5,2.2-7l17.5,0c4.6,0,8.9-1.8,12.2-5.1c3.2-3.2,5-7.6,5-12.2l-0.1-25.6c0-3-0.8-6-2.3-8.6c1.5-2.5,2.3-5.5,2.3-8.6
					l-0.1-25.6c0-4.6-1.8-8.9-5.1-12.2C422.9,303.1,418.5,301.3,414,301.3L414,301.3z"/>
			</g>
		</g>
		<g>
			<g>
				<path fill="#D04527" d="M137.7,352.2c1.7-1,3-2.3,3.9-3.7c1-1.7,1.5-3.8,1.5-6.4c0-8.5-4.6-12.7-13.7-12.7h-26.8v0h-14v8.6h6.4
					v31.6h-6.4v8.6h6.4h7.6h28.2c6.2,0,10.7-1.7,13.7-5c2.1-2.3,3.1-5.3,3.1-8.9c0-2.8-0.6-5.3-1.9-7.4
					C144.2,354.6,141.6,353.1,137.7,352.2z M107.6,339h17.8c1.2,0,2.1,0.1,2.8,0.4c2,0.7,3,2.2,3,4.4c0,1.3-0.4,2.3-1.1,3.2
					c-1,1.1-2.5,1.6-4.7,1.6h-17.8V339z M132.7,367.4c-1.3,0.8-3.5,1.1-6.8,1.1h-18.3v-10.3h18.1c2.3,0,3.9,0.1,4.8,0.2
					c2.9,0.5,4.4,2.2,4.4,5C134.9,365.2,134.2,366.6,132.7,367.4z"/>
			</g>
		</g>
		<g>
			<g>
				<polygon fill="#D04527" points="196.5,361 196.5,369.6 173.3,369.6 173.3,338 179,338 179,329.4 154.5,329.4 154.5,338 
					160.6,338 160.6,369.6 154.5,369.6 154.5,369.7 154.5,378.3 160.6,378.3 173.3,378.3 179,378.3 205.8,378.3 205.8,375.5 
					205.8,369.6 205.8,361 				"/>
			</g>
		</g>
		<g>
			<g>
				<path fill="#D04527" d="M252.3,329.1h-11.1l-17.4,41h-7.1v1.6v6.6h3.6H233h6.5h3v-8.2h-5.6l1.6-3.3h17l1.3,3.3h-5.8v8.2h2.3h6.7
					h12.9h3.2h0.7v-8.2h-7.3L252.3,329.1z M240.7,360l5.9-15.7l5.9,15.7H240.7z"/>
			</g>
		</g>
		<g>
			<g>
				<path fill="#D04527" d="M326.2,327.3h-26.5c-7.5,0-13.5,5.4-13.5,12.1v26.9c0,6.7,6.1,12.1,13.5,12.1h26.5
					c7.5,0,13.5-5.4,13.5-12.1v-5.9h-12.9v5.9c0,0.2-0.2,0.4-0.6,0.4h-26.5c-0.4,0-0.6-0.2-0.6-0.4v-26.9c0-0.2,0.2-0.4,0.6-0.4
					h26.5c0.4,0,0.6,0.2,0.6,0.4v6.2h12.9v-6.2C339.7,332.7,333.7,327.3,326.2,327.3z"/>
			</g>
		</g>
		<g>
			<g>
				<polygon fill="#D04527" points="402.1,370.1 402.1,370.1 383.8,350.9 402.1,335.4 405.2,335.4 405.2,332.7 405.4,332.6 
					405.2,332.6 405.2,327.3 384,327.4 384.1,335.4 387.1,335.4 371.2,348.9 371.2,335.5 376.8,335.4 376.8,327.4 355.6,327.4 
					355.6,335.5 359.2,335.5 359.2,370.3 355.7,370.3 355.7,378.3 376.9,378.3 376.9,370.2 371.2,370.2 371.2,361.6 375.8,357.7 
					387.3,370.2 384.1,370.2 384.2,378.3 405.4,378.2 405.3,370.1 				"/>
			</g>
		</g>
		<g>
			<g>
				<g>
					<path fill="#D04527" d="M220.6,386.8h-11.1l-17.4,41H185v1.6v6.6h3.6h12.8h6.5h3v-8.2h-5.6l1.6-3.3h17l1.3,3.3h-5.8v8.2h2.3
						h6.7h12.9h3.2h0.7v-8.2h-7.3L220.6,386.8z M209.1,417.7L215,402l5.9,15.7H209.1z"/>
				</g>
			</g>
			<g>
				<g>
					<path fill="#D04527" d="M294.8,385.9h-26.5c-7.5,0-13.5,5.4-13.5,12.1v26.9c0,6.7,6.1,12.1,13.5,12.1h26.5
						c7.5,0,13.5-5.4,13.5-12.1v-5.9h-12.9v5.9c0,0.2-0.2,0.4-0.6,0.4h-26.5c-0.4,0-0.6-0.2-0.6-0.4V398c0-0.2,0.2-0.4,0.6-0.4h26.5
						c0.4,0,0.6,0.2,0.6,0.4v6.2h12.9V398C308.3,391.3,302.3,385.9,294.8,385.9z"/>
				</g>
			</g>
			<g>
				<g>
					<polygon fill="#D04527" points="367.6,428.7 367.7,428.7 349.3,409.5 367.6,394 370.8,393.9 370.8,391.3 370.9,391.2 
						370.8,391.2 370.7,385.9 349.5,385.9 349.6,394 352.6,394 336.7,407.5 336.7,394 342.3,394 342.3,386 321.1,386 321.1,394.1 
						324.7,394.1 324.7,428.8 321.2,428.8 321.2,436.9 342.4,436.8 342.4,428.8 336.7,428.8 336.7,420.2 341.3,416.3 352.8,428.8 
						349.7,428.8 349.7,436.8 370.9,436.8 370.8,428.7 					"/>
				</g>
			</g>
			<g>
				<g>
					<g>
						<rect x="153.6" y="387.1" fill="#D04527" width="25.8" height="8.2"/>
					</g>
				</g>
				<g>
					<g>
						<rect x="123" y="409.6" fill="#D04527" width="20" height="8.2"/>
					</g>
				</g>
				<g>
					<g>
						<path fill="#D04527" d="M157.6,435.7h-15.9c-8.3,0-15-6.7-15-15v-5.2h12.4v5.2c0,1.5,1.2,2.6,2.6,2.6h15.9
							c1.5,0,2.6-1.2,2.6-2.6v-30.9h12.4v30.9C172.7,428.9,165.9,435.7,157.6,435.7z"/>
					</g>
				</g>
			</g>
		</g>
	</g>
</g>
</svg>
