<?xml version="1.0" encoding="utf-8"?>
<!-- Generator: Adobe Illustrator 18.0.0, SVG Export Plug-In . SVG Version: 6.00 Build 0)  -->
<!DOCTYPE svg PUBLIC "-//W3C//DTD SVG 1.1//EN" "http://www.w3.org/Graphics/SVG/1.1/DTD/svg11.dtd">
<svg version="1.1" id="Layer_1" xmlns="http://www.w3.org/2000/svg" xmlns:xlink="http://www.w3.org/1999/xlink" x="0px" y="0px"
	 viewBox="0 0 512 512" enable-background="new 0 0 512 512" xml:space="preserve">
<g>
	<g>
		<g>
			<circle fill="#F5E039" cx="256" cy="310.6" r="146.5"/>
		</g>
	</g>
	<g>
		<g>
			<path fill="#DB802D" d="M363.6,409.7c10.1-10.9,18.5-23.4,24.9-36.9h-265c6.4,13.6,14.8,26,24.9,36.9H363.6z"/>
		</g>
	</g>
	<g>
		<g>
			<path fill="#414042" d="M256,465.9c-85.6,0-155.3-69.6-155.3-155.2S170.4,155.4,256,155.4c85.6,0,155.3,69.6,155.3,155.3
				S341.6,465.9,256,465.9z M256,172.9c-75.9,0-137.7,61.8-137.7,137.7c0,75.9,61.8,137.7,137.7,137.7s137.7-61.8,137.7-137.7
				C393.7,234.7,331.9,172.9,256,172.9z"/>
		</g>
	</g>
	<g>
		<g>
			<g>
				<polygon fill="#F2C637" points="418.9,217.2 387.1,203.3 355.3,217 358.7,182.6 335.8,156.5 369.6,149.1 387.3,119.3 
					404.9,149.2 438.7,156.8 415.7,182.7 				"/>
			</g>
		</g>
		<g>
			<g>
				<path fill="#414042" d="M418.9,226c-1.2,0-2.4-0.2-3.5-0.7l-28.3-12.3l-28.3,12.2c-2.9,1.2-6.2,0.9-8.7-1
					c-2.5-1.8-3.9-4.9-3.6-8l3-30.7l-20.3-23.2c-2.1-2.3-2.7-5.6-1.7-8.5s3.4-5.2,6.5-5.8l30.1-6.6l15.8-26.5
					c1.6-2.7,4.5-4.3,7.6-4.3c0,0,0,0,0,0c3.1,0,6,1.7,7.6,4.3l15.6,26.6l30.1,6.8c3,0.7,5.5,2.9,6.4,5.9c1,3,0.3,6.2-1.8,8.5
					l-20.5,23.1l2.8,29.9c0.1,0.5,0.2,1.1,0.2,1.6C427.7,222.1,423.8,226,418.9,226C418.9,226,418.9,226,418.9,226z M387.1,194.6
					c1.2,0,2.4,0.2,3.5,0.7l18.1,7.9l-1.8-19.7c-0.2-2.4,0.6-4.8,2.2-6.6l13.1-14.8l-19.3-4.4c-2.4-0.5-4.4-2-5.6-4.1l-10-17
					l-10.1,17c-1.2,2.1-3.3,3.6-5.7,4.1l-19.3,4.2l13,14.9c1.6,1.8,2.4,4.2,2.1,6.7l-1.9,19.7l18.2-7.8
					C384.7,194.8,385.9,194.6,387.1,194.6z"/>
			</g>
		</g>
		<g>
			<g>
				<polygon fill="#F2C637" points="156.5,217.2 124.7,203.3 92.9,217 96.3,182.6 73.4,156.5 107.3,149.1 125,119.3 142.5,149.2 
					176.3,156.8 153.3,182.7 				"/>
			</g>
		</g>
		<g>
			<g>
				<polygon fill="#F5E039" points="132.9,183.1 124.8,179.6 116.7,183.1 117.5,174.3 111.7,167.6 120.3,165.7 124.9,158.1 
					129.3,165.8 138,167.7 132.1,174.3 				"/>
			</g>
		</g>
		<g>
			<g>
				<polygon fill="#F5E039" points="396.6,183.1 388.5,179.6 380.4,183.1 381.2,174.3 375.4,167.6 384,165.7 388.5,158.1 393,165.8 
					401.6,167.7 395.8,174.3 				"/>
			</g>
		</g>
		<g>
			<g>
				<path fill="#414042" d="M156.4,226c-1.2,0-2.4-0.2-3.5-0.7l-28.3-12.3l-28.3,12.2c-2.9,1.2-6.1,0.9-8.7-1
					c-2.5-1.8-3.9-4.9-3.6-8l3-30.7l-20.4-23.2c-2.1-2.3-2.7-5.6-1.7-8.5c1-3,3.4-5.2,6.5-5.8l30.1-6.6l15.8-26.5
					c1.6-2.7,4.5-4.3,7.6-4.3c0,0,0,0,0,0c3.1,0,6,1.7,7.6,4.3l15.6,26.6l30.1,6.8c3,0.7,5.5,2.9,6.4,5.9c1,3,0.3,6.2-1.8,8.5
					l-20.5,23.1l2.8,29.9c0.1,0.5,0.2,1.1,0.2,1.6C165.2,222.1,161.3,226,156.4,226C156.4,226,156.4,226,156.4,226z M124.6,194.6
					c1.2,0,2.4,0.2,3.5,0.7l18.1,7.9l-1.8-19.7c-0.2-2.4,0.6-4.8,2.2-6.6l13.1-14.8l-19.3-4.4c-2.4-0.5-4.4-2-5.6-4.1l-10-17
					l-10.1,17c-1.2,2.1-3.3,3.6-5.7,4.1l-19.3,4.2l13,14.9c1.6,1.8,2.4,4.2,2.1,6.7l-1.9,19.7l18.2-7.8
					C122.3,194.8,123.5,194.6,124.6,194.6z"/>
			</g>
		</g>
		<g>
			<g>
				<polygon fill="#F2C637" points="306.5,211.3 255.8,189.2 205,211.1 210.4,156 173.8,114.4 227.9,102.5 256.2,54.9 284.2,102.7 
					338.2,114.8 301.4,156.2 				"/>
			</g>
		</g>
		<g>
			<g>
				<polygon fill="#F5E039" points="276.3,168.2 255.9,159.3 235.4,168.1 237.6,145.9 222.9,129.2 244.6,124.4 256,105.2 
					267.3,124.4 289.1,129.4 274.3,146 				"/>
			</g>
		</g>
		<g>
			<g>
				<path fill="#414042" d="M306.5,220.1c-1.2,0-2.4-0.2-3.5-0.7l-47.2-20.6l-47.3,20.4c-2.9,1.2-6.2,0.9-8.7-1
					c-2.5-1.8-3.9-4.9-3.6-8l5-51.3l-34-38.7c-2.1-2.3-2.7-5.6-1.7-8.5c1-3,3.4-5.2,6.5-5.8l50.3-11.1l26.3-44.3
					c1.6-2.7,4.5-4.3,7.6-4.3c0,0,0,0,0,0c3.1,0,6,1.7,7.6,4.3l26.1,44.4l50.3,11.3c3,0.7,5.5,2.9,6.4,5.9c1,3,0.3,6.2-1.8,8.5
					l-34.2,38.5l4.7,50.5c0.1,0.5,0.2,1.1,0.2,1.6C315.4,216.2,311.4,220.1,306.5,220.1C306.6,220.1,306.5,220.1,306.5,220.1z
					 M255.8,180.4c1.2,0,2.4,0.2,3.5,0.7l37.1,16.2l-3.7-40.3c-0.2-2.4,0.6-4.8,2.2-6.6l26.9-30.3l-39.5-8.9c-2.4-0.5-4.4-2-5.6-4.1
					l-20.5-34.9L235.4,107c-1.2,2.1-3.3,3.6-5.7,4.1l-39.5,8.7l26.7,30.4c1.6,1.8,2.4,4.2,2.1,6.7l-3.9,40.3l37.2-16
					C253.4,180.6,254.6,180.4,255.8,180.4z"/>
			</g>
		</g>
		<g>
			<g>
				<polygon fill="none" points="156.5,217.2 124.7,203.3 92.9,217 96.3,182.6 73.4,156.5 107.3,149.1 125,119.3 142.5,149.2 
					176.3,156.8 153.3,182.7 				"/>
			</g>
		</g>
		<g>
			<g>
				<path fill="#414042" d="M156.4,226c-1.2,0-2.4-0.2-3.5-0.7l-28.3-12.3l-28.3,12.2c-2.9,1.2-6.1,0.9-8.7-1
					c-2.5-1.8-3.9-4.9-3.6-8l3-30.7l-20.4-23.2c-2.1-2.3-2.7-5.6-1.7-8.5c1-3,3.4-5.2,6.5-5.8l30.1-6.6l15.8-26.5
					c1.6-2.7,4.5-4.3,7.6-4.3c0,0,0,0,0,0c3.1,0,6,1.7,7.6,4.3l15.6,26.6l30.1,6.8c3,0.7,5.5,2.9,6.4,5.9c1,3,0.3,6.2-1.8,8.5
					l-20.5,23.1l2.8,29.9c0.1,0.5,0.2,1.1,0.2,1.6C165.2,222.1,161.3,226,156.4,226C156.4,226,156.4,226,156.4,226z M124.6,194.6
					c1.2,0,2.4,0.2,3.5,0.7l18.1,7.9l-1.8-19.7c-0.2-2.4,0.6-4.8,2.2-6.6l13.1-14.8l-19.3-4.4c-2.4-0.5-4.4-2-5.6-4.1l-10-17
					l-10.1,17c-1.2,2.1-3.3,3.6-5.7,4.1l-19.3,4.2l13,14.9c1.6,1.8,2.4,4.2,2.1,6.7l-1.9,19.7l18.2-7.8
					C122.3,194.8,123.5,194.6,124.6,194.6z"/>
			</g>
		</g>
	</g>
	<g>
		<g>
			<path fill="#8D4F76" d="M412.8,370.3H99.2c-13.7,0-24.8-11.1-24.8-24.8v-71.4c0-13.7,11.1-24.8,24.8-24.8h313.6
				c13.7,0,24.8,11.1,24.8,24.8v71.4C437.6,359.2,426.5,370.3,412.8,370.3z"/>
		</g>
	</g>
	<g>
		<g>
			<g>
				<path fill="#BB6FA0" d="M404.2,272.7c5.5,0,10,4.5,10,10v54.2c0,5.5-4.5,10-10,10H107.8c-5.5,0-10-4.5-10-10v-54.2
					c0-5.5,4.5-10,10-10H404.2 M404.2,249.3H107.8c-18.5,0-33.4,15-33.4,33.4v54.2c0,18.5,15,33.4,33.4,33.4h296.4
					c18.5,0,33.4-15,33.4-33.4v-54.2C437.6,264.2,422.6,249.3,404.2,249.3L404.2,249.3z"/>
			</g>
		</g>
	</g>
	<g>
		<g>
			<path fill="#414042" d="M412.8,379.1H99.2c-18.5,0-33.6-15.1-33.6-33.6v-71.4c0-18.5,15.1-33.6,33.6-33.6h313.6
				c18.5,0,33.6,15.1,33.6,33.6v71.4C446.4,364,431.3,379.1,412.8,379.1z M99.2,258c-8.8,0-16,7.2-16,16v71.4c0,8.8,7.2,16,16,16
				h313.6c8.8,0,16-7.2,16-16v-71.4c0-8.8-7.2-16-16-16H99.2z"/>
		</g>
	</g>
	<g>
		<g>
			<polygon fill="#AFDBEF" points="270.3,287 264.2,287 264.2,294.7 270.3,294.7 270.3,313.6 252.4,287.2 252.4,287 252.3,287 
				242.6,287 236.6,287 236.6,294.7 242.6,294.7 242.6,323 236.6,323 236.6,330.5 242.6,330.5 252.3,330.5 257.5,330.5 257.5,323 
				252.3,323 252.3,303.9 270.2,330.3 270.2,330.5 270.3,330.5 280,330.5 285.9,330.5 285.9,322.4 280,322.4 280,294.7 285.9,294.7 
				285.9,287 280,287 			"/>
		</g>
	</g>
	<g>
		<g>
			<path fill="#AFDBEF" d="M161.9,307.4c1.6-0.9,2.7-2,3.5-3.3c0.9-1.5,1.3-3.4,1.3-5.7c0-7.6-4.1-11.4-12.3-11.4h-24v0h-12.5v7.7
				h5.8v28.3h-5.8v7.7h5.8h6.8h25.2c5.5,0,9.6-1.5,12.3-4.4c1.9-2,2.8-4.7,2.8-8c0-2.5-0.6-4.7-1.7-6.6
				C167.8,309.5,165.4,308.1,161.9,307.4z M135,295.6H151c1.1,0,1.9,0.1,2.5,0.3c1.8,0.6,2.7,1.9,2.7,3.9c0,1.1-0.3,2.1-1,2.8
				c-0.8,1-2.2,1.4-4.2,1.4H135V295.6z M157.5,320.9c-1.1,0.7-3.2,1-6.1,1H135v-9.2h16.2c2,0,3.4,0.1,4.3,0.2
				c2.6,0.4,3.9,1.9,3.9,4.5C159.4,319,158.8,320.2,157.5,320.9z"/>
		</g>
	</g>
	<g>
		<g>
			<path fill="#AFDBEF" d="M323.8,294.7h6.2v16.4c0,4.8-0.7,8-2,9.6c-1.8,2.3-4.6,3.4-8.2,3.4c-1.6,0-3.1-0.3-4.4-0.9
				c-3.2-1.4-5-3.8-5.3-7.2c-0.1-1.1-0.1-2.7-0.1-5v-16.4h5.7V287H294v7.7h4.5v17.8c0,3.3,0.3,5.9,0.8,7.8c0.7,2.7,2.1,5,4.2,6.8
				c3.8,3.4,9.2,5.2,16,5.2c6.7,0,12-1.7,16-5.1c2.8-2.4,4.6-5,5.3-7.9c0.5-1.9,0.7-4.1,0.7-6.8v-17.8h4V287h-21.7V294.7z"/>
		</g>
	</g>
	<g>
		<g>
			<path fill="#AFDBEF" d="M218.4,286.9h-28.2c-5.4,0-9.8,4.4-9.8,9.8V321c0,5.4,4.4,9.8,9.8,9.8h28.2c5.4,0,9.8-4.4,9.8-9.8v-24.3
				C228.2,291.3,223.8,286.9,218.4,286.9z M217.6,317c0,1.8-1.5,3.3-3.3,3.3h-19.9c-1.8,0-3.3-1.5-3.3-3.3v-16.3
				c0-1.8,1.5-3.3,3.3-3.3h19.9c1.8,0,3.3,1.5,3.3,3.3V317z"/>
		</g>
	</g>
	<g>
		<g>
			<path fill="#AFDBEF" d="M366.1,331.3l17.5,0c6.8,0,12.3-5,12.3-11.1V315c0-6.1-5.5-11.1-12.3-11.1l-17.5,0c-0.6,0-1.1-0.5-1.1-1
				l0-4.8c0-0.6,0.5-1,1.1-1l17.5,0c0.6,0,1.1,0.5,1.1,1l0,2.9l11.2,0v-2.9c0-6.1-5.5-11.1-12.3-11.1l-17.5,0
				c-6.8,0-12.3,5-12.3,11.1l0,4.8c0,6.1,5.5,11.1,12.3,11.1l17.5,0c0.6,0,1.1,0.5,1.1,1l0,5.2c0,0.6-0.5,1-1.1,1l-17.5,0
				c-0.6,0-1.1-0.5-1.1-1v-2.9l-11.2,0l0,2.9C353.8,326.3,359.3,331.3,366.1,331.3z"/>
		</g>
	</g>
</g>
</svg>
