<?xml version="1.0" encoding="utf-8"?>
<!-- Generator: Adobe Illustrator 18.0.0, SVG Export Plug-In . SVG Version: 6.00 Build 0)  -->
<!DOCTYPE svg PUBLIC "-//W3C//DTD SVG 1.1//EN" "http://www.w3.org/Graphics/SVG/1.1/DTD/svg11.dtd">
<svg version="1.1" id="Layer_1" xmlns="http://www.w3.org/2000/svg" xmlns:xlink="http://www.w3.org/1999/xlink" x="0px" y="0px"
	 viewBox="0 0 512 512" enable-background="new 0 0 512 512" xml:space="preserve">
<g>
	<g>
		<g>
			<path fill="#E6E7E8" d="M187.6,252.8c0,0-9-12.4-9-31c0-14.7,5.7-25.8,8.1-29.7c0.3-0.5,0.7-1,1-1.6c0,0,0,0,0,0l0,0
				c2.3-3.9,3.7-8.5,3.7-13.4c0-14.6-11.9-26.5-26.5-26.5c-14.6,0-26.5,11.9-26.5,26.5c0,4.9,1.3,9.5,3.7,13.4l0,0l0,0
				c0.3,0.5,0.6,1.1,1,1.6c2.4,3.9,8.1,15,8.1,29.7c0,18.5-9,31-9,31s-22.4,27.1-22.4,80.9c0,44.7,22.4,77.4,22.4,77.4h22.8h22.8
				c0,0,22.4-32.6,22.4-77.4C210.1,279.9,187.6,252.8,187.6,252.8z"/>
		</g>
	</g>
	<g>
		<g>
			<path fill="#E6E7E8" d="M148,240.5c1.7-5,3.1-11.4,3.1-18.7c0-5.4-0.8-10.3-1.9-14.6h31.3c-1.1,4.2-1.9,9.2-1.9,14.6
				c0,7.3,1.4,13.7,3.1,18.7H148z"/>
		</g>
	</g>
	<g>
		<g>
			<path fill="#D04527" d="M193.8,249.1H136l3.8-11.4c1.8-5.2,2.7-10.6,2.7-16c0-4.2-0.5-8.3-1.6-12.4l-2.8-10.8h53.5l-2.8,10.8
				c-1.1,4.1-1.6,8.2-1.6,12.4c0,5.4,0.9,10.8,2.7,16L193.8,249.1z M159,231.9h11.9c-0.5-3.4-0.8-6.7-0.8-10.1c0-2,0.1-4,0.3-6
				h-10.9c0.2,2,0.3,4,0.3,6C159.7,225.2,159.5,228.6,159,231.9z"/>
		</g>
	</g>
	<g>
		<g>
			<path fill="#414042" d="M187.7,419.7h-45.7l-7.1-3.7c-1-1.4-23.9-35.4-23.9-82.2c0-53.7,21.3-82.5,24.2-86.1
				c0.8-1.1,7.3-11.4,7.3-25.8c0-12.2-4.6-21.5-6.7-25.1c-0.4-0.6-0.8-1.2-1.1-1.8l0,0c-3.2-5.4-4.9-11.5-4.9-17.8
				c0-19.3,15.7-35.1,35.1-35.1s35.1,15.7,35.1,35.1c0,6.3-1.7,12.4-4.9,17.8l0,0c-0.4,0.6-0.7,1.2-1.1,1.8
				c-2.1,3.6-6.7,12.8-6.7,25.1c0,14.5,6.5,24.6,7.3,25.8c2.8,3.5,24.2,32.4,24.2,86.1c0,46.9-22.9,80.8-23.9,82.2L187.7,419.7z
				 M146.9,402.5h36c5.4-9.4,18.6-35.8,18.6-68.8c0-49.6-20.3-75.2-20.5-75.5l-0.3-0.4c-0.4-0.6-10.6-14.9-10.6-36
				c0-16.8,6.5-29.4,9.3-34.1l0.3-0.4c0.2-0.3,0.5-0.7,0.7-1.1l0,0c1.6-2.7,2.5-5.9,2.5-9.1c0-9.9-8-17.9-17.9-17.9
				s-17.9,8-17.9,17.9c0,3.2,0.9,6.3,2.5,9.1l0,0c0.2,0.4,0.4,0.7,0.7,1.1l0.3,0.4c2.8,4.7,9.3,17.3,9.3,34.1
				c0,21.1-10.2,35.4-10.6,36l-0.3,0.4c-0.2,0.2-20.5,25.8-20.5,75.4C128.3,366.9,141.4,393.1,146.9,402.5z"/>
		</g>
	</g>
	<g>
		<g>
			<path fill="#E6E7E8" d="M369.9,252.8c0,0-9-12.4-9-31c0-14.7,5.7-25.8,8.1-29.7c0.3-0.5,0.7-1,1-1.6l0,0l0,0
				c2.3-3.9,3.7-8.5,3.7-13.4c0-14.6-11.9-26.5-26.5-26.5c-14.6,0-26.5,11.9-26.5,26.5c0,4.9,1.3,9.5,3.7,13.4l0,0l0,0
				c0.3,0.5,0.6,1.1,1,1.6c2.4,3.9,8.1,15,8.1,29.7c0,18.5-9,31-9,31s-22.4,27.1-22.4,80.9c0,44.7,22.4,77.4,22.4,77.4h22.8h22.8
				c0,0,22.4-32.6,22.4-77.4C392.3,279.9,369.9,252.8,369.9,252.8z"/>
		</g>
	</g>
	<g>
		<g>
			<path fill="#E6E7E8" d="M330.2,240.5c1.7-5,3.1-11.4,3.1-18.7c0-5.4-0.8-10.3-1.9-14.6h31.3c-1.1,4.2-1.9,9.2-1.9,14.6
				c0,7.3,1.4,13.7,3.1,18.7H330.2z"/>
		</g>
	</g>
	<g>
		<g>
			<path fill="#D04527" d="M376,249.1h-57.7l3.8-11.3c1.8-5.2,2.7-10.6,2.7-16c0-4.2-0.5-8.3-1.6-12.4l-2.8-10.8h53.5l-2.8,10.8
				c-1.1,4.1-1.6,8.3-1.6,12.4c0,5.4,0.9,10.8,2.7,16L376,249.1z M341.2,231.9H353c-0.5-3.4-0.8-6.7-0.8-10.1c0-2,0.1-4,0.3-6h-10.9
				c0.2,2,0.3,4,0.3,6C341.9,225.2,341.7,228.6,341.2,231.9z"/>
		</g>
	</g>
	<g>
		<g>
			<path fill="#414042" d="M369.9,419.7h-45.7l-7.1-3.7c-1-1.4-23.9-35.4-23.9-82.2c0-53.7,21.3-82.5,24.2-86.1
				c0.8-1.1,7.3-11.4,7.3-25.8c0-12.2-4.6-21.5-6.7-25.1c-0.4-0.6-0.8-1.2-1.1-1.8l0,0c-3.2-5.4-4.9-11.5-4.9-17.8
				c0-19.3,15.7-35.1,35.1-35.1c19.3,0,35.1,15.7,35.1,35.1c0,6.3-1.7,12.4-4.9,17.8l0,0c-0.4,0.6-0.7,1.2-1.1,1.8
				c-2.1,3.6-6.7,12.8-6.7,25.1c0,14.3,6.5,24.5,7.3,25.8c2.9,3.6,24.1,32.4,24.1,86.1c0,46.9-22.9,80.8-23.9,82.2L369.9,419.7z
				 M329.1,402.5h36c5.4-9.4,18.6-35.8,18.6-68.8c0-49.6-20.3-75.2-20.5-75.5l-0.3-0.4c-0.4-0.6-10.6-14.9-10.6-36
				c0-16.8,6.5-29.4,9.3-34.1l0.3-0.4c0.2-0.3,0.5-0.7,0.7-1.1l0,0c1.6-2.7,2.5-5.9,2.5-9.1c0-9.9-8-17.9-17.9-17.9
				c-9.9,0-17.9,8-17.9,17.9c0,3.2,0.9,6.3,2.5,9.1l0,0c0.2,0.4,0.4,0.7,0.7,1l0.3,0.5c2.8,4.7,9.3,17.3,9.3,34.1
				c0,21.1-10.2,35.4-10.6,36l-0.3,0.4c-0.2,0.2-20.5,25.8-20.5,75.4C310.5,366.9,323.7,393.1,329.1,402.5z"/>
		</g>
	</g>
	<g>
		<g>
			<path fill="#E6E7E8" d="M283.1,222.6c0,0-10.7-14.8-10.7-36.9c0-17.5,6.8-30.7,9.6-35.4c0.4-0.6,0.8-1.2,1.2-1.9l0,0l0,0
				c2.8-4.7,4.4-10.2,4.4-16c0-17.4-14.1-31.5-31.5-31.5s-31.5,14.1-31.5,31.5c0,5.8,1.6,11.3,4.4,16l0,0c0,0,0,0,0,0
				c0.4,0.6,0.8,1.3,1.2,1.9c2.8,4.7,9.6,17.8,9.6,35.4c0,22-10.7,36.9-10.7,36.9s-26.7,32.3-26.7,96.4c0,53.3,26.6,92.1,26.6,92.1
				H256h27.2c0,0,26.6-38.9,26.6-92.1C309.8,254.9,283.1,222.6,283.1,222.6z"/>
		</g>
	</g>
	<g>
		<g>
			<path fill="#E6E7E8" d="M235.9,208c2-6,3.7-13.6,3.7-22.3c0-6.4-0.9-12.3-2.2-17.4h37.2c-1.3,5.1-2.2,10.9-2.2,17.4
				c0,8.7,1.7,16.3,3.7,22.3H235.9z"/>
		</g>
	</g>
	<g>
		<g>
			<path fill="#D04527" d="M288.1,216.6h-64.2l3.8-11.4c2.2-6.4,3.3-12.9,3.3-19.5c0-5.1-0.7-10.2-2-15.2l-2.8-10.8h59.5l-2.8,10.8
				c-1.3,5-2,10.1-2,15.2c0,6.6,1.1,13.2,3.3,19.5L288.1,216.6z M247,199.4h18c-0.8-4.5-1.2-9.1-1.2-13.7c0-2.9,0.2-5.9,0.5-8.8
				h-16.6c0.3,2.9,0.5,5.8,0.5,8.8C248.2,190.3,247.8,194.9,247,199.4z"/>
		</g>
	</g>
	<g>
		<g>
			<path fill="#414042" d="M283.2,419.7h-54.4l-7.1-3.7c-1.1-1.7-28.1-41.7-28.1-97c0-63.8,25.4-97.7,28.4-101.5
				c0.9-1.3,9-13.9,9-31.7c0-15-5.7-26.4-8.3-30.7c-0.5-0.7-0.9-1.4-1.3-2.1l0,0c-3.6-6.2-5.6-13.2-5.6-20.4
				c0-22.1,18-40.1,40.1-40.1s40.1,18,40.1,40.1c0,7.2-1.9,14.2-5.6,20.4c-0.4,0.7-0.9,1.4-1.3,2.1c-2.6,4.4-8.3,15.7-8.3,30.7
				c0,17.8,8.1,30.3,9,31.7c3.1,3.8,28.4,37.8,28.4,101.5c0,55.3-27,95.3-28.1,97L283.2,419.7z M233.6,402.5h44.8
				c6.2-10.6,22.8-42.9,22.8-83.5c0-59.8-24.5-90.6-24.8-90.9l-0.3-0.4c-0.5-0.7-12.3-17.4-12.3-41.9c0-19.6,7.6-34.3,10.8-39.8
				l0.3-0.4c0.3-0.5,0.6-0.9,0.9-1.4c2.1-3.5,3.2-7.5,3.2-11.6c0-12.7-10.3-23-23-23s-23,10.3-23,23c0,4.1,1.1,8.1,3.2,11.6l0,0
				c0.3,0.5,0.6,0.9,0.9,1.3l0.3,0.5c3.3,5.4,10.8,20.2,10.8,39.8c0,24.5-11.8,41.2-12.3,41.9l-0.3,0.4
				c-0.2,0.3-24.8,31.1-24.8,90.9C210.8,359.8,227.4,391.9,233.6,402.5z"/>
		</g>
	</g>
</g>
</svg>
