<?xml version="1.0" encoding="utf-8"?>
<!-- Generator: Adobe Illustrator 18.0.0, SVG Export Plug-In . SVG Version: 6.00 Build 0)  -->
<!DOCTYPE svg PUBLIC "-//W3C//DTD SVG 1.1//EN" "http://www.w3.org/Graphics/SVG/1.1/DTD/svg11.dtd">
<svg version="1.1" id="Layer_1" xmlns="http://www.w3.org/2000/svg" xmlns:xlink="http://www.w3.org/1999/xlink" x="0px" y="0px"
	 viewBox="0 0 512 512" enable-background="new 0 0 512 512" xml:space="preserve">
<g>
	<g>
		<g>
			<path fill="#E6E7E8" d="M402.4,130h-40.6c-25.5,0-46.2,19.5-46.2,43.5v11.1c0,5.6,0,15.9,0,15.9v9.8l-32.7-78.6h-46.2l-32.5,76.5
				v-33.9c0-22.9-19.9-41.5-44.3-41.5h-52.1c-24.4,0-44.3,18.6-44.3,41.5v52.9c0,6.9,1.8,13.4,5,19.1h-2v53h14V329h-14v53h91.4v-0.3
				h160.5v-14.1c7.7,8.6,19.4,14.1,32.4,14.1h55.8c23.2,0,42.1-17.5,42.1-39v-57.3c0-11.6-5.6-22.1-14.3-29.2
				c8.8-7.9,14.3-19.1,14.3-31.4v-12c0-5.2,0-14.8,0-14.8v-24.5C448.7,149.5,427.9,130,402.4,130z M124.1,191.2h19.3v19.2h-19.3
				V191.2z M171.9,329h-14.2h-1.2h-11.8v-29.5h11.8h1.2h14.2V329z M303.2,299.5h5.3V328h-5.3V299.5z M384.5,321.3h-11.8v-14.6h11.8
				V321.3z"/>
		</g>
	</g>
	<g>
		<g>
			<path fill="#414042" d="M402.4,130c25.5,0,46.2,19.5,46.2,43.5v24.5c0,0,0,9.6,0,14.8v12c0,12.3-5.5,23.5-14.3,31.4
				c8.7,7.2,14.3,17.6,14.3,29.2v57.3c0,21.5-18.9,39-42.1,39h-55.8c-13,0-24.7-5.5-32.4-14.1v14.1H157.7v0.3H66.3v-53h14v-29.7h-14
				v-53h2c-3.2-5.7-5-12.2-5-19.1v-52.9c0-22.9,19.9-41.5,44.3-41.5h52.1c24.4,0,44.3,18.6,44.3,41.5v33.9l32.5-76.5h46.2l32.7,78.6
				v-9.8c0,0,0-10.3,0-15.9v-11.1c0-24,20.7-43.5,46.2-43.5H402.4 M124.1,210.4h19.3v-19.2h-19.3V210.4 M303.2,328h5.3v-28.5h-5.3
				V328 M144.7,329h11.8h1.2h14.2v-29.5h-14.2h-1.2h-11.8V329 M372.7,321.3h11.8v-14.6h-11.8V321.3 M402.4,112.2h-40.6
				c-23.5,0-44,12.1-55.2,30.2l-7.3-17.5c-2.8-6.7-9.3-11-16.5-11h-46.2c-7.2,0-13.6,4.3-16.4,10.9l-7.7,18.1
				c-11-16.7-30.5-27.9-52.7-27.9h-52.1c-34.3,0-62.2,26.6-62.2,59.3v52.9c0,6.2,1,12.3,3,18.2c0,0.3,0,0.6,0,0.9v53
				c0,6.2,3.1,11.6,7.9,14.8c-4.8,3.2-7.9,8.7-7.9,14.8v53c0,9.9,8,17.8,17.8,17.8h91.4c1,0,2.1-0.1,3.1-0.3h157.5
				c4.1,0,7.9-1.4,11-3.8c6.8,2.5,14,3.8,21.5,3.8h55.8c33.1,0,60-25.5,60-56.9v-57.3c0-10.6-3.1-20.8-8.8-29.6
				c5.7-9.3,8.8-20,8.8-31v-12v-14.8v-24.5C466.5,139.7,437.8,112.2,402.4,112.2L402.4,112.2z"/>
		</g>
	</g>
	<g>
		<g>
			<polygon fill="#D04527" points="84,281.7 98,281.7 98,346.7 84,346.7 84,364.4 98,364.4 127.1,364.4 140.1,364.4 140.1,346.7 
				127.1,346.7 127.1,281.7 140.1,281.7 140.1,264 84,264 			"/>
		</g>
	</g>
	<g>
		<g>
			<polygon fill="#D04527" points="260.5,264.3 244.9,264.3 244.9,281.9 260.5,281.9 260.5,325.3 214.8,264.7 214.8,264.3 
				214.5,264.3 189.5,264.3 174.1,264.3 174.1,281.9 189.5,281.9 189.5,346.8 174.1,346.8 174.1,364.1 189.5,364.1 214.5,364.1 
				227.8,364.1 227.8,346.8 214.5,346.8 214.5,303 260.3,363.8 260.3,364.1 260.5,364.1 285.6,364.1 300.6,364.1 300.6,345.6 
				285.6,345.6 285.6,281.9 300.6,281.9 300.6,264.3 285.6,264.3 			"/>
		</g>
	</g>
	<g>
		<g>
			<path fill="#D04527" d="M406.5,264h-55.8c-13.5,0-24.5,9.6-24.5,21.4v57.3c0,11.8,11,21.4,24.5,21.4h55.8
				c13.5,0,24.5-9.6,24.5-21.4v-57.3C431,273.6,420,264,406.5,264z M402.2,328.9c0,5.6-5.2,10.1-11.5,10.1h-24
				c-6.4,0-11.5-4.5-11.5-10.1v-29.7c0-5.6,5.2-10.1,11.5-10.1h24c6.4,0,11.5,4.5,11.5,10.1V328.9z"/>
		</g>
	</g>
	<g>
		<g>
			<path fill="#D04527" d="M159.8,150.5h-52.1c-14.7,0-26.7,10.7-26.7,23.8v52.9c0,13.1,12,23.8,26.7,23.8h52.1
				c14.7,0,26.7-10.7,26.7-23.8v-11.6H161v11.6c0,0.3-0.5,0.8-1.2,0.8h-52.1c-0.7,0-1.2-0.4-1.2-0.8v-52.9c0-0.3,0.5-0.8,1.2-0.8
				h52.1c0.7,0,1.2,0.4,1.2,0.8v12.2h25.5v-12.2C186.5,161.2,174.5,150.5,159.8,150.5z"/>
		</g>
	</g>
	<g>
		<g>
			<path fill="#D04527" d="M271.1,149.4h-22.8l-35.9,84.3h-14.5v3.3v13.6h7.3h26.3h13.3h6.1v-16.9h-11.5l3.2-6.9h34.9l2.6,6.9h-12
				v16.9h4.7h13.7h26.6h6.6h1.4v-16.9h-15L271.1,149.4z M247.3,212.9l12.2-32.3l12.1,32.3H247.3z"/>
		</g>
	</g>
	<g>
		<g>
			<path fill="#D04527" d="M361.8,250.6h40.6c15.8,0,28.6-11.6,28.6-25.9v-12c0-14.3-12.8-25.9-28.6-25.9h-40.6
				c-1.4,0-2.6-1.1-2.6-2.3v-11.1c0-1.3,1.2-2.3,2.6-2.3h40.6c1.4,0,2.6,1.1,2.6,2.3v6.8h26v-6.8c0-14.3-12.8-25.9-28.6-25.9h-40.6
				c-15.8,0-28.6,11.6-28.6,25.9v11.1c0,14.3,12.8,25.9,28.6,25.9h40.6c1.4,0,2.6,1.1,2.6,2.3v12c0,1.3-1.2,2.3-2.6,2.3h-40.6
				c-1.4,0-2.6-1.1-2.6-2.3v-6.7h-26v6.7C333.2,239,346,250.6,361.8,250.6z"/>
		</g>
	</g>
	<g>
		<g>
			<rect x="140.1" y="294.1" fill="#E6E7E8" width="12.3" height="40.9"/>
		</g>
	</g>
	<g>
		<g>
			<rect x="115" y="180.4" fill="#E6E7E8" width="12.3" height="40.9"/>
		</g>
	</g>
	<g>
		<g>
			<rect x="140.1" y="180.4" fill="#E6E7E8" width="12.3" height="40.9"/>
		</g>
	</g>
	<g>
		<g>
			<rect x="165.1" y="294.1" fill="#E6E7E8" width="12.3" height="40.9"/>
		</g>
	</g>
</g>
</svg>
