<?xml version="1.0" encoding="utf-8"?>
<!-- Generator: Adobe Illustrator 18.0.0, SVG Export Plug-In . SVG Version: 6.00 Build 0)  -->
<!DOCTYPE svg PUBLIC "-//W3C//DTD SVG 1.1//EN" "http://www.w3.org/Graphics/SVG/1.1/DTD/svg11.dtd">
<svg version="1.1" id="Layer_1" xmlns="http://www.w3.org/2000/svg" xmlns:xlink="http://www.w3.org/1999/xlink" x="0px" y="0px"
	 viewBox="0 0 512 512" enable-background="new 0 0 512 512" xml:space="preserve">
<g>
	<g>
		<g>
			<polygon fill="#19B4B8" points="256,90.1 118.4,127.4 118.4,146.6 256,146.6 393.6,146.6 393.6,127.4 			"/>
		</g>
	</g>
	<g>
		<g>
			<polygon fill="#109999" points="361.8,118.8 361.8,146.6 393.6,146.6 393.6,127.4 			"/>
		</g>
	</g>
	<g>
		<g>
			<path fill="#414042" d="M393.6,155.5H118.4c-4.9,0-8.9-4-8.9-8.9v-19.2c0-4,2.7-7.6,6.6-8.6l137.6-37.3c1.5-0.4,3.1-0.4,4.7,0
				L396,118.8c3.9,1.1,6.6,4.6,6.6,8.6v19.2C402.5,151.5,398.5,155.5,393.6,155.5z M127.3,137.7h257.4v-3.5L256,99.3l-128.7,34.9
				V137.7z"/>
		</g>
	</g>
	<g>
		<g>
			<path fill="#414042" d="M256,99c-4.9,0-8.9-4-8.9-8.9V69.6c0-4.9,4-8.9,8.9-8.9s8.9,4,8.9,8.9v20.5C264.9,95,260.9,99,256,99z"/>
		</g>
	</g>
	<g>
		<g>
			<circle fill="#414042" cx="256" cy="160.9" r="35.6"/>
		</g>
		<g>
			<path fill="#414042" d="M256,205.4c-24.5,0-44.5-20-44.5-44.5s20-44.5,44.5-44.5s44.5,20,44.5,44.5S280.5,205.4,256,205.4z
				 M256,134.2c-14.7,0-26.7,12-26.7,26.7s12,26.7,26.7,26.7c14.7,0,26.7-12,26.7-26.7S270.7,134.2,256,134.2z"/>
		</g>
	</g>
	<g>
		<g>
			<rect x="411.7" y="146.6" fill="#BFAA80" width="25.9" height="48.6"/>
		</g>
	</g>
	<g>
		<g>
			<rect x="74.4" y="146.6" fill="#D3BF8D" width="363.2" height="48.6"/>
		</g>
	</g>
	<g>
		<g>
			<rect x="162.4" y="195.2" fill="#19B4B8" width="187.3" height="190.2"/>
		</g>
	</g>
	<g>
		<g>
			<rect x="74.4" y="385.5" fill="#19B4B8" width="363.2" height="56.9"/>
		</g>
	</g>
	<g>
		<g>
			<rect x="407.8" y="382.2" fill="#109999" width="29.8" height="60.2"/>
		</g>
	</g>
	<g>
		<g>
			<rect x="319.8" y="197.3" fill="#109999" width="29.8" height="188.1"/>
		</g>
	</g>
	<g>
		<g>
			<rect x="236" y="408.9" fill="#414042" width="46.5" height="33.4"/>
		</g>
		<g>
			<path fill="#414042" d="M282.5,451.3H236c-4.9,0-8.9-4-8.9-8.9v-33.4c0-4.9,4-8.9,8.9-8.9h46.5c4.9,0,8.9,4,8.9,8.9v33.4
				C291.4,447.3,287.4,451.3,282.5,451.3z M244.9,433.5h28.7v-15.6h-28.7V433.5z"/>
		</g>
	</g>
	<g>
		<g>
			<path fill="#414042" d="M437.6,394.4H74.4c-4.9,0-8.9-4-8.9-8.9s4-8.9,8.9-8.9h363.2c4.9,0,8.9,4,8.9,8.9
				S442.5,394.4,437.6,394.4z"/>
		</g>
	</g>
	<g>
		<g>
			<path fill="#19B4B8" d="M162.4,217.5v-22.3h-21.5H95.8H74.4v22.3c0,0,21.5,0,21.5,18.2V345c0,18.2-21.5,18.2-21.5,18.2v22.3h21.5
				h45.1h21.5v-22.3c0,0-21.5,0-21.5-18.2V235.7C140.9,217.5,162.4,217.5,162.4,217.5z"/>
		</g>
	</g>
	<g>
		<g>
			<path fill="#414042" d="M162.4,394.4h-88c-4.9,0-8.9-4-8.9-8.9v-22.3c0-4.9,4-8.9,8.9-8.9c2.9,0,12.5-0.8,12.5-9.2V235.7
				c0-9-11.2-9.2-12.5-9.2c-4.9,0-8.9-4-8.9-8.9v-22.3c0-4.9,4-8.9,8.9-8.9h88c4.9,0,8.9,4,8.9,8.9v22.3c0,4.9-4,8.9-8.9,8.9
				c-2.9,0-12.5,0.8-12.5,9.2V345c0,9,11.2,9.2,12.5,9.2c4.9,0,8.9,4,8.9,8.9v22.3C171.3,390.4,167.3,394.4,162.4,394.4z
				 M83.3,376.5h70.1v-5.6c-10.6-2.7-21.5-10.5-21.5-25.9V235.7c0-15.4,10.9-23.2,21.5-25.9v-5.6H83.3v5.6
				c10.6,2.7,21.5,10.5,21.5,25.9V345c0,15.4-10.9,23.2-21.5,25.9V376.5z"/>
		</g>
	</g>
	<g>
		<g>
			<path fill="#19B4B8" d="M437.6,217.5v-22.3h-21.5h-45.1h-21.5v22.3c0,0,21.5,0,21.5,18.2V345c0,18.2-21.5,18.2-21.5,18.2v22.3
				h21.5h45.1h21.5v-22.3c0,0-21.5,0-21.5-18.2V235.7C416.2,217.5,437.6,217.5,437.6,217.5z"/>
		</g>
	</g>
	<g>
		<g>
			<path fill="#414042" d="M437.6,394.4h-88c-4.9,0-8.9-4-8.9-8.9v-22.3c0-4.9,4-8.9,8.9-8.9c2.9,0,12.5-0.8,12.5-9.2V235.7
				c0-8.4-9.6-9.2-12.6-9.2c-4.9-0.1-8.9-4-8.9-8.9v-22.3c0-4.9,4-8.9,8.9-8.9h88c4.9,0,8.9,4,8.9,8.9v22.3c0,4.9-4,8.9-8.9,8.9
				c-2.9,0-12.5,0.8-12.5,9.2V345c0,9,11.2,9.2,12.5,9.2c4.9,0,8.9,4,8.9,8.9v22.3C446.5,390.4,442.5,394.4,437.6,394.4z
				 M358.6,376.5h70.1v-5.6c-10.6-2.7-21.5-10.5-21.5-25.9V235.7c0-15.4,10.9-23.2,21.5-25.9v-5.6h-70.1v5.6
				c10.6,2.7,21.5,10.5,21.5,25.9V345c0,15.4-10.9,23.2-21.5,25.9V376.5z"/>
		</g>
	</g>
	<g>
		<g>
			<path fill="#414042" d="M349.6,394.4H162.4c-4.9,0-8.9-4-8.9-8.9V195.2c0-4.9,4-8.9,8.9-8.9h187.3c4.9,0,8.9,4,8.9,8.9v190.2
				C358.6,390.4,354.6,394.4,349.6,394.4z M171.3,376.5h169.4V204.2H171.3V376.5z"/>
		</g>
	</g>
	<g>
		<g>
			<path fill="#414042" d="M437.6,451.3H74.4c-4.9,0-8.9-4-8.9-8.9v-56.9c0-4.9,4-8.9,8.9-8.9h363.2c4.9,0,8.9,4,8.9,8.9v56.9
				C446.5,447.3,442.5,451.3,437.6,451.3z M83.3,433.5h345.4v-39.1H83.3V433.5z"/>
		</g>
	</g>
	<g>
		<g>
			<path fill="none" stroke="#414042" stroke-width="9" stroke-linecap="round" stroke-linejoin="round" stroke-miterlimit="10" d="
				M166.9,151.8"/>
		</g>
	</g>
	<g>
		<g>
			<path fill="#414042" d="M437.6,204.2H74.4c-4.9,0-8.9-4-8.9-8.9v-48.6c0-4.9,4-8.9,8.9-8.9h363.2c4.9,0,8.9,4,8.9,8.9v48.6
				C446.5,200.2,442.5,204.2,437.6,204.2z M83.3,186.3h345.4v-30.8H83.3V186.3z"/>
		</g>
	</g>
	<g>
		<g>
			<g>
				<rect x="207.3" y="228.4" fill="#414042" width="26.2" height="19.5"/>
			</g>
			<g>
				<path fill="#414042" d="M233.5,256.8h-26.2c-4.9,0-8.9-4-8.9-8.9v-19.5c0-4.9,4-8.9,8.9-8.9h26.2c4.9,0,8.9,4,8.9,8.9v19.5
					C242.4,252.8,238.4,256.8,233.5,256.8z M216.2,239h8.4v-1.7h-8.4V239z"/>
			</g>
		</g>
		<g>
			<g>
				<rect x="278.5" y="228.4" fill="#414042" width="26.2" height="19.5"/>
			</g>
			<g>
				<path fill="#414042" d="M304.7,256.8h-26.2c-4.9,0-8.9-4-8.9-8.9v-19.5c0-4.9,4-8.9,8.9-8.9h26.2c4.9,0,8.9,4,8.9,8.9v19.5
					C313.6,252.8,309.6,256.8,304.7,256.8z M287.4,239h8.4v-1.7h-8.4V239z"/>
			</g>
		</g>
		<g>
			<g>
				<rect x="207.3" y="280.6" fill="#414042" width="26.2" height="19.5"/>
			</g>
			<g>
				<path fill="#414042" d="M233.5,309h-26.2c-4.9,0-8.9-4-8.9-8.9v-19.5c0-4.9,4-8.9,8.9-8.9h26.2c4.9,0,8.9,4,8.9,8.9v19.5
					C242.4,305,238.4,309,233.5,309z M216.2,291.2h8.4v-1.7h-8.4V291.2z"/>
			</g>
		</g>
		<g>
			<g>
				<rect x="278.5" y="280.6" fill="#414042" width="26.2" height="19.5"/>
			</g>
			<g>
				<path fill="#414042" d="M304.7,309h-26.2c-4.9,0-8.9-4-8.9-8.9v-19.5c0-4.9,4-8.9,8.9-8.9h26.2c4.9,0,8.9,4,8.9,8.9v19.5
					C313.6,305,309.6,309,304.7,309z M287.4,291.2h8.4v-1.7h-8.4V291.2z"/>
			</g>
		</g>
		<g>
			<g>
				<rect x="207.3" y="332.8" fill="#414042" width="26.2" height="19.5"/>
			</g>
			<g>
				<path fill="#414042" d="M233.5,361.2h-26.2c-4.9,0-8.9-4-8.9-8.9v-19.5c0-4.9,4-8.9,8.9-8.9h26.2c4.9,0,8.9,4,8.9,8.9v19.5
					C242.4,357.2,238.4,361.2,233.5,361.2z M216.2,343.4h8.4v-1.7h-8.4V343.4z"/>
			</g>
		</g>
		<g>
			<g>
				<rect x="278.5" y="332.8" fill="#414042" width="26.2" height="19.5"/>
			</g>
			<g>
				<path fill="#414042" d="M304.7,361.2h-26.2c-4.9,0-8.9-4-8.9-8.9v-19.5c0-4.9,4-8.9,8.9-8.9h26.2c4.9,0,8.9,4,8.9,8.9v19.5
					C313.6,357.2,309.6,361.2,304.7,361.2z M287.4,343.4h8.4v-1.7h-8.4V343.4z"/>
			</g>
		</g>
	</g>
</g>
</svg>
