<?xml version="1.0" encoding="utf-8"?>
<!-- Generator: Adobe Illustrator 18.0.0, SVG Export Plug-In . SVG Version: 6.00 Build 0)  -->
<!DOCTYPE svg PUBLIC "-//W3C//DTD SVG 1.1//EN" "http://www.w3.org/Graphics/SVG/1.1/DTD/svg11.dtd">
<svg version="1.1" id="Layer_1" xmlns="http://www.w3.org/2000/svg" xmlns:xlink="http://www.w3.org/1999/xlink" x="0px" y="0px"
	 viewBox="0 0 512 512" enable-background="new 0 0 512 512" xml:space="preserve">
<g>
	<g>
		<g>
			<path fill="#8D4F76" d="M198.8,213.2c-34-31.7-61.3-69.9-78.6-113.1l-2.6-6.5l-2.8,1.1l-22.2,8.9l-2.8,1.1l2.6,6.5
				c17.3,43.2,23.9,89.6,21.3,136c-0.8,13.8,0.9,29.5,7.4,46l34.4,85.9c4.1,10.3,15.8,15.3,26.1,11.2l22.3-8.9l22.2-8.9l22.3-8.9
				c10.3-4.1,15.3-15.8,11.2-26.1l-34.4-85.9C218.5,235.1,208.8,222.6,198.8,213.2z"/>
		</g>
	</g>
	<g>
		<g>
			<path fill="#BB8B30" d="M119,105.2l-22.4,9c-4.9,2-10.5-0.4-12.4-5.3l-1.1-2.7c-2-4.9,0.4-10.5,5.3-12.4l22.4-9
				c4.9-2,10.5,0.4,12.4,5.3l1.1,2.7C126.3,97.6,123.9,103.2,119,105.2z"/>
		</g>
	</g>
	<g>
		<g>
			<path fill="#414042" d="M114.3,84.1c3.9,0,7.5,2.3,9.1,6.1l0.9,2.3c1.6,4,0.4,8.3-2.7,11c17.4,41.8,44.1,78.8,77.2,109.7
				c10.1,9.4,19.8,21.9,26.4,38.4l34.4,85.9c4.1,10.3-0.9,22-11.2,26.1l-22.3,8.9l-22.2,8.9l-22.3,8.9c-2.5,1-5,1.4-7.5,1.4
				c-8,0-15.5-4.8-18.7-12.6L121,293.3c-6.6-16.5-8.2-32.2-7.4-46c2.6-45.2-3.6-90.4-19.9-132.6c-0.2,0-0.3,0-0.5,0
				c-3.9,0-7.5-2.3-9.1-6.1l-0.9-2.3c-2-5,0.4-10.7,5.4-12.7l22-8.8C111.9,84.3,113.1,84.1,114.3,84.1 M114.3,66.3
				c-3.5,0-7,0.7-10.3,2l-22,8.8C67.9,82.8,61,98.9,66.6,113l0.9,2.3c2.5,6.1,6.9,11,12.4,14c12.8,36.5,18.1,75.9,15.8,117.1
				c-1.1,18.5,1.9,36.6,8.7,53.7l34.4,85.9c5.8,14.5,19.6,23.8,35.2,23.8c4.8,0,9.6-0.9,14.1-2.7l22.3-8.9l22.2-8.9l22.3-8.9
				c9.4-3.8,16.8-11,20.8-20.3c4-9.3,4.1-19.6,0.3-29L241.7,245c-6.8-17.1-17.2-32.1-30.8-44.8c-30.2-28.2-53.5-60.3-69.4-95.6
				c1.9-6,1.8-12.6-0.6-18.7l-0.9-2.3C135.7,73.1,125.6,66.3,114.3,66.3L114.3,66.3z"/>
		</g>
	</g>
	<g>
		<g>
			<g>
				<path fill="#E6E7E8" d="M353.9,435.9v-25.1l9.5,0c4.5-0.1,8.2-3.9,8.2-8.6v-52.4c0-0.1,0-0.2,0-0.4c-0.1-9.2-5.1-17.6-12.8-22.8
					c-19-12.8-27.6-29.8-27.6-53.8c0-32.5,10.1-92.2,10.5-94.7l1.3-7.7h85.8l1.3,7.7c0.4,2.5,10.5,62.3,10.5,94.7
					c0,24-8.7,41-27.7,53.8c-7.7,5.2-12.8,13.6-12.8,22.8c0,0.1,0,0.2,0,0.2v52.4c0,4.7,3.7,8.6,8.2,8.6l9.5,0v25.1H353.9z"/>
			</g>
		</g>
		<g>
			<g>
				<path fill="#E6E7E8" d="M353.9,435.9v-25.1l9.5,0c4.5-0.1,8.2-3.9,8.2-8.6v-52.4c0-0.1,0-0.2,0-0.4c-0.1-9.2-5.1-17.6-12.8-22.8
					c-19-12.8-27.6-29.8-27.6-53.8c0-32.5,10.1-92.2,10.5-94.7l1.3-7.7h85.8l1.3,7.7c0.4,2.5,10.5,62.3,10.5,94.7
					c0,24-8.7,41-27.7,53.8c-7.7,5.2-12.8,13.6-12.8,22.8c0,0.1,0,0.2,0,0.2v52.4c0,4.7,3.7,8.6,8.2,8.6l9.5,0v25.1H353.9z"/>
			</g>
		</g>
		<g>
			<g>
				<path fill="#D3BF8D" d="M359.3,227.1c-2,16.1-3.7,33.3-3.7,45.8c0,16,4.7,25.4,16.8,33.5c5.3,3.5,9.8,7.9,13.4,12.8
					c3.6-4.9,8.2-9.2,13.4-12.8c12.2-8.2,16.9-17.6,16.9-33.6c0-12.5-1.7-29.7-3.7-45.8H359.3z"/>
			</g>
		</g>
		<g>
			<g>
				<path fill="#F5F6F7" d="M366.9,170.5c0,0-9.4,54.8-11.1,81.4c-1.3,21.5-3.7,44.6,19.4,56.4c0,0-10.5-20.9-6.4-58
					c4.6-41.8,10.5-79.9,10.5-79.9H366.9z"/>
			</g>
		</g>
		<g>
			<g>
				<path fill="#414042" d="M417.8,444.9h-63.9c-4.9,0-8.9-4-8.9-8.9v-25.1c0-4.9,4-8.9,8.9-8.9h8.8l0-52.5
					c-0.1-5.9-3.4-11.7-8.8-15.4c-21.5-14.5-31.6-33.9-31.6-61.2c0-33.2,10.2-93.7,10.7-96.2l1.3-7.7c0.7-4.3,4.4-7.4,8.8-7.4h85.8
					c4.3,0,8.1,3.1,8.8,7.4l1.3,7.7c0.4,2.6,10.7,63.1,10.7,96.2c0,26.9-10.4,47-31.7,61.3c-5.5,3.7-8.8,9.5-8.9,15.5l0,52.3h8.8
					c4.9,0,8.9,4,8.9,8.9v25.1C426.7,440.9,422.7,444.9,417.8,444.9z M362.8,427h46.1v-7.2h-0.6c-9.5-0.1-17.2-8-17.2-17.5l0-52.9
					c0.1-11.8,6.3-23,16.8-30c16.5-11,23.8-25.4,23.8-46.4c0-31.7-10-90.7-10.4-93.2l0-0.2h-70.7l0,0.2
					c-0.4,2.5-10.4,61.5-10.4,93.2c0,21.1,7.3,35.4,23.7,46.4c10.4,7,16.6,18.2,16.7,30.1l0,0.4v52.4c0,9.5-7.7,17.4-17.1,17.5h-0.7
					V427z"/>
			</g>
		</g>
	</g>
	<g>
		<g>
			<path fill="#BC7DA7" d="M173.3,343.7l-19.6,7.9c-35.3-63.8-30.1-107.1-30.1-107.1c-3.3-58.4-12.9-101.9-20.6-128.8l4.6-1.6
				c10.2,23.5,23.1,61,30.7,112.2C150.5,308.8,173.3,343.7,173.3,343.7z"/>
		</g>
	</g>
	<g>
		<g>
			<path fill="#EDB940" d="M161,171.6l-49,18.7c-1-9.4-2.5-18.7-4.4-28l37.1-14.2C149.8,156.2,155.2,164,161,171.6z"/>
		</g>
	</g>
	<g>
		<g>
			<path fill="#414042" d="M84.3,132c-3.5,0-6.9-2.1-8.3-5.6c-1.8-4.6,0.4-9.8,5-11.6l46.5-18.7c4.6-1.8,9.8,0.4,11.6,5
				s-0.4,9.8-5,11.6l-46.5,18.7C86.6,131.8,85.5,132,84.3,132z"/>
		</g>
	</g>
	<g>
		<g>
			<path fill="#BC7DA7" d="M292.1,237.9l-38.8,198.9h-32.1L261,239.4c0,0,0.2-0.5,0.7-1.5H292.1z"/>
		</g>
	</g>
	<g>
		<g>
			<polygon fill="#E3D4A6" points="253.3,436.8 110.2,436.8 71.4,237.9 292.1,237.9 			"/>
		</g>
	</g>
	<g>
		<g>
			<path fill="#D3BF8D" d="M292.1,237.9l-38.8,198.9c0,0-132.4,0-132.5,0c31.2,0,66.8-23.2,87.4-44.6c40-41.6,49.4-97.3,52.8-152.7
				c0,0,0.2-0.5,0.7-1.5H292.1z"/>
		</g>
	</g>
	<g>
		<g>
			<polygon fill="#D04527" points="271.1,312.5 265.2,342.8 101.3,342.8 95.4,312.5 			"/>
		</g>
	</g>
	<g>
		<g>
			<polygon fill="#D04527" points="271.1,312.5 265.2,342.8 101.3,342.8 95.4,312.5 			"/>
		</g>
	</g>
	<g>
		<g>
			<path fill="#414042" d="M253.3,445.7H110.2c-4.3,0-7.9-3-8.8-7.2L62.6,239.6c-0.5-2.6,0.2-5.3,1.9-7.4c1.7-2.1,4.2-3.2,6.9-3.2
				h220.7c2.7,0,5.2,1.2,6.9,3.2c1.7,2.1,2.4,4.8,1.9,7.4L262,438.5C261.2,442.7,257.5,445.7,253.3,445.7z M117.5,427.9h128.4
				l35.3-181H82.2L117.5,427.9z"/>
		</g>
	</g>
</g>
</svg>
