<?xml version="1.0" encoding="utf-8"?>
<!-- Generator: Adobe Illustrator 18.0.0, SVG Export Plug-In . SVG Version: 6.00 Build 0)  -->
<!DOCTYPE svg PUBLIC "-//W3C//DTD SVG 1.1//EN" "http://www.w3.org/Graphics/SVG/1.1/DTD/svg11.dtd">
<svg version="1.1" id="Layer_1" xmlns="http://www.w3.org/2000/svg" xmlns:xlink="http://www.w3.org/1999/xlink" x="0px" y="0px"
	 viewBox="0 0 512 512" enable-background="new 0 0 512 512" xml:space="preserve">
<g>
	<g>
		<g>
			<path fill="#D04527" d="M398.7,321c-3.1-1.8-5.9-3.5-8.4-5.1c-1.7-1.2-3.5-2.3-5.5-3.5c-4.7-3-9.2-5.7-11.8-8.9
				c-2.2-2.6-3.4-5.7-3.3-8.3c0.3-4.2,5.9-7.5,11.1-7.8c6-0.4,12.8,1,19.3,3.7v14.4h31.4v-43.5H412c-4.4-1.8-8.9-3.3-13.4-4.3v-17.5
				h-31.4v18.1c-14.7,4.9-27.8,17-28.8,35c-0.6,10.5,3.2,21.5,10.6,30.3c5.9,7,13,11.4,19.3,15.4l0.1,0.1c1.5,1,3.1,1.9,4.5,2.9
				c3.1,2,6.2,3.9,9.6,5.9l0.2,0.1c16.8,10,24.2,15.8,23.2,23.6c-0.9,7.5-9.9,12.2-17.7,12.2c-10.9,0-16.5-4.9-19-8v-16.4h-31.4
				v22.3v1.9v22.8h19.3c2.9,1.9,6.3,3.6,10.1,5.1v19.3h31.4v-16.7c18.2-3.7,35.9-17,38.5-38.7C440.6,345.9,415.4,330.9,398.7,321z"
				/>
		</g>
	</g>
	<g>
		<g>
			<g>
				<path fill="#F15A22" d="M221.1,152.6c-16.3-4.1-35.4-6.5-55.8-6.5s-39.5,2.4-55.8,6.5H57.4v38.5c0,24.9,48.3,45,107.9,45
					c59.6,0,107.9-20.1,107.9-45v-38.5H221.1z"/>
			</g>
		</g>
		<g>
			<g>
				<path fill="#E6E7E8" d="M107.9,190.7v38.5h0c-9.7-2.5-18.3-5.7-25.6-9.4v-38.5C89.5,185,98.2,188.1,107.9,190.7z"/>
			</g>
		</g>
		<g>
			<g>
				<path fill="#E6E7E8" d="M182.7,197v38.5c-5.6,0.4-11.5,0.6-17.4,0.6s-11.7-0.2-17.3-0.6V197h0c5.6,0.4,11.4,0.6,17.3,0.6
					S177,197.4,182.7,197L182.7,197z"/>
			</g>
		</g>
		<g>
			<g>
				<path fill="#E6E7E8" d="M249.3,180.8l-0.1,38.6c-7,3.6-15.4,6.8-24.8,9.3v-38.5C233.8,187.6,242.2,184.5,249.3,180.8
					L249.3,180.8z"/>
			</g>
		</g>
		<g>
			<g>
				<path fill="#414042" d="M165.3,245c-66.6,0-116.9-23.2-116.9-53.9v-38.5c0-4.9,4-8.9,8.9-8.9h51c17.2-4.2,36.9-6.5,56.9-6.5
					s39.7,2.2,56.9,6.5h51c4.9,0,8.9,4,8.9,8.9v38.5C282.2,221.8,231.9,245,165.3,245z M66.3,161.5v29.6c0,17,42.3,36.1,99,36.1
					c56.7,0,99-19,99-36.1v-29.6h-43.2c-0.7,0-1.5-0.1-2.2-0.3c-16.1-4.1-34.6-6.2-53.6-6.2s-37.5,2.1-53.6,6.2
					c-0.7,0.2-1.4,0.3-2.2,0.3H66.3z"/>
			</g>
		</g>
		<g>
			<g>
				<ellipse fill="#F15A22" cx="165.3" cy="152.6" rx="107.9" ry="45"/>
			</g>
		</g>
		<g>
			<g>
				<g>
					<g>
						<path fill="#E6E7E8" d="M182.7,115.5l-3.3,10.1c-4.6-0.3-9.2-0.5-14-0.5c-4.8,0-9.5,0.2-14.1,0.5l-3.3-10.1
							c5.6-0.4,11.4-0.6,17.4-0.6C171.2,114.9,177,115.1,182.7,115.5z"/>
					</g>
				</g>
			</g>
			<g>
				<g>
					<g>
						<path fill="#E6E7E8" d="M182.7,189.7c-5.6,0.4-11.4,0.6-17.4,0.6c-5.9,0-11.7-0.2-17.4-0.6l3.3-10.1c4.6,0.3,9.3,0.5,14.1,0.5
							c4.8,0,9.5-0.2,14-0.5L182.7,189.7z"/>
					</g>
				</g>
			</g>
			<g>
				<g>
					<g>
						<path fill="#E6E7E8" d="M123.8,129.8c-7.8,2-14.6,4.5-19.9,7.4l-21.7-6.3c3.3-1.7,7-3.4,11.2-4.9s8.6-2.9,13.3-4.2
							L123.8,129.8z"/>
					</g>
				</g>
			</g>
			<g>
				<g>
					<g>
						<path fill="#E6E7E8" d="M248.4,174.3c-3.3,1.7-7,3.4-11.2,4.9c-4.2,1.6-8.6,2.9-13.3,4.2l-17-8c7.8-2,14.6-4.5,19.9-7.4
							L248.4,174.3z"/>
					</g>
				</g>
			</g>
			<g>
				<g>
					<g>
						<path fill="#E6E7E8" d="M91.2,152.6c0,1.8,0.5,3.5,1.3,5.2L65.2,159c-1-2.1-1.5-4.2-1.5-6.4c0-2.2,0.5-4.3,1.5-6.4l27.3,1.2
							C91.6,149,91.2,150.8,91.2,152.6z"/>
					</g>
				</g>
			</g>
			<g>
				<g>
					<g>
						<path fill="#E6E7E8" d="M266.9,152.6c0,2.2-0.5,4.3-1.5,6.4l-27.3-1.2c0.9-1.7,1.3-3.4,1.3-5.2c0-1.8-0.5-3.5-1.3-5.2
							l27.3-1.2C266.4,148.2,266.9,150.4,266.9,152.6z"/>
					</g>
				</g>
			</g>
			<g>
				<g>
					<g>
						<path fill="#E6E7E8" d="M123.8,175.3l-17,8c-4.7-1.2-9.1-2.6-13.3-4.2c-4.2-1.6-7.9-3.2-11.2-4.9l21.7-6.3
							C109.2,170.9,116,173.4,123.8,175.3z"/>
					</g>
				</g>
			</g>
			<g>
				<g>
					<g>
						<path fill="#E6E7E8" d="M248.4,130.9l-21.7,6.3c-5.3-2.9-12.1-5.4-19.9-7.4l17-8c4.7,1.2,9.1,2.6,13.3,4.2
							C241.4,127.5,245.1,129.1,248.4,130.9z"/>
					</g>
				</g>
			</g>
		</g>
		<g>
			<g>
				<path fill="#414042" d="M165.3,206.5c-66.6,0-116.9-23.2-116.9-53.9s50.2-53.9,116.9-53.9c66.6,0,116.9,23.2,116.9,53.9
					S231.9,206.5,165.3,206.5z M165.3,116.5c-56.7,0-99,19-99,36.1s42.3,36.1,99,36.1c56.7,0,99-19,99-36.1S222,116.5,165.3,116.5z"
					/>
			</g>
		</g>
		<g>
			<g>
				<ellipse fill="#E6E7E8" cx="165.3" cy="152.7" rx="54.2" ry="15.5"/>
			</g>
		</g>
		<g>
			<g>
				<path fill="#414042" d="M165.3,177.1c-10.5,0-63.1-1.2-63.1-24.4c0-23.2,52.6-24.4,63.1-24.4s63.1,1.2,63.1,24.4
					C228.4,175.9,175.9,177.1,165.3,177.1z M122.8,152.7c6.4,3,21.2,6.6,42.6,6.6s36.1-3.6,42.6-6.6c-6.4-3-21.2-6.6-42.6-6.6
					S129.2,149.7,122.8,152.7z"/>
			</g>
		</g>
	</g>
	<g>
		<g>
			<g>
				<path fill="#F15A22" d="M230,109.3c-16.3-4.1-35.4-6.5-55.8-6.5s-39.5,2.4-55.8,6.5H66.3v38.5c0,24.9,48.3,45,107.9,45
					c59.6,0,107.9-20.1,107.9-45v-38.5H230z"/>
			</g>
		</g>
		<g>
			<g>
				<path fill="#E6E7E8" d="M116.8,147.4v38.5h0c-9.7-2.5-18.3-5.7-25.6-9.4v-38.5C98.4,141.7,107.1,144.9,116.8,147.4z"/>
			</g>
		</g>
		<g>
			<g>
				<path fill="#E6E7E8" d="M191.6,153.7v38.5c-5.6,0.4-11.5,0.6-17.4,0.6s-11.7-0.2-17.3-0.6v-38.5h0c5.6,0.4,11.4,0.6,17.3,0.6
					S185.9,154.1,191.6,153.7L191.6,153.7z"/>
			</g>
		</g>
		<g>
			<g>
				<path fill="#E6E7E8" d="M258.2,137.6l-0.1,38.6c-7,3.6-15.4,6.8-24.8,9.3V147C242.7,144.4,251.1,141.2,258.2,137.6L258.2,137.6z
					"/>
			</g>
		</g>
		<g>
			<g>
				<path fill="#414042" d="M174.2,201.8c-66.6,0-116.9-23.2-116.9-53.9v-38.5c0-4.9,4-8.9,8.9-8.9h51c17.2-4.2,36.9-6.5,56.9-6.5
					c20,0,39.7,2.2,56.9,6.5h51c4.9,0,8.9,4,8.9,8.9v38.5C291.1,178.6,240.8,201.8,174.2,201.8z M75.2,118.2v29.6
					c0,17,42.3,36.1,99,36.1c56.7,0,99-19,99-36.1v-29.6H230c-0.7,0-1.5-0.1-2.2-0.3c-16.1-4.1-34.6-6.2-53.6-6.2
					c-19,0-37.5,2.1-53.6,6.2c-0.7,0.2-1.4,0.3-2.2,0.3H75.2z"/>
			</g>
		</g>
		<g>
			<g>
				<ellipse fill="#F15A22" cx="174.2" cy="109.3" rx="107.9" ry="45"/>
			</g>
		</g>
		<g>
			<g>
				<g>
					<g>
						<path fill="#E6E7E8" d="M191.6,72.2l-3.3,10.1c-4.6-0.3-9.2-0.5-14-0.5c-4.8,0-9.5,0.2-14.1,0.5l-3.3-10.1
							c5.6-0.4,11.4-0.6,17.4-0.6C180.1,71.7,185.9,71.8,191.6,72.2z"/>
					</g>
				</g>
			</g>
			<g>
				<g>
					<g>
						<path fill="#E6E7E8" d="M191.6,146.4c-5.6,0.4-11.4,0.6-17.4,0.6s-11.7-0.2-17.4-0.6l3.3-10.1c4.6,0.3,9.3,0.5,14.1,0.5
							c4.8,0,9.5-0.2,14-0.5L191.6,146.4z"/>
					</g>
				</g>
			</g>
			<g>
				<g>
					<g>
						<path fill="#E6E7E8" d="M132.7,86.6c-7.8,2-14.6,4.5-19.9,7.4l-21.7-6.3c3.3-1.7,7-3.4,11.2-4.9s8.6-2.9,13.3-4.2L132.7,86.6z
							"/>
					</g>
				</g>
			</g>
			<g>
				<g>
					<g>
						<path fill="#E6E7E8" d="M257.3,131c-3.3,1.7-7,3.4-11.2,4.9c-4.2,1.6-8.6,2.9-13.3,4.2l-17-8c7.8-2,14.6-4.5,19.9-7.4
							L257.3,131z"/>
					</g>
				</g>
			</g>
			<g>
				<g>
					<g>
						<path fill="#E6E7E8" d="M100.1,109.3c0,1.8,0.5,3.5,1.3,5.2l-27.3,1.2c-1-2.1-1.5-4.2-1.5-6.4c0-2.2,0.5-4.3,1.5-6.4l27.3,1.2
							C100.5,105.8,100.1,107.5,100.1,109.3z"/>
					</g>
				</g>
			</g>
			<g>
				<g>
					<g>
						<path fill="#E6E7E8" d="M275.8,109.3c0,2.2-0.5,4.3-1.5,6.4l-27.3-1.2c0.9-1.7,1.3-3.4,1.3-5.2c0-1.8-0.5-3.5-1.3-5.2
							l27.3-1.2C275.3,105,275.8,107.1,275.8,109.3z"/>
					</g>
				</g>
			</g>
			<g>
				<g>
					<g>
						<path fill="#E6E7E8" d="M132.7,132.1l-17,8c-4.7-1.2-9.1-2.6-13.3-4.2c-4.2-1.6-7.9-3.2-11.2-4.9l21.7-6.3
							C118.1,127.6,124.9,130.1,132.7,132.1z"/>
					</g>
				</g>
			</g>
			<g>
				<g>
					<g>
						<path fill="#E6E7E8" d="M257.3,87.6l-21.7,6.3c-5.3-2.9-12.1-5.4-19.9-7.4l17-8c4.7,1.2,9.1,2.6,13.3,4.2
							C250.2,84.2,254,85.9,257.3,87.6z"/>
					</g>
				</g>
			</g>
		</g>
		<g>
			<g>
				<path fill="#414042" d="M174.2,163.2c-66.6,0-116.9-23.2-116.9-53.9c0-30.7,50.2-53.9,116.9-53.9c66.6,0,116.9,23.2,116.9,53.9
					C291.1,140.1,240.8,163.2,174.2,163.2z M174.2,73.2c-56.7,0-99,19-99,36.1c0,17,42.3,36.1,99,36.1c56.7,0,99-19,99-36.1
					C273.2,92.3,230.9,73.2,174.2,73.2z"/>
			</g>
		</g>
		<g>
			<g>
				<ellipse fill="#E6E7E8" cx="174.2" cy="109.4" rx="54.2" ry="15.5"/>
			</g>
		</g>
		<g>
			<g>
				<path fill="#414042" d="M174.2,133.8c-10.5,0-63.1-1.2-63.1-24.4c0-23.2,52.6-24.4,63.1-24.4c10.5,0,63.1,1.2,63.1,24.4
					C237.3,132.7,184.8,133.8,174.2,133.8z M131.7,109.4c6.4,3,21.2,6.6,42.6,6.6c21.4,0,36.1-3.6,42.6-6.6
					c-6.4-3-21.2-6.6-42.6-6.6S138.1,106.5,131.7,109.4z"/>
			</g>
		</g>
	</g>
	<g>
		<g>
			<path fill="#BB8B30" d="M411.4,129.3C406.3,88.4,377.6,64,333.4,64h0c18.7,16.6,29.6,40.3,30.1,65.3h-32l55.3,57.1l57.1-57.1
				H411.4z"/>
		</g>
	</g>
	<g>
		<g>
			<path fill="#414042" d="M386.7,195.3C386.7,195.3,386.7,195.3,386.7,195.3c-2.5,0-4.7-1-6.4-2.7L325,135.5
				c-2.5-2.6-3.2-6.4-1.8-9.7c1.4-3.3,4.6-5.4,8.2-5.4h22.4c-2.6-19.1-11.9-36.8-26.4-49.7c-2.8-2.5-3.7-6.4-2.4-9.8
				s4.6-5.8,8.3-5.8c45.9,0,77.3,24.2,85.6,65.3h24.8c3.6,0,6.9,2.2,8.2,5.5c1.4,3.3,0.6,7.2-1.9,9.7L393,192.7
				C391.4,194.4,389.1,195.3,386.7,195.3z M352.5,138.2l34.3,35.5l35.5-35.5h-10.9c-4.5,0-8.3-3.3-8.9-7.8
				c-3.7-29.3-20.6-48.5-47.4-55c10.7,15.7,16.8,34.4,17.2,53.7c0,2.4-0.9,4.7-2.5,6.4c-1.7,1.7-4,2.7-6.4,2.7H352.5z"/>
		</g>
	</g>
	<g>
		<g>
			<path fill="#BB8B30" d="M131.1,354.6c6.7,53.5,44.3,85.5,102.2,85.5h0c-24.5-21.8-38.8-52.8-39.4-85.5h41.9l-72.4-74.8
				l-74.8,74.8H131.1z"/>
		</g>
	</g>
	<g>
		<g>
			<path fill="#414042" d="M233.3,449c-59.4,0-99.9-31.8-109.9-85.5H88.7c-3.6,0-6.9-2.2-8.2-5.5c-1.4-3.3-0.6-7.2,1.9-9.7
				l74.8-74.8c1.7-1.7,4-2.6,6.4-2.6c2.4,0,4.7,1,6.3,2.7l71.9,74.3c1.9,1.6,3,4,3,6.7c0,4.9-4,8.9-8.9,8.9c0,0,0,0,0,0h-32.4
				c2.8,26.8,15.6,51.9,35.8,69.9c2.8,2.5,3.7,6.4,2.4,9.8C240.3,446.7,237,449,233.3,449z M110.2,345.6h20.9c4.5,0,8.3,3.3,8.9,7.8
				c5.3,42.1,30.8,68.9,71.2,75.9c-16.3-21.2-25.7-47.4-26.2-74.6c0-2.4,0.9-4.7,2.5-6.4c1.7-1.7,4-2.7,6.4-2.7h20.8l-51.4-53.1
				L110.2,345.6z"/>
		</g>
	</g>
	<g>
		<g>
			<g>
				<path fill="#414042" d="M407.8,456.9H358c-9.3,0-16.9-7.5-16.9-16.9v-7.6h-12.5c-9.3,0-16.9-7.5-16.9-16.9v-65.5
					c0-7.7,5.2-14.3,12.3-16.2c-8.4-12.6-12.6-27.6-11.8-42.1c1.2-20.4,11.6-38.1,28.8-49.5v-11.2c0-9.3,7.5-16.9,16.9-16.9h49.9
					c9.3,0,16.9,7.5,16.9,16.9v4.9h16.1c9.3,0,16.9,7.5,16.9,16.9v61.9c0,6.1-3.2,11.4-8,14.4c11.1,14.6,15.6,31.1,13.5,49.3
					c-2.8,23.4-16.9,43-38.3,53.9v7.7C424.7,449.3,417.1,456.9,407.8,456.9z M374.8,423.2H391v-2c0-7,4.4-13.3,11-15.8l2.4-0.9
					c14.3-5.3,23.5-16.3,25.2-30.1c1.2-10.1-0.2-23.7-22.4-39.1l-9.6-6.7c-6-4.2-8.7-11.8-6.5-18.9c2.2-7,8.7-11.8,16.1-11.8h16.7
					v-28.2h-10.1c-2.1,0-4.1-0.4-6.1-1.1l-0.6-0.2c-0.8-0.3-1.6-0.6-2.3-0.9l-2.5-0.9c-6.8-2.4-11.3-8.7-11.3-15.9v-2.8h-16.2v4.2
					c0,6.3-3.5,12.1-9.2,15l-2,1c-10.8,5.5-17,14.7-17.7,25.7c-0.5,8.6,2.7,17.7,8.8,24.9c3.9,4.7,8.5,8,12.5,10.6l10.2,6.7
					c6.2,4.1,9,11.8,6.9,18.9c-2.1,7.1-8.7,12-16.1,12h-22.7v31.8h9.1c2.9,0,5.7,0.7,8.2,2.1l3.2,1.8c5.4,2.9,8.8,8.6,8.8,14.8
					V423.2z"/>
			</g>
		</g>
		<g>
			<g>
				<path fill="#E6E7E8" d="M358,440v-22.5l-1.9-1l-1.5-0.9h-25.9v-65.5h39.6l-10.2-6.7c-4.7-3.1-10.8-7.4-16.1-13.8
					c-8.8-10.5-13.5-23.9-12.7-36.8c1-17,10.8-31.5,26.8-39.7l2-1v-21h49.9v19.6l2.5,0.9c1,0.3,1.9,0.7,2.9,1.1l0.6,0.2h26.9v61.9
					h-33.6l9.6,6.7c22.4,15.6,32.1,33.6,29.5,55c-2.4,20-15.9,36.4-36.1,43.9l-2.4,0.9V440H358z"/>
			</g>
		</g>
		<g>
			<g>
				<path fill="#D04527" d="M398.7,321c-3.1-1.8-5.9-3.5-8.4-5.1c-1.7-1.2-3.5-2.3-5.5-3.5c-4.7-3-9.2-5.7-11.8-8.9
					c-2.2-2.6-3.4-5.7-3.3-8.3c0.3-4.2,5.9-7.5,11.1-7.8c6-0.4,12.8,1,19.3,3.7v14.4h31.4v-43.5H412c-4.4-1.8-8.9-3.3-13.4-4.3
					v-17.5h-31.4v18.1c-14.7,4.9-27.8,17-28.8,35c-0.6,10.5,3.2,21.5,10.6,30.3c5.9,7,13,11.4,19.3,15.4l0.1,0.1
					c1.5,1,3.1,1.9,4.5,2.9c3.1,2,6.2,3.9,9.6,5.9l0.2,0.1c16.8,10,24.2,15.8,23.2,23.6c-0.9,7.5-9.9,12.2-17.7,12.2
					c-10.9,0-16.5-4.9-19-8v-16.4h-31.4v22.3v1.9v22.8h19.3c2.9,1.9,6.3,3.6,10.1,5.1v19.3h31.4v-16.7c18.2-3.7,35.9-17,38.5-38.7
					C440.6,345.9,415.4,330.9,398.7,321z"/>
			</g>
		</g>
	</g>
</g>
</svg>
