<?xml version="1.0" encoding="utf-8"?>
<!-- Generator: Adobe Illustrator 18.0.0, SVG Export Plug-In . SVG Version: 6.00 Build 0)  -->
<!DOCTYPE svg PUBLIC "-//W3C//DTD SVG 1.1//EN" "http://www.w3.org/Graphics/SVG/1.1/DTD/svg11.dtd">
<svg version="1.1" id="Layer_1" xmlns="http://www.w3.org/2000/svg" xmlns:xlink="http://www.w3.org/1999/xlink" x="0px" y="0px"
	 viewBox="0 0 512 512" enable-background="new 0 0 512 512" xml:space="preserve">
<g>
	<g>
		<g>
			<path fill="#4AA046" d="M253.6,253.9L369.2,406c10,13.2,29.5,14.5,41.2,2.8l0,0c11.8-11.8,10.4-31.2-3-41.2L253.6,253.9z"/>
		</g>
	</g>
	<g>
		<g>
			<path fill="#414042" d="M391.1,425.3C391.1,425.3,391.1,425.3,391.1,425.3c-11.4,0-21.8-5.2-28.7-14.2L246.8,259l11.9-12
				l153.8,113.7c8.4,6.2,13.6,15.7,14.4,26.1c0.8,10.4-3,20.6-10.4,27.9C409.7,421.6,400.7,425.3,391.1,425.3z M296.6,296.3
				l79.5,104.6c3.6,4.7,9.1,7.4,15,7.4c5,0,9.7-2,13.3-5.5c3.9-3.9,5.9-9.2,5.5-14.6c-0.4-5.4-3.2-10.4-7.6-13.7L296.6,296.3z"/>
		</g>
	</g>
	<g>
		<g>
			<path fill="#5ABA47" d="M363.7,253.8c0.9,0.1,1.8,0.1,2.8,0.1c25.6,0,46.4-20.2,47.2-45.5c0.8-26.1-21-48.6-47.2-48.6
				c-0.3,0-0.7,0-1,0c-9.7,0.2-17.4-7.5-17.3-17.2c0-0.2,0-0.4,0-0.6c-0.1-26.1-22.7-47.8-49-46.9c-25.3,0.9-45.5,21.6-45.5,47
				l0,111.7L363.7,253.8L363.7,253.8z"/>
		</g>
	</g>
	<g>
		<g>
			<path fill="#5ABA47" d="M143.5,254c-0.9-0.1-1.8-0.1-2.8-0.1c-26.9,0-48.6,22.4-47.2,49.6c1.3,23.8,20.9,43.3,44.8,44.4
				c1.9,0.1,3.9,0.1,5.7-0.1c8.6-0.6,15.6,6.3,15.1,14.9c-0.1,1-0.1,1.9-0.1,2.9c0,24.7,19.9,45.7,44.7,46.9
				c27.2,1.4,49.8-20.2,49.8-47l0-111.7L143.5,254L143.5,254z"/>
		</g>
	</g>
	<g>
		<g>
			<path fill="#5ABA47" d="M143.5,253.8c-0.9,0.1-1.8,0.1-2.8,0.1c-26.9,0-48.6-22.4-47.2-49.6c1.3-23.8,20.9-43.3,44.8-44.4
				c1.2-0.1,2.3-0.1,3.5,0c9.6,0.2,17.4-7.5,17.3-17.1c0-0.2,0-0.4,0-0.6c0-24.7,19.9-45.7,44.7-46.9c27.2-1.4,49.8,20.2,49.8,47
				l0,111.7L143.5,253.8L143.5,253.8z"/>
		</g>
	</g>
	<g>
		<g>
			<path fill="#5ABA47" d="M363.7,254c0.9-0.1,1.8-0.1,2.8-0.1c26.9,0,48.6,22.4,47.2,49.6c-1.3,23.8-20.9,43.3-44.8,44.4
				c-1.2,0.1-2.3,0.1-3.5,0c-9.6-0.2-17.4,7.5-17.3,17.1c0,0.2,0,0.4,0,0.6c0,24.7-19.9,45.7-44.7,46.9c-27.2,1.4-49.8-20.2-49.8-47
				l0-111.7L363.7,254L363.7,254z"/>
		</g>
	</g>
	<g>
		<g>
			<path fill="#4AA046" d="M261.3,150l0,96.3h93.1l-48.2-6.5c-19.5-2.6-34.9-17.9-37.6-37.3L261.3,150z"/>
		</g>
	</g>
	<g>
		<g>
			<path fill="#4AA046" d="M246.6,150l0,96.3h-93.1l48.2-6.5c19.5-2.6,34.9-17.9,37.6-37.3L246.6,150z"/>
		</g>
	</g>
	<g>
		<g>
			<path fill="#4AA046" d="M246.6,358l0-96.3l-93.1,0l48.2,6.5c19.5,2.6,34.9,17.9,37.6,37.3L246.6,358z"/>
		</g>
	</g>
	<g>
		<g>
			<path fill="#4AA046" d="M261.3,358l0-96.3l93.1,0l-48.2,6.5c-19.5,2.6-34.9,17.9-37.6,37.3L261.3,358z"/>
		</g>
	</g>
	<g>
		<g>
			<path fill="#4AA046" d="M413.8,206.9c0,19.3-11.7,35.9-28.5,43.2c2.5-5.7,3.9-12,3.9-18.6c0-26-21.1-47-47.2-47
				c-1.1,0-2.3,0-3.4,0.1c-8.6,0.6-15.6-6.4-15.1-15c0.1-0.9,0.1-1.8,0.1-2.8c0-26-21.2-47-47.3-47c-6.7,0-13,1.4-18.7,3.9
				c7.9-18.2,27-30.4,48.6-28.1c21.8,2.4,39.4,19.9,41.7,41.6c0.3,2.7,0.4,5.4,0.2,8.1c-0.5,8.6,6.5,15.5,15.1,14.9
				c1.1-0.1,2.2-0.1,3.4-0.1C392.6,159.9,413.8,180.9,413.8,206.9z"/>
		</g>
	</g>
	<g>
		<g>
			<path fill="#4AA046" d="M206.4,413.2c19.4,0,36.1-11.7,43.4-28.4c-5.7,2.5-12.1,3.9-18.7,3.9c-26.1,0-47.2-21-47.2-47
				c0-1.1,0-2.3,0.1-3.4c0.6-8.6-6.4-15.5-15.1-15c-0.9,0.1-1.9,0.1-2.8,0.1c-26.1,0-47.3-21.1-47.3-47c0-6.6,1.4-13,3.9-18.6
				c-18.3,7.9-30.6,26.9-28.2,48.4c2.4,21.7,20,39.2,41.8,41.5c2.8,0.3,5.5,0.4,8.1,0.2c8.6-0.5,15.6,6.5,14.9,15
				c-0.1,1.1-0.1,2.2-0.1,3.4C159.1,392.2,180.3,413.2,206.4,413.2z"/>
		</g>
	</g>
	<g>
		<g>
			<path fill="#4AA046" d="M413.5,305.7c-2.2,22-20,39.8-42.1,42c-2.1,0.2-4.1,0.3-6.1,0.2c-9.6-0.2-17.4,7.5-17.2,17.1
				c0,0.2,0,0.4,0,0.6c0,26-21.2,47-47.3,47c-19.9,0-37-12.3-43.9-29.7c5.4,2.1,11.3,3.3,17.4,3.3c26.1,0,47.3-21.1,47.3-47
				c0-0.2,0-0.4,0-0.6c-0.1-9.5,7.5-17.4,17-17.1c2.3,0.1,4.7,0,7.1-0.3c23-2.7,40.9-22.3,41.5-45.4c0.2-6.6-1-12.9-3.3-18.6
				C402.8,264.6,415.7,283.8,413.5,305.7z"/>
		</g>
	</g>
	<g>
		<g>
			<path fill="#4AA046" d="M93.9,201.7c2.2-22,20-39.8,42.1-42c2.1-0.2,4.1-0.3,6.1-0.2c9.6,0.2,17.4-7.5,17.2-17.1
				c0-0.2,0-0.4,0-0.6c0-26,21.2-47,47.3-47c19.9,0,37,12.3,43.9,29.7c-5.4-2.1-11.3-3.3-17.4-3.3c-26.1,0-47.3,21.1-47.3,47
				c0,0.2,0,0.4,0,0.6c0.1,9.5-7.5,17.4-17,17.1c-2.3-0.1-4.7,0-7.1,0.3c-23,2.7-40.9,22.3-41.5,45.4c-0.2,6.6,1,12.9,3.3,18.6
				C104.6,242.7,91.8,223.5,93.9,201.7z"/>
		</g>
	</g>
	<g>
		<g>
			<path fill="#414042" d="M206.4,421.1c-1,0-2,0-3-0.1c-29.1-1.5-52.8-26.4-52.8-55.4c0-1.1,0-2.3,0.1-3.4c0.1-1.6-0.4-3.1-1.5-4.2
				c-1.1-1.2-2.7-1.8-4.4-1.7c-2.2,0.2-4.5,0.2-6.8,0.1c-28.2-1.4-51.5-24.4-53-52.5c-0.8-15.4,4.6-30.1,15.2-41.2
				c10.6-11.2,25-17.3,40.5-17.3c1,0,2,0,3,0.1l109.9-0.1l8.6,8.5v111.7C262.2,396.2,237.2,421.1,206.4,421.1z M145.2,339.3
				c6.2,0,12.2,2.6,16.4,7.1c4.3,4.6,6.5,10.6,6.1,16.9c0,0.8-0.1,1.6-0.1,2.4c0,20.1,16.4,37.4,36.6,38.4
				c22.3,1.2,40.8-16.5,40.8-38.4V262.4l-101.5,0.1l-0.5,0c-0.8,0-1.5-0.1-2.3-0.1c-10.7,0-20.7,4.3-28.1,12
				c-7.4,7.7-11.1,17.9-10.6,28.6c1,19.4,17.2,35.4,36.7,36.3c1.6,0.1,3.2,0.1,4.7-0.1C144.1,339.3,144.7,339.3,145.2,339.3z"/>
		</g>
	</g>
	<g>
		<g>
			<path fill="#414042" d="M254.3,262.4l-109.9-0.1c-1,0.1-2,0.1-3,0.1c-15.5,0-29.9-6.2-40.5-17.3c-10.6-11.2-16-25.8-15.2-41.2
				c1.5-28.1,24.8-51.1,53-52.5c1.4-0.1,2.7-0.1,4.1,0l0.2,0c2.2,0,4.3-0.9,5.9-2.4c1.6-1.6,2.4-3.7,2.4-6l0-0.7
				c0-29.1,23.7-53.9,52.8-55.4c32.1-1.6,58.8,23.9,58.8,55.5v111.7L254.3,262.4z M141.5,168.4c-0.6,0-1.3,0-1.9,0
				c-19.5,0.9-35.7,16.9-36.7,36.3c-0.6,10.7,3.2,20.9,10.6,28.6c7.4,7.7,17.4,12,28.1,12c0.8,0,1.5,0,2.3-0.1l0.5,0l101.5,0.1
				V142.2c0-21.9-18.5-39.6-40.8-38.4c-20.2,1-36.6,18.3-36.6,38.4l0,0.5c0.1,6.9-2.5,13.4-7.3,18.2c-4.8,4.8-11.2,7.5-18.1,7.5
				l-0.6,0C142.1,168.4,141.8,168.4,141.5,168.4z"/>
		</g>
	</g>
	<g>
		<g>
			<path fill="#414042" d="M367.2,262.4c-1,0-2,0-3-0.1l-109.9,0.1l-8.6-8.5V142.2c0-31.6,26.6-57.1,58.8-55.5
				c29.1,1.5,52.8,26.4,52.8,55.4l0,0.7c0,2.3,0.8,4.5,2.4,6c1.6,1.6,3.6,2.4,5.9,2.4l0.2,0c1.4,0,2.7,0,4.1,0
				c28.2,1.4,51.5,24.4,53,52.5c0.8,15.4-4.6,30.1-15.2,41.2C397.1,256.3,382.7,262.4,367.2,262.4z M364.5,245.3l0.5,0
				c0.8,0,1.5,0.1,2.3,0.1c10.7,0,20.7-4.3,28.1-12c7.4-7.7,11.1-17.9,10.6-28.6c-1-19.4-17.2-35.4-36.7-36.3c-1,0-1.9-0.1-2.9,0
				l-0.6,0c-6.9,0-13.3-2.7-18.1-7.5c-4.8-4.9-7.4-11.3-7.3-18.2l0-0.5c0-20.1-16.4-37.4-36.6-38.4c-22.3-1.2-40.8,16.5-40.8,38.4
				v103.2L364.5,245.3z"/>
		</g>
	</g>
	<g>
		<g>
			<path fill="#414042" d="M300.9,421.1c-14.9,0-28.9-5.8-39.5-16.3c-10.5-10.5-16.3-24.4-16.3-39.3V253.9l8.6-8.5l109.9,0.1
				c1-0.1,2-0.1,3-0.1c15.5,0,29.9,6.2,40.5,17.3c10.6,11.2,16.1,25.8,15.2,41.2c-1.5,28.1-24.8,51.1-53,52.5
				c-1.4,0.1-2.7,0.1-4.1,0l-0.2,0c-2.2,0-4.3,0.9-5.9,2.4c-1.6,1.6-2.4,3.7-2.4,6l0,0.7c0,29.1-23.7,53.9-52.8,55.4
				C302.9,421.1,301.9,421.1,300.9,421.1C300.9,421.1,300.9,421.1,300.9,421.1z M262.2,262.4v103.2c0,10.3,4,20,11.3,27.2
				c7.8,7.8,18.3,11.8,29.4,11.2c20.2-1,36.6-18.3,36.6-38.4l0-0.5c-0.1-6.9,2.5-13.4,7.3-18.2c4.8-4.8,11.2-7.5,18.1-7.5l0.6,0
				c0.9,0,1.9,0,2.8,0c19.5-0.9,35.7-16.9,36.7-36.3c0.6-10.7-3.2-20.9-10.6-28.6c-7.4-7.7-17.4-12-28.1-12c-0.8,0-1.5,0-2.3,0.1
				l-0.5,0L262.2,262.4z"/>
		</g>
	</g>
</g>
</svg>
