<?xml version="1.0" encoding="utf-8"?>
<!-- Generator: Adobe Illustrator 18.0.0, SVG Export Plug-In . SVG Version: 6.00 Build 0)  -->
<!DOCTYPE svg PUBLIC "-//W3C//DTD SVG 1.1//EN" "http://www.w3.org/Graphics/SVG/1.1/DTD/svg11.dtd">
<svg version="1.1" id="Layer_1" xmlns="http://www.w3.org/2000/svg" xmlns:xlink="http://www.w3.org/1999/xlink" x="0px" y="0px"
	 viewBox="0 0 512 512" enable-background="new 0 0 512 512" xml:space="preserve">
<g>
	<g>
		<g>
			<g>
				<g>
					<path fill="#F15A22" d="M212.9,310.1c-16.1-4.1-34.9-6.4-55-6.4s-39,2.3-55,6.4H51.5v38c0,24.5,47.6,44.3,106.4,44.3
						c58.8,0,106.4-19.9,106.4-44.3v-38H212.9z"/>
				</g>
			</g>
			<g>
				<g>
					<path fill="#E6E7E8" d="M101.3,347.6v38h0c-9.5-2.5-18-5.6-25.2-9.2v-38C83.2,342,91.7,345.1,101.3,347.6z"/>
				</g>
			</g>
			<g>
				<g>
					<path fill="#E6E7E8" d="M175,353.9v38c-5.6,0.4-11.3,0.6-17.1,0.6s-11.5-0.2-17.1-0.6v-38h0c5.6,0.4,11.3,0.6,17.1,0.6
						S169.4,354.2,175,353.9L175,353.9z"/>
				</g>
			</g>
			<g>
				<g>
					<path fill="#E6E7E8" d="M240.6,337.9l-0.1,38c-6.9,3.6-15.2,6.7-24.4,9.2v-38C225.4,344.6,233.7,341.5,240.6,337.9L240.6,337.9
						z"/>
				</g>
			</g>
			<g>
				<g>
					<path fill="#414042" d="M157.9,401.2c-65.7,0-115.2-22.8-115.2-53.1v-38c0-4.9,3.9-8.8,8.8-8.8h50.3c17-4.2,36.4-6.4,56.1-6.4
						s39.1,2.2,56.1,6.4h50.3c4.9,0,8.8,3.9,8.8,8.8v38C273.1,378.3,223.5,401.2,157.9,401.2z M60.3,318.9V348
						c0,16.8,41.7,35.6,97.6,35.6s97.6-18.8,97.6-35.6v-29.2h-42.6c-0.7,0-1.4-0.1-2.2-0.3c-15.9-4-34.1-6.1-52.9-6.1
						s-37,2.1-52.9,6.1c-0.7,0.2-1.4,0.3-2.2,0.3H60.3z"/>
				</g>
			</g>
			<g>
				<g>
					<ellipse fill="#F15A22" cx="157.9" cy="310.1" rx="106.4" ry="44.3"/>
				</g>
			</g>
			<g>
				<g>
					<g>
						<g>
							<path fill="#E6E7E8" d="M175,273.5l-3.2,10c-4.5-0.3-9.1-0.5-13.8-0.5c-4.7,0-9.4,0.2-13.9,0.5l-3.2-10
								c5.6-0.4,11.3-0.5,17.1-0.5S169.4,273.1,175,273.5z"/>
						</g>
					</g>
				</g>
				<g>
					<g>
						<g>
							<path fill="#E6E7E8" d="M175,346.6c-5.6,0.4-11.3,0.5-17.1,0.5s-11.5-0.2-17.1-0.5l3.2-10c4.5,0.3,9.1,0.5,13.9,0.5
								c4.7,0,9.4-0.2,13.8-0.5L175,346.6z"/>
						</g>
					</g>
				</g>
				<g>
					<g>
						<g>
							<path fill="#E6E7E8" d="M117,287.6c-7.7,1.9-14.4,4.4-19.6,7.3L76,288.7c3.2-1.7,6.9-3.3,11.1-4.9c4.1-1.5,8.5-2.9,13.1-4.1
								L117,287.6z"/>
						</g>
					</g>
				</g>
				<g>
					<g>
						<g>
							<path fill="#E6E7E8" d="M239.8,331.5c-3.2,1.7-6.9,3.3-11.1,4.9c-4.1,1.5-8.5,2.9-13.1,4.1l-16.7-7.9
								c7.7-1.9,14.4-4.4,19.6-7.3L239.8,331.5z"/>
						</g>
					</g>
				</g>
				<g>
					<g>
						<g>
							<path fill="#E6E7E8" d="M84.8,310.1c0,1.8,0.5,3.5,1.3,5.1l-26.9,1.2c-1-2.1-1.5-4.2-1.5-6.3c0-2.2,0.5-4.3,1.5-6.3l26.9,1.2
								C85.3,306.6,84.8,308.3,84.8,310.1z"/>
						</g>
					</g>
				</g>
				<g>
					<g>
						<g>
							<path fill="#E6E7E8" d="M258,310.1c0,2.2-0.5,4.3-1.5,6.3l-26.9-1.2c0.9-1.7,1.3-3.4,1.3-5.1c0-1.8-0.5-3.5-1.3-5.1l26.9-1.2
								C257.5,305.8,258,307.9,258,310.1z"/>
						</g>
					</g>
				</g>
				<g>
					<g>
						<g>
							<path fill="#E6E7E8" d="M117,332.5l-16.8,7.9c-4.6-1.2-9-2.6-13.1-4.1c-4.1-1.5-7.8-3.2-11.1-4.9l21.4-6.2
								C102.6,328.1,109.3,330.6,117,332.5z"/>
						</g>
					</g>
				</g>
				<g>
					<g>
						<g>
							<path fill="#E6E7E8" d="M239.8,288.7l-21.4,6.2c-5.2-2.9-11.9-5.3-19.6-7.3l16.7-7.9c4.6,1.2,9,2.6,13.1,4.1
								C232.8,285.4,236.5,287,239.8,288.7z"/>
						</g>
					</g>
				</g>
			</g>
			<g>
				<g>
					<path fill="#414042" d="M157.9,363.2c-65.7,0-115.2-22.8-115.2-53.1c0-30.3,49.5-53.1,115.2-53.1s115.2,22.8,115.2,53.1
						C273.1,340.4,223.5,363.2,157.9,363.2z M157.9,274.5c-55.9,0-97.6,18.8-97.6,35.6c0,16.8,41.7,35.6,97.6,35.6
						s97.6-18.8,97.6-35.6C255.5,293.3,213.7,274.5,157.9,274.5z"/>
				</g>
			</g>
			<g>
				<g>
					<ellipse fill="#E6E7E8" cx="157.9" cy="310.2" rx="53.4" ry="15.3"/>
				</g>
			</g>
			<g>
				<g>
					<path fill="#414042" d="M157.9,334.2c-10.4,0-62.2-1.2-62.2-24.1c0-22.9,51.8-24.1,62.2-24.1s62.2,1.2,62.2,24.1
						C220.1,333.1,168.3,334.2,157.9,334.2z M115.9,310.2c6.3,2.9,20.9,6.5,41.9,6.5s35.6-3.6,41.9-6.5c-6.3-2.9-20.9-6.5-41.9-6.5
						S122.3,307.3,115.9,310.2z"/>
				</g>
			</g>
		</g>
		<g>
			<g>
				<g>
					<path fill="#F15A22" d="M221.7,267.5c-16.1-4.1-34.9-6.4-55-6.4s-39,2.3-55,6.4H60.3v38c0,24.5,47.6,44.3,106.4,44.3
						c58.8,0,106.4-19.9,106.4-44.3v-38H221.7z"/>
				</g>
			</g>
			<g>
				<g>
					<path fill="#E6E7E8" d="M110,305v38h0c-9.5-2.5-18-5.6-25.2-9.2v-38C92,299.4,100.5,302.5,110,305z"/>
				</g>
			</g>
			<g>
				<g>
					<path fill="#E6E7E8" d="M183.8,311.2v38c-5.6,0.4-11.3,0.6-17.1,0.6s-11.5-0.2-17.1-0.6v-38h0c5.6,0.4,11.3,0.6,17.1,0.6
						S178.2,311.6,183.8,311.2L183.8,311.2z"/>
				</g>
			</g>
			<g>
				<g>
					<path fill="#E6E7E8" d="M249.4,295.3l-0.1,38c-6.9,3.6-15.2,6.7-24.4,9.2v-38C234.2,302,242.4,298.9,249.4,295.3L249.4,295.3z"
						/>
				</g>
			</g>
			<g>
				<g>
					<path fill="#414042" d="M166.7,358.6c-65.7,0-115.2-22.8-115.2-53.1v-38c0-4.9,3.9-8.8,8.8-8.8h50.3c17-4.2,36.4-6.4,56.1-6.4
						s39.1,2.2,56.1,6.4H273c4.9,0,8.8,3.9,8.8,8.8v38C281.8,335.7,232.3,358.6,166.7,358.6z M69.1,276.2v29.2
						c0,16.8,41.7,35.6,97.6,35.6c55.9,0,97.6-18.8,97.6-35.6v-29.2h-42.6c-0.7,0-1.4-0.1-2.2-0.3c-15.9-4-34.1-6.1-52.9-6.1
						s-37,2.1-52.9,6.1c-0.7,0.2-1.4,0.3-2.2,0.3H69.1z"/>
				</g>
			</g>
			<g>
				<g>
					<ellipse fill="#F15A22" cx="166.7" cy="267.5" rx="106.4" ry="44.3"/>
				</g>
			</g>
			<g>
				<g>
					<g>
						<g>
							<path fill="#E6E7E8" d="M183.8,230.9l-3.2,10c-4.5-0.3-9.1-0.5-13.8-0.5c-4.7,0-9.4,0.2-13.9,0.5l-3.2-10
								c5.6-0.4,11.3-0.5,17.1-0.5C172.5,230.3,178.2,230.5,183.8,230.9z"/>
						</g>
					</g>
				</g>
				<g>
					<g>
						<g>
							<path fill="#E6E7E8" d="M183.8,304c-5.6,0.4-11.3,0.5-17.1,0.5c-5.8,0-11.5-0.2-17.1-0.5l3.2-10c4.5,0.3,9.1,0.5,13.9,0.5
								c4.7,0,9.4-0.2,13.8-0.5L183.8,304z"/>
						</g>
					</g>
				</g>
				<g>
					<g>
						<g>
							<path fill="#E6E7E8" d="M125.7,245c-7.7,1.9-14.4,4.4-19.6,7.3l-21.4-6.2c3.2-1.7,6.9-3.3,11.1-4.9c4.1-1.5,8.5-2.9,13.1-4.1
								L125.7,245z"/>
						</g>
					</g>
				</g>
				<g>
					<g>
						<g>
							<path fill="#E6E7E8" d="M248.5,288.8c-3.2,1.7-6.9,3.3-11.1,4.9c-4.1,1.5-8.5,2.9-13.1,4.1l-16.7-7.9
								c7.7-1.9,14.4-4.4,19.6-7.3L248.5,288.8z"/>
						</g>
					</g>
				</g>
				<g>
					<g>
						<g>
							<path fill="#E6E7E8" d="M93.6,267.5c0,1.8,0.5,3.5,1.3,5.1L68,273.8c-1-2.1-1.5-4.2-1.5-6.3c0-2.2,0.5-4.3,1.5-6.3l26.9,1.2
								C94,264,93.6,265.7,93.6,267.5z"/>
						</g>
					</g>
				</g>
				<g>
					<g>
						<g>
							<path fill="#E6E7E8" d="M266.8,267.5c0,2.2-0.5,4.3-1.5,6.3l-26.9-1.2c0.9-1.7,1.3-3.4,1.3-5.1c0-1.8-0.5-3.5-1.3-5.1
								l26.9-1.2C266.3,263.2,266.8,265.3,266.8,267.5z"/>
						</g>
					</g>
				</g>
				<g>
					<g>
						<g>
							<path fill="#E6E7E8" d="M125.7,289.9l-16.8,7.9c-4.6-1.2-9-2.6-13.1-4.1c-4.1-1.5-7.8-3.2-11.1-4.9l21.4-6.2
								C111.4,285.5,118,287.9,125.7,289.9z"/>
						</g>
					</g>
				</g>
				<g>
					<g>
						<g>
							<path fill="#E6E7E8" d="M248.5,246.1l-21.4,6.2c-5.2-2.9-11.9-5.3-19.6-7.3l16.7-7.9c4.6,1.2,9,2.6,13.1,4.1
								C241.6,242.7,245.3,244.4,248.5,246.1z"/>
						</g>
					</g>
				</g>
			</g>
			<g>
				<g>
					<path fill="#414042" d="M166.7,320.6c-65.7,0-115.2-22.8-115.2-53.1c0-30.3,49.5-53.1,115.2-53.1c65.7,0,115.2,22.8,115.2,53.1
						C281.8,297.7,232.3,320.6,166.7,320.6z M166.7,231.9c-55.9,0-97.6,18.8-97.6,35.6c0,16.8,41.7,35.6,97.6,35.6
						c55.9,0,97.6-18.8,97.6-35.6C264.2,250.7,222.5,231.9,166.7,231.9z"/>
				</g>
			</g>
			<g>
				<g>
					<ellipse fill="#E6E7E8" cx="166.7" cy="267.6" rx="53.4" ry="15.3"/>
				</g>
			</g>
			<g>
				<g>
					<path fill="#414042" d="M166.7,291.6c-10.4,0-62.2-1.2-62.2-24.1c0-22.9,51.8-24.1,62.2-24.1s62.2,1.2,62.2,24.1
						C228.8,290.5,177,291.6,166.7,291.6z M124.7,267.6c6.3,2.9,20.9,6.5,41.9,6.5s35.6-3.6,41.9-6.5c-6.3-2.9-20.9-6.5-41.9-6.5
						S131,264.6,124.7,267.6z"/>
				</g>
			</g>
		</g>
	</g>
	<g>
		<g>
			<g>
				<g>
					<path fill="#F15A22" d="M122.3,225.4c16.1-4.1,34.9-6.4,55-6.4s39,2.3,55,6.4h51.4v38c0,24.5-47.6,44.3-106.4,44.3
						c-58.8,0-106.4-19.9-106.4-44.3v-38H122.3z"/>
				</g>
			</g>
			<g>
				<g>
					<path fill="#E6E7E8" d="M233.9,263v38h0c9.5-2.5,18-5.6,25.2-9.2v-38C252,257.4,243.5,260.5,233.9,263z"/>
				</g>
			</g>
			<g>
				<g>
					<path fill="#E6E7E8" d="M160.2,269.2v38c5.6,0.4,11.3,0.6,17.1,0.6c5.8,0,11.5-0.2,17.1-0.6v-38h0c-5.6,0.4-11.3,0.6-17.1,0.6
						C171.5,269.8,165.8,269.6,160.2,269.2L160.2,269.2z"/>
				</g>
			</g>
			<g>
				<g>
					<path fill="#E6E7E8" d="M94.6,253.3l0.1,38c6.9,3.6,15.2,6.7,24.4,9.2v-38C109.8,260,101.5,256.9,94.6,253.3L94.6,253.3z"/>
				</g>
			</g>
			<g>
				<g>
					<path fill="#414042" d="M177.3,316.5c-65.7,0-115.2-22.8-115.2-53.1v-38c0-4.9,3.9-8.8,8.8-8.8h50.3c17-4.2,36.4-6.4,56.1-6.4
						s39.1,2.2,56.1,6.4h50.3c4.9,0,8.8,3.9,8.8,8.8v38C292.5,293.7,243,316.5,177.3,316.5z M79.7,234.2v29.2
						c0,16.8,41.7,35.6,97.6,35.6s97.6-18.8,97.6-35.6v-29.2h-42.6c-0.7,0-1.4-0.1-2.2-0.3c-15.9-4-34.1-6.1-52.9-6.1
						s-37,2.1-52.9,6.1c-0.7,0.2-1.4,0.3-2.2,0.3H79.7z"/>
				</g>
			</g>
			<g>
				<g>
					<ellipse fill="#F15A22" cx="177.3" cy="225.4" rx="106.4" ry="44.3"/>
				</g>
			</g>
			<g>
				<g>
					<g>
						<g>
							<path fill="#E6E7E8" d="M160.2,188.9l3.2,10c4.5-0.3,9.1-0.5,13.8-0.5c4.7,0,9.4,0.2,13.9,0.5l3.2-10
								c-5.6-0.4-11.3-0.5-17.1-0.5C171.5,188.3,165.8,188.5,160.2,188.9z"/>
						</g>
					</g>
				</g>
				<g>
					<g>
						<g>
							<path fill="#E6E7E8" d="M160.2,262c5.6,0.4,11.3,0.5,17.1,0.5c5.8,0,11.5-0.2,17.1-0.5l-3.2-10c-4.5,0.3-9.1,0.5-13.9,0.5
								c-4.7,0-9.4-0.2-13.8-0.5L160.2,262z"/>
						</g>
					</g>
				</g>
				<g>
					<g>
						<g>
							<path fill="#E6E7E8" d="M218.2,203c7.7,1.9,14.4,4.4,19.6,7.3l21.4-6.2c-3.2-1.7-6.9-3.3-11.1-4.9c-4.1-1.5-8.5-2.9-13.1-4.1
								L218.2,203z"/>
						</g>
					</g>
				</g>
				<g>
					<g>
						<g>
							<path fill="#E6E7E8" d="M95.4,246.8c3.2,1.7,6.9,3.3,11.1,4.9c4.1,1.5,8.5,2.9,13.1,4.1l16.7-7.9c-7.7-1.9-14.4-4.4-19.6-7.3
								L95.4,246.8z"/>
						</g>
					</g>
				</g>
				<g>
					<g>
						<g>
							<path fill="#E6E7E8" d="M250.4,225.4c0,1.8-0.5,3.5-1.3,5.1l26.9,1.2c1-2.1,1.5-4.2,1.5-6.3c0-2.2-0.5-4.3-1.5-6.3l-26.9,1.2
								C249.9,222,250.4,223.7,250.4,225.4z"/>
						</g>
					</g>
				</g>
				<g>
					<g>
						<g>
							<path fill="#E6E7E8" d="M77.2,225.4c0,2.2,0.5,4.3,1.5,6.3l26.9-1.2c-0.9-1.7-1.3-3.4-1.3-5.1c0-1.8,0.5-3.5,1.3-5.1
								l-26.9-1.2C77.7,221.1,77.2,223.3,77.2,225.4z"/>
						</g>
					</g>
				</g>
				<g>
					<g>
						<g>
							<path fill="#E6E7E8" d="M218.2,247.9l16.8,7.9c4.6-1.2,9-2.6,13.1-4.1c4.1-1.5,7.8-3.2,11.1-4.9l-21.4-6.2
								C232.6,243.5,225.9,245.9,218.2,247.9z"/>
						</g>
					</g>
				</g>
				<g>
					<g>
						<g>
							<path fill="#E6E7E8" d="M95.4,204l21.4,6.2c5.2-2.9,11.9-5.3,19.6-7.3l-16.7-7.9c-4.6,1.2-9,2.6-13.1,4.1
								C102.4,200.7,98.7,202.3,95.4,204z"/>
						</g>
					</g>
				</g>
			</g>
			<g>
				<g>
					<path fill="#414042" d="M177.3,278.6c-65.7,0-115.2-22.8-115.2-53.1c0-30.3,49.5-53.1,115.2-53.1s115.2,22.8,115.2,53.1
						C292.5,255.7,243,278.6,177.3,278.6z M177.3,189.9c-55.9,0-97.6,18.8-97.6,35.6c0,16.8,41.7,35.6,97.6,35.6
						s97.6-18.8,97.6-35.6C274.9,208.6,233.2,189.9,177.3,189.9z"/>
				</g>
			</g>
			<g>
				<g>
					<ellipse fill="#E6E7E8" cx="177.3" cy="225.5" rx="53.4" ry="15.3"/>
				</g>
			</g>
			<g>
				<g>
					<path fill="#414042" d="M177.3,249.6c-10.4,0-62.2-1.2-62.2-24.1c0-22.9,51.8-24.1,62.2-24.1s62.2,1.2,62.2,24.1
						C239.5,248.4,187.7,249.6,177.3,249.6z M135.4,225.5c6.3,2.9,20.9,6.5,41.9,6.5s35.6-3.6,41.9-6.5c-6.3-2.9-20.9-6.5-41.9-6.5
						S141.7,222.6,135.4,225.5z"/>
				</g>
			</g>
		</g>
		<g>
			<g>
				<g>
					<path fill="#F15A22" d="M113.5,182.8c16.1-4.1,34.9-6.4,55-6.4s39,2.3,55,6.4h51.4v38c0,24.5-47.6,44.3-106.4,44.3
						c-58.8,0-106.4-19.9-106.4-44.3v-38H113.5z"/>
				</g>
			</g>
			<g>
				<g>
					<path fill="#E6E7E8" d="M225.2,220.4v38h0c9.5-2.5,18-5.6,25.2-9.2v-38C243.2,214.7,234.7,217.9,225.2,220.4z"/>
				</g>
			</g>
			<g>
				<g>
					<path fill="#E6E7E8" d="M151.4,226.6v38c5.6,0.4,11.3,0.6,17.1,0.6c5.8,0,11.5-0.2,17.1-0.6v-38h0c-5.6,0.4-11.3,0.6-17.1,0.6
						C162.7,227.2,157,227,151.4,226.6L151.4,226.6z"/>
				</g>
			</g>
			<g>
				<g>
					<path fill="#E6E7E8" d="M85.8,210.7l0.1,38c6.9,3.6,15.2,6.7,24.4,9.2v-38C101,217.4,92.8,214.3,85.8,210.7L85.8,210.7z"/>
				</g>
			</g>
			<g>
				<g>
					<path fill="#414042" d="M168.5,273.9c-65.7,0-115.2-22.8-115.2-53.1v-38c0-4.9,3.9-8.8,8.8-8.8h50.3c17-4.2,36.3-6.4,56.1-6.4
						s39.1,2.2,56.1,6.4h50.3c4.9,0,8.8,3.9,8.8,8.8v38C283.7,251.1,234.2,273.9,168.5,273.9z M71,191.6v29.2
						c0,16.8,41.7,35.6,97.6,35.6s97.6-18.8,97.6-35.6v-29.2h-42.6c-0.7,0-1.4-0.1-2.2-0.3c-15.9-4-34.1-6.1-52.9-6.1
						s-37,2.1-52.9,6.1c-0.7,0.2-1.4,0.3-2.2,0.3H71z"/>
				</g>
			</g>
			<g>
				<g>
					<ellipse fill="#F15A22" cx="168.5" cy="182.8" rx="106.4" ry="44.3"/>
				</g>
			</g>
			<g>
				<g>
					<g>
						<g>
							<path fill="#E6E7E8" d="M151.4,146.2l3.2,10c4.5-0.3,9.1-0.5,13.8-0.5c4.7,0,9.4,0.2,13.9,0.5l3.2-10
								c-5.6-0.4-11.3-0.5-17.1-0.5C162.7,145.7,157,145.9,151.4,146.2z"/>
						</g>
					</g>
				</g>
				<g>
					<g>
						<g>
							<path fill="#E6E7E8" d="M151.4,219.4c5.6,0.4,11.3,0.5,17.1,0.5s11.5-0.2,17.1-0.5l-3.2-10c-4.5,0.3-9.1,0.5-13.9,0.5
								c-4.7,0-9.4-0.2-13.8-0.5L151.4,219.4z"/>
						</g>
					</g>
				</g>
				<g>
					<g>
						<g>
							<path fill="#E6E7E8" d="M209.5,160.4c7.7,1.9,14.4,4.4,19.6,7.3l21.4-6.2c-3.2-1.7-6.9-3.3-11.1-4.9
								c-4.1-1.5-8.5-2.9-13.1-4.1L209.5,160.4z"/>
						</g>
					</g>
				</g>
				<g>
					<g>
						<g>
							<path fill="#E6E7E8" d="M86.7,204.2c3.2,1.7,6.9,3.3,11.1,4.9c4.1,1.5,8.5,2.9,13.1,4.1l16.7-7.9c-7.7-1.9-14.4-4.4-19.6-7.3
								L86.7,204.2z"/>
						</g>
					</g>
				</g>
				<g>
					<g>
						<g>
							<path fill="#E6E7E8" d="M241.6,182.8c0,1.8-0.5,3.5-1.3,5.1l26.9,1.2c1-2.1,1.5-4.2,1.5-6.3c0-2.2-0.5-4.3-1.5-6.3l-26.9,1.2
								C241.2,179.3,241.6,181.1,241.6,182.8z"/>
						</g>
					</g>
				</g>
				<g>
					<g>
						<g>
							<path fill="#E6E7E8" d="M68.4,182.8c0,2.2,0.5,4.3,1.5,6.3l26.9-1.2c-0.9-1.7-1.3-3.4-1.3-5.1c0-1.8,0.5-3.5,1.3-5.1
								l-26.9-1.2C68.9,178.5,68.4,180.6,68.4,182.8z"/>
						</g>
					</g>
				</g>
				<g>
					<g>
						<g>
							<path fill="#E6E7E8" d="M209.5,205.2l16.8,7.9c4.6-1.2,9-2.6,13.1-4.1c4.1-1.5,7.8-3.2,11.1-4.9l-21.4-6.2
								C223.8,200.8,217.2,203.3,209.5,205.2z"/>
						</g>
					</g>
				</g>
				<g>
					<g>
						<g>
							<path fill="#E6E7E8" d="M86.7,161.4l21.4,6.2c5.2-2.9,11.9-5.3,19.6-7.3l-16.7-7.9c-4.6,1.2-9,2.6-13.1,4.1
								C93.6,158.1,89.9,159.7,86.7,161.4z"/>
						</g>
					</g>
				</g>
			</g>
			<g>
				<g>
					<path fill="#414042" d="M168.5,236c-65.7,0-115.2-22.8-115.2-53.1s49.5-53.1,115.2-53.1s115.2,22.8,115.2,53.1
						S234.2,236,168.5,236z M168.5,147.3c-55.9,0-97.6,18.8-97.6,35.6s41.7,35.6,97.6,35.6s97.6-18.8,97.6-35.6
						S224.4,147.3,168.5,147.3z"/>
				</g>
			</g>
			<g>
				<g>
					<ellipse fill="#E6E7E8" cx="168.5" cy="182.9" rx="53.4" ry="15.3"/>
				</g>
			</g>
			<g>
				<g>
					<path fill="#414042" d="M168.5,207c-10.4,0-62.2-1.2-62.2-24.1s51.8-24.1,62.2-24.1c10.4,0,62.2,1.2,62.2,24.1
						S178.9,207,168.5,207z M126.6,182.9c6.3,2.9,20.9,6.5,41.9,6.5s35.6-3.6,41.9-6.5c-6.3-2.9-20.9-6.5-41.9-6.5
						S132.9,180,126.6,182.9z"/>
				</g>
			</g>
		</g>
	</g>
	<g>
		<g>
			<g>
				<g>
					<path fill="#4176AD" d="M358.1,322.1c-18.2-4.6-39.5-7.2-62.3-7.2c-22.8,0-44.1,2.6-62.3,7.2h-58.2v43
						c0,27.7,53.9,50.2,120.4,50.2c66.5,0,120.4-22.5,120.4-50.2v-43H358.1z"/>
				</g>
			</g>
			<g>
				<g>
					<path fill="#E6E7E8" d="M231.7,364.6v43h0c-10.8-2.8-20.4-6.4-28.5-10.4v-43C211.3,358.2,220.9,361.8,231.7,364.6z"/>
				</g>
			</g>
			<g>
				<g>
					<path fill="#E6E7E8" d="M315.2,371.7v43c-6.3,0.4-12.8,0.6-19.4,0.6c-6.6,0-13.1-0.2-19.3-0.6v-43h0c6.3,0.4,12.7,0.6,19.3,0.6
						C302.4,372.3,308.9,372.1,315.2,371.7L315.2,371.7z"/>
				</g>
			</g>
			<g>
				<g>
					<path fill="#E6E7E8" d="M389.5,353.7l-0.1,43c-7.9,4-17.2,7.6-27.7,10.4v-43C372.3,361.2,381.6,357.7,389.5,353.7L389.5,353.7z
						"/>
				</g>
			</g>
			<g>
				<g>
					<path fill="#414042" d="M295.8,424.1c-73.7,0-129.2-25.4-129.2-59v-43c0-4.9,3.9-8.8,8.8-8.8h57.1c19.2-4.7,41-7.2,63.3-7.2
						s44.2,2.5,63.3,7.2h57.1c4.9,0,8.8,3.9,8.8,8.8v43C425,398.7,369.5,424.1,295.8,424.1z M184.2,330.9v34.2
						c0,19.6,45.8,41.4,111.6,41.4s111.6-21.8,111.6-41.4v-34.2h-49.4c-0.7,0-1.4-0.1-2.2-0.3c-18-4.6-38.8-7-60.1-7
						s-42.1,2.4-60.1,7c-0.7,0.2-1.4,0.3-2.2,0.3H184.2z"/>
				</g>
			</g>
			<g>
				<g>
					<ellipse fill="#4176AD" cx="295.8" cy="322.1" rx="120.4" ry="50.2"/>
				</g>
			</g>
			<g>
				<g>
					<g>
						<g>
							<path fill="#E6E7E8" d="M315.2,280.7l-3.7,11.3c-5.1-0.4-10.3-0.6-15.7-0.6c-5.4,0-10.6,0.2-15.7,0.6l-3.7-11.3
								c6.3-0.4,12.8-0.6,19.4-0.6C302.4,280.1,308.9,280.3,315.2,280.7z"/>
						</g>
					</g>
				</g>
				<g>
					<g>
						<g>
							<path fill="#E6E7E8" d="M315.2,363.5c-6.3,0.4-12.8,0.6-19.4,0.6c-6.6,0-13.1-0.2-19.4-0.6l3.7-11.3
								c5.1,0.4,10.3,0.6,15.7,0.6c5.4,0,10.6-0.2,15.7-0.6L315.2,363.5z"/>
						</g>
					</g>
				</g>
				<g>
					<g>
						<g>
							<path fill="#E6E7E8" d="M249.5,296.7c-8.7,2.2-16.3,5-22.2,8.2l-24.2-7c3.7-1.9,7.8-3.8,12.5-5.5c4.7-1.7,9.6-3.3,14.8-4.6
								L249.5,296.7z"/>
						</g>
					</g>
				</g>
				<g>
					<g>
						<g>
							<path fill="#E6E7E8" d="M388.5,346.3c-3.7,1.9-7.8,3.8-12.5,5.5c-4.7,1.7-9.6,3.3-14.9,4.6l-19-9c8.7-2.2,16.3-5,22.2-8.2
								L388.5,346.3z"/>
						</g>
					</g>
				</g>
				<g>
					<g>
						<g>
							<path fill="#E6E7E8" d="M213.1,322.1c0,2,0.5,3.9,1.5,5.8l-30.5,1.4c-1.1-2.3-1.7-4.7-1.7-7.2c0-2.4,0.6-4.8,1.7-7.2
								l30.5,1.4C213.6,318.2,213.1,320.1,213.1,322.1z"/>
						</g>
					</g>
				</g>
				<g>
					<g>
						<g>
							<path fill="#E6E7E8" d="M409.2,322.1c0,2.4-0.6,4.8-1.7,7.2l-30.5-1.4c1-1.9,1.5-3.8,1.5-5.8c0-2-0.5-3.9-1.5-5.8l30.5-1.4
								C408.6,317.3,409.2,319.7,409.2,322.1z"/>
						</g>
					</g>
				</g>
				<g>
					<g>
						<g>
							<path fill="#E6E7E8" d="M249.5,347.5l-19,9c-5.2-1.4-10.2-2.9-14.8-4.6c-4.7-1.7-8.9-3.6-12.5-5.5l24.2-7
								C233.2,342.5,240.8,345.3,249.5,347.5z"/>
						</g>
					</g>
				</g>
				<g>
					<g>
						<g>
							<path fill="#E6E7E8" d="M388.5,297.9l-24.2,7c-5.9-3.2-13.4-6-22.2-8.2l19-9c5.2,1.4,10.2,2.9,14.9,4.6
								C380.7,294.1,384.8,296,388.5,297.9z"/>
						</g>
					</g>
				</g>
			</g>
			<g>
				<g>
					<path fill="#414042" d="M295.8,381.1c-73.7,0-129.2-25.4-129.2-59s55.6-59,129.2-59c73.7,0,129.2,25.4,129.2,59
						S369.5,381.1,295.8,381.1z M295.8,280.7c-65.8,0-111.6,21.8-111.6,41.4s45.8,41.4,111.6,41.4s111.6-21.8,111.6-41.4
						S361.6,280.7,295.8,280.7z"/>
				</g>
			</g>
			<g>
				<g>
					<ellipse fill="#E6E7E8" cx="295.8" cy="322.2" rx="60.4" ry="17.3"/>
				</g>
			</g>
			<g>
				<g>
					<path fill="#414042" d="M295.8,348.3c-7.1,0-69.2-0.7-69.2-26.1c0-25.3,62.1-26.1,69.2-26.1s69.2,0.7,69.2,26.1
						C365,347.6,302.9,348.3,295.8,348.3z M245.8,322.2c6,3.6,23.3,8.5,50,8.5s44-4.9,50-8.5c-6-3.6-23.3-8.5-50-8.5
						S251.8,318.7,245.8,322.2z"/>
				</g>
			</g>
		</g>
		<g>
			<g>
				<g>
					<path fill="#4176AD" d="M368,279.5c-18.2-4.6-39.5-7.2-62.3-7.2s-44.1,2.6-62.3,7.2h-58.2v43c0,27.7,53.9,50.2,120.4,50.2
						c66.5,0,120.4-22.5,120.4-50.2v-43H368z"/>
				</g>
			</g>
			<g>
				<g>
					<path fill="#E6E7E8" d="M241.7,322v43h0c-10.8-2.8-20.4-6.4-28.5-10.4v-43C221.2,315.7,230.9,319.2,241.7,322z"/>
				</g>
			</g>
			<g>
				<g>
					<path fill="#E6E7E8" d="M325.1,329.1v43c-6.3,0.4-12.8,0.6-19.4,0.6c-6.6,0-13.1-0.2-19.3-0.6v-43h0c6.3,0.4,12.7,0.6,19.3,0.6
						C312.3,329.7,318.8,329.5,325.1,329.1L325.1,329.1z"/>
				</g>
			</g>
			<g>
				<g>
					<path fill="#E6E7E8" d="M399.4,311.1l-0.1,43c-7.9,4-17.2,7.6-27.7,10.4v-43C382.2,318.7,391.5,315.1,399.4,311.1L399.4,311.1z
						"/>
				</g>
			</g>
			<g>
				<g>
					<path fill="#414042" d="M305.7,381.5c-73.7,0-129.2-25.4-129.2-59v-43c0-4.9,3.9-8.8,8.8-8.8h57.1c19.2-4.7,41-7.2,63.3-7.2
						c22.3,0,44.2,2.5,63.3,7.2h57.1c4.9,0,8.8,3.9,8.8,8.8v43C435,356.1,379.4,381.5,305.7,381.5z M194.1,288.3v34.2
						c0,19.6,45.8,41.4,111.6,41.4s111.6-21.8,111.6-41.4v-34.2H368c-0.7,0-1.4-0.1-2.2-0.3c-18-4.6-38.8-7-60.1-7
						c-21.3,0-42.1,2.4-60.1,7c-0.7,0.2-1.4,0.3-2.2,0.3H194.1z"/>
				</g>
			</g>
			<g>
				<g>
					<ellipse fill="#4176AD" cx="305.7" cy="279.5" rx="120.4" ry="50.2"/>
				</g>
			</g>
			<g>
				<g>
					<g>
						<g>
							<path fill="#E6E7E8" d="M325.1,238.1l-3.7,11.3c-5.1-0.4-10.3-0.6-15.7-0.6c-5.4,0-10.6,0.2-15.7,0.6l-3.7-11.3
								c6.3-0.4,12.8-0.6,19.4-0.6C312.4,237.5,318.8,237.7,325.1,238.1z"/>
						</g>
					</g>
				</g>
				<g>
					<g>
						<g>
							<path fill="#E6E7E8" d="M325.1,320.9c-6.3,0.4-12.8,0.6-19.4,0.6c-6.6,0-13.1-0.2-19.4-0.6l3.7-11.3
								c5.1,0.4,10.3,0.6,15.7,0.6c5.4,0,10.6-0.2,15.7-0.6L325.1,320.9z"/>
						</g>
					</g>
				</g>
				<g>
					<g>
						<g>
							<path fill="#E6E7E8" d="M259.4,254.1c-8.7,2.2-16.3,5-22.2,8.2l-24.2-7c3.7-1.9,7.8-3.8,12.5-5.5s9.6-3.3,14.8-4.6
								L259.4,254.1z"/>
						</g>
					</g>
				</g>
				<g>
					<g>
						<g>
							<path fill="#E6E7E8" d="M398.4,303.7c-3.7,1.9-7.8,3.8-12.5,5.5c-4.7,1.7-9.6,3.3-14.9,4.6l-19-9c8.7-2.2,16.3-5,22.2-8.2
								L398.4,303.7z"/>
						</g>
					</g>
				</g>
				<g>
					<g>
						<g>
							<path fill="#E6E7E8" d="M223,279.5c0,2,0.5,3.9,1.5,5.8l-30.5,1.4c-1.1-2.3-1.7-4.7-1.7-7.2c0-2.4,0.6-4.8,1.7-7.2l30.5,1.4
								C223.5,275.6,223,277.5,223,279.5z"/>
						</g>
					</g>
				</g>
				<g>
					<g>
						<g>
							<path fill="#E6E7E8" d="M419.1,279.5c0,2.4-0.6,4.8-1.7,7.2l-30.5-1.4c1-1.9,1.5-3.8,1.5-5.8c0-2-0.5-3.9-1.5-5.8l30.5-1.4
								C418.6,274.7,419.1,277.1,419.1,279.5z"/>
						</g>
					</g>
				</g>
				<g>
					<g>
						<g>
							<path fill="#E6E7E8" d="M259.4,304.9l-19,9c-5.2-1.4-10.2-2.9-14.8-4.6c-4.7-1.7-8.9-3.6-12.5-5.5l24.2-7
								C243.2,299.9,250.7,302.7,259.4,304.9z"/>
						</g>
					</g>
				</g>
				<g>
					<g>
						<g>
							<path fill="#E6E7E8" d="M398.4,255.3l-24.2,7c-5.9-3.2-13.4-6-22.2-8.2l19-9c5.2,1.4,10.2,2.9,14.9,4.6
								C390.6,251.5,394.8,253.4,398.4,255.3z"/>
						</g>
					</g>
				</g>
			</g>
			<g>
				<g>
					<path fill="#414042" d="M305.7,338.5c-73.7,0-129.2-25.4-129.2-59c0-33.6,55.6-59,129.2-59c73.7,0,129.2,25.4,129.2,59
						C435,313.2,379.4,338.5,305.7,338.5z M305.7,238.1c-65.8,0-111.6,21.8-111.6,41.4s45.8,41.4,111.6,41.4s111.6-21.8,111.6-41.4
						S371.5,238.1,305.7,238.1z"/>
				</g>
			</g>
			<g>
				<g>
					<ellipse fill="#E6E7E8" cx="305.7" cy="279.6" rx="60.4" ry="17.3"/>
				</g>
			</g>
			<g>
				<g>
					<path fill="#414042" d="M305.7,305.7c-7.1,0-69.2-0.7-69.2-26.1c0-25.3,62.1-26.1,69.2-26.1c7.1,0,69.2,0.7,69.2,26.1
						C375,305,312.8,305.7,305.7,305.7z M255.7,279.6c6,3.6,23.3,8.5,50,8.5c26.7,0,44-4.9,50-8.5c-6-3.6-23.3-8.5-50-8.5
						C279,271.1,261.7,276.1,255.7,279.6z"/>
				</g>
			</g>
		</g>
		<g>
			<g>
				<g>
					<path fill="#4176AD" d="M368,228.8c-18.2-4.6-39.5-7.2-62.3-7.2s-44.1,2.6-62.3,7.2h-58.2v43c0,27.7,53.9,50.2,120.4,50.2
						c66.5,0,120.4-22.5,120.4-50.2v-43H368z"/>
				</g>
			</g>
			<g>
				<g>
					<path fill="#E6E7E8" d="M241.6,271.3v43h0c-10.8-2.8-20.4-6.4-28.5-10.4v-43C221.2,264.9,230.9,268.5,241.6,271.3z"/>
				</g>
			</g>
			<g>
				<g>
					<path fill="#E6E7E8" d="M325.1,278.4v43c-6.3,0.4-12.8,0.6-19.4,0.6s-13.1-0.2-19.3-0.6v-43h0c6.3,0.4,12.7,0.6,19.3,0.6
						S318.8,278.8,325.1,278.4L325.1,278.4z"/>
				</g>
			</g>
			<g>
				<g>
					<path fill="#E6E7E8" d="M399.4,260.4l-0.1,43c-7.9,4-17.2,7.6-27.7,10.4v-43C382.2,267.9,391.5,264.4,399.4,260.4L399.4,260.4z
						"/>
				</g>
			</g>
			<g>
				<g>
					<path fill="#414042" d="M305.7,330.8c-73.7,0-129.2-25.4-129.2-59v-43c0-4.9,3.9-8.8,8.8-8.8h57.1c19.2-4.7,41-7.2,63.3-7.2
						s44.2,2.5,63.3,7.2h57.1c4.9,0,8.8,3.9,8.8,8.8v43C435,305.4,379.4,330.8,305.7,330.8z M194.1,237.6v34.2
						c0,19.6,45.8,41.4,111.6,41.4s111.6-21.8,111.6-41.4v-34.2H368c-0.7,0-1.4-0.1-2.2-0.3c-18-4.6-38.8-7-60.1-7s-42.1,2.4-60.1,7
						c-0.7,0.2-1.4,0.3-2.2,0.3H194.1z"/>
				</g>
			</g>
			<g>
				<g>
					<ellipse fill="#4176AD" cx="305.7" cy="228.8" rx="120.4" ry="50.2"/>
				</g>
			</g>
			<g>
				<g>
					<g>
						<g>
							<path fill="#E6E7E8" d="M325.1,187.4l-3.7,11.3c-5.1-0.4-10.3-0.6-15.7-0.6c-5.4,0-10.6,0.2-15.7,0.6l-3.7-11.3
								c6.3-0.4,12.8-0.6,19.4-0.6C312.3,186.8,318.8,187,325.1,187.4z"/>
						</g>
					</g>
				</g>
				<g>
					<g>
						<g>
							<path fill="#E6E7E8" d="M325.1,270.2c-6.3,0.4-12.8,0.6-19.4,0.6c-6.6,0-13.1-0.2-19.4-0.6l3.7-11.3
								c5.1,0.4,10.3,0.6,15.7,0.6c5.4,0,10.6-0.2,15.7-0.6L325.1,270.2z"/>
						</g>
					</g>
				</g>
				<g>
					<g>
						<g>
							<path fill="#E6E7E8" d="M259.4,203.4c-8.7,2.2-16.3,5-22.2,8.2l-24.2-7c3.7-1.9,7.8-3.8,12.5-5.5s9.6-3.3,14.8-4.6
								L259.4,203.4z"/>
						</g>
					</g>
				</g>
				<g>
					<g>
						<g>
							<path fill="#E6E7E8" d="M398.4,253c-3.7,1.9-7.8,3.8-12.5,5.5c-4.7,1.7-9.6,3.3-14.9,4.6l-19-9c8.7-2.2,16.3-5,22.2-8.2
								L398.4,253z"/>
						</g>
					</g>
				</g>
				<g>
					<g>
						<g>
							<path fill="#E6E7E8" d="M223,228.8c0,2,0.5,3.9,1.5,5.8L194,236c-1.1-2.3-1.7-4.7-1.7-7.2c0-2.4,0.6-4.8,1.7-7.2l30.5,1.4
								C223.5,224.9,223,226.8,223,228.8z"/>
						</g>
					</g>
				</g>
				<g>
					<g>
						<g>
							<path fill="#E6E7E8" d="M419.1,228.8c0,2.4-0.6,4.8-1.7,7.2l-30.5-1.4c1-1.9,1.5-3.8,1.5-5.8c0-2-0.5-3.9-1.5-5.8l30.5-1.4
								C418.5,224,419.1,226.4,419.1,228.8z"/>
						</g>
					</g>
				</g>
				<g>
					<g>
						<g>
							<path fill="#E6E7E8" d="M259.4,254.2l-19,9c-5.2-1.4-10.2-2.9-14.8-4.6c-4.7-1.7-8.9-3.6-12.5-5.5l24.2-7
								C243.2,249.2,250.7,252,259.4,254.2z"/>
						</g>
					</g>
				</g>
				<g>
					<g>
						<g>
							<path fill="#E6E7E8" d="M398.4,204.6l-24.2,7c-5.9-3.2-13.4-6-22.2-8.2l19-9c5.2,1.4,10.2,2.9,14.9,4.6
								C390.6,200.8,394.8,202.7,398.4,204.6z"/>
						</g>
					</g>
				</g>
			</g>
			<g>
				<g>
					<path fill="#414042" d="M305.7,287.8c-73.7,0-129.2-25.4-129.2-59c0-33.6,55.6-59,129.2-59c73.7,0,129.2,25.4,129.2,59
						C435,262.4,379.4,287.8,305.7,287.8z M305.7,187.4c-65.8,0-111.6,21.8-111.6,41.4s45.8,41.4,111.6,41.4s111.6-21.8,111.6-41.4
						S371.5,187.4,305.7,187.4z"/>
				</g>
			</g>
			<g>
				<g>
					<ellipse fill="#E6E7E8" cx="305.7" cy="228.9" rx="60.4" ry="17.3"/>
				</g>
			</g>
			<g>
				<g>
					<path fill="#414042" d="M305.7,255c-7.1,0-69.2-0.7-69.2-26.1c0-25.3,62.1-26.1,69.2-26.1c7.1,0,69.2,0.7,69.2,26.1
						C375,254.3,312.8,255,305.7,255z M255.7,228.9c6,3.6,23.3,8.5,50,8.5s44-4.9,50-8.5c-6-3.6-23.3-8.5-50-8.5
						S261.7,225.4,255.7,228.9z"/>
				</g>
			</g>
		</g>
		<g>
			<g>
				<g>
					<path fill="#4176AD" d="M368,181.6c-18.2-4.6-39.5-7.2-62.3-7.2s-44.1,2.6-62.3,7.2h-58.2v43c0,27.7,53.9,50.2,120.4,50.2
						c66.5,0,120.4-22.5,120.4-50.2v-43H368z"/>
				</g>
			</g>
			<g>
				<g>
					<path fill="#E6E7E8" d="M241.6,224v43h0c-10.8-2.8-20.4-6.4-28.5-10.4v-43C221.2,217.7,230.9,221.2,241.6,224z"/>
				</g>
			</g>
			<g>
				<g>
					<path fill="#E6E7E8" d="M325.1,231.1v43c-6.3,0.4-12.8,0.6-19.4,0.6s-13.1-0.2-19.3-0.6v-43h0c6.3,0.4,12.7,0.6,19.3,0.6
						S318.8,231.5,325.1,231.1L325.1,231.1z"/>
				</g>
			</g>
			<g>
				<g>
					<path fill="#E6E7E8" d="M399.4,213.1l-0.1,43c-7.9,4-17.2,7.6-27.7,10.4v-43C382.2,220.7,391.5,217.2,399.4,213.1L399.4,213.1z
						"/>
				</g>
			</g>
			<g>
				<g>
					<path fill="#414042" d="M305.7,283.5c-73.7,0-129.2-25.4-129.2-59v-43c0-4.9,3.9-8.8,8.8-8.8h57.1c19.2-4.7,41-7.2,63.3-7.2
						s44.2,2.5,63.3,7.2h57.1c4.9,0,8.8,3.9,8.8,8.8v43C435,258.2,379.4,283.5,305.7,283.5z M194.1,190.3v34.2
						c0,19.6,45.8,41.4,111.6,41.4s111.6-21.8,111.6-41.4v-34.2H368c-0.7,0-1.4-0.1-2.2-0.3c-18-4.6-38.8-7-60.1-7s-42.1,2.4-60.1,7
						c-0.7,0.2-1.4,0.3-2.2,0.3H194.1z"/>
				</g>
			</g>
			<g>
				<g>
					<ellipse fill="#4176AD" cx="305.7" cy="181.6" rx="120.4" ry="50.2"/>
				</g>
			</g>
			<g>
				<g>
					<g>
						<g>
							<path fill="#E6E7E8" d="M325.1,140.1l-3.7,11.3c-5.1-0.4-10.3-0.6-15.7-0.6c-5.4,0-10.6,0.2-15.7,0.6l-3.7-11.3
								c6.3-0.4,12.8-0.6,19.4-0.6C312.3,139.5,318.8,139.7,325.1,140.1z"/>
						</g>
					</g>
				</g>
				<g>
					<g>
						<g>
							<path fill="#E6E7E8" d="M325.1,223c-6.3,0.4-12.8,0.6-19.4,0.6c-6.6,0-13.1-0.2-19.4-0.6l3.7-11.3c5.1,0.4,10.3,0.6,15.7,0.6
								c5.4,0,10.6-0.2,15.7-0.6L325.1,223z"/>
						</g>
					</g>
				</g>
				<g>
					<g>
						<g>
							<path fill="#E6E7E8" d="M259.4,156.2c-8.7,2.2-16.3,5-22.2,8.2l-24.2-7c3.7-1.9,7.8-3.8,12.5-5.5s9.6-3.3,14.8-4.6
								L259.4,156.2z"/>
						</g>
					</g>
				</g>
				<g>
					<g>
						<g>
							<path fill="#E6E7E8" d="M398.4,205.8c-3.7,1.9-7.8,3.8-12.5,5.5c-4.7,1.7-9.6,3.3-14.9,4.6l-19-9c8.7-2.2,16.3-5,22.2-8.2
								L398.4,205.8z"/>
						</g>
					</g>
				</g>
				<g>
					<g>
						<g>
							<path fill="#E6E7E8" d="M223,181.6c0,2,0.5,3.9,1.5,5.8l-30.5,1.4c-1.1-2.3-1.7-4.7-1.7-7.2c0-2.4,0.6-4.8,1.7-7.2l30.5,1.4
								C223.5,177.6,223,179.6,223,181.6z"/>
						</g>
					</g>
				</g>
				<g>
					<g>
						<g>
							<path fill="#E6E7E8" d="M419.1,181.6c0,2.4-0.6,4.8-1.7,7.2l-30.5-1.4c1-1.9,1.5-3.8,1.5-5.8c0-2-0.5-3.9-1.5-5.8l30.5-1.4
								C418.5,176.7,419.1,179.1,419.1,181.6z"/>
						</g>
					</g>
				</g>
				<g>
					<g>
						<g>
							<path fill="#E6E7E8" d="M259.4,206.9l-19,9c-5.2-1.4-10.2-2.9-14.8-4.6c-4.7-1.7-8.9-3.6-12.5-5.5l24.2-7
								C243.2,202,250.7,204.7,259.4,206.9z"/>
						</g>
					</g>
				</g>
				<g>
					<g>
						<g>
							<path fill="#E6E7E8" d="M398.4,157.3l-24.2,7c-5.9-3.2-13.4-6-22.2-8.2l19-9c5.2,1.4,10.2,2.9,14.9,4.6
								C390.6,153.6,394.8,155.4,398.4,157.3z"/>
						</g>
					</g>
				</g>
			</g>
			<g>
				<g>
					<path fill="#414042" d="M305.7,240.5c-73.7,0-129.2-25.4-129.2-59c0-33.6,55.6-59,129.2-59c73.7,0,129.2,25.4,129.2,59
						C435,215.2,379.4,240.5,305.7,240.5z M305.7,140.1c-65.8,0-111.6,21.8-111.6,41.4S240,223,305.7,223s111.6-21.8,111.6-41.4
						S371.5,140.1,305.7,140.1z"/>
				</g>
			</g>
			<g>
				<g>
					<ellipse fill="#E6E7E8" cx="305.7" cy="181.7" rx="60.4" ry="17.3"/>
				</g>
			</g>
			<g>
				<g>
					<path fill="#414042" d="M305.7,207.7c-7.1,0-69.2-0.7-69.2-26.1s62.1-26.1,69.2-26.1c7.1,0,69.2,0.7,69.2,26.1
						S312.8,207.7,305.7,207.7z M255.7,181.7c6,3.6,23.3,8.5,50,8.5s44-4.9,50-8.5c-6-3.6-23.3-8.5-50-8.5S261.7,178.1,255.7,181.7z
						"/>
				</g>
			</g>
		</g>
		<g>
			<g>
				<g>
					<path fill="#4176AD" d="M404.4,138.6c-18.2-4.6-39.5-7.2-62.3-7.2c-22.8,0-44.1,2.6-62.3,7.2h-58.2v43
						c0,27.7,53.9,50.2,120.4,50.2c66.5,0,120.4-22.5,120.4-50.2v-43H404.4z"/>
				</g>
			</g>
			<g>
				<g>
					<path fill="#E6E7E8" d="M278.1,181.1v43h0c-10.8-2.8-20.4-6.4-28.5-10.4v-43C257.6,174.7,267.3,178.2,278.1,181.1z"/>
				</g>
			</g>
			<g>
				<g>
					<path fill="#E6E7E8" d="M361.5,188.1v43c-6.3,0.4-12.8,0.6-19.4,0.6c-6.6,0-13.1-0.2-19.3-0.6v-43h0c6.3,0.4,12.7,0.6,19.3,0.6
						C348.7,188.8,355.2,188.5,361.5,188.1L361.5,188.1z"/>
				</g>
			</g>
			<g>
				<g>
					<path fill="#E6E7E8" d="M435.8,170.1l-0.1,43c-7.9,4-17.2,7.6-27.7,10.4v-43C418.6,177.7,427.9,174.2,435.8,170.1L435.8,170.1z
						"/>
				</g>
			</g>
			<g>
				<g>
					<path fill="#414042" d="M342.2,240.5c-73.7,0-129.2-25.4-129.2-59v-43c0-4.9,3.9-8.8,8.8-8.8h57.1c19.2-4.7,41-7.2,63.3-7.2
						s44.2,2.5,63.3,7.2h57.1c4.9,0,8.8,3.9,8.8,8.8v43C471.4,215.2,415.8,240.5,342.2,240.5z M230.5,147.4v34.2
						c0,19.6,45.8,41.4,111.6,41.4s111.6-21.8,111.6-41.4v-34.2h-49.4c-0.7,0-1.4-0.1-2.2-0.3c-18-4.6-38.8-7-60.1-7
						s-42.1,2.4-60.1,7c-0.7,0.2-1.4,0.3-2.2,0.3H230.5z"/>
				</g>
			</g>
			<g>
				<g>
					<ellipse fill="#4176AD" cx="342.2" cy="138.6" rx="120.4" ry="50.2"/>
				</g>
			</g>
			<g>
				<g>
					<g>
						<g>
							<path fill="#E6E7E8" d="M361.5,97.2l-3.7,11.3c-5.1-0.4-10.3-0.6-15.7-0.6c-5.4,0-10.6,0.2-15.7,0.6l-3.7-11.3
								c6.3-0.4,12.8-0.6,19.4-0.6C348.8,96.5,355.2,96.8,361.5,97.2z"/>
						</g>
					</g>
				</g>
				<g>
					<g>
						<g>
							<path fill="#E6E7E8" d="M361.5,180c-6.3,0.4-12.8,0.6-19.4,0.6c-6.6,0-13.1-0.2-19.4-0.6l3.7-11.3c5.1,0.4,10.3,0.6,15.7,0.6
								c5.4,0,10.6-0.2,15.7-0.6L361.5,180z"/>
						</g>
					</g>
				</g>
				<g>
					<g>
						<g>
							<path fill="#E6E7E8" d="M295.8,113.2c-8.7,2.2-16.3,5-22.2,8.2l-24.2-7c3.7-1.9,7.8-3.8,12.5-5.5c4.7-1.7,9.6-3.3,14.8-4.6
								L295.8,113.2z"/>
						</g>
					</g>
				</g>
				<g>
					<g>
						<g>
							<path fill="#E6E7E8" d="M434.8,162.8c-3.7,1.9-7.8,3.8-12.5,5.5c-4.7,1.7-9.6,3.3-14.9,4.6l-19-9c8.7-2.2,16.3-5,22.2-8.2
								L434.8,162.8z"/>
						</g>
					</g>
				</g>
				<g>
					<g>
						<g>
							<path fill="#E6E7E8" d="M259.4,138.6c0,2,0.5,3.9,1.5,5.8l-30.5,1.4c-1.1-2.3-1.7-4.7-1.7-7.2c0-2.4,0.6-4.8,1.7-7.2
								l30.5,1.4C260,134.6,259.4,136.6,259.4,138.6z"/>
						</g>
					</g>
				</g>
				<g>
					<g>
						<g>
							<path fill="#E6E7E8" d="M455.5,138.6c0,2.4-0.6,4.8-1.7,7.2l-30.5-1.4c1-1.9,1.5-3.8,1.5-5.8c0-2-0.5-3.9-1.5-5.8l30.5-1.4
								C455,133.7,455.5,136.1,455.5,138.6z"/>
						</g>
					</g>
				</g>
				<g>
					<g>
						<g>
							<path fill="#E6E7E8" d="M295.8,164l-19,9c-5.2-1.4-10.2-2.9-14.8-4.6c-4.7-1.7-8.9-3.6-12.5-5.5l24.2-7
								C279.6,159,287.1,161.8,295.8,164z"/>
						</g>
					</g>
				</g>
				<g>
					<g>
						<g>
							<path fill="#E6E7E8" d="M434.8,114.4l-24.2,7c-5.9-3.2-13.4-6-22.2-8.2l19-9c5.2,1.4,10.2,2.9,14.9,4.6
								C427,110.6,431.2,112.4,434.8,114.4z"/>
						</g>
					</g>
				</g>
			</g>
			<g>
				<g>
					<path fill="#414042" d="M342.2,197.6c-73.7,0-129.2-25.4-129.2-59c0-33.6,55.6-59,129.2-59c73.7,0,129.2,25.4,129.2,59
						C471.4,172.2,415.8,197.6,342.2,197.6z M342.2,97.2c-65.8,0-111.6,21.8-111.6,41.4S276.4,180,342.2,180s111.6-21.8,111.6-41.4
						S407.9,97.2,342.2,97.2z"/>
				</g>
			</g>
			<g>
				<g>
					<ellipse fill="#E6E7E8" cx="342.2" cy="138.7" rx="60.4" ry="17.3"/>
				</g>
			</g>
			<g>
				<g>
					<path fill="#414042" d="M342.2,164.8c-7.1,0-69.2-0.7-69.2-26.1s62.1-26.1,69.2-26.1c7.1,0,69.2,0.7,69.2,26.1
						S349.2,164.8,342.2,164.8z M292.1,138.7c6,3.6,23.3,8.5,50,8.5c26.7,0,44-4.9,50-8.5c-6-3.6-23.3-8.5-50-8.5
						C315.4,130.2,298.1,135.1,292.1,138.7z"/>
				</g>
			</g>
		</g>
	</g>
	<g>
		<g>
			<g>
				<g>
					<path fill="#E6E7E8" d="M321.1,423.6H85.2c-19.8,0-35.8-16-35.8-35.8V243.5c0-19.8,16-35.8,35.8-35.8h235.9
						c19.8,0,35.8,16,35.8,35.8v144.4C356.9,407.6,340.9,423.6,321.1,423.6z"/>
				</g>
			</g>
			<g>
				<g>
					<path fill="#414042" d="M321.1,432.4H85.2c-24.6,0-44.6-20-44.6-44.6V243.5c0-24.6,20-44.6,44.6-44.6h235.9
						c24.6,0,44.6,20,44.6,44.6v144.4C365.7,412.4,345.7,432.4,321.1,432.4z M85.2,216.4c-14.9,0-27,12.1-27,27v144.4
						c0,14.9,12.1,27,27,27h235.9c14.9,0,27-12.1,27-27V243.5c0-14.9-12.1-27-27-27H85.2z"/>
				</g>
			</g>
			<g>
				<g>
					<rect x="49.4" y="245.1" fill="#414042" width="307.5" height="53.3"/>
				</g>
			</g>
		</g>
		<g>
			<g>
				<path fill="#414042" d="M311.2,337.9H93c-4.9,0-8.8-3.9-8.8-8.8c0-4.9,3.9-8.8,8.8-8.8h218.2c4.9,0,8.8,3.9,8.8,8.8
					C320,333.9,316,337.9,311.2,337.9z"/>
			</g>
		</g>
		<g>
			<g>
				<g>
					<path fill="#414042" d="M283.3,390.4c-2.3,1.3-5,2-7.8,2c-8.9,0-16.1-7.2-16.1-16.1c0-4.5,1.8-8.5,4.7-11.4
						c2.9-2.9,7-4.7,11.4-4.7c2.8,0,5.5,0.7,7.8,2c-3.6,3.6-5.8,8.6-5.8,14.1C277.5,381.8,279.7,386.7,283.3,390.4z"/>
				</g>
			</g>
			<g>
				<g>
					<path fill="#414042" d="M300.9,392.4L300.9,392.4c-8.9,0-16.1-7.2-16.1-16.1v0c0-8.9,7.2-16.1,16.1-16.1h0
						c8.9,0,16.1,7.2,16.1,16.1v0C317.1,385.2,309.9,392.4,300.9,392.4z"/>
				</g>
			</g>
		</g>
	</g>
</g>
</svg>
