<?xml version="1.0" encoding="utf-8"?>
<!-- Generator: Adobe Illustrator 18.0.0, SVG Export Plug-In . SVG Version: 6.00 Build 0)  -->
<!DOCTYPE svg PUBLIC "-//W3C//DTD SVG 1.1//EN" "http://www.w3.org/Graphics/SVG/1.1/DTD/svg11.dtd">
<svg version="1.1" id="Layer_1" xmlns="http://www.w3.org/2000/svg" xmlns:xlink="http://www.w3.org/1999/xlink" x="0px" y="0px"
	 viewBox="0 0 512 512" enable-background="new 0 0 512 512" xml:space="preserve">
<g>
	<g>
		<g>
			<path fill="#DB802D" d="M238.4,233.2l2.3-1.9l40-33.6c0,0-40.6-0.7-69.4-34.9l-44.6-53.1c-7.7-9.1-21.3-10.3-30.4-2.6l0,0
				l-2.3,1.9l0,0c-9.1,7.7-10.3,21.3-2.6,30.4l44.6,53.1c28.8,34.2,22.5,74.3,22.5,74.3L238.4,233.2z"/>
		</g>
	</g>
	<g>
		<g>
			<path fill="#414042" d="M204,273.4l-14-7.9c0.1-0.4,5.2-36.8-20.5-67.5l-44.6-53.1c-5.2-6.2-7.7-14-7-22
				c0.7-8,4.5-15.3,10.6-20.5l2.3-1.9c5.4-4.6,12.3-7.1,19.4-7.1c8.9,0,17.4,3.9,23.1,10.8l44.6,53.1c25.8,30.6,62.6,31.8,63,31.8
				l5.4,15.2L204,273.4z M150.1,110.6c-3.1,0-6,1.1-8.3,3l-2.3,1.9c-2.7,2.2-4.3,5.4-4.6,8.8c-0.3,3.5,0.8,6.8,3,9.5l44.6,53.1
				c18.1,21.5,23.5,45,24.7,61.2l53.4-44.9c-15.7-4-37.9-13.4-56-34.9l-44.6-53.1C157.6,112.2,154,110.6,150.1,110.6z"/>
		</g>
	</g>
	<g>
		<g>
			<path fill="#8BC166" d="M206.9,204.1l10.6-8.9c21.5-18.1,53.5-15.3,71.6,6.2l97.7,116.2c18.1,21.5,15.3,53.5-6.2,71.6l-10.6,8.9
				c-21.5,18.1-53.5,15.3-71.6-6.2l-97.7-116.2C182.6,254.2,185.4,222.2,206.9,204.1z"/>
		</g>
	</g>
	<g>
		<g>
			<path fill="#8BC166" d="M206.9,204.1l10.6-8.9c21.5-18.1,53.5-15.3,71.6,6.2l97.7,116.2c18.1,21.5,15.3,53.5-6.2,71.6l-10.6,8.9
				c-21.5,18.1-53.5,15.3-71.6-6.2l-97.7-116.2C182.6,254.2,185.4,222.2,206.9,204.1z"/>
		</g>
	</g>
	<g>
		<g>
			<path fill="#7BAA54" d="M382.3,387.8l-14,11.8c-20.5,17.3-51.1,14.6-68.4-5.9l-15.4-18.4c17.6,12.3,41.9,11.8,59-2.6l16.3-13.7
				c17.5-14.7,22-39.2,12.2-58.8l16.2,19.3C405.5,339.9,402.8,370.5,382.3,387.8z"/>
		</g>
	</g>
	<g>
		<g>
			<path fill="#414042" d="M337.3,418.6c-17.6,0-34.2-7.7-45.5-21.2l-97.7-116.2c-21.1-25.1-17.8-62.6,7.2-83.7l10.6-8.9
				c10.7-9,24.3-13.9,38.2-13.9c17.6,0,34.2,7.7,45.5,21.2l97.7,116.2c21.1,25.1,17.8,62.6-7.2,83.7l-10.6,8.9
				C364.8,413.7,351.3,418.6,337.3,418.6z M250.2,191.9c-9.9,0-19.5,3.5-27.1,9.9l-10.6,8.9c-17.8,15-20.1,41.7-5.1,59.5L305,386.4
				c8,9.6,19.8,15,32.3,15c9.9,0,19.5-3.5,27.1-9.9l10.6-8.9c17.8-15,20.1-41.7,5.2-59.5l-97.7-116.2
				C274.5,197.4,262.7,191.9,250.2,191.9z"/>
		</g>
	</g>
	<g>
		<g>
			<path fill="#414042" d="M337.3,418.6c-17.6,0-34.2-7.7-45.5-21.2l-97.7-116.2c-21.1-25.1-17.8-62.6,7.2-83.7l10.6-8.9
				c10.7-9,24.3-13.9,38.2-13.9c17.6,0,34.2,7.7,45.5,21.2l97.7,116.2c21.1,25.1,17.8,62.6-7.2,83.7l-10.6,8.9
				C364.8,413.7,351.3,418.6,337.3,418.6z M250.2,191.9c-9.9,0-19.5,3.5-27.1,9.9l-10.6,8.9c-17.8,15-20.1,41.7-5.1,59.5L305,386.4
				c8,9.6,19.8,15,32.3,15c9.9,0,19.5-3.5,27.1-9.9l10.6-8.9c17.8-15,20.1-41.7,5.2-59.5l-97.7-116.2
				C274.5,197.4,262.7,191.9,250.2,191.9z"/>
		</g>
	</g>
	<g>
		<g>
			<circle fill="#DB802D" cx="151.1" cy="369.8" r="37.7"/>
		</g>
	</g>
	<g>
		<g>
			<path fill="#414042" d="M151.1,416.1c-1.3,0-2.7-0.1-4-0.2c-25.4-2.2-44.3-24.7-42.1-50.1c2.1-23.7,22.3-42.3,46.1-42.3
				c1.3,0,2.7,0.1,4,0.2c12.3,1.1,23.5,6.9,31.5,16.3c8,9.5,11.8,21.5,10.7,33.8C195.2,397.5,174.9,416.1,151.1,416.1z M151,340.7
				c-15,0-27.7,11.7-29,26.6c-1.4,16,10.5,30.1,26.5,31.5c0.8,0.1,1.7,0.1,2.6,0.1c15,0,27.7-11.7,29-26.6
				c0.7-7.8-1.7-15.3-6.7-21.3c-5-6-12-9.6-19.8-10.3C152.7,340.7,151.9,340.7,151,340.7z"/>
		</g>
	</g>
	<g>
		<g>
			<path fill="#414042" d="M132.1,392.8c-9.1,0-17.2-2.8-23.4-8.2l-2.8-4.6c-1-4.6-1.4-9.4-1-14.2c2.1-23.7,22.3-42.3,46.1-42.3
				c1.3,0,2.7,0.1,4,0.2c9.3,0.8,18,4.3,25.2,10.2l3.1,5.9c1.3,14.3-5.8,29.8-18.5,40.4C155.2,388.3,143.6,392.8,132.1,392.8z
				 M122.1,373.2c2.8,1.6,6.2,2.4,10,2.4c7.3,0,15.2-3.1,21.7-8.6c7.3-6.1,11.9-14.3,12.5-22.1c-3.8-2.4-8.2-3.8-12.7-4.2
				c-0.8-0.1-1.7-0.1-2.6-0.1c-15,0-27.7,11.7-29,26.6C121.9,369.3,121.9,371.2,122.1,373.2z"/>
		</g>
	</g>
	<g>
		<g>
			<path fill="#414042" d="M132.1,392.8c-9.1,0-17.2-2.8-23.4-8.2l-2.8-4.6c-1-4.6-1.4-9.4-1-14.2c2.1-23.7,22.3-42.3,46.1-42.3
				c1.3,0,2.7,0.1,4,0.2c9.3,0.8,18,4.3,25.2,10.2l3.1,5.9c1.3,14.3-5.8,29.8-18.5,40.4C155.2,388.3,143.6,392.8,132.1,392.8z
				 M122.1,373.2c2.8,1.6,6.2,2.4,10,2.4c7.3,0,15.2-3.1,21.7-8.6c7.3-6.1,11.9-14.3,12.5-22.1c-3.8-2.4-8.2-3.8-12.7-4.2
				c-0.8-0.1-1.7-0.1-2.6-0.1c-15,0-27.7,11.7-29,26.6C121.9,369.3,121.9,371.2,122.1,373.2z"/>
		</g>
	</g>
</g>
</svg>
