<?xml version="1.0" encoding="utf-8"?>
<!-- Generator: Adobe Illustrator 18.0.0, SVG Export Plug-In . SVG Version: 6.00 Build 0)  -->
<!DOCTYPE svg PUBLIC "-//W3C//DTD SVG 1.1//EN" "http://www.w3.org/Graphics/SVG/1.1/DTD/svg11.dtd">
<svg version="1.1" id="Layer_1" xmlns="http://www.w3.org/2000/svg" xmlns:xlink="http://www.w3.org/1999/xlink" x="0px" y="0px"
	 viewBox="0 0 512 512" enable-background="new 0 0 512 512" xml:space="preserve">
<g>
	<g>
		<g>
			<ellipse fill="#E18E26" cx="256" cy="225.3" rx="129.8" ry="147.5"/>
		</g>
	</g>
	<g>
		<g>
			<path fill="#F5A229" d="M310.1,111.2c0,0,104.2,118.7,35.3,218.5c0,0,75.3-5.8,71.9-77.5c-5.9-124.9-97.2-184.1-97.2-184.1
				S329.1,92.2,310.1,111.2z"/>
		</g>
	</g>
	<g>
		<g>
			<path fill="#414042" d="M345.4,338.7c-3.2,0-6.1-1.7-7.7-4.5c-1.7-3-1.6-6.7,0.4-9.5c26.7-38.6,29.2-85,7.5-137.8
				c-16.6-40.4-41.9-69.5-42.1-69.8c-3.1-3.5-2.9-8.9,0.4-12.2c14.8-14.8,8-33.4,8-33.6c-1.4-3.6-0.2-7.7,2.8-10.1
				c3-2.4,7.2-2.6,10.4-0.5c3.9,2.5,95.2,63.1,101.3,191.2c2,41.6-20.2,63.1-39.2,73.9c-19.9,11.3-40.1,12.9-40.9,13
				C345.9,338.7,345.6,338.7,345.4,338.7z M321.7,111.4c8.6,10.9,26.7,35.9,40.1,68.3c20.8,50.3,21.3,97.3,1.5,137.1
				c19.5-6.5,47-23,45-64.1c-4.2-87.5-52.2-141.8-77.6-164.6C330,95.3,327.5,103.5,321.7,111.4z"/>
		</g>
	</g>
	<g>
		<g>
			<path fill="#F5A229" d="M199.6,111.2c0,0-104.2,118.7-35.3,218.5c0,0-75.3-5.8-71.9-77.5c5.9-124.9,97.2-184.1,97.2-184.1
				S180.5,92.2,199.6,111.2z"/>
		</g>
	</g>
	<g>
		<g>
			<path fill="#414042" d="M164.3,338.7c-0.2,0-0.5,0-0.7,0c-0.8-0.1-21-1.7-40.9-13c-19-10.7-41.2-32.3-39.2-73.9
				c6.1-128,97.4-188.6,101.3-191.2c3.2-2.1,7.4-1.9,10.4,0.5c3,2.4,4.1,6.5,2.8,10.1c-0.3,0.7-6.6,19.1,8,33.6
				c3.3,3.3,3.5,8.7,0.4,12.2c-0.2,0.3-25.5,29.4-42.1,69.8c-21.6,52.5-19.2,98.7,7.1,137.2c1.3,1.5,2,3.5,2,5.7
				C173.2,334.7,169.2,338.7,164.3,338.7C164.3,338.7,164.3,338.7,164.3,338.7z M178.8,88.2c-25.4,22.9-73.4,77.3-77.6,164.5
				c-2,41.4,25.6,57.8,45.1,64.2C126.6,277,127,230,147.8,179.7c13.4-32.4,31.5-57.4,40.1-68.3C182.2,103.5,179.7,95.4,178.8,88.2z"
				/>
		</g>
	</g>
	<g>
		<g>
			<path fill="#E6E7E8" d="M338.5,319.7L256,465.9l-79.5-144.6c0,0-1-0.8-2.7-2.2c8.1-16.5,4.2-32.7,4.2-32.7h156
				C334,286.4,330,302.9,338.5,319.7z"/>
		</g>
	</g>
	<g>
		<g>
			<g>
				<path fill="#F2D3BC" d="M332.3,183.2c0,0,10.3-23,25.4-7.9c12,12-6.2,48.8-27.1,40.1L332.3,183.2z"/>
			</g>
		</g>
		<g>
			<g>
				<path fill="#414042" d="M337,225.7c-3.3,0-6.7-0.7-9.9-2c-3.5-1.5-5.6-4.9-5.4-8.7l1.7-32.2c0.1-1.1,0.3-2.2,0.8-3.2
					c0.8-1.9,8.6-18.3,23.3-18.3c5.8,0,11.4,2.6,16.6,7.8c7.3,7.3,8.5,19.8,3.1,32.7C361,216.3,349.2,225.7,337,225.7z M341.1,185.6
					l-1.1,21.6c4-1.6,8.1-6.3,10.6-12.3c2.8-6.8,2.1-11.8,0.8-13.2c-1.9-1.9-3.3-2.5-3.9-2.5C345.8,179.1,342.9,182.4,341.1,185.6z"
					/>
			</g>
		</g>
	</g>
	<g>
		<g>
			<g>
				<path fill="#F2D3BC" d="M179.8,183.2c0,0-10.3-23-25.4-7.9c-12,12,6.2,48.8,27.1,40.1L179.8,183.2z"/>
			</g>
		</g>
		<g>
			<g>
				<path fill="#414042" d="M175.1,225.7C175.1,225.7,175.1,225.7,175.1,225.7c-12.2,0-24-9.4-30.1-24c-5.3-12.9-4.1-25.4,3.1-32.7
					c5.2-5.2,10.7-7.8,16.6-7.8c14.7,0,22.4,16.4,23.3,18.3c0.4,1,0.7,2.1,0.8,3.2l1.7,32.2c0.2,3.8-2,7.2-5.4,8.7
					C181.8,225,178.5,225.7,175.1,225.7z M164.7,179.1c-0.7,0-2.1,0.7-3.9,2.5c-1.4,1.4-2.1,6.4,0.8,13.2c2.5,6,6.6,10.7,10.6,12.3
					l-1.1-21.6C169.3,182.4,166.3,179.1,164.7,179.1z"/>
			</g>
		</g>
	</g>
	<g>
		<g>
			<path fill="#4F4F4F" d="M360.8,341.8c-35.5-19.5-26.8-55.4-26.8-55.4h-78h-78c0,0,8.8,36-26.8,55.4c-35.5,19.5-91.2,47-91.2,47
				v13.8c0,35,28.3,63.3,63.3,63.3l132.6,0l132.6,0c35,0,63.3-28.3,63.3-63.3v-13.8C451.9,388.8,396.3,361.3,360.8,341.8z"/>
		</g>
	</g>
	<g>
		<g>
			<path fill="#E6E7E8" d="M388.7,465.9c34.9,0,63.2-28.4,63.2-63.3v-13.8c0,0-21.3-10.6-46-23.2c0,0,0,0-0.1,0
				C404.8,365.3,388.7,362.4,388.7,465.9z"/>
		</g>
	</g>
	<g>
		<g>
			<path fill="#414042" d="M388.6,474.8L388.6,474.8l-132.6,0l-132.6,0c-39.8,0-72.2-32.4-72.2-72.2v-13.8c0-3.4,1.9-6.5,5-8
				c0.6-0.3,55.9-27.7,90.8-46.9c29.2-16,22.5-45.2,22.4-45.5c-0.6-2.7,0-5.5,1.7-7.6c1.7-2.2,4.3-3.4,7-3.4h156
				c2.7,0,5.3,1.3,7,3.4c1.7,2.2,2.3,5,1.7,7.6c-0.3,1.2-6.5,29.7,22.4,45.5c35,19.2,90.3,46.6,90.8,46.9c3,1.5,5,4.6,5,8v13.8
				C460.9,442.4,428.5,474.8,388.6,474.8z M69,394.3v8.3c0,30,24.4,54.4,54.4,54.4l132.6,0l132.6,0c30,0,54.4-24.4,54.4-54.4v-8.3
				c-14.5-7.2-57.4-28.8-86.5-44.7c-26.1-14.3-32.7-37.9-32.5-54.3H188c0.2,16.5-6.3,40-32.5,54.3C126.4,365.6,83.5,387.1,69,394.3z
				"/>
		</g>
	</g>
	<g>
		<g>
			<path fill="#414042" d="M388.7,474.8c-2.4,0-4.6-0.9-6.3-2.6c-1.7-1.7-2.6-3.9-2.6-6.3c0-96.9,13.7-109.3,25.5-109.3
				c1,0,2,0.1,2.9,0.4c0.2,0,0.3,0.1,0.5,0.1c0.4,0.1,0.9,0.3,1.3,0.5c24.3,12.5,45.7,23.1,45.9,23.2c3,1.5,5,4.6,5,8v13.8
				C460.9,442.4,428.5,474.7,388.7,474.8C388.7,474.8,388.7,474.8,388.7,474.8z M406.8,376c-2.8,5.9-8.5,24.7-9.1,80.2
				c25.7-4.3,45.3-26.7,45.3-53.6v-8.2C436,390.8,422.3,384,406.8,376z"/>
		</g>
	</g>
	<g>
		<g>
			<path fill="#E6E7E8" d="M123.3,465.9c-34.9,0-63.2-28.4-63.2-63.3v-13.8c0,0,21.3-10.6,46-23.2c0,0,0,0,0.1,0
				C107.2,365.3,123.3,362.4,123.3,465.9z"/>
		</g>
	</g>
	<g>
		<g>
			<path fill="#E6E7E8" d="M338.5,319.7L256,465.9l-79.5-144.6c0,0-1-0.8-2.7-2.2c8.1-16.5,4.2-32.7,4.2-32.7h156
				C334,286.4,330,302.9,338.5,319.7z"/>
		</g>
	</g>
	<g>
		<g>
			<path fill="#414042" d="M256,474.8C256,474.8,256,474.8,256,474.8c-3.3,0-6.3-1.8-7.8-4.6l-78.7-143.1l-1.4-1.1
				c-3.2-2.6-4.2-7.1-2.4-10.9c6.5-13.2,3.6-26.6,3.5-26.7c-0.6-2.6,0-5.5,1.7-7.6c1.7-2.1,4.3-3.4,7-3.4h156c2.7,0,5.3,1.3,7,3.4
				c1.7,2.2,2.3,5,1.7,7.6c0,0.1-3.1,13.8,3.8,27.2c1.4,2.7,1.3,5.8-0.2,8.4l-82.5,146.2C262.2,473.1,259.2,474.8,256,474.8z
				 M184.4,317l71.8,130.5l72.4-128.3c-3.6-8.9-4.5-17.5-4.4-24H187.9C188,301.2,187.3,308.9,184.4,317z"/>
		</g>
	</g>
	<g>
		<g>
			<path fill="#414042" d="M123.3,474.8c-4.9,0-8.9-4-8.9-8.9c0-71.6-7.8-88.3-10-91.5c-2.9-0.6-5.5-2.5-6.7-5.5
				c-1.8-4.6,0.5-9.8,5.1-11.6c3.5-1.4,7.6-0.7,11.1,1.6c7.9,5.4,18.3,22.3,18.3,107C132.2,470.8,128.2,474.8,123.3,474.8z"/>
		</g>
	</g>
	<g>
		<g>
			<path fill="#414042" d="M123.3,474.8C123.3,474.8,123.3,474.8,123.3,474.8c-39.8,0-72.1-32.4-72.1-72.2v-13.8c0-3.4,1.9-6.5,5-8
				c0.2-0.1,21.6-10.7,45.9-23.2c0.4-0.2,0.8-0.4,1.2-0.5c0.2-0.1,0.4-0.1,0.6-0.2c0.9-0.3,1.9-0.4,2.9-0.4
				c11.9,0,25.5,12.3,25.5,108.4c0,0.3,0,0.6,0,0.8C132.2,470.8,128.3,474.8,123.3,474.8C123.3,474.8,123.3,474.8,123.3,474.8z
				 M69,394.3v8.2c0,26.9,19.6,49.3,45.3,53.6c-0.6-55.5-6.3-74.2-9.1-80.2C89.7,384,76,390.8,69,394.3z"/>
		</g>
	</g>
	<g>
		<g>
			<path fill="#BB8B30" d="M256,316.4v35l-82.5-31.7c8.6-16.7,4.5-33.3,4.5-33.3L256,316.4z"/>
		</g>
	</g>
	<g>
		<g>
			<path fill="#E6E7E8" d="M256,316.4v35l-82.5-31.7c8.6-16.7,4.5-33.3,4.5-33.3L256,316.4z"/>
		</g>
	</g>
	<g>
		<g>
			<path fill="#BB8B30" d="M256,316.4v35l82.5-31.7c-8.6-16.7-4.5-33.3-4.5-33.3L256,316.4z"/>
		</g>
	</g>
	<g>
		<g>
			<path fill="#E6E7E8" d="M256,316.4v35l82.5-31.7c-8.6-16.7-4.5-33.3-4.5-33.3L256,316.4z"/>
		</g>
	</g>
	<g>
		<g>
			<path fill="#414042" d="M256,360.3c-1.1,0-2.2-0.2-3.2-0.6L170.3,328c-2.4-0.9-4.2-2.8-5.1-5.1s-0.8-5,0.4-7.3
				c6.9-13.4,3.8-27.1,3.8-27.2c-0.7-3.2,0.3-6.6,2.8-8.8c2.5-2.2,6-2.8,9-1.6l78,30c3.4,1.3,5.7,4.6,5.7,8.3v35
				c0,2.9-1.4,5.7-3.9,7.4C259.6,359.8,257.8,360.3,256,360.3z M185.1,314.6l61.9,23.8v-15.9l-59.3-22.8
				C187.5,304.1,186.8,309.2,185.1,314.6z"/>
		</g>
	</g>
	<g>
		<g>
			<path fill="#414042" d="M256,360.3c-1.8,0-3.5-0.5-5.1-1.6c-2.4-1.7-3.9-4.4-3.9-7.4v-35c0-3.7,2.3-7,5.7-8.3l78-30
				c3.1-1.2,6.6-0.6,9.1,1.6c2.5,2.2,3.6,5.6,2.8,8.8c0,0.1-3.1,13.8,3.8,27.2c1.2,2.3,1.3,4.9,0.4,7.3s-2.8,4.2-5.1,5.1l-82.5,31.7
				C258.2,360.1,257.1,360.3,256,360.3z M264.9,322.5v15.9l61.9-23.8c-1.7-5.4-2.4-10.5-2.6-15L264.9,322.5z"/>
		</g>
	</g>
	<g>
		<g>
			<path fill="#414042" d="M256,474.8c-4.9,0-8.9-4-8.9-8.9V351.4c0-4.9,4-8.9,8.9-8.9c4.9,0,8.9,4,8.9,8.9v114.5
				C264.9,470.8,260.9,474.8,256,474.8z"/>
		</g>
	</g>
	<g>
		<g>
			<g>
				<g>
					<rect x="236.7" y="325" fill="#BB8B30" width="38.5" height="41.3"/>
				</g>
			</g>
			<g>
				<g>
					<path fill="#BB8B30" d="M285.1,320.9c-6,2.5-9.8,8.3-9.8,14.7v10v10c0,6.4,3.9,12.2,9.8,14.7l15.4,6.4c10.5,4.3,22-3.4,22-14.7
						v-16.4v-16.4c0-11.3-11.5-19-22-14.7L285.1,320.9z"/>
				</g>
			</g>
			<g>
				<g>
					<path fill="#BB8B30" d="M211.5,314.5c-10.5-4.3-22,3.4-22,14.7v16.4V362c0,11.3,11.5,19,22,14.7l15.4-6.4
						c6-2.5,9.8-8.3,9.8-14.7v-10v-10c0-6.4-3.9-12.2-9.8-14.7L211.5,314.5z"/>
				</g>
			</g>
		</g>
		<g>
			<g>
				<g>
					<path fill="#414042" d="M275.2,375.2h-38.5c-4.9,0-8.9-4-8.9-8.9V325c0-4.9,4-8.9,8.9-8.9h38.5c4.9,0,8.9,4,8.9,8.9v41.3
						C284.2,371.2,280.2,375.2,275.2,375.2z M245.7,357.3h20.7v-23.4h-20.7V357.3z"/>
				</g>
			</g>
			<g>
				<g>
					<path fill="#414042" d="M306.6,386.8C306.6,386.8,306.6,386.8,306.6,386.8c-3.2,0-6.4-0.6-9.5-1.9l-15.4-6.4
						c-9.3-3.8-15.4-12.9-15.4-23v-20c0-10.1,6-19.1,15.4-23l15.4-6.4c3-1.3,6.2-1.9,9.5-1.9c13.7,0,24.8,11.1,24.8,24.8V362
						c0,6.8-2.7,13.1-7.5,17.8C319.2,384.3,313.1,386.8,306.6,386.8z M306.6,322.2c-0.9,0-1.8,0.2-2.7,0.5l-15.4,6.4
						c-2.6,1.1-4.3,3.6-4.3,6.5v20c0,2.8,1.7,5.4,4.3,6.5l15.4,6.4c2.6,1.1,5.6,0.5,7.6-1.5c1-0.9,2.1-2.5,2.1-5v-32.7
						C313.6,324.9,310,322.2,306.6,322.2z"/>
				</g>
			</g>
			<g>
				<g>
					<path fill="#414042" d="M205.4,386.8L205.4,386.8c-13.7,0-24.8-11.1-24.8-24.8v-32.7c0-13.7,11.1-24.8,24.8-24.8
						c3.2,0,6.4,0.6,9.5,1.9l15.4,6.4c9.3,3.9,15.4,12.9,15.4,23v20c0,10.1-6,19.1-15.4,23l-15.4,6.4
						C211.8,386.2,208.6,386.8,205.4,386.8z M205.4,322.2c-3.4,0-7,2.7-7,7V362c0,4.3,3.6,7,7,7l0,0c0.9,0,1.8-0.2,2.7-0.5l15.4-6.4
						c2.6-1.1,4.3-3.6,4.3-6.5v-20c0-2.8-1.7-5.4-4.3-6.5l-15.4-6.4C207.2,322.4,206.3,322.2,205.4,322.2z"/>
				</g>
			</g>
		</g>
	</g>
	<g>
		<g>
			<polygon fill="#F2D3BC" points="256,188.1 256,188.1 202.5,188.1 202.5,295.7 256,316.4 256,316.4 309.5,295.7 309.5,188.1 			
				"/>
		</g>
	</g>
	<g>
		<g>
			<path fill="#414042" d="M256,325.3c-1.1,0-2.2-0.2-3.2-0.6l-53.5-20.6c-3.4-1.3-5.7-4.6-5.7-8.3V188.1c0-4.9,4-8.9,8.9-8.9h106.9
				c4.9,0,8.9,4,8.9,8.9v107.6c0,3.7-2.3,7-5.7,8.3l-53.5,20.6C258.2,325.1,257.1,325.3,256,325.3z M211.5,289.6l44.5,17.2
				l44.5-17.2v-92.6h-89.1V289.6z"/>
		</g>
	</g>
	<g>
		<g>
			<g>
				<path fill="#F2D3BC" d="M283,103c27,0,48.9,21.9,48.9,48.9v41.6c0,0,0.7,56.2-41.7,80.3c-21,12-47.3,12-68.3,0
					c-42.3-24.1-41.7-80.3-41.7-80.3v-41.6c0-21.7,21.9-48.9,48.9-48.9H283z"/>
			</g>
		</g>
		<g>
			<g>
				<path fill="#F2D3BC" d="M283,103c27,0,48.9,21.9,48.9,48.9v41.6c0,0,0.7,56.2-41.7,80.3c-21,12-47.3,12-68.3,0
					c-42.3-24.1-41.7-80.3-41.7-80.3v-41.6c0-21.7,21.9-48.9,48.9-48.9H283z"/>
			</g>
		</g>
		<g>
			<g>
				<path fill="#414042" d="M256,291.7c-13.6,0-26.9-3.5-38.6-10.2c-46.4-26.4-46.2-85.7-46.2-88.2v-41.5
					c0-26.2,25.8-57.8,57.8-57.8H283c31.9,0,57.8,25.9,57.8,57.8v41.6c0,2.4,0.2,61.6-46.2,88.1C282.9,288.2,269.6,291.7,256,291.7z
					 M229,111.9c-21.1,0-39.9,22.3-39.9,39.9v41.6c0,0.6,0,51.4,37.2,72.6c9,5.1,19.3,7.8,29.7,7.8s20.8-2.7,29.7-7.8
					c37.3-21.3,37.2-72,37.2-72.5v-41.7c0-22-17.9-39.9-39.9-39.9H229z"/>
			</g>
		</g>
	</g>
	<g>
		<g>
			<path fill="#F5A229" d="M320.1,68.2c0,0,24.5,86.8-174.2,86.8c0,0-3-76.7,73.1-101.6C287.8,30.8,320.1,68.2,320.1,68.2z"/>
		</g>
	</g>
	<g>
		<g>
			<path fill="#414042" d="M145.9,163.8c-4.8,0-8.7-3.8-8.9-8.6c0-0.9-0.7-21.3,8.6-45.1c8.7-22.1,28-51.4,70.6-65.3
				c15.5-5.1,30.5-7.6,44.7-7.6c43.6,0,65,24.1,65.9,25.1c0.8,0.9,1.3,1.9,1.7,3c0.3,0.9,7.5,22.9-8.9,46.1
				c-23.7,33.6-82.1,51.2-173.6,52.4C146,163.8,146,163.8,145.9,163.8z M261,55c-12.3,0-25.4,2.3-39.1,6.8
				c-54.7,17.9-64.8,64.4-66.6,84c99.3-2.7,136.3-25.6,149.8-44.7c8.9-12.6,7.8-24.3,7-28.5C307.4,68.3,290.9,55,261,55z"/>
		</g>
	</g>
</g>
</svg>
