<?xml version="1.0" encoding="utf-8"?>
<!-- Generator: Adobe Illustrator 18.0.0, SVG Export Plug-In . SVG Version: 6.00 Build 0)  -->
<!DOCTYPE svg PUBLIC "-//W3C//DTD SVG 1.1//EN" "http://www.w3.org/Graphics/SVG/1.1/DTD/svg11.dtd">
<svg version="1.1" id="Layer_1" xmlns="http://www.w3.org/2000/svg" xmlns:xlink="http://www.w3.org/1999/xlink" x="0px" y="0px"
	 viewBox="0 0 512 512" enable-background="new 0 0 512 512" xml:space="preserve">
<g>
	<g>
		<g>
			<path fill="#4F4F4F" d="M151.2,341.2c35.5-19.5,26.8-55.4,26.8-55.4h78h78c0,0-8.8,36,26.8,55.4c35.5,19.5,91.2,47,91.2,47V402
				c0,35-28.3,63.3-63.3,63.3H256H123.4c-35,0-63.3-28.3-63.3-63.3v-13.8C60.1,388.3,115.7,360.7,151.2,341.2z"/>
		</g>
	</g>
	<g>
		<g>
			<path fill="#E6E7E8" d="M388.7,465.3c34.9,0,63.2-28.4,63.2-63.3v-13.8c0,0-21.3-10.6-46-23.2c0,0,0,0-0.1,0
				C404.8,364.7,388.7,361.9,388.7,465.3z"/>
		</g>
	</g>
	<g>
		<g>
			<path fill="#E6E7E8" d="M123.3,465.3c-34.9,0-63.2-28.4-63.2-63.3v-13.8c0,0,21.3-10.6,46-23.2c0,0,0,0,0.1,0
				C107.2,364.7,123.3,361.9,123.3,465.3z"/>
		</g>
	</g>
	<g>
		<g>
			<path fill="#414042" d="M388.6,474.3H123.4c-39.8,0-72.2-32.4-72.2-72.2v-13.8c0-3.4,1.9-6.5,5-8c0.6-0.3,55.9-27.7,90.8-46.9
				c29.2-16,22.5-45.2,22.4-45.5c-0.6-2.7,0-5.5,1.7-7.6c1.7-2.2,4.3-3.4,7-3.4h156c2.7,0,5.3,1.3,7,3.4c1.7,2.2,2.3,5,1.7,7.6
				c-0.3,1.2-6.5,29.7,22.4,45.5c35,19.2,90.3,46.6,90.8,46.9c3,1.5,5,4.6,5,8V402C460.9,441.9,428.5,474.3,388.6,474.3z M69,393.8
				v8.3c0,30,24.4,54.4,54.4,54.4h265.3c30,0,54.4-24.4,54.4-54.4v-8.3c-14.5-7.2-57.4-28.8-86.5-44.7
				c-26.1-14.3-32.7-37.9-32.5-54.3H188c0.2,16.5-6.3,40-32.5,54.3C126.4,365,83.5,386.6,69,393.8z"/>
		</g>
	</g>
	<g>
		<g>
			<path fill="#E6E7E8" d="M173.5,319.1L256,465.3l79.5-144.6c0,0,1-0.8,2.7-2.2c-8.1-16.5-4.2-32.7-4.2-32.7H178
				C178,285.8,182,302.4,173.5,319.1z"/>
		</g>
	</g>
	<g>
		<g>
			<path fill="#E6E7E8" d="M173.5,319.1L256,465.3l79.5-144.6c0,0,1-0.8,2.7-2.2c-8.1-16.5-4.2-32.7-4.2-32.7H178
				C178,285.8,182,302.4,173.5,319.1z"/>
		</g>
	</g>
	<g>
		<g>
			<path fill="#414042" d="M256,474.2c-3.2,0-6.2-1.7-7.8-4.5l-82.5-146.2c-1.5-2.6-1.5-5.8-0.2-8.4c6.8-13.4,3.8-27,3.8-27.2
				c-0.6-2.7,0-5.5,1.7-7.6c1.7-2.2,4.3-3.4,7-3.4h156c2.7,0,5.3,1.3,7,3.4c1.7,2.2,2.3,5,1.7,7.6c0,0.1-3,13.4,3.5,26.7
				c1.8,3.7,0.9,8.2-2.4,10.9l-1.4,1.1l-78.7,143.1C262.2,472.5,259.3,474.2,256,474.2C256,474.2,256,474.2,256,474.2z M183.5,318.7
				L255.9,447l71.8-130.5c-2.9-8.1-3.6-15.8-3.5-21.7H187.9C188,301.2,187.1,309.7,183.5,318.7z"/>
		</g>
	</g>
	<g>
		<g>
			<path fill="#414042" d="M388.7,474.3c-4.9,0-8.9-4-8.9-8.9c0-84.7,10.4-101.6,18.3-107c3.5-2.4,7.7-3,11.1-1.6
				c4.6,1.8,6.9,7,5.1,11.6c-1.1,2.9-3.7,4.9-6.5,5.5c-2.3,3.6-10.1,20.8-10.1,91.5C397.6,470.3,393.6,474.3,388.7,474.3z"/>
		</g>
	</g>
	<g>
		<g>
			<path fill="#414042" d="M388.7,474.2c-2.4,0-4.6-0.9-6.3-2.6c-1.7-1.7-2.6-3.9-2.6-6.3c0-96.9,13.7-109.3,25.5-109.3
				c1,0,2,0.1,2.9,0.4c0.2,0,0.3,0.1,0.5,0.1c0.4,0.1,0.9,0.3,1.3,0.5c24.3,12.5,45.7,23.1,45.9,23.2c3,1.5,5,4.6,5,8V402
				C460.9,441.8,428.5,474.2,388.7,474.2C388.7,474.2,388.7,474.2,388.7,474.2z M406.8,375.5c-2.8,5.9-8.5,24.7-9.1,80.2
				c25.7-4.3,45.3-26.7,45.3-53.6v-8.2C436,390.3,422.3,383.4,406.8,375.5z"/>
		</g>
	</g>
	<g>
		<g>
			<path fill="#414042" d="M123.3,474.2C123.3,474.2,123.3,474.2,123.3,474.2c-39.8,0-72.1-32.4-72.1-72.2v-13.8c0-3.4,1.9-6.5,5-8
				c0.2-0.1,21.6-10.7,45.9-23.2c0.4-0.2,0.8-0.4,1.2-0.5c0.2-0.1,0.4-0.1,0.6-0.2c0.9-0.3,1.9-0.4,2.9-0.4
				c11.9,0,25.5,12.3,25.5,108.4c0,0.3,0,0.6,0,0.8C132.2,470.2,128.2,474.2,123.3,474.2C123.3,474.2,123.3,474.2,123.3,474.2z
				 M69,393.8v8.2c0,26.9,19.6,49.3,45.3,53.6c-0.6-55.5-6.3-74.2-9.1-80.2C89.7,383.4,76,390.3,69,393.8z"/>
		</g>
	</g>
	<g>
		<g>
			<polygon fill="#F2D3BC" points="256,187.6 256,187.6 309.5,187.6 309.5,295.2 256,315.8 256,315.8 202.5,295.2 202.5,187.6 			
				"/>
		</g>
	</g>
	<g>
		<g>
			<path fill="#414042" d="M256,324.7c-1.1,0-2.2-0.2-3.2-0.6l-53.5-20.6c-3.4-1.3-5.7-4.6-5.7-8.3V187.6c0-4.9,4-8.9,8.9-8.9h106.9
				c4.9,0,8.9,4,8.9,8.9v107.6c0,3.7-2.3,7-5.7,8.3l-53.5,20.6C258.2,324.5,257.1,324.7,256,324.7z M211.5,289.1l44.5,17.2
				l44.5-17.2v-92.6h-89.1V289.1z"/>
		</g>
	</g>
	<g>
		<g>
			<g>
				<path fill="#F2D3BC" d="M229,102.5c-27,0-48.9,21.9-48.9,48.9v41.6c0,0-0.7,56.2,41.7,80.3c21,12,47.3,12,68.3,0
					c42.3-24.1,41.7-80.3,41.7-80.3v-41.6c0-27-21.9-48.9-48.9-48.9H229z"/>
			</g>
		</g>
		<g>
			<g>
				<path fill="#414042" d="M256,291.2c-13.6,0-26.9-3.5-38.6-10.2c-46.4-26.4-46.2-85.7-46.2-88.2v-41.5
					c0-31.9,25.9-57.8,57.8-57.8H283c31.9,0,57.8,25.9,57.8,57.8v41.6c0,2.4,0.2,61.6-46.2,88.1C282.9,287.6,269.6,291.2,256,291.2z
					 M229,111.4c-22,0-39.9,17.9-39.9,39.9v41.6c0,0.6,0,51.4,37.2,72.6c9,5.1,19.3,7.8,29.7,7.8c10.5,0,20.8-2.7,29.7-7.8
					c37.1-21.2,37.2-72,37.2-72.5v-41.7c0-22-17.9-39.9-39.9-39.9H229z"/>
			</g>
		</g>
	</g>
	<g>
		<g>
			<path fill="#BB8B30" d="M256,315.8v35l82.5-31.7c-8.6-16.7-4.5-33.3-4.5-33.3L256,315.8z"/>
		</g>
	</g>
	<g>
		<g>
			<path fill="#E6E7E8" d="M256,315.8v35l82.5-31.7c-8.6-16.7-4.5-33.3-4.5-33.3L256,315.8z"/>
		</g>
	</g>
	<g>
		<g>
			<path fill="#BB8B30" d="M256,315.8v35l-82.5-31.7c8.6-16.7,4.5-33.3,4.5-33.3L256,315.8z"/>
		</g>
	</g>
	<g>
		<g>
			<path fill="#E6E7E8" d="M256,315.8v35l-82.5-31.7c8.6-16.7,4.5-33.3,4.5-33.3L256,315.8z"/>
		</g>
	</g>
	<g>
		<g>
			<path fill="#414042" d="M256,359.8c-1.8,0-3.5-0.5-5.1-1.6c-2.4-1.7-3.9-4.4-3.9-7.4v-35c0-3.7,2.3-7,5.7-8.3l78-30
				c3.1-1.2,6.6-0.6,9.1,1.6c2.5,2.2,3.6,5.6,2.8,8.8c0,0.1-3.1,13.8,3.8,27.2c1.2,2.3,1.3,4.9,0.4,7.3s-2.8,4.2-5.1,5.1l-82.5,31.7
				C258.2,359.6,257.1,359.8,256,359.8z M264.9,321.9v15.9l61.9-23.8c-1.7-5.4-2.4-10.5-2.6-15L264.9,321.9z"/>
		</g>
	</g>
	<g>
		<g>
			<path fill="#414042" d="M256,359.8c-1.1,0-2.2-0.2-3.2-0.6l-82.5-31.7c-2.4-0.9-4.2-2.8-5.1-5.1s-0.8-5,0.4-7.3
				c6.9-13.4,3.8-27.1,3.8-27.2c-0.7-3.2,0.3-6.6,2.8-8.8c2.5-2.2,6-2.8,9-1.6l78,30c3.4,1.3,5.7,4.6,5.7,8.3v35
				c0,2.9-1.4,5.7-3.9,7.4C259.5,359.2,257.8,359.8,256,359.8z M185.1,314.1l61.9,23.8v-15.9l-59.3-22.8
				C187.5,303.6,186.8,308.7,185.1,314.1z"/>
		</g>
	</g>
	<g>
		<g>
			<path fill="#414042" d="M256,474.2c-4.9,0-8.9-4-8.9-8.9V350.8c0-4.9,4-8.9,8.9-8.9c4.9,0,8.9,4,8.9,8.9v114.5
				C264.9,470.2,260.9,474.2,256,474.2z"/>
		</g>
	</g>
	<g>
		<g>
			<g>
				<g>
					<rect x="236.8" y="324.4" fill="#BB8B30" width="38.5" height="41.3"/>
				</g>
			</g>
			<g>
				<g>
					<path fill="#BB8B30" d="M226.9,320.4c6,2.5,9.8,8.3,9.8,14.7v10v10c0,6.4-3.9,12.2-9.8,14.7l-15.4,6.4
						c-10.5,4.3-22-3.4-22-14.7v-16.4v-16.4c0-11.3,11.5-19,22-14.7L226.9,320.4z"/>
				</g>
			</g>
			<g>
				<g>
					<path fill="#BB8B30" d="M300.5,314c10.5-4.3,22,3.4,22,14.7v16.4v16.4c0,11.3-11.5,19-22,14.7l-15.4-6.4
						c-6-2.5-9.8-8.3-9.8-14.7v-10v-10c0-6.4,3.9-12.2,9.8-14.7L300.5,314z"/>
				</g>
			</g>
		</g>
		<g>
			<g>
				<g>
					<path fill="#414042" d="M275.3,374.6h-38.5c-4.9,0-8.9-4-8.9-8.9v-41.3c0-4.9,4-8.9,8.9-8.9h38.5c4.9,0,8.9,4,8.9,8.9v41.3
						C284.2,370.6,280.2,374.6,275.3,374.6z M245.7,356.8h20.7v-23.4h-20.7V356.8z"/>
				</g>
			</g>
			<g>
				<g>
					<path fill="#414042" d="M205.4,386.3c-13.7,0-24.8-11.1-24.8-24.8v-32.7c0-13.7,11.1-24.8,24.8-24.8c3.2,0,6.4,0.6,9.5,1.9
						l15.4,6.4c9.3,3.9,15.4,12.9,15.4,23v20c0,10.1-6,19.1-15.4,23l-15.4,6.4C211.8,385.6,208.6,386.3,205.4,386.3z M205.4,321.7
						c-3.4,0-7,2.7-7,7v32.7c0,4.3,3.6,7,7,7c0.9,0,1.8-0.2,2.7-0.5l15.4-6.4c2.6-1.1,4.3-3.6,4.3-6.5v-20c0-2.8-1.7-5.4-4.3-6.5
						l-15.4-6.4C207.2,321.9,206.3,321.7,205.4,321.7z"/>
				</g>
			</g>
			<g>
				<g>
					<path fill="#414042" d="M306.6,386.3c-3.2,0-6.4-0.6-9.5-1.9l-15.4-6.4c-9.3-3.8-15.4-12.9-15.4-23v-20c0-10.1,6-19.1,15.4-23
						l15.4-6.4c3-1.3,6.2-1.9,9.5-1.9c13.7,0,24.8,11.1,24.8,24.8v32.7C331.4,375.1,320.3,386.3,306.6,386.3z M306.6,321.7
						c-0.9,0-1.8,0.2-2.7,0.5l-15.4,6.4c-2.6,1.1-4.3,3.6-4.3,6.5v20c0,2.8,1.7,5.4,4.3,6.5l15.4,6.4c0.9,0.4,1.8,0.5,2.7,0.5
						c3.4,0,7-2.7,7-7v-32.7C313.6,324.4,310,321.7,306.6,321.7z"/>
				</g>
			</g>
		</g>
	</g>
	<g>
		<g>
			<path fill="#6C4019" d="M331.8,192.9c0,0-6.4-71.8-48-71.8s-29.6,0-29.6,0v-56c0,0,83.5,0,83.5,58.4
				C337.7,172.1,331.8,192.9,331.8,192.9z"/>
		</g>
	</g>
	<g>
		<g>
			<path fill="#F5A229" d="M254.5,58.7L254.5,58.7c0,0,0.3,0,0.8,0c0.5,0,0.8,0,0.8,0v0c12.5,0.4,90.6,5.1,90.6,64.5
				c0,53.8-6.5,76.8-6.5,76.8s-7.1-79.4-53.1-79.4c-15.8,0-24.5,0-29.3,0c-0.7,0-1.2,0-1.8,0c-0.7,0-1.2,0-1.7,0c-1.2,0-1.7,0-1.8,0
				c-4.8,0-13.6,0-29.3,0c-45.9,0-53.1,79.4-53.1,79.4s-6.5-23-6.5-76.8C163.9,63.9,242,59.1,254.5,58.7z"/>
		</g>
	</g>
	<g>
		<g>
			<path fill="#414042" d="M340.3,208.9c-0.3,0-0.6,0-0.8,0c-4.3-0.4-7.7-3.8-8.1-8.1c-0.1-0.9-7.6-71.3-44.2-71.3h-63.8
				c-36.8,0-44.1,70.6-44.2,71.3c-0.4,4.3-3.8,7.7-8.1,8.1c-4.3,0.4-8.2-2.3-9.4-6.5c-0.3-1-6.8-24.8-6.8-79.2
				c0-51.6,52.9-71.8,98.5-73.4c0.4,0,0.7-0.1,1.1-0.1l0.8,0l0.8,0c0.4,0,0.8,0,1.1,0.1c45.6,1.6,98.5,21.7,98.5,73.4
				c0,54.4-6.6,78.2-6.8,79.2C347.8,206.3,344.3,208.9,340.3,208.9z M223.5,111.7h63.8c25.8,0,41,19.5,50,40.2
				c0.4-8.3,0.7-17.8,0.7-28.6c0-50.5-68.3-55.1-82-55.6c-0.1,0-0.3,0-0.4,0h0c-0.1,0-0.2,0-0.3,0h0c-0.1,0-0.3,0-0.4,0
				c-13.7,0.4-82,5-82,55.6c0,10.8,0.3,20.3,0.7,28.6C182.4,131.2,197.7,111.7,223.5,111.7z"/>
		</g>
	</g>
	<g>
		<g>
			<path fill="#F6AC43" d="M324.2,78.8c0,0-16.5,106.3-175.5,40.3C148.8,119.1,211.1-12.2,324.2,78.8z"/>
		</g>
	</g>
	<g>
		<g>
			<path fill="#414042" d="M239.4,149.6c-26.8,0-58.5-7.5-94.1-22.3c-2.3-0.9-4-2.8-4.9-5c-0.9-2.3-0.8-4.8,0.3-7
				c1.5-3.2,37.6-77.5,106.5-77.5c26.7,0,54.5,11.5,82.6,34.1c2.5,2,3.7,5.2,3.2,8.3C332.9,80.8,321.3,149.6,239.4,149.6z
				 M161.5,114.6c29.6,11.4,55.8,17.2,78,17.2c55.1,0,70.8-36,74.8-49.5c-23.3-17.7-45.8-26.7-67.1-26.7
				C201.9,55.6,172.3,96.5,161.5,114.6z"/>
		</g>
	</g>
	<g>
		<g>
			<g>
				<path fill="#F2D3BC" d="M333.5,182.7c0,0,10.3-23,25.4-7.9c12,12-6.2,48.8-27.1,40.1L333.5,182.7z"/>
			</g>
		</g>
		<g>
			<g>
				<path fill="#414042" d="M338.2,225.1c-3.3,0-6.7-0.7-9.9-2c-3.5-1.5-5.6-4.9-5.4-8.7l1.7-32.2c0.1-1.1,0.3-2.2,0.8-3.2
					c0.8-1.9,8.6-18.3,23.3-18.3c5.8,0,11.4,2.6,16.6,7.8c7.3,7.3,8.5,19.8,3.1,32.7C362.2,215.7,350.4,225.1,338.2,225.1z
					 M342.3,185l-1.1,21.6c4-1.6,8.1-6.3,10.6-12.3c2.8-6.8,2.1-11.8,0.8-13.2c-1.9-1.9-3.3-2.5-3.9-2.5
					C347,178.6,344,181.8,342.3,185z"/>
			</g>
		</g>
	</g>
	<g>
		<g>
			<g>
				<path fill="#F2D3BC" d="M179.8,182.7c0,0-10.3-23-25.4-7.9c-12,12,6.2,48.8,27.1,40.1L179.8,182.7z"/>
			</g>
		</g>
		<g>
			<g>
				<path fill="#414042" d="M175,225.1C175,225.1,175,225.1,175,225.1c-12.2,0-24-9.4-30.1-24c-5.3-12.9-4.1-25.4,3.1-32.7
					c5.2-5.2,10.7-7.8,16.6-7.8c14.7,0,22.4,16.4,23.3,18.3c0.4,1,0.7,2.1,0.8,3.2l1.7,32.2c0.2,3.8-2,7.2-5.4,8.7
					C181.7,224.4,178.4,225.1,175,225.1z M164.6,178.6c-0.7,0-2.1,0.7-3.9,2.5c-1.4,1.4-2.1,6.4,0.8,13.2c2.5,6,6.6,10.7,10.6,12.3
					L171,185C169.2,181.8,166.3,178.6,164.6,178.6z"/>
			</g>
		</g>
	</g>
</g>
</svg>
