<?xml version="1.0" encoding="utf-8"?>
<!-- Generator: Adobe Illustrator 18.0.0, SVG Export Plug-In . SVG Version: 6.00 Build 0)  -->
<!DOCTYPE svg PUBLIC "-//W3C//DTD SVG 1.1//EN" "http://www.w3.org/Graphics/SVG/1.1/DTD/svg11.dtd">
<svg version="1.1" id="Layer_1" xmlns="http://www.w3.org/2000/svg" xmlns:xlink="http://www.w3.org/1999/xlink" x="0px" y="0px"
	 viewBox="0 0 512 512" enable-background="new 0 0 512 512" xml:space="preserve">
<g>
	<g>
		<g>
			<path fill="#EDB940" d="M405.8,209.9L405.8,209.9c-11.8,0-21.3-9.5-21.3-21.2v0c0-11.7,9.6-21.2,21.3-21.2h0
				c11.8,0,21.3,9.5,21.3,21.2v0C427.2,200.4,417.6,209.9,405.8,209.9z"/>
		</g>
	</g>
	<g>
		<g>
			<path fill="#EDB940" d="M106.2,209.9L106.2,209.9c-11.8,0-21.3-9.5-21.3-21.2v0c0-11.7,9.6-21.2,21.3-21.2h0
				c11.8,0,21.3,9.5,21.3,21.2v0C127.5,200.4,118,209.9,106.2,209.9z"/>
		</g>
	</g>
	<g>
		<g>
			<path fill="#F2C637" d="M330.9,256.5C263.4,256.5,256,138,256,138s-7.4,118.6-74.9,118.6c-58.2,0-74.9-45.2-74.9-45.2V389l0,0
				c96.7,35.7,203,35.7,299.7,0l0,0V211.3C405.8,211.3,389.2,256.5,330.9,256.5z"/>
		</g>
	</g>
	<g>
		<g>
			<path fill="#DB802D" d="M405.8,215.7V389c-37.3-14.1-76.1-22.8-115.2-26c5.7-3.5,11.3-7.3,16.8-11.3
				c25.3-18.7,46.7-42.5,62.7-69.4c7.3-12.3,14.4-25.7,19.5-38.9c1.7-4.4,3.1-9.5,5.2-14.3v0c1.9-4.4,4.3-8.5,8-11.3h0
				C403.7,216.9,404.7,216.3,405.8,215.7z"/>
		</g>
	</g>
	<g>
		<g>
			<path fill="#DB802D" d="M405.8,389c-48.3,17.8-99.1,26.7-149.8,26.7c-50.7,0-101.5-8.9-149.8-26.7c48.2-18.3,99-27.4,149.8-27.4
				S357.6,370.7,405.8,389z"/>
		</g>
	</g>
	<g>
		<g>
			<path fill="#FDF1A3" d="M275,215.4c-22.8,33.8-76.7,93.7-168.8,86.9v-81.4c0-1.8,0.7-3.2,1.8-4.2c5.6,15.3,25.4,39.8,73.1,39.8
				c51.6,0,68.1-61.6,73-99.3c1.2-0.5,2.6-0.5,3.9,0L275,215.4z"/>
		</g>
	</g>
	<g>
		<g>
			<path fill="#414042" d="M405.8,397.5c-1,0-2.1-0.2-3-0.6c-47-17.8-96.4-26.9-146.8-26.9c-50.3,0-99.7,9-146.8,26.9
				c-2.6,1-5.6,0.6-7.9-0.9c-2.3-1.6-3.7-4.2-3.7-7V211.3c0-4.1,3-7.7,7.1-8.4c4.1-0.7,8.1,1.6,9.5,5.5c0.6,1.6,15.6,39.7,66.9,39.7
				c58.7,0,66.3-109.5,66.4-110.6c0.3-4.5,4-8,8.5-8c0,0,0,0,0,0c4.5,0,8.3,3.5,8.5,8c0.1,1.1,7.7,110.6,66.4,110.6
				c51.7,0,66.7-39.3,66.9-39.7c1.4-3.9,5.5-6.2,9.5-5.5c4.1,0.7,7.1,4.3,7.1,8.4V389c0,2.8-1.4,5.4-3.7,7
				C409.2,397,407.5,397.5,405.8,397.5z M256,353c48.3,0,95.8,8,141.3,23.8V239.1c-12.6,12.9-33.5,26-66.4,26
				c-44,0-65-42.1-74.9-77.7c-9.9,35.7-30.9,77.7-74.9,77.7c-32.9,0-53.8-13.1-66.4-26v137.7C160.2,361,207.7,353,256,353z"/>
		</g>
	</g>
	<g>
		<g>
			<path fill="#EDB940" d="M256,162.4L256,162.4c-17.6,0-31.9-14.2-31.9-31.8v0c0-17.5,14.3-31.8,31.9-31.8h0
				c17.6,0,31.9,14.2,31.9,31.8v0C287.9,148.2,273.6,162.4,256,162.4z"/>
		</g>
	</g>
	<g>
		<g>
			<path fill="#FDF1A3" d="M270.2,110c2.8,2.8,0.3,7.6-3.7,7.1c-1-0.1-2-0.2-3-0.2c-6.5,0-12.4,2.7-16.7,6.9
				c-3.9,3.8-5.6,8.4-6.3,12.5c-0.7,4-6,4.9-7.9,1.3c-1.8-3.3-2.8-7.1-2.8-11.1c0-6.5,2.7-12.4,6.9-16.7c4.3-4.3,10.2-6.9,16.7-6.9
				C259.9,103,265.8,105.6,270.2,110C270.1,109.9,270.2,109.9,270.2,110z"/>
		</g>
	</g>
	<g>
		<g>
			<path fill="#FDF1A3" d="M116.1,177.8c1.8,1.8,0.2,4.8-2.3,4.4c-0.6-0.1-1.3-0.1-1.9-0.1c-4.1,0-7.8,1.7-10.6,4.4
				c-2.5,2.4-3.6,5.3-4,7.9c-0.4,2.5-3.8,3.1-5,0.8c-1.1-2.1-1.8-4.5-1.8-7c0-4.1,1.7-7.8,4.4-10.5c2.7-2.7,6.4-4.3,10.6-4.3
				S113.3,175,116.1,177.8C116,177.7,116.1,177.8,116.1,177.8z"/>
		</g>
	</g>
	<g>
		<g>
			<path fill="#FDF1A3" d="M415.9,177.8c1.8,1.8,0.2,4.8-2.3,4.4c-0.6-0.1-1.3-0.1-1.9-0.1c-4.1,0-7.8,1.7-10.6,4.4
				c-2.5,2.4-3.6,5.3-4,7.9c-0.4,2.5-3.8,3.1-5,0.8c-1.1-2.1-1.8-4.5-1.8-7c0-4.1,1.7-7.8,4.4-10.5c2.7-2.7,6.4-4.3,10.6-4.3
				S413.2,175,415.9,177.8C415.9,177.7,415.9,177.8,415.9,177.8z"/>
		</g>
	</g>
	<g>
		<g>
			<path fill="#414042" d="M256,171c-22.3,0-40.5-18.1-40.5-40.3c0-22.2,18.2-40.3,40.5-40.3c22.3,0,40.5,18.1,40.5,40.3
				C296.5,152.9,278.3,171,256,171z M256,107.4c-12.9,0-23.4,10.4-23.4,23.2c0,12.8,10.5,23.2,23.4,23.2c12.9,0,23.4-10.4,23.4-23.2
				C279.4,117.9,268.9,107.4,256,107.4z"/>
		</g>
	</g>
	<g>
		<g>
			<path fill="#414042" d="M106.2,218.4c-16.5,0-29.9-13.4-29.9-29.8c0-16.4,13.4-29.8,29.9-29.8c16.5,0,29.9,13.4,29.9,29.8
				C136.1,205.1,122.7,218.4,106.2,218.4z M106.2,176c-7.1,0-12.8,5.7-12.8,12.7c0,7,5.7,12.7,12.8,12.7c7.1,0,12.8-5.7,12.8-12.7
				C119,181.7,113.2,176,106.2,176z"/>
		</g>
	</g>
	<g>
		<g>
			<path fill="#414042" d="M405.8,218.4c-16.5,0-29.9-13.4-29.9-29.8c0-16.4,13.4-29.8,29.9-29.8c16.5,0,29.9,13.4,29.9,29.8
				C435.7,205.1,422.3,218.4,405.8,218.4z M405.8,176c-7.1,0-12.8,5.7-12.8,12.7c0,7,5.7,12.7,12.8,12.7c7.1,0,12.8-5.7,12.8-12.7
				C418.6,181.7,412.9,176,405.8,176z"/>
		</g>
	</g>
	<g>
		<g>
			<path fill="#414042" d="M256,421.6c-103,0-151.7-24-153.7-25c-4.2-2.1-5.9-7.3-3.8-11.5c2.1-4.2,7.3-5.9,11.5-3.7l0,0
				c0.5,0.2,47.6,23.2,146,23.2c102.2,0,145.3-22.8,145.7-23c4.1-2.2,9.3-0.8,11.6,3.3c2.3,4.1,0.8,9.3-3.3,11.5
				C408.1,397.4,363.4,421.6,256,421.6z"/>
		</g>
	</g>
	<g>
		<g>
			<ellipse fill="#BB6FA0" cx="256" cy="294.1" rx="29.9" ry="36.2"/>
		</g>
	</g>
	<g>
		<g>
			<path fill="#BB6FA0" d="M285.9,294.1c0,20-13.4,36.2-29.9,36.2c-4.7,0-9.1-1.3-13-3.6c11.2-9.4,34.1-27.8,42.9-34.8
				C285.9,292.6,285.9,293.3,285.9,294.1z"/>
		</g>
	</g>
	<g>
		<g>
			<path fill="#AFDBEF" d="M272.8,264.1l-46,37.8c-0.5-2.5-0.7-5.1-0.7-7.8c0-20,13.4-36.2,29.9-36.2
				C262.2,257.8,268,260.1,272.8,264.1z"/>
		</g>
	</g>
	<g>
		<g>
			<g>
				<ellipse fill="#BB6FA0" cx="332.7" cy="309.7" rx="17" ry="20.6"/>
			</g>
		</g>
		<g>
			<g>
				<path fill="#AFDBEF" d="M345.3,295.9l-25.9,21.3c0,0-0.8,0.6-2,1.6c-1.1-2.8-1.8-5.8-1.8-9.1c0-11.4,7.6-20.6,17-20.6
					C337.7,289,342.2,291.7,345.3,295.9z"/>
			</g>
		</g>
		<g>
			<g>
				<path fill="#AFDBEF" d="M345.3,295.9l-25.9,21.3c0,0-0.8,0.6-2,1.6c-1.1-2.8-1.8-5.8-1.8-9.1c0-11.4,7.6-20.6,17-20.6
					C337.7,289,342.2,291.7,345.3,295.9z"/>
			</g>
		</g>
		<g>
			<g>
				<path fill="#414042" d="M332.7,338.8c-14.1,0-25.6-13.1-25.6-29.1c0-16.1,11.5-29.1,25.6-29.1c14.1,0,25.6,13.1,25.6,29.1
					C358.2,325.7,346.7,338.8,332.7,338.8z M332.7,297.6c-4.6,0-8.4,5.5-8.4,12.1s3.9,12.1,8.4,12.1c4.6,0,8.4-5.5,8.4-12.1
					S337.2,297.6,332.7,297.6z"/>
			</g>
		</g>
	</g>
	<g>
		<g>
			<g>
				<ellipse fill="#BB6FA0" cx="179.3" cy="309.7" rx="17" ry="20.6"/>
			</g>
		</g>
		<g>
			<g>
				<path fill="#AFDBEF" d="M192,295.9l-25.9,21.3c0,0-0.8,0.6-2,1.6c-1.1-2.8-1.8-5.8-1.8-9.1c0-11.4,7.6-20.6,17-20.6
					C184.4,289,188.9,291.7,192,295.9z"/>
			</g>
		</g>
		<g>
			<g>
				<path fill="#AFDBEF" d="M192,295.9l-25.9,21.3c0,0-0.8,0.6-2,1.6c-1.1-2.8-1.8-5.8-1.8-9.1c0-11.4,7.6-20.6,17-20.6
					C184.4,289,188.9,291.7,192,295.9z"/>
			</g>
		</g>
		<g>
			<g>
				<path fill="#414042" d="M179.3,338.8c-14.1,0-25.6-13.1-25.6-29.1c0-16.1,11.5-29.1,25.6-29.1c14.1,0,25.6,13.1,25.6,29.1
					C204.9,325.7,193.4,338.8,179.3,338.8z M179.3,297.6c-4.6,0-8.4,5.5-8.4,12.1s3.9,12.1,8.4,12.1s8.4-5.5,8.4-12.1
					S183.9,297.6,179.3,297.6z"/>
			</g>
		</g>
	</g>
	<g>
		<g>
			<path fill="#414042" d="M256,338.8c-21.2,0-38.4-20.1-38.4-44.8c0-24.7,17.2-44.8,38.4-44.8c21.2,0,38.4,20.1,38.4,44.8
				C294.4,318.7,277.2,338.8,256,338.8z M256,266.3c-11.8,0-21.3,12.4-21.3,27.7c0,15.3,9.6,27.7,21.3,27.7
				c11.8,0,21.3-12.4,21.3-27.7C277.3,278.8,267.8,266.3,256,266.3z"/>
		</g>
	</g>
</g>
</svg>
