<?xml version="1.0" encoding="utf-8"?>
<!-- Generator: Adobe Illustrator 18.0.0, SVG Export Plug-In . SVG Version: 6.00 Build 0)  -->
<!DOCTYPE svg PUBLIC "-//W3C//DTD SVG 1.1//EN" "http://www.w3.org/Graphics/SVG/1.1/DTD/svg11.dtd">
<svg version="1.1" id="Layer_1" xmlns="http://www.w3.org/2000/svg" xmlns:xlink="http://www.w3.org/1999/xlink" x="0px" y="0px"
	 viewBox="0 0 512 512" enable-background="new 0 0 512 512" xml:space="preserve">
<g>
	<g>
		<g>
			<rect x="191" y="159.1" fill="#8BC166" width="130.1" height="193.2"/>
		</g>
	</g>
	<g>
		<g>
			<polygon fill="#CBE19A" points="191,352.3 321,224.8 321,352.3 			"/>
		</g>
	</g>
	<g>
		<g>
			<polygon fill="#8BC166" points="126.2,151.5 126.2,359.9 191,352.3 191,159.1 			"/>
		</g>
	</g>
	<g>
		<g>
			<polygon fill="#CBE19A" points="275.2,159.1 191,248 191,201.2 234,159.1 			"/>
		</g>
	</g>
	<g>
		<g>
			<polygon fill="#CBE19A" points="190.5,238.9 126.2,305.6 126.2,333.6 190.5,265 			"/>
		</g>
	</g>
	<g>
		<g>
			<polygon fill="#53754A" points="321,159.1 321,352.3 385.8,359.9 385.8,151.5 			"/>
		</g>
	</g>
	<g>
		<g>
			<polygon fill="#8BC166" points="126.2,151.5 191,159.1 175.5,100 			"/>
		</g>
	</g>
	<g>
		<g>
			<polygon fill="#53754A" points="385.8,151.5 321,159.1 336.5,100 			"/>
		</g>
	</g>
	<g>
		<g>
			<polygon fill="#53754A" points="385.8,359.9 321,352.3 336.5,412 			"/>
		</g>
	</g>
	<g>
		<g>
			<polygon fill="#5F8F53" points="126.2,359.9 191,352.3 175.5,412 			"/>
		</g>
	</g>
	<g>
		<g>
			<polygon fill="#8BC166" points="191,159.1 321,159.1 336.5,100 175.5,100 			"/>
		</g>
	</g>
	<g>
		<g>
			<polygon fill="#53754A" points="175.5,412 336.5,412 321,352.3 191,352.3 			"/>
		</g>
	</g>
	<g>
		<g>
			<path fill="#414042" d="M191,167.6c-0.3,0-0.7,0-1-0.1l-64.8-7.6c-3.2-0.4-6-2.5-7.1-5.6c-1.1-3-0.4-6.4,1.9-8.8l49.3-51.5
				c2.1-2.2,5.3-3.1,8.3-2.4c3,0.8,5.4,3.1,6.1,6.1l15.5,59c0.7,2.7,0,5.6-1.8,7.7C195.8,166.5,193.4,167.6,191,167.6z M144.2,145
				l35.3,4.1l-8.4-32.2L144.2,145z"/>
		</g>
	</g>
	<g>
		<g>
			<path fill="#414042" d="M321,167.6c-2.5,0-4.8-1.1-6.5-2.9c-1.9-2.1-2.5-5-1.8-7.7l15.5-59c0.8-3,3.1-5.3,6.1-6.1
				c3-0.8,6.2,0.1,8.3,2.4l49.3,51.5c2.2,2.3,3,5.7,1.9,8.8c-1.1,3-3.8,5.2-7.1,5.6l-64.8,7.6C321.7,167.6,321.4,167.6,321,167.6z
				 M340.9,117l-8.4,32.2l35.3-4.1L340.9,117z"/>
		</g>
	</g>
	<g>
		<g>
			<path fill="#414042" d="M336.5,420.5c-0.7,0-1.4-0.1-2.1-0.3c-3-0.8-5.4-3.1-6.2-6.1l-15.5-59.7c-0.7-2.7,0-5.6,1.8-7.7
				c1.9-2.1,4.6-3.2,7.4-2.9l64.8,7.6c3.2,0.4,5.9,2.5,7,5.5c1.1,3,0.4,6.4-1.8,8.8l-49.3,52.1C341.1,419.5,338.8,420.5,336.5,420.5
				z M332.4,362.2l8.5,32.7l27-28.5L332.4,362.2z"/>
		</g>
	</g>
	<g>
		<g>
			<path fill="#414042" d="M175.5,420.5c-2.3,0-4.6-0.9-6.2-2.7l-49.3-52.1c-2.2-2.3-2.9-5.7-1.8-8.8c1.1-3,3.8-5.2,7-5.5l64.8-7.6
				c2.8-0.3,5.6,0.7,7.4,2.9c1.9,2.1,2.5,5,1.8,7.7l-15.5,59.7c-0.8,3-3.1,5.3-6.2,6.1C176.9,420.4,176.2,420.5,175.5,420.5z
				 M144.1,366.4l27,28.5l8.5-32.7L144.1,366.4z"/>
		</g>
	</g>
	<g>
		<g>
			<path fill="#414042" d="M126.2,368.4c-2.1,0-4.1-0.8-5.7-2.2c-1.8-1.6-2.9-3.9-2.9-6.4V151.5c0-2.4,1-4.7,2.9-6.4
				c1.8-1.6,4.3-2.4,6.7-2.1l64.8,7.6c4.3,0.5,7.6,4.1,7.6,8.5l0,193.2c0,4.3-3.2,8-7.6,8.5l-64.8,7.6
				C126.8,368.4,126.5,368.4,126.2,368.4z M134.7,161.1v189.2l47.7-5.6l0-178.1L134.7,161.1z"/>
		</g>
	</g>
	<g>
		<g>
			<path fill="#414042" d="M385.8,368.4c-0.3,0-0.7,0-1-0.1l-64.8-7.6c-4.3-0.5-7.6-4.1-7.6-8.5V159.1c0-4.3,3.2-8,7.6-8.5l64.8-7.6
				c2.4-0.3,4.9,0.5,6.7,2.1c1.8,1.6,2.9,3.9,2.9,6.4v208.4c0,2.4-1,4.7-2.9,6.4C390,367.6,387.9,368.4,385.8,368.4z M329.6,344.7
				l47.7,5.6V161.1l-47.7,5.6V344.7z"/>
		</g>
	</g>
	<g>
		<g>
			<path fill="#414042" d="M321,167.6H191c-3.9,0-7.3-2.6-8.3-6.4l-15.5-59c-0.7-2.6-0.1-5.3,1.5-7.4c1.6-2.1,4.1-3.3,6.8-3.3h161
				c2.7,0,5.2,1.2,6.8,3.3c1.6,2.1,2.2,4.8,1.5,7.4l-15.5,59C328.3,165,324.9,167.6,321,167.6z M197.6,150.5h116.8l11-42H186.6
				L197.6,150.5z"/>
		</g>
	</g>
	<g>
		<g>
			<path fill="#414042" d="M175.5,420.5c-2.6,0-5.1-1.2-6.8-3.3c-1.6-2.1-2.2-4.8-1.5-7.3l15.5-59.7c1-3.8,4.4-6.4,8.3-6.4H321
				c3.9,0,7.3,2.6,8.3,6.4l15.5,59.7c0.7,2.6,0.1,5.3-1.5,7.3c-1.6,2.1-4.1,3.3-6.8,3.3L175.5,420.5z M197.6,360.8l-11.1,42.6
				l138.9,0l-11.1-42.6H197.6z"/>
		</g>
	</g>
	<g>
		<g>
			<path fill="#414042" d="M321,360.8H191c-4.7,0-8.6-3.8-8.6-8.5V159.1c0-4.7,3.8-8.5,8.6-8.5H321c4.7,0,8.6,3.8,8.6,8.5v193.2
				C329.6,357,325.8,360.8,321,360.8z M199.5,343.8h112.9V167.6H199.5V343.8z"/>
		</g>
	</g>
</g>
</svg>
