<?xml version="1.0" encoding="utf-8"?>
<!-- Generator: Adobe Illustrator 18.0.0, SVG Export Plug-In . SVG Version: 6.00 Build 0)  -->
<!DOCTYPE svg PUBLIC "-//W3C//DTD SVG 1.1//EN" "http://www.w3.org/Graphics/SVG/1.1/DTD/svg11.dtd">
<svg version="1.1" id="Layer_1" xmlns="http://www.w3.org/2000/svg" xmlns:xlink="http://www.w3.org/1999/xlink" x="0px" y="0px"
	 viewBox="0 0 512 512" enable-background="new 0 0 512 512" xml:space="preserve">
<g>
	<g>
		<g>
			<polygon fill="#6AABCA" points="79.4,214.9 256,414.3 185.4,214.9 			"/>
		</g>
	</g>
	<g>
		<g>
			<polygon fill="#AFDBEF" points="109.6,252.8 185.4,219.4 84.7,219.4 			"/>
		</g>
	</g>
	<g>
		<g>
			<polygon fill="#188AB4" points="326.6,214.9 256,414.3 432.6,214.9 			"/>
		</g>
	</g>
	<g>
		<g>
			<polygon fill="#6AABCA" points="171.8,153.9 256.1,214.9 339.5,153.9 			"/>
		</g>
	</g>
	<g>
		<g>
			<polygon fill="#6AABCA" points="256.1,214.9 185.4,214.9 256,414.3 326.6,214.9 			"/>
		</g>
	</g>
	<g>
		<g>
			<polygon fill="#AFDBEF" points="326.6,214.9 215,307.9 185.4,214.9 			"/>
		</g>
	</g>
	<g>
		<g>
			<polygon fill="#AFDBEF" points="256.1,214.9 171.8,153.9 171.8,153.9 79.4,214.9 185.4,214.9 			"/>
		</g>
	</g>
	<g>
		<g>
			<polygon fill="#4AA046" points="157.7,100.6 157.5,100.8 171.8,153.9 			"/>
		</g>
	</g>
	<g>
		<g>
			<polygon fill="#4AA046" points="354.7,101.1 354.3,100.6 339.5,153.9 			"/>
		</g>
	</g>
	<g>
		<g>
			<polygon fill="#AFDBEF" points="171.8,153.9 157.5,100.8 79.4,214.9 171.8,153.9 			"/>
		</g>
	</g>
	<g>
		<g>
			<polygon fill="#188AB4" points="432.6,214.9 354.7,101.1 339.5,153.9 			"/>
		</g>
	</g>
	<g>
		<g>
			<polygon fill="#188AB4" points="256.1,214.9 326.6,214.9 432.6,214.9 339.5,153.9 			"/>
		</g>
	</g>
	<g>
		<g>
			<polygon fill="#AFDBEF" points="339.5,153.9 354.3,100.6 256,100.6 157.7,100.6 171.8,153.9 			"/>
		</g>
	</g>
	<g>
		<g>
			<g>
				<path fill="#414042" d="M339.5,162.4c-0.8,0-1.6-0.1-2.4-0.3c-4.5-1.3-7.2-6-5.9-10.5l15.3-53.2c1.3-4.5,6-7.2,10.6-5.8
					c4.5,1.3,7.2,6,5.9,10.5l-15.3,53.2C346.6,159.9,343.2,162.4,339.5,162.4z"/>
			</g>
		</g>
		<g>
			<g>
				<path fill="#414042" d="M262.4,419.9h-12.8L73,220.5l-0.7-10.4l78.3-114.2l7.1-3.7h196.6l7.1,3.7l78.3,114.2l-0.7,10.4
					L262.4,419.9z M90.2,214.2L256,401.4l165.8-187.2l-72-105.1H162.2L90.2,214.2z"/>
			</g>
		</g>
		<g>
			<g>
				<path fill="#414042" d="M432.6,223.4v-0.1V223.4H79.4l-4.7-15.6l92.4-61l4.7-1.4h167.7l4.7,1.4l93.1,61L432.6,223.4z
					 M107.8,206.3H404l-67.1-44H174.4L107.8,206.3z"/>
			</g>
		</g>
		<g>
			<g>
				<polygon fill="#414042" points="247.9,417.1 177.3,217.7 193.4,212 264.1,411.4 				"/>
			</g>
		</g>
		<g>
			<g>
				<polygon fill="#414042" points="264.1,417.1 247.9,411.4 318.6,212 334.7,217.7 				"/>
			</g>
		</g>
		<g>
			<g>
				<path fill="#414042" d="M256.1,223.4c-1.8,0-3.5-0.5-5-1.6l-84.3-61c-3-2.2-4.3-6-3.1-9.5c1.1-3.5,4.4-5.9,8.1-5.9h167.7
					c3.7,0,7,2.4,8.1,5.9c1.2,3.5-0.1,7.3-3.1,9.5l-83.4,61C259.7,222.8,257.9,223.4,256.1,223.4z M198.1,162.4l58,41.9l57.3-41.9
					H198.1z"/>
			</g>
		</g>
		<g>
			<g>
				<path fill="#414042" d="M339.5,162.4H171.8c-3.9,0-7.3-2.6-8.3-6.3l-14.1-53.2c-0.7-2.6-0.1-5.3,1.5-7.4
					c1.6-2.1,4.1-3.3,6.8-3.3h196.6c2.7,0,5.2,1.2,6.8,3.4s2.1,4.9,1.4,7.4l-14.8,53.2C346.7,159.8,343.3,162.4,339.5,162.4z
					 M178.4,145.3H333l10.1-36.2H168.8L178.4,145.3z"/>
			</g>
		</g>
	</g>
</g>
</svg>
