<?xml version="1.0" encoding="utf-8"?>
<!-- Generator: Adobe Illustrator 18.0.0, SVG Export Plug-In . SVG Version: 6.00 Build 0)  -->
<!DOCTYPE svg PUBLIC "-//W3C//DTD SVG 1.1//EN" "http://www.w3.org/Graphics/SVG/1.1/DTD/svg11.dtd">
<svg version="1.1" id="Layer_1" xmlns="http://www.w3.org/2000/svg" xmlns:xlink="http://www.w3.org/1999/xlink" x="0px" y="0px"
	 viewBox="0 0 512 512" enable-background="new 0 0 512 512" xml:space="preserve">
<g>
	<g>
		<g>
			<path fill="#D04527" d="M412.3,256c0,21.1-4.2,41.2-11.9,59.5c-15.8,38-46.4,68.5-84.6,84.2c-18.4,7.6-38.6,11.8-59.8,11.8
				c-21.2,0-41.4-4.2-59.8-11.8c-38.2-15.8-68.8-46.2-84.6-84.2c-4.4-10.5-7.7-21.6-9.6-33.1c-1.5-8.6-2.3-17.4-2.3-26.4
				c0-21.1,4.2-41.2,11.9-59.6c15.8-38,46.4-68.4,84.6-84.2c18.4-7.6,38.6-11.8,59.8-11.8c21.2,0,41.4,4.2,59.8,11.8
				c38.2,15.8,68.8,46.2,84.6,84.2C408.1,214.8,412.3,234.9,412.3,256z"/>
		</g>
	</g>
	<g>
		<g>
			<path fill="#DB802D" d="M167.3,219.4v73.1l-55.8,23c-4.4-10.5-7.7-21.6-9.6-33.1c-1.5-8.6-2.3-17.4-2.3-26.4
				c0-21.1,4.2-41.2,11.9-59.6L167.3,219.4z"/>
		</g>
	</g>
	<g>
		<g>
			<path fill="#EDB940" d="M167.3,219.4v73.1l-55.8,23c-4.4-10.5-7.7-21.6-9.6-33.1L167.3,219.4z"/>
		</g>
	</g>
	<g>
		<g>
			<polygon fill="#DB802D" points="219.3,344.3 167.3,292.6 167.3,219.4 219.3,167.7 292.7,167.7 344.7,219.4 344.7,292.6 
				292.7,344.3 			"/>
		</g>
	</g>
	<g>
		<g>
			<polygon fill="#EDB940" points="225.5,344.3 344.7,227.3 344.7,292.6 292.7,344.3 			"/>
		</g>
	</g>
	<g>
		<g>
			<polygon fill="#EDB940" points="292.7,167.7 167.3,292.6 190.7,315.9 316.2,191 			"/>
		</g>
	</g>
	<g>
		<g>
			<path fill="#DB802D" d="M400.5,196.5l-55.8,23l-28.5-28.4l-23.4-23.3l23.1-55.5C354.1,128,384.6,158.4,400.5,196.5z"/>
		</g>
	</g>
	<g>
		<g>
			<path fill="#EDB940" d="M315.8,112.3l-23.1,55.5h-73.5l-23.1-55.5c18.4-7.6,38.6-11.8,59.8-11.8
				C277.2,100.4,297.4,104.6,315.8,112.3z"/>
		</g>
	</g>
	<g>
		<g>
			<path fill="#EDB940" d="M219.3,167.7l-52,51.7l-55.8-23c15.8-38,46.4-68.4,84.6-84.2L219.3,167.7z"/>
		</g>
	</g>
	<g>
		<g>
			<path fill="#DB802D" d="M219.3,344.3l-23.1,55.5c-38.2-15.8-68.8-46.2-84.6-84.2l55.8-23l23.4,23.3L219.3,344.3z"/>
		</g>
	</g>
	<g>
		<g>
			<path fill="#D04527" d="M315.8,399.7c-18.4,7.6-38.6,11.8-59.8,11.8c-21.2,0-41.4-4.2-59.8-11.8l23.1-55.5h73.5L315.8,399.7z"/>
		</g>
	</g>
	<g>
		<g>
			<path fill="#D04527" d="M400.5,315.5c-15.8,38-46.4,68.5-84.6,84.2l-23.1-55.5l52-51.7L400.5,315.5z"/>
		</g>
	</g>
	<g>
		<g>
			<path fill="#D04527" d="M412.3,256c0,21.1-4.2,41.2-11.9,59.5l-55.8-23v-73.1l55.8-23C408.1,214.8,412.3,234.9,412.3,256z"/>
		</g>
	</g>
	<g>
		<g>
			<path fill="#414042" d="M256,420.1c-21.8,0-43.1-4.2-63.1-12.4c-40.1-16.6-72.7-48.9-89.3-88.8c-4.7-11.2-8.1-23-10.2-34.9
				c-1.6-9.1-2.4-18.5-2.4-27.9c0-21.8,4.2-42.9,12.5-62.8c16.6-39.9,49.1-72.3,89.3-88.8c20-8.3,41.3-12.4,63.1-12.4
				c21.9,0,43.1,4.2,63.1,12.5c40.1,16.5,72.6,48.9,89.2,88.8c8.3,19.9,12.5,41.1,12.5,62.8c0,21.7-4.2,42.9-12.5,62.8
				c-16.6,39.9-49.2,72.3-89.3,88.8C299.1,415.9,277.9,420.1,256,420.1z M256,109c-19.6,0-38.6,3.8-56.6,11.1
				c-36,14.8-65.1,43.9-80,79.6c-7.4,17.9-11.2,36.8-11.2,56.3c0,8.4,0.7,16.8,2.1,25c1.8,10.7,4.9,21.3,9.1,31.3
				c14.9,35.8,44,64.8,80,79.6c18,7.4,37,11.1,56.5,11.1c19.6,0,38.6-3.8,56.6-11.2c35.9-14.8,65.1-43.8,80-79.6
				c7.4-17.9,11.2-36.8,11.2-56.3c0-19.5-3.8-38.4-11.2-56.3c-14.9-35.8-44.1-64.8-80-79.6C294.6,112.7,275.6,109,256,109z"/>
		</g>
	</g>
	<g>
		<g>
			<path fill="#414042" d="M292.7,352.8h-73.5c-2.3,0-4.4-0.9-6.1-2.5l-52-51.7c-1.6-1.6-2.5-3.8-2.5-6v-73.1c0-2.3,0.9-4.4,2.5-6
				l52-51.7c1.6-1.6,3.8-2.5,6.1-2.5h73.5c2.3,0,4.4,0.9,6.1,2.5l52,51.7c1.6,1.6,2.5,3.8,2.5,6v73.1c0,2.3-0.9,4.4-2.5,6l-52,51.7
				C297.2,351.9,295,352.8,292.7,352.8z M222.8,335.8h66.4l46.9-46.7V223l-46.9-46.7h-66.4L175.9,223V289L222.8,335.8z"/>
		</g>
	</g>
	<g>
		<g>
			<path fill="#414042" d="M344.7,227.9c-2.2,0-4.4-0.9-6.1-2.5l-52-51.7c-2.4-2.4-3.2-6.1-1.9-9.3l23.1-55.5
				c1.8-4.3,6.8-6.4,11.2-4.6c40.1,16.5,72.6,48.9,89.3,88.8c0.9,2.1,0.9,4.4,0,6.5c-0.9,2.1-2.5,3.7-4.6,4.6l-55.8,23
				C346.9,227.7,345.8,227.9,344.7,227.9z M302.8,165.7l43.9,43.7l42.3-17.4c-14.5-29.6-38.9-54-68.7-68.3L302.8,165.7z"/>
		</g>
	</g>
	<g>
		<g>
			<path fill="#414042" d="M292.7,176.2h-73.5c-3.5,0-6.6-2.1-7.9-5.3l-23.1-55.5c-0.9-2.1-0.9-4.4,0-6.5c0.9-2.1,2.5-3.7,4.6-4.6
				c20-8.3,41.3-12.4,63.1-12.4c21.9,0,43.1,4.2,63.1,12.5c4.4,1.8,6.4,6.8,4.6,11.1L300.7,171C299.3,174.2,296.2,176.2,292.7,176.2
				z M225,159.2h62l17.5-42.1c-15.6-5.4-31.9-8.1-48.6-8.1c-16.7,0-33,2.7-48.6,8.1L225,159.2z"/>
		</g>
	</g>
	<g>
		<g>
			<path fill="#414042" d="M167.3,227.9c-1.1,0-2.2-0.2-3.3-0.6l-55.8-23c-4.4-1.8-6.4-6.8-4.6-11.1c16.6-39.9,49.1-72.3,89.3-88.8
				c2.1-0.9,4.5-0.9,6.6,0c2.1,0.9,3.8,2.5,4.6,4.6l23.1,55.5c1.3,3.2,0.6,6.8-1.9,9.3l-52,51.7
				C171.7,227.1,169.5,227.9,167.3,227.9z M123,191.9l42.3,17.4l43.9-43.7l-17.5-42.1C161.9,138,137.4,162.3,123,191.9z"/>
		</g>
	</g>
	<g>
		<g>
			<path fill="#414042" d="M111.5,324.1c-3.4,0-6.5-2-7.9-5.2c-4.7-11.2-8.1-23-10.2-35c-1.6-9.1-2.4-18.5-2.4-27.9
				c0-21.8,4.2-42.9,12.5-62.8c1.8-4.3,6.8-6.4,11.2-4.6l55.8,23c3.2,1.3,5.3,4.4,5.3,7.9v73.1c0,3.4-2.1,6.6-5.3,7.9l-55.8,23
				C113.8,323.9,112.6,324.1,111.5,324.1z M116.4,207.7c-5.4,15.5-8.2,31.7-8.2,48.3c0,8.4,0.7,16.8,2.1,25c1.4,7.9,3.4,15.8,6,23.3
				l42.4-17.5v-61.8L116.4,207.7z"/>
		</g>
	</g>
	<g>
		<g>
			<path fill="#414042" d="M196.2,408.3c-1.1,0-2.2-0.2-3.3-0.7c-40.1-16.6-72.6-48.9-89.3-88.8c-1.8-4.3,0.3-9.3,4.6-11.1l55.8-23
				c3.2-1.3,6.9-0.6,9.3,1.8l52,51.7c2.4,2.4,3.2,6.1,1.9,9.3L204.1,403c-0.9,2.1-2.5,3.7-4.6,4.6
				C198.4,408.1,197.3,408.3,196.2,408.3z M123,320.1c14.4,29.6,38.9,53.9,68.7,68.3l17.5-42.1l-43.9-43.7L123,320.1z"/>
		</g>
	</g>
	<g>
		<g>
			<path fill="#414042" d="M256,420.1c-21.8,0-43.1-4.2-63.1-12.4c-2.1-0.9-3.8-2.5-4.6-4.6c-0.9-2.1-0.9-4.4,0-6.5l23.1-55.5
				c1.3-3.2,4.4-5.3,7.9-5.3h73.5c3.5,0,6.6,2.1,7.9,5.3l23.1,55.5c1.8,4.3-0.3,9.3-4.6,11.1C299.1,415.9,277.9,420.1,256,420.1z
				 M207.4,394.9c15.6,5.4,31.9,8.1,48.6,8.1c16.7,0,33-2.7,48.6-8.1L287,352.8h-62L207.4,394.9z"/>
		</g>
	</g>
	<g>
		<g>
			<path fill="#414042" d="M315.9,408.3c-3.4,0-6.5-2-7.9-5.3l-23.1-55.5c-1.3-3.2-0.6-6.8,1.9-9.3l52-51.7c2.4-2.4,6.1-3.2,9.3-1.8
				l55.8,23c2.1,0.9,3.8,2.5,4.6,4.6c0.9,2.1,0.9,4.4,0,6.5c-16.6,39.9-49.2,72.3-89.3,88.8C318.1,408.1,316.9,408.3,315.9,408.3z
				 M302.8,346.3l17.5,42.1c29.8-14.4,54.2-38.7,68.7-68.3l-42.3-17.4L302.8,346.3z"/>
		</g>
	</g>
	<g>
		<g>
			<path fill="#414042" d="M400.5,324.1c-1.1,0-2.2-0.2-3.3-0.6l-55.8-23c-3.2-1.3-5.3-4.4-5.3-7.9v-73.1c0-3.4,2.1-6.6,5.3-7.9
				l55.8-23c4.4-1.8,9.4,0.3,11.2,4.6c8.3,19.9,12.5,41.1,12.5,62.8c0,21.7-4.2,42.9-12.5,62.8C407,322.1,403.8,324.1,400.5,324.1z
				 M353.3,286.9l42.3,17.4c5.4-15.5,8.2-31.7,8.2-48.3c0-16.6-2.7-32.8-8.2-48.3l-42.3,17.4V286.9z"/>
		</g>
	</g>
</g>
</svg>
