<?xml version="1.0" encoding="utf-8"?>
<!-- Generator: Adobe Illustrator 18.0.0, SVG Export Plug-In . SVG Version: 6.00 Build 0)  -->
<!DOCTYPE svg PUBLIC "-//W3C//DTD SVG 1.1//EN" "http://www.w3.org/Graphics/SVG/1.1/DTD/svg11.dtd">
<svg version="1.1" id="Layer_1" xmlns="http://www.w3.org/2000/svg" xmlns:xlink="http://www.w3.org/1999/xlink" x="0px" y="0px"
	 viewBox="0 0 512 512" enable-background="new 0 0 512 512" xml:space="preserve">
<g>
	<g>
		<g>
			<g>
				<path fill="#D04527" d="M297.2,370.8l-108.3,27.6c-9.4,2.4-18.5-4.7-18.5-14.3V274.2c0-6.8,4.6-12.7,11.2-14.3l108.3-27.6
					c9.4-2.4,18.5,4.7,18.5,14.3v109.8C308.3,363.2,303.7,369.1,297.2,370.8z"/>
			</g>
		</g>
		<g>
			<g>
				<path fill="#D04527" d="M89.8,363.5l62.1,30.5c8.5,4.2,18.4-2,18.4-11.5V270.7c0-4.9-2.8-9.3-7.2-11.5l-62.1-30.5
					c-8.5-4.2-18.4,2-18.4,11.5V352C82.6,356.9,85.4,361.3,89.8,363.5z"/>
			</g>
		</g>
		<g>
			<g>
				<path fill="#F15A22" d="M308.3,246.6v4.8L170.4,286v-11.8c0-6.8,4.6-12.7,11.1-14.4l108.3-27.6
					C299.2,229.9,308.3,237,308.3,246.6z"/>
			</g>
		</g>
		<g>
			<g>
				<path fill="#F15A22" d="M170.4,270.7V286l-87.7-42.1v-3.7c0-9.5,9.9-15.7,18.4-11.5l62.1,30.5
					C167.6,261.4,170.4,265.8,170.4,270.7z"/>
			</g>
		</g>
		<g>
			<g>
				<path fill="#F15A22" d="M99.9,215.2l110.5-28c4.9-1.2,10.1-0.8,14.7,1.4l66.5,31.2c5.6,2.6,4.8,10.9-1.2,12.4L178,260.8
					c-4.9,1.2-10.1,0.7-14.6-1.5l-64.7-31.8C93.2,224.8,94,216.7,99.9,215.2z"/>
			</g>
		</g>
		<g>
			<g>
				<path fill="#F15A22" d="M308.3,246.6v4.8L170.4,286v-11.8c0-6.8,4.6-12.7,11.1-14.4l108.3-27.6
					C299.2,229.9,308.3,237,308.3,246.6z"/>
			</g>
		</g>
		<g>
			<g>
				<path fill="#F15A22" d="M170.4,270.7V286l-87.7-42.1v-3.7c0-9.5,9.9-15.7,18.4-11.5l62.1,30.5
					C167.6,261.4,170.4,265.8,170.4,270.7z"/>
			</g>
		</g>
		<g>
			<g>
				<path fill="#414042" d="M157.6,404.3L157.6,404.3c-3.3,0-6.5-0.8-9.6-2.2l-62.1-30.5c-7.5-3.7-12.2-11.2-12.2-19.6V240.2
					c0-12,9.8-21.8,21.8-21.8c3.3,0,6.6,0.8,9.6,2.2l62.2,30.6c7.4,3.7,12,11.1,12,19.3v111.9c0,6-2.3,11.5-6.6,15.6
					C168.6,402.1,163.2,404.3,157.6,404.3z M95.5,236.3c-1.9,0-3.9,1.5-3.9,3.9v111.7c0,1.5,0.9,2.9,2.2,3.6l62.1,30.5
					c1.5,0.8,3.3,0.4,4.4-0.7c0.8-0.7,1.2-1.7,1.2-2.8V270.6c0-1.4-0.8-2.7-2.1-3.3l-62.2-30.6C96.6,236.4,96,236.3,95.5,236.3z"/>
			</g>
		</g>
		<g>
			<g>
				<path fill="#414042" d="M185.2,407.8c-13.1,0-23.7-10.7-23.7-23.8V274.3c0-10.9,7.4-20.4,17.9-23.1l108.4-27.6
					c1.9-0.5,3.9-0.7,5.9-0.7c13,0,23.6,10.6,23.6,23.6v110c0,10.8-7.3,20.3-17.8,22.9L191.1,407
					C189.1,407.5,187.1,407.8,185.2,407.8z M293.6,240.7c-0.5,0-1,0.1-1.5,0.2l-108.4,27.6c-2.6,0.7-4.5,3-4.5,5.8V384
					c0,3.7,3.1,5.9,5.9,5.9c0.5,0,1-0.1,1.5-0.2L295,362.1c2.6-0.7,4.4-3,4.4-5.7v-110C299.4,242.9,296.4,240.7,293.6,240.7z"/>
			</g>
		</g>
		<g>
			<g>
				<path fill="#E6E7E8" d="M254.9,313.1c0,7.2-5.9,14.7-13.1,16.6c-7.2,1.9-13.1-2.4-13.1-9.7s5.9-14.7,13.1-16.6
					C249,301.5,254.9,305.9,254.9,313.1z"/>
			</g>
		</g>
		<g>
			<g>
				<path fill="#E6E7E8" d="M226.5,292.9c0,7.2-5.9,14.7-13.1,16.6c-7.2,1.9-13.1-2.4-13.1-9.7s5.9-14.7,13.1-16.6
					C220.7,281.3,226.5,285.7,226.5,292.9z"/>
			</g>
		</g>
		<g>
			<g>
				<path fill="#E6E7E8" d="M283.2,278.1c0,7.2-5.9,14.7-13.1,16.6c-7.2,1.9-13.1-2.4-13.1-9.7c0-7.2,5.9-14.7,13.1-16.6
					C277.3,266.5,283.2,270.8,283.2,278.1z"/>
			</g>
		</g>
		<g>
			<g>
				<path fill="#E6E7E8" d="M226.5,348.2c0,7.2-5.9,14.7-13.1,16.6c-7.2,1.9-13.1-2.4-13.1-9.7c0-7.2,5.9-14.7,13.1-16.6
					C220.7,336.6,226.5,340.9,226.5,348.2z"/>
			</g>
		</g>
		<g>
			<g>
				<ellipse fill="#E6E7E8" cx="140.3" cy="291.4" rx="11.1" ry="16.8"/>
			</g>
		</g>
		<g>
			<g>
				<ellipse fill="#E6E7E8" cx="110.2" cy="335.7" rx="10.4" ry="15.8"/>
			</g>
		</g>
		<g>
			<g>
				<path fill="#E6E7E8" d="M283.2,333.4c0,7.2-5.9,14.7-13.1,16.6c-7.2,1.9-13.1-2.4-13.1-9.7c0-7.2,5.9-14.7,13.1-16.6
					C277.3,321.8,283.2,326.1,283.2,333.4z"/>
			</g>
		</g>
		<g>
			<g>
				<path fill="#E6E7E8" d="M169.6,216.5c3.3,2.5,1,5.9-4.9,7.5c-6,1.7-13.5,1-16.7-1.4c-3.3-2.5-1-5.9,4.9-7.5
					C158.9,213.3,166.3,214,169.6,216.5z"/>
			</g>
		</g>
		<g>
			<g>
				<path fill="#E6E7E8" d="M216.4,203.3c3.3,2.5,1,5.9-4.9,7.5s-13.5,1-16.7-1.4c-3.3-2.5-1-5.9,4.9-7.5
					C205.7,200.1,213.1,200.8,216.4,203.3z"/>
			</g>
		</g>
		<g>
			<g>
				<path fill="#E6E7E8" d="M194.4,235.4c3.3,2.5,1,5.9-4.9,7.5c-6,1.7-13.5,1-16.7-1.4c-3.3-2.5-1-5.9,4.9-7.5
					S191.1,232.9,194.4,235.4z"/>
			</g>
		</g>
		<g>
			<g>
				<path fill="#E6E7E8" d="M241.2,222.2c3.3,2.5,1,5.9-4.9,7.5c-6,1.7-13.5,1-16.7-1.4c-3.3-2.5-1-5.9,4.9-7.5
					C230.5,219.1,237.9,219.7,241.2,222.2z"/>
			</g>
		</g>
		<g>
			<g>
				<path fill="#414042" d="M172.7,270.4c-4.6,0-9.2-1.1-13.3-3.1l-64.7-31.8c-5.9-2.9-9.3-9-8.6-15.5c0.7-6.5,5.2-11.8,11.6-13.4
					l110.3-28c6.9-1.8,14.4-1,20.8,2l66.5,31.2c6,2.8,9.5,8.9,8.9,15.5c-0.6,6.6-5.2,11.9-11.6,13.6l-112.5,28.7
					C177.7,270.1,175.2,270.4,172.7,270.4z M108.3,222.3l59,29c2.6,1.3,5.6,1.6,8.4,0.9L282,225.1l-60.6-28.4
					c-2.7-1.3-5.9-1.6-8.9-0.8L108.3,222.3z"/>
			</g>
		</g>
		<g>
			<g>
				<path fill="#414042" d="M172.7,270.4c-4.6,0-9.2-1.1-13.3-3.1l-64.6-31.8c-5.9-2.9-9.3-9-8.6-15.6c0.7-6.5,5.2-11.8,11.6-13.4
					l110-27.9c7.1-1.8,14.8-1.1,21.4,2l66.2,31c6,2.8,9.5,8.9,8.9,15.5c-0.6,6.6-5.2,11.9-11.6,13.6l-112.5,28.7
					C177.7,270.1,175.2,270.4,172.7,270.4z M108.3,222.3l59,29c2.6,1.3,5.6,1.6,8.4,0.9L282,225.1l-60.3-28.3
					c-2.9-1.4-6.3-1.7-9.4-0.9L108.3,222.3z"/>
			</g>
		</g>
		<g>
			<g>
				<path fill="#414042" d="M175.7,409.1C175.7,409.1,175.7,409.1,175.7,409.1c-8.7,0-17.5-2-25.3-5.9l-64.5-31.7
					c-7.5-3.7-12.2-11.2-12.2-19.6V236.2c0-13.8,9.4-25.9,22.8-29.3l111.7-28.4c6.8-1.7,14.3-1,20.7,2l65.7,30.8
					c13.8,6.5,22.6,20.4,22.6,35.6v109.6c0,10.8-7.3,20.3-17.8,22.9l-109.5,27.9C185.2,408.5,180.5,409.1,175.7,409.1z M215.8,195.4
					c-1.1,0-2.2,0.1-3.2,0.4l-111.7,28.4c-5.5,1.4-9.3,6.3-9.3,12v115.8c0,1.5,0.9,2.9,2.2,3.6l64.5,31.7c5.4,2.6,11.4,4,17.4,4h0
					c3.3,0,6.6-0.4,9.7-1.2L295,362.1c2.6-0.7,4.4-3,4.4-5.7V246.9c0-8.3-4.9-15.9-12.4-19.5l-65.7-30.8
					C219.6,195.8,217.7,195.4,215.8,195.4z"/>
			</g>
		</g>
	</g>
	<g>
		<g>
			<g>
				<path fill="#D04527" d="M214.8,407.9l108.3,27.6c9.4,2.4,18.5-4.7,18.5-14.3V311.4c0-6.8-4.6-12.7-11.2-14.3l-108.3-27.6
					c-9.4-2.4-18.5,4.7-18.5,14.3v109.8C203.7,400.3,208.3,406.2,214.8,407.9z"/>
			</g>
		</g>
		<g>
			<g>
				<path fill="#D04527" d="M422.2,400.6l-62.1,30.5c-8.5,4.2-18.4-2-18.4-11.5V307.8c0-4.9,2.8-9.3,7.2-11.5l62.1-30.5
					c8.5-4.2,18.4,2,18.4,11.5v111.8C429.4,394,426.6,398.5,422.2,400.6z"/>
			</g>
		</g>
		<g>
			<g>
				<path fill="#F15A22" d="M203.7,283.8v4.8l137.9,34.6v-11.8c0-6.8-4.6-12.7-11.1-14.4l-108.3-27.6
					C212.8,267.1,203.7,274.1,203.7,283.8z"/>
			</g>
		</g>
		<g>
			<g>
				<path fill="#F15A22" d="M341.6,307.8v15.3l87.7-42.1v-3.7c0-9.5-9.9-15.7-18.4-11.5l-62.1,30.5
					C344.4,298.5,341.6,303,341.6,307.8z"/>
			</g>
		</g>
		<g>
			<g>
				<path fill="#F15A22" d="M412.1,252.4l-110.5-28c-4.9-1.2-10.1-0.8-14.7,1.4l-66.5,31.2c-5.6,2.6-4.8,10.9,1.2,12.4L334,297.9
					c4.9,1.2,10.1,0.7,14.6-1.5l64.7-31.8C418.8,261.9,418,253.9,412.1,252.4z"/>
			</g>
		</g>
		<g>
			<g>
				<path fill="#F15A22" d="M203.7,283.8v4.8l137.9,34.6v-11.8c0-6.8-4.6-12.7-11.1-14.4l-108.3-27.6
					C212.8,267.1,203.7,274.1,203.7,283.8z"/>
			</g>
		</g>
		<g>
			<g>
				<path fill="#F15A22" d="M341.6,307.8v15.3l87.7-42.1v-3.7c0-9.5-9.9-15.7-18.4-11.5l-62.1,30.5
					C344.4,298.5,341.6,303,341.6,307.8z"/>
			</g>
		</g>
		<g>
			<g>
				<path fill="#414042" d="M354.4,441.4c-12,0-21.7-9.7-21.7-21.7V307.7c0-8.3,4.6-15.7,12-19.3l62.2-30.6c3-1.5,6.3-2.2,9.6-2.2
					c12,0,21.8,9.8,21.8,21.8v111.7c0,8.4-4.7,15.9-12.2,19.6L364,439.2C361,440.7,357.7,441.4,354.4,441.4z M416.5,273.4
					c-0.6,0-1.2,0.1-1.7,0.4l-62.2,30.6c-1.3,0.6-2.1,1.9-2.1,3.3v111.9c0,2.4,2,3.9,3.9,3.9c0.6,0,1.1-0.1,1.7-0.4l62.1-30.5
					c1.4-0.7,2.2-2.1,2.2-3.6V277.3C420.4,274.9,418.4,273.4,416.5,273.4z"/>
			</g>
		</g>
		<g>
			<g>
				<path fill="#414042" d="M326.8,444.9L326.8,444.9c-2,0-4-0.2-5.9-0.7l-108.3-27.6c-10.5-2.7-17.8-12.1-17.8-22.9v-110
					c0-13,10.6-23.6,23.6-23.6c2,0,3.9,0.2,5.9,0.7l108.4,27.6c10.6,2.7,17.9,12.2,17.9,23.1v109.7c0,6.4-2.5,12.4-7.1,16.9
					C339,442.5,333.1,444.9,326.8,444.9z M218.4,277.9c-2.8,0-5.7,2.2-5.7,5.8v110c0,2.7,1.8,5,4.4,5.6l108.3,27.6
					c0.5,0.1,1,0.2,1.5,0.2l0,0c1.5,0,3-0.6,4.1-1.7c0.8-0.8,1.8-2.2,1.8-4.2V311.4c0-2.7-1.8-5.1-4.5-5.8L219.8,278
					C219.3,277.9,218.8,277.9,218.4,277.9z"/>
			</g>
		</g>
		<g>
			<g>
				<path fill="#E6E7E8" d="M257.1,350.3c0,7.2,5.9,14.7,13.1,16.6c7.2,1.9,13.1-2.4,13.1-9.7s-5.9-14.7-13.1-16.6
					C263,338.7,257.1,343,257.1,350.3z"/>
			</g>
		</g>
		<g>
			<g>
				<path fill="#E6E7E8" d="M285.5,330c0,7.2,5.9,14.7,13.1,16.6c7.2,1.9,13.1-2.4,13.1-9.7c0-7.2-5.9-14.7-13.1-16.6
					C291.3,318.5,285.5,322.8,285.5,330z"/>
			</g>
		</g>
		<g>
			<g>
				<path fill="#E6E7E8" d="M228.8,315.2c0,7.2,5.9,14.7,13.1,16.6c7.2,1.9,13.1-2.4,13.1-9.7c0-7.2-5.9-14.7-13.1-16.6
					C234.7,303.6,228.8,308,228.8,315.2z"/>
			</g>
		</g>
		<g>
			<g>
				<path fill="#E6E7E8" d="M285.5,385.3c0,7.2,5.9,14.7,13.1,16.6c7.2,1.9,13.1-2.4,13.1-9.7c0-7.2-5.9-14.7-13.1-16.6
					C291.3,373.7,285.5,378.1,285.5,385.3z"/>
			</g>
		</g>
		<g>
			<g>
				<ellipse fill="#E6E7E8" cx="386.4" cy="350.2" rx="8.2" ry="12.4"/>
			</g>
		</g>
		<g>
			<g>
				<ellipse fill="#E6E7E8" cx="368.8" cy="324.1" rx="8.2" ry="12.4"/>
			</g>
		</g>
		<g>
			<g>
				<ellipse fill="#E6E7E8" cx="404" cy="376.3" rx="8.2" ry="12.4"/>
			</g>
		</g>
		<g>
			<g>
				<path fill="#E6E7E8" d="M228.8,370.5c0,7.2,5.9,14.7,13.1,16.6c7.2,1.9,13.1-2.4,13.1-9.7c0-7.2-5.9-14.7-13.1-16.6
					C234.7,358.9,228.8,363.2,228.8,370.5z"/>
			</g>
		</g>
		<g>
			<g>
				<path fill="#E6E7E8" d="M342.4,253.6c-3.3,2.5-1,5.9,4.9,7.5c6,1.7,13.5,1,16.7-1.4c3.3-2.5,1-5.9-4.9-7.5
					C353.1,250.5,345.7,251.1,342.4,253.6z"/>
			</g>
		</g>
		<g>
			<g>
				<path fill="#E6E7E8" d="M295.6,240.4c-3.3,2.5-1,5.9,4.9,7.5c6,1.7,13.5,1,16.7-1.4c3.3-2.5,1-5.9-4.9-7.5
					S298.9,237.9,295.6,240.4z"/>
			</g>
		</g>
		<g>
			<g>
				<path fill="#E6E7E8" d="M317.6,272.5c-3.3,2.5-1,5.9,4.9,7.5c6,1.7,13.5,1,16.7-1.4c3.3-2.5,1-5.9-4.9-7.5
					C328.3,269.4,320.9,270,317.6,272.5z"/>
			</g>
		</g>
		<g>
			<g>
				<path fill="#E6E7E8" d="M270.8,259.3c-3.3,2.5-1,5.9,4.9,7.5c6,1.7,13.5,1,16.7-1.4s1-5.9-4.9-7.5
					C281.5,256.2,274.1,256.8,270.8,259.3z"/>
			</g>
		</g>
		<g>
			<g>
				<path fill="#414042" d="M339.3,307.5C339.3,307.5,339.3,307.5,339.3,307.5c-2.5,0-5-0.3-7.4-0.9l-112.5-28.7
					c-6.4-1.6-11-7-11.6-13.6s2.9-12.7,8.9-15.5l66.5-31.2c6.4-3,13.9-3.7,20.8-2l110.3,28c6.4,1.6,10.9,6.9,11.6,13.4
					c0.7,6.5-2.7,12.6-8.6,15.5l-64.7,31.8C348.4,306.5,343.9,307.5,339.3,307.5z M230,262.2l106.3,27.1c2.8,0.7,5.8,0.4,8.4-0.9
					l59-29L299.5,233c-2.9-0.7-6.1-0.4-8.9,0.8L230,262.2z"/>
			</g>
		</g>
		<g>
			<g>
				<path fill="#414042" d="M339.3,307.5L339.3,307.5c-2.5,0-5-0.3-7.4-0.9l-112.5-28.7c-6.4-1.6-11-7-11.6-13.6
					c-0.6-6.6,2.9-12.7,8.9-15.5l66.2-31c6.6-3.1,14.3-3.8,21.4-2l110,27.9c6.4,1.6,10.9,6.9,11.6,13.4c0.7,6.5-2.7,12.7-8.6,15.6
					l-64.6,31.8C348.4,306.5,343.9,307.5,339.3,307.5z M230,262.2l106.3,27.1c2.8,0.7,5.8,0.4,8.4-0.9l59-29L299.8,233
					c-3.1-0.8-6.5-0.5-9.4,0.9L230,262.2z"/>
			</g>
		</g>
		<g>
			<g>
				<path fill="#414042" d="M336.3,446.2c-4.8,0-9.5-0.6-14.1-1.8l-109.6-27.9c-10.5-2.7-17.8-12.1-17.8-22.9V284.1
					c0-15.2,8.9-29.2,22.6-35.6l65.7-30.8c6.4-3,13.8-3.7,20.7-2L415.5,244c13.4,3.4,22.8,15.4,22.8,29.3v115.8
					c0,8.4-4.7,15.9-12.2,19.6l-64.5,31.7C353.7,444.2,345,446.2,336.3,446.2z M296.2,232.6c-1.9,0-3.8,0.4-5.5,1.2L225,264.6
					c-7.5,3.5-12.4,11.2-12.4,19.5v109.6c0,2.7,1.8,5,4.4,5.6l109.6,27.9c9,2.3,18.8,1.3,27.1-2.8l64.5-31.7
					c1.4-0.7,2.2-2.1,2.2-3.6V273.3c0-5.7-3.8-10.6-9.3-12L299.4,233C298.4,232.7,297.3,232.6,296.2,232.6z"/>
			</g>
		</g>
	</g>
	<g>
		<g>
			<g>
				<path fill="#D04527" d="M376.5,259l-108.3,27.6c-9.4,2.4-18.5-4.7-18.5-14.3V162.4c0-6.8,4.6-12.7,11.2-14.3l108.3-27.6
					c9.4-2.4,18.5,4.7,18.5,14.3v109.8C387.6,251.4,383,257.3,376.5,259z"/>
			</g>
		</g>
		<g>
			<g>
				<path fill="#D04527" d="M169.1,251.6l62.1,30.5c8.5,4.2,18.4-2,18.4-11.5V158.9c0-4.9-2.8-9.3-7.2-11.5l-62.1-30.5
					c-8.5-4.2-18.4,2-18.4,11.5v111.8C161.9,245,164.7,249.5,169.1,251.6z"/>
			</g>
		</g>
		<g>
			<g>
				<path fill="#F15A22" d="M387.6,134.8v4.8l-137.9,34.6v-11.8c0-6.8,4.6-12.7,11.1-14.4l108.3-27.6
					C378.5,118.1,387.6,125.2,387.6,134.8z"/>
			</g>
		</g>
		<g>
			<g>
				<path fill="#F15A22" d="M249.7,158.9v15.3L162,132v-3.7c0-9.5,9.9-15.7,18.4-11.5l62.1,30.5C246.9,149.5,249.7,154,249.7,158.9z
					"/>
			</g>
		</g>
		<g>
			<g>
				<path fill="#F15A22" d="M179.3,103.4l110.5-28c4.9-1.2,10.1-0.8,14.7,1.4l66.5,31.2c5.6,2.6,4.8,10.9-1.2,12.4L257.3,149
					c-4.9,1.2-10.1,0.7-14.6-1.5L178,115.7C172.5,113,173.3,104.9,179.3,103.4z"/>
			</g>
		</g>
		<g>
			<g>
				<path fill="#F15A22" d="M387.6,134.8v4.8l-137.9,34.6v-11.8c0-6.8,4.6-12.7,11.1-14.4l108.3-27.6
					C378.5,118.1,387.6,125.2,387.6,134.8z"/>
			</g>
		</g>
		<g>
			<g>
				<path fill="#F15A22" d="M249.7,158.9v15.3L162,132v-3.7c0-9.5,9.9-15.7,18.4-11.5l62.1,30.5C246.9,149.5,249.7,154,249.7,158.9z
					"/>
			</g>
		</g>
		<g>
			<g>
				<path fill="#414042" d="M236.9,292.4L236.9,292.4c-3.3,0-6.5-0.8-9.6-2.2l-62.1-30.5c-7.4-3.6-12.2-11.3-12.2-19.6V128.4
					c0-12,9.8-21.8,21.8-21.8c3.3,0,6.6,0.8,9.6,2.2l62.2,30.6c7.4,3.7,12,11.1,12,19.3v111.9c0,6-2.3,11.5-6.6,15.6
					C247.9,290.3,242.5,292.4,236.9,292.4z M174.8,124.5c-1.9,0-3.9,1.5-3.9,3.9v111.7c0,1.5,0.9,2.9,2.2,3.6l62.1,30.5
					c0.6,0.3,1.1,0.4,1.7,0.4l0,0c1,0,2-0.4,2.7-1.1c0.8-0.7,1.2-1.7,1.2-2.8V158.8c0-1.4-0.8-2.7-2.1-3.3l-62.2-30.6
					C175.9,124.6,175.4,124.5,174.8,124.5z"/>
			</g>
		</g>
		<g>
			<g>
				<path fill="#414042" d="M264.5,295.9c-13.1,0-23.7-10.7-23.7-23.8V162.5c0-10.9,7.4-20.4,17.9-23.1l108.4-27.6
					c1.9-0.5,3.9-0.7,5.9-0.7c13,0,23.6,10.6,23.6,23.6v110c0,10.8-7.3,20.3-17.8,22.9l-108.3,27.6
					C268.5,295.7,266.5,295.9,264.5,295.9z M373,128.9c-0.5,0-1,0.1-1.5,0.2l-108.4,27.6c-2.6,0.7-4.5,3-4.5,5.8v109.7
					c0,3.7,3.1,5.9,5.9,5.9c0.5,0,1-0.1,1.5-0.2l108.3-27.6c2.6-0.7,4.4-3,4.4-5.7v-110C378.7,131.1,375.7,128.9,373,128.9z"/>
			</g>
		</g>
		<g>
			<g>
				<path fill="#E6E7E8" d="M334.2,201.3c0,7.2-5.9,14.7-13.1,16.6c-7.2,1.9-13.1-2.4-13.1-9.7c0-7.2,5.9-14.7,13.1-16.6
					C328.3,189.7,334.2,194.1,334.2,201.3z"/>
			</g>
		</g>
		<g>
			<g>
				<path fill="#E6E7E8" d="M362.5,166.3c0,7.2-5.9,14.7-13.1,16.6c-7.2,1.9-13.1-2.4-13.1-9.7c0-7.2,5.9-14.7,13.1-16.6
					C356.7,154.7,362.5,159,362.5,166.3z"/>
			</g>
		</g>
		<g>
			<g>
				<path fill="#E6E7E8" d="M305.9,236.3c0,7.2-5.9,14.7-13.1,16.6c-7.2,1.9-13.1-2.4-13.1-9.7c0-7.2,5.9-14.7,13.1-16.6
					C300,224.7,305.9,229.1,305.9,236.3z"/>
			</g>
		</g>
		<g>
			<g>
				<ellipse fill="#E6E7E8" cx="222.5" cy="175.1" rx="8.2" ry="12.4"/>
			</g>
		</g>
		<g>
			<g>
				<ellipse fill="#E6E7E8" cx="222.5" cy="209.5" rx="8.2" ry="12.4"/>
			</g>
		</g>
		<g>
			<g>
				<ellipse fill="#E6E7E8" cx="222.5" cy="242.3" rx="8.2" ry="12.4"/>
			</g>
		</g>
		<g>
			<g>
				<ellipse fill="#E6E7E8" cx="187.3" cy="227.3" rx="8.2" ry="12.4"/>
			</g>
		</g>
		<g>
			<g>
				<ellipse fill="#E6E7E8" cx="187.3" cy="192.3" rx="8.2" ry="12.4"/>
			</g>
		</g>
		<g>
			<g>
				<ellipse fill="#E6E7E8" cx="187.3" cy="159.5" rx="8.2" ry="12.4"/>
			</g>
		</g>
		<g>
			<g>
				<path fill="#E6E7E8" d="M248.9,104.6c3.3,2.5,1,5.9-4.9,7.5c-6,1.7-13.5,1-16.7-1.4c-3.3-2.5-1-5.9,4.9-7.5
					C238.2,101.5,245.7,102.1,248.9,104.6z"/>
			</g>
		</g>
		<g>
			<g>
				<path fill="#E6E7E8" d="M295.7,91.4c3.3,2.5,1,5.9-4.9,7.5c-6,1.7-13.5,1-16.7-1.4c-3.3-2.5-1-5.9,4.9-7.5S292.5,89,295.7,91.4z
					"/>
			</g>
		</g>
		<g>
			<g>
				<path fill="#E6E7E8" d="M273.7,123.5c3.3,2.5,1,5.9-4.9,7.5c-6,1.7-13.5,1-16.7-1.4c-3.3-2.5-1-5.9,4.9-7.5
					S270.5,121.1,273.7,123.5z"/>
			</g>
		</g>
		<g>
			<g>
				<path fill="#E6E7E8" d="M320.5,110.4c3.3,2.5,1,5.9-4.9,7.5s-13.5,1-16.7-1.4c-3.3-2.5-1-5.9,4.9-7.5
					C309.8,107.2,317.3,107.9,320.5,110.4z"/>
			</g>
		</g>
		<g>
			<g>
				<path fill="#414042" d="M252,158.6c-4.6,0-9.2-1.1-13.3-3.1l-64.7-31.8c-5.9-2.9-9.3-9-8.6-15.5c0.7-6.5,5.2-11.8,11.6-13.4
					l110.3-28c6.9-1.8,14.4-1,20.8,2l66.5,31.2c6,2.8,9.5,8.9,8.9,15.5c-0.6,6.6-5.2,11.9-11.6,13.6l-112.5,28.7
					C257,158.2,254.5,158.6,252,158.6z M187.6,110.5l59,29c2.6,1.3,5.6,1.6,8.4,0.9l106.3-27.1l-60.6-28.4c-2.7-1.3-5.9-1.6-8.9-0.8
					L187.6,110.5z"/>
			</g>
		</g>
		<g>
			<g>
				<path fill="#414042" d="M252,158.6c-4.6,0-9.2-1.1-13.3-3.1l-64.6-31.8c-5.9-2.9-9.3-9-8.6-15.6c0.7-6.5,5.2-11.8,11.6-13.4
					l110-27.9c7.1-1.8,14.8-1.1,21.4,2l66.2,31c6,2.8,9.5,8.9,8.9,15.5c-0.6,6.6-5.2,11.9-11.6,13.6l-112.5,28.7
					C257,158.2,254.5,158.6,252,158.6z M187.6,110.5l59,29c2.6,1.3,5.6,1.6,8.4,0.9l106.3-27.1L301,85c-2.9-1.4-6.3-1.7-9.4-0.9
					L187.6,110.5z"/>
			</g>
		</g>
		<g>
			<g>
				<path fill="#414042" d="M255,297.3C255,297.3,255,297.3,255,297.3c-8.7,0-17.5-2-25.3-5.9l-64.5-31.7
					c-7.4-3.6-12.2-11.3-12.2-19.6V124.3c0-13.8,9.4-25.9,22.8-29.3l111.7-28.4c6.8-1.7,14.3-1,20.7,2l65.7,30.8
					c13.8,6.5,22.6,20.4,22.6,35.6v109.6c0,10.8-7.3,20.3-17.8,22.9l-109.6,27.9C264.6,296.7,259.8,297.3,255,297.3z M295.1,83.6
					c-1.1,0-2.2,0.1-3.2,0.4l-111.7,28.4c-5.5,1.4-9.3,6.3-9.3,12v115.8c0,1.5,0.9,2.9,2.2,3.6l64.5,31.7c5.4,2.6,11.4,4,17.4,4h0
					c3.3,0,6.6-0.4,9.7-1.2l109.5-27.9c2.6-0.7,4.4-3,4.4-5.7V135.1c0-8.3-4.9-15.9-12.4-19.5l-65.7-30.8
					C298.9,84,297,83.6,295.1,83.6z"/>
			</g>
		</g>
	</g>
</g>
</svg>
