<?xml version="1.0" encoding="utf-8"?>
<!-- Generator: Adobe Illustrator 18.0.0, SVG Export Plug-In . SVG Version: 6.00 Build 0)  -->
<!DOCTYPE svg PUBLIC "-//W3C//DTD SVG 1.1//EN" "http://www.w3.org/Graphics/SVG/1.1/DTD/svg11.dtd">
<svg version="1.1" id="Layer_1" xmlns="http://www.w3.org/2000/svg" xmlns:xlink="http://www.w3.org/1999/xlink" x="0px" y="0px"
	 viewBox="0 0 512 512" enable-background="new 0 0 512 512" xml:space="preserve">
<g>
	<g>
		<g>
			<path fill="#B5B1A6" d="M196.2,266c-13.2,30.8-18.8,81.2-18.8,81.2l-6,30.1c-1.9,9.3,5.3,18.1,14.8,18.1h1.1
				c6.7,0,12.5-4.4,14.5-10.7l12.6-41.4c34.8-38,55.3-98.2,55.3-98.2L196.2,266z"/>
		</g>
	</g>
	<g>
		<g>
			<path fill="#414042" d="M187.2,403.9h-1.1c-7.1,0-13.8-3.2-18.3-8.7c-4.5-5.5-6.3-12.7-4.9-19.7l6-30.1c0.9-4.7,5.5-7.7,10.1-6.8
				c4.7,0.9,7.7,5.4,6.8,10.1l-6,30.1c-0.5,2.6,0.6,4.5,1.4,5.4c0.7,0.9,2.4,2.4,5,2.4h1.1c2.9,0,5.4-1.9,6.2-4.6l12.6-41.4
				c1.4-4.5,6.2-7.1,10.7-5.7c4.5,1.4,7.1,6.2,5.7,10.7l-12.6,41.4C206.9,397.2,197.8,403.9,187.2,403.9z"/>
		</g>
	</g>
	<g>
		<g>
			<path fill="#414042" d="M214.3,351.8c-2.1,0-4.1-0.7-5.8-2.3c-3.5-3.2-3.7-8.6-0.5-12.1c33.2-36.3,53.4-94.6,53.6-95.2
				c1.5-4.5,6.4-6.9,10.9-5.4c4.5,1.5,6.9,6.4,5.4,10.9c-0.9,2.5-21.5,62.3-57.1,101.3C218.9,350.8,216.6,351.8,214.3,351.8z"/>
		</g>
	</g>
	<g>
		<g>
			<path fill="#B5B1A6" d="M449.8,164.8l-54.4-22.5c-10.8-12.2-26.6-23.4-62.5-24.8c-35.9-1.4-70.3,37.2-104.8,55.4
				c-23.3,12.3-47.2,11.6-72.6,9.1c-0.2,0-0.4,0-0.6-0.1c-50.3-4.7-93.7,34.9-93.7,85.5v54.9h25.2c0,0,27,0.7,82.9,0
				c72.7-0.9,111.2-96.1,138.8-118.1c23.5-18.6,78,2.3,97.8,6.6c12.6,2.8,18.6-8,19.8-11.1c0.6-1.5,0-3.3-1.4-4.2
				c-10-6.6-31.5-13.5-39.5-15.9c-2.5-0.8-4.2-3.5-3.4-6c0.7-2.4,2.4-6,10.4-3.4c4.6,1.5,25.2,10.4,31.1,11.1
				c15.9,1.9,20.6-2.6,23.7-9C448.1,169.6,452.7,165.5,449.8,164.8z"/>
		</g>
	</g>
	<g>
		<g>
			<path fill="#9B9891" d="M425.7,199.7c-1.1,3.1-7.4,14.1-19.7,11.2c-19.7-4.7-74.3-25.3-97.8-6.7c-7.2,5.7-15.2,15.7-24.3,27.4
				c0.4-1.1,15-37,43.8-45.2c20-5.6,66.2,1.9,93.5,7.3c1.1,0.6,2.2,1.3,3.2,1.9C425.8,196.4,426.3,198.2,425.7,199.7z"/>
		</g>
	</g>
	<g>
		<g>
			<path fill="#9B9891" d="M425.7,199.7c-1.1,3.1-7.4,14.1-19.7,11.2c-19.7-4.7-74.3-25.3-97.8-6.7c-7.2,5.7-15.2,15.7-24.3,27.4
				c0.4-1.1,15-37,43.8-45.2c20-5.6,66.2,1.9,93.5,7.3c1.1,0.6,2.2,1.3,3.2,1.9C425.8,196.4,426.3,198.2,425.7,199.7z"/>
		</g>
	</g>
	<g>
		<g>
			<path fill="#414042" d="M123,331.2c-23.4,0-35.3-0.3-36.7-0.3H61.2c-4.7,0-8.6-3.8-8.6-8.6v-54.9c0-52.1,42.3-94.4,94.2-94.4
				c3,0,6,0.1,8.9,0.4l0.5,0.1c6.9,0.7,15.8,1.4,24.4,1.4c17.2,0,30.9-3,43.3-9.6c11-5.8,21.9-13.7,33.4-22.1
				c24-17.4,48.8-35.4,75.7-34.3c38.9,1.5,56.5,14.5,67.3,26.2l52.2,21.6c2.9,1,5.1,3.1,6.1,5.9c1.8,5.2-1.4,9.5-3.3,12
				c-0.4,0.5-0.9,1.2-1.1,1.5c-4.4,9.2-11.8,13.8-23,14.2c3,3.3,4,8,2.4,12.3c-2.2,6-10,17.2-23.8,17.2c-1.9,0-3.9-0.2-5.9-0.7
				c-3.8-0.8-8.6-2.2-14.1-3.8c-15.4-4.4-36.5-10.3-54.2-10.3c-10,0-17.5,1.9-22.3,5.7c-7.1,5.6-15.7,17.7-25.7,31.7
				c-26.3,36.9-62.4,87.5-118.4,88.3C152.9,331.1,137.3,331.2,123,331.2z M69.8,313.7h16.6c0.1,0,0.2,0,0.2,0
				c0.1,0,12.2,0.3,36.3,0.3c14.2,0,29.8-0.1,46.3-0.3c47.3-0.6,80.4-47.1,104.6-81.1c10.7-15.1,20-28.1,29-35.2
				c7.9-6.3,19-9.5,33-9.5c20.1,0,42.5,6.3,58.9,11c5.3,1.5,9.8,2.8,13.1,3.5c0.8,0.2,1.5,0.3,2.1,0.3c2.3,0,4.1-1.2,5.4-2.5
				c-10.4-5.3-27.4-10.7-32.9-12.4c-7.1-2.2-11.2-9.7-9.2-16.7c2.8-9.5,10.6-10.5,13.8-10.5c2.3,0,4.8,0.5,7.6,1.4
				c1.6,0.5,4.3,1.6,8,3.1c5.5,2.2,18.3,7.3,21.4,7.7c2.1,0.3,4,0.4,5.7,0.4c6.3,0,7.7-1.5,8.9-3.8l-46.4-19.2
				c-1.2-0.5-2.3-1.3-3.1-2.2c-8.9-10.1-22.6-20.6-56.5-21.9c-21.1-0.9-43.3,15.4-65,31c-11.5,8.4-23.5,17-35.5,23.4
				c-15,7.9-31.3,11.6-51.4,11.6c-9.4,0-18.9-0.8-26.1-1.5l-0.5,0c-2.5-0.2-5-0.4-7.4-0.4c-42.5,0-77,34.7-77,77.3V313.7z"/>
		</g>
	</g>
	<g>
		<g>
			<path fill="#414042" d="M177.3,355.8c-0.3,0-0.6,0-1-0.1c-4.7-0.5-8.1-4.8-7.6-9.5c0.2-2.1,6-52,19.5-83.6
				c1.9-4.4,6.9-6.4,11.3-4.5c4.4,1.9,6.4,6.9,4.5,11.3c-12.5,29.3-18.1,78.3-18.2,78.8C185.4,352.6,181.6,355.8,177.3,355.8z"/>
		</g>
	</g>
	<g>
		<g>
			<path fill="#B5B1A6" d="M341.5,134.9c0,0-34.9-23.3-57.6-19.8c0,0,1.8,21.2,21.3,30.4"/>
		</g>
	</g>
	<g>
		<g>
			<path fill="#B5B1A6" d="M341.5,134.9c0,0-34.9-23.3-57.6-19.8c0,0,1.8,21.2,21.3,30.4"/>
		</g>
	</g>
	<g>
		<g>
			<path fill="#B5B1A6" d="M341.5,134.9c0,0-34.9-23.3-57.6-19.8c0,0,1.8,21.2,21.3,30.4"/>
		</g>
	</g>
	<g>
		<g>
			<path fill="#414042" d="M305.2,154.1c-1.2,0-2.5-0.3-3.7-0.8c-23.7-11.2-26.1-36.4-26.2-37.5c-0.4-4.5,2.8-8.6,7.3-9.2
				c25.3-3.8,59.8,18.6,63.7,21.2c3.9,2.6,5,8,2.4,11.9c-2.6,3.9-8,5-11.9,2.4l0,0c-7.2-4.8-26.1-15.5-41.4-18.1
				c2.3,4.8,6.4,10.4,13.6,13.8c4.3,2,6.1,7.1,4.1,11.4C311.5,152.3,308.4,154.1,305.2,154.1z"/>
		</g>
	</g>
	<g>
		<g>
			<path fill="#B5B1A6" d="M157.8,270.9c-19.9,26.9-36.9,74.5-36.9,74.5l-13.1,30.8c-4.2,10,3.1,21,13.9,21h0
				c5.4,0,10.4-2.9,13.1-7.5l23-39.5c42.6-28.8,85.6-112.2,85.6-112.2L157.8,270.9z"/>
		</g>
	</g>
	<g>
		<g>
			<path fill="#414042" d="M120.9,354.1c-1,0-1.9-0.2-2.9-0.5c-4.5-1.6-6.8-6.5-5.2-11c0.7-2,17.7-49.2,38.1-76.7
				c2.8-3.8,8.2-4.6,12-1.8c3.8,2.8,4.6,8.2,1.8,12c-18.9,25.5-35.5,71.8-35.7,72.3C127.7,351.9,124.4,354.1,120.9,354.1z"/>
		</g>
	</g>
	<g>
		<g>
			<path fill="#414042" d="M157.8,358.9c-2.8,0-5.5-1.3-7.1-3.8c-2.7-3.9-1.6-9.3,2.3-11.9c39.9-27,63.8-84,64-84.5
				c1.8-4.4,6.8-6.5,11.2-4.7c4.4,1.8,6.5,6.8,4.7,11.2c-1,2.5-26.1,62.3-70.3,92.2C161.1,358.4,159.4,358.9,157.8,358.9z"/>
		</g>
	</g>
	<g>
		<g>
			<path fill="#414042" d="M121.7,405.9c-8,0-15.4-4-19.8-10.6c-4.4-6.7-5.2-15-2.1-22.4l13.1-30.8c1.9-4.4,6.9-6.4,11.3-4.6
				c4.4,1.9,6.4,6.9,4.6,11.3l-13.1,30.8c-1.2,2.9,0,5.3,0.6,6.2c0.6,0.9,2.3,2.9,5.4,2.9c2.3,0,4.5-1.2,5.6-3.2l23-39.5
				c2.4-4.1,7.6-5.5,11.7-3.1c4.1,2.4,5.5,7.6,3.1,11.7l-23,39.5C138,401.4,130.2,405.9,121.7,405.9z"/>
		</g>
	</g>
	<g>
		<g>
			<path fill="#B5B1A6" d="M269,250.3l0.5-0.6l0.4-0.5l0.4-0.5c0,0,0,0,0,0C270.5,249.8,269,250.3,269,250.3z"/>
		</g>
	</g>
	<g>
		<g>
			<path fill="#B5B1A6" d="M283.9,231.6l-13.6,17.1c-0.5-1.9-7-5.8-40.1-12c-61.3-11.5-99.4,84.2-100.1,85.9c-2.4,0-4.8,0-7,0
				c-24.6,0-36.5-0.3-36.5-0.3H61.2v-54.9c0-49.6,41.8-88.7,90.9-85.7c0.9,0,1.9,0.1,2.8,0.2c0.2,0,0.4,0,0.6,0.1
				c5.9,0.6,11.8,1.1,17.5,1.3h0.2c18.8,0.8,37-1,54.7-10.3c0,0,0.1,0,0.1-0.1c0.5-0.2,0.8-0.4,1-0.5c0.2-0.1,0.3-0.1,0.3-0.1
				c-0.1,0.1-0.7,0.4-1.3,0.8C243.2,208.9,283.9,231.6,283.9,231.6z"/>
		</g>
	</g>
	<g>
		<g>
			<path fill="#E6E7E8" d="M283.9,231.6l-13.6,17.1c-0.5-1.9-7-5.8-40.1-12c-61.3-11.5-99.4,84.2-100.1,85.9c0,0,0,0,0,0h-7
				c-31.3,0-61.7,0-61.7,0v-55.2c0-49.6,41.8-88.7,90.9-85.7c5.5,0.7,12.8,1.4,20.9,1.6h0.2c17.1,0.4,38.1-1.6,54.8-10.4
				c0.5-0.2,0.8-0.4,1-0.5c0.2-0.1,0.3-0.1,0.3-0.1c-0.1,0.1-0.7,0.4-1.3,0.8C243.2,208.9,283.9,231.6,283.9,231.6z"/>
		</g>
	</g>
	<g>
		<g>
			<path fill="#414042" d="M130,331.2H61.2c-4.7,0-8.6-3.8-8.6-8.6v-55.2c0-52.1,42.2-94.4,94.2-94.4c1.9,0,3.9,0.1,5.8,0.2
				c0.2,0,0.4,0,0.6,0.1c6.7,0.9,13.4,1.4,20,1.5l0,0c1.4,0,2.6,0,3.8,0c19,0,35.2-3.3,46.9-9.5l1-0.5c0.2-0.1,0.4-0.2,0.6-0.3
				c1.2-0.6,2.5-0.9,3.8-0.9c3.6,0,6.8,2.2,8.1,5.6c0.5,1.5,0.7,3,0.4,4.5c14.9,30.4,49.8,50.1,50.1,50.3c2.2,1.2,3.8,3.4,4.2,5.8
				c0.5,2.5-0.1,5-1.7,7l-13.6,17.1c-2,2.6-5.3,3.7-8.5,3c-2-0.4-3.8-1.6-5-3.2c-2-1-9.5-4-34.9-8.8c-2.9-0.5-5.8-0.8-8.6-0.8
				c-48,0-79.7,76.1-81.8,81.3C136.8,328.9,133.7,331.2,130,331.2z M69.8,314.1h54.5c9.3-20.9,42.8-86.9,95.6-86.9
				c3.9,0,7.9,0.4,11.8,1.1c18.9,3.6,30,6.4,36.6,9.1l2.9-3.6c-12.2-8.2-34.3-25.5-47.2-49.5c-13,5.1-28.7,7.7-46.8,7.7
				c-1.4,0-2.7,0-4,0l0,0c-7.3-0.2-14.5-0.7-21.7-1.6c-1.5-0.1-3-0.1-4.5-0.1c-42.5,0-77,34.6-77,77.2V314.1z"/>
		</g>
	</g>
</g>
</svg>
