<?xml version="1.0" encoding="utf-8"?>
<!-- Generator: Adobe Illustrator 18.0.0, SVG Export Plug-In . SVG Version: 6.00 Build 0)  -->
<!DOCTYPE svg PUBLIC "-//W3C//DTD SVG 1.1//EN" "http://www.w3.org/Graphics/SVG/1.1/DTD/svg11.dtd">
<svg version="1.1" id="Layer_1" xmlns="http://www.w3.org/2000/svg" xmlns:xlink="http://www.w3.org/1999/xlink" x="0px" y="0px"
	 viewBox="0 0 512 512" enable-background="new 0 0 512 512" xml:space="preserve">
<g>
	<g>
		<g>
			<g>
				<path fill="#414042" d="M136.6,382.8H86.2c-8.9,0-16.2-7.2-16.2-16.1v-8.4H56.5c-8.9,0-16.2-7.2-16.2-16.1v-65.9
					c0-7.8,5.6-14.3,13-15.8c-8.8-12.8-13.3-28-12.4-42.8c1.2-20.4,11.7-38,29.1-49.4v-11.8c0-8.9,7.2-16.1,16.2-16.1h50.4
					c8.9,0,16.2,7.2,16.2,16.1v5.8h17.1c8.9,0,16.2,7.2,16.2,16.1v62.3c0,6.1-3.5,11.5-8.6,14.2c11.5,14.7,16.3,31.3,14,49.7
					c-2.8,23.4-17.1,43-38.7,53.8v8.2C152.8,375.6,145.5,382.8,136.6,382.8z M102.4,350.7h18v-2.8c0-6.7,4.2-12.7,10.5-15.1l2.4-0.9
					c14.6-5.4,24.3-17,26-31c1.3-10.4-0.2-24.4-23-40.1l-9.7-6.7c-5.8-4-8.3-11.3-6.2-18c2.1-6.7,8.4-11.3,15.4-11.3h17.8v-30.1
					h-11.1c-2,0-4-0.4-5.8-1.1l-0.6-0.2c-0.8-0.3-1.6-0.6-2.4-0.9l-2.5-0.9c-6.5-2.3-10.8-8.3-10.8-15.2v-3.6h-18v5
					c0,6-3.4,11.6-8.8,14.3l-2,1c-11.2,5.7-17.7,15.1-18.4,26.6c-0.5,8.8,2.8,18.2,9.1,25.7c4,4.8,8.7,8.2,12.8,10.8l10.3,6.7
					c6,3.9,8.7,11.2,6.6,18.1c-2,6.8-8.3,11.5-15.5,11.5H72.7v33.7h10c2.8,0,5.5,0.7,7.9,2l3.3,1.8c5.2,2.8,8.5,8.2,8.5,14.1V350.7z
					"/>
			</g>
		</g>
		<g>
			<g>
				<path fill="#E6E7E8" d="M86.2,366.7l0-22.6l-1.9-1l-1.6-0.9H56.5l0-65.9h40l-10.3-6.7c-4.7-3.1-10.9-7.5-16.3-13.9
					c-8.9-10.6-13.6-24.1-12.8-37c1-17.1,10.9-31.7,27.1-39.9l2-1l0-21.1l50.4,0l0,19.7l2.5,0.9c1,0.3,1.9,0.7,2.9,1.1l0.6,0.2
					l27.2,0l0,62.3l-33.9,0l9.7,6.7c22.7,15.7,32.4,33.7,29.8,55.3c-2.4,20.1-16.1,36.6-36.4,44.2l-2.4,0.9l0,18.9L86.2,366.7z"/>
			</g>
		</g>
		<g>
			<g>
				<path fill="#D04527" d="M127.4,247c-3.1-1.8-6-3.5-8.5-5.2c-1.8-1.2-3.5-2.3-5.5-3.5c-4.8-3-9.3-5.8-12-8.9
					c-2.2-2.7-3.5-5.8-3.3-8.3c0.3-4.3,6-7.5,11.2-7.8c6-0.4,13,1,19.5,3.8v14.5h31.7l0-43.7h-19.7c-4.4-1.8-9-3.3-13.5-4.3l0-17.6
					H95.6l0,18.2c-14.8,4.9-28.1,17.1-29.1,35.2c-0.6,10.6,3.3,21.6,10.7,30.4c5.9,7,13.1,11.5,19.5,15.4l0.1,0.1
					c1.5,1,3.1,1.9,4.6,2.9c3.1,2,6.3,3.9,9.7,6l0.2,0.1c17,10,24.4,15.8,23.5,23.7c-0.9,7.6-10,12.3-17.9,12.3
					c-11.1,0-16.7-4.9-19.2-8l0-16.5l-31.7,0l0,22.4l0,1.9l0,22.9h19.5c3,1.9,6.4,3.7,10.2,5.1l0,19.4h31.7l0-16.8
					c18.4-3.7,36.3-17.1,38.9-39C169.8,272.1,144.3,257,127.4,247z"/>
			</g>
		</g>
	</g>
	<g>
		<g>
			<g>
				<path fill="#414042" d="M283.9,430.7h-76.1c-8.9,0-16.2-7.2-16.2-16.1v-20.9h-28.6c-8.9,0-16.2-7.2-16.2-16.1v-99.4
					c0-8.9,7.2-16.1,16.2-16.1h12.1c-1.4-1.5-2.9-3.1-4.3-4.8c-16.1-19.1-24.5-43.6-23.1-67.1c1.8-29.5,17.7-54.9,43.9-70.5V97.4
					c0-8.9,7.2-16.1,16.2-16.1h76.1c8.9,0,16.2,7.2,16.2,16.1v17h34c8.9,0,16.2,7.2,16.2,16.1v94c0,8.9-7.2,16.1-16.2,16.1h-4.2
					c22.7,23,32.3,49.6,28.7,79.4c-4.1,34.1-25.8,62.5-58.5,77v17.6C300.1,423.5,292.9,430.7,283.9,430.7z M224.1,398.5h43.7V386
					c0-6.7,4.2-12.7,10.5-15.1l3.6-1.3c25-9.2,41.6-29.2,44.6-53.5c3.2-26.4-8.9-48.1-38.2-68.3l-14.6-10.1c-5.8-4-8.3-11.3-6.2-18
					s8.4-11.3,15.4-11.3h35v-61.8H293c-2,0-4-0.4-5.8-1.1l-1-0.4c-1.3-0.5-2.6-1-3.9-1.4l-3.7-1.3c-6.5-2.3-10.8-8.3-10.8-15.2
					v-13.7h-43.7v15.8c0,6-3.4,11.6-8.8,14.3l-3,1.5c-19.2,9.8-31,26.9-32.2,46.9c-0.9,15.4,4.8,31.6,15.6,44.5
					c6.8,8.1,14.9,13.8,21.1,17.9l15.6,10.2c6,3.9,8.7,11.2,6.6,18.1s-8.3,11.5-15.5,11.5h-44.2v67.3h23.4c2.8,0,5.5,0.7,7.9,2
					l5.1,2.8c5.2,2.8,8.5,8.2,8.5,14.1V398.5z"/>
			</g>
		</g>
		<g>
			<g>
				<path fill="#E6E7E8" d="M207.9,414.6v-34.2l-2.9-1.6l-2.3-1.3h-39.5v-99.4h60.4l-15.6-10.2c-7.2-4.7-16.4-11.3-24.6-21
					c-13.5-16-20.5-36.3-19.4-55.8c1.5-25.8,16.5-47.8,40.9-60.3l3-1.5V97.4h76.1v29.8l3.7,1.3c1.5,0.5,2.9,1,4.4,1.6l1,0.4h41.1v94
					h-51.2l14.6,10.1c34.2,23.6,48.9,50.9,45,83.5c-3.7,30.4-24.2,55.3-55,66.7l-3.6,1.3v28.6H207.9z"/>
			</g>
		</g>
		<g>
			<g>
				<path fill="#D04527" d="M270,233.9c-4.7-2.8-9.1-5.4-12.8-7.8c-2.7-1.8-5.3-3.4-8.3-5.3c-7.2-4.5-14.1-8.7-18.1-13.5
					c-3.4-4-5.2-8.7-5-12.6c0.4-6.5,9.1-11.3,16.9-11.8c9.1-0.6,19.6,1.5,29.5,5.7v21.8H320v-66h-29.8c-6.7-2.8-13.5-5-20.4-6.5
					v-26.5H222v27.5c-22.4,7.4-42.4,25.8-44,53.1c-0.9,15.9,4.9,32.7,16.1,46c8.9,10.6,19.8,17.4,29.5,23.3l0.2,0.1
					c2.3,1.4,4.7,2.9,6.9,4.4c4.7,3.1,9.5,6,14.7,9l0.2,0.1c25.7,15.2,36.9,23.9,35.4,35.8c-1.4,11.4-15.1,18.5-27.1,18.5
					c-16.7,0-25.2-7.5-29-12.1v-24.9h-47.9V326v2.9v34.6h29.5c4.5,2.9,9.6,5.5,15.4,7.7v29.3h47.9v-25.4
					c27.8-5.6,54.7-25.8,58.7-58.8C334,271.7,295.5,249,270,233.9z"/>
			</g>
		</g>
	</g>
	<g>
		<g>
			<g>
				<path fill="#414042" d="M416,383.5h-50.7c-8.9,0-16.2-7.2-16.2-16.1v-8.6h-13.7c-8.9,0-16.2-7.2-16.2-16.1v-66.3
					c0-7.9,5.7-14.4,13.2-15.8c-8.9-12.8-13.4-28.2-12.6-43.1c1.2-20.5,11.8-38.2,29.3-49.6V156c0-8.9,7.2-16.1,16.2-16.1H416
					c8.9,0,16.2,7.2,16.2,16.1v5.9h17.3c8.9,0,16.2,7.2,16.2,16.1v62.7c0,6.2-3.5,11.6-8.7,14.3c11.6,14.8,16.4,31.5,14.2,50
					c-2.9,23.5-17.2,43.2-39,54.1v8.3C432.1,376.3,424.9,383.5,416,383.5z M381.4,351.3h18.3v-2.9c0-6.7,4.2-12.7,10.5-15.1l2.4-0.9
					c14.7-5.4,24.5-17.1,26.2-31.3c1.3-10.5-0.2-24.6-23.2-40.5l-9.8-6.7c-5.8-4-8.3-11.3-6.2-18c2.1-6.7,8.4-11.3,15.4-11.3h18
					v-30.5H422c-2,0-4-0.4-5.8-1.1l-0.6-0.2c-0.8-0.3-1.6-0.6-2.4-0.9l-2.5-0.9c-6.5-2.3-10.8-8.3-10.8-15.2v-3.8h-18.3v5.2
					c0,6-3.4,11.6-8.8,14.3l-2,1c-11.3,5.8-17.8,15.3-18.5,26.8c-0.5,8.9,2.8,18.4,9.2,25.9c4.1,4.8,8.8,8.2,12.9,10.9l10.4,6.8
					c6,3.9,8.7,11.2,6.6,18.1c-2,6.8-8.3,11.5-15.5,11.5h-24.1v34.1h10.2c2.8,0,5.5,0.7,7.9,2l3.3,1.8c5.2,2.8,8.5,8.2,8.5,14.1
					V351.3z"/>
			</g>
		</g>
		<g>
			<g>
				<path fill="#E6E7E8" d="M365.3,367.4v-22.8l-1.9-1l-1.6-0.9h-26.4l0-66.3h40.2l-10.4-6.8c-4.8-3.1-10.9-7.5-16.4-14
					c-9-10.7-13.7-24.2-12.9-37.2c1-17.2,11-31.8,27.3-40.2l2-1V156l50.7,0l0,19.8l2.5,0.9c1,0.3,2,0.7,2.9,1.1l0.6,0.2l27.4,0
					l0,62.7h-34.1l9.7,6.7c22.8,15.8,32.6,34,30,55.6c-2.5,20.3-16.2,36.9-36.6,44.4l-2.4,0.9l0,19H365.3z"/>
			</g>
		</g>
		<g>
			<g>
				<path fill="#D04527" d="M406.6,246.9c-3.1-1.8-6-3.6-8.5-5.2c-1.8-1.2-3.6-2.3-5.6-3.5c-4.8-3-9.4-5.8-12-9
					c-2.2-2.7-3.5-5.8-3.3-8.4c0.3-4.3,6-7.5,11.3-7.9c6.1-0.4,13.1,1,19.6,3.8v14.6H440l0-44h-19.8c-4.4-1.9-9-3.3-13.6-4.3v-17.7
					h-31.9v18.3c-14.9,4.9-28.2,17.2-29.3,35.4c-0.6,10.6,3.3,21.8,10.7,30.6c5.9,7.1,13.2,11.6,19.6,15.5l0.1,0.1
					c1.6,1,3.1,1.9,4.6,2.9c3.1,2.1,6.3,4,9.8,6l0.2,0.1c17.1,10.1,24.6,15.9,23.6,23.9c-0.9,7.6-10.1,12.3-18,12.3
					c-11.1,0-16.8-5-19.3-8.1v-16.6l-31.9,0v22.6v2l0,23h19.6c3,1.9,6.4,3.7,10.2,5.1l0,19.6l31.9,0v-16.9
					c18.5-3.7,36.5-17.2,39.1-39.2C449.3,272.1,423.7,257,406.6,246.9z"/>
			</g>
		</g>
	</g>
</g>
</svg>
