<?xml version="1.0" encoding="utf-8"?>
<!-- Generator: Adobe Illustrator 18.0.0, SVG Export Plug-In . SVG Version: 6.00 Build 0)  -->
<!DOCTYPE svg PUBLIC "-//W3C//DTD SVG 1.1//EN" "http://www.w3.org/Graphics/SVG/1.1/DTD/svg11.dtd">
<svg version="1.1" id="Layer_1" xmlns="http://www.w3.org/2000/svg" xmlns:xlink="http://www.w3.org/1999/xlink" x="0px" y="0px"
	 viewBox="0 0 512 512" enable-background="new 0 0 512 512" xml:space="preserve">
<g>
	<g>
		<g>
			<path fill="#414042" d="M287.6,436.3h-78.1c-9.2,0-16.6-7.4-16.6-16.6v-21.6h-29.4c-9.2,0-16.6-7.4-16.6-16.6V278.8
				c0-9.2,7.4-16.6,16.6-16.6H176c-1.5-1.6-2.9-3.2-4.4-4.9c-16.5-19.7-25.2-45-23.8-69.2c1.8-30.5,18.1-56.7,45.1-72.7v-23
				c0-9.2,7.4-16.6,16.6-16.6h78.1c9.2,0,16.6,7.4,16.6,16.6v17.5h35c9.2,0,16.6,7.4,16.6,16.6v97.1c0,9.2-7.4,16.6-16.6,16.6h-4.4
				c23.3,23.8,33.2,51.2,29.5,82c-4.3,35.2-26.5,64.5-60.1,79.5v18.2C304.3,428.9,296.8,436.3,287.6,436.3z M226.1,403.1H271v-12.9
				c0-6.9,4.3-13.2,10.8-15.6l3.7-1.4c25.6-9.5,42.7-30.1,45.8-55.2c3.3-27.2-9.2-49.7-39.2-70.5l-15-10.4c-6-4.1-8.5-11.7-6.4-18.6
				c2.2-6.9,8.6-11.6,15.8-11.6h36V143H297c-2,0-4.1-0.4-6-1.1l-1-0.4c-1.3-0.5-2.7-1-4-1.5l-3.9-1.3c-6.7-2.3-11.1-8.6-11.1-15.7
				v-14.1h-44.9v16.3c0,6.2-3.5,11.9-9,14.8l-3.1,1.6c-19.8,10.1-31.8,27.8-33,48.4c-0.9,15.9,4.9,32.7,16.1,45.9
				c7,8.4,15.3,14.3,21.7,18.5l16,10.5c6.1,4,8.9,11.6,6.8,18.6c-2.1,7-8.6,11.8-15.9,11.8h-45.4v69.4h24c2.8,0,5.6,0.7,8.1,2.1
				l5.2,2.9c5.4,2.9,8.7,8.5,8.7,14.6V403.1z"/>
		</g>
	</g>
	<g>
		<g>
			<path fill="#E6E7E8" d="M209.5,419.7v-35.3l-3-1.6l-2.4-1.3h-40.6V278.8h62l-16-10.5c-7.3-4.8-16.9-11.7-25.3-21.7
				c-13.8-16.5-21.1-37.5-19.9-57.6c1.6-26.6,16.9-49.3,42-62.2l3.1-1.6V92.3h78.1V123l3.8,1.3c1.5,0.5,3,1.1,4.5,1.7l1,0.4h42.2
				v97.1h-52.6l15,10.4c35.2,24.4,50.3,52.6,46.2,86.1c-3.8,31.4-24.9,57.1-56.5,68.8l-3.7,1.4v29.5H209.5z"/>
		</g>
	</g>
	<g>
		<g>
			<path fill="#D04527" d="M273.3,233.1c-4.8-2.8-9.3-5.5-13.1-8.1c-2.7-1.8-5.5-3.5-8.6-5.5c-7.4-4.6-14.4-9-18.6-13.9
				c-3.5-4.1-5.4-9-5.1-13c0.4-6.7,9.3-11.7,17.4-12.2c9.4-0.6,20.1,1.5,30.3,5.9V209h49.2v-68.1h-30.6c-6.9-2.9-13.9-5.1-21-6.7
				v-27.4H224v28.3c-23,7.6-43.5,26.7-45.2,54.8c-1,16.4,5.1,33.7,16.5,47.4c9.2,10.9,20.4,17.9,30.3,24.1l0.2,0.1
				c2.4,1.5,4.8,3,7.1,4.5c4.8,3.2,9.8,6.1,15.1,9.3l0.2,0.1c26.4,15.6,37.9,24.7,36.4,37c-1.4,11.8-15.5,19.1-27.8,19.1
				c-17.1,0-25.9-7.7-29.7-12.5v-25.7H178v35v3V367h30.3c4.6,3,9.8,5.7,15.8,7.9v30.3h49.2V379c28.6-5.8,56.2-26.7,60.3-60.7
				C339,272.2,299.5,248.7,273.3,233.1z"/>
		</g>
	</g>
</g>
</svg>
