<?xml version="1.0" encoding="utf-8"?>
<!-- Generator: Adobe Illustrator 18.0.0, SVG Export Plug-In . SVG Version: 6.00 Build 0)  -->
<!DOCTYPE svg PUBLIC "-//W3C//DTD SVG 1.1//EN" "http://www.w3.org/Graphics/SVG/1.1/DTD/svg11.dtd">
<svg version="1.1" id="Layer_1" xmlns="http://www.w3.org/2000/svg" xmlns:xlink="http://www.w3.org/1999/xlink" x="0px" y="0px"
	 viewBox="0 0 512 512" enable-background="new 0 0 512 512" xml:space="preserve">
<g>
	<g>
		<g>
			<g>
				<path fill="#E6E7E8" d="M355.4,183.6h19.9V95.1h-13c-1.4-0.4-2.8,0-10.8,0c-16.1,0-57.7,1.7-96.6,17
					c-41.5,16.4-67.1,43.4-75.4,79.1h-43v58v9.2v58h42c7.1,37.9,33.1,66.6,76.3,83.6c38.9,15.3,80.5,17,96.6,17c0,0,0,0,0,0
					c8,0,9.4,0.4,10.8,0h13v-90.1H355c-1.7,0.2-6.1,0.5-12.2,0.5c-11.3,0-32.9-1.2-50-9.4c-1-0.5-2-1-3-1.5h42.5l18.7-67.2h-1.7
					l16.1-58h-63.3c19-6.9,40-7.7,48.6-7.7C352.9,183.5,354.5,183.5,355.4,183.6z"/>
			</g>
		</g>
		<g>
			<g>
				<path fill="#D04527" d="M358.1,343.8c-0.9,0.2-107.8,11.8-107.8-66.6V256v-21.2c0-74.8,106.9-68.6,107.8-68.3v-54
					c-1.7-0.4-164.2-6-164.2,105.2V256v38.3c0,111.3,162.5,105.7,164.2,105.2V343.8z"/>
			</g>
		</g>
		<g>
			<g>
				<polygon fill="#D04527" points="333.7,241.1 153.9,241.1 153.9,208.4 342.8,208.4 				"/>
			</g>
		</g>
		<g>
			<g>
				<polygon fill="#D04527" points="319.2,299.1 153.9,299.1 153.9,266.4 328.3,266.4 				"/>
			</g>
		</g>
	</g>
	<g>
		<g>
			<path fill="#414042" d="M360.8,94.9c0.7,0,1.2,0,1.6,0.2h13v88.5h-19.9c-1,0-2.5-0.1-4.7-0.1c-8.6,0-29.6,0.8-48.6,7.7h63.3
				l-16.1,58h1.7l-18.7,67.2h-42.5c1,0.5,2,1,3,1.5c17.1,8.2,38.6,9.4,50,9.4c6.1,0,10.5-0.3,12.2-0.5h20.4v90.1h-13
				c-0.5,0.1-0.9,0.2-1.6,0.2c-1.4,0-3.8-0.2-9.2-0.2c0,0,0,0,0,0c-16.1,0-57.7-1.7-96.6-17c-43.2-17.1-69.2-45.7-76.3-83.6h-42v-58
				v-9.2v-58h43c8.3-35.7,33.9-62.7,75.4-79.1c38.9-15.3,80.5-17,96.6-17C357,95.1,359.3,94.9,360.8,94.9 M360.8,77.3
				c-0.6,0-1.4,0-2.4,0.1c-1.5,0-3.5,0.1-6.8,0.1c-17.1,0-61.4,1.8-103.1,18.2c-41.4,16.4-69.5,43.1-82,77.9h-29.9
				c-9.7,0-17.6,7.9-17.6,17.6v58v9.2v58c0,9.7,7.9,17.6,17.6,17.6H165c11.6,37,40.2,65.3,83.6,82.4c41.7,16.4,86,18.2,103.1,18.2
				c3.3,0,5.3,0.1,6.8,0.1c1,0,1.8,0.1,2.4,0.1c0.8,0,1.8,0,3-0.2h11.6c9.7,0,17.6-7.9,17.6-17.6v-90.1c0-9.7-7.9-17.6-17.6-17.6
				H355c-0.5,0-1.1,0-1.6,0.1c-0.2,0-0.5,0-0.9,0.1l15.4-55.5c0.7-2.5,0.8-5,0.4-7.5l12.8-46.2c6.9-2.4,11.8-8.9,11.8-16.6V95.1
				c0-9.7-7.9-17.6-17.6-17.6h-11.6C362.6,77.3,361.6,77.3,360.8,77.3L360.8,77.3z"/>
		</g>
	</g>
</g>
</svg>
