<?xml version="1.0" encoding="utf-8"?>
<!-- Generator: Adobe Illustrator 18.0.0, SVG Export Plug-In . SVG Version: 6.00 Build 0)  -->
<!DOCTYPE svg PUBLIC "-//W3C//DTD SVG 1.1//EN" "http://www.w3.org/Graphics/SVG/1.1/DTD/svg11.dtd">
<svg version="1.1" id="Layer_1" xmlns="http://www.w3.org/2000/svg" xmlns:xlink="http://www.w3.org/1999/xlink" x="0px" y="0px"
	 viewBox="0 0 512 512" enable-background="new 0 0 512 512" xml:space="preserve">
<g>
	<g>
		<g>
			<path fill="#E6E7E8" d="M256,420.8c-19.3,0-37.8-3.3-54.9-9.4l0-310.9c17.2-6.1,35.7-9.4,54.9-9.4c19.3,0,37.8,3.3,54.9,9.4
				l0,310.9C293.8,417.5,275.3,420.8,256,420.8z"/>
		</g>
	</g>
	<g>
		<g>
			<path fill="#D04527" d="M310.9,411.4l0-310.9c64,22.6,109.9,83.7,109.9,155.4C420.8,327.8,375,388.8,310.9,411.4z"/>
		</g>
	</g>
	<g>
		<g>
			<path fill="#4176AD" d="M201.1,411.4C137,388.8,91.2,327.8,91.2,256c0-71.8,45.9-132.8,109.9-155.4L201.1,411.4z"/>
		</g>
	</g>
	<g>
		<g>
			<path fill="#414042" d="M256,429.6c-95.7,0-173.6-77.9-173.6-173.6c0-95.7,77.9-173.6,173.6-173.6c95.7,0,173.6,77.9,173.6,173.6
				C429.6,351.7,351.7,429.6,256,429.6z M256,100C170,100,99.9,170,99.9,256c0,86,70,156.1,156.1,156.1S412.1,342,412.1,256
				C412.1,170,342,100,256,100z"/>
		</g>
	</g>
	<g>
		<g>
			<path fill="#414042" d="M256,429.6c-19.9,0-39.4-3.3-57.9-9.9C128.9,395.3,82.4,329.5,82.4,256s46.5-139.3,115.8-163.7
				c18.5-6.6,38-9.9,57.9-9.9s39.4,3.3,57.9,9.9c69.2,24.4,115.8,90.2,115.8,163.7s-46.5,139.3-115.8,163.7
				C295.4,426.3,275.9,429.6,256,429.6z M256,99.9c-17.9,0-35.4,3-52,8.9C141.8,130.8,99.9,190,99.9,256c0,66,41.8,125.2,104,147.2
				c16.6,5.9,34.1,8.9,52,8.9s35.4-3,52-8.9c62.2-22,104.1-81.1,104.1-147.2c0-66-41.8-125.2-104-147.2
				C291.4,102.9,273.9,99.9,256,99.9z"/>
		</g>
	</g>
</g>
</svg>
