<?xml version="1.0" encoding="utf-8"?>
<!-- Generator: Adobe Illustrator 18.0.0, SVG Export Plug-In . SVG Version: 6.00 Build 0)  -->
<!DOCTYPE svg PUBLIC "-//W3C//DTD SVG 1.1//EN" "http://www.w3.org/Graphics/SVG/1.1/DTD/svg11.dtd">
<svg version="1.1" id="Layer_1" xmlns="http://www.w3.org/2000/svg" xmlns:xlink="http://www.w3.org/1999/xlink" x="0px" y="0px"
	 viewBox="0 0 512 512" enable-background="new 0 0 512 512" xml:space="preserve">
<g>
	<g>
		<g>
			<path fill="#D04527" d="M420.8,256c0,19.3-3.3,37.8-9.4,54.9H100.6c-6.1-17.2-9.4-35.7-9.4-54.9c0-19.3,3.3-37.8,9.4-54.9h310.9
				C417.5,218.2,420.8,236.7,420.8,256z"/>
		</g>
	</g>
	<g>
		<g>
			<path fill="#4F4F4F" d="M411.4,201.1H100.6C123.2,137,184.2,91.2,256,91.2C327.8,91.2,388.8,137,411.4,201.1z"/>
		</g>
	</g>
	<g>
		<g>
			<path fill="#F5E039" d="M411.4,310.9c-22.6,64-83.7,109.9-155.4,109.9c-71.8,0-132.8-45.9-155.4-109.9H411.4z"/>
		</g>
	</g>
	<g>
		<g>
			<path fill="#414042" d="M256,429.6L256,429.6c-95.7,0-173.6-77.9-173.6-173.6S160.3,82.4,256,82.4S429.6,160.3,429.6,256
				C429.6,351.7,351.7,429.6,256,429.6z M256,99.9C170,99.9,100,170,100,256S170,412.1,256,412.1c86,0,156.1-70,156.1-156.1
				C412.1,170,342,99.9,256,99.9z"/>
		</g>
	</g>
	<g>
		<g>
			<path fill="#414042" d="M256,429.6c-73.5,0-139.3-46.5-163.7-115.8c-6.6-18.5-9.9-38-9.9-57.9s3.3-39.4,9.9-57.9
				C116.7,128.9,182.5,82.4,256,82.4s139.3,46.5,163.7,115.8c6.6,18.5,9.9,38,9.9,57.9s-3.3,39.4-9.9,57.9
				C395.3,383.1,329.5,429.6,256,429.6z M256,99.9c-66,0-125.2,41.8-147.2,104c-5.9,16.6-8.9,34.1-8.9,52s3,35.4,8.9,52
				c22,62.2,81.1,104.1,147.2,104.1s125.2-41.8,147.2-104c5.9-16.6,8.9-34.1,8.9-52s-3-35.4-8.9-52C381.2,141.8,322,99.9,256,99.9z"
				/>
		</g>
	</g>
</g>
</svg>
