<svg class="svg-icon" style="width: 1em; height: 1em;vertical-align: middle;fill: currentColor;overflow: hidden;" viewBox="0 0 1024 1024" version="1.1" xmlns="http://www.w3.org/2000/svg"><path d="M512 85.333333C277.333333 85.333333 85.333333 277.333333 85.333333 512s192 426.666667 426.666667 426.666667 426.666667-192 426.666667-426.666667S746.666667 85.333333 512 85.333333z" fill="#7CB342" /><path d="M960 512c0 249.6-202.666667 448-448 448S64 761.6 64 512 262.4 64 512 64s448 198.4 448 448z m-452.266667 206.933333c0-8.533333-4.266667-12.8-12.8-17.066666-27.733333-8.533333-53.333333-8.533333-76.8-32-4.266667-8.533333-4.266667-17.066667-8.533333-27.733334-8.533333-8.533333-32-12.8-44.8-17.066666h-89.6c-12.8-4.266667-23.466667-23.466667-32-36.266667 0-4.266667 0-12.8-8.533333-12.8-8.533333-4.266667-17.066667 4.266667-27.733334 0-4.266667-4.266667-4.266667-8.533333-4.266666-12.8 0-12.8 8.533333-27.733333 17.066666-36.266667 12.8-8.533333 27.733333 4.266667 40.533334 4.266667 4.266667 0 4.266667 0 8.533333 4.266667 12.8 4.266667 17.066667 21.333333 17.066667 36.266666v8.533334c0 4.266667 4.266667 4.266667 8.533333 4.266666 4.266667-23.466667 4.266667-44.8 8.533333-68.266666 0-27.733333 27.733333-53.333333 49.066667-61.866667 8.533333-4.266667 12.8 4.266667 23.466667 0 27.733333-8.533333 93.866667-36.266667 81.066666-72.533333-8.533333-32-36.266667-61.866667-72.533333-57.6-8.533333 4.266667-12.8 8.533333-21.333333 12.8-12.8 8.533333-40.533333 36.266667-53.333334 36.266666-23.466667-4.266667-23.466667-36.266667-17.066666-49.066666 4.266667-17.066667 44.8-76.8 72.533333-66.133334l17.066667 17.066667c8.533333 4.266667 23.466667 4.266667 36.266666 4.266667 4.266667 0 8.533333 0 12.8-4.266667 4.266667-4.266667 4.266667-4.266667 4.266667-8.533333 0-12.8-12.8-27.733333-21.333333-36.266667-8.533333-8.533333-23.466667-17.066667-36.266667-23.466667-44.8-12.8-117.333333 4.266667-151.466667 36.266667s-61.866667 85.333333-81.066666 130.133333c-8.533333 27.733333-17.066667 61.866667-21.333334 93.866667-4.266667 21.333333-8.533333 40.533333 4.266667 61.866667 12.8 27.733333 40.533333 53.333333 68.266667 72.533333 17.066667 12.8 53.333333 12.8 72.533333 36.266667 12.8 17.066667 8.533333 40.533333 8.533333 61.866666 0 27.733333 17.066667 49.066667 27.733334 72.533334 4.266667 12.8 8.533333 32 12.8 44.8 0 4.266667 4.266667 32 4.266666 36.266666 27.733333 12.8 49.066667 27.733333 81.066667 36.266667 4.266667 0 21.333333-27.733333 21.333333-32 12.8-12.8 23.466667-32 36.266667-40.533333 8.533333-4.266667 17.066667-8.533333 27.733333-17.066667 8.533333-8.533333 12.8-27.733333 17.066667-40.533333 2.133333-10.666667 6.4-27.733333 2.133333-40.533334z m8.533334-413.866666c4.266667 0 8.533333-4.266667 17.066666-8.533334 12.8-8.533333 27.733333-23.466667 40.533334-32 12.8-8.533333 27.733333-23.466667 36.266666-32 12.8-8.533333 23.466667-27.733333 27.733334-40.533333 4.266667-8.533333 17.066667-27.733333 12.8-40.533333-4.266667-8.533333-27.733333-12.8-36.266667-17.066667-36.266667-8.533333-66.133333-12.8-102.4-12.8-12.8 0-32 4.266667-36.266667 17.066667-4.266667 23.466667 12.8 17.066667 32 23.466666 0 0 4.266667 36.266667 4.266667 40.533334 4.266667 21.333333-8.533333 36.266667-8.533333 57.6 0 12.8 0 36.266667 8.533333 44.8h4.266667zM891.733333 618.666667c4.266667-8.533333 4.266667-23.466667 8.533334-32 4.266667-21.333333 4.266667-44.8 4.266666-66.133334 0-44.8-4.266667-89.6-17.066666-130.133333-8.533333-12.8-12.8-27.733333-17.066667-40.533333-8.533333-23.466667-21.333333-44.8-40.533333-61.866667-17.066667-23.466667-40.533333-85.333333-81.066667-66.133333-12.8 4.266667-21.333333 21.333333-32 32-8.533333 12.8-17.066667 27.733333-27.733333 40.533333-4.266667 4.266667-8.533333 12.8-4.266667 17.066667 0 4.266667 4.266667 4.266667 8.533333 4.266666 8.533333 4.266667 12.8 4.266667 21.333334 8.533334 4.266667 0 8.533333 4.266667 4.266666 8.533333 0 0 0 4.266667-4.266666 4.266667-21.333333 23.466667-44.8 40.533333-66.133334 61.866666-4.266667 4.266667-8.533333 12.8-8.533333 17.066667 0 4.266667 4.266667 4.266667 4.266667 8.533333s-4.266667 4.266667-8.533334 8.533334c-8.533333 4.266667-17.066667 8.533333-23.466666 12.8-4.266667 8.533333 0 23.466667-4.266667 32-4.266667 23.466667-17.066667 40.533333-27.733333 61.866666-8.533333 12.8-12.8 27.733333-21.333334 40.533334 0 17.066667-4.266667 32 4.266667 44.8 21.333333 32 61.866667 12.8 93.866667 27.733333 8.533333 4.266667 17.066667 4.266667 23.466666 12.8 12.8 12.8 12.8 36.266667 17.066667 49.066667 4.266667 17.066667 8.533333 36.266667 17.066667 53.333333 4.266667 21.333333 12.8 44.8 17.066666 61.866667 40.533333-32 76.8-66.133333 102.4-110.933334 32-27.733333 44.8-64 57.6-100.266666z" fill="#0277BD" /></svg>