<?xml version="1.0" encoding="utf-8"?>
<!-- Generator: Adobe Illustrator 18.0.0, SVG Export Plug-In . SVG Version: 6.00 Build 0)  -->
<!DOCTYPE svg PUBLIC "-//W3C//DTD SVG 1.1//EN" "http://www.w3.org/Graphics/SVG/1.1/DTD/svg11.dtd">
<svg version="1.1" id="Layer_1" xmlns="http://www.w3.org/2000/svg" xmlns:xlink="http://www.w3.org/1999/xlink" x="0px" y="0px"
	 viewBox="0 0 512 512" enable-background="new 0 0 512 512" xml:space="preserve">
<g>
	<g>
		<g>
			<path fill="#E6E7E8" d="M388.5,289.6c-9,4.5-77.9,34.9-118.2,52.6c-16.5,7.3-35.9,0.5-44.3-15.4l-24.3-44l-31.7,16.9
				c0,0,15.7,27.2,31.5,54.9c26.5,46.3,42.1,46.5,61.5,46.5c0,0,21.4,0,22.7,0h99.1c17.3,0,25.6-13.2,31.4-31.4l11.6-37.4
				c2.9-9.2,3.5-19,1.4-28.4C422.7,275.2,399.5,284.1,388.5,289.6z"/>
		</g>
	</g>
	<g>
		<g>
			<path fill="#CFCECE" d="M427.8,332.5l-11.6,37.4c-5.8,18.1-14,31.4-31.4,31.4h-50.6c4.4-22.6,14.6-68.3,30.2-100.6
				c12.2-5.4,21.2-9.5,24.1-11c11-5.5,34.2-14.4,40.7,14.5C431.3,313.5,430.6,323.3,427.8,332.5z"/>
		</g>
	</g>
	<g>
		<g>
			<path fill="#CFCECE" d="M427.8,332.5l-11.6,37.4c-5.8,18.2-14,31.4-31.4,31.4h-99.1c-1.4,0-22.7,0-22.7,0
				c-19.4,0-35-0.2-61.5-46.5c-0.8-1.4-1.6-2.9-2.5-4.3c19.8,27.8,33.5,28,49.8,28c0,0,21.4,0,22.7,0h99.1
				c17.3,0,25.6-13.2,31.3-31.3l11.6-37.4c2.5-7.9,3.3-16.3,2.1-24.5c5.9,2.2,10.9,7.7,13.5,19C431.3,313.5,430.6,323.3,427.8,332.5
				z"/>
		</g>
	</g>
	<g>
		<g>
			<path fill="#414042" d="M384.8,409.8H263c-24.1,0-41.9-3.5-69-50.9c-15.9-27.7-31.5-54.9-31.5-54.9l3.4-11.9l31.7-16.9l11.6,3.4
				l24.3,44c4.6,8.6,13.3,13.9,23,13.9c3.6,0,7.1-0.7,10.4-2.2c68.4-30.1,111.3-49.2,117.9-52.4c9-4.5,16.7-6.7,23.8-6.7
				c8.6,0,23.8,3.5,29.1,26.9c2.4,10.5,1.8,21.9-1.6,32.9l-11.6,37.4C421.1,382.7,412.5,409.8,384.8,409.8z M181.8,303.1
				c5.8,10,16.4,28.5,27.1,47.2c24.2,42.2,36.7,42.2,54.1,42.2h121.8c9.1,0,16.5-4.3,23.2-25.4l11.6-37.3c2.5-8.1,2.9-16.4,1.2-24
				c-3-13.5-9.3-13.5-12.3-13.5c-4.3,0-9.7,1.6-16.1,4.8c-9.2,4.6-78.3,35.1-118.6,52.8c-5.5,2.4-11.3,3.6-17.3,3.6
				c-16,0-30.6-8.8-38.1-22.9l-20.1-36.4L181.8,303.1z"/>
		</g>
	</g>
	<g>
		<g>
			<path fill="#D04527" d="M203.2,290.4l-28.1,15.1L83.5,134.3c-4.2-7.8-1.2-17.4,6.5-21.6l0,0c7.8-4.2,17.4-1.2,21.6,6.5
				L203.2,290.4z"/>
		</g>
	</g>
	<g>
		<g>
			<path fill="#414042" d="M179.2,313l-11.6-3.5L75.9,138.3c-3.1-5.8-3.8-12.4-1.9-18.7c1.9-6.3,6.1-11.4,11.9-14.5
				c3.6-1.9,7.6-2.9,11.6-2.9c9.1,0,17.4,5,21.7,13l91.6,171.1l-3.5,11.6L179.2,313z M97.5,119.4c-1.2,0-2.4,0.3-3.5,0.9
				c-1.7,0.9-3,2.5-3.6,4.4c-0.6,1.9-0.4,3.9,0.6,5.6l87.6,163.6l13-6.9L104,123.3C102.7,120.9,100.3,119.4,97.5,119.4z"/>
		</g>
	</g>
	<g>
		<g>
			<path fill="#EDB940" d="M343,324.7h-36.3c0,0,20.4,16.5,20.4,34.4c0,17.9,0,42.1,0,42.1H343h15.9c0,0,0-24.2,0-42.1
				c0-17.9,20.4-34.4,20.4-34.4H343z"/>
		</g>
	</g>
	<g>
		<g>
			<path fill="#414042" d="M358.9,409.8H327l-8.6-8.6v-42.1c0-11.2-12.4-23.8-17.2-27.7l5.4-15.3h72.5l5.4,15.3
				c-4.8,3.9-17.2,16.5-17.2,27.7v42.1L358.9,409.8z M335.6,392.6h14.6v-33.6c0-9.7,4.4-18.7,9.4-25.8h-33.4
				c5,7.1,9.4,16.1,9.4,25.8V392.6z"/>
		</g>
	</g>
	<g>
		<g>
			<circle fill="#E6E7E8" cx="343" cy="293.1" r="48.1"/>
		</g>
	</g>
	<g>
		<g>
			<path fill="#414042" d="M343,349.8c-31.3,0-56.7-25.4-56.7-56.7c0-31.3,25.4-56.7,56.7-56.7c31.3,0,56.7,25.4,56.7,56.7
				C399.7,324.3,374.2,349.8,343,349.8z M343,253.6c-21.8,0-39.5,17.7-39.5,39.5s17.7,39.5,39.5,39.5s39.5-17.7,39.5-39.5
				S364.7,253.6,343,253.6z"/>
		</g>
	</g>
</g>
</svg>
