<?xml version="1.0" encoding="utf-8"?>
<!-- Generator: Adobe Illustrator 18.0.0, SVG Export Plug-In . SVG Version: 6.00 Build 0)  -->
<!DOCTYPE svg PUBLIC "-//W3C//DTD SVG 1.1//EN" "http://www.w3.org/Graphics/SVG/1.1/DTD/svg11.dtd">
<svg version="1.1" id="Layer_1" xmlns="http://www.w3.org/2000/svg" xmlns:xlink="http://www.w3.org/1999/xlink" x="0px" y="0px"
	 viewBox="0 0 512 512" enable-background="new 0 0 512 512" xml:space="preserve">
<g>
	<g>
		<g>
			<path fill="#5ABA47" d="M212.8,238.7c0,0-82.9-21.2-111.1-106.6c-3.3-10,4.1-20.4,14.7-20.6h0c7.4-0.1,14,4.9,15.6,12.1
				C137.7,148.3,156.3,204,212.8,238.7z"/>
		</g>
	</g>
	<g>
		<g>
			<path fill="#414042" d="M212.9,247.2l0-5.3l-2.2,5.1c-3.6-0.9-87.8-23.4-117.1-112.2c-2.4-7.4-1.2-15.3,3.3-21.6
				c4.5-6.3,11.6-10,19.4-10.2l0.4,0c11.4,0,21.1,7.7,23.7,18.8c5,21.9,22.6,76.4,76.9,109.7l-4.5,10.4V247.2z M116.7,120
				c-2.4,0-4.5,1.1-5.9,3c-1.3,1.9-1.7,4.2-1,6.4c10.4,31.6,28.9,54,47.4,69.5c-21.2-28.8-30.1-58.2-33.6-73.4
				C123,122.3,120.1,120,116.7,120z"/>
		</g>
	</g>
	<g>
		<g>
			<g>
				<path fill="#A57AB6" d="M295.8,223.8c-11.7,36.2-50.7,56.1-87,44.5s-56.4-50.4-44.7-86.6c11.7-36.2,50.7-56.1,87-44.5
					C287.5,148.8,307.5,187.6,295.8,223.8z"/>
			</g>
		</g>
		<g>
			<g>
				<path fill="#8B699E" d="M295.8,223.9c-11.7,36.2-50.6,56.1-87,44.5c-26.3-8.4-44.1-31-47.5-56.6c8.1,9.5,18.9,17,31.7,21.1
					c36.4,11.6,75.4-8.3,87-44.5c3.2-10,4-20.2,2.8-30C297.6,175.9,303.3,200.5,295.8,223.9z"/>
			</g>
		</g>
		<g>
			<g>
				<path fill="#D5B9D9" d="M202.6,178c-6.5,4.4-13.9-4-8.6-9.7c7-7.5,17.4-13.7,33.1-15c3.6-0.3,8.5-0.3,14.1,0.7
					c7.8,1.5,6.8,13-1.1,12.9c-6.2,0-13.1,0.7-20.3,2.9C213.3,171.7,207.6,174.6,202.6,178z"/>
			</g>
		</g>
		<g>
			<g>
				<path fill="#414042" d="M229.9,280.1c-8.1,0-16.1-1.3-23.8-3.7c-40.8-13-63.4-56.7-50.3-97.3c10.4-32.1,40.1-53.7,74-53.7
					c8.1,0,16.1,1.3,23.8,3.7c19.8,6.3,35.9,19.9,45.4,38.3c9.5,18.4,11.2,39.3,4.9,59C293.6,258.5,263.8,280.1,229.9,280.1z
					 M229.9,142.4c-26.4,0-49.6,16.8-57.7,41.9c-10.2,31.7,7.4,65.7,39.2,75.9c6,1.9,12.3,2.9,18.6,2.9c26.4,0,49.6-16.8,57.7-41.9
					c5-15.3,3.6-31.7-3.8-46c-7.4-14.3-20-24.9-35.4-29.9C242.4,143.4,236.2,142.4,229.9,142.4z"/>
			</g>
		</g>
	</g>
	<g>
		<g>
			<g>
				<path fill="#A57AB6" d="M217.9,297.6c-11.7,36.2-50.7,56.1-87,44.5s-56.4-50.4-44.7-86.6s50.7-56.1,87-44.5
					S229.6,261.4,217.9,297.6z"/>
			</g>
		</g>
		<g>
			<g>
				<path fill="#8B699E" d="M217.9,297.6c-11.7,36.2-50.6,56.1-87,44.5c-26.3-8.4-44.1-31-47.5-56.6c8.1,9.5,18.9,17,31.7,21.1
					c36.4,11.6,75.4-8.3,87-44.5c3.2-10,4-20.2,2.8-30C219.7,249.6,225.5,274.1,217.9,297.6z"/>
			</g>
		</g>
		<g>
			<g>
				<path fill="#D5B9D9" d="M124.8,252.2c-6.5,4.4-13.9-4-8.6-9.7c7-7.5,17.4-13.7,33.1-15c3.6-0.3,8.5-0.3,14.1,0.7
					c7.8,1.5,6.8,13-1.1,12.9c-6.2,0-13.1,0.7-20.3,2.9C135.5,245.9,129.8,248.8,124.8,252.2z"/>
			</g>
		</g>
		<g>
			<g>
				<path fill="#414042" d="M152,353.9c-8.1,0-16.1-1.3-23.8-3.7c-19.8-6.3-35.9-19.9-45.4-38.3c-9.5-18.4-11.2-39.3-4.9-59
					c10.4-32.1,40.1-53.7,74-53.7c8.1,0,16.1,1.3,23.8,3.7c40.8,13,63.4,56.7,50.3,97.3C215.7,332.3,185.9,353.9,152,353.9z
					 M152,216.1c-26.4,0-49.6,16.8-57.7,41.9c-5,15.3-3.6,31.7,3.8,46c7.4,14.3,20,24.9,35.4,29.9c6,1.9,12.3,2.9,18.6,2.9
					c26.4,0,49.6-16.8,57.7-41.9c10.2-31.7-7.4-65.7-39.2-75.9C164.5,217.1,158.3,216.1,152,216.1z"/>
			</g>
		</g>
	</g>
	<g>
		<g>
			<g>
				<path fill="#A57AB6" d="M393.3,276.1c-11.7,36.2-50.7,56.1-87,44.5c-36.4-11.6-56.4-50.4-44.7-86.6s50.7-56.1,87-44.5
					S405,239.9,393.3,276.1z"/>
			</g>
		</g>
		<g>
			<g>
				<path fill="#8B699E" d="M393.3,276.1c-11.7,36.2-50.6,56.1-87,44.5c-26.3-8.4-44.1-31-47.5-56.6c8.1,9.5,18.9,17,31.7,21.1
					c36.4,11.6,75.4-8.3,87-44.5c3.2-10,4-20.2,2.8-30C395.2,228.1,400.9,252.7,393.3,276.1z"/>
			</g>
		</g>
		<g>
			<g>
				<path fill="#414042" d="M327.5,332.5c-8.1,0-16.1-1.3-23.8-3.7c-19.8-6.3-35.9-19.9-45.4-38.3c-9.5-18.4-11.2-39.3-4.9-59
					c10.4-32.1,40.1-53.7,74-53.7c8.1,0,16.1,1.3,23.8,3.7c40.8,13,63.4,56.7,50.3,97.3C391.1,310.9,361.4,332.5,327.5,332.5z
					 M327.4,194.7c-26.4,0-49.6,16.8-57.7,41.9c-5,15.3-3.6,31.7,3.8,46c7.4,14.3,20,24.9,35.4,29.9c6,1.9,12.3,2.9,18.6,2.9
					c26.4,0,49.6-16.8,57.7-41.9c10.2-31.7-7.4-65.7-39.2-75.9C340,195.7,333.7,194.7,327.4,194.7z"/>
			</g>
		</g>
		<g>
			<g>
				<path fill="#D5B9D9" d="M301.4,229.6c-6.5,4.4-13.9-4-8.6-9.7c7-7.5,17.4-13.7,33.1-15c3.6-0.3,8.5-0.3,14.1,0.7
					c7.8,1.5,6.8,13-1.1,12.9c-6.2,0-13.1,0.7-20.3,2.9C312.1,223.3,306.4,226.2,301.4,229.6z"/>
			</g>
		</g>
	</g>
	<g>
		<g>
			<path fill="#A57AB6" d="M325.3,346.2c-11.7,36.2-50.7,56.1-87,44.5s-56.4-50.4-44.7-86.6c11.7-36.2,50.7-56.1,87-44.5
				S337,310,325.3,346.2z"/>
		</g>
	</g>
	<g>
		<g>
			<path fill="#8B699E" d="M325.4,345.9c-11.7,36.2-50.6,56.1-87,44.5c-26.3-8.4-44.1-31-47.5-56.6c8.1,9.5,18.9,17,31.7,21.1
				c36.4,11.6,75.4-8.3,87-44.5c3.2-10,4-20.2,2.8-30C327.2,297.9,333,322.4,325.4,345.9z"/>
		</g>
	</g>
	<g>
		<g>
			<path fill="#414042" d="M259.4,402.5c-8.1,0-16.1-1.3-23.8-3.7c-40.8-13-63.4-56.7-50.3-97.3c10.4-32.1,40.1-53.7,74-53.7
				c8.1,0,16.1,1.3,23.8,3.7c19.8,6.3,35.9,19.9,45.4,38.3c9.5,18.4,11.2,39.3,4.9,59C323.1,380.9,293.3,402.5,259.4,402.5z
				 M259.4,264.8c-26.4,0-49.6,16.8-57.7,41.9c-10.2,31.7,7.4,65.7,39.2,75.9c6,1.9,12.3,2.9,18.6,2.9c26.4,0,49.6-16.8,57.7-41.9
				c5-15.3,3.6-31.7-3.8-46c-7.4-14.3-20-24.9-35.4-29.9C271.9,265.7,265.7,264.8,259.4,264.8z"/>
		</g>
	</g>
	<g>
		<g>
			<path fill="#D5B9D9" d="M232,302.2c-6.5,4.4-13.9-4-8.6-9.7c7-7.5,17.4-13.7,33.1-15c3.6-0.3,8.5-0.3,14.1,0.7
				c7.8,1.5,6.8,13-1.1,12.9c-6.2,0-13.1,0.7-20.3,2.9C242.7,295.9,237,298.8,232,302.2z"/>
		</g>
	</g>
	<g>
		<g>
			<path fill="#A57AB6" d="M425.8,378.3c-11.7,36.2-50.7,56.1-87,44.5s-56.4-50.4-44.7-86.6c11.7-36.2,50.7-56.1,87-44.5
				S437.5,342.1,425.8,378.3z"/>
		</g>
	</g>
	<g>
		<g>
			<path fill="#8B699E" d="M425.8,378.3c-11.7,36.2-50.6,56.1-87,44.5c-26.3-8.4-44.1-31-47.5-56.6c8.1,9.5,18.9,17,31.7,21.1
				c36.4,11.6,75.4-8.3,87-44.5c3.2-10,4-20.2,2.8-30C427.7,330.3,433.4,354.8,425.8,378.3z"/>
		</g>
	</g>
	<g>
		<g>
			<path fill="#414042" d="M360,434.6c-8.1,0-16.1-1.3-23.8-3.7c-40.8-13-63.4-56.7-50.3-97.3c10.4-32.1,40.1-53.7,74-53.7
				c8.1,0,16.1,1.3,23.8,3.7c19.8,6.3,35.9,19.9,45.4,38.3c9.5,18.4,11.2,39.3,4.9,59C423.6,413,393.9,434.6,360,434.6z M360,296.9
				c-26.4,0-49.6,16.8-57.7,41.9c-10.2,31.7,7.4,65.7,39.2,75.9c6,1.9,12.3,2.9,18.6,2.9c26.4,0,49.6-16.8,57.7-41.9
				c5-15.3,3.6-31.7-3.8-46c-7.4-14.3-20-24.9-35.4-29.9C372.5,297.9,366.2,296.9,360,296.9z"/>
		</g>
	</g>
	<g>
		<g>
			<path fill="#D5B9D9" d="M336.3,335.5c-6.5,4.4-13.9-4-8.6-9.7c7-7.5,17.4-13.7,33.1-15c3.6-0.3,8.5-0.3,14.1,0.7
				c7.8,1.5,6.8,13-1.1,12.9c-6.2,0-13.1,0.7-20.3,2.9C346.9,329.2,341.2,332.1,336.3,335.5z"/>
		</g>
	</g>
	<g>
		<g>
			<path fill="#5ABA47" d="M144.9,150.5c0,0,4.3-84.7,85.7-60.2C230.7,90.4,240.1,170.6,144.9,150.5z"/>
		</g>
	</g>
	<g>
		<g>
			<path fill="#414042" d="M173,162.3c-9.1,0-19.1-1.1-29.8-3.4l-7.1-1.5l0.4-7.3c1.3-25.1,16.9-72.7,66.9-72.7
				c9.2,0,19.2,1.6,29.9,4.8l5.4,1.6l0.7,5.5c0.2,1.3,3.5,31.9-15.6,53.3C211.9,155.7,194.9,162.3,173,162.3z M154.4,143.6
				c26.2,4.2,45.3,0.1,56.3-12.2c9.9-11,11.6-26.4,11.7-34.5c-6.8-1.7-13.2-2.5-19.1-2.5C166.7,94.4,156.9,128.2,154.4,143.6z"/>
		</g>
	</g>
	<g>
		<g>
			<path fill="#414042" d="M150.8,156.7L139,144.3c2.1-2,51.2-48.2,88.7-62l5.9,16C199.4,110.9,151.3,156.2,150.8,156.7z"/>
		</g>
	</g>
</g>
</svg>
