<?xml version="1.0" encoding="utf-8"?>
<!-- Generator: Adobe Illustrator 18.0.0, SVG Export Plug-In . SVG Version: 6.00 Build 0)  -->
<!DOCTYPE svg PUBLIC "-//W3C//DTD SVG 1.1//EN" "http://www.w3.org/Graphics/SVG/1.1/DTD/svg11.dtd">
<svg version="1.1" id="Layer_1" xmlns="http://www.w3.org/2000/svg" xmlns:xlink="http://www.w3.org/1999/xlink" x="0px" y="0px"
	 viewBox="0 0 512 512" enable-background="new 0 0 512 512" xml:space="preserve">
<g>
	<g>
		<g>
			<path fill="#F15A22" d="M386.7,238.6c14.5-15.5,23.1-37,21.9-60.6c-2.2-40.6-34-73.4-73.1-75.4c-38.9-2-71.8,25.8-79.5,63.4
				c-7.6-37.5-40.6-65.4-79.5-63.4c-38.7,2-70.4,34.2-73.1,74.3c-1.4,21.4,5.3,41.2,17.2,56.3l112.8,164.9
				c11.2,15.2,33.2,15.2,44.3,0L386.7,238.6z"/>
		</g>
	</g>
	<g>
		<g>
			<path fill="#EDB940" d="M220.7,136.9c-7.3-1.9-15.1-2.6-23.1-2.1c-38.4,2.4-69.7,34.6-72.3,74.4c-0.5,7.3,0,14.4,1.3,21.3
				c0.7,3.6-3.8,5.7-6,2.8l0,0c-11.9-15.2-18.6-34.9-17.2-56.4c2.6-39.1,32.9-70.9,70.6-74.1c20.8-1.7,40,5,54.7,17.3
				C236.4,126.5,230.3,139.3,220.7,136.9z"/>
		</g>
	</g>
	<g>
		<g>
			<path fill="#EDB940" d="M364.7,110.3c12.4,6.1,7.6,25.5-6.1,24.6c-1.7-0.1-3.5-0.2-5.3-0.2c-22,0-41.8,9.5-55.8,24.8
				c-10.8,11.7-28.7,11.6-39.5-0.1c-0.1-0.1-0.2-0.2-0.3-0.3c9.7-32.7,39.1-56.5,73.8-56.5C343.4,102.5,354.7,105.3,364.7,110.3z"/>
		</g>
	</g>
	<g>
		<g>
			<path fill="#D04527" d="M233.7,134.6c-1.1-5.5-2.8-10.8-4.9-15.8c2.6,2.1,5,4.4,7.3,6.9C235.1,128.6,234.3,131.6,233.7,134.6z"/>
		</g>
	</g>
	<g>
		<g>
			<path fill="#D04527" d="M408.7,181.3c0,21.8-8.4,41.5-22,56L277.8,396.8c-11.2,15.2-33.2,15.2-44.3,0l0,0l130.9-189.5
				c13.6-14.4,22-34.2,22-56c0-11.5-2.4-22.5-6.6-32.4C397.4,133.5,408.7,156,408.7,181.3z"/>
		</g>
	</g>
	<g>
		<g>
			<path fill="#414042" d="M255.7,418c-11.5,0-22.1-5.4-29.1-14.9c-0.1-0.1-0.1-0.2-0.2-0.2L113.8,238.3
				c-13.6-17.4-20.3-39.4-18.8-61.9c3-44.7,37.9-80,81.2-82.3c1.5-0.1,2.9-0.1,4.4-0.1c32,0,60.8,18.6,75.5,46.7
				c14.7-28,43.5-46.7,75.5-46.7c1.5,0,2.9,0,4.4,0.1c43.1,2.2,78.8,38.9,81.2,83.5c1.3,24.9-7.1,48.4-23.7,66.3l-108.5,159
				c-0.1,0.1-0.1,0.2-0.2,0.2C277.8,412.6,267.2,418,255.7,418z M240.5,393.2c3.7,5,9.2,7.8,15.2,7.8c6,0,11.5-2.8,15.2-7.8
				l108.8-159.4c0.3-0.4,0.5-0.7,0.8-1c13.7-14.6,20.7-33.8,19.6-54.3c-1.9-36-30.5-65.6-65-67.4c-1.2-0.1-2.3-0.1-3.5-0.1
				c-32.2,0-60.4,23.8-67.1,56.6c-0.8,4-4.3,6.8-8.4,6.8s-7.6-2.9-8.4-6.8c-6.9-34-36.9-58.3-70.6-56.5c-34.6,1.8-62.6,30.3-65,66.4
				c-1.2,18.4,4.2,36.3,15.4,50.5c0.1,0.1,0.2,0.3,0.3,0.5L240.5,393.2z"/>
		</g>
	</g>
</g>
</svg>
