<?xml version="1.0" encoding="utf-8"?>
<!-- Generator: Adobe Illustrator 18.0.0, SVG Export Plug-In . SVG Version: 6.00 Build 0)  -->
<!DOCTYPE svg PUBLIC "-//W3C//DTD SVG 1.1//EN" "http://www.w3.org/Graphics/SVG/1.1/DTD/svg11.dtd">
<svg version="1.1" id="Layer_1" xmlns="http://www.w3.org/2000/svg" xmlns:xlink="http://www.w3.org/1999/xlink" x="0px" y="0px"
	 viewBox="0 0 512 512" enable-background="new 0 0 512 512" xml:space="preserve">
<g>
	<g>
		<g>
			<path fill="#D67028" d="M422.5,225.1c-6-9.4-67.3-47.9-74.1-66.8c-5.7-15.9-15.2-22.4-25.3-28.1c-9.1-34.3-25.5-43.4-25.5-43.4
				c-7.2,9.3-6.5,44.5-6.5,44.5h0.8l-0.6,0.3c-13.6-20-31.8-32.2-31.8-32.2c-4.2,15-0.5,32.8,3.8,45.7l0,0
				c-8.8,4.8-16.4,9.3-20.6,11.8c-10.1,6.2-35.6,31.3-52,53.9c-2.6,3.4-5,6.9-7.4,10.6c-2,3-3.5,5.5-4.5,7.3c0,0.1-0.1,0.1-0.1,0.2
				c-2.6,4.5-5.1,9.2-7.4,14.2c-10.2,21.9-27.1,32.6-43.3,37.7c-25.7,8-42.9,32.3-42.9,59.2v84.7c64.7,0,126.4,5.3,150.1-22.7
				c34.8-41,31.3-76.8,32.1-88.9c0.6-9.6,16.9-47.7,25-66.3c2-4.7,6.4-8.1,11.5-8.9c0,0,0,0,0,0c0.6-0.1,1.1-0.1,1.7-0.2
				c4.4-0.2,27.5,7.5,38.2,11.2c19.7,6.8,29,6.5,38,9.5c4.5,1.5,9,4.9,12.4,7.9c4.1,3.6,10.2,3.8,14.6,0.6c4-3,7.8-7.1,8.2-12.1
				C417.1,255,434.5,243.9,422.5,225.1z"/>
		</g>
	</g>
	<g>
		<g>
			<path fill="#BC6128" d="M402.3,245.9c-17.8-5.6-98.8-33.3-105.8-35.7c0,0-0.1,0-0.1,0c-0.2-0.1-0.4-0.1-0.4-0.1l0,0
				c-14.3-4.5-26.3,40.8-28.6,103c0.6-9.7,16.9-47.7,24.9-66.2c2-4.7,6.4-8.1,11.5-8.9h0.1c0.6-0.1,1.1-0.1,1.6-0.2
				c0.2,0,0.4,0,0.6,0l0,0c3.5,0.3,13.2,3.1,22.6,6.2c0,0,0.1,0,0.1,0c0.8,0.3,1.7,0.5,2.5,0.8c0.2,0.1,0.4,0.1,0.6,0.2
				c0.6,0.2,1.3,0.4,1.9,0.6c0.4,0.1,0.7,0.2,1.1,0.4c0.3,0.1,0.6,0.2,0.9,0.3c0.7,0.2,1.3,0.4,1.9,0.6c0.1,0,0.2,0.1,0.3,0.1
				c0.8,0.3,1.5,0.5,2.2,0.7c0.1,0,0.1,0,0.2,0.1c0.6,0.2,1.2,0.4,1.7,0.6c0.5,0.2,1,0.3,1.4,0.5c1,0.3,2,0.7,2.9,1
				c0.6,0.2,1.1,0.4,1.6,0.5c0.3,0.1,0.7,0.2,1,0.3c16,4.9,24.3,5,32.5,7.7c4.5,1.5,9.1,4.9,12.5,7.9c4.1,3.6,10.2,3.9,14.6,0.6
				c0.9-0.7,1.8-1.4,2.7-2.2C413,256.2,410.9,248.6,402.3,245.9z"/>
		</g>
	</g>
	<g>
		<g>
			<path fill="#BC6128" d="M353.3,252c-2.9-0.8-6-1.8-9.5-3c-10.7-3.7-33.8-11.4-38.2-11.2c-0.6,0-1.1,0.1-1.6,0.2h-0.1
				c-5.1,0.8-9.5,4.1-11.5,8.9c-8,18.5-24.3,56.5-24.9,66.2c2.5-69.4,17.1-117.8,33.6-99.5C317.8,232.3,352.2,251.4,353.3,252z"/>
		</g>
	</g>
	<g>
		<g>
			<path fill="#414042" d="M137.3,433.8c-8.2,0-16.7-0.1-25.4-0.2c-8.7-0.1-17.7-0.2-26.6-0.2c-4.7,0-8.6-3.8-8.6-8.6v-84.7
				c0-31.2,19.7-58.3,49-67.5c17.5-5.5,30.3-16.6,37.9-33.1c2.2-4.8,4.7-9.5,7.5-14.5c0-0.1,0.1-0.1,0.1-0.2c1.1-2.1,2.7-4.8,5-8.2
				c2.3-3.6,5-7.4,7.7-11c16.8-23.1,43-49.1,54.4-56.1c3-1.8,11.1-6.7,20.9-12.1c4.2-2.3,9.4-0.7,11.7,3.4c2.3,4.2,0.7,9.4-3.4,11.7
				c-9.5,5.2-17.3,9.8-20.2,11.6c-8.7,5.3-33.4,29.4-49.6,51.7c-2.6,3.4-5,6.8-7.1,10.2c-2.3,3.4-3.4,5.3-4,6.4
				c0,0.1-0.1,0.2-0.2,0.3c-0.1,0.1-0.2,0.3-0.2,0.4c-2.7,4.6-5,9.1-7.1,13.5c-9.7,20.7-26.4,35.3-48.4,42.2
				c-22.1,6.9-37,27.5-37,51.1v76.1c6.2,0,12.3,0.1,18.2,0.2c50.9,0.6,98.9,1.1,116.7-19.9c29-34.2,29.6-64.3,29.9-78.7
				c0-2,0.1-3.7,0.2-5.2c0.5-8.1,7.9-28.1,25.6-69.1c3.2-7.5,10-12.7,18.1-14c0.9-0.1,1.8-0.2,2.7-0.3c1.7-0.1,6.8-0.3,41.3,11.6
				c11.3,3.9,19.1,5.4,25.3,6.5c4.5,0.9,8.5,1.6,12.6,3c4.9,1.6,10.1,4.9,15.4,9.6c1,0.9,2.6,1,3.8,0.1c3.4-2.5,4.7-4.7,4.8-5.8
				c0.2-2.7,1.7-5.2,4-6.6c2.9-2,9.3-7.8,2.8-18c-1.8-2.5-13-11.1-22-17.9c-27.1-20.6-48.1-37.4-52.9-50.6
				c-5.2-14.6-13.8-19.3-24.7-25.4l-2.3-1.3c-0.7-0.1-5-0.6-18.1,4.7c-4.4,1.8-9.4-0.4-11.2-4.8c-1.8-4.4,0.4-9.4,4.8-11.2
				c15.9-6.4,26-7.6,32.7-3.8l2.5,1.4c11.8,6.5,25.1,14,32.5,34.6c3.4,9.5,30.8,30.3,47.1,42.7c15.6,11.9,23.2,17.8,26.1,22.4
				c6.2,9.7,6.1,18,4.9,23.3c-1.7,7.8-6.5,13.1-9.8,16c-1.3,4.2-4.3,9.3-10.8,14.2c-7.7,5.7-18.4,5.3-25.5-1
				c-3.5-3.1-6.9-5.3-9.5-6.2c-3-1-6.2-1.6-10.3-2.4c-6.8-1.3-15.3-2.9-27.8-7.2c-19.1-6.6-32.3-10.4-35.3-10.7
				c-0.2,0-0.3,0-0.5,0.1c-2.2,0.3-4.1,1.8-5,3.8c-15.8,36.5-23.9,57.8-24.3,63.4c-0.1,1.2-0.1,2.7-0.1,4.4
				c-0.3,15.2-1,50.7-34,89.5C222.4,430.7,183.7,433.8,137.3,433.8z"/>
		</g>
	</g>
	<g>
		<g>
			<path fill="#414042" d="M270.7,171.8c-3.1,0-6.1-1.7-7.6-4.7c-0.8-1.6-20.2-39.8-11.7-70.1c0.7-2.7,2.7-4.8,5.3-5.7
				c2.6-1,5.5-0.6,7.8,0.9c1.3,0.9,31.8,21.6,44.6,54.2c1.7,4.4-0.4,9.4-4.9,11.1c-4.4,1.7-9.4-0.4-11.1-4.9
				c-6.2-15.8-17.8-28.6-26.6-36.7c0.6,17.3,8.2,36.1,11.9,43.3c2.2,4.2,0.5,9.4-3.7,11.6C273.4,171.5,272.1,171.8,270.7,171.8z"/>
		</g>
	</g>
	<g>
		<g>
			<path fill="#414042" d="M323.4,139.9c-3.8,0-7.3-2.6-8.3-6.5c-3.9-15.1-9.2-24.8-13.6-30.8c-1.2,8.1-1.9,19.2-1.7,28.5
				c0.1,4.7-3.7,8.7-8.4,8.8c-4.7,0.1-8.7-3.7-8.8-8.4c-0.2-9-0.1-39.1,8.3-49.9c2.6-3.4,7.3-4.3,11-2.3c2,1.1,20.2,12.2,29.9,49.9
				c1.2,4.6-1.6,9.3-6.2,10.5C324.9,139.8,324.1,139.9,323.4,139.9z"/>
		</g>
	</g>
	<g>
		<g>
			<path fill="#414042" d="M310.4,247.3c-2.6,0-5.2-1.2-6.9-3.5c-9.6-12.8-20.3-33.9-24.5-42.4c-10.6-2.8-18.8-8.4-24.3-16.6
				c-10.9-16.1-7.2-36.3-7-37.2c0.9-4.7,5.4-7.7,10.1-6.8c4.6,0.9,7.7,5.4,6.8,10c-0.6,3-4.6,29.7,22,34.7c2.7,0.5,5,2.3,6.2,4.8
				c0.1,0.3,13.6,28.6,24.6,43.3c2.8,3.8,2.1,9.2-1.7,12C314,246.7,312.2,247.3,310.4,247.3z"/>
		</g>
	</g>
	<g>
		<g>
			<path fill="#414042" d="M385,238.8c-0.6,0-1.3-0.1-2-0.2c-48.3-11.3-99.6-34.4-101.8-35.4c-4.3-2-6.2-7.1-4.3-11.4
				c2-4.3,7-6.2,11.4-4.3c0.5,0.2,51.9,23.4,98.6,34.3c4.6,1.1,7.5,5.7,6.4,10.3C392.5,236.1,388.9,238.8,385,238.8z"/>
		</g>
	</g>
	<g>
		<g>
			<path fill="#414042" d="M375.3,265.5c-0.4,0-0.8,0-1.2-0.1c-4.7-0.7-8-5-7.3-9.7c3.7-25.6,31-51.1,32.1-52.2
				c3.5-3.2,8.9-3,12.1,0.5c3.2,3.5,3,8.9-0.5,12.1c-6.7,6.2-24.5,25.8-26.8,42C383.2,262.4,379.5,265.5,375.3,265.5z"/>
		</g>
	</g>
	<g>
		<g>
			<circle fill="#414042" cx="385" cy="230.2" r="16.2"/>
		</g>
	</g>
	<g>
		<g>
			<circle fill="#414042" cx="284.9" cy="193.9" r="16.2"/>
		</g>
	</g>
</g>
</svg>
