<?xml version="1.0" encoding="utf-8"?>
<!-- Generator: Adobe Illustrator 18.0.0, SVG Export Plug-In . SVG Version: 6.00 Build 0)  -->
<!DOCTYPE svg PUBLIC "-//W3C//DTD SVG 1.1//EN" "http://www.w3.org/Graphics/SVG/1.1/DTD/svg11.dtd">
<svg version="1.1" id="Layer_1" xmlns="http://www.w3.org/2000/svg" xmlns:xlink="http://www.w3.org/1999/xlink" x="0px" y="0px"
	 viewBox="0 0 512 512" enable-background="new 0 0 512 512" xml:space="preserve">
<g>
	<g>
		<g>
			<path fill="#DB802D" d="M249.2,449.6c-15.6-0.5-31.6-3.9-47.6-10.9C133,409,103,325.5,144.9,261.7c26.3-40,68.3-72.5,67-124.8
				c0,0,82.5,51.8,62.7,129c0,0,59-46-11.7-157.9c10.9,7,22.3,15.1,30.8,22c13.2,10.8,24.9,23.8,36.7,36.2
				c20.1,21.1,35.7,46.5,45,74.1c16.8,49.4,15.5,106.2-14.4,150C336,426.8,294,451,249.2,449.6z"/>
		</g>
	</g>
	<g>
		<g>
			<path fill="#F2C637" d="M167.8,365.3c-4.9,2.8-2.2,15.5-1,19.8c2.7,9.5,8.3,18,14.7,25.4c12.4,14.2,29.8,26.3,48.3,30.8
				c31.6,7.8,66.9-2.8,90.5-25c6.9-6.5,12.9-14.1,17.4-22.5c3-5.5,11.3-21,8.7-27.4c-4.6-11.5-24.6,12.1-30.2,15.3
				c-14,7.9-31.7,10.7-47.1,5.6c-8.4-2.8-16.1-7.8-22.2-14.3c-6.8-7.3-7.9-16.2-12.7-24.7c-1.2-2.1-3.2-4-5.7-4.3
				c-2.6-0.3-5.1,1-6.9,2.9c-1.8,1.9-3,4.2-4.3,6.4c-3.9,6.7-9.1,13-16.2,16.4c-12,5.8-18-1.3-28.6-4.7
				C170.6,364.5,169,364.6,167.8,365.3z"/>
		</g>
	</g>
	<g>
		<g>
			<path fill="#414042" d="M252.8,458.5c-1.3,0-2.6,0-3.9-0.1c-17.2-0.5-34.3-4.4-50.8-11.6c-36.9-16-64.5-47-75.8-85
				c-10.8-36.2-5.4-73.5,15.3-105c7.3-11.1,15.7-21.6,23.9-31.8c21.8-27.2,42.5-52.9,41.6-88c-0.1-3.2,1.6-6.3,4.4-7.9
				c2.8-1.6,6.3-1.5,9,0.2c3,1.9,62.7,40.2,69.4,101.2c6.6-23.1,5.4-61.2-30.5-118c-2.2-3.5-1.7-8,1.2-10.9c2.9-2.9,7.5-3.4,11-1.1
				c11.8,7.6,23.3,15.8,31.6,22.6c11.5,9.4,21.8,20.3,31.7,30.8c1.9,2,3.8,4.1,5.8,6.1c21,22,37.3,48.7,47,77.3
				c19.5,57.3,13.9,114.9-15.5,157.8C341.2,434.8,298,458.5,252.8,458.5z M219.7,153.7c-4.7,32.8-24.9,57.9-44.5,82.4
				c-7.9,9.9-16.1,20.1-22.9,30.4c-17.8,27.1-22.5,59.2-13.2,90.3c9.8,33,33.9,59.9,66,73.9c14.4,6.3,29.4,9.7,44.3,10.1
				c1.1,0,2.2,0.1,3.3,0.1c38.9,0,77.5-21.3,101-55.6c26.2-38.4,31-90.2,13.3-142.2c-8.9-26.1-23.8-50.6-43.1-70.8
				c-1.9-2-3.9-4.1-5.8-6.1c-9.2-9.8-18.7-19.8-28.9-28.3c16,34.6,20.9,65.8,14.6,93.1c-6.5,28.2-23.1,41.4-23.8,41.9
				c-3,2.3-7.1,2.5-10.2,0.4c-3.1-2.1-4.6-5.9-3.7-9.5C279.5,211.6,240.7,171.2,219.7,153.7z"/>
		</g>
	</g>
	<g>
		<g>
			<path fill="#DB802D" d="M193.7,80.4c-17.7,12.8-31.2,30.7-38,51.4c-5.5,17-7.3,37.7,3,58.5c30.7,62.1,24.6,77.6,24.6,77.6
				s57.8-59,34.8-120.2s-8.9-78.6-8.9-78.6L193.7,80.4z"/>
		</g>
	</g>
	<g>
		<g>
			<path fill="#414042" d="M182.5,277.2c-1.7,0-3.4-0.5-4.8-1.6c-3.4-2.6-4.7-6.7-2.7-10.5c0.3-2.8,0.6-20.7-24.1-70.8
				c-9.9-20-11-41.9-3.5-65.2c7.2-22,21.8-41.8,41.2-55.8l15.5-11.2c3.7-2.7,9.2-2.4,12.2,1.1c2.9,3.4,3.1,8.2,0,11.4
				c-1.1,2.1-8.8,19.7,10.1,70.1c24.7,65.7-34.2,126.9-36.8,129.4C187.8,276,185.1,277.2,182.5,277.2z M196.2,89.6
				c-15.1,11.7-26.4,27.6-32.1,45c-6.1,18.7-5.3,36.2,2.5,51.9c13.5,27.2,20.2,46.1,23.4,59.1c14.4-20.5,33.9-57.7,19.9-94.8
				C199.4,122.8,196.2,103.1,196.2,89.6z"/>
		</g>
	</g>
	<g>
		<g>
			<path fill="#DB802D" d="M272.3,68.4c9.4,7,16.5,16.6,20,27.8c2.8,9.2,3.6,20.2-2,31.3c-16.9,33-13.8,41.4-13.8,41.4
				s-30.5-32-17.8-64.6c12.7-32.6,5.3-42,5.3-42L272.3,68.4z"/>
		</g>
	</g>
	<g>
		<g>
			<path fill="#414042" d="M276.6,177.7c-2.3,0-4.7-0.9-6.4-2.7c-1.4-1.5-34.2-36.5-19.6-73.9c9.4-24.2,6.5-33,6.1-34
				c-2.2-3.4-1.8-7.9,1.1-10.9c3.1-3.2,8-3.6,11.5-0.9l8.2,6.1c11.2,8.3,19.2,19.4,23.1,32.3c4.2,13.4,3.3,26.5-2.6,37.9
				c-12.4,24.2-13,33.4-13,35.2c0.2,0.7,0.3,1.4,0.3,2.2C285.4,173.8,281.5,177.7,276.6,177.7C276.6,177.7,276.6,177.7,276.6,177.7z
				 M274.3,82c-1,6.8-3.3,15.2-7.3,25.5c-5.6,14.3-0.8,29,5,39.7c2.3-6.3,5.7-14.1,10.5-23.6c3.8-7.4,4.3-15.7,1.5-24.7
				C282,92.7,278.7,87,274.3,82z"/>
		</g>
	</g>
</g>
</svg>
