<?xml version="1.0" encoding="utf-8"?>
<!-- Generator: Adobe Illustrator 18.0.0, SVG Export Plug-In . SVG Version: 6.00 Build 0)  -->
<!DOCTYPE svg PUBLIC "-//W3C//DTD SVG 1.1//EN" "http://www.w3.org/Graphics/SVG/1.1/DTD/svg11.dtd">
<svg version="1.1" id="Layer_1" xmlns="http://www.w3.org/2000/svg" xmlns:xlink="http://www.w3.org/1999/xlink" x="0px" y="0px"
	 viewBox="0 0 512 512" enable-background="new 0 0 512 512" xml:space="preserve">
<g>
	<g>
		<g>
			<path fill="#414042" d="M369.8,419.5c-0.5,0-1.1-0.1-1.6-0.2l-48.1-9.2c-2.6-0.5-4.8-2.1-6-4.4l-37.9-71.4
				c-1.2-2.3-1.3-5.1-0.3-7.5c1.1-2.4,3.2-4.2,5.7-4.9l40.1-10.4c-2.5-11.5-6.5-32.5-5.5-46.9c0.2-3.3,0.3-6.1,0.3-8.6
				c0.3-14.7,2.1-21.1,20.5-30.1c19.9-9.7,55-13.9,56.5-14.1c3.2-0.4,6.4,1.1,8.2,3.8l27.7,42.2c0.9,1.4,1.4,3,1.4,4.7v56.9
				c0,0.6-0.1,1.2-0.2,1.7l-10.1,49.1c-0.3,1.6-1.2,3.2-2.3,4.3L375.8,417C374.2,418.6,372,419.5,369.8,419.5z M327.3,394l39.6,7.6
				l37.2-37.2l9.4-45.7v-53.4l-23.3-35.6c-10.1,1.5-32.6,5.4-45.8,11.8c-10.7,5.2-10.7,5.2-10.8,14.9c0,2.5-0.1,5.7-0.3,9.4
				c-1.2,17.6,6.9,49.6,7,49.9c1.2,4.6-1.6,9.3-6.2,10.4l-37.7,9.8L327.3,394z"/>
		</g>
	</g>
	<g>
		<g>
			<path fill="#414042" d="M377,278.1H328c-4.7,0-8.6-3.8-8.6-8.6s3.8-8.6,8.6-8.6h48.4l44.5-6.7c4.7-0.7,9.1,2.5,9.8,7.2
				c0.7,4.7-2.5,9.1-7.2,9.8l-45.1,6.8C377.9,278.1,377.5,278.1,377,278.1z"/>
		</g>
	</g>
	<g>
		<g>
			<path fill="#414042" d="M377,330.7c-0.3,0-0.6,0-0.8,0l-45.1-4.4c-4.7-0.5-8.2-4.7-7.7-9.4c0.5-4.7,4.7-8.2,9.4-7.7l44.5,4.3
				l44.5-2.6c4.8-0.3,8.8,3.3,9.1,8.1c0.3,4.7-3.3,8.8-8.1,9.1l-45.1,2.6C377.4,330.7,377.2,330.7,377,330.7z"/>
		</g>
	</g>
	<g>
		<g>
			<path fill="#414042" d="M412,377.2c-0.2,0-0.3,0-0.5,0l-49.1-2.6c-1.2-0.1-2.3-0.4-3.4-0.9L287,338c-4.3-2.1-6-7.3-3.9-11.5
				c2.1-4.2,7.3-6,11.5-3.9l70.5,34.9l47.3,2.5c4.7,0.3,8.4,4.3,8.1,9C420.4,373.7,416.6,377.2,412,377.2z"/>
		</g>
	</g>
	<g>
		<g>
			<path fill="#414042" d="M321.6,410.3c-2.3,0-4.6-0.9-6.2-2.7c-3.3-3.4-3.1-8.9,0.3-12.1l37.5-35.5l15.2-39.4v-49.2L350.4,231
				c-1.9-4.3,0-9.4,4.3-11.4c4.3-1.9,9.4,0,11.4,4.3l18.8,42c0.5,1.1,0.7,2.3,0.7,3.5v52.6c0,1.1-0.2,2.1-0.6,3.1l-16.5,42.7
				c-0.5,1.2-1.2,2.3-2.1,3.1l-38.9,36.9C325.9,409.5,323.7,410.3,321.6,410.3z"/>
		</g>
	</g>
	<g>
		<g>
			<path fill="#F15A22" d="M201.5,299c-4.1,45.1-15.3,67-15.3,67c-27.7-0.7-68.6-15.9-68.6-15.9c5.4-29.6-22.5-74.5-24.1-77
				C110.8,296,201.5,299,201.5,299z"/>
		</g>
	</g>
	<g>
		<g>
			<path fill="#D04527" d="M93.5,198.4c0,0,26.8-131.6,197.4-88.7c0,0,109.8,23.2,103.6,110.7c0,0-68.9,7.1-69.7,30.4
				c-1.3,42.1,7.1,67,7.1,67l-48.2,12.5c0,0-9.8-51.8-25-64.3c-15.2-12.5-55.4-3.6-57.2,33c0,0-91.1-3-108.1-26.1
				C93.5,272.9,85.3,233,93.5,198.4z"/>
		</g>
	</g>
	<g>
		<g>
			<path fill="#F15A22" d="M385.1,173.4c-28.9-21-62.3-28-62.3-28c-170.6-42.9-197.4,88.7-197.4,88.7c-4.5,18.9-4,39.5-2.8,54.2
				c-13.3-3.7-24.4-8.7-29.3-15.4c0,0-8.2-39.9,0-74.5c0,0,26.8-131.6,197.4-88.7C290.9,109.7,359.5,124.2,385.1,173.4z"/>
		</g>
	</g>
	<g>
		<g>
			<path fill="#E6E7E8" d="M384.5,170.1l-204.7,45.6l-2.6-16.5l190.6-49.1C375.4,156.2,380.8,163.3,384.5,170.1z"/>
		</g>
	</g>
	<g>
		<g>
			<path fill="#E6E7E8" d="M283.7,330.3c-2.3,10.7-33.7,19.1-59.3,19.8c-25.6,0.7-26.7-23.1-26.7-23.1s0,0,0,0
				c1.5-8.1,2.9-17.4,3.8-28c1.8-36.6,42-45.5,57.2-33C273.9,278.5,283.7,330.3,283.7,330.3z"/>
		</g>
	</g>
	<g>
		<g>
			<path fill="#414042" d="M283.7,338.9c-1.6,0-3.2-0.5-4.6-1.3c-2-1.3-3.4-3.3-3.8-5.7c-3.8-20.2-13.2-52-22-59.3
				c-2.6-2.1-6.9-3.4-11.8-3.4c-12,0-30.2,8-31.3,30.2c-0.2,4.7-4.2,8.4-8.9,8.2c-15.9-0.5-96.2-4.4-114.7-29.6
				c-0.7-1-1.2-2.2-1.5-3.4c-0.3-1.7-8.4-42.1,0-78.1c0.5-2.4,6.1-27.2,25.8-52.1c18.7-23.7,54.1-51.9,116.4-51.9
				c20.2,0,42.2,3,65.5,8.8c2.7,0.6,29.9,6.8,56.8,23.6c37.8,23.7,56.3,56.9,53.5,96.1c-0.3,4.2-3.5,7.5-7.7,7.9
				c-29,3-61.7,13.1-61.9,22.1c-1.3,39.8,6.6,63.7,6.7,64c0.8,2.3,0.6,4.7-0.6,6.8c-1.1,2.1-3.1,3.6-5.4,4.2l-48.2,12.5
				C285.2,338.8,284.4,338.9,283.7,338.9z M241.4,252.1c8.9,0,17,2.6,22.7,7.3c13.5,11.1,22.3,43.5,26.1,60.4l31.1-8.1
				c-2.6-11.1-6.1-32.2-5.2-61.1c0.4-14.1,14-24.5,41.5-31.9c10.9-2.9,21.6-4.8,28.5-5.7c-0.2-29.6-15.4-54.2-45.3-73.1
				c-25.1-15.9-51.5-21.6-51.7-21.7c-0.1,0-0.2,0-0.3-0.1c-22-5.5-42.7-8.3-61.4-8.3c-105.8,0-125.2,89.5-125.4,90.4
				c0,0.1,0,0.2-0.1,0.3c-6.6,28-1.8,60.4-0.3,68.8c11.6,11.8,58,19,92.5,20.9C199.1,265.1,220.7,252.1,241.4,252.1z"/>
		</g>
	</g>
	<g>
		<g>
			<path fill="#414042" d="M186.3,374.6c-0.1,0-0.1,0-0.2,0c-28.8-0.7-69.7-15.8-71.4-16.5c-3.9-1.5-6.2-5.5-5.5-9.6
				c3.8-20.9-12.6-54.4-22.9-70.9c-2.4-3.9-1.4-9,2.4-11.6c3.8-2.6,9-1.7,11.7,1.9c10.1,13.5,65.4,21.3,101.4,22.5
				c2.4,0.1,4.6,1.1,6.2,2.9c1.6,1.8,2.3,4.1,2.1,6.5c-4.2,46.2-15.7,69.2-16.2,70.1C192.4,372.8,189.5,374.6,186.3,374.6z
				 M126.9,344.2c11.1,3.7,34.8,11.1,53.8,12.9c2.9-7.7,8.3-24.3,11.3-49.9c-17.8-1-51.9-3.9-77.3-12.3
				C121.3,309.6,127.5,327.9,126.9,344.2z"/>
		</g>
	</g>
	<g>
		<g>
			<path fill="#414042" d="M223.3,358.7c-24.1,0-33.6-18.7-34.2-31.3c0-0.1,0-0.2,0-0.4c0-0.5,0-1.1,0.1-1.6
				c1.6-8.6,2.9-17.7,3.7-27c1.6-30.4,25.6-46.4,48.5-46.4c9,0,17,2.6,22.7,7.3c16.7,13.8,26.2,60.2,28,69.3c0.2,1.1,0.2,2.3,0,3.4
				c-4.4,20.3-51.4,26.1-67.5,26.6C224.1,358.7,223.7,358.7,223.3,358.7z M206.4,327.4c0.5,4.1,3,14,16.9,14c0.3,0,0.6,0,0.8,0
				c25.3-0.7,46-8.1,50.6-12.5c-4.1-20.3-13.1-49.5-21.4-56.4c-2.6-2.1-6.9-3.4-11.8-3.4c-12,0-30.2,8-31.3,30.2c0,0.1,0,0.2,0,0.4
				C209.2,309.2,208,318.5,206.4,327.4z"/>
		</g>
	</g>
	<g>
		<g>
			<path fill="#F15A22" d="M384.5,170.1l-204.7,45.6l-2.6-16.5l190.6-49.1C375.4,156.2,380.8,163.3,384.5,170.1z"/>
		</g>
	</g>
	<g>
		<g>
			<path fill="#414042" d="M278.1,201.3c-2.2,0-4.4-0.8-6-2.4l-15.9-15.3c-3.4-3.3-3.5-8.7-0.2-12.2c3.3-3.4,8.7-3.5,12.2-0.2
				l12.7,12.2l102.3-20.2c4.7-0.9,9.2,2.1,10.1,6.8c0.9,4.7-2.1,9.2-6.8,10.1l-106.7,21C279.2,201.2,278.6,201.3,278.1,201.3z"/>
		</g>
	</g>
	<g>
		<g>
			<path fill="#414042" d="M227.3,330.7c-22,0-29.7-37.3-31-44.8c-0.8-4.7,2.3-9.1,7-9.9c4.7-0.8,9.1,2.3,10,7
				c2.7,15.1,9.8,30.6,14.1,30.6c18.4,0,24.2-2.9,26.1-4.8c2.2-3.5,6.2-20.2,5.6-29.9c-0.3-4.7,3.3-8.8,8.1-9.1
				c4.8-0.2,8.8,3.3,9.1,8.1c0.7,11.4-3.6,35.4-9.9,42.3C259.6,327.4,247.5,330.7,227.3,330.7z"/>
		</g>
	</g>
	<g>
		<g>
			<path fill="#414042" d="M182.8,243.8c-1.7,0-3.5-0.5-4.9-1.6c-1.9-1.3-3.2-3.4-3.6-5.7l-5.7-36c-0.7-4.4,2.1-8.6,6.3-9.7
				l190.6-49.1c2.6-0.7,5.4-0.1,7.5,1.6c24.7,19.5,28,48.7,28.1,49.9c0.5,4.4-2.5,8.5-6.9,9.3l-209.8,41
				C183.9,243.8,183.4,243.8,182.8,243.8z M186.9,205.6l3.1,19.5l192.5-37.6c-2.2-7.4-6.9-18.7-16.8-27.9L186.9,205.6z"/>
		</g>
	</g>
	<g>
		<g>
			<path fill="#414042" d="M267.6,184.5c-2,0-3.9-0.7-5.6-2c-3.6-3.1-4.1-8.5-1-12.1c19.1-22.4,21.2-60.7,21.2-61.1
				c0.2-4.7,4.3-8.4,9-8.2c4.7,0.2,8.4,4.3,8.2,9c-0.1,1.8-2.5,44.6-25.3,71.4C272.5,183.5,270,184.5,267.6,184.5z"/>
		</g>
	</g>
</g>
</svg>
