<svg xmlns="http://www.w3.org/2000/svg" xmlns:xlink="http://www.w3.org/1999/xlink" version="1.1" width="256" height="256" viewBox="0 0 256 256" xml:space="preserve">
<g style="stroke: none; stroke-width: 0; stroke-dasharray: none; stroke-linecap: butt; stroke-linejoin: miter; stroke-miterlimit: 10; fill: none; fill-rule: nonzero; opacity: 1;" transform="translate(1.4065934065934016 1.4065934065934016) scale(2.81 2.81)">
	<path d="M 87.202 41.844 H 2.798 C 1.253 41.844 0 40.592 0 39.047 V 9.252 c 0 -1.545 1.253 -2.798 2.798 -2.798 h 84.405 C 88.747 6.454 90 7.707 90 9.252 v 29.795 C 90 40.592 88.747 41.844 87.202 41.844 z" style="stroke: none; stroke-width: 1; stroke-dasharray: none; stroke-linecap: butt; stroke-linejoin: miter; stroke-miterlimit: 10; fill: rgb(52,57,54); fill-rule: nonzero; opacity: 1;" transform=" matrix(1 0 0 1 0 0) " stroke-linecap="round"/>
	<path d="M 82.116 24.149 H 7.884 V 17.73 c 0 -1.366 1.108 -2.474 2.474 -2.474 h 69.283 c 1.366 0 2.474 1.108 2.474 2.474 V 24.149 z" style="stroke: none; stroke-width: 1; stroke-dasharray: none; stroke-linecap: butt; stroke-linejoin: miter; stroke-miterlimit: 10; fill: rgb(46,50,47); fill-rule: nonzero; opacity: 1;" transform=" matrix(1 0 0 1 0 0) " stroke-linecap="round"/>
	<rect x="7.88" y="24.15" rx="0" ry="0" width="74.23" height="8.89" style="stroke: none; stroke-width: 1; stroke-dasharray: none; stroke-linecap: butt; stroke-linejoin: miter; stroke-miterlimit: 10; fill: rgb(84,92,86); fill-rule: nonzero; opacity: 1;" transform=" matrix(1 0 0 1 0 0) "/>
	<rect x="7.88" y="24.15" rx="0" ry="0" width="74.23" height="3.72" style="stroke: none; stroke-width: 1; stroke-dasharray: none; stroke-linecap: butt; stroke-linejoin: miter; stroke-miterlimit: 10; fill: rgb(108,117,108); fill-rule: nonzero; opacity: 1;" transform=" matrix(1 0 0 1 0 0) "/>
	<path d="M 25.642 24.149 l 0 57.041 c 0 1.301 1.055 2.355 2.355 2.355 h 34.006 c 1.301 0 2.355 -1.055 2.355 -2.355 V 24.149 H 25.642 z" style="stroke: none; stroke-width: 1; stroke-dasharray: none; stroke-linecap: butt; stroke-linejoin: miter; stroke-miterlimit: 10; fill: rgb(49,139,54); fill-rule: nonzero; opacity: 1;" transform=" matrix(1 0 0 1 0 0) " stroke-linecap="round"/>
	<path d="M 28.859 24.149 v 49.454 c 3.874 0 7.014 3.14 7.014 7.014 h 18.292 c 0 -3.874 3.14 -7.014 7.014 -7.014 V 24.149 H 28.859 z" style="stroke: none; stroke-width: 1; stroke-dasharray: none; stroke-linecap: butt; stroke-linejoin: miter; stroke-miterlimit: 10; fill: rgb(59,158,65); fill-rule: nonzero; opacity: 1;" transform=" matrix(1 0 0 1 0 0) " stroke-linecap="round"/>
	<circle cx="30.536" cy="78.866" r="1.756" style="stroke: none; stroke-width: 1; stroke-dasharray: none; stroke-linecap: butt; stroke-linejoin: miter; stroke-miterlimit: 10; fill: rgb(59,158,65); fill-rule: nonzero; opacity: 1;" transform="  matrix(1 0 0 1 0 0) "/>
	<circle cx="59.426" cy="78.866" r="1.756" style="stroke: none; stroke-width: 1; stroke-dasharray: none; stroke-linecap: butt; stroke-linejoin: miter; stroke-miterlimit: 10; fill: rgb(59,158,65); fill-rule: nonzero; opacity: 1;" transform="  matrix(1 0 0 1 0 0) "/>
	<circle cx="45.003" cy="45.903000000000006" r="13.803" style="stroke: none; stroke-width: 1; stroke-dasharray: none; stroke-linecap: butt; stroke-linejoin: miter; stroke-miterlimit: 10; fill: rgb(49,139,54); fill-rule: nonzero; opacity: 1;" transform="  matrix(1 0 0 1 0 0) "/>
	<path d="M 46.367 41.248 c -1.6 0.765 -2.341 2.659 -2.807 4.222 c -0.56 1.878 -1.043 2.282 -1.224 2.369 c -0.118 0.057 -0.311 0.031 -0.529 -0.058 c -0.625 -0.28 -1.062 -1.098 -1.062 -1.991 c 0 -0.641 0.226 -1.245 0.585 -1.638 c 0.265 -0.29 0.316 -0.716 0.155 -1.074 l -0.421 -0.939 c -0.278 -0.621 -1.087 -0.816 -1.596 -0.365 c -0.777 0.687 -1.328 1.646 -1.575 2.733 h -1.11 c -0.564 0 -1.021 0.457 -1.021 1.021 v 0.964 c 0 0.564 0.457 1.021 1.021 1.021 h 1.229 c 0.429 1.353 1.349 2.467 2.612 3.032 c 1.347 0.552 2.381 0.309 3.01 0.007 c 1.601 -0.765 2.342 -2.658 2.808 -4.222 c 0.56 -1.879 1.042 -2.283 1.224 -2.37 c 0.117 -0.056 0.311 -0.03 0.529 0.059 c 0.625 0.28 1.062 1.099 1.062 1.991 c 0 0.641 -0.225 1.245 -0.584 1.637 c -0.265 0.29 -0.315 0.715 -0.155 1.074 l 0.421 0.939 c 0.281 0.627 1.096 0.812 1.611 0.356 c 0.721 -0.639 1.249 -1.511 1.516 -2.503 h 1.154 c 0.564 0 1.021 -0.457 1.021 -1.021 v -0.964 c 0 -0.564 -0.457 -1.021 -1.021 -1.021 h -1.155 c -0.394 -1.454 -1.354 -2.655 -2.685 -3.251 C 48.031 40.704 46.997 40.947 46.367 41.248 z" style="stroke: none; stroke-width: 1; stroke-dasharray: none; stroke-linecap: butt; stroke-linejoin: miter; stroke-miterlimit: 10; fill: rgb(59,158,65); fill-rule: nonzero; opacity: 1;" transform=" matrix(1 0 0 1 0 0) " stroke-linecap="round"/>
	<path d="M 46.464 64.213 v 6.877 c 0 0.809 -0.655 1.464 -1.464 1.464 h 0 c -0.809 0 -1.464 -0.655 -1.464 -1.464 v -6.877 c 0 -0.809 0.655 -1.464 1.464 -1.464 h 0 C 45.809 62.749 46.464 63.404 46.464 64.213 z" style="stroke: none; stroke-width: 1; stroke-dasharray: none; stroke-linecap: butt; stroke-linejoin: miter; stroke-miterlimit: 10; fill: rgb(49,139,54); fill-rule: nonzero; opacity: 1;" transform=" matrix(1 0 0 1 0 0) " stroke-linecap="round"/>
	<path d="M 43.536 24.149 v 3.439 c 0 0.809 0.655 1.464 1.464 1.464 s 1.464 -0.655 1.464 -1.464 v -3.439 H 43.536 z" style="stroke: none; stroke-width: 1; stroke-dasharray: none; stroke-linecap: butt; stroke-linejoin: miter; stroke-miterlimit: 10; fill: rgb(49,139,54); fill-rule: nonzero; opacity: 1;" transform=" matrix(1 0 0 1 0 0) " stroke-linecap="round"/>
</g>
</svg>