<?xml version="1.0" encoding="utf-8"?>
<!-- Generator: Adobe Illustrator 18.0.0, SVG Export Plug-In . SVG Version: 6.00 Build 0)  -->
<!DOCTYPE svg PUBLIC "-//W3C//DTD SVG 1.1//EN" "http://www.w3.org/Graphics/SVG/1.1/DTD/svg11.dtd">
<svg version="1.1" id="Layer_1" xmlns="http://www.w3.org/2000/svg" xmlns:xlink="http://www.w3.org/1999/xlink" x="0px" y="0px"
	 viewBox="0 0 512 512" enable-background="new 0 0 512 512" xml:space="preserve">
<g>
	<g>
		<g>
			<path fill="#5F8F53" d="M355.6,405.1c-69.1,45.7-169.7,16-224.7-66.3s-43.6-186.1,25.5-231.9s169.7-16,224.7,66.3
				S424.7,359.4,355.6,405.1z"/>
		</g>
	</g>
	<g>
		<g>
			<path fill="#537C47" d="M355.6,405.1c-69.1,45.7-169.7,16.1-224.8-66.3c-9.5-14.3-17.1-29.2-22.7-44.4c2.6,4.7,5.5,9.3,8.5,13.9
				c55,82.3,155.6,112,224.7,66.3c57.1-37.8,74.8-115.3,48.1-187.6C434.7,266.8,420.9,361.9,355.6,405.1z"/>
		</g>
	</g>
	<g>
		<g>
			<path fill="#83A03D" d="M368.5,156.3l-250.7,160c0,0-23.7-105.8,69.4-163.9c65.7-41,124.2-32.1,181.2,3.7
				C368.5,156.2,368.5,156.3,368.5,156.3z"/>
		</g>
	</g>
	<g>
		<g>
			<path fill="#96C93D" d="M117.8,316.2c1.6-1,25.7,10.3,28.4,11c23.1,6.6,46.9,8.3,70.7,5.4c47-5.8,89.5-26.8,119.1-64.4
				c24.2-30.8,35.3-73.4,29.3-112.3C365.3,155.9,117.9,316.2,117.8,316.2z"/>
		</g>
	</g>
	<g>
		<g>
			<path fill="#96C93D" d="M203.6,260.1c0,0-17.4-38.2,16.4-61.2c32.7-22.2,66.6,8.8,66.6,8.8L203.6,260.1z"/>
		</g>
	</g>
	<g>
		<g>
			<path fill="#C7DD6D" d="M286.5,207.7c0,0,16.8,37.7-17.2,60.4c-35.7,23.8-65.7-8-65.7-8L286.5,207.7z"/>
		</g>
	</g>
	<g>
		<g>
			<path fill="#414042" d="M282.5,435.1c-60.2,0-121-35.1-158.7-91.6C96,302,83.5,254,88.6,208.2c5.1-46.3,27.5-84.8,63.1-108.4
				c22.6-15,49.6-22.9,77.9-22.9c60.2,0,121,35.1,158.7,91.6C416,210,428.5,258,423.4,303.8c-5.1,46.3-27.5,84.8-63.1,108.4
				C337.7,427.2,310.8,435.1,282.5,435.1z M229.5,94c-24.9,0-48.6,6.9-68.4,20.1c-31.3,20.7-51,54.8-55.5,96
				c-4.6,41.8,6.9,85.9,32.4,124c34.6,51.8,90,84,144.5,84c24.9,0,48.6-6.9,68.4-20.1c31.3-20.7,51-54.8,55.5-96
				c4.6-41.8-6.9-85.9-32.4-124C339.4,126.1,284,94,229.5,94z"/>
		</g>
	</g>
	<g>
		<g>
			<path fill="#414042" d="M111.3,326.4l-1.9-8.3c-0.3-1.1-6.2-28.5-0.3-63.4c5.5-32.5,22.7-77.8,73.4-109.5
				c33.2-20.8,65.6-30,98.8-28.2c29.8,1.6,59.7,12,91.5,31.9l2.2,2.1l-7.3,6l-4,6.4c-60.6-38-115.3-39.1-172.1-3.7
				c-36.2,22.6-58.3,55.4-65.6,97.3c-5.5,31.8,0,57.3,0,57.5l1.8,8.3L111.3,326.4z"/>
		</g>
	</g>
	<g>
		<g>
			<path fill="#414042" d="M194.7,342.5c-17.2,0-34.2-2.4-50.8-7.1c-1.3-0.4-3.3-1.2-9.1-3.7c-4-1.7-11.3-4.9-15.3-6.4l-4.1,2.7
				l-9.3-14.3l7.2-4.6c4.8-3.1,8.3-1.7,28.5,7c2.7,1.2,6.1,2.7,7.1,3c21.8,6.2,44.4,7.9,67.2,5.1c47.2-5.8,86.4-27,113.4-61.2
				c22.6-28.8,33.2-69.3,27.6-105.7l-1.3-8.4l16.9-2.6l1.3,8.4c6.4,41.6-5.1,86-31,118.8c-29.8,37.9-73,61.3-124.8,67.6
				C210.2,342.1,202.4,342.5,194.7,342.5z"/>
		</g>
	</g>
	<g>
		<g>
			<path fill="#414042" d="M218.4,188c0.8,3.7-3.6,6.3-6.4,3.8c-5.4-4.7-10.7-11.1-4.5-14.8C213.7,173.2,216.8,180.9,218.4,188z"/>
		</g>
	</g>
	<g>
		<g>
			<path fill="#414042" d="M201.2,200.8c2.6,2.7,0.3,7.2-3.5,6.6c-7.1-1.1-15-3.8-11.7-10.2C189.4,190.8,196.1,195.7,201.2,200.8z"
				/>
		</g>
	</g>
	<g>
		<g>
			<path fill="#414042" d="M277.1,276.2c-0.5-3.4,3.4-5.7,6.2-3.7c4.8,3.4,9.4,8.3,3.2,12.1C280.3,288.5,278,282,277.1,276.2z"/>
		</g>
	</g>
	<g>
		<g>
			<path fill="#414042" d="M294.2,258.9c-1.8-2.9,0.8-6.6,4.2-5.9c5.8,1.2,11.9,3.8,7.8,9.8C302,268.8,297.3,263.9,294.2,258.9z"/>
		</g>
	</g>
	<g>
		<g>
			<path fill="#414042" d="M301.7,238.5c-3.1-1.5-2.9-6,0.3-7.2c5.5-2.1,12.1-3.2,11.9,4.1C313.7,242.7,307,241.1,301.7,238.5z"/>
		</g>
	</g>
	<g>
		<g>
			<path fill="#414042" d="M301.5,216.5c-3.3-1-3.8-5.5-0.8-7.2c5.1-2.9,11.5-5,12.4,2.2C314,218.8,307.2,218.2,301.5,216.5z"/>
		</g>
	</g>
	<g>
		<g>
			<path fill="#414042" d="M252.4,284.2c0.4-3.4,4.8-4.6,7-2c3.7,4.5,6.9,10.4-0.1,12.5C252.2,296.8,251.7,290,252.4,284.2z"/>
		</g>
	</g>
	<g>
		<g>
			<path fill="#414042" d="M225.2,285.5c1.4-3.2,5.9-3.1,7.3,0.1c2.3,5.3,3.6,11.9-3.7,11.9C221.4,297.5,222.8,290.9,225.2,285.5z"
				/>
		</g>
	</g>
	<g>
		<g>
			<path fill="#414042" d="M203.4,275.9c3.2-1.4,6.5,1.7,5.3,5c-1.9,5.5-5.4,11.2-10.8,6.3C192.4,282.2,198,278.3,203.4,275.9z"/>
		</g>
	</g>
	<g>
		<g>
			<path fill="#414042" d="M269,183.5c-1.5,3.4-6.6,2.9-7.4-0.8c-1.6-7-1.9-15.3,5.3-14.6C274,168.9,271.9,176.9,269,183.5z"/>
		</g>
	</g>
	<g>
		<g>
			<path fill="#414042" d="M243.9,181.5c-0.6,3.7-5.6,4.5-7.4,1.2c-3.3-6.4-5.9-14.3,1.3-15.4C245,166.1,245.1,174.4,243.9,181.5z"
				/>
		</g>
	</g>
	<g>
		<g>
			<path fill="#414042" d="M288.8,192.8c-2.6,2.7-7.2,0.6-6.8-3.1c0.8-7.1,3.1-15.1,9.7-12.1C298.3,180.6,293.7,187.5,288.8,192.8z"
				/>
		</g>
	</g>
	<g>
		<g>
			<path fill="#414042" d="M192,227.2c3.4,1.7,2.6,6.7-1.1,7.4c-7.1,1.3-15.4,1.3-14.4-5.8C177.5,221.6,185.5,224,192,227.2z"/>
		</g>
	</g>
	<g>
		<g>
			<path fill="#414042" d="M189.6,249.7c3.7-0.3,5.8,4.4,2.9,6.8c-5.4,4.7-12.5,9.1-15.3,2.5C174.4,252.4,182.4,250.3,189.6,249.7z"
				/>
		</g>
	</g>
</g>
</svg>
