<?xml version="1.0" encoding="utf-8"?>
<!-- Generator: Adobe Illustrator 18.0.0, SVG Export Plug-In . SVG Version: 6.00 Build 0)  -->
<!DOCTYPE svg PUBLIC "-//W3C//DTD SVG 1.1//EN" "http://www.w3.org/Graphics/SVG/1.1/DTD/svg11.dtd">
<svg version="1.1" id="Layer_1" xmlns="http://www.w3.org/2000/svg" xmlns:xlink="http://www.w3.org/1999/xlink" x="0px" y="0px"
	 viewBox="0 0 512 512" enable-background="new 0 0 512 512" xml:space="preserve">
<g>
	<g>
		<g>
			<path fill="#5ABA47" d="M231.7,193.9c0,0-79.4-16.3-110-95.8c-3.6-9.3,2.9-19.5,13-20.1h0c7-0.5,13.4,4,15.3,10.8
				C156.5,111.8,176.6,163.7,231.7,193.9z"/>
		</g>
	</g>
	<g>
		<g>
			<path fill="#414042" d="M231.7,202.4c-0.6,0-1.2-0.1-1.7-0.2c-3.4-0.7-84.3-18.2-116.2-101.1c-2.7-7-1.9-14.7,2.2-21
				c4.1-6.3,10.7-10.2,18.2-10.7c11.1-0.7,21.2,6.5,24.1,17c5.7,20.4,24.7,70.7,77.1,99.8c2.9,1.4,4.9,4.3,4.9,7.7
				c0,4.6-3.7,8.4-8.3,8.5C231.8,202.4,231.8,202.4,231.7,202.4z M135.6,86.4c-0.1,0-0.3,0-0.4,0c-2,0.1-3.8,1.2-4.9,2.9
				c-1.1,1.7-1.3,3.8-0.6,5.7c10.6,27.6,27.6,47.1,44.8,60.8c-19.7-25.4-28.9-51.2-32.7-64.9C141,88.3,138.5,86.4,135.6,86.4z"/>
		</g>
	</g>
	<g>
		<g>
			<path fill="#EDB940" d="M413.5,386.3c-2.4-7.7-1.9-14.1-0.6-18.8c1.6-2.9,3-5.8,4.3-8.8c0.3-0.4,0.5-0.7,0.5-0.7l-0.4,0.3
				c19-43.1,13.1-99.4-19.8-146.2c-35.5-50.4-92.2-75.2-142.3-67.3c-4.7-0.5-10.5-2.3-16.5-6.9c-10.5-8-24.7-3-34.9,2.8l0-0.1
				c0,0-2.8,1.6-6.7,4.3c-3.9,2.7-6.4,4.8-6.4,4.8l0,0.1c-8.9,7.6-18.5,19.2-14.6,31.7c2.3,7.2,2,13.2,0.9,17.7
				c-24.7,44.1-20.6,105.7,14.9,156.1C224.9,402.3,276,427,323.3,424l-0.4,0.3c0,0,0.3-0.1,0.8-0.3c3.3-0.2,6.5-0.5,9.8-1
				c4.9,0.4,11.1,2.1,17.5,7c10.5,8,24.7,3,34.9-2.8l0,0.1c0,0,2.8-1.6,6.7-4.3c3.9-2.7,6.4-4.8,6.4-4.8l0-0.1
				C407.9,410.4,417.5,398.9,413.5,386.3z"/>
		</g>
	</g>
	<g>
		<g>
			<path fill="#BB8B30" d="M399,418L399,418c0,0.1-2.4,2.2-6.3,4.9c-3.9,2.7-6.7,4.3-6.7,4.3l0-0.1c-10.2,5.8-24.4,10.8-34.9,2.8
				c-6.5-4.9-12.6-6.6-17.5-7c-3.2,0.5-6.5,0.8-9.8,1c-0.4,0.1-0.6,0.2-0.7,0.2l0.3-0.2c-47.2,3-98.4-21.7-131.3-68.5
				c-24.9-35.3-34.3-76.1-29.3-112.5c3.2,25.2,12.9,50.9,29.3,74.2c32.9,46.7,84.1,71.5,131.3,68.5L323,386c0.1,0,0.4-0.1,0.8-0.3
				c3.3-0.2,6.5-0.5,9.8-1c4.9,0.4,11,2.1,17.5,7c10.5,8,24.7,2.9,34.9-2.8l0,0.1c0,0,2.8-1.6,6.7-4.3c3.9-2.7,6.4-4.8,6.4-4.8
				l0-0.1c4.5-3.8,9.1-8.6,12.2-14c0.5,0.8,1,1.6,1.6,2.4c-1.2,4.7-1.6,10.8,0.7,18.3C417.5,398.9,407.9,410.4,399,418z"/>
		</g>
	</g>
	<g>
		<g>
			<path fill="#414042" d="M363.8,442.6c-6.8,0-12.9-2-18-5.9c-3.9-3-7.9-4.7-12.1-5.2c-2.6,0.4-5.3,0.7-8.3,0.9
				c-1.3,0.4-2.6,0.5-3.9,0.2c-2,0.1-4,0.1-6,0.1c-49.8,0-98.6-27-130.5-72.3c-36.2-51.4-42.4-115.6-16-164
				c0.7-3.8,0.4-7.9-0.9-12.2c-2.9-9.2-2.4-23.6,16.3-39.9c0.2-0.3,0.5-0.5,0.8-0.8c0.1-0.1,2.9-2.5,7.1-5.4
				c4.2-2.9,7.3-4.7,7.5-4.8c0.3-0.2,0.7-0.3,1-0.5c17.2-9.4,32.4-9.9,43.3-1.6c3.6,2.7,7.3,4.4,11.2,5c6.2-0.9,12.5-1.4,18.9-1.4
				c49.1,0,99.1,27.7,130.5,72.4c33.1,47,41.3,105.1,21.6,152.2c-0.2,1.3-0.8,2.6-1.6,3.7c-1.2,2.7-2.4,5.1-3.6,7.4
				c-1,4-0.7,8.4,0.8,13.1c2.9,9.2,2.4,23.6-16.3,39.9c-0.2,0.3-0.5,0.5-0.8,0.8c-0.1,0.1-2.9,2.5-7.1,5.4c-4.2,2.9-7.3,4.7-7.5,4.8
				c-0.3,0.2-0.7,0.3-1,0.5C379.9,440.1,371.5,442.6,363.8,442.6z M333.4,414.5c0.2,0,0.4,0,0.6,0c7.8,0.6,15.2,3.5,22.1,8.7
				c2.1,1.6,4.6,2.4,7.6,2.4c4.9,0,11.1-2,17.8-5.8c0.3-0.2,0.6-0.3,1-0.5c1-0.6,2.9-1.7,5.1-3.3c2.3-1.6,4-2.9,5-3.7
				c0.2-0.3,0.5-0.5,0.8-0.7c6.9-5.8,14.5-14.5,12-22.7c-2.6-8.2-2.8-16.1-0.7-23.6c0.2-0.6,0.4-1.2,0.7-1.8c1.3-2.4,2.6-5.1,4-8.1
				c0-0.1,0.1-0.1,0.1-0.2c0-0.1,0-0.1,0.1-0.2c18.5-42.1,11.2-94.9-19-137.9C362.3,177,317.6,152,274,152c-5.9,0-11.8,0.5-17.4,1.4
				c-0.8,0.1-1.5,0.1-2.3,0.1c-7.3-0.8-14.3-3.7-20.7-8.6c-2.1-1.6-4.6-2.4-7.6-2.4c-4.9,0-11.1,2-17.8,5.8
				c-0.3,0.2-0.6,0.3-0.9,0.5c-1,0.6-2.9,1.7-5.1,3.3c-2.3,1.6-4,3-5,3.7c-0.2,0.3-0.5,0.5-0.7,0.7c-6.9,5.9-14.5,14.5-12,22.7
				c2.4,7.7,2.8,15.2,1,22.3c-0.2,0.7-0.5,1.5-0.8,2.1c-23.9,42.9-18.3,100.6,14.5,147.1c28.3,40.1,72.9,65.1,116.5,65.1
				c2.4,0,4.8-0.1,7.2-0.2c0.1,0,0.1,0,0.2,0c0.1,0,0.1,0,0.2,0c3.3-0.2,6.3-0.5,9-1C332.6,414.5,333,414.5,333.4,414.5z"/>
		</g>
	</g>
	<g>
		<g>
			<path fill="#5ABA47" d="M159.7,111c0,0,46.1-58.8,122.8,0.8C282.5,111.8,209.2,169.9,159.7,111z"/>
		</g>
	</g>
	<g>
		<g>
			<path fill="#414042" d="M214,145.9c-24,0-44.5-9.9-60.9-29.4c-2.6-3.1-2.7-7.5-0.2-10.7c0.9-1.2,23.3-29.2,63.2-29.2
				c23.2,0,47.4,9.6,71.7,28.5c2.1,1.6,3.3,4.1,3.3,6.7c0,2.6-1.2,5.1-3.2,6.7C286.4,119.6,252.8,145.9,214,145.9z M171.4,111.1
				c12,11.8,26.3,17.8,42.6,17.8c21.7,0,42.1-10.3,53.6-17.3c-17.9-11.9-35.2-17.9-51.6-17.9C194,93.6,178.7,104.4,171.4,111.1z"/>
		</g>
	</g>
	<g>
		<g>
			<path fill="#FFD386" d="M198.2,251.3c-11.8-5.4-13.1-27.6-2.9-49.5s28-35.3,39.8-29.9c11.8,5.4,13.1,27.6,2.9,49.5
				C227.8,243.3,210,256.7,198.2,251.3z"/>
		</g>
	</g>
	<g>
		<g>
			<path fill="#414042" d="M282.5,120.3c-0.1,0-0.1,0-0.2,0c-60.4-1.3-122-0.8-122.6-0.8c0,0,0,0-0.1,0c-4.7,0-8.5-3.8-8.6-8.4
				c0-4.7,3.8-8.5,8.5-8.6c0.6,0,62.4-0.5,123.1,0.8c4.7,0.1,8.5,4,8.4,8.7C291,116.6,287.1,120.3,282.5,120.3z"/>
		</g>
	</g>
	<g>
		<g>
			<g>
				<path fill="#5ABA47" d="M169.8,145.2c0,0-118.9,6.5-77.1,155.4C92.7,300.6,230.1,269.1,169.8,145.2z"/>
			</g>
		</g>
		<g>
			<g>
				<path fill="#5ABA47" d="M169.8,145.2c0,0-118.9,6.5-77.1,155.4C92.7,300.6,230.1,269.1,169.8,145.2z"/>
			</g>
		</g>
		<g>
			<g>
				<path fill="#414042" d="M92.7,309.1c-3.8,0-7.2-2.5-8.2-6.2c-15-53.4-11.8-95.6,9.7-125.3c27.2-37.8,73.2-40.7,75.2-40.8
					c3.5-0.2,6.7,1.7,8.2,4.8c18.8,38.6,21.2,72.9,7.3,101.9c-24,49.8-87.4,64.9-90.1,65.5C94,309,93.4,309.1,92.7,309.1z
					 M164.7,154.4c-11.8,2-39.4,9-56.7,33.2c-17.1,23.9-20.2,58.3-9.2,102.4c16.6-5.4,54.8-21.1,70.6-54
					C180.3,213.2,178.7,185.8,164.7,154.4z"/>
			</g>
		</g>
	</g>
	<g>
		<g>
			<path fill="#414042" d="M92.7,309.1c-0.8,0-1.7-0.1-2.6-0.4c-4.5-1.4-7-6.2-5.6-10.7c24.5-78.1,76-154.4,78.1-157.6
				c2.6-3.9,8-4.9,11.9-2.3c3.9,2.6,4.9,7.9,2.3,11.8c-0.5,0.8-52.2,77.4-76,153.1C99.8,306.7,96.4,309.1,92.7,309.1z"/>
		</g>
	</g>
</g>
</svg>
