<?xml version="1.0" encoding="utf-8"?>
<!-- Generator: Adobe Illustrator 18.0.0, SVG Export Plug-In . SVG Version: 6.00 Build 0)  -->
<!DOCTYPE svg PUBLIC "-//W3C//DTD SVG 1.1//EN" "http://www.w3.org/Graphics/SVG/1.1/DTD/svg11.dtd">
<svg version="1.1" id="Layer_1" xmlns="http://www.w3.org/2000/svg" xmlns:xlink="http://www.w3.org/1999/xlink" x="0px" y="0px"
	 viewBox="0 0 512 512" enable-background="new 0 0 512 512" xml:space="preserve">
<g>
	<g>
		<g>
			<ellipse fill="#E18E26" cx="255.2" cy="113.1" rx="63" ry="71.5"/>
		</g>
	</g>
	<g>
		<g>
			<g>
				<path fill="#D04527" d="M398.7,396.9H113.3c-33.8,0-61.3-27.4-61.3-61.3v-22.2c0-21.6,17.5-39,39-39h329.9c21.6,0,39,17.5,39,39
					v22.2C460,369.4,432.6,396.9,398.7,396.9z"/>
			</g>
		</g>
		<g>
			<g>
				<path fill="#414042" d="M398.7,404.9H113.3c-38.2,0-69.3-31.1-69.3-69.3v-22.2c0-25.9,21.1-47.1,47.1-47.1h329.9
					c25.9,0,47.1,21.1,47.1,47.1v22.2C468,373.8,436.9,404.9,398.7,404.9z M91.1,282.4c-17.1,0-31,13.9-31,31v22.2
					c0,29.4,23.9,53.2,53.2,53.2h285.4c29.4,0,53.2-23.9,53.2-53.2v-22.2c0-17.1-13.9-31-31-31H91.1z"/>
			</g>
		</g>
		<g>
			<g>
				<path fill="#D04527" d="M398.7,368.3H113.3c-33.8,0-61.3-27.4-61.3-61.3v0c0-33.8,27.4-61.3,61.3-61.3h285.4
					c33.8,0,61.3,27.4,61.3,61.3v0C460,340.9,432.6,368.3,398.7,368.3z"/>
			</g>
		</g>
		<g>
			<g>
				<path fill="#BB8B30" d="M399.4,343.6H112.6c-19.8,0-35.9-16.1-35.9-35.9v0c0-19.8,16.1-35.9,35.9-35.9h286.8
					c19.8,0,35.9,16.1,35.9,35.9v0C435.3,327.5,419.2,343.6,399.4,343.6z"/>
			</g>
		</g>
		<g>
			<g>
				<path fill="#414042" d="M398.7,376.3H113.3c-38.2,0-69.3-31.1-69.3-69.3s31.1-69.3,69.3-69.3h285.4c38.2,0,69.3,31.1,69.3,69.3
					S436.9,376.3,398.7,376.3z M113.3,253.8c-29.4,0-53.2,23.9-53.2,53.2c0,29.4,23.9,53.2,53.2,53.2h285.4
					c29.4,0,53.2-23.9,53.2-53.2c0-29.4-23.9-53.2-53.2-53.2H113.3z"/>
			</g>
		</g>
		<g>
			<g>
				<path fill="#414042" d="M395.2,351.3H115.1c-23.8,0-43.2-19.4-43.2-43.2c0-23.8,19.4-43.2,43.2-43.2h280.1
					c23.8,0,43.2,19.4,43.2,43.2C438.4,331.9,419,351.3,395.2,351.3z M115.1,280.9c-15,0-27.1,12.2-27.1,27.1s12.2,27.1,27.1,27.1
					h280.1c15,0,27.1-12.2,27.1-27.1s-12.2-27.1-27.1-27.1H115.1z"/>
			</g>
		</g>
	</g>
	<g>
		<g>
			<g>
				<g>
					<g>
						<path fill="#E6E7E8" d="M396.5,407.9h-23.9c-3.1,0-6,0.7-8.6,1.8c1.5-2.3,2.4-5,2.4-8v-35.4c0-8-6.7-14.8-14.5-14.8h-27.3
							c-0.4,0-0.8,0-1.2,0h-10l0,0H249l0,0h-45.2v27.9h6.2v0.7h-24.9V379h5.3v-27.4h-44.8V379h5.7v9.2l-5.7,0.1v22.3
							c-2.2-0.7-4.5-1.1-6.9-1.1h-22.3c-11.9,0-21.5,9-21.5,20.1v22.1c0,11.1,9.7,20.9,21.5,20.9h22.3c2.2,0,4.3-1.1,6.2-1.7v1.7h73
							v-1.2c2.3,0.7,4.7,1.2,7.3,1.2h17.4c4.3,0,8.4-1.2,11.8-3.2v3.2h44.2l0,0H363v-3.8c2.9,1.4,6.1,3.8,9.6,3.8h23.9
							c11.4,0,20.6-10.2,20.6-20.9v-24.5C417.1,416.5,407.9,407.9,396.5,407.9z M129.2,441.9H126v-2.6h3.2V441.9z M295.2,443.3h-2.1
							v-7.5h2.1V443.3z M254.5,407.9v3.6c-1.7-1-3.5-1.8-5.5-2.4v-21h-5.8v-8.7h5.4l11.9,28.5H254.5z M155.1,416.5h11.7l-6.5,15.3
							v-2.3C160.3,424.6,158.3,420,155.1,416.5z M202.9,432.5l-6.7-16h11.4c-2.9,3.6-4.7,8.1-4.7,12.9V432.5z M291.2,407.9
							l12.2-28.7h4.7v8.8h-6V408h-3.4v-0.1H291.2z M385.4,440.9h-1.7v-3h1.7V440.9z"/>
					</g>
				</g>
				<g>
					<g>
						<path fill="#414042" d="M323.7,351.5c0.3,0,0.5,0,0.8,0h27.3c7.9,0,14.5,6.7,14.5,14.8v35.4c0,2.9-0.9,5.7-2.4,8
							c2.6-1.1,5.6-1.8,8.6-1.8h23.9c11.4,0,20.6,8.6,20.6,19.3v24.5c0,10.6-9.2,20.9-20.6,20.9h-23.9c-3.5,0-6.7-2.4-9.6-3.8v3.8
							h-64.3h-44.2v-3.2c-3.4,2-7.5,3.2-11.8,3.2h-17.4c-2.6,0-5-0.4-7.3-1.2v1.2h-73v-1.7c-2,0.6-4.1,1.7-6.2,1.7h-22.3
							c-11.9,0-21.5-9.8-21.5-20.9v-22.1c0-11.1,9.7-20.1,21.5-20.1h22.3c2.4,0,4.7,0.4,6.9,1.1v-22.3l5.7-0.1V379h-5.7v-27.4h44.8
							V379h-5.3v1.1H210v-0.7h-6.2v-27.9H249h64.3h10C323.5,351.5,323.6,351.5,323.7,351.5 M291.2,407.9h7.5v0.1h3.4v-20.1h6v-8.8
							h-4.7L291.2,407.9 M243.2,388.1h5.8v21c2,0.6,3.8,1.4,5.5,2.4v-3.6h6l-11.9-28.5h-5.4V388.1 M202.9,432.5v-3
							c0-4.9,1.8-9.4,4.7-12.9h-11.4L202.9,432.5 M160.3,431.8l6.5-15.3h-11.7c3.2,3.5,5.2,8.1,5.2,13.1V431.8 M293.2,443.3h2.1
							v-7.5h-2.1V443.3 M383.7,440.9h1.7v-3h-1.7V440.9 M126,441.9h3.2v-2.6H126V441.9 M323.7,335.5c-0.3,0-0.6,0-0.8,0h-9.5H249
							h-45.2c-2.4,0-4.7,0.5-6.7,1.5c-2-0.9-4.3-1.5-6.7-1.5h-44.8c-8.9,0-16,7.2-16,16V379c0,1.6,0.2,3.2,0.7,4.6
							c-0.4,1.5-0.7,3-0.7,4.6v5.2h-13.2c-20.7,0-37.6,16.2-37.6,36.1v22.1c0,20,17.2,36.9,37.6,36.9h22.3c1.2,0,2.3-0.1,3.4-0.3
							c0.9,0.2,1.9,0.3,2.9,0.3h73c1,0,1.9-0.1,2.9-0.3c1.5,0.2,2.9,0.3,4.4,0.3h17.4c2.4,0,4.9-0.2,7.2-0.7c1.5,0.4,3,0.7,4.6,0.7
							h44.2H363c1.5,0,2.9-0.2,4.3-0.6c1.6,0.4,3.4,0.6,5.3,0.6h23.9c19.9,0,36.6-16.9,36.6-36.9v-24.5c0-19.5-16.4-35.3-36.6-35.3
							h-14.1v-25.5c0-17-13.7-30.8-30.6-30.8h-27.2C324.3,335.5,324,335.5,323.7,335.5L323.7,335.5z"/>
					</g>
				</g>
				<g>
					<g>
						<polygon fill="#D04527" points="264.6,425.6 270.6,425.6 270.6,453.4 264.6,453.4 264.6,462.5 270.6,462.5 283.1,462.5 
							288.6,462.5 288.6,453.4 283.1,453.4 283.1,425.6 288.6,425.6 288.6,418 264.6,418 						"/>
					</g>
				</g>
				<g>
					<g>
						<polygon fill="#D04527" points="335.8,418.1 329.1,418.1 329.1,425.7 335.8,425.7 335.8,444.3 316.2,418.3 316.2,418.1 
							316.1,418.1 305.3,418.1 298.8,418.1 298.8,425.7 305.3,425.7 305.3,453.5 298.8,453.5 298.8,462.5 305.3,462.5 316.1,462.5 
							321.8,462.5 321.8,453.5 316.1,453.5 316.1,434.7 335.7,462.5 335.7,462.5 335.8,462.5 346.5,462.5 352.9,462.5 352.9,453 
							346.5,453 346.5,425.7 352.9,425.7 352.9,418.1 346.5,418.1 						"/>
					</g>
				</g>
				<g>
					<g>
						<path fill="#D04527" d="M396.5,418h-23.9c-5.8,0-10.5,4.1-10.5,9.2v24.5c0,5.1,4.7,10.8,10.5,10.8h23.9
							c5.8,0,10.5-5.7,10.5-10.8v-24.5C407,422.1,402.3,418,396.5,418z M395.5,446.3c0,2.6-2.4,4.7-5.4,4.7H379
							c-3,0-5.4-2.1-5.4-4.7v-13.8c0-2.6,2.4-4.7,5.4-4.7h11.2c3,0,5.4,2.1,5.4,4.7V446.3z"/>
					</g>
				</g>
				<g>
					<g>
						<path fill="#D04527" d="M138.7,419.6h-22.3c-6.3,0-11.4,4.5-11.4,10v22.1c0,5.5,5.1,10,11.4,10l22.3,0.8
							c6.3,0,11.4-5.3,11.4-10.8v-4.8h-10.9v4.8c0,0.1-0.2,0.3-0.5,0.3h-22.3c-0.3,0-0.5-0.2-0.5-0.3v-22.1c0-0.1,0.2-0.3,0.5-0.3
							h22.3c0.3,0,0.5,0.2,0.5,0.3v5.1h10.9v-5.1C150.2,424.1,145.1,419.6,138.7,419.6z"/>
					</g>
				</g>
				<g>
					<g>
						<path fill="#D04527" d="M186.4,419.1h-9.7l-15.4,36.1h-6.2v1.4v5.8h3.1h11.2h5.7h2.6v-7.2h-4.9l1.4-2.9h15l1.1,2.9h-5.1v7.2h2
							h5.9h11.4h2.8h0.6v-7.2h-6.4L186.4,419.1z M176.2,446.3l5.2-13.8l5.2,13.8H176.2z"/>
					</g>
				</g>
				<g>
					<g>
						<path fill="#D04527" d="M225.3,462.5h17.4c6.8,0,12.2-5,12.2-11.1v-5.2c0-6.1-5.5-11.1-12.2-11.1h-17.4c-0.6,0-1.1-0.4-1.1-1
							v-4.7c0-0.6,0.5-1,1.1-1h17.4c0.6,0,1.1,0.4,1.1,1v2.9h11.1v-2.9c0-6.1-5.5-11.1-12.2-11.1h-17.4c-6.8,0-12.2,5-12.2,11.1v4.7
							c0,6.1,5.5,11.1,12.2,11.1h17.4c0.6,0,1.1,0.4,1.1,1v5.2c0,0.6-0.5,1-1.1,1h-17.4c-0.6,0-1.1-0.4-1.1-1v-2.9H213v2.9
							C213,457.5,218.5,462.5,225.3,462.5z"/>
					</g>
				</g>
			</g>
			<g>
				<g>
					<g>
						<polygon fill="#D04527" points="194.8,390.2 194.8,398.3 175,398.3 175,368.9 180.3,368.9 180.3,361.6 155.7,361.6 
							155.7,368.9 161.4,368.9 161.4,398.3 155.7,398.3 155.7,398.3 155.7,406.4 161.4,406.4 175,406.4 180.3,406.4 203.5,406.4 
							203.5,403.7 203.5,398.3 203.5,390.2 						"/>
					</g>
				</g>
				<g>
					<g>
						<polygon fill="#D04527" points="213.9,369.3 220.1,369.3 220.1,398.2 213.9,398.2 213.9,406.1 220.1,406.1 233.1,406.1 
							238.9,406.1 238.9,398.2 233.1,398.2 233.1,369.3 238.9,369.3 238.9,361.6 213.9,361.6 						"/>
					</g>
				</g>
				<g>
					<g>
						<path fill="#D04527" d="M279.7,361.6v7.3h5.1l-8.9,23.5l-9.2-23.5h5.3v-7.3h-23.5v7.3h6.7l15.6,37.4h10.1l15.9-37.4h6.5v-7.3
							H279.7z"/>
					</g>
				</g>
				<g>
					<g>
						<path fill="#D04527" d="M351.8,361.6H348h-23.5c-0.2,0-0.4,0-0.6,0h-11.7v7.4h6v29h-6v8.1h12.3h0.9H348h3.9
							c2.5,0,4.4-2,4.4-4.4v-7.9H348v3.1c0,0.7-0.6,1.3-1.4,1.3h-15.7c-0.8,0-1.4-0.6-1.4-1.4v-9.6h14.7v-7.9h-14.7v-9
							c0-0.8,0.6-1.4,1.4-1.4h15.7c0.7,0,1.4,0.6,1.4,1.3v4.2h8.3v-8.1C356.3,363.9,354.3,361.6,351.8,361.6z"/>
					</g>
				</g>
			</g>
		</g>
		<g>
			<g>
				<rect x="181.5" y="376" fill="#E6E7E8" width="32.4" height="7.9"/>
			</g>
		</g>
		<g>
			<g>
				<rect x="239.8" y="377.8" fill="#E6E7E8" width="16.2" height="18.4"/>
			</g>
		</g>
		<g>
			<g>
				<rect x="245.1" y="394.7" fill="#E6E7E8" width="16.2" height="18.4"/>
			</g>
		</g>
		<g>
			<g>
				<rect x="297.6" y="376" fill="#E6E7E8" width="16.2" height="18.4"/>
			</g>
		</g>
		<g>
			<g>
				<rect x="289.5" y="391" fill="#E6E7E8" width="16.2" height="18.4"/>
			</g>
		</g>
		<g>
			<g>
				<rect x="285.1" y="429.8" fill="#E6E7E8" width="16.2" height="18.4"/>
			</g>
		</g>
		<g>
			<g>
				<rect x="119.5" y="431.8" fill="#E6E7E8" width="16.2" height="18.4"/>
			</g>
		</g>
		<g>
			<g>
				<rect x="153" y="413.5" fill="#E6E7E8" width="16.2" height="18.4"/>
			</g>
		</g>
		<g>
			<g>
				<rect x="195.4" y="413.5" fill="#E6E7E8" width="16.2" height="20.6"/>
			</g>
		</g>
		<g>
			<g>
				<rect x="376.5" y="430.9" fill="#E6E7E8" width="16.2" height="16.7"/>
			</g>
		</g>
	</g>
	<g>
		<g>
			<path fill="#F2D3BC" d="M310,158.3c-16.1,0-36.1-6.5-36.1-6.5s0,0,0-14.6s4.9-27.7,4.9-27.7l-24.9,1.9l-24.9-1.9
				c0,0,4.9,13.2,4.9,27.7s0,14.6,0,14.6s-20,6.5-36.1,6.5c-37.6,0-32.8,26.7-32.8,59.8v16.3c0,10.9,5.6,21.1,14.9,26.9l37,23.3
				l9.2,14.4h8.4h39.8h8.4l8.1-14.4l39.1-24.6c8-5,12.8-13.8,12.8-23.2v-18.7C342.8,185,347.2,158.3,310,158.3z M303.9,255.4
				c-12.3,9.9-32.1,25.2-37.2,25.2c-3,0-7.7,0.9-12.7,2c-5-1.1-9.7-2-12.7-2c-4.9,0-23.2-13.9-35.5-23.8c-7.6-6.1-12-15.3-11.9-25
				c0.1-10.1,0.5-22.5,2-28.9l56.9,12.7l1.2,0.3l1.2-0.3l56.9-12.7c1.6,6.9,2,20.7,2,31.1C314.1,242.3,310.4,250.2,303.9,255.4z"/>
		</g>
	</g>
	<g>
		<g>
			<path fill="#414042" d="M278.8,109.6L278.8,109.6 M278.8,109.6c0,0-4.9,13.2-4.9,27.7s0,14.6,0,14.6s20,6.5,36.1,6.5
				c36.8,0,32.8,26.7,32.8,59.8v18.7c0,9.4-4.8,18.2-12.8,23.2l-39.1,24.6l-8.1,14.4h-8.4h-39.8h-8.4l-9.2-14.4l-37-23.3
				c-9.3-5.8-14.9-16-14.9-26.9v-16.3c0-33.1-4.8-59.8,32.8-59.8c16.1,0,36.1-6.5,36.1-6.5s0,0,0-14.6s-4.9-27.7-4.9-27.7l24.9,1.9
				L278.8,109.6 M254,215.9l-1.2-0.3l-56.9-12.7c-1.5,6.4-1.9,18.8-2,28.9c-0.1,9.7,4.3,18.9,11.9,25c12.3,9.9,30.6,23.8,35.5,23.8
				c3,0,7.7,0.9,12.7,2c5-1.1,9.7-2,12.7-2c5.2,0,24.9-15.3,37.2-25.2c6.5-5.2,10.2-13.1,10.2-21.4c0-10.4-0.4-24.2-2-31.1
				l-56.9,12.7L254,215.9 M278.8,93.5c-0.1,0-0.2,0-0.3,0c-0.3,0-0.7,0-1,0.1L254,95.4l-23.7-1.8c-0.4,0-0.8,0-1.2,0
				c-5,0-9.8,2.3-12.8,6.4c-3.3,4.4-4.1,10.1-2.2,15.2c0,0.1,3.9,10.8,3.9,22.2v2.3c-6.3,1.4-13.8,2.7-20.1,2.7
				c-16.1,0-28,4.1-36.3,12.6c-13.3,13.5-13,32.9-12.6,53.4c0,3.2,0.1,6.6,0.1,9.9v16.3c0,16.6,8.4,31.7,22.4,40.5l34,21.4l7.3,11.4
				c2.9,4.6,8,7.4,13.5,7.4h8.4h39.8h8.4c5.8,0,11.1-3.1,14-8.2l6.1-10.8l35.6-22.4c12.7-8,20.3-21.8,20.3-36.8v-18.7
				c0-3,0-5.9,0.1-8.7c0.2-21.1,0.5-41-13-54.6c-8.3-8.4-20.1-12.5-35.9-12.5c-6.2,0-13.8-1.3-20.1-2.7v-2.3
				c0-10.4,3.2-20.2,3.8-21.9c0.7-1.8,1.1-3.8,1.1-5.8c0-8.8-7.1-15.9-15.8-16C279,93.5,278.9,93.5,278.8,93.5L278.8,93.5z
				 M254,231.9c1.2,0,2.3-0.1,3.5-0.4l1.2-0.3l39.2-8.8c0.1,3.2,0.2,7,0.2,11.5c0,3.5-1.5,6.7-4.2,8.9
				c-19.5,15.7-27.4,20.4-29.8,21.7c-3,0.2-6.3,0.8-10.1,1.5c-3.8-0.8-7.1-1.3-10.1-1.5c-2.4-1.3-9.9-5.8-28.1-20.4
				c-3.8-3-5.9-7.5-5.9-12.4c0-3.6,0.1-6.7,0.2-9.4l39.2,8.8l1.2,0.3C251.6,231.8,252.8,231.9,254,231.9L254,231.9z"/>
		</g>
	</g>
	<g>
		<g>
			<circle fill="#F2D3BC" cx="445" cy="305.8" r="14.6"/>
		</g>
	</g>
	<g>
		<g>
			<path fill="#414042" d="M444.2,328.5c-12,0-21.8-10.1-21.8-22.6c0-12.5,9.8-22.6,21.8-22.6c12,0,21.8,10.2,21.8,22.6
				C466,318.3,456.2,328.5,444.2,328.5z M444.2,299.2c-3.2,0-5.8,3-5.8,6.6c0,3.6,2.6,6.6,5.8,6.6c3.2,0,5.8-3,5.8-6.6
				C450,302.2,447.4,299.2,444.2,299.2z"/>
		</g>
	</g>
	<g>
		<g>
			<g>
				<ellipse fill="#F2D3BC" cx="66" cy="305.8" rx="14" ry="14.6"/>
			</g>
		</g>
		<g>
			<g>
				<path fill="#414042" d="M66,328.5c-12.1,0-22-10.1-22-22.6c0-12.5,9.9-22.6,22-22.6s22,10.2,22,22.6
					C88,318.3,78.1,328.5,66,328.5z M66,299.2c-3.3,0-6,3-6,6.6c0,3.6,2.7,6.6,6,6.6s6-3,6-6.6C72,302.2,69.3,299.2,66,299.2z"/>
			</g>
		</g>
	</g>
	<g>
		<g>
			<path fill="#F2D3BC" d="M266.3,50.3c13.1,0,23.7,10.6,23.7,23.7v20.2c0,0,0.3,27.3-20.2,39c-10.2,5.8-22.9,5.8-33.1,0
				c-20.5-11.7-20.2-39-20.2-39V74c0-10.5,10.6-23.7,23.7-23.7H266.3z"/>
		</g>
	</g>
	<g>
		<g>
			<path fill="#414042" d="M253.2,145.5c-7.2,0-14.3-1.9-20.5-5.4c-24.4-13.9-24.3-44.7-24.3-46l0-20.1c0-14.7,13.9-31.7,31.7-31.7
				h26.2c17.5,0,31.7,14.2,31.7,31.7v20.2c0,1.2,0.1,32-24.3,45.9C267.5,143.6,260.4,145.5,253.2,145.5z M240.1,58.3
				c-8.7,0-15.7,9.5-15.7,15.7v20.2c0,0.3,0.1,22.8,16.2,32c7.6,4.3,17.6,4.3,25.2,0C281.9,117,282,94.4,282,94.2V74
				c0-8.7-7-15.7-15.7-15.7H240.1z"/>
		</g>
	</g>
	<g>
		<g>
			<path fill="#414042" d="M226.2,307.1c-3.2,0-6.2-1.9-7.4-5c-1.4-3.5-3.3-12.3,8.8-18.1c4.8-2.3,21.7-8.2,23.7-8.9
				c4.2-1.5,8.8,0.8,10.2,4.9c1.5,4.2-0.8,8.7-4.9,10.2c-6.9,2.4-19,6.8-22,8.2c-0.1,0.1-0.2,0.1-0.3,0.2c0.2,3.4-1.7,6.7-5,8
				C228.2,306.9,227.2,307.1,226.2,307.1z"/>
		</g>
	</g>
	<g>
		<g>
			<path fill="#F5A229" d="M232.7,62.2c0,0-53.1,65.7-14,117.5c0,0-40.4-1.4-40.1-39.8C179,73,226.4,39.4,226.4,39.4
				S222.1,52.5,232.7,62.2z"/>
		</g>
	</g>
	<g>
		<g>
			<path fill="#414042" d="M218.7,187.7c-0.1,0-0.2,0-0.3,0c-16.7-0.6-48.1-11.4-47.9-47.9c0.4-70.2,49.2-105.5,51.3-107
				c2.8-2,6.6-2,9.4,0.1c2.8,2.1,3.9,5.7,2.8,9c-0.2,0.8-2.3,8.5,4.1,14.4c3.1,2.9,3.5,7.6,0.8,10.9c-0.5,0.6-48.3,61.1-14.2,107.2
				c1.3,1.4,2,3.3,2,5.3C226.7,184.2,223.1,187.7,218.7,187.7C218.7,187.7,218.7,187.7,218.7,187.7z M219.4,56.5
				c-13.1,13.9-32.6,41.6-32.9,83.4c-0.1,15.2,7.7,23.1,15.7,27.2C184,123.8,211.7,78,222.5,62.5C221.2,60.6,220.2,58.6,219.4,56.5z
				"/>
		</g>
	</g>
	<g>
		<g>
			<path fill="#F5A229" d="M294.8,39.6c0,0-39.4,48.7-100.7,38.6C194.1,78.2,211.5,8,294.8,39.6z"/>
		</g>
	</g>
	<g>
		<g>
			<path fill="#414042" d="M210.7,87.6c-5.9,0-12-0.5-17.9-1.5c-2.2-0.4-4.2-1.6-5.4-3.5c-1.2-1.9-1.6-4.2-1.1-6.3
				c4.5-18.3,24.8-52.9,68.9-52.9c12.9,0,27.2,2.9,42.4,8.7c2.4,0.9,4.2,2.9,4.9,5.4c0.7,2.5,0.1,5.1-1.5,7.1
				C299.6,46.4,265.6,87.6,210.7,87.6z M205.2,71.4c1.9,0.1,3.7,0.2,5.5,0.2c32.5,0,57.1-17.5,69.3-28.4c-8.8-2.5-17.1-3.7-24.8-3.7
				C224.8,39.4,210.8,59.4,205.2,71.4z"/>
		</g>
	</g>
	<g>
		<g>
			<path fill="#F5A229" d="M275.8,56.9c0,0,65.9,67.7,18.3,121.5c0,0,41.9,0.8,43.2-35.3c2.3-62.8-45.6-96.9-45.6-96.9
				S287.2,48.3,275.8,56.9z"/>
		</g>
	</g>
	<g>
		<g>
			<path fill="#414042" d="M294.4,186.4L294.4,186.4l-0.4,0c-3.1-0.1-5.9-1.9-7.2-4.8c-1.3-2.8-0.8-6.2,1.3-8.5
				c17.3-19.9,19.9-44.2,7.5-72.2c-9.7-22.1-25.4-38.3-25.5-38.4c-1.6-1.6-2.4-3.9-2.3-6.2c0.2-2.3,1.3-4.4,3.2-5.8
				c11.5-8.7,16.5-11.2,17.4-11.6c2.6-1.2,5.7-0.9,8,0.7c2.1,1.5,51.4,37.4,49,103.7C344.2,177.3,312.8,186.4,294.4,186.4z
				 M287.7,58.2c6.1,7.4,15.4,20.1,22.4,35.8c12,26.8,12.3,51.8,1.2,73.4c8.8-3.3,17.5-10.2,18-24.6c1.7-47.4-27.5-77.5-38.3-86.9
				C290.1,56.5,289,57.3,287.7,58.2z"/>
		</g>
	</g>
	<g>
		<g>
			<path fill="#DB802D" d="M308.8,224.3c-0.5,3-1.3,5.8-2.6,8.2c-5.3,10.2-15.5,14.6-16,26.2c-9.8,7.5-20.4,15.1-23.9,15.1
				c-2.7,0-7,0.8-11.4,1.8c-4.5-1-8.7-1.8-11.4-1.8c-3.3,0-13.4-7.1-22.9-14.3c-0.2-12.1-10.7-16.5-16-26.9c-2.1-4.1-3-9.4-3.2-14.8
				c-0.5-11.4,2-22.9,2-22.9c18.5,12.2,44,12.6,50.5,12.5c1,0,1.5,0,1.5,0s0.2,0,0.7,0c4.5,0.1,31.8,0.4,51.4-12.5
				C307.4,194.8,311.1,211.2,308.8,224.3z"/>
		</g>
	</g>
	<g>
		<g>
			<path fill="#414042" d="M254.9,283.5c-0.6,0-1.1-0.1-1.7-0.2c-1.8-0.4-7.3-1.6-9.7-1.6c-3.6,0-8.5-1.2-27.8-16
				c-2-1.5-3.1-3.8-3.1-6.3c-0.1-4.3-2.3-6.9-6.5-11.6c-2.9-3.2-6.1-6.8-8.7-11.7c-2.4-4.7-3.8-10.6-4.1-18.1
				c-0.6-12.3,2.1-24.5,2.2-25c0.6-2.6,2.4-4.7,4.8-5.7c2.4-1,5.2-0.7,7.4,0.7c15.8,10.4,38.2,11.2,44.7,11.2c0.5,0,0.9,0,1.3,0
				c0.7,0,1.2,0,1.2,0c0.3,0,0.7,0,1,0l0.4,0c0.4,0,1.1,0,1.9,0c6.5,0,29-0.8,44.8-11.2c2.2-1.4,5-1.7,7.4-0.7
				c2.4,1,4.2,3.1,4.8,5.7c0.2,0.7,3.9,18.1,1.4,32.6c-0.7,3.9-1.8,7.5-3.3,10.5c-2.5,4.9-5.8,8.5-8.7,11.7
				c-4.1,4.6-6.3,7.2-6.5,11.2c-0.1,2.4-1.3,4.5-3.1,6c-20.1,15.4-25,16.7-28.7,16.7c-2.4,0-7.9,1.2-9.7,1.6
				C256.1,283.5,255.5,283.5,254.9,283.5z M244.3,265.7c2.5,0.1,5.8,0.6,10.6,1.6c4.9-1,8.1-1.5,10.7-1.6c1.1-0.4,5.3-2.5,17.1-11.4
				c1.5-7.7,6.2-12.9,10.1-17.2c2.4-2.7,4.7-5.3,6.3-8.3c0.8-1.5,1.4-3.5,1.8-5.9c0.9-5.1,0.7-10.9,0.3-15.7
				c-16.7,7.2-34.9,8.1-42.9,8.1c-1.1,0-1.9,0-2.5,0c-0.2,0-0.3,0-0.5,0c-0.3,0-0.8,0-1.4,0c-0.4,0-1,0-1.6,0
				c-8,0-26.1-0.9-42.8-8.1c-0.3,3.1-0.5,6.7-0.3,10.2c0.3,6.2,1.4,9.6,2.4,11.4c1.6,3,3.9,5.6,6.3,8.3c4,4.5,8.9,9.9,10.3,18
				C239.2,263.4,243.2,265.3,244.3,265.7z"/>
		</g>
	</g>
</g>
</svg>
