<?xml version="1.0" encoding="utf-8"?>
<!-- Generator: Adobe Illustrator 18.0.0, SVG Export Plug-In . SVG Version: 6.00 Build 0)  -->
<!DOCTYPE svg PUBLIC "-//W3C//DTD SVG 1.1//EN" "http://www.w3.org/Graphics/SVG/1.1/DTD/svg11.dtd">
<svg version="1.1" id="Layer_1" xmlns="http://www.w3.org/2000/svg" xmlns:xlink="http://www.w3.org/1999/xlink" x="0px" y="0px"
	 viewBox="0 0 512 512" enable-background="new 0 0 512 512" xml:space="preserve">
<g>
	<g>
		<g>
			<rect x="83.8" y="101" fill="#E6E7E8" width="309.3" height="309.3"/>
		</g>
	</g>
	<g>
		<g>
			<path fill="#414042" d="M393,418.9H83.8c-4.8,0-8.6-3.9-8.6-8.6V101c0-4.8,3.9-8.6,8.6-8.6H393c4.8,0,8.6,3.9,8.6,8.6v309.3
				C401.7,415,397.8,418.9,393,418.9z M92.4,401.7h292.1V109.6H92.4V401.7z"/>
		</g>
	</g>
	<g>
		<g>
			<g>
				<path fill="#414042" d="M188,418.9c-4.8,0-8.6-3.9-8.6-8.6V101c0-4.8,3.9-8.6,8.6-8.6s8.6,3.9,8.6,8.6v309.3
					C196.6,415,192.8,418.9,188,418.9z"/>
			</g>
		</g>
		<g>
			<g>
				<path fill="#414042" d="M288.8,418.9c-4.8,0-8.6-3.9-8.6-8.6V101c0-4.8,3.9-8.6,8.6-8.6c4.8,0,8.6,3.9,8.6,8.6v309.3
					C297.4,415,293.6,418.9,288.8,418.9z"/>
			</g>
		</g>
	</g>
	<g>
		<g>
			<g>
				<path fill="#414042" d="M393,212.4H83.8c-4.8,0-8.6-3.9-8.6-8.6c0-4.8,3.9-8.6,8.6-8.6H393c4.8,0,8.6,3.9,8.6,8.6
					C401.7,208.6,397.8,212.4,393,212.4z"/>
			</g>
		</g>
		<g>
			<g>
				<path fill="#414042" d="M393,316.1H83.8c-4.8,0-8.6-3.9-8.6-8.6c0-4.8,3.9-8.6,8.6-8.6H393c4.8,0,8.6,3.9,8.6,8.6
					C401.7,312.2,397.8,316.1,393,316.1z"/>
			</g>
		</g>
	</g>
	<g>
		<g>
			<path fill="#414042" d="M156.8,177.1c-2.2,0-4.4-0.8-6.1-2.5L112,135.8c-3.4-3.4-3.4-8.8,0-12.2c3.4-3.4,8.8-3.4,12.2,0
				l38.8,38.8c3.4,3.4,3.4,8.8,0,12.2C161.3,176.2,159,177.1,156.8,177.1z"/>
		</g>
	</g>
	<g>
		<g>
			<path fill="#414042" d="M118.1,177.1c-2.2,0-4.4-0.8-6.1-2.5c-3.4-3.4-3.4-8.8,0-12.2l38.8-38.8c3.4-3.4,8.8-3.4,12.2,0
				c3.4,3.4,3.4,8.8,0,12.2l-38.8,38.8C122.5,176.2,120.3,177.1,118.1,177.1z"/>
		</g>
	</g>
	<g>
		<g>
			<path fill="#414042" d="M259.7,283.6c-2.2,0-4.4-0.8-6.1-2.5l-38.8-38.8c-3.4-3.4-3.4-8.8,0-12.2c3.4-3.4,8.8-3.4,12.2,0
				l38.8,38.8c3.4,3.4,3.4,8.8,0,12.2C264.1,282.8,261.9,283.6,259.7,283.6z"/>
		</g>
	</g>
	<g>
		<g>
			<path fill="#414042" d="M220.9,283.6c-2.2,0-4.4-0.8-6.1-2.5c-3.4-3.4-3.4-8.8,0-12.2l38.8-38.8c3.4-3.4,8.8-3.4,12.2,0
				c3.4,3.4,3.4,8.8,0,12.2L227,281.1C225.3,282.8,223.1,283.6,220.9,283.6z"/>
		</g>
	</g>
	<g>
		<g>
			<g>
				<path fill="#F2D3BC" d="M360.4,261.8v-29.3c0-15.4-10.5-27.9-25.9-27.9h0c-15.4,0-24.9,12.5-24.9,27.9v25.1
					c0,29.6,4.1,58.6,21,82.9l0,0h68.9l0,0c23.4-34.3,28.8-57.7,28.8-102.7v-1.6c0-73-16-83.7-78-83.7H328
					c-14.4,0-26.2,11.7-26.2,26.2v0c0,14.4,13.6,26.2,28.1,26.2h9.6"/>
			</g>
		</g>
		<g>
			<g>
				<path fill="#414042" d="M399.5,349.1h-68.9c-2.8,0-5.5-1.4-7.1-3.7c-19.9-28.8-22.5-62.1-22.5-87.8v-25.1
					c0-10,3.2-18.7,8.5-25.1c-9.8-6.3-16.3-17-16.3-28.7c0-19.2,15.6-34.8,34.8-34.8h22.3c39.1,0,60.1,6,72.2,20.8
					c12,14.6,14.3,36.4,14.3,71.5v1.6c0,44.2-4.5,71.5-30.4,107.7C404.9,347.8,402.3,349.1,399.5,349.1z M335.3,331.9H395
					c19-27.7,24.6-49.7,24.6-94.1v-1.6c0-31.1-1.7-50-10.4-60.6c-8.5-10.3-25.6-14.5-59-14.5H328c-9.7,0-17.5,7.9-17.5,17.5
					c0,9.2,9.3,17.5,19.5,17.5h0.7c2.5-0.3,5.2-0.3,7.7,0h1.2c1.4,0,2.7,0.3,3.9,0.9c15.1,4,25.6,17.8,25.6,35.4v29.3
					c0,4.8-3.9,8.6-8.6,8.6c-4.8,0-8.6-3.9-8.6-8.6v-29.3c0-8.8-5-17.6-14.5-19.1h-5.5c-9.3,1.5-13.5,10.3-13.5,19.1v25.1
					C318.3,289.9,323.5,313.1,335.3,331.9z"/>
			</g>
		</g>
		<g>
			<g>
				<circle fill="#EDB940" cx="331.9" cy="198.6" r="35.9"/>
			</g>
		</g>
		<g>
			<g>
				<path fill="#414042" d="M331.9,243.2c-24.6,0-44.5-20-44.5-44.5s20-44.5,44.5-44.5s44.5,20,44.5,44.5S356.5,243.2,331.9,243.2z
					 M331.9,171.3c-15.1,0-27.3,12.3-27.3,27.3c0,15.1,12.3,27.3,27.3,27.3s27.3-12.3,27.3-27.3C359.2,183.6,347,171.3,331.9,171.3z
					"/>
			</g>
		</g>
		<g>
			<g>
				<circle fill="#EDB940" cx="331.9" cy="188.4" r="35.9"/>
			</g>
		</g>
		<g>
			<g>
				<path fill="#414042" d="M331.9,233c-24.6,0-44.5-20-44.5-44.5s20-44.5,44.5-44.5s44.5,20,44.5,44.5S356.5,233,331.9,233z
					 M331.9,161.1c-15.1,0-27.3,12.3-27.3,27.3c0,15.1,12.3,27.3,27.3,27.3s27.3-12.3,27.3-27.3C359.2,173.4,347,161.1,331.9,161.1z
					"/>
			</g>
		</g>
		<g>
			<g>
				<path fill="#F2D3BC" d="M360.4,250.6v-29.3c0-15.4-11.8-27.9-25.7-27.9h0c-13.9,0-25.1,12.5-25.1,27.9v29.3"/>
			</g>
		</g>
		<g>
			<g>
				<path fill="#414042" d="M360.4,259.2c-4.8,0-8.6-3.9-8.6-8.6v-29.3c0-10.4-7.8-19.3-17-19.3c-9.1,0-16.5,8.6-16.5,19.3v29.3
					c0,4.8-3.9,8.6-8.6,8.6s-8.6-3.9-8.6-8.6v-29.3c0-20.1,15.1-36.5,33.7-36.5c18.9,0,34.3,16.4,34.3,36.5v29.3
					C369,255.3,365.2,259.2,360.4,259.2z"/>
			</g>
		</g>
		<g>
			<g>
				<g>
					<rect x="313.7" y="330.5" fill="#E6E7E8" width="98.3" height="40.1"/>
				</g>
			</g>
			<g>
				<g>
					<path fill="#414042" d="M412,379.1h-98.3c-4.8,0-8.6-3.9-8.6-8.6v-40.1c0-4.8,3.9-8.6,8.6-8.6H412c4.8,0,8.6,3.9,8.6,8.6v40.1
						C420.6,375.3,416.7,379.1,412,379.1z M322.3,361.9h81v-22.8h-81V361.9z"/>
				</g>
			</g>
		</g>
		<g>
			<g>
				<rect x="304.7" y="359.6" fill="#4F4F4F" width="114.5" height="51.4"/>
			</g>
		</g>
		<g>
			<g>
				<path fill="#414042" d="M419.2,419.6H304.7c-4.8,0-8.6-3.9-8.6-8.6v-51.4c0-4.8,3.9-8.6,8.6-8.6h114.5c4.8,0,8.6,3.9,8.6,8.6
					V411C427.8,415.8,423.9,419.6,419.2,419.6z M313.3,402.4h97.2v-34.1h-97.2V402.4z"/>
			</g>
		</g>
		<g>
			<g>
				<path fill="#414042" d="M344.1,418.6c-4.8,0-8.6-3.9-8.6-8.6v-50.4c0-4.8,3.9-8.6,8.6-8.6s8.6,3.9,8.6,8.6V410
					C352.8,414.8,348.9,418.6,344.1,418.6z"/>
			</g>
		</g>
		<g>
			<g>
				<circle fill="#414042" cx="375.6" cy="385.3" r="9.3"/>
			</g>
		</g>
		<g>
			<g>
				<path fill="#414042" d="M366.1,201.1c0,0,9.3,4.4,9.3,24.7c0,22.1-14.9,24.7-14.9,24.7l0-29.3
					C360.4,221.3,366.2,210.4,366.1,201.1z"/>
			</g>
			<g>
				<path fill="#414042" d="M360.4,259.2c-2,0-4-0.7-5.5-2c-2-1.6-3.1-4.1-3.1-6.6l0-29.3c0-1.4,0.3-2.8,1-4.1
					c1.3-2.5,4.7-10.3,4.7-16c0-3,1.5-5.8,4-7.4c2.5-1.6,5.7-1.8,8.3-0.5c2.4,1.1,14.2,8,14.2,32.5c0,23.2-14.4,31.8-22,33.2
					C361.4,259.1,360.9,259.2,360.4,259.2z"/>
			</g>
		</g>
	</g>
</g>
</svg>
