<?xml version="1.0" encoding="utf-8"?>
<!-- Generator: Adobe Illustrator 18.0.0, SVG Export Plug-In . SVG Version: 6.00 Build 0)  -->
<!DOCTYPE svg PUBLIC "-//W3C//DTD SVG 1.1//EN" "http://www.w3.org/Graphics/SVG/1.1/DTD/svg11.dtd">
<svg version="1.1" id="Layer_1" xmlns="http://www.w3.org/2000/svg" xmlns:xlink="http://www.w3.org/1999/xlink" x="0px" y="0px"
	 viewBox="0 0 512 512" enable-background="new 0 0 512 512" xml:space="preserve">
<g>
	<g>
		<g>
			<g>
				<path fill="#DB802D" d="M380.8,444.6H129.1c-7.3,0-14-3.7-18-9.8c-4-6.1-4.6-13.8-1.6-20.4l8.1-18.1l15.5,7l-8.1,18.1
					c-0.9,2-0.1,3.7,0.3,4.3s1.6,2,3.8,2h251.7c2.2,0,3.4-1.4,3.8-2s1.2-2.3,0.3-4.3L366,381.5l15.3-7.3l18.9,40
					c3.1,6.8,2.5,14.5-1.5,20.6C394.8,440.9,388.1,444.6,380.8,444.6z"/>
			</g>
		</g>
	</g>
	<g>
		<g>
			<g>
				<path fill="#414042" d="M381.4,374.2l18.9,40c3.1,6.8,2.5,14.5-1.5,20.6c-4,6.1-10.7,9.8-18,9.8H129.1c-7.3,0-14-3.7-18-9.8
					c-4-6.1-4.6-13.8-1.6-20.4l8.1-18.1l15.5,7l-8.1,18.1c-0.9,2-0.1,3.7,0.3,4.3c0.4,0.6,1.6,2,3.8,2h251.7c2.2,0,3.4-1.4,3.8-2
					c0.4-0.6,1.2-2.3,0.3-4.3L366,381.5L381.4,374.2 M374,358.6l-15.3,7.3l-8.2,22.9l10.2,21.5H148.8l0.1-0.2l-8.7-22.8l-15.5-7
					l-22.8,8.7l-8.1,18.1c-5.4,12-4.3,25.8,2.8,36.9c7.2,11.1,19.3,17.7,32.5,17.7h251.7c13.2,0,25.3-6.6,32.5-17.7
					c7.2-11.1,8.2-24.9,2.7-37l-0.1-0.3l-18.9-40L374,358.6L374,358.6z"/>
			</g>
		</g>
	</g>
	<g>
		<g>
			<circle fill="#E6E7E8" cx="249.8" cy="230.8" r="172.1"/>
		</g>
	</g>
	<g>
		<g>
			<circle fill="#FFD664" cx="356.9" cy="330.5" r="25.2"/>
		</g>
	</g>
	<g>
		<g>
			<circle fill="#4176AD" cx="301.1" cy="320.1" r="25.2"/>
		</g>
	</g>
	<g>
		<g>
			<circle fill="#DB802D" cx="363.4" cy="205.9" r="25.2"/>
		</g>
	</g>
	<g>
		<g>
			<circle fill="#F5E039" cx="268.1" cy="142.1" r="25.2"/>
		</g>
	</g>
	<g>
		<g>
			<path fill="#414042" d="M249.8,411.5c-99.6,0-180.7-81-180.7-180.7s81-180.7,180.7-180.7s180.7,81,180.7,180.7
				S349.4,411.5,249.8,411.5z M249.8,67.4c-90.1,0-163.4,73.3-163.4,163.4s73.3,163.4,163.4,163.4S413.2,321,413.2,230.8
				S339.9,67.4,249.8,67.4z"/>
		</g>
	</g>
	<g>
		<g>
			<g>
				<circle fill="#F5E039" cx="175.8" cy="211.1" r="25.2"/>
			</g>
		</g>
		<g>
			<g>
				<path fill="#414042" d="M175.8,244.9c-18.6,0-33.8-15.2-33.8-33.8s15.2-33.8,33.8-33.8s33.8,15.2,33.8,33.8
					S194.5,244.9,175.8,244.9z M175.8,194.6c-9.1,0-16.5,7.4-16.5,16.5c0,9.1,7.4,16.5,16.5,16.5s16.5-7.4,16.5-16.5
					C192.4,202,185,194.6,175.8,194.6z"/>
			</g>
		</g>
	</g>
	<g>
		<g>
			<g>
				<circle fill="#F5E039" cx="249.8" cy="324.2" r="25.2"/>
			</g>
		</g>
		<g>
			<g>
				<path fill="#414042" d="M249.8,358c-18.6,0-33.8-15.2-33.8-33.8s15.2-33.8,33.8-33.8s33.8,15.2,33.8,33.8S268.4,358,249.8,358z
					 M249.8,307.7c-9.1,0-16.5,7.4-16.5,16.5c0,9.1,7.4,16.5,16.5,16.5s16.5-7.4,16.5-16.5C266.3,315.1,258.9,307.7,249.8,307.7z"/>
			</g>
		</g>
	</g>
	<g>
		<g>
			<path fill="#414042" d="M363.4,239.7c-18.6,0-33.8-15.2-33.8-33.8s15.2-33.8,33.8-33.8s33.8,15.2,33.8,33.8
				S382,239.7,363.4,239.7z M363.4,189.4c-9.1,0-16.5,7.4-16.5,16.5s7.4,16.5,16.5,16.5c9.1,0,16.5-7.4,16.5-16.5
				S372.5,189.4,363.4,189.4z"/>
		</g>
	</g>
	<g>
		<g>
			<circle fill="#DB802D" cx="342" cy="282.9" r="25.2"/>
		</g>
	</g>
	<g>
		<g>
			<path fill="#414042" d="M342,316.7c-18.6,0-33.8-15.2-33.8-33.8c0-18.6,15.2-33.8,33.8-33.8s33.8,15.2,33.8,33.8
				C375.8,301.5,360.6,316.7,342,316.7z M342,266.4c-9.1,0-16.5,7.4-16.5,16.5c0,9.1,7.4,16.5,16.5,16.5c9.1,0,16.5-7.4,16.5-16.5
				C358.5,273.8,351.1,266.4,342,266.4z"/>
		</g>
	</g>
	<g>
		<g>
			<circle fill="#DB802D" cx="163.2" cy="299" r="25.2"/>
		</g>
	</g>
	<g>
		<g>
			<path fill="#414042" d="M163.2,332.8c-18.6,0-33.8-15.2-33.8-33.8c0-18.6,15.2-33.8,33.8-33.8s33.8,15.2,33.8,33.8
				C196.9,317.7,181.8,332.8,163.2,332.8z M163.2,282.5c-9.1,0-16.5,7.4-16.5,16.5c0,9.1,7.4,16.5,16.5,16.5
				c9.1,0,16.5-7.4,16.5-16.5C179.7,289.9,172.3,282.5,163.2,282.5z"/>
		</g>
	</g>
	<g>
		<g>
			<circle fill="#4176AD" cx="252.5" cy="250.6" r="25.2"/>
		</g>
	</g>
	<g>
		<g>
			<path fill="#414042" d="M252.5,284.4c-18.6,0-33.8-15.2-33.8-33.8s15.2-33.8,33.8-33.8s33.8,15.2,33.8,33.8
				S271.1,284.4,252.5,284.4z M252.5,234.1c-9.1,0-16.5,7.4-16.5,16.5c0,9.1,7.4,16.5,16.5,16.5s16.5-7.4,16.5-16.5
				C269,241.5,261.6,234.1,252.5,234.1z"/>
		</g>
	</g>
	<g>
		<g>
			<path fill="#414042" d="M356.9,364.2c-18.6,0-33.8-15.2-33.8-33.8c0-18.6,15.2-33.8,33.8-33.8c18.6,0,33.8,15.2,33.8,33.8
				C390.7,349.1,375.5,364.2,356.9,364.2z M356.9,313.9c-9.1,0-16.5,7.4-16.5,16.5c0,9.1,7.4,16.5,16.5,16.5
				c9.1,0,16.5-7.4,16.5-16.5C373.4,321.3,366,313.9,356.9,313.9z"/>
		</g>
	</g>
	<g>
		<g>
			<path fill="#414042" d="M301.1,353.8c-18.6,0-33.8-15.2-33.8-33.8s15.2-33.8,33.8-33.8s33.8,15.2,33.8,33.8
				S319.7,353.8,301.1,353.8z M301.1,303.5c-9.1,0-16.5,7.4-16.5,16.5s7.4,16.5,16.5,16.5s16.5-7.4,16.5-16.5
				S310.2,303.5,301.1,303.5z"/>
		</g>
	</g>
	<g>
		<g>
			<path fill="#414042" d="M268.1,175.9c-18.6,0-33.8-15.2-33.8-33.8s15.2-33.8,33.8-33.8c18.6,0,33.8,15.2,33.8,33.8
				S286.7,175.9,268.1,175.9z M268.1,125.6c-9.1,0-16.5,7.4-16.5,16.5s7.4,16.5,16.5,16.5c9.1,0,16.5-7.4,16.5-16.5
				S277.2,125.6,268.1,125.6z"/>
		</g>
	</g>
	<g>
		<g>
			<g>
				<circle fill="#DB802D" cx="242.9" cy="374.5" r="25.2"/>
			</g>
		</g>
		<g>
			<g>
				<path fill="#414042" d="M242.9,408.3c-18.6,0-33.8-15.2-33.8-33.8s15.2-33.8,33.8-33.8c18.6,0,33.8,15.2,33.8,33.8
					S261.6,408.3,242.9,408.3z M242.9,358c-9.1,0-16.5,7.4-16.5,16.5s7.4,16.5,16.5,16.5c9.1,0,16.5-7.4,16.5-16.5
					S252.1,358,242.9,358z"/>
			</g>
		</g>
	</g>
	<g>
		<g>
			<g>
				<circle fill="#FFD664" cx="278.2" cy="370" r="25.2"/>
			</g>
		</g>
		<g>
			<g>
				<path fill="#414042" d="M278.2,403.8c-18.6,0-33.8-15.2-33.8-33.8s15.2-33.8,33.8-33.8s33.8,15.2,33.8,33.8
					S296.8,403.8,278.2,403.8z M278.2,353.4c-9.1,0-16.5,7.4-16.5,16.6c0,9.1,7.4,16.5,16.5,16.5c9.1,0,16.5-7.4,16.5-16.5
					C294.7,360.9,287.3,353.4,278.2,353.4z"/>
			</g>
		</g>
	</g>
	<g>
		<g>
			<path fill="#FFD664" d="M419.4,259.6c0,0-43.3,93.2-169.6,93.2s-167.7,0-167.7,0v50c0,0,167.5,0,167.7,0
				c46.5,0,96.4-8.5,136.4-34.6c29.3-19.1,69.9-60.5,34-108.4C420,259.7,419.7,259.7,419.4,259.6z"/>
		</g>
	</g>
	<g>
		<g>
			<path fill="#414042" d="M249.8,411.5H82.1l-8.6-8.6v-50l8.6-8.6h167.7c119.5,0,161.4-87.4,161.8-88.2l10.9-4.4
				c-0.2-0.1-0.5-0.2-0.8-0.2c2.2,0.6,4,1.7,5.3,3.4c13.2,17.5,18.2,35.8,14.9,54.4c-5.9,33.7-37.7,57.7-51.1,66.4
				C354.3,399.4,306.8,411.5,249.8,411.5z M90.7,394.3h159c53.6,0,98-11.2,131.7-33.2c11.5-7.5,38.7-27.9,43.5-55
				c1.8-10.1,0.1-20.3-5-30.3c-6.2,9.5-16.7,23.2-32.3,36.9c-25.4,22.2-69.9,48.7-137.9,48.7h-159V394.3z"/>
		</g>
	</g>
	<g>
		<g>
			<g>
				<circle fill="#4176AD" cx="107.3" cy="377.7" r="25.2"/>
			</g>
		</g>
		<g>
			<g>
				<circle fill="#FFD664" cx="157.6" cy="377.7" r="25.2"/>
			</g>
		</g>
		<g>
			<g>
				<path fill="#414042" d="M107.3,411.5c-18.6,0-33.8-15.2-33.8-33.8S88.7,344,107.3,344s33.8,15.2,33.8,33.8
					S125.9,411.5,107.3,411.5z M107.3,361.2c-9.1,0-16.5,7.4-16.5,16.5c0,9.1,7.4,16.5,16.5,16.5s16.5-7.4,16.5-16.5
					C123.8,368.6,116.4,361.2,107.3,361.2z"/>
			</g>
		</g>
		<g>
			<g>
				<path fill="#414042" d="M157.6,411.5c-18.6,0-33.8-15.2-33.8-33.8S139,344,157.6,344s33.8,15.2,33.8,33.8
					S176.2,411.5,157.6,411.5z M157.6,361.2c-9.1,0-16.5,7.4-16.5,16.5c0,9.1,7.4,16.5,16.5,16.5c9.1,0,16.5-7.4,16.5-16.5
					C174.2,368.6,166.7,361.2,157.6,361.2z"/>
			</g>
		</g>
	</g>
</g>
</svg>
