<?xml version="1.0" encoding="utf-8"?>
<!-- Generator: Adobe Illustrator 18.0.0, SVG Export Plug-In . SVG Version: 6.00 Build 0)  -->
<!DOCTYPE svg PUBLIC "-//W3C//DTD SVG 1.1//EN" "http://www.w3.org/Graphics/SVG/1.1/DTD/svg11.dtd">
<svg version="1.1" id="Layer_1" xmlns="http://www.w3.org/2000/svg" xmlns:xlink="http://www.w3.org/1999/xlink" x="0px" y="0px"
	 viewBox="0 0 512 512" enable-background="new 0 0 512 512" xml:space="preserve">
<g>
	<g>
		<g>
			<rect x="117.7" y="84.2" fill="#EDB940" width="91.4" height="37.5"/>
		</g>
	</g>
	<g>
		<g>
			<rect x="299.9" y="84.2" fill="#EDB940" width="91.4" height="37.5"/>
		</g>
	</g>
	<g>
		<g>
			<polygon fill="#FFD386" points="117.7,84.2 132.3,98.1 192.5,98.1 209.1,84.2 			"/>
		</g>
	</g>
	<g>
		<g>
			<polygon fill="#FFD386" points="299.9,84.2 314.7,98.1 374.9,98.1 391.2,84.2 			"/>
		</g>
	</g>
	<g>
		<g>
			<path fill="#EDB940" d="M364.4,121.7h-64.2c0,0,19.7,19.9,33.6,53.5c7.2,17.7,12.9,39.2,13.1,63.7c0.5,52.3-32.5,94.5-87.5,95.9
				c-0.1,0-0.1,0-0.2,0c-0.8,0-1.6,0-2.4,0c-0.8,0-1.6,0-2.4,0c-0.1,0-0.1,0-0.2,0c-55-1.3-88.9-43.5-89.4-95.9
				c-0.2-24.5,5-46,11.8-63.7c13.2-33.7,32.5-53.5,32.5-53.5h-64.2C101.7,170.3,90.4,228.1,90.7,256c1,95.7,52.6,138.1,98.2,156.9
				c0,0,0.1,0,0.1,0c20.4,9.4,43.6,14.8,68,14.9c0.4,0,0.7,0,0.7,0s0.5,0,1.4,0c24.1-0.2,46.9-5.5,66.9-14.9c0,0,0.1,0,0.1,0
				c45.2-18.8,96.1-61.2,95.1-156.9C421,228.1,408.6,170.3,364.4,121.7z"/>
		</g>
	</g>
	<g>
		<g>
			<path fill="#FFD386" d="M365.8,238.7c0.7,65.4-42.5,112.2-105.1,114l-0.4,0h-1c-0.9,0-1.7,0-2.6,0c-0.9,0-1.7,0-2.6,0h-1l-0.3,0
				c-62.4-1.9-106.3-48.5-107-113.7c-0.2-23.7,4.1-47.3,13-70.2c4.3-11.2,9.3-20.9,14.2-29.2c0,0,0,0,0,0l36-18.1
				c0,0-19.3,19.9-32.5,53.5c-6.9,17.7-12.1,39.2-11.8,63.7c0.5,52.3,34.4,94.5,89.4,95.9c0.1,0,0.1,0,0.2,0c0.8,0,1.6,0,2.4,0
				c0.8,0,1.6,0,2.4,0c0.1,0,0.1,0,0.2,0c55-1.3,88-43.5,87.5-95.9c-0.2-24.5-5.9-46-13.1-63.7c-13.8-33.7-33.6-53.5-33.6-53.5
				l36.5,18.1c5,8.2,10.1,17.9,14.6,28.9C360.7,191.5,365.5,215.1,365.8,238.7z"/>
		</g>
	</g>
	<g>
		<g>
			<path fill="#BB8B30" d="M421.3,256c0.9,95.7-49.9,138.1-95.1,156.9c0,0-0.1,0-0.1,0c-20.1,9.3-42.8,14.7-66.9,14.9
				c-0.9,0-1.4,0-1.4,0s-0.2,0-0.7,0c-24.4-0.1-47.5-5.5-68-14.9c0,0-0.1,0-0.1,0c-45.6-18.8-97.3-61.2-98.2-156.9
				c-0.3-27.9,10.9-85.7,54.1-134.3l9,18.1c-35.2,43.3-44.5,92.8-44.2,116.1c0.7,68.4,28.7,115.1,83.4,139l7.1,3.1
				c17.9,7.8,37,11.8,57.1,11.9h0.6l1.2,0c19.7-0.1,38.6-4.1,56.1-11.8l7.1-3.1c54-23.8,81-70.5,80.3-138.7
				c-0.2-23.4-10.5-73.1-46.8-116.4l8.8-18.1c0,0,0,0,0,0C408.6,170.3,421,228.1,421.3,256z"/>
		</g>
	</g>
	<g>
		<g>
			<path fill="#414042" d="M209.1,130.6h-91.4c-4.9,0-8.9-4-8.9-8.9V84.2c0-4.9,4-8.9,8.9-8.9h91.4c4.9,0,8.9,4,8.9,8.9v37.5
				C218,126.6,214,130.6,209.1,130.6z M126.6,112.8h73.5V93.1h-73.5V112.8z"/>
		</g>
	</g>
	<g>
		<g>
			<path fill="#414042" d="M391.2,130.6h-91.4c-4.9,0-8.9-4-8.9-8.9V84.2c0-4.9,4-8.9,8.9-8.9h91.4c4.9,0,8.9,4,8.9,8.9v37.5
				C400.1,126.6,396.2,130.6,391.2,130.6z M308.8,112.8h73.5V93.1h-73.5V112.8z"/>
		</g>
	</g>
	<g>
		<g>
			<path fill="#414042" d="M257.7,436.7C257.7,436.7,257.7,436.7,257.7,436.7l-0.9,0c-25-0.1-49.1-5.4-71.4-15.7
				c-46.7-19.3-102.6-63.6-103.6-165C81.5,221,96,163.2,138.2,115.8c1.7-1.9,4.1-3,6.7-3h64.2c3.6,0,6.8,2.1,8.2,5.5
				c1.4,3.3,0.7,7.1-1.8,9.7c-0.2,0.2-18.3,19.1-30.6,50.6c-7.6,19.7-11.4,40-11.2,60.4c0.5,50.9,32.9,85.8,80.6,87
				c0.2,0,0.3,0,0.5,0c0.7,0,1.3,0,2,0c0.7,0,1.3,0,2,0c0.2,0,0.3,0,0.5,0c47.6-1.2,79.2-36.1,78.7-86.8
				c-0.2-20.4-4.4-40.7-12.4-60.4c-13-31.7-31.4-50.4-31.6-50.6c-2.5-2.6-3.3-6.4-1.9-9.7c1.4-3.3,4.6-5.5,8.2-5.5h64.2
				c2.5,0,4.9,1.1,6.6,2.9c43.1,47.4,58.8,105.2,59.1,140.2c1,101.5-54,145.8-100.5,165.1c-22,10.2-45.7,15.5-70.5,15.7
				C258.3,436.7,257.8,436.7,257.7,436.7z M192.8,404.8c20,9.3,41.7,14,64.3,14.1l0.7,0c0.1,0,0.5,0,1.2,0
				c22.4-0.2,43.7-4.9,63.4-14.1v0c0.1-0.1,0.3-0.1,0.4-0.2v0c41.4-17.2,90.5-56.9,89.6-148.5c-0.2-25.2-11.5-79.4-51.9-125.5h-41.4
				c7,9.6,15.7,23.6,23,41.2c8.9,21.8,13.5,44.4,13.8,67c0.6,60.3-38.9,103.4-96,104.9c-0.2,0-0.4,0-0.6,0c-1.6,0.1-3.2,0.1-4.8,0
				c-0.2,0-0.4,0-0.6,0c-57.1-1.5-97.3-44.5-97.9-104.7c-0.2-22.6,4-45.2,12.4-67c6.9-17.7,15.4-31.7,22.2-41.4h-41.6
				c-39.3,46-49.5,100.2-49.3,125.3c0.9,91.7,50.9,131.5,92.7,148.7l0,0C192.5,404.7,192.7,404.7,192.8,404.8L192.8,404.8z"/>
		</g>
	</g>
	<g>
		<g>
			<g>
				<path fill="#414042" d="M275.3,379c0.1,9-7.9,16.3-17.9,16.3s-18.1-7.3-18.2-16.3c-0.1-9,7.9-16.3,17.9-16.3
					S275.2,370,275.3,379z"/>
			</g>
		</g>
		<g>
			<g>
				<path fill="#414042" d="M354.4,351.1c0.1,6.4-5.6,11.5-12.6,11.5c-7,0-12.8-5.2-12.8-11.5c-0.1-6.4,5.6-11.5,12.6-11.5
					C348.6,339.5,354.4,344.7,354.4,351.1z"/>
			</g>
		</g>
		<g>
			<g>
				<path fill="#414042" d="M184.9,351.1c0.1,6.4-5.6,11.5-12.6,11.5s-12.8-5.2-12.8-11.5c-0.1-6.4,5.6-11.5,12.6-11.5
					S184.9,344.7,184.9,351.1z"/>
			</g>
		</g>
	</g>
</g>
</svg>
