<?xml version="1.0" encoding="utf-8"?>
<!-- Generator: Adobe Illustrator 18.0.0, SVG Export Plug-In . SVG Version: 6.00 Build 0)  -->
<!DOCTYPE svg PUBLIC "-//W3C//DTD SVG 1.1//EN" "http://www.w3.org/Graphics/SVG/1.1/DTD/svg11.dtd">
<svg version="1.1" id="Layer_1" xmlns="http://www.w3.org/2000/svg" xmlns:xlink="http://www.w3.org/1999/xlink" x="0px" y="0px"
	 viewBox="0 0 512 512" enable-background="new 0 0 512 512" xml:space="preserve">
<g>
	<g>
		<g>
			<g>
				<path fill="#4176AD" d="M226.1,357.8c-13.6-3.4-29.5-5.4-46.6-5.4s-33,2-46.6,5.4H89.4V390c0,20.7,40.3,37.6,90.1,37.6
					c49.8,0,90.1-16.8,90.1-37.6v-32.2H226.1z"/>
			</g>
		</g>
		<g>
			<g>
				<path fill="#E6E7E8" d="M131.5,389.6v32.2h0c-8.1-2.1-15.3-4.8-21.4-7.8v-32.2C116.2,384.8,123.5,387.5,131.5,389.6z"/>
			</g>
		</g>
		<g>
			<g>
				<path fill="#E6E7E8" d="M194,394.9V427c-4.7,0.3-9.6,0.5-14.5,0.5s-9.8-0.2-14.5-0.5v-32.2h0c4.7,0.3,9.5,0.5,14.5,0.5
					S189.3,395.2,194,394.9L194,394.9z"/>
			</g>
		</g>
		<g>
			<g>
				<path fill="#E6E7E8" d="M249.6,381.4l-0.1,32.2c-5.9,3-12.9,5.7-20.7,7.8v-32.2C236.7,387.1,243.7,384.4,249.6,381.4
					L249.6,381.4z"/>
			</g>
		</g>
		<g>
			<g>
				<path fill="#414042" d="M179.5,436.3c-47.9,0-98.9-16.2-98.9-46.4v-32.2c0-4.9,3.9-8.8,8.8-8.8h42.4c14.5-3.5,30.9-5.4,47.7-5.4
					c16.8,0,33.2,1.9,47.7,5.4h42.4c4.9,0,8.8,3.9,8.8,8.8V390C278.4,420.1,227.5,436.3,179.5,436.3z M98.2,366.6V390
					c0,11.7,31.7,28.8,81.3,28.8c49.6,0,81.3-17,81.3-28.8v-23.4h-34.7c-0.7,0-1.4-0.1-2.2-0.3c-13.3-3.4-28.7-5.1-44.4-5.1
					c-15.7,0-31.1,1.8-44.4,5.1c-0.7,0.2-1.4,0.3-2.2,0.3H98.2z"/>
			</g>
		</g>
		<g>
			<g>
				<ellipse fill="#4176AD" cx="179.5" cy="357.8" rx="90.1" ry="37.6"/>
			</g>
		</g>
		<g>
			<g>
				<g>
					<g>
						<path fill="#E6E7E8" d="M194,326.8l-2.7,8.5c-3.8-0.3-7.7-0.4-11.7-0.4c-4,0-7.9,0.1-11.7,0.4l-2.7-8.5
							c4.7-0.3,9.5-0.5,14.5-0.5C184.4,326.4,189.3,326.5,194,326.8z"/>
					</g>
				</g>
			</g>
			<g>
				<g>
					<g>
						<path fill="#E6E7E8" d="M194,388.8c-4.7,0.3-9.5,0.5-14.5,0.5c-4.9,0-9.8-0.2-14.5-0.5l2.7-8.5c3.8,0.3,7.7,0.4,11.7,0.4
							c4,0,7.9-0.1,11.7-0.4L194,388.8z"/>
					</g>
				</g>
			</g>
			<g>
				<g>
					<g>
						<path fill="#E6E7E8" d="M144.8,338.8c-6.5,1.6-12.2,3.7-16.6,6.2l-18.1-5.3c2.7-1.4,5.9-2.8,9.4-4.1c3.5-1.3,7.2-2.5,11.1-3.5
							L144.8,338.8z"/>
					</g>
				</g>
			</g>
			<g>
				<g>
					<g>
						<path fill="#E6E7E8" d="M248.9,375.9c-2.7,1.4-5.9,2.8-9.4,4.1c-3.5,1.3-7.2,2.5-11.1,3.5l-14.2-6.7
							c6.5-1.6,12.2-3.7,16.6-6.2L248.9,375.9z"/>
					</g>
				</g>
			</g>
			<g>
				<g>
					<g>
						<path fill="#E6E7E8" d="M117.6,357.8c0,1.5,0.4,2.9,1.1,4.4l-22.8,1c-0.8-1.7-1.2-3.5-1.2-5.4c0-1.8,0.4-3.6,1.2-5.4l22.8,1
							C118,354.9,117.6,356.3,117.6,357.8z"/>
					</g>
				</g>
			</g>
			<g>
				<g>
					<g>
						<path fill="#E6E7E8" d="M264.3,357.8c0,1.8-0.4,3.6-1.2,5.4l-22.8-1c0.7-1.4,1.1-2.9,1.1-4.4c0-1.5-0.4-2.9-1.1-4.4l22.8-1
							C263.9,354.2,264.3,356,264.3,357.8z"/>
					</g>
				</g>
			</g>
			<g>
				<g>
					<g>
						<path fill="#E6E7E8" d="M144.8,376.8l-14.2,6.7c-3.9-1-7.6-2.2-11.1-3.5s-6.6-2.7-9.4-4.1l18.1-5.3
							C132.7,373.1,138.3,375.2,144.8,376.8z"/>
					</g>
				</g>
			</g>
			<g>
				<g>
					<g>
						<path fill="#E6E7E8" d="M248.9,339.7l-18.1,5.3c-4.4-2.4-10.1-4.5-16.6-6.2l14.2-6.7c3.9,1,7.6,2.2,11.1,3.5
							C243,336.9,246.1,338.2,248.9,339.7z"/>
					</g>
				</g>
			</g>
		</g>
		<g>
			<g>
				<path fill="#414042" d="M179.5,404.2c-47.9,0-98.9-16.2-98.9-46.4c0-30.1,51-46.4,98.9-46.4s98.9,16.2,98.9,46.4
					C278.4,387.9,227.5,404.2,179.5,404.2z M179.5,329c-49.6,0-81.3,17-81.3,28.8s31.7,28.8,81.3,28.8c49.6,0,81.3-17,81.3-28.8
					S229.1,329,179.5,329z"/>
			</g>
		</g>
		<g>
			<g>
				<ellipse fill="#E6E7E8" cx="179.5" cy="357.9" rx="45.2" ry="12.9"/>
			</g>
		</g>
		<g>
			<g>
				<path fill="#414042" d="M179.5,379.6c-9,0-54-1-54-21.7c0-20.7,45-21.7,54-21.7c9,0,54,1,54,21.7
					C233.5,378.6,188.5,379.6,179.5,379.6z M147.6,357.9c6.1,2.1,17,4.1,31.9,4.1c14.9,0,25.8-2.1,31.9-4.1
					c-6.1-2.1-17-4.1-31.9-4.1C164.6,353.7,153.7,355.8,147.6,357.9z"/>
			</g>
		</g>
	</g>
	<g>
		<g>
			<g>
				<path fill="#4176AD" d="M233.5,325.9c-13.6-3.4-29.5-5.4-46.6-5.4s-33,2-46.6,5.4H96.8v32.2c0,20.7,40.3,37.6,90.1,37.6
					c49.8,0,90.1-16.8,90.1-37.6v-32.2H233.5z"/>
			</g>
		</g>
		<g>
			<g>
				<path fill="#E6E7E8" d="M139,357.7v32.2h0c-8.1-2.1-15.3-4.8-21.4-7.8v-32.2C123.7,353,130.9,355.6,139,357.7z"/>
			</g>
		</g>
		<g>
			<g>
				<path fill="#E6E7E8" d="M201.4,363v32.2c-4.7,0.3-9.6,0.5-14.5,0.5s-9.8-0.2-14.5-0.5V363h0c4.7,0.3,9.5,0.5,14.5,0.5
					S196.7,363.3,201.4,363L201.4,363z"/>
			</g>
		</g>
		<g>
			<g>
				<path fill="#E6E7E8" d="M257,349.5l-0.1,32.2c-5.9,3-12.9,5.7-20.7,7.8v-32.2C244.1,355.2,251.1,352.6,257,349.5L257,349.5z"/>
			</g>
		</g>
		<g>
			<g>
				<path fill="#414042" d="M186.9,404.5c-47.9,0-98.9-16.2-98.9-46.4v-32.2c0-4.9,3.9-8.8,8.8-8.8h42.4c14.5-3.5,30.9-5.4,47.7-5.4
					c16.8,0,33.2,1.9,47.7,5.4H277c4.9,0,8.8,3.9,8.8,8.8v32.2C285.8,388.2,234.9,404.5,186.9,404.5z M105.6,334.7v23.4
					c0,11.7,31.7,28.8,81.3,28.8c49.6,0,81.3-17,81.3-28.8v-23.4h-34.7c-0.7,0-1.4-0.1-2.2-0.3c-13.3-3.4-28.7-5.1-44.4-5.1
					s-31.1,1.8-44.4,5.1c-0.7,0.2-1.4,0.3-2.2,0.3H105.6z"/>
			</g>
		</g>
		<g>
			<g>
				<ellipse fill="#4176AD" cx="186.9" cy="325.9" rx="90.1" ry="37.6"/>
			</g>
		</g>
		<g>
			<g>
				<g>
					<g>
						<path fill="#E6E7E8" d="M201.4,295l-2.7,8.5c-3.8-0.3-7.7-0.4-11.7-0.4c-4,0-7.9,0.1-11.7,0.4l-2.7-8.5
							c4.7-0.3,9.5-0.5,14.5-0.5C191.9,294.5,196.7,294.6,201.4,295z"/>
					</g>
				</g>
			</g>
			<g>
				<g>
					<g>
						<path fill="#E6E7E8" d="M201.4,356.9c-4.7,0.3-9.5,0.5-14.5,0.5c-4.9,0-9.8-0.2-14.5-0.5l2.7-8.5c3.8,0.3,7.7,0.4,11.7,0.4
							c4,0,7.9-0.1,11.7-0.4L201.4,356.9z"/>
					</g>
				</g>
			</g>
			<g>
				<g>
					<g>
						<path fill="#E6E7E8" d="M152.3,306.9c-6.5,1.6-12.2,3.7-16.6,6.2l-18.1-5.3c2.7-1.4,5.9-2.8,9.4-4.1c3.5-1.3,7.2-2.5,11.1-3.5
							L152.3,306.9z"/>
					</g>
				</g>
			</g>
			<g>
				<g>
					<g>
						<path fill="#E6E7E8" d="M256.3,344c-2.7,1.4-5.9,2.8-9.4,4.1c-3.5,1.3-7.2,2.5-11.1,3.5l-14.2-6.7c6.5-1.6,12.2-3.7,16.6-6.2
							L256.3,344z"/>
					</g>
				</g>
			</g>
			<g>
				<g>
					<g>
						<path fill="#E6E7E8" d="M125,325.9c0,1.5,0.4,2.9,1.1,4.4l-22.8,1c-0.8-1.7-1.2-3.5-1.2-5.4c0-1.8,0.4-3.6,1.2-5.4l22.8,1
							C125.4,323,125,324.4,125,325.9z"/>
					</g>
				</g>
			</g>
			<g>
				<g>
					<g>
						<path fill="#E6E7E8" d="M271.8,325.9c0,1.8-0.4,3.6-1.2,5.4l-22.8-1c0.7-1.4,1.1-2.9,1.1-4.4c0-1.5-0.4-2.9-1.1-4.4l22.8-1
							C271.3,322.3,271.8,324.1,271.8,325.9z"/>
					</g>
				</g>
			</g>
			<g>
				<g>
					<g>
						<path fill="#E6E7E8" d="M152.3,344.9l-14.2,6.7c-3.9-1-7.6-2.2-11.1-3.5c-3.5-1.3-6.6-2.7-9.4-4.1l18.1-5.3
							C140.1,341.2,145.7,343.3,152.3,344.9z"/>
					</g>
				</g>
			</g>
			<g>
				<g>
					<g>
						<path fill="#E6E7E8" d="M256.3,307.8l-18.1,5.3c-4.4-2.4-10.1-4.5-16.6-6.2l14.2-6.7c3.9,1,7.6,2.2,11.1,3.5
							C250.4,305,253.5,306.4,256.3,307.8z"/>
					</g>
				</g>
			</g>
		</g>
		<g>
			<g>
				<path fill="#414042" d="M186.9,372.3C139,372.3,88,356,88,325.9s51-46.4,98.9-46.4s98.9,16.2,98.9,46.4S234.9,372.3,186.9,372.3
					z M186.9,297.2c-49.6,0-81.3,17-81.3,28.8s31.7,28.8,81.3,28.8c49.6,0,81.3-17,81.3-28.8S236.6,297.2,186.9,297.2z"/>
			</g>
		</g>
		<g>
			<g>
				<ellipse fill="#E6E7E8" cx="186.9" cy="326" rx="45.2" ry="12.9"/>
			</g>
		</g>
		<g>
			<g>
				<path fill="#414042" d="M186.9,347.7c-9,0-54-1-54-21.7c0-20.7,45-21.7,54-21.7c9,0,54,1,54,21.7
					C240.9,346.7,196,347.7,186.9,347.7z M155,326c6.1,2.1,17,4.1,31.9,4.1c14.9,0,25.8-2.1,31.9-4.1c-6.1-2.1-17-4.1-31.9-4.1
					C172.1,321.9,161.2,324,155,326z"/>
			</g>
		</g>
	</g>
	<g>
		<g>
			<path fill="#E6E7E8" d="M315.5,361.3H196.3c-10.9,0-19.7-8.8-19.7-19.7V104.2c0-10.9,8.8-19.7,19.7-19.7h119.1
				c10.9,0,19.7,8.8,19.7,19.7v237.5C335.2,352.5,326.4,361.3,315.5,361.3z"/>
		</g>
	</g>
	<g>
		<g>
			<rect x="207.5" y="132.1" fill="#B5B1A6" width="97.3" height="171.2"/>
		</g>
	</g>
	<g>
		<g>
			<path fill="#414042" d="M315.5,370.1H196.3c-15.7,0-28.5-12.8-28.5-28.5V104.2c0-15.7,12.8-28.5,28.5-28.5h119.1
				c15.7,0,28.5,12.8,28.5,28.5v237.5C344,357.3,331.2,370.1,315.5,370.1z M196.3,93.3c-6,0-10.9,4.9-10.9,10.9v237.5
				c0,6,4.9,10.9,10.9,10.9h119.1c6,0,10.9-4.9,10.9-10.9V104.2c0-6-4.9-10.9-10.9-10.9H196.3z"/>
		</g>
	</g>
	<g>
		<g>
			<path fill="#414042" d="M269.1,117H237c-4.9,0-8.8-3.9-8.8-8.8c0-4.9,3.9-8.8,8.8-8.8h32.1c4.9,0,8.8,3.9,8.8,8.8
				C277.9,113.1,274,117,269.1,117z"/>
		</g>
	</g>
	<g>
		<g>
			<path fill="#414042" d="M304.9,312.2h-97.3c-4.9,0-8.8-3.9-8.8-8.8V132.1c0-4.9,3.9-8.8,8.8-8.8h97.3c4.9,0,8.8,3.9,8.8,8.8
				v171.2C313.6,308.2,309.7,312.2,304.9,312.2z M216.3,294.6h79.7V140.9h-79.7V294.6z"/>
		</g>
	</g>
	<g>
		<g>
			<circle fill="#414042" cx="255.9" cy="330.3" r="12.8"/>
		</g>
	</g>
	<g>
		<g>
			<path fill="#D04527" d="M265.2,207.8c-1.7-1-3.3-2-4.7-2.9c-1-0.6-2-1.3-3.1-1.9c-2.7-1.7-5.2-3.2-6.6-5
				c-1.2-1.5-1.9-3.2-1.8-4.6c0.1-2.4,3.3-4.2,6.2-4.4c3.3-0.2,7.2,0.6,10.8,2.1l0,8.1l17.6,0l0-24.3l-10.9,0c-2.5-1-5-1.8-7.5-2.4
				v-9.8l-17.6,0l0,10.1c-8.2,2.7-15.6,9.5-16.1,19.6c-0.3,5.9,1.8,12.1,5.9,17c3.3,3.9,7.3,6.4,10.8,8.6l0.1,0.1
				c0.9,0.5,1.7,1.1,2.5,1.6c1.7,1.1,3.5,2.2,5.4,3.3l0.1,0.1c9.4,5.6,13.5,8.8,13,13.2c-0.5,4.2-5.6,6.8-9.9,6.8
				c-6.1,0-9.3-2.8-10.6-4.5v-9.2l-17.6,0l0,12.5v1.1l0,12.8l10.8,0c1.6,1.1,3.5,2,5.6,2.8l0,10.8l17.6,0l0-9.4
				c10.2-2.1,20.1-9.5,21.6-21.7C288.7,221.8,274.6,213.4,265.2,207.8z"/>
		</g>
	</g>
	<g>
		<g>
			<g>
				<rect x="322.3" y="381.9" fill="#E6E7E8" width="100.3" height="40.9"/>
			</g>
		</g>
		<g>
			<g>
				<path fill="#414042" d="M422.6,431.6H322.3c-4.9,0-8.8-3.9-8.8-8.8v-40.9c0-4.9,3.9-8.8,8.8-8.8h100.3c4.9,0,8.8,3.9,8.8,8.8
					v40.9C431.4,427.6,427.5,431.6,422.6,431.6z M331.1,414h82.7v-23.3h-82.7V414z"/>
			</g>
		</g>
	</g>
	<g>
		<g>
			<path fill="#F2D3BC" d="M255.1,245.8c-6,8.9-5.3,21.4,9.2,34.2c17.7,15.6,60.9,50.9,60.9,69.7c0,15.3,7.3,32.2,7.3,32.2h78.1
				c0,0,6.4-7.3,6.4-29.9c0-16.9,0-37.2,0-67.9c0-51.7-81.9-78.7-81.9-78.7v50.3c0,0,7.4,3.3,1.4,10.5c-4.2,5-33.4-17.1-45.9-26.5
				C274.6,227.7,261.6,236.2,255.1,245.8L255.1,245.8z"/>
		</g>
	</g>
	<g>
		<g>
			<path fill="#414042" d="M410.7,390.7h-78.1c-3.5,0-6.7-2.1-8.1-5.3c-0.3-0.8-8-18.7-8-35.7c0-13.5-40.4-48.1-53.7-59.4
				c-1.5-1.3-3-2.5-4.2-3.6c-19.4-16.7-18.2-34.6-10.7-45.7c6.7-10,17-16,27.4-16c7.1,0,14.1,2.6,20.8,7.8
				c9.7,7.6,21.9,16,30.3,21.2v-48.7c0-2.8,1.4-5.5,3.6-7.1c2.3-1.7,5.2-2.1,7.9-1.2c3.6,1.2,88,29.7,88,87.1v67.9
				c0,24.5-7.2,34-8.6,35.7C415.7,389.6,413.2,390.7,410.7,390.7z M338.6,373.1h66.7c1.3-3.6,3-10.2,3-21.2V284
				c0-34-43.1-56.7-64.3-65.8v33.6c1.9,2.1,3.7,5.2,3.8,9.2c0.2,3.6-1,8.8-7.4,13.5c-1.7,1.2-3.7,1.9-5.9,1.9
				c-10.8,0-45.3-26.7-49.2-29.7c-3.5-2.7-6.8-4.1-10-4.1c-6.8,0-11.5,6.3-12.8,8.2c-4.3,6.4-1.5,14.7,7.6,22.6
				c1.3,1.1,2.7,2.3,4.2,3.6c30.3,25.9,59.8,52.9,59.8,72.8C334.1,358.2,336.7,367.5,338.6,373.1z"/>
		</g>
	</g>
</g>
</svg>
