<?xml version="1.0" encoding="utf-8"?>
<!-- Generator: Adobe Illustrator 18.0.0, SVG Export Plug-In . SVG Version: 6.00 Build 0)  -->
<!DOCTYPE svg PUBLIC "-//W3C//DTD SVG 1.1//EN" "http://www.w3.org/Graphics/SVG/1.1/DTD/svg11.dtd">
<svg version="1.1" id="Layer_1" xmlns="http://www.w3.org/2000/svg" xmlns:xlink="http://www.w3.org/1999/xlink" x="0px" y="0px"
	 viewBox="0 0 512 512" enable-background="new 0 0 512 512" xml:space="preserve">
<g>
	<g>
		<g>
			<path fill="#84BB41" d="M391.4,414.5H120.6c-13.6,0-24.7-11.1-24.7-24.7V122.2c0-13.6,11.1-24.7,24.7-24.7h270.9
				c13.6,0,24.7,11.1,24.7,24.7v267.7C416.1,403.5,405.1,414.5,391.4,414.5z"/>
		</g>
	</g>
	<g>
		<g>
			<path fill="#414042" d="M391.4,423.3H120.6c-18.5,0-33.5-15-33.5-33.5V122.2c0-18.5,15-33.5,33.5-33.5h270.9
				c18.5,0,33.5,15,33.5,33.5v267.7C424.9,408.3,409.9,423.3,391.4,423.3z M120.6,106.3c-8.8,0-15.9,7.1-15.9,15.9v267.7
				c0,8.8,7.1,15.9,15.9,15.9h270.9c8.8,0,15.9-7.1,15.9-15.9V122.2c0-8.8-7.1-15.9-15.9-15.9H120.6z"/>
		</g>
	</g>
	<g>
		<g>
			<polygon fill="#EDEDED" points="146.7,352.3 187.4,159.7 247.8,159.7 283.9,255.3 305.1,159.7 365.3,159.7 325.8,352.3 
				268.5,352.3 230,255.3 210.5,352.3 			"/>
		</g>
	</g>
</g>
</svg>
