<?xml version="1.0" encoding="utf-8"?>
<!-- Generator: Adobe Illustrator 18.0.0, SVG Export Plug-In . SVG Version: 6.00 Build 0)  -->
<!DOCTYPE svg PUBLIC "-//W3C//DTD SVG 1.1//EN" "http://www.w3.org/Graphics/SVG/1.1/DTD/svg11.dtd">
<svg version="1.1" id="Layer_1" xmlns="http://www.w3.org/2000/svg" xmlns:xlink="http://www.w3.org/1999/xlink" x="0px" y="0px"
	 viewBox="0 0 512 512" enable-background="new 0 0 512 512" xml:space="preserve">
<g>
	<g>
		<g>
			<g>
				<path fill="#E6E7E8" d="M375,261.6c-17.4,49-64.3,84.1-119.3,84c-55-0.1-101.7-35.3-118.9-84.4c-4.6-13.2-7.2-27.3-7.1-42.1
					s2.6-28.9,7.3-42.1c17.4-49,64.3-84.1,119.3-84c55,0.1,101.7,35.3,118.9,84.4c4.6,13.2,7.1,27.3,7.1,42.1S379.7,248.5,375,261.6
					z"/>
			</g>
		</g>
		<g>
			<g>
				<g>
					<g>
						<path fill="#F2D3BC" d="M309.1,217.2l-0.1,0c9.1,0,16.3-7.6,15.8-16.8c-0.5-8.4-7.9-14.7-16.3-14.8l-4.1,0c0,0-3.5,0-10,0
							c-5,0-14.7,0-22.9,0c3.4-9.9,7.3-22.5,8.2-31.6c0.9-9.2-3.8-18.3-11.1-24.8c-5.3-4.7-13.7-1.9-15.3,5
							c-1.1,4.8-2.4,10.6-4,16.6c-5.2,19.3-18.5,35.5-36.3,44.7c-12.6,6.4-20.3,13.6-20.3,13.6l-23.6,0l-0.1,69.7l24.7,0
							c13.2,15.5,41.5,17.8,41.5,17.8l46.5,0.1l0,0.1l18.6,0c6.3,0,11.7-4.8,11.9-11.1c0.2-6.5-5-11.8-11.4-11.8l-0.2,0l0-0.1l3.5,0
							c6.9,0,13-5.2,13.4-12.1c0.5-7.6-5.5-13.9-12.9-13.9l-2.8,0l0-0.1l7.9,0c9.2,0,16.5-8.1,15.1-17.5
							C323.4,222.6,316.7,217.2,309.1,217.2z"/>
					</g>
				</g>
				<g>
					<g>
						<path fill="#414042" d="M300.1,303.9C300.1,303.9,300,303.9,300.1,303.9l-18.6,0c-0.3,0-0.7,0-1-0.1l-45.5-0.1
							c-0.2,0-0.4,0-0.6,0c-1.2-0.1-28.5-2.5-44-17.8l-21.6,0c-1.9,0-3.7-0.8-5.1-2.1c-1.3-1.3-2.1-3.2-2.1-5.1l0.1-69.7
							c0-1.9,0.8-3.7,2.1-5.1c1.3-1.3,3.2-2.1,5.1-2.1c0,0,0,0,0,0l21,0c3.3-2.8,10.3-8,19.7-12.8c16.1-8.2,28-22.9,32.6-40.1
							c1.4-5.2,2.7-10.6,4-16.3c1.7-7.7,8.3-13,16.2-13c4,0,7.8,1.5,10.8,4.1c9.5,8.5,14.6,20,13.5,30.9c-0.6,6.1-2.4,14.1-5.5,23.7
							l27.2,0.1c12.4,0,22.6,9.5,23.4,21.5c0.4,6.4-1.8,12.5-6.2,17.2c0,0,0,0,0,0c3.1,3.2,5.2,7.4,5.9,12c1,6.5-0.9,13.1-5.2,18
							c-1.3,1.5-2.8,2.9-4.5,4c1.9,3.4,2.7,7.2,2.5,11.1c-0.4,5.8-3.3,10.8-7.6,14.3c1.6,2.9,2.4,6.1,2.3,9.5
							C318.8,295.8,310.3,303.9,300.1,303.9z M282.5,289.5l17.5,0l0,7.2v-7.2c2.5,0,4.7-1.9,4.7-4.1c0-1.2-0.4-2.3-1.2-3.1
							c-0.8-0.8-1.9-1.3-3.1-1.3h-0.2c-2,0-3.8-0.8-5.2-2.2c-1.4-1.4-2.1-3.3-2-5.3c0.2-3.8,3.4-7,7.2-7l3.5,0c3.3,0,6-2.4,6.2-5.4
							c0.1-1.6-0.4-3.2-1.5-4.4c-1.1-1.2-2.6-1.8-4.2-1.8l-2.8,0c-2,0-3.8-0.8-5.2-2.2c-1.4-1.4-2.1-3.3-2-5.3c0.2-3.8,3.3-7,7.2-7
							c0,0,0,0,0,0l7.9,0h0c2.4,0,4.6-1,6.1-2.8c1.6-1.8,2.2-4.1,1.9-6.5c-0.6-3.9-4.2-6.8-8.4-6.8c0,0,0,0-0.1,0l0,0
							c-3.9,0-7.2-3.2-7.2-7.2c0-4,3.1-7.2,7.1-7.2c2.4,0,4.7-1,6.3-2.7c1.6-1.7,2.5-4,2.3-6.5c-0.3-4.4-4.4-8-9.1-8l-37.1-0.1
							c-2.3,0-4.5-1.1-5.8-3c-1.3-1.9-1.7-4.3-0.9-6.5c4.5-12.8,7.2-23.2,7.9-29.9c0.6-6.3-2.6-13.3-8.7-18.7
							c-0.4-0.3-0.8-0.5-1.3-0.5c-0.6,0-1.9,0.4-2.2,1.7c-1.3,5.8-2.7,11.5-4.1,16.9c-5.7,21.2-20.3,39.1-40,49.2
							c-11.4,5.9-18.7,12.5-18.7,12.5c-1.3,1.2-3.1,1.9-4.9,1.9c0,0,0,0,0,0l-16.5,0l-0.1,55.4l17.5,0c2.1,0,4.1,0.9,5.4,2.5
							c9.1,10.7,29,14.6,36.3,15.2l46.2,0.1C281.8,289.5,282.2,289.5,282.5,289.5z"/>
					</g>
				</g>
				<g>
					<g>
						<g>
							<g>
								<path fill="#E6E7E8" d="M177.2,198.3l-0.2,92.3l-35.1-0.1c-0.9-1.4-1.7-2.8-2.5-4.2l0.2-88.1L177.2,198.3z"/>
							</g>
						</g>
						<g>
							<g>
								<path fill="#414042" d="M177,297.8C177,297.8,177,297.8,177,297.8l-35.1-0.1c-2.5,0-4.7-1.3-6.1-3.4c-0.9-1.5-1.8-3-2.7-4.5
									c-0.6-1.1-0.9-2.3-0.9-3.6l0.2-88.1c0-4,3.2-7.2,7.2-7.2c0,0,0,0,0,0l37.6,0.1c1.9,0,3.7,0.8,5.1,2.1s2.1,3.2,2.1,5.1
									l-0.2,92.3c0,1.9-0.8,3.7-2.1,5.1C180.8,297,178.9,297.8,177,297.8z M146.6,283.4l23.3,0l0.2-78l-23.3,0L146.6,283.4z"/>
							</g>
						</g>
					</g>
					<g>
						<g>
							<path fill="#4F4F4F" d="M149.8,189.8l-0.2,107.6l-3.2,0c-1.6-2.2-3.1-4.5-4.5-6.8c-0.9-1.4-1.7-2.8-2.5-4.2
								c-4-7-7.4-14.4-10.2-22.1c0-0.1-0.1-0.2-0.1-0.4c-1.9-5.3-3.4-10.7-4.6-16.2c-1.5-6.8-2.4-13.7-2.8-20.9
								c-0.1-2.6-0.2-5.1-0.2-7.7c0-10.1,1.1-19.9,3.3-29.3L149.8,189.8z"/>
						</g>
					</g>
					<g>
						<g>
							<path fill="#414042" d="M149.6,304.5C149.6,304.5,149.6,304.5,149.6,304.5l-3.2,0c-2.3,0-4.5-1.1-5.8-3
								c-1.7-2.3-3.3-4.8-4.8-7.2c-0.9-1.4-1.8-2.9-2.7-4.5c-4.2-7.3-7.8-15.1-10.7-23.2c0-0.1-0.1-0.2-0.1-0.3c0,0,0-0.1,0-0.1
								c-2-5.5-3.6-11.3-4.8-17.1c-1.5-7.2-2.5-14.6-2.9-22c-0.2-2.8-0.2-5.5-0.2-8.1c0-10.5,1.2-20.9,3.5-30.9
								c0.7-3.3,3.6-5.6,7-5.6c0,0,0,0,0,0l25,0c1.9,0,3.7,0.8,5.1,2.1c1.3,1.3,2.1,3.2,2.1,5.1l-0.2,107.6
								C156.8,301.3,153.6,304.5,149.6,304.5z M135.9,261.7c0,0,0,0.1,0,0.1c1.8,5.2,4,10.2,6.5,15.2l0.2-80.1l-12,0
								c-1.3,7.2-2,14.7-2,22.2c0,2.4,0.1,4.8,0.2,7.3c0.4,6.6,1.2,13.3,2.6,19.8c1.1,5.2,2.6,10.3,4.3,15.3
								C135.9,261.5,135.9,261.6,135.9,261.7z"/>
						</g>
					</g>
					<g>
						<g>
							<path fill="#414042" d="M149.8,234C149.8,234,149.8,234,149.8,234l-28.1-0.1c-4,0-7.2-3.2-7.2-7.2c0-4,3.2-7.2,7.2-7.2
								c0,0,0,0,0,0l28,0.1c4,0,7.2,3.2,7.2,7.2C156.9,230.8,153.7,234,149.8,234z"/>
						</g>
					</g>
					<g>
						<g>
							<path fill="#414042" d="M134.3,256.3c0,3.5-2.1,6.5-5.1,7.9c0-0.1-0.1-0.2-0.1-0.4c-1.9-5.3-3.4-10.7-4.6-16.2
								c0.4-0.1,0.7-0.1,1.1-0.1C130.4,247.6,134.3,251.5,134.3,256.3z"/>
						</g>
					</g>
				</g>
			</g>
			<g>
				<g>
					<g>
						<path fill="#84BB41" d="M410.5,200.6c-6.4-6-9.9-14.3-9.9-22.8c0-3.6,0.7-7.3,2-10.8c1.3-3.6,2-7.2,2-10.8
							c0-14-9.5-27-24.1-30.3c-6.1-1.4-11.5-4.6-15.6-9c-4.1-4.4-7-10-8-16.2c-2.6-15.3-15.9-25.9-30.6-25.9c-3,0-6.1,0.4-9.2,1.4
							c-3,0.9-6.1,1.4-9.1,1.4c-9.1,0-17.9-4-23.9-11.3c-6.2-7.5-15-11.3-23.9-11.3c-8.3,0-16.6,3.3-22.8,9.9
							c-6,6.5-14.3,9.9-22.8,9.9c-3.6,0-7.3-0.7-10.8-2c-3.6-1.3-7.2-2-10.8-2c-14,0-27,9.5-30.3,24.1c-1.4,6.1-4.6,11.5-9,15.7
							c-4.4,4.1-10,7-16.2,8c-15.3,2.6-25.9,15.9-25.9,30.5c0,3,0.4,6.1,1.4,9.2c0.9,3,1.4,6.1,1.4,9.2c0,9.1-4,17.9-11.3,23.9
							c-7.5,6.2-11.3,15-11.3,23.9c0,8.3,3.3,16.6,9.9,22.8c6.4,6,9.9,14.3,9.9,22.8c0,3.6-0.7,7.3-2,10.8c-1.3,3.6-2,7.2-2,10.8
							c0,14,9.5,27,24.1,30.3c6.1,1.4,11.5,4.6,15.7,9c4.1,4.4,7,10,8,16.2c2.6,15.3,15.9,25.9,30.6,25.9c3,0,6.1-0.4,9.2-1.4
							c3-0.9,6.1-1.4,9.2-1.4c9.1,0,17.9,4,23.9,11.3c6.2,7.5,15,11.3,23.9,11.3c8.3,0,16.6-3.3,22.8-9.9c6-6.4,14.3-9.9,22.8-9.9
							c3.6,0,7.3,0.7,10.8,2c3.6,1.3,7.2,2,10.8,2c14,0,27-9.5,30.3-24.1c2.8-12.2,12.7-21.6,25.1-23.7
							c15.3-2.6,25.9-15.9,25.9-30.6c0-3-0.4-6.1-1.4-9.2c-0.9-3-1.4-6.1-1.4-9.2c0-9.1,4-17.9,11.3-23.9c7.5-6.2,11.3-15,11.3-23.9
							C420.4,215.1,417.1,206.8,410.5,200.6z M375,261.6c-17.4,49-64.3,84.1-119.3,84c-55-0.1-101.7-35.3-118.9-84.4
							c-4.6-13.2-7.2-27.3-7.1-42.1s2.6-28.9,7.3-42.1c17.4-49,64.3-84.1,119.3-84c55,0.1,101.7,35.3,118.9,84.4
							c4.6,13.2,7.1,27.3,7.1,42.1S379.7,248.5,375,261.6z"/>
					</g>
				</g>
			</g>
			<g>
				<g>
					<path fill="#414042" d="M256,352.8h-0.3c-56.5-0.1-107-36-125.7-89.2c-5-14.2-7.6-29.2-7.5-44.5c0-15.3,2.6-30.3,7.7-44.5
						c18.9-53.1,69.4-88.7,125.7-88.7h0.3c56.5,0.1,107,36,125.7,89.2c5,14.2,7.6,29.2,7.5,44.5c0,15.3-2.6,30.3-7.7,44.5
						C362.9,317.1,312.4,352.8,256,352.8z M256,100.2c-50.3,0-95.4,31.8-112.2,79.2c-4.5,12.7-6.8,26-6.9,39.7
						c0,13.6,2.2,27,6.7,39.7c16.7,47.5,61.8,79.5,112.2,79.6h0.2c50.3,0,95.4-31.8,112.2-79.2c4.5-12.7,6.8-26,6.9-39.7
						c0-13.7-2.2-27-6.7-39.7c-16.7-47.5-61.8-79.5-112.2-79.6H256z"/>
				</g>
			</g>
			<g>
				<g>
					<path fill="#414042" d="M252,390.9c-11.5,0-22.2-5.1-29.5-13.9c-4.6-5.5-11.3-8.7-18.4-8.7c-2.4,0-4.7,0.4-7,1.1
						c-3.7,1.1-7.4,1.7-11.2,1.7c-18.7,0-34.6-13.4-37.7-31.9c-1.6-9.6-8.8-17.2-18.2-19.3c-10.7-2.5-19.9-9.5-25.1-19.1
						c-5.2-9.7-6-21.2-2.2-31.5c3.4-9.1,1-19.2-6.1-25.8c-8.1-7.5-12.5-18.1-12.2-29.1c0.3-11,5.4-21.3,13.9-28.4
						c7.5-6.2,10.5-16.2,7.6-25.4c-3.2-10.5-1.8-21.9,4-31.3c5.8-9.4,15.3-15.8,26.2-17.6c9.6-1.6,17.2-8.8,19.3-18.2
						c4-17.5,19.3-29.7,37.3-29.7c4.6,0,9.1,0.8,13.4,2.4c2.7,1,5.5,1.5,8.3,1.5c6.6,0,13-2.8,17.5-7.6c7.3-7.9,17.2-12.2,28-12.2
						c11.5,0,22.2,5.1,29.5,13.9c4.6,5.5,11.3,8.7,18.4,8.7c2.4,0,4.7-0.4,7-1.1c3.7-1.1,7.4-1.7,11.2-1.7
						c18.7,0,34.6,13.4,37.7,31.9c1.6,9.6,8.8,17.2,18.2,19.3c10.7,2.5,19.9,9.4,25.1,19.1c5.2,9.7,6,21.2,2.2,31.5
						c-3.4,9.1-1,19.2,6.1,25.8c8.1,7.5,12.5,18.1,12.2,29.1c-0.3,11-5.4,21.3-13.9,28.4c-7.5,6.2-10.5,16.2-7.6,25.4
						c3.2,10.5,1.8,21.9-4,31.3c-5.8,9.4-15.3,15.8-26.2,17.6c-9.6,1.6-17.2,8.8-19.3,18.2c-4,17.5-19.3,29.7-37.3,29.7
						c-4.6,0-9.1-0.8-13.4-2.4c-2.7-1-5.5-1.5-8.3-1.5c-6.6,0-13,2.8-17.5,7.6C272.7,386.6,262.7,390.9,252,390.9z M204.1,354
						c11.5,0,22.2,5.1,29.5,13.9c4.6,5.5,11.3,8.7,18.4,8.7c6.7,0,12.9-2.7,17.5-7.6c7.2-7.7,17.4-12.2,28-12.2
						c4.6,0,9.1,0.8,13.4,2.4c2.7,1,5.5,1.5,8.4,1.5c11.2,0,20.8-7.6,23.3-18.5c3.5-15.1,15.6-26.6,30.9-29.1
						c6.8-1.1,12.8-5.2,16.4-11c3.6-5.9,4.5-13,2.5-19.6c-4.5-14.8,0.3-30.8,12.2-40.7c5.3-4.4,8.5-10.8,8.7-17.7
						c0.2-6.9-2.6-13.5-7.6-18.2c-11.4-10.6-15.2-26.8-9.8-41.4c2.4-6.4,1.9-13.6-1.3-19.7c-3.3-6.1-9-10.4-15.7-12
						c-15.1-3.5-26.6-15.6-29.1-30.9c-1.9-11.6-11.8-20-23.5-20c-2.4,0-4.7,0.4-7,1.1c-3.6,1.1-7.4,1.7-11.2,1.7
						c-11.5,0-22.2-5.1-29.5-13.9c-4.6-5.5-11.3-8.7-18.4-8.7c-6.7,0-12.9,2.7-17.5,7.6c-7.2,7.7-17.4,12.2-28,12.2
						c-4.6,0-9.1-0.8-13.4-2.4c-2.7-1-5.5-1.5-8.4-1.5c-11.2,0-20.8,7.6-23.3,18.5c-3.5,15.1-15.6,26.6-30.9,29.1
						c-6.8,1.1-12.8,5.2-16.4,11c-3.6,5.9-4.5,13-2.5,19.6c4.5,14.8-0.2,30.8-12.2,40.7c-5.3,4.4-8.5,10.8-8.7,17.7
						c-0.2,6.9,2.6,13.5,7.6,18.2c11.4,10.6,15.2,26.8,9.8,41.4c-2.4,6.4-1.9,13.6,1.3,19.7c3.3,6.1,9,10.4,15.7,12
						c15.1,3.5,26.6,15.6,29.1,30.9c1.9,11.6,11.8,20,23.5,20c2.4,0,4.7-0.4,7-1.1C196.5,354.5,200.3,354,204.1,354z"/>
				</g>
			</g>
		</g>
	</g>
	<g>
		<g>
			<g>
				<path fill="#E6E7E8" d="M473.9,381.6l0-24.9h9.7l0-33.3l-52,0h-35.8v4.3c-3.5-2.7-7.9-4.3-12.7-4.3l-15.8,0
					c-6.7,0-12.6,3.1-16.3,7.9c-3.3-4.6-8.6-7.6-14.6-7.6h-20.4c-5.5,0-10.3,2.4-13.6,6.3c-3-3.1-8.2-6.5-16.7-6.5h-27v0h-19.7l-9,0
					h-9c-0.4,0-0.8,0-1.1,0h-19.1v6.2c-0.9-0.7-1.9-1.3-3-1.9c-5-2.9-10.6-4.4-16.5-4.4h-33.7v25.1h5.4v8.2h-5.4v24.7
					c-3.8-3.1-8.8-4.9-15.1-5.1c3.2-3.3,5.2-7.7,5.2-12.6v-22.1c0-9.9-8.1-18-18-18H99.3c-2.6,0-5.1,0.6-7.3,1.6V324H28.5v25.1H34
					v7.9h-5.5v25h48.9v21.8h7v16.4h-7v27.5h55.1c9.3,0,16.6-2.8,21.7-8.4c0.7-0.8,1.4-1.7,1.9-2.5c3.5,6.6,10.5,11.1,18.5,11.1H209
					c5,0,9.5-1.7,13.1-4.6v4.3h78.2v-15.1c1.5,3.4,3.6,6.3,6.4,8.8c6.4,5.7,14.9,8.6,25.5,8.6c10.3,0,18.9-2.8,25.4-8.3
					c3.7-3.1,6.4-6.6,8.1-10.5c2.5,10,12,17.5,23.4,17.5l21.3,0c13.3,0,24-10.1,24-22.6v-6.3c0-2.8-0.5-5.5-1.6-8h1.6v-12.6
					c0-7-3.4-13.3-8.8-17.5h8.2H473.9z M154.3,392.7c-1-4.4-3.1-8-6.1-10.6h12.3C157.4,384.9,155.2,388.6,154.3,392.7z"/>
			</g>
		</g>
		<g>
			<g>
				<path fill="#414042" d="M483.5,323.5l0,33.3h-9.7l0,24.9H434h-8.2c5.4,4.2,8.8,10.4,8.8,17.5v12.6H433c1,2.5,1.6,5.2,1.6,8v6.3
					c0,12.5-10.8,22.6-24,22.6l-21.3,0c-11.4,0-21-7.5-23.4-17.5c-1.7,3.9-4.4,7.4-8.1,10.5c-6.5,5.5-15.1,8.3-25.4,8.3
					c-10.6,0-19.2-2.9-25.5-8.6c-2.7-2.5-4.9-5.4-6.4-8.8v15.1h-78.2v-4.3c-3.6,2.9-8.2,4.6-13.1,4.6h-34.3c-8,0-15-4.5-18.5-11.1
					c-0.6,0.9-1.2,1.7-1.9,2.5c-5,5.6-12.3,8.4-21.7,8.4H77.4v-27.5h7v-16.4h-7v-21.8H28.5v-25H34v-7.9h-5.5V324H92v1.4
					c2.2-1,4.7-1.6,7.3-1.6h20.4c9.9,0,18,8.1,18,18v22.1c0,4.9-2,9.4-5.2,12.6c6.2,0.3,11.3,2,15.1,5.1V357h5.4v-8.2h-5.4v-25.1
					h33.7c5.9,0,11.4,1.5,16.5,4.4c1,0.6,2,1.2,3,1.9v-6.2h19.1c0.3,0,0.7,0,1.1,0h9l9,0h19.7v0h27c8.5,0,13.7,3.4,16.7,6.5
					c3.3-3.8,8.2-6.3,13.6-6.3h20.4c6,0,11.4,3,14.6,7.6c3.7-4.8,9.6-7.9,16.3-7.9l15.8,0c4.8,0,9.2,1.6,12.7,4.3v-4.3h35.9
					L483.5,323.5 M154.3,392.7c1-4.2,3.1-7.8,6.2-10.6h-12.3C151.1,384.8,153.2,388.4,154.3,392.7 M483.5,309.1
					C483.5,309.1,483.5,309.1,483.5,309.1l-52,0h-35.8c-1.7,0-3.4,0.3-4.9,0.9c-2.5-0.6-5.2-0.9-7.8-0.9l-15.8,0
					c-5.7,0-11.3,1.4-16.2,3.9c-4.5-2.3-9.6-3.6-14.8-3.6h-20.4c-4.9,0-9.7,1.1-14,3.2c-4.4-2-9.8-3.3-16.4-3.3H259
					c-0.2,0-0.3,0-0.5,0h-19.7l-9.1,0h-9c-0.5,0-1.1,0-1.6,0h-18.5c-2.4,0-4.7,0.6-6.7,1.6c-4.1-1.1-8.4-1.7-12.8-1.7h-33.7
					c-4.4,0-8.3,1.9-10.9,5c-4.9-3.1-10.8-4.8-17-4.8H99.3c-1.7,0-3.3,0.1-4.9,0.4c-0.8-0.1-1.6-0.2-2.4-0.2H28.5
					c-7.9,0-14.3,6.4-14.3,14.3v25.1c0,1.4,0.2,2.7,0.6,4c-0.4,1.3-0.6,2.6-0.6,4v25c0,7.9,6.4,14.3,14.3,14.3h34.6v7.5
					c0,3,1,5.9,2.6,8.2c-1.6,2.3-2.6,5.1-2.6,8.2v27.5c0,7.9,6.4,14.3,14.3,14.3h55.1c9.8,0,17.2-2.4,22.8-5.5
					c5.6,3.7,12.3,5.8,19.3,5.8H209c2.9,0,5.8-0.4,8.6-1.1c1.4,0.5,2.9,0.7,4.5,0.7h78.2c3,0,5.8-0.9,8.2-2.5
					c6.9,3.2,14.9,4.8,23.7,4.8c12.7,0,23.5-3.3,32.3-9.9c6.7,5.4,15.3,8.5,24.6,8.5l21.3,0c21.2,0,38.4-16.6,38.4-37v-6.3
					c0-1.6-0.1-3.3-0.3-4.9c0.2-1,0.3-2,0.3-3.1v-12.6c0-1.1,0-2.1-0.1-3.1h25.1c3.8,0,7.5-1.5,10.1-4.2c2.7-2.7,4.2-6.3,4.2-10.1
					l0-11.3c2-0.7,3.9-1.9,5.5-3.4c2.7-2.7,4.2-6.3,4.2-10.1l0-33.3c0-3.8-1.5-7.5-4.2-10.1C491,310.6,487.3,309.1,483.5,309.1
					L483.5,309.1z"/>
			</g>
		</g>
		<g>
			<g>
				<g>
					<g>
						<polygon fill="#D04527" points="272.3,385.6 264.9,385.6 264.9,395 272.3,395 272.3,418 250.6,385.8 250.6,385.6 250.4,385.6 
							238.5,385.6 231.2,385.6 231.2,395 238.5,395 238.5,429.4 231.2,429.4 231.2,438.6 238.5,438.6 250.4,438.6 256.7,438.6 
							256.7,429.4 250.4,429.4 250.4,406.2 272.2,438.5 272.2,438.6 272.3,438.6 284.2,438.6 291.4,438.6 291.4,428.8 284.2,428.8 
							284.2,395 291.4,395 291.4,385.6 284.2,385.6 						"/>
					</g>
				</g>
				<g>
					<g>
						<path fill="#D04527" d="M140.1,410.4c1.9-1.1,3.3-2.5,4.2-4.1c1.1-1.9,1.6-4.2,1.6-7c0-9.3-5-13.9-15-13.9h-29.2v0H86.4v9.4h7
							v34.5h-7v9.4h7h8.3h30.8c6.7,0,11.7-1.8,15-5.4c2.3-2.5,3.4-5.7,3.4-9.7c0-3.1-0.7-5.8-2.1-8.1
							C147.3,413,144.4,411.3,140.1,410.4z M107.3,396h19.4c1.3,0,2.3,0.1,3.1,0.4c2.2,0.8,3.3,2.4,3.3,4.8c0,1.4-0.4,2.5-1.2,3.5
							c-1,1.2-2.7,1.8-5.1,1.8h-19.4V396z M134.7,427c-1.4,0.8-3.9,1.2-7.4,1.2h-20V417h19.8c2.5,0,4.2,0.1,5.2,0.2
							c3.2,0.5,4.8,2.4,4.8,5.5C137.1,424.6,136.3,426,134.7,427z"/>
					</g>
				</g>
				<g>
					<g>
						<path fill="#D04527" d="M337.7,395h7.6V415c0,5.8-0.8,9.7-2.5,11.8c-2.2,2.8-5.6,4.1-10,4.1c-2,0-3.8-0.3-5.4-1
							c-4-1.7-6.1-4.6-6.5-8.8c-0.1-1.3-0.2-3.3-0.2-6V395h7v-9.3h-26.5v9.3h5.5v21.7c0,4,0.3,7.2,1,9.5c0.9,3.3,2.6,6.1,5.1,8.3
							c4.7,4.2,11.2,6.3,19.5,6.3c8.2,0,14.7-2.1,19.6-6.2c3.4-2.9,5.6-6.1,6.5-9.7c0.6-2.3,0.9-5,0.9-8.3V395h4.9v-9.3h-26.5V395z"
							/>
					</g>
				</g>
				<g>
					<g>
						<path fill="#D04527" d="M209,385.5h-34.3c-6.6,0-11.9,5.4-11.9,11.9V427c0,6.6,5.4,11.9,11.9,11.9H209
							c6.6,0,11.9-5.4,11.9-11.9v-29.6C221,390.8,215.6,385.5,209,385.5z M208,422.2c0,2.2-1.8,4-4,4h-24.3c-2.2,0-4-1.8-4-4v-19.9
							c0-2.2,1.8-4,4-4H204c2.2,0,4,1.8,4,4V422.2z"/>
					</g>
				</g>
				<g>
					<g>
						<path fill="#D04527" d="M389.2,439.6l21.3,0c8.3,0,15-6.1,15-13.6l0-6.3c0-7.5-6.7-13.6-15-13.6l-21.3,0
							c-0.7,0-1.4-0.6-1.4-1.2l0-5.8c0-0.7,0.6-1.2,1.4-1.2l21.3,0c0.7,0,1.4,0.6,1.4,1.2v3.6l13.7,0l0-3.6c0-7.5-6.7-13.6-15-13.6
							l-21.3,0c-8.3,0-15,6.1-15,13.6l0,5.8c0,7.5,6.7,13.6,15,13.6l21.3,0c0.7,0,1.4,0.6,1.4,1.2l0,6.3c0,0.7-0.6,1.2-1.4,1.2
							l-21.3,0c-0.7,0-1.4-0.6-1.4-1.2l0-3.5l-13.7,0v3.5C374.2,433.5,380.9,439.6,389.2,439.6z"/>
					</g>
				</g>
			</g>
			<g>
				<g>
					<g>
						<g>
							<polygon fill="#D04527" points="68.5,333.1 62.9,333.1 62.9,340.1 68.5,340.1 68.5,357.5 52.1,333.2 52.1,333.1 52,333.1 
								43,333.1 37.5,333.1 37.5,340.1 43,340.1 43,366.1 37.5,366.1 37.5,373.1 43,373.1 52,373.1 56.8,373.1 56.8,366.1 52,366.1 
								52,348.6 68.5,372.9 68.5,373.1 68.5,373.1 77.5,373.1 82.9,373.1 82.9,365.6 77.5,365.6 77.5,340.1 82.9,340.1 82.9,333.1 
								77.5,333.1 							"/>
						</g>
					</g>
					<g>
						<g>
							<path fill="#D04527" d="M119.7,372.9H99.3c-4.9,0-9-4-9-9v-22.1c0-4.9,4-9,9-9h20.4c4.9,0,9,4,9,9v22.1
								C128.7,368.9,124.7,372.9,119.7,372.9z M103.8,363.6h11.3c2.3,0,4.1-1.8,4.1-4.1v-13.2c0-2.3-1.8-4.1-4.1-4.1h-11.3
								c-2.3,0-4.1,1.8-4.1,4.1v13.2C99.7,361.7,101.6,363.6,103.8,363.6z"/>
						</g>
					</g>
				</g>
				<g>
					<g>
						<g>
							<path fill="#D04527" d="M193.3,335.9c-3.7-2.1-7.7-3.2-12-3.2H162h-5.4v7.1h5.4V366h-5.4v7.1h5.4h19.2c2.5,0,4.9-0.4,7.3-1.1
								c4.5-1.4,8.2-3.9,11.1-7.4c2.9-3.6,4.3-7.5,4.3-11.7c0-3-0.8-5.9-2.4-8.8C199.6,340.7,196.9,337.9,193.3,335.9z M188.9,360.2
								c-2.3,2.7-5.9,4.1-10.6,4.1H174v-22.8h4.3c4.7,0,8.2,1.4,10.6,4.1c1.8,2.1,2.7,4.5,2.7,7.3S190.7,358.1,188.9,360.2z"/>
						</g>
					</g>
					<g>
						<g>
							<path fill="#D04527" d="M336.3,332.9h-20.4c-4.9,0-9,4-9,9v22.1c0,4.9,4,9,9,9h20.4c4.9,0,9-4,9-9v-22.1
								C345.2,336.9,341.2,332.9,336.3,332.9z M335.8,359.5c0,2.3-1.8,4.1-4.1,4.1h-11.3c-2.3,0-4.1-1.8-4.1-4.1v-13.2
								c0-2.3,1.8-4.1,4.1-4.1h11.3c2.3,0,4.1,1.8,4.1,4.1V359.5z"/>
						</g>
					</g>
					<g>
						<g>
							<path fill="#D04527" d="M238.9,332.7h-18c-0.2,0-0.3,0-0.5,0h-10.5v7.4h5.4v26h-5.4v6.7h31.5l0,0h8.2v-4v-6.5H242v4h-1.1
								c0,0-0.1,0-0.1,0h-14.2c-0.7,0-1.3-0.6-1.3-1.3V357h13.3v-7.1h-13.3v-8.5c0-0.7,0.6-1.3,1.3-1.3h10.5v0h4.9v5h7.5v-12.3
								L238.9,332.7L238.9,332.7z"/>
						</g>
					</g>
					<g>
						<g>
							<path fill="#D04527" d="M285.5,332.7h-9.8h-13.3h-3.6v6.4h3.6v27.4h-3.6v6.4h16.9v-6.4h-3.1V359h13.2c5,0,8.6-1.5,10.8-4.5
								c1.7-2.3,2.5-5.3,2.5-8.8c0-3.6-1-6.6-3.1-8.9C293.6,334.1,290.1,332.7,285.5,332.7z M287.4,349.3c-0.8,1-2.4,1.4-4.6,1.4
								h-10.2V341h10.2c2.1,0,3.5,0.4,4.4,1.3c0.9,0.9,1.3,2,1.3,3.5C288.5,347.3,288.2,348.5,287.4,349.3z"/>
						</g>
					</g>
					<g>
						<g>
							<path fill="#D04527" d="M383,332.5l-15.8,0c-6.1,0-11.1,4.5-11.1,10v4.3c0,5.5,5,10,11.1,10l15.8,0c0.6,0,1,0.4,1,0.9v4.7
								c0,0.5-0.5,0.9-1,0.9l-15.8,0c-0.6,0-1-0.4-1-0.9v-2.6l-10.1,0v2.6c0,5.5,5,10,11.1,10l15.8,0c6.1,0,11.1-4.5,11.1-10v-4.7
								c0-5.5-5-10-11.1-10l-15.8,0c-0.6,0-1-0.4-1-0.9v-4.3c0-0.5,0.5-0.9,1-0.9l15.8,0c0.6,0,1,0.4,1,0.9l0,2.6l10.1,0v-2.7
								C394.1,337,389.1,332.5,383,332.5z"/>
						</g>
					</g>
					<g>
						<g>
							<polygon fill="#D04527" points="404.7,339.6 409.7,339.6 409.7,365.5 404.7,365.5 404.7,372.6 409.7,372.6 420.1,372.6 
								424.8,372.6 424.8,365.5 420.1,365.5 420.1,339.6 424.8,339.6 424.8,332.5 404.7,332.5 							"/>
						</g>
					</g>
					<g>
						<g>
							<polygon fill="#D04527" points="474.5,332.5 433.2,332.5 433.2,346.3 442.8,346.3 442.8,342.2 449,342.2 449,365.8 
								443.2,365.8 443.2,372.7 464.8,372.7 464.8,365.8 458.7,365.8 458.6,342.2 464.8,342.2 464.8,346.3 474.5,346.3 							"/>
						</g>
					</g>
				</g>
			</g>
		</g>
	</g>
</g>
</svg>
