<?xml version="1.0" encoding="utf-8"?>
<!-- Generator: Adobe Illustrator 18.0.0, SVG Export Plug-In . SVG Version: 6.00 Build 0)  -->
<!DOCTYPE svg PUBLIC "-//W3C//DTD SVG 1.1//EN" "http://www.w3.org/Graphics/SVG/1.1/DTD/svg11.dtd">
<svg version="1.1" id="Layer_1" xmlns="http://www.w3.org/2000/svg" xmlns:xlink="http://www.w3.org/1999/xlink" x="0px" y="0px"
	 viewBox="0 0 512 512" enable-background="new 0 0 512 512" xml:space="preserve">
<g>
	<g>
		<g>
			<ellipse fill="#F2C637" cx="256" cy="256" rx="147.5" ry="146.8"/>
		</g>
	</g>
	<g>
		<g>
			<path fill="#DB802D" d="M389.5,318.5c-10,21.3-25.1,39.7-43.7,53.9H166.2c-18.5-14.1-33.6-32.6-43.7-53.9H389.5z"/>
		</g>
	</g>
	<g>
		<g>
			<path fill="#DB802D" d="M389.5,318.5c-10,21.3-25.1,39.7-43.7,53.9H166.2c-18.5-14.1-33.6-32.6-43.7-53.9H389.5z"/>
		</g>
	</g>
	<g>
		<g>
			<path fill="#414042" d="M256,412.3c-86.6,0-157.1-70.1-157.1-156.3S169.4,99.7,256,99.7S413.1,169.8,413.1,256
				S342.6,412.3,256,412.3z M256,118.8c-76,0-137.9,61.6-137.9,137.2c0,75.7,61.9,137.2,137.9,137.2S393.9,331.7,393.9,256
				C393.9,180.3,332,118.8,256,118.8z"/>
		</g>
	</g>
	<g>
		<g>
			<g>
				<g>
					<path fill="#8D4F76" d="M411.8,338.8H100.2c-15,0-27.1-12.1-27.1-27V200.2c0-14.9,12.1-27,27.1-27h311.6
						c15,0,27.1,12.1,27.1,27v111.7C438.9,326.7,426.8,338.8,411.8,338.8z"/>
				</g>
			</g>
			<g>
				<g>
					<g>
						<path fill="#BB6FA0" d="M402.4,198.7c6,0,10.9,4.9,10.9,10.9v92.9c0,6-4.9,10.9-10.9,10.9H109.6c-6,0-10.9-4.9-10.9-10.9
							v-92.9c0-6,4.9-10.9,10.9-10.9H402.4 M402.4,173.2H109.6c-20.2,0-36.6,16.3-36.6,36.4v92.9c0,20.1,16.4,36.4,36.6,36.4h292.7
							c20.2,0,36.6-16.3,36.6-36.4v-92.9C438.9,189.5,422.5,173.2,402.4,173.2L402.4,173.2z"/>
					</g>
				</g>
			</g>
			<g>
				<g>
					<path fill="#414042" d="M411.8,348.4H100.2c-20.3,0-36.7-16.4-36.7-36.6V200.2c0-20.2,16.5-36.6,36.7-36.6h311.6
						c20.3,0,36.7,16.4,36.7,36.6v111.7C448.5,332,432,348.4,411.8,348.4z M100.2,182.7c-9.7,0-17.5,7.8-17.5,17.4v111.7
						c0,9.6,7.9,17.4,17.5,17.4h311.6c9.7,0,17.5-7.8,17.5-17.4V200.2c0-9.6-7.9-17.4-17.5-17.4H100.2z"/>
				</g>
			</g>
		</g>
		<g>
			<g>
				<g>
					<path fill="#AFDBEF" d="M170.6,253.5c2.8-1.6,4.9-3.6,6.2-6c1.6-2.8,2.4-6.2,2.4-10.3c0-13.6-7.4-20.4-22.1-20.4h-17.6h-12.9
						h-10.4v12.5h10.4v53.2h-10.4v12.5h10.4v0.1h32.7c9.9,0,17.3-2.7,22.1-8c3.3-3.7,5-8.4,5-14.3c0-4.5-1-8.5-3.1-11.9
						C181.2,257.3,176.9,254.8,170.6,253.5z M147.2,232.4h3.7c1.9,0,3.4,0.2,4.6,0.6c3.2,1.1,4.8,3.5,4.8,7.1c0,2-0.6,3.7-1.8,5.1
						c-1.5,1.7-4.1,2.6-7.6,2.6h-3.7V232.4z M162.6,277.9c-2.1,1.2-5.7,1.8-10.9,1.8h-4.5v-16.5h4.2c3.6,0,6.2,0.1,7.7,0.3
						c4.7,0.8,7.1,3.5,7.1,8C166.1,274.4,165,276.5,162.6,277.9z"/>
				</g>
			</g>
			<g>
				<g>
					<path fill="#AFDBEF" d="M263.5,216.9h-22.3L215,284.7h-9.2v10.5h5.2h21.6h9.3v-10.5H237l3.3-7.9h24.6l2.7,7.9h-6v10.5h9.7h21.8
						h4.6v-10.5h-8.6L263.5,216.9z M243.6,266l8.6-25l8.5,25H243.6z"/>
				</g>
			</g>
			<g>
				<g>
					<path fill="#AFDBEF" d="M366.7,263.1c4.7-1,8.3-2.9,11-5.5c4.1-4.1,6.2-9.7,6.2-16.6c0-6-1.8-11.3-5.4-15.8
						c-4.5-5.5-11.3-8.3-20.6-8.3h-20.7v0H317v12.5h9v55.3h-9v10.5h9h20.5h6.6v-10.5h-6.6v-19.5l13.1,20.2v9.9h6.4h25.4h4.3v-10.5
						h-12.4L366.7,263.1z M350.3,251.9h-3.8v-19.5h3.8c4.3,0,7.4,0.9,9.3,2.7c2,1.9,3.1,4.3,3.1,7c0,2.8-1,5.1-3.1,7.1
						C357.7,251,354.6,251.9,350.3,251.9z"/>
				</g>
			</g>
		</g>
	</g>
</g>
</svg>
