<?xml version="1.0" encoding="utf-8"?>
<!-- Generator: Adobe Illustrator 18.0.0, SVG Export Plug-In . SVG Version: 6.00 Build 0)  -->
<!DOCTYPE svg PUBLIC "-//W3C//DTD SVG 1.1//EN" "http://www.w3.org/Graphics/SVG/1.1/DTD/svg11.dtd">
<svg version="1.1" id="Layer_1" xmlns="http://www.w3.org/2000/svg" xmlns:xlink="http://www.w3.org/1999/xlink" x="0px" y="0px"
	 viewBox="0 0 512 512" enable-background="new 0 0 512 512" xml:space="preserve">
<g>
	<g>
		<g>
			<path fill="#5ABA47" d="M248.5,206.9c0,0-81.9-20.1-110.5-103.9c-3.4-9.9,3.8-20.2,14.3-20.4h0c7.3-0.2,13.8,4.7,15.5,11.8
				C173.6,118.6,192.4,173.4,248.5,206.9z"/>
		</g>
	</g>
	<g>
		<g>
			<path fill="#414042" d="M248.5,215.4c-0.7,0-1.4-0.1-2.1-0.2c-3.5-0.9-86.8-22.2-116.6-109.5c-2.5-7.3-1.4-15.1,3-21.4
				c4.4-6.3,11.4-10.1,19.1-10.3l0.7,0c11.2,0,20.8,7.5,23.4,18.4c5.1,21.4,22.9,74.7,76.3,106.9c2.8,1.4,4.7,4.3,4.7,7.6
				c0,4.6-3.7,8.4-8.3,8.5C248.7,215.4,248.6,215.4,248.5,215.4z M152.7,91.1l-0.2,0c-2.2,0.1-4.2,1.1-5.5,3
				c-1.3,1.8-1.6,4.1-0.9,6.2c10.4,30.4,28.3,51.9,46.4,67c-20.6-27.9-29.5-56.2-33.1-70.9C158.7,93.3,155.9,91.1,152.7,91.1z"/>
		</g>
	</g>
	<g>
		<g>
			<path fill="#DB802D" d="M396,206.8c39,74.7,9.7,166.7-65.4,205.4s-167.5,9.7-206.4-65s-9.7-166.7,65.4-205.4S357,132.2,396,206.8
				z"/>
		</g>
	</g>
	<g>
		<g>
			<path fill="#AA7A2C" d="M330.6,412.3c-75.1,38.8-167.5,9.6-206.4-65c-7.9-15.1-13-31-15.5-47c1.2,2.7,2.5,5.3,3.9,8
				C151.6,382.9,244,412,319,373.3c59.8-30.9,90.5-95.6,80.8-158.4C432.8,288,403,374.9,330.6,412.3z"/>
		</g>
	</g>
	<g>
		<g>
			<path fill="#414042" d="M260.2,438c-60.7,0-115.7-33.3-143.6-86.8c-41.1-78.7-10.1-176,69-216.9c23-11.9,48.7-18.1,74.4-18.1
				c60.7,0,115.7,33.3,143.6,86.8c41.1,78.7,10.1,176-69,216.9C311.6,431.7,285.9,438,260.2,438z M260,133.2
				c-23.3,0-45.6,5.5-66.5,16.2c-70.7,36.5-98.4,123.5-61.7,193.9c25,47.9,74.2,77.6,128.4,77.6c23.3,0,45.6-5.5,66.5-16.2
				c70.7-36.5,98.4-123.5,61.7-193.9C363.4,162.9,314.2,133.2,260,133.2z"/>
		</g>
	</g>
	<g>
		<g>
			<path fill="#5ABA47" d="M169.2,137.8c-1.5-0.4,25.6,9.9,53,13.9c30,4.6,60.3,2.8,123.4-9.2c-1.7,1.7-6.2-27.8-41.5-44.4
				C272.1,81.8,209.3,78.4,169.2,137.8z"/>
		</g>
	</g>
	<g>
		<g>
			<path fill="#414042" d="M252.9,162.5c-11,0-21.2-0.8-32-2.4c-14.4-2.1-28.5-5.9-37.8-8.7c-5.4-1.6-9.7-3.1-12.3-4
				c-5.5-1.9-10.7-3.7-10.2-10.3c0.1-1.9,0.9-3.6,2-4.9c31.5-46,73.7-52.9,96.2-52.9c17.5,0,34.9,4,49.1,11.2
				c30.1,14.2,40,36.9,43.7,45.5c0.1,0.3,0.2,0.5,0.3,0.7c0.5,0.5,1,1.2,1.3,1.9c1.8,3.3,1.2,7.4-1.5,10c-1.4,1.4-3.4,2.4-5.4,2.5
				C303.8,159.1,275.9,162.5,252.9,162.5z M182.9,133.5c9.6,3.1,24.9,7.4,40.5,9.7c10,1.5,19.3,2.2,29.5,2.2c20,0,44.3-2.8,79.9-9.3
				c-4.6-8.8-13.5-21.5-32.4-30.4c-0.1,0-0.2-0.1-0.3-0.1c-11.8-6-26.5-9.4-41.4-9.4C241.2,96.3,209.1,101.4,182.9,133.5z"/>
		</g>
	</g>
	<g>
		<g>
			<path fill="#5ABA47" d="M160.9,149c0,0-71.3-2.9-61.1,80.3C99.8,229.3,166.2,230.9,160.9,149z"/>
		</g>
	</g>
	<g>
		<g>
			<path fill="#414042" d="M100.1,237.8C100.1,237.8,100.1,237.8,100.1,237.8l-0.5,0c-4.2-0.1-7.8-3.3-8.3-7.5
				c-3.6-28.9,1.8-51.7,15.9-67.5c18.9-21.3,47.3-22.3,52.9-22.3c0.8,0,1.2,0,1.2,0c4.4,0.2,7.9,3.6,8.2,8
				c1.9,29.4-4.7,52.2-19.6,68C130.8,236.8,105.1,237.8,100.1,237.8z M152.7,158c-8.7,1.2-22.6,4.8-32.7,16.1
				c-9.4,10.6-13.6,26-12.4,46c7.8-1.3,20.1-4.9,29.8-15.2C147.5,194.1,152.7,178.4,152.7,158z"/>
		</g>
	</g>
	<g>
		<g>
			<path fill="#EDB940" d="M216.8,181.1c11.9,7.6,10.8,30.3-2.5,50.9s-33.6,31-45.4,23.4c-11.9-7.6-10.8-30.3,2.5-50.9
				C184.6,184,204.9,173.5,216.8,181.1z"/>
		</g>
	</g>
	<g>
		<g>
			<path fill="#414042" d="M336.7,150c-2.9,0-5.4-1.4-6.9-2.2c-43.2-24-95.9-25.8-148.5-5.1c-4.4,1.7-9.4-0.4-11.1-4.8
				c-1.7-4.4,0.4-9.3,4.8-11.1c57.4-22.7,115.4-20.5,163.1,6c0.2,0.1,0.4,0.2,0.5,0.3c1.9,0.6,3.7,1.8,4.9,3.6
				c2.1,3.3,1.7,7.7-1,10.6C340.7,149.4,338.6,150,336.7,150z"/>
		</g>
	</g>
	<g>
		<g>
			<path fill="#414042" d="M99.8,237.8c-1.4,0-2.8-0.3-4.2-1.1c-4.1-2.3-5.6-7.5-3.3-11.6c18-32.1,60.4-79.8,62.2-81.8
				c3.1-3.5,8.5-3.8,12.1-0.7c3.5,3.1,3.9,8.5,0.7,12c-0.4,0.5-43,48.3-60,78.8C105.7,236.2,102.8,237.8,99.8,237.8z"/>
		</g>
	</g>
</g>
</svg>
