<?xml version="1.0" encoding="utf-8"?>
<!-- Generator: Adobe Illustrator 18.0.0, SVG Export Plug-In . SVG Version: 6.00 Build 0)  -->
<!DOCTYPE svg PUBLIC "-//W3C//DTD SVG 1.1//EN" "http://www.w3.org/Graphics/SVG/1.1/DTD/svg11.dtd">
<svg version="1.1" id="Layer_1" xmlns="http://www.w3.org/2000/svg" xmlns:xlink="http://www.w3.org/1999/xlink" x="0px" y="0px"
	 viewBox="0 0 512 512" enable-background="new 0 0 512 512" xml:space="preserve">
<g>
	<g>
		<g>
			<path fill="#E9ECED" d="M391.4,415.5H120.6c-13.6,0-24.7-11.1-24.7-24.7V121.1c0-13.6,11.1-24.7,24.7-24.7h270.9
				c13.6,0,24.7,11.1,24.7,24.7v269.7C416.1,404.5,405.1,415.5,391.4,415.5z"/>
		</g>
	</g>
	<g>
		<g>
			<path fill="#414042" d="M391.4,424.3H120.6c-18.5,0-33.5-15-33.5-33.5V121.1c0-18.5,15-33.5,33.5-33.5h270.9
				c18.5,0,33.5,15,33.5,33.5v269.7C424.9,409.3,409.9,424.3,391.4,424.3z M120.6,105.2c-8.8,0-15.9,7.1-15.9,15.9v269.7
				c0,8.8,7.1,15.9,15.9,15.9h270.9c8.8,0,15.9-7.1,15.9-15.9V121.1c0-8.8-7.1-15.9-15.9-15.9H120.6z"/>
		</g>
	</g>
	<g>
		<g>
			<g>
				<g>
					<path fill="#263A83" d="M179.9,294.9l25-156.3c0,0,2.1-5.9,7.3-5.9s64.9,0,64.9,0s43-0.4,47.7,31.9c0,0,4.3,36.2-22.6,59.2
						c0,0-14.6,14.4-44.8,13.8H238c0,0-6.8-0.3-8,6.9c-1.2,7.2-8.5,56.3-8.5,56.3h-36.7c-1.2,0-2.4-0.4-3.3-1.1
						C180.5,298.8,179.5,297.3,179.9,294.9z"/>
				</g>
			</g>
			<g>
				<g>
					<path fill="#232C66" d="M324.4,181c-1.7,12.5-6.9,29.8-22.1,42.8c0,0-14.6,14.4-44.8,13.8H238c0,0-5.3-0.3-7.3,4.6l9.5-60.1
						c1.2-7.6,8-7.2,8-7.2h38.1C308.3,174.9,319.4,178.6,324.4,181z"/>
				</g>
			</g>
			<g>
				<g>
					<path fill="#2299D6" d="M240.2,182.1l-21,133.5c0,0-1.3,6.2,4.5,6.2c5.8,0,31.5,0,31.5,0s4.8-0.3,5.9-5.8
						c1.1-5.5,6.4-40.8,6.4-40.8s1.3-5.7,7-5.7c5.7,0,6.1,0,6.1,0s49.7,3.4,58.1-45.5c0,0,7-27.8-10.9-40.9c0,0-8.6-8.2-41.5-8.2
						h-38.1C248.2,174.9,241.4,174.5,240.2,182.1z"/>
				</g>
			</g>
			<g>
				<g>
					<path fill="#232C66" d="M324.4,181c-1.7,12.5-6.9,29.8-22.1,42.8c0,0-14.6,14.4-44.8,13.8H238c0,0-5.3-0.3-7.3,4.6l9.5-60.1
						c1.2-7.6,8-7.2,8-7.2h38.1C308.3,174.9,319.4,178.6,324.4,181z"/>
				</g>
			</g>
		</g>
		<g>
			<g>
				<g>
					<g>
						<path fill="#273982" d="M176.6,332.3c0,0-14.6,0-17.1,0c-2.5,0-2.7,2.4-2.7,2.4l-7,43.3c-0.2,1,0.4,1.5,0.9,1.7
							c0.3,0.1,0.5,0.1,0.8,0.1h8.1c2.1,0,2.3-1.8,2.3-1.8s1.4-9.8,1.8-11.9c0.4-2,2.4-2.2,2.4-2.2h6.6c11.2,0,18.7-7.5,18.8-19.9
							S176.6,332.3,176.6,332.3z M178.4,347c-0.3,4.7-1.8,7.5-8.9,7.5h-4l1.6-11.5c0,0,0.1-1.3,1.8-1.3h4.3
							C173.3,341.7,178.8,341.7,178.4,347z"/>
					</g>
				</g>
			</g>
			<g>
				<g>
					<g>
						<path fill="#273982" d="M227.8,348.2c0,0-7.3,0-8.4,0c-1.1,0-1.3,0.9-1.3,0.9l-0.6,2.4c-1.1-1.6-3.5-4.2-10.3-4.2
							s-16.5,5.5-18.3,16.2c-1.8,10.7,5,17.1,13,17.1s11.7-4.7,11.7-4.7s0,0.6-0.3,2.3c-0.2,1.6,1.3,1.6,1.3,1.6s4.9,0,7.3,0
							s2.6-2.2,2.6-2.2l4.3-27.8C229.1,348,227.8,348.2,227.8,348.2z M216.2,364.1c-0.7,4.4-4.9,8-9.3,8c-4.5,0-7.5-3.6-6.8-8
							c0.7-4.4,4.9-8,9.3-8C213.8,356.1,216.8,359.7,216.2,364.1z"/>
					</g>
				</g>
			</g>
			<g>
				<g>
					<g>
						<path fill="#2299D6" d="M298.8,332.3c0,0-14.6,0-17.1,0c-2.5,0-2.7,2.4-2.7,2.4l-7,43.3c-0.2,1,0.4,1.5,0.9,1.7
							c0.3,0.1,0.5,0.1,0.8,0.1h8.1c2.1,0,2.3-1.8,2.3-1.8s1.4-9.8,1.8-11.9c0.4-2,2.4-2.2,2.4-2.2h6.6c11.2,0,18.7-7.5,18.8-19.9
							S298.8,332.3,298.8,332.3z M300.6,347c-0.3,4.7-1.8,7.5-8.9,7.5h-4l1.6-11.5c0,0,0.1-1.3,1.8-1.3h4.3
							C295.6,341.7,301,341.7,300.6,347z"/>
					</g>
				</g>
			</g>
			<g>
				<g>
					<g>
						<path fill="#2299D6" d="M350,348.2c0,0-7.3,0-8.4,0c-1.1,0-1.3,0.9-1.3,0.9l-0.6,2.4c-1.1-1.6-3.5-4.2-10.3-4.2
							c-6.8,0-16.5,5.5-18.3,16.2c-1.8,10.7,5,17.1,13,17.1c7.9,0,11.7-4.7,11.7-4.7s0,0.6-0.3,2.3c-0.2,1.6,1.3,1.6,1.3,1.6
							s4.9,0,7.3,0c2.4,0,2.6-2.2,2.6-2.2l4.3-27.8C351.3,348,350,348.2,350,348.2z M338.4,364.1c-0.7,4.4-4.9,8-9.3,8
							c-4.5,0-7.5-3.6-6.8-8c0.7-4.4,4.9-8,9.3-8S339.1,359.7,338.4,364.1z"/>
					</g>
				</g>
			</g>
			<g>
				<g>
					<path fill="#273982" d="M233.2,350.6c0,0-0.8-2.4,0.9-2.4c1.8,0,8.7,0,8.7,0s1.6,0.2,2.3,2.4c0.7,2.2,4.6,15.1,4.6,15.1
						l10.9-16.3c0,0,0.8-1.3,2.8-1.3s7.9,0,7.9,0s2.2,0.1,1.3,1.8c-0.9,1.7-27.2,39.3-27.2,39.3s-1,1.5-3.3,1.5s-7.7,0-7.7,0
						s-2.1-0.3-0.7-2.2c1.4-2,8.4-11.9,8.4-11.9L233.2,350.6z"/>
				</g>
			</g>
			<g>
				<g>
					<path fill="#2299D6" d="M359.3,333.9l-6.8,43.6c0,0-0.5,2.3,1.8,2.3s6.9,0,6.9,0s1.7,0.1,2-2.3s6.7-43.2,6.7-43.2s0.5-2-1.1-2
						h-7.7c-0.4,0-0.8,0.1-1.1,0.3C359.8,332.9,359.4,333.3,359.3,333.9z"/>
				</g>
			</g>
		</g>
	</g>
</g>
</svg>
