<?xml version="1.0" encoding="utf-8"?>
<!-- Generator: Adobe Illustrator 18.0.0, SVG Export Plug-In . SVG Version: 6.00 Build 0)  -->
<!DOCTYPE svg PUBLIC "-//W3C//DTD SVG 1.1//EN" "http://www.w3.org/Graphics/SVG/1.1/DTD/svg11.dtd">
<svg version="1.1" id="Layer_1" xmlns="http://www.w3.org/2000/svg" xmlns:xlink="http://www.w3.org/1999/xlink" x="0px" y="0px"
	 viewBox="0 0 512 512" enable-background="new 0 0 512 512" xml:space="preserve">
<g>
	<g>
		<g>
			<g>
				<path fill="#AA2C23" d="M422.9,313.4v-92.1H89.1v92.1c0,58.8,47.7,106.6,106.6,106.6h120.7c29.4,0,56.1-11.9,75.3-31.2
					C411,369.5,422.9,342.8,422.9,313.4L422.9,313.4z"/>
			</g>
		</g>
		<g>
			<g>
				<path fill="#414042" d="M316.4,428.6H195.6c-63.5,0-115.2-51.7-115.2-115.2v-92.1c0-4.8,3.9-8.6,8.6-8.6h333.8
					c4.8,0,8.6,3.9,8.6,8.6v91.3c0,0.3,0,0.5,0,0.8c0,30.8-12,59.7-33.7,81.4C376,416.6,347.1,428.6,316.4,428.6z M97.7,230v83.4
					c0,54,43.9,97.9,97.9,97.9h120.7c26.2,0,50.8-10.2,69.3-28.7c18.3-18.3,28.5-42.6,28.7-68.5c0-0.2,0-0.5,0-0.7V230H97.7z"/>
			</g>
		</g>
		<g>
			<g>
				<path fill="#D04527" d="M455.4,241.1v-48H56.6v48c0,58.8,47.7,106.6,106.6,106.6h185.7c29.4,0,56.1-11.9,75.3-31.2
					C443.5,297.2,455.4,270.5,455.4,241.1L455.4,241.1z"/>
			</g>
		</g>
		<g>
			<g>
				<path fill="#414042" d="M348.8,356.3H163.2C99.7,356.3,48,304.6,48,241.1v-48c0-4.8,3.9-8.6,8.6-8.6h398.8
					c4.8,0,8.6,3.9,8.6,8.6v47.2c0,0.3,0,0.5,0,0.8c0,30.8-12,59.7-33.7,81.4C408.5,344.3,379.6,356.3,348.8,356.3z M65.2,201.7
					v39.4c0,54,43.9,97.9,97.9,97.9h185.7c26.2,0,50.8-10.2,69.3-28.7c18.3-18.3,28.5-42.6,28.7-68.5c0-0.2,0-0.5,0-0.8v-39.4H65.2z
					"/>
			</g>
		</g>
		<g>
			<g>
				<path fill="#BB8B30" d="M455.4,198.6c0,29.4-11.9,56.1-31.2,75.3c-19.3,19.3-45.9,31.2-75.3,31.2H163.2
					c-58.9,0-106.6-47.7-106.6-106.6c0-29.4,11.9-56.1,31.2-75.3S133.7,92,163.2,92H209l18.1,13.2h60.4L305.5,92h43.3
					C407.7,92,455.4,139.7,455.4,198.6z"/>
			</g>
		</g>
		<g>
			<g>
				<g>
					<path fill="#D04527" d="M420.8,199c0,40.6-32.9,73.5-73.5,73.5H167.2c-40.6,0-73.5-32.9-73.5-73.5v0
						c0-40.6,32.9-73.5,73.5-73.5h180.1C387.9,125.5,420.8,158.4,420.8,199L420.8,199z M348.9,92h-43.3l-18.1,13.2H227L209,92h-45.8
						c-29.4,0-56.1,11.9-75.3,31.2s-31.2,45.9-31.2,75.3c0,58.8,47.7,106.6,106.6,106.6h185.7c29.4,0,56.1-11.9,75.3-31.2
						c19.3-19.3,31.2-45.9,31.2-75.3C455.4,139.7,407.7,92,348.9,92z"/>
				</g>
			</g>
		</g>
		<g>
			<g>
				<path fill="#414042" d="M348.9,313.8H163.2C99.7,313.8,48,262.1,48,198.6c0-30.8,12-59.7,33.7-81.4
					c21.8-21.8,50.7-33.7,81.4-33.7H209c1.8,0,3.6,0.6,5.1,1.7l15.8,11.5h54.8l15.8-11.5c1.5-1.1,3.3-1.7,5.1-1.7h43.3
					c63.5,0,115.2,51.7,115.2,115.2c0,30.8-12,59.7-33.7,81.4C408.5,301.8,379.6,313.8,348.9,313.8z M163.2,100.7
					c-26.2,0-50.8,10.2-69.3,28.7c-18.5,18.5-28.7,43.1-28.7,69.3c0,54,43.9,97.9,97.9,97.9h185.7c26.2,0,50.8-10.2,69.3-28.7
					c18.5-18.5,28.7-43.1,28.7-69.3c0-54-43.9-97.9-97.9-97.9h-40.5l-15.8,11.5c-1.5,1.1-3.3,1.7-5.1,1.7H227
					c-1.8,0-3.6-0.6-5.1-1.7l-15.8-11.5H163.2z"/>
			</g>
		</g>
		<g>
			<g>
				<path fill="#414042" d="M346,281.2H166c-45.3,0-82.1-36.8-82.1-82.1c0-45.3,36.8-82.1,82.1-82.1H346c45.3,0,82.1,36.8,82.1,82.1
					C428.2,244.3,391.3,281.2,346,281.2z M166,134.2c-35.8,0-64.9,29.1-64.9,64.9s29.1,64.9,64.9,64.9H346
					c35.8,0,64.9-29.1,64.9-64.9s-29.1-64.9-64.9-64.9H166z"/>
			</g>
		</g>
		<g>
			<g>
				<path fill="#414042" d="M256,201.5c-28.2,0-54.8-7.3-74.9-20.6c-21.2-14-32.9-33-32.9-53.4c0-4.8,3.9-8.6,8.6-8.6
					c4.8,0,8.6,3.9,8.6,8.6c0,31.3,40.7,56.8,90.6,56.8c50,0,90.6-25.5,90.6-56.8c0-4.8,3.9-8.6,8.6-8.6s8.6,3.9,8.6,8.6
					c0,20.5-11.7,39.4-32.9,53.4C310.8,194.2,284.2,201.5,256,201.5z"/>
			</g>
		</g>
		<g>
			<g>
				<g>
					<g>
						<path fill="#D04527" d="M299.3,177.6c0.1-0.7,0.2-1.4,0.2-2.1c0.2,0.4,0.4,0.8,0.5,1.2C299.7,176.9,299.5,177.2,299.3,177.6z"
							/>
					</g>
				</g>
			</g>
		</g>
		<g>
			<g>
				<rect x="182.1" y="125.5" fill="#E3D4A6" width="147.6" height="43.8"/>
			</g>
		</g>
		<g>
			<g>
				<path fill="#414042" d="M329.8,177.9H182.1c-4.8,0-8.6-3.9-8.6-8.6v-43.8c0-4.8,3.9-8.6,8.6-8.6h147.6c4.8,0,8.6,3.9,8.6,8.6
					v43.8C338.4,174.1,334.5,177.9,329.8,177.9z M190.7,160.7h130.4v-26.5H190.7V160.7z"/>
			</g>
		</g>
	</g>
	<g>
		<g>
			<path fill="#E6E7E8" d="M455.4,198.6c0,6.3-0.5,12.4-1.6,18.4h-35.2c1.4-5.7,2.2-11.8,2.2-17.9c0-8.3-1.4-16.2-3.9-23.6h35.9
				C454.5,182.9,455.4,190.6,455.4,198.6z"/>
		</g>
	</g>
	<g>
		<g>
			<rect x="235.2" y="272.5" fill="#E6E7E8" width="41.6" height="32.6"/>
		</g>
	</g>
	<g>
		<g>
			<path fill="#E6E7E8" d="M93.7,199c0,6.2,0.8,12.2,2.2,17.9H58.2c-1.1-6-1.6-12.1-1.6-18.4c0-8,0.9-15.7,2.5-23.2h38.4
				C95.1,182.8,93.7,190.8,93.7,199z"/>
		</g>
	</g>
	<g>
		<g>
			<g>
				<path fill="#E6E7E8" d="M419.3,278.5c-10.8,9.5-23.5,16.9-37.4,21.4l-27.7-27.7c15.7-1.5,29.9-7.9,41.2-17.6h0L419.3,278.5z"/>
			</g>
		</g>
		<g>
			<g>
				<path fill="#E6E7E8" d="M162,272.3L133.4,301c-14.2-4.1-27.3-11.2-38.4-20.4l25.1-25.1C131.6,265.1,146.1,271.3,162,272.3z"/>
			</g>
		</g>
	</g>
	<g>
		<g>
			<g>
				<path fill="#E6E7E8" d="M455.4,198.6c0,6.3-0.5,12.4-1.6,18.4h-35.2c1.4-5.7,2.2-11.8,2.2-17.9c0-8.3-1.4-16.2-3.9-23.6h35.9
					C454.5,182.9,455.4,190.6,455.4,198.6z"/>
			</g>
		</g>
		<g>
			<g>
				<rect x="235.2" y="272.5" fill="#E6E7E8" width="41.6" height="32.6"/>
			</g>
		</g>
		<g>
			<g>
				<path fill="#E6E7E8" d="M93.7,199c0,6.2,0.8,12.2,2.2,17.9H58.2c-1.1-6-1.6-12.1-1.6-18.4c0-8,0.9-15.7,2.5-23.2h38.4
					C95.1,182.8,93.7,190.8,93.7,199z"/>
			</g>
		</g>
		<g>
			<g>
				<g>
					<path fill="#E6E7E8" d="M419.3,278.5c-10.8,9.5-23.5,16.9-37.4,21.4l-27.7-27.7c15.7-1.5,29.9-7.9,41.2-17.6h0L419.3,278.5z"/>
				</g>
			</g>
			<g>
				<g>
					<path fill="#E6E7E8" d="M162,272.3L133.4,301c-14.2-4.1-27.3-11.2-38.4-20.4l25.1-25.1C131.6,265.1,146.1,271.3,162,272.3z"/>
				</g>
			</g>
		</g>
	</g>
	<g>
		<g>
			<g>
				<path fill="#414042" d="M453.8,225.6h-35.2c-2.7,0-5.2-1.2-6.8-3.3c-1.6-2.1-2.2-4.8-1.6-7.4c1.3-5.2,1.9-10.5,1.9-15.9
					c0-7.2-1.2-14.2-3.4-20.9c-0.9-2.6-0.5-5.5,1.1-7.8c1.6-2.3,4.2-3.6,7-3.6h35.9c4,0,7.5,2.8,8.4,6.7c1.8,8.2,2.8,16.6,2.8,25.1
					c0,6.7-0.6,13.4-1.7,19.9C461.6,222.6,458,225.6,453.8,225.6z M428.9,208.4h17.4c0.3-3.2,0.5-6.5,0.5-9.8
					c0-4.9-0.4-9.8-1.1-14.6H428c0.9,4.9,1.4,9.9,1.4,15C429.4,202.2,429.2,205.3,428.9,208.4z"/>
			</g>
		</g>
		<g>
			<g>
				<path fill="#414042" d="M276.8,313.8h-41.6c-4.8,0-8.6-3.9-8.6-8.6v-32.6c0-4.8,3.9-8.6,8.6-8.6h41.6c4.8,0,8.6,3.9,8.6,8.6
					v32.6C285.4,309.9,281.6,313.8,276.8,313.8z M243.8,296.5h24.4v-15.4h-24.4V296.5z"/>
			</g>
		</g>
		<g>
			<g>
				<path fill="#414042" d="M96,225.6C95.9,225.6,95.9,225.6,96,225.6H58.2c-4.2,0-7.8-3-8.5-7.1c-1.1-6.5-1.7-13.2-1.7-19.9
					c0-8.5,0.9-16.9,2.8-25.1c0.9-3.9,4.4-6.7,8.4-6.7h38.4c2.8,0,5.4,1.3,7,3.6c1.6,2.3,2,5.2,1.1,7.8c-2.3,6.7-3.4,13.7-3.4,20.9
					c0,5.1,0.6,10.2,1.8,15.1c0.3,0.9,0.5,1.9,0.5,2.9C104.6,221.7,100.7,225.6,96,225.6z M65.7,208.4h19.9
					c-0.4-3.1-0.5-6.2-0.5-9.3c0-5.1,0.5-10.1,1.4-15H66.3c-0.7,4.8-1.1,9.7-1.1,14.6C65.2,201.9,65.4,205.1,65.7,208.4z"/>
			</g>
		</g>
		<g>
			<g>
				<g>
					<path fill="#414042" d="M381.9,308.5c-2.3,0-4.5-0.9-6.1-2.5l-27.7-27.7c-2.4-2.4-3.1-5.9-2-9c1.1-3.1,4-5.3,7.3-5.7
						c13.5-1.3,26.1-6.6,36.3-15.5c3.3-2.9,8.7-2.7,11.8,0.4l23.9,23.9c1.7,1.7,2.6,4,2.5,6.4c-0.1,2.4-1.1,4.6-2.9,6.2
						c-11.9,10.5-25.5,18.3-40.4,23.2C383.7,308.4,382.8,308.5,381.9,308.5z M371.7,277.5l12.5,12.5c7.9-3.1,15.4-7.1,22.3-12.2
						l-11.7-11.7C387.7,271.1,379.9,274.9,371.7,277.5z"/>
				</g>
			</g>
			<g>
				<g>
					<path fill="#414042" d="M133.4,309.6c-0.8,0-1.6-0.1-2.4-0.3c-15.3-4.4-29.2-11.9-41.5-22.1c-1.9-1.6-3-3.8-3.1-6.2
						c-0.1-2.4,0.8-4.8,2.5-6.5l25.1-25.1c3.2-3.2,8.2-3.4,11.6-0.5c10.5,8.8,23.3,14,37,14.9c3.4,0.2,6.3,2.4,7.5,5.6
						c1.2,3.2,0.4,6.7-2,9.1L139.5,307C137.9,308.7,135.7,309.6,133.4,309.6z M108.1,279.6c7.1,4.9,14.8,8.7,22.9,11.5l13.2-13.2
						c-8.3-2.4-16.2-6.1-23.4-11.1L108.1,279.6z"/>
				</g>
			</g>
		</g>
	</g>
</g>
</svg>
