<?xml version="1.0" encoding="utf-8"?>
<!-- Generator: Adobe Illustrator 18.0.0, SVG Export Plug-In . SVG Version: 6.00 Build 0)  -->
<!DOCTYPE svg PUBLIC "-//W3C//DTD SVG 1.1//EN" "http://www.w3.org/Graphics/SVG/1.1/DTD/svg11.dtd">
<svg version="1.1" id="Layer_1" xmlns="http://www.w3.org/2000/svg" xmlns:xlink="http://www.w3.org/1999/xlink" x="0px" y="0px"
	 viewBox="0 0 512 512" enable-background="new 0 0 512 512" xml:space="preserve">
<g>
	<g>
		<g>
			<g>
				<g>
					<g>
						<g>
							<path fill="#E6E7E8" d="M278.9,367.4H138.7c-19.7,0-35.7-16-35.7-35.7V123.5c0-19.7,16-35.7,35.7-35.7h140.2
								c19.7,0,35.7,16,35.7,35.7v208.2C314.6,351.4,298.6,367.4,278.9,367.4z"/>
						</g>
					</g>
					<g>
						<g>
							<path fill="#414042" d="M278.9,376H138.7c-24.4,0-44.3-19.9-44.3-44.3V123.5c0-24.4,19.9-44.3,44.3-44.3h140.2
								c24.4,0,44.3,19.9,44.3,44.3v208.2C323.2,356.1,303.3,376,278.9,376z M138.7,96.5c-14.9,0-27,12.1-27,27v208.2
								c0,14.9,12.1,27,27,27h140.2c14.9,0,27-12.1,27-27V123.5c0-14.9-12.1-27-27-27H138.7z"/>
						</g>
					</g>
				</g>
				<g>
					<g>
						<g>
							<path fill="#D04527" d="M271.4,248.3c6.9-7.3,10.9-17.6,10.3-28.8c-1-19.3-16.1-34.8-34.5-35.8c-18.4-1-33.9,12.3-37.6,30.1
								c-3.6-17.8-19.2-31-37.5-30.1c-18.3,0.9-33.3,16.2-34.5,35.3c-0.7,10.2,2.5,19.6,8.1,26.7l53.3,78.3c5.3,7.2,15.7,7.2,20.9,0
								L271.4,248.3z"/>
						</g>
					</g>
				</g>
			</g>
			<g>
				<g>
					<g>
						<path fill="#E6E7E8" d="M318.6,383.1l-131.4-49c-18.5-6.9-27.8-27.4-21-45.9L239,93.2c6.9-18.5,27.4-27.8,45.9-21l131.4,49
							c18.5,6.9,27.8,27.4,21,45.9l-72.7,195.1C357.6,380.6,337.1,389.9,318.6,383.1z"/>
					</g>
				</g>
				<g>
					<g>
						<path fill="#414042" d="M331,393.9c-5.3,0-10.5-0.9-15.5-2.8l-131.4-49c-22.9-8.5-34.5-34.1-26-57l72.7-195.1
							c6.4-17.2,23.1-28.8,41.5-28.8c5.3,0,10.5,0.9,15.5,2.8l131.4,49c22.9,8.5,34.5,34.1,26,57l-72.7,195.1
							C366.1,382.4,349.4,393.9,331,393.9z M272.4,78.6c-11.2,0-21.4,7.1-25.3,17.6l-72.7,195.1c-5.2,14,1.9,29.6,15.9,34.8
							l131.4,49c3,1.1,6.2,1.7,9.4,1.7c11.2,0,21.4-7.1,25.3-17.6L429.1,164c5.2-14-1.9-29.6-15.9-34.8l-131.4-49
							C278.8,79.1,275.6,78.6,272.4,78.6z"/>
					</g>
				</g>
				<g>
					<g>
						<path fill="#414042" d="M350.1,254.2L350.1,254.2c0,0-17.6-36.5-23.4-69c-1.3-7.5-10.3-10.9-16.3-6.1
							c-25.6,20.8-62.8,36.8-62.8,36.8l0,0c-12.9,5.3-22.4,18.8-19.9,36.8c0.7,5,2.9,9.8,6.3,13.6c14.4,16.2,35.3,15.3,47.9,3.9
							c-4.5,9.3-13.1,24.4-25.1,33.5c-3.7,2.8-2.9,8.5,1.4,10.1l9.9,3.7l9.9,3.7c4.3,1.6,8.6-2.2,7.7-6.7c-3.1-14.7,0.3-31.7,3-41.7
							c2,16.8,17.2,31.3,38.7,28.4c5-0.7,9.8-2.8,13.6-6.2C354.7,283.1,356.4,266.7,350.1,254.2z"/>
					</g>
				</g>
				<g>
					<g>
						<polygon fill="#414042" points="310.1,122.8 315,124.5 318.3,115.4 296.1,107.4 292.8,116.5 296.5,117.8 271.7,127.8 
							277.8,111 285.2,113.7 288.5,104.6 266.3,96.6 263,105.6 268.7,107.7 254.5,146.9 248.7,144.8 245.4,153.9 267.6,162 
							270.9,152.9 263.6,150.2 267.3,140 275.4,136.7 283.1,157.3 278.5,155.7 275.2,164.7 297.4,172.8 300.7,163.7 295,161.6 
							284.4,133.1 						"/>
					</g>
				</g>
			</g>
		</g>
		<g>
			<g>
				<g>
					<g>
						<path fill="#D04527" d="M148.1,170h-4.4c-8.8,0-15.9-7.1-15.9-15.9v-32.6c0-8.8,7.1-15.9,15.9-15.9h4.4
							c8.8,0,15.9,7.1,15.9,15.9v32.6C164,162.8,156.8,170,148.1,170z M143.7,115.1c-3.5,0-6.4,2.9-6.4,6.4v32.6
							c0,3.5,2.9,6.4,6.4,6.4h4.4c3.5,0,6.4-2.9,6.4-6.4v-32.6c0-3.5-2.9-6.4-6.4-6.4H143.7z"/>
					</g>
				</g>
			</g>
			<g>
				<g>
					<g>
						<path fill="#D04527" d="M163.8,175.3c-14.6,0-19.5-9.8-22.1-18.3c-1.2-3.9-5.2-3.5-5.7-3.4l-0.7,0h-11.6V144h11.3
							c4.5-0.5,13,1,15.8,10.2c2.3,7.5,5,11.5,12.9,11.5V175.3z"/>
					</g>
				</g>
			</g>
		</g>
	</g>
	<g>
		<g>
			<g>
				<path fill="#E6E7E8" d="M441.1,433l0-31.3l-16.3,0l-0.6-0.7c5.1-5.1,7.8-12.1,7.8-20.1c0-7.1-2.2-13.5-6.6-18.8
					c-7.8-9.6-22.4-10.3-26.6-10.3l-14.4,0v0l-37.2,0l0,1.2c-1.9-0.8-4-1.2-6.3-1.2H304c-0.6,0-1.1,0-1.4,0.1h-17.4l0-0.2l-79.6,0.2
					l0,3.5c-3.8-2.5-8.3-3.9-13.2-3.9h-30.6c-7.6,0-14.5,3.6-18.9,9.1c-4.1-4-11.1-8.1-22.1-8.1H70.9v31.1h5.3v18.4h-5.3v31.1h46.5
					v-20.3h4c7,0,12.3-1.6,16.3-3.8v0.1c0,13.4,10.9,24.3,24.3,24.3h30.6c4.9,0,9.5-1.5,13.4-4l0,4.4l44.6-0.1h26.3v0.1h64.2
					c2.2,0,4.3-0.4,6.3-1.2l0,0.9H441.1z"/>
			</g>
		</g>
		<g>
			<g>
				<path fill="#414042" d="M192.4,351.3c4.9,0,9.4,1.4,13.2,3.9l0-3.5l79.6-0.2l0,0.2h17.4c0.4,0,0.9-0.1,1.4-0.1h36.8
					c2.2,0,4.3,0.4,6.3,1.2l0-1.2l37.2,0v0l14.4,0c4.3,0,18.9,0.7,26.6,10.3c4.4,5.4,6.6,11.7,6.6,18.8c0,8-2.7,15-7.8,20.1l0.6,0.7
					l16.3,0l0,31.3h-94l0-0.9c-1.9,0.8-4.1,1.2-6.3,1.2h-64.2v-0.1h-26.3l-44.6,0.1l0-4.4c-3.8,2.5-8.4,4-13.4,4h-30.6
					c-13.4,0-24.3-10.9-24.3-24.3v-0.1c-4,2.2-9.3,3.8-16.3,3.8h-4v20.3H70.9v-31.1h5.3v-18.4h-5.3v-31.1h49.9c11,0,18,4.1,22.1,8.1
					c4.5-5.5,11.3-9.1,18.9-9.1H192.4 M192.4,334.1h-30.6c-7.1,0-14,1.8-20.1,5.2c-5.6-2.5-12.5-4.2-21-4.2H70.9
					c-9.5,0-17.2,7.7-17.2,17.2v31.1c0,3.4,1,6.5,2.6,9.2c-1.7,2.7-2.6,5.8-2.6,9.2v31.1c0,9.5,7.7,17.2,17.2,17.2h46.5
					c7.3,0,13.5-4.5,16-10.9c7.4,7,17.4,11.3,28.4,11.3h30.6c2.5,0,5.1-0.2,7.5-0.7c1.8,0.7,3.8,1,5.9,1c0,0,0,0,0,0l44.6-0.1h24.5
					c0.6,0.1,1.1,0.1,1.7,0.1h64.2c1.8,0,3.5-0.1,5.2-0.4c0.4,0,0.7,0,1.1,0h94c4.6,0,9-1.8,12.2-5c3.2-3.2,5-7.6,5-12.2l0-31.3
					c0-4.6-1.8-9-5.1-12.2c-1.3-1.3-2.8-2.3-4.3-3.2c0.2-1.8,0.3-3.6,0.3-5.5c0-11.1-3.6-21.3-10.5-29.7c-12.2-15-32-16.7-40-16.7
					l-13.3,0c-0.4,0-0.7,0-1.1,0c0,0,0,0,0,0l-37.2,0c-0.8,0-1.6,0.1-2.4,0.2c-1.3-0.1-2.6-0.2-3.9-0.2H304c-0.7,0-1.4,0-2.2,0.1
					h-14c-0.9-0.1-1.7-0.2-2.6-0.2c0,0,0,0,0,0l-79.6,0.2c-1.4,0-2.8,0.2-4.2,0.5C198.4,334.4,195.4,334.1,192.4,334.1L192.4,334.1z
					"/>
			</g>
		</g>
		<g>
			<g>
				<path fill="#D04527" d="M192.4,362.2h-30.6c-7.4,0-13.4,6-13.4,13.4v33.3c0,7.4,6,13.4,13.4,13.4h30.6c7.4,0,13.4-6,13.4-13.4
					v-33.3C205.8,368.2,199.8,362.2,192.4,362.2z M191.2,403.4c0,2.5-2,4.5-4.5,4.5h-19.3c-2.5,0-4.5-2-4.5-4.5V381
					c0-2.5,2-4.5,4.5-4.5h19.3c2.5,0,4.5,2,4.5,4.5V403.4z"/>
			</g>
		</g>
		<g>
			<g>
				<polygon fill="#D04527" points="274.4,368.7 274.4,362.4 249.6,362.5 249.7,371.9 253.2,371.9 234.6,387.7 234.6,371.9 
					241.2,371.9 241.2,362.5 216.4,362.6 216.5,372 220.7,372 220.7,413.1 216.6,413.2 216.6,422.6 241.3,422.5 241.3,413.1 
					234.6,413.1 234.6,402.5 240,397.9 253.4,413.1 249.8,413.1 249.8,422.5 274.5,422.5 274.5,413 270.8,413 270.8,413 249.4,390 
					270.8,371.9 274.4,371.8 274.4,368.8 274.5,368.7 				"/>
			</g>
		</g>
		<g>
			<g>
				<path fill="#D04527" d="M340.8,362.5h-5.2H304c-0.3,0-0.5,0.1-0.8,0.1h-15.8v13.2h8.1v33.5h-8.1v13.3H304h1.2h30.5h5.2
					c3.3,0,6-2.7,6-5.9v-13h-11.2v4.1c0,1-0.8,1.8-1.8,1.8h-21.2c-1.1,0-1.9-0.8-1.9-1.9v-8.2h19.9v-13h-19.9v-9.1
					c0-1,0.9-1.9,1.9-1.9h21.2c1,0,1.8,0.8,1.8,1.8v5.6h11.2v-14.5C346.8,365.2,344.2,362.5,340.8,362.5z"/>
			</g>
		</g>
		<g>
			<g>
				<path fill="#D04527" d="M430.3,412.6l-10.8,0l-11.5-14.9c3.6-0.8,6.4-2.2,8.4-4.2c3.2-3.1,4.8-7.3,4.8-12.6
					c0-4.6-1.4-8.6-4.2-12c-3.4-4.2-11.1-6.3-18.2-6.3l-25.3,0l0,0l-15.5,0l0,9.5l6.9,0l0,40.5l-6.9,0l0,9.5h6.9h15.7h5.1l0-9.6
					l-5.1,0l0-13.3h11.1l10.7,15.4l0,7.5h4.9H427h3.3L430.3,412.6z M402.5,386.6c-1.5,1.4-3.8,2.1-7.2,2.1l-14.7,0l0-15.1l14.7,0
					c3.3,0,5.7,0.7,7.2,2.1c1.6,1.5,2.4,3.3,2.4,5.4C404.8,383.3,404,385.1,402.5,386.6z"/>
			</g>
		</g>
		<g>
			<g>
				<path fill="#D04527" d="M120.8,363.2h-14.3H87.1h-5.3v9.3h5.3v40.1h-5.3v9.3h24.8v-9.3H102v-11h19.3c7.4,0,12.6-2.2,15.8-6.6
					c2.4-3.4,3.7-7.7,3.7-12.9c0-5.3-1.5-9.6-4.6-13C132.7,365.1,127.6,363.2,120.8,363.2z M123.6,387.4c-1.2,1.4-3.4,2.1-6.7,2.1
					H102v-14.3h15c3,0,5.2,0.6,6.4,1.9c1.3,1.3,1.9,3,1.9,5.1C125.3,384.4,124.7,386.2,123.6,387.4z"/>
			</g>
		</g>
	</g>
</g>
</svg>
