<?xml version="1.0" encoding="utf-8"?>
<!-- Generator: Adobe Illustrator 18.0.0, SVG Export Plug-In . SVG Version: 6.00 Build 0)  -->
<!DOCTYPE svg PUBLIC "-//W3C//DTD SVG 1.1//EN" "http://www.w3.org/Graphics/SVG/1.1/DTD/svg11.dtd">
<svg version="1.1" id="Layer_1" xmlns="http://www.w3.org/2000/svg" xmlns:xlink="http://www.w3.org/1999/xlink" x="0px" y="0px"
	 viewBox="0 0 512 512" enable-background="new 0 0 512 512" xml:space="preserve">
<g>
	<g>
		<g>
			<g>
				<g>
					<path fill="#F15A22" d="M256,76.4c-99.2,0-179.6,80.4-179.6,179.6S156.8,435.6,256,435.6S435.6,355.2,435.6,256
						S355.2,76.4,256,76.4z M256,380.7c-68.9,0-124.7-55.9-124.7-124.7S187.1,131.3,256,131.3S380.7,187.1,380.7,256
						S324.9,380.7,256,380.7z"/>
				</g>
			</g>
		</g>
		<g>
			<g>
				<g>
					<path fill="none" d="M98.5,256c0,43.4,17.6,82.7,46,111.2l222.7-222.7c-28.5-28.4-67.8-46-111.2-46C169,98.5,98.5,169,98.5,256
						z"/>
				</g>
			</g>
			<g>
				<g>
					<path fill="#F7955B" d="M98.5,256C98.5,169,169,98.5,256,98.5c43.4,0,82.7,17.6,111.2,46l15.6-15.6
						C350.3,96.5,305.5,76.4,256,76.4c-99.2,0-179.6,80.4-179.6,179.6c0,49.5,20,94.3,52.4,126.8l15.6-15.6
						C116.1,338.7,98.5,299.4,98.5,256z"/>
				</g>
			</g>
			<g>
				<g>
					<path fill="#D04527" d="M256,435.6c99.2,0,179.6-80.4,179.6-179.6c0-49.7-20.2-94.6-52.8-127.1l-15.6,15.6
						c28.6,28.5,46.3,68,46.3,111.5c0,87-70.5,157.5-157.5,157.5c-43.6,0-83-17.7-111.5-46.3l-15.6,15.6
						C161.4,415.4,206.3,435.6,256,435.6z"/>
				</g>
			</g>
		</g>
		<g>
			<g>
				<g>
					<path fill="#E6E7E8" d="M286.7,79.1l-5.8,48.3c-8-1.6-16.3-2.4-24.8-2.4c-8.5,0-16.8,0.8-24.9,2.4l-5.8-48.3
						c10-1.7,20.2-2.6,30.7-2.6C266.4,76.4,276.7,77.3,286.7,79.1z"/>
				</g>
			</g>
		</g>
		<g>
			<g>
				<g>
					<path fill="#E6E7E8" d="M286.7,79.1l-5.8,48.3c-8-1.6-16.3-2.4-24.8-2.4c-8.5,0-16.8,0.8-24.9,2.4l-5.8-48.3
						c10-1.7,20.2-2.6,30.7-2.6C266.4,76.4,276.7,77.3,286.7,79.1z"/>
				</g>
			</g>
		</g>
		<g>
			<g>
				<g>
					<path fill="#E6E7E8" d="M286.7,432.9c-10,1.7-20.2,2.6-30.7,2.6c-10.5,0-20.7-0.9-30.7-2.6l5.8-48.3c8,1.6,16.4,2.4,24.9,2.4
						c8.5,0,16.8-0.8,24.8-2.4L286.7,432.9z"/>
				</g>
			</g>
		</g>
		<g>
			<g>
				<g>
					<path fill="#E6E7E8" d="M182.6,147.5c-13.8,9.4-25.7,21.3-35.1,35.1l-38.3-30.1c5.8-8.3,12.4-16.2,19.8-23.5
						c7.4-7.4,15.3-14,23.5-19.8L182.6,147.5z"/>
				</g>
			</g>
		</g>
		<g>
			<g>
				<g>
					<path fill="#E6E7E8" d="M182.6,147.5c-13.8,9.4-25.7,21.3-35.1,35.1l-38.3-30.1c5.8-8.3,12.4-16.2,19.8-23.5
						c7.4-7.4,15.3-14,23.5-19.8L182.6,147.5z"/>
				</g>
			</g>
		</g>
		<g>
			<g>
				<g>
					<path fill="#E6E7E8" d="M402.8,359.4c-5.8,8.3-12.4,16.2-19.8,23.5c-7.4,7.4-15.3,14-23.5,19.8l-30-38.3
						c13.8-9.4,25.7-21.3,35.1-35.2L402.8,359.4z"/>
				</g>
			</g>
		</g>
		<g>
			<g>
				<g>
					<path fill="#E6E7E8" d="M125,256c0,8.5,0.8,16.8,2.4,24.8L79,286.7c-1.7-10-2.6-20.2-2.6-30.7c0-10.5,0.9-20.7,2.6-30.7
						l48.3,5.8C125.8,239.2,125,247.5,125,256z"/>
				</g>
			</g>
		</g>
		<g>
			<g>
				<g>
					<path fill="#E6E7E8" d="M125,256c0,8.5,0.8,16.8,2.4,24.8L79,286.7c-1.7-10-2.6-20.2-2.6-30.7c0-10.5,0.9-20.7,2.6-30.7
						l48.3,5.8C125.8,239.2,125,247.5,125,256z"/>
				</g>
			</g>
		</g>
		<g>
			<g>
				<g>
					<path fill="#E6E7E8" d="M435.6,256c0,10.5-0.9,20.7-2.6,30.7l-48.3-5.8c1.6-8,2.4-16.4,2.4-24.8c0-8.5-0.8-16.8-2.4-24.8
						l48.3-5.8C434.7,235.3,435.6,245.5,435.6,256z"/>
				</g>
			</g>
		</g>
		<g>
			<g>
				<g>
					<path fill="#E6E7E8" d="M182.6,364.5l-30.1,38.3c-8.3-5.8-16.1-12.4-23.5-19.8c-7.4-7.4-14-15.3-19.8-23.5l38.3-30.1
						C156.9,343.2,168.8,355.2,182.6,364.5z"/>
				</g>
			</g>
		</g>
		<g>
			<g>
				<g>
					<path fill="#E6E7E8" d="M182.6,364.5l-30.1,38.3c-8.3-5.8-16.1-12.4-23.5-19.8c-7.4-7.4-14-15.3-19.8-23.5l38.3-30.1
						C156.9,343.2,168.8,355.2,182.6,364.5z"/>
				</g>
			</g>
		</g>
		<g>
			<g>
				<g>
					<path fill="#E6E7E8" d="M402.8,152.6l-38.3,30.1c-9.4-13.8-21.3-25.8-35.1-35.2l30-38.3c8.3,5.8,16.2,12.4,23.5,19.8
						C390.4,136.4,397,144.3,402.8,152.6z"/>
				</g>
			</g>
		</g>
		<g>
			<g>
				<path fill="#414042" d="M256,444.5c-103.9,0-188.5-84.6-188.5-188.5S152.1,67.5,256,67.5S444.5,152.1,444.5,256
					S359.9,444.5,256,444.5z M256,85.3c-94.1,0-170.7,76.6-170.7,170.7S161.9,426.7,256,426.7S426.7,350.1,426.7,256
					S350.1,85.3,256,85.3z"/>
			</g>
		</g>
		<g>
			<g>
				<circle fill="#D04527" cx="256.1" cy="256" r="131.6"/>
			</g>
		</g>
		<g>
			<g>
				<circle fill="#E6E7E8" cx="256.1" cy="256" r="103.5"/>
			</g>
		</g>
		<g>
			<g>
				<g>
					<path fill="#414042" d="M256.1,365.4c-60.4,0-109.5-49.1-109.5-109.5s49.1-109.5,109.5-109.5c60.4,0,109.5,49.1,109.5,109.5
						S316.5,365.4,256.1,365.4z M256.1,170.6c-47,0-85.3,38.3-85.3,85.3s38.3,85.3,85.3,85.3s85.3-38.3,85.3-85.3
						S303.2,170.6,256.1,170.6z"/>
				</g>
			</g>
		</g>
	</g>
	<g>
		<g>
			<g>
				<rect x="248.3" y="182.2" fill="#F15A22" width="15.6" height="147.6"/>
			</g>
		</g>
	</g>
	<g>
		<g>
			<g>
				<path fill="#F15A22" d="M259,312.9c-24.3,0-33-18.4-33.3-19.1l14.4-6.6l-7.2,3.3l7.2-3.4c0.5,1,5.3,10,18.9,10
					c7.7,0,16.3-4.7,17.2-12.6c1.1-8.7-7-14.2-19.4-21.6c-2.5-1.5-4.9-2.9-7.2-4.4c-1.2-0.8-2.4-1.5-3.6-2.3
					c-4.5-2.8-9.6-6-13.6-10.8c-4.9-5.8-7.5-13.2-7.1-20.1c0.9-14.8,14.5-23.6,26.8-24.4c10.7-0.7,22.6,2.6,32.6,9.1l-8.6,13.3
					c-7.1-4.6-15.6-7.1-22.9-6.6c-5.6,0.4-11.7,4-12,9.5c-0.2,2.9,1.1,6.2,3.4,9c2.4,2.8,6,5.1,9.9,7.5c1.4,0.8,2.7,1.7,4,2.6
					c1.9,1.3,4.1,2.6,6.5,4c12.4,7.4,29.4,17.5,27,37.1C289.9,303.6,273.4,312.9,259,312.9z"/>
			</g>
		</g>
		<g>
			<g>
				<line fill="#D04527" x1="279.8" y1="205.4" x2="279.8" y2="230.4"/>
			</g>
			<g>
				<rect x="271.8" y="205.4" fill="#F15A22" width="15.9" height="25"/>
			</g>
		</g>
		<g>
			<g>
				<line fill="#D04527" x1="232.9" y1="278.7" x2="232.9" y2="306.3"/>
			</g>
			<g>
				<rect x="224.9" y="278.7" fill="#F15A22" width="15.9" height="27.7"/>
			</g>
		</g>
	</g>
</g>
</svg>
