<svg class="svg-icon" style="width: 1em; height: 1em;vertical-align: middle;fill: currentColor;overflow: hidden;" viewBox="0 0 1024 1024" version="1.1" xmlns="http://www.w3.org/2000/svg"><path d="M781.649 436.724h-4.771q-96.243 0-192.487-0.1c-4.4-0.01-5.908 1.1-6.4 5.581a47.951 47.951 0 0 1-6.836 19.128c-1.283 2.158-1.049 3.362 0.8 5.009 27.873 24.819 55.612 49.788 83.551 74.532 7.562 6.7 9.875 16 5.1 25.655-10.538 21.308-21.213 42.547-31.846 63.808q-43.611 87.194-87.227 174.386c-0.871 1.742-1.649 3.532-2.5 5.362 1.8 1.115 3.473 0.611 5.042 0.615 17.5 0.045 35-0.023 52.5 0.043 19.363 0.073 34.444 11.694 39.727 30.3 2.834 9.98 5.519 19.87 2.5 30.374-5.141 17.857-20.429 29.273-39.97 29.293q-82.744 0.081-165.489 0.009a43.862 43.862 0 0 1-5.988-0.254c-23.531-3.258-38.723-24.291-34.173-47.576 2.244-11.485 5.141-22.745 14.327-31.149a39.752 39.752 0 0 1 27.591-11c17.665-0.044 35.331-0.014 53-0.015h4.973c0.085-2.657-1.423-4.355-2.35-6.212Q432 686.955 373.215 569.437c-6.784-13.569-5.1-20.411 6.284-30.532 27.026-24.022 53.824-48.3 80.786-72.4 2.013-1.8 2.192-3.094 0.856-5.408a50.937 50.937 0 0 1-6.908-20.142c-0.355-3.384-1.6-4.329-4.969-4.312-28.164 0.137-56.329 0.078-84.494 0.078H249.656c2.479 8.022 4.816 15.6 7.161 23.169q39.225 126.694 78.447 253.39c7.3 23.609 1.467 41.247-18.378 56.376-16.043 12.23-34.5 18.6-54.079 21.716-30.136 4.792-59.774 2.77-88.342-8.722-13.776-5.542-26.078-13.338-35.262-25.327a46.942 46.942 0 0 1-10.022-28.7 24.234 24.234 0 0 1 1.273-7.817q46.9-145.172 93.807-290.344c0.51-1.578 0.91-3.192 1.418-4.771 2.208-6.859 5.12-8.969 12.421-8.97q105.493-0.007 210.985 0.113c4.415 0.01 6.416-0.98 7.339-5.467a34.615 34.615 0 0 1 4.478-10.489c1.743-2.9 1.22-4.417-1.2-6.577-25.754-22.946-51.361-46.057-77.08-69.043-6.769-6.049-10.189-13.058-7.493-22.191a19.44 19.44 0 0 1 18.395-14.293c3.494-0.141 7-0.054 10.5-0.054q115.742 0 231.484 0.009c14.1 0 23.045 9.332 21.793 22.536-0.576 6.075-4.122 10.33-8.448 14.2q-35.953 32.185-71.834 64.426a16.393 16.393 0 0 1-2.257 1.969c-4.817 2.918-5.733 6.359-2.206 11.106a17.681 17.681 0 0 1 3.078 7.3c0.929 5.377 3.584 6.639 9.024 6.62 69.494-0.242 138.99-0.16 208.485-0.159 8.867 0 10.924 1.649 13.5 9.967q45.452 146.7 91 293.36c3.6 11.573 0.728 22.1-4.975 31.991-8.348 14.479-21.63 23.332-36.58 29.694-27.187 11.569-55.607 14.106-84.711 10.441-18.673-2.352-36.514-7.421-52.59-17.51-14.911-9.358-26.311-21.46-29.122-39.733a32.186 32.186 0 0 1 1.205-15.2q45.371-139.909 90.449-279.912c0.296-0.913 1.043-1.782 0.33-3.101zM246.26 708.694c20.649 0.01 41.3-0.08 61.947 0.119 3.922 0.038 4.675-0.6 3.43-4.527-8.123-25.647-16-51.37-23.944-77.075q-20.29-65.687-40.555-131.382c0.2-1.7-0.651-2.91-1.883-4.772-0.1 1.621-0.2 2.448-0.2 3.275q-0.014 105.225 0.022 210.45c-0.001 1.344-0.764 3.088 1.183 3.912z m260.058 82.246l0.872-0.272c0.049-0.494 0.14-0.989 0.14-1.483q0.01-105.977 0.086-211.954c0.006-3.845-1.262-4.725-4.884-4.712-33.826 0.121-67.652 0.066-101.478 0.1-1.041 0-2.328-0.542-3.356 1.079zM634.88 573.371c-1.992-1.236-3.682-0.753-5.276-0.755-31.989-0.034-63.98 0.081-95.968-0.138-4.919-0.034-6.45 1.01-6.434 6.256q0.3 101.466 0.131 202.933v4.186l1.174 0.258z m1.92-21.171a6.98 6.98 0 0 0-0.886-1.524q-38.086-34.269-76.139-68.575c-2.689-2.438-4.284-2.231-7.081-0.22a62.05 62.05 0 0 1-72.844 0.087c-3.037-2.188-4.752-2.092-7.462 0.367-21.474 19.482-43.093 38.8-64.647 58.2-4.121 3.708-8.15 7.517-12.642 11.667zM394.971 308.838c4.564 5.335 9.454 9.04 13.984 13.113 21.174 19.033 42.43 37.976 63.512 57.109 2.767 2.511 4.486 2.465 7.472 0.342a61.962 61.962 0 0 1 72.393-0.078c3.179 2.258 4.794 1.729 7.4-0.627q33.144-30 66.508-59.753c3.5-3.14 6.942-6.34 11.059-10.106z m120.941 571.886q41.731 0 83.462-0.012c10.154-0.013 17.133-5.154 19.92-14.81 2.482-8.6-0.943-16.443-4.142-24-3.114-7.356-9.482-11.112-17.473-11.125q-81.463-0.132-162.926-0.058a20.333 20.333 0 0 0-10.335 3.12c-7.718 4.433-9.095 12.28-11.022 19.826-4.031 15.78 4.758 27.047 21.053 27.056q40.731 0.023 81.463 0.003z m-360.416-172c22.094 0 43.565-0.135 65.031 0.114 4.289 0.05 5.1-1.187 5.087-5.236q-0.2-101.933-0.106-203.866c0-1.5-0.166-3-0.254-4.5l-0.843-0.042z m629.711-213.037l-0.811-0.172-68.86 213.209c22.028 0 43.18-0.127 64.329 0.107 4.262 0.047 5.474-0.817 5.463-5.336q-0.261-101.726-0.12-203.454z m20.743-3.7l-0.743 0.063v212.122a18.31 18.31 0 0 1-0.01 2c-0.212 1.92 0.558 2.593 2.524 2.589 21.65-0.054 43.3-0.034 65.432-0.034zM234.309 728.724c-27 0-53.992 0.07-80.986-0.08-3.8-0.021-4.549 1.147-3.706 4.58a32.749 32.749 0 0 0 6.912 13.681c6.758 7.931 15.413 13.134 24.92 17 23.9 9.716 48.708 11.656 74.066 8.31 15.309-2.02 29.995-6.115 43.253-14.328 9.43-5.842 17.213-13.082 19.971-24.468 0.888-3.666 0.087-4.817-3.944-4.79-26.828 0.183-53.657 0.095-80.486 0.095z m559.9 0c-26.816 0-53.632 0.1-80.446-0.1-4.5-0.033-4.978 1.495-3.98 5.239a32.753 32.753 0 0 0 6.228 12.381c6.684 8.257 15.474 13.569 25.106 17.54 23.507 9.69 48.015 11.728 73.007 8.66 15.791-1.938 31.021-6.035 44.7-14.582 9.25-5.778 16.939-12.864 19.8-24 0.966-3.756 0.513-5.267-3.977-5.234-26.809 0.196-53.626 0.096-80.441 0.096zM516.158 473.717A43.14 43.14 0 0 0 559.2 430.9c0.045-23.629-19.2-43.089-42.694-43.167a42.993 42.993 0 1 0-0.348 85.986zM602.4 166.492c-0.4 13.641-6.467 29.707-15.227 44.828a127.9 127.9 0 0 1-42.631 44.7q-30.38 19.262-59.7-1.067c-30.3-20.979-50.112-49.342-55.019-86.085-5.244-39.265 26.338-63.422 62.632-55.7a74.15 74.15 0 0 1 20.094 7.237c2.345 1.274 4.044 1.122 6.376-0.093 14.427-7.52 29.635-10.956 45.8-7.254 23.147 5.303 37.684 24.492 37.675 53.434z m-20.1 0.118c0.2-22.87-12.008-35.073-30.833-34.919-10.318 0.085-19.562 3.671-28.075 9.139-5.082 3.264-9.684 3.445-14.841 0.2a64.234 64.234 0 0 0-23.64-8.937c-20.1-3.424-35.889 9.769-35.655 30.066 0.115 9.987 3.107 19.342 7.1 28.352 8.98 20.279 22.478 36.769 41.222 48.9 11.906 7.709 23.484 7.716 35.509 0.2a108.659 108.659 0 0 0 38.124-40.711c6.211-11.325 10.728-23.228 11.089-32.29z" fill="#343741" /><path d="M506.318 790.94L397.7 573.7c1.028-1.622 2.315-1.078 3.356-1.079 33.826-0.034 67.652 0.021 101.478-0.1 3.622-0.013 4.89 0.867 4.884 4.712q-0.163 105.977-0.086 211.954c0 0.494-0.091 0.989-0.14 1.483zM634.88 573.371l-106.372 212.74-1.174-0.258v-4.186q0-101.466-0.131-202.933c-0.015-5.246 1.515-6.29 6.434-6.256 31.988 0.219 63.978 0.1 95.968 0.138 1.595 0.002 3.283-0.481 5.275 0.755z" fill="#717B9A" /><path d="M636.8 552.2H395.1c4.492-4.151 8.521-7.96 12.642-11.667 21.554-19.394 43.174-38.716 64.647-58.2 2.709-2.458 4.424-2.554 7.462-0.367a62.05 62.05 0 0 0 72.844-0.087c2.8-2.011 4.392-2.219 7.081 0.22q37.952 34.417 76.139 68.575a6.98 6.98 0 0 1 0.885 1.526z" fill="#FEE180" /><path d="M394.971 308.838H637.3c-4.117 3.766-7.56 6.966-11.059 10.106Q592.967 348.8 559.729 378.7c-2.6 2.355-4.217 2.885-7.4 0.627a61.962 61.962 0 0 0-72.393 0.078c-2.986 2.123-4.7 2.169-7.472-0.342-21.083-19.133-42.339-38.076-63.512-57.109-4.527-4.076-9.417-7.781-13.981-13.116z" fill="#F5715A" /><path d="M515.912 880.724h-81.463c-16.294-0.01-25.083-11.276-21.053-27.056 1.927-7.546 3.3-15.392 11.022-19.826a20.333 20.333 0 0 1 10.335-3.12q81.463 0.026 162.926 0.058c7.991 0.013 14.359 3.769 17.473 11.125 3.2 7.557 6.624 15.4 4.142 24-2.787 9.656-9.767 14.8-19.92 14.81q-41.731 0.051-83.462 0.009z" fill="#5A6286" /><path d="M155.5 708.724l68.916-213.53 0.843 0.042c0.088 1.5 0.254 3 0.254 4.5q0.019 101.933 0.106 203.866c0.008 4.049-0.8 5.286-5.087 5.236-21.472-0.249-42.942-0.114-65.032-0.114zM785.207 495.687v4.354q0 101.727 0.12 203.454c0.012 4.519-1.2 5.383-5.463 5.336-21.148-0.234-42.3-0.107-64.329-0.107L784.4 495.515zM805.95 491.984l67.2 216.738c-22.131 0-43.782-0.02-65.432 0.034-1.966 0-2.736-0.669-2.524-2.589a18.31 18.31 0 0 0 0.01-2V492.045zM247.138 495.829q20.276 65.691 40.555 131.382c7.94 25.7 15.821 51.428 23.944 77.075 1.245 3.93 0.491 4.564-3.43 4.527-20.647-0.2-41.3-0.109-61.947-0.119a17.547 17.547 0 0 1-0.338-2.449q-0.027-103.262 0.014-206.524c0.001-1.34-0.753-3.085 1.202-3.892z" fill="#FEFEFE" /><path d="M234.309 728.724c26.829 0 53.659 0.088 80.486-0.095 4.031-0.027 4.832 1.124 3.944 4.79-2.758 11.385-10.54 18.626-19.971 24.468-13.258 8.213-27.944 12.308-43.253 14.328-25.358 3.346-50.17 1.406-74.066-8.31-9.507-3.865-18.162-9.069-24.92-17a32.749 32.749 0 0 1-6.912-13.681c-0.843-3.433-0.09-4.6 3.706-4.58 26.994 0.151 53.99 0.08 80.986 0.08z" fill="#FEE180" /><path d="M794.206 728.724c26.816 0 53.632 0.1 80.446-0.1 4.49-0.033 4.943 1.478 3.977 5.234-2.865 11.139-10.555 18.225-19.8 24-13.682 8.547-28.913 12.644-44.7 14.582-24.993 3.068-49.5 1.029-73.007-8.66-9.633-3.971-18.422-9.282-25.106-17.54a32.753 32.753 0 0 1-6.228-12.381c-1-3.744-0.515-5.272 3.98-5.239 26.806 0.204 53.622 0.104 80.438 0.104z" fill="#F5715A" /><path d="M516.158 473.717a42.993 42.993 0 1 1 0.348-85.986c23.491 0.078 42.738 19.538 42.694 43.167a43.14 43.14 0 0 1-43.042 42.819z" fill="#717B9A" /><path d="M247.138 495.829c-1.955 0.807-1.2 2.551-1.2 3.892q-0.056 103.262-0.014 206.524a17.547 17.547 0 0 0 0.338 2.449c-1.947-0.823-1.184-2.568-1.185-3.911q-0.056-105.225-0.022-210.45c0-0.827 0.1-1.654 0.2-3.275 1.232 1.861 2.083 3.074 1.883 4.771z" fill="#74767D" /><path d="M582.3 166.61c-0.359 9.062-4.876 20.965-11.087 32.291a108.659 108.659 0 0 1-38.129 40.715c-12.025 7.521-23.6 7.513-35.509-0.2-18.744-12.136-32.242-28.626-41.222-48.9-3.99-9.01-6.982-18.365-7.1-28.352-0.235-20.3 15.552-33.49 35.655-30.066a64.234 64.234 0 0 1 23.64 8.937c5.156 3.241 9.759 3.061 14.841-0.2 8.513-5.468 17.757-9.055 28.075-9.139 18.826-0.159 31.036 12.044 30.836 34.914z" fill="#F5715A" /></svg>