<?xml version="1.0" encoding="utf-8"?>
<!-- Generator: Adobe Illustrator 18.0.0, SVG Export Plug-In . SVG Version: 6.00 Build 0)  -->
<!DOCTYPE svg PUBLIC "-//W3C//DTD SVG 1.1//EN" "http://www.w3.org/Graphics/SVG/1.1/DTD/svg11.dtd">
<svg version="1.1" id="Layer_1" xmlns="http://www.w3.org/2000/svg" xmlns:xlink="http://www.w3.org/1999/xlink" x="0px" y="0px"
	 viewBox="0 0 512 512" enable-background="new 0 0 512 512" xml:space="preserve">
<g>
	<g>
		<g>
			<path fill="#E6E7E8" d="M474.4,268.9v-99h-41.6l0,0h-27.9c-2.1,0-4.1-0.5-6.1,0l0,0H291.4c-3.9,0-7.4,0-11.6,0H234
				c-6.5,0-12.5-0.7-16.9,3.5c-5.5-4.2-12.5-3.5-20.1-3.5h-38.6c-11.3,0-21.3,2.3-26.9,10.7c-0.3-0.4-0.5-0.7-0.8-1.1
				c-6.4-8-18.4-9.6-32.2-9.6H84.7l0,0H37.6l0,37.3l7.8,0l0,16.9l-7.8,0l0,40.6h4.5c-4.2,4.9-6.7,11.2-6.7,17.9v30.9
				c0,15.8,13.6,28.7,30.4,28.7h30.4c2.6,0,5.1-0.3,7.4-0.9v0.6l101.5,0.3v-1.5c2.8,0.8,5.8,1.2,8.9,1.2h23.7
				c5.5,0,10.6-1.3,15.1-3.7v3.9h62.3l0,0h87.6v-4.9c3.7,1.6,7.7,4.9,12,4.9h32.6c16.1,0,29.1-14.7,29.1-29.7v-33.4
				C476.6,275.5,475.8,272.1,474.4,268.9z M308.4,300.1h-0.8v-8.2h0.8V300.1z M301,251c0.2,0.3,0.4,0.6,0.7,0.9h-1.1
				C300.7,251.6,300.9,251.3,301,251z M384.4,252h-2.2c0.5-0.5,0.9-1.1,1.3-1.7C383.8,250.9,384.1,251.5,384.4,252z M340.1,211.3
				h3.9v6.6h-3.9V211.3z M176.1,265.5H188c-3.2,4.5-5.1,9.9-5.3,15.7L176.1,265.5z M174.3,211.7h6.7v8.8h-6.7V211.7z M133.3,264.8
				l-6.7,15.8c-0.5-6-2.8-11.4-6.6-15.8H133.3z M82.1,299.2h-2.2v-2.2h2.2V299.2z"/>
		</g>
	</g>
	<g>
		<g>
			<path fill="#414042" d="M400.8,169.7c1.3,0,2.7,0.2,4.1,0.2h27.9h41.6v99c1.4,3.2,2.1,6.6,2.1,10.2v33.4
				c0,15-13.1,29.7-29.1,29.7h-32.6c-4.3,0-8.3-3.3-12-4.9v4.9h-87.6h-62.3v-3.9c-4.5,2.3-9.6,3.7-15.1,3.7h-23.7
				c-3.1,0-6.1-0.4-8.9-1.2v1.5L103.7,342v-0.6c-2.4,0.6-4.9,0.9-7.4,0.9H65.8c-16.8,0-30.4-12.9-30.4-28.7v-30.9
				c0-6.8,2.5-13,6.7-17.9h-4.5l0-40.6l7.8,0l0-16.9l-7.8,0l0-37.3h47.1h13.8c13.7,0,25.8,1.6,32.2,9.6c0.3,0.3,0.5,0.7,0.8,1.1
				c5.6-8.3,15.6-10.7,26.9-10.7H197c2,0,3.9,0,5.8,0c5.4,0,10.3,0.4,14.3,3.5c3.3-3.1,7.5-3.5,12.1-3.5c1.5,0,3.1,0,4.8,0h45.8
				c4.2,0,8.1,0,11.6,0h107.4C399.5,169.8,400.2,169.7,400.8,169.7 M340.1,217.9h3.9v-6.6h-3.9V217.9 M174.3,220.5h6.7v-8.8h-6.7
				V220.5 M382.2,252h2.2c-0.3-0.5-0.6-1.1-0.9-1.7C383.1,250.9,382.7,251.5,382.2,252 M300.6,251.8h1.1c-0.2-0.3-0.4-0.6-0.7-0.9
				C300.9,251.3,300.7,251.6,300.6,251.8 M126.5,280.6l6.7-15.8h-13.3C123.7,269.2,126.1,274.6,126.5,280.6 M182.7,281.2
				c0.2-5.8,2.1-11.2,5.3-15.7h-11.9L182.7,281.2 M307.7,300.1h0.8v-8.2h-0.8V300.1 M79.9,299.2h2.2v-2.2h-2.2V299.2 M400.8,154
				c-1.2,0-2.3,0.1-3.4,0.2h-106h-11.6H234c-0.8,0-1.5,0-2.2,0c-0.9,0-1.7,0-2.5,0c-2.6,0-7.4,0-12.6,1.7
				c-5.6-1.7-10.8-1.7-13.9-1.7c-1,0-2,0-3,0c-0.9,0-1.8,0-2.8,0h-38.6c-4.8,0-16.5,0-27.2,5.9c-9.9-5.1-21.7-5.9-32.7-5.9H84.7
				H37.6c-4.2,0-8.1,1.7-11.1,4.6c-2.9,2.9-4.6,6.9-4.6,11.1l0,37.3c0,3.1,0.9,6,2.5,8.5c-1.6,2.4-2.5,5.3-2.5,8.5l0,40.6
				c0,1.2,0.1,2.3,0.4,3.4c-1.7,4.6-2.5,9.5-2.5,14.5v30.9c0,24.5,20.7,44.4,46.1,44.4h30.4c1.9,0,3.8-0.1,5.8-0.4
				c0.5,0.1,1.1,0.1,1.6,0.1l101.5,0.3c0,0,0,0,0,0c1.3,0,2.7-0.2,4-0.5c1.6,0.2,3.3,0.3,4.9,0.3h23.7c3.1,0,6.2-0.3,9.2-0.9
				c1.8,0.7,3.8,1.1,5.9,1.1h62.3h87.6c1.9,0,3.6-0.3,5.3-0.9c2,0.6,4.3,0.9,6.7,0.9h32.6c12,0,23.3-5,31.9-14.1
				c8.2-8.6,12.8-20,12.8-31.3v-33.4c0-4.5-0.7-8.8-2.1-13.1v-96.1c0-8.7-7-15.7-15.7-15.7h-41.6h-27.9c-0.2,0-0.5,0-0.8-0.1
				C403.3,154.1,402.1,154,400.8,154L400.8,154z"/>
		</g>
	</g>
	<g>
		<g>
			<path fill="#D04527" d="M298.2,212.2h-35.9V227h10.5v7.3h-26c-2.8,0-5-2.2-5-5v-26.9c0-2.8,2.2-5,5-5h27.3v8.2h14.8l0-8.2h0v-7
				c0-4.9-4-8.9-8.9-8.9H234c-5.5,0-10,4.5-10,10V240c0,5.5,4.5,10,10,10h44.8c5.5,0,10-4.5,10-10v-13h9.3V212.2z"/>
		</g>
	</g>
	<g>
		<g>
			<path fill="#D04527" d="M197,181.5h-38.6c-9.3,0-17,6.6-17,14.8v39.6c0,8.2,7.6,14.8,17,14.8H197c9.3,0,17-6.6,17-14.8v-39.6
				C213.9,188.1,206.3,181.5,197,181.5z M195.8,227.5c0,4.3-4,7.8-8.9,7.8h-18.5c-4.9,0-8.9-3.5-8.9-7.8v-22.9c0-4.3,4-7.8,8.9-7.8
				h18.5c4.9,0,8.9,3.5,8.9,7.8V227.5z"/>
		</g>
	</g>
	<g>
		<g>
			<path fill="#D04527" d="M108.9,221.9c4-0.9,7.2-2.5,9.5-4.8c3.6-3.6,5.4-8.4,5.4-14.5c0-5.3-1.6-9.9-4.7-13.8
				c-3.9-4.8-12.5-7.3-20.6-7.3l-28.6,0l0,0l-17.5,0l0,11l7.8,0l0,46.5l-7.8,0l0,11h7.8H78h5.8l0-11l-5.8,0l0-15.3h12.6l12.1,17.7
				l0,8.6h5.6h22.1h3.7l0-11l-12.2,0L108.9,221.9z M94.6,212.1l-16.6,0l0-17l16.6,0c3.7,0,6.4,0.8,8.1,2.3c1.8,1.7,2.7,3.7,2.7,6.1
				s-0.9,4.5-2.7,6.2C101.1,211.3,98.4,212.1,94.6,212.1z"/>
		</g>
	</g>
	<g>
		<g>
			<path fill="#D04527" d="M385.5,182.5h-35.6v12.6h9.1v35.3c0,1.4-1.2,2.6-2.6,2.6h-29.9c-1.4,0-2.6-1.2-2.6-2.6v-35.3h11.1v-12.6
				h-35.6v12.6h7.1v35.3c0,11,8.9,19.9,19.9,19.9h29.9c11,0,19.9-8.9,19.9-19.9v-35.3h9.1V182.5z"/>
		</g>
	</g>
	<g>
		<g>
			<polygon fill="#D04527" points="267.7,277 275.9,277 275.9,314.9 267.7,314.9 267.7,325.2 275.9,325.2 292.9,325.2 300.4,325.2 
				300.4,314.9 292.9,314.9 292.9,277 300.4,277 300.4,266.7 267.7,266.7 			"/>
		</g>
	</g>
	<g>
		<g>
			<polygon fill="#D04527" points="364.7,266.8 355.6,266.8 355.6,277.1 364.7,277.1 364.7,302.4 338,267 338,266.8 337.8,266.8 
				323.2,266.8 314.3,266.8 314.3,277.1 323.2,277.1 323.2,315 314.3,315 314.3,325.1 323.2,325.1 337.8,325.1 345.6,325.1 
				345.6,315 337.8,315 337.8,289.4 364.6,324.9 364.6,325.1 364.7,325.1 379.3,325.1 388.1,325.1 388.1,314.3 379.3,314.3 
				379.3,277.1 388.1,277.1 388.1,266.8 379.3,266.8 			"/>
		</g>
	</g>
	<g>
		<g>
			<path fill="#D04527" d="M447.5,266.7h-32.6c-7.9,0-14.3,5.6-14.3,12.5v33.4c0,6.9,6.4,12.5,14.3,12.5h32.6
				c7.9,0,14.3-5.6,14.3-12.5v-33.4C461.8,272.3,455.3,266.7,447.5,266.7z M444.9,304.5c0,3.2-3,5.9-6.7,5.9h-14
				c-3.7,0-6.7-2.6-6.7-5.9v-17.3c0-3.2,3-5.9,6.7-5.9h14c3.7,0,6.7,2.6,6.7,5.9V304.5z"/>
		</g>
	</g>
	<g>
		<g>
			<path fill="#D04527" d="M96.3,268.8H65.8c-8.6,0-15.6,6.2-15.6,13.9v30.9c0,7.7,7,13.9,15.6,13.9h30.4c8.6,0,15.6-6.2,15.6-13.9
				v-6.8H97v6.8c0,0.2-0.3,0.4-0.7,0.4H65.8c-0.4,0-0.7-0.3-0.7-0.4v-30.9c0-0.2,0.3-0.4,0.7-0.4h30.4c0.4,0,0.7,0.3,0.7,0.4v7.1
				h14.9v-7.1C111.8,275,104.8,268.8,96.3,268.8z"/>
		</g>
	</g>
	<g>
		<g>
			<path fill="#D04527" d="M161.2,268.2h-13.3L127,317.3h-8.5v1.9v7.9h4.3h15.3h7.7h3.6v-9.9h-6.7l1.9-4H165l1.5,4h-7v9.9h2.7h8
				h15.5h3.8h0.8v-9.9h-8.8L161.2,268.2z M147.3,305.2l7.1-18.8l7,18.8H147.3z"/>
		</g>
	</g>
	<g>
		<g>
			<path fill="#D04527" d="M214.1,327.2h23.7c9.2,0,16.7-6.8,16.7-15.1v-7c0-8.3-7.5-15.1-16.7-15.1h-23.7c-0.8,0-1.5-0.6-1.5-1.4
				v-6.5c0-0.8,0.7-1.4,1.5-1.4h23.7c0.8,0,1.5,0.6,1.5,1.4v4h15.2v-4c0-8.3-7.5-15.1-16.7-15.1h-23.7c-9.2,0-16.7,6.8-16.7,15.1
				v6.5c0,8.3,7.5,15.1,16.7,15.1h23.7c0.8,0,1.5,0.6,1.5,1.4v7c0,0.8-0.7,1.4-1.5,1.4h-23.7c-0.8,0-1.5-0.6-1.5-1.4v-3.9h-15.2v3.9
				C197.4,320.5,204.9,327.2,214.1,327.2z"/>
		</g>
	</g>
	<g>
		<g>
			<rect x="76.8" y="293.2" fill="#E6E7E8" width="9.3" height="9.9"/>
		</g>
	</g>
	<g>
		<g>
			<rect x="336.2" y="210.8" fill="#E6E7E8" width="9.3" height="9.9"/>
		</g>
	</g>
	<g>
		<g>
			<path fill="#E6E7E8" d="M384.1,257.1L384.1,257.1c-2.6,0-4.6-2.1-4.6-4.6v-0.6c0-2.6,2.1-4.6,4.6-4.6h0c2.6,0,4.6,2.1,4.6,4.6
				v0.6C388.7,255,386.6,257.1,384.1,257.1z"/>
		</g>
	</g>
	<g>
		<g>
			<path fill="#E6E7E8" d="M300.4,255.7L300.4,255.7c-2.6,0-4.6-2.1-4.6-4.6v-0.6c0-2.6,2.1-4.6,4.6-4.6h0c2.6,0,4.6,2.1,4.6,4.6
				v0.6C305.1,253.6,303,255.7,300.4,255.7z"/>
		</g>
	</g>
	<g>
		<g>
			<path fill="#E6E7E8" d="M307.6,303.2L307.6,303.2c-2.6,0-4.6-2.1-4.6-4.6v-3.9c0-2.6,2.1-4.6,4.6-4.6h0c2.6,0,4.6,2.1,4.6,4.6
				v3.9C312.3,301.1,310.2,303.2,307.6,303.2z"/>
		</g>
	</g>
	<g>
		<g>
			<path fill="#E6E7E8" d="M179.4,225.2h-3.2c-2.6,0-4.6-2.1-4.6-4.6v-8.4c0-2.6,2.1-4.6,4.6-4.6h3.2c2.6,0,4.6,2.1,4.6,4.6v8.4
				C184,223.1,181.9,225.2,179.4,225.2z"/>
		</g>
	</g>
	<g>
		<g>
			<g>
				<path fill="#D04527" d="M461.8,205.8v-16.3c0-3.7-3-6.6-6.6-6.6h-5.8l0,0h-40.7c-5.2,0-9.4,4.2-9.4,9.4v48.6
					c0,5.2,4.2,9.4,9.4,9.4h40.7l0,0h5.8c3.7,0,6.6-3,6.6-6.6v-14.6h-12.4v4.6c0,1.1-0.9,2-2,2h-29.1c-1.2,0-2.1-0.9-2.1-2.1v-9.1
					h27.7v-14.6h-27.7v-10.1c0-1.2,0.9-2.1,2.1-2.1h29.1c1.1,0,2,0.9,2,2v6.3H461.8z"/>
			</g>
		</g>
		<g>
			<g>
				<rect x="393.6" y="182.9" fill="#D04527" width="22.6" height="12.6"/>
			</g>
		</g>
		<g>
			<g>
				<rect x="393.6" y="237.6" fill="#D04527" width="22.6" height="12.6"/>
			</g>
		</g>
	</g>
</g>
</svg>
