<?xml version="1.0" encoding="utf-8"?>
<!-- Generator: Adobe Illustrator 18.0.0, SVG Export Plug-In . SVG Version: 6.00 Build 0)  -->
<!DOCTYPE svg PUBLIC "-//W3C//DTD SVG 1.1//EN" "http://www.w3.org/Graphics/SVG/1.1/DTD/svg11.dtd">
<svg version="1.1" id="Layer_1" xmlns="http://www.w3.org/2000/svg" xmlns:xlink="http://www.w3.org/1999/xlink" x="0px" y="0px"
	 viewBox="0 0 512 512" enable-background="new 0 0 512 512" xml:space="preserve">
<g>
	<g>
		<g>
			<path fill="#D04527" d="M346.3,224.6c-26.4-8.5-57.3-13.5-90.3-13.5c-37.6,0-72.5,6.4-101.1,17.3l-74.4,1.5v85.6
				c-0.3,2.3-0.5,4.6-0.5,7c0,52.5,78.8,95.1,176,95.1c97.2,0,176-42.6,176-95.1v-99.5L346.3,224.6z"/>
		</g>
	</g>
	<g>
		<g>
			<path fill="#414042" d="M432,222.9v69c-40.8,28.9-100.6,57.5-178,57.5c-95.6,0-147.5-33.7-173.5-60v-59.5l74.4-1.5
				c28.6-10.9,63.5-17.3,101.1-17.3c33,0,63.9,4.9,90.3,13.5L432,222.9z"/>
		</g>
	</g>
	<g>
		<g>
			<path fill="#F15A22" d="M432,222.9v69c-40.8,28.9-100.6,57.5-178,57.5c-95.6,0-147.5-33.7-173.5-60v-59.5l74.4-1.5
				c28.6-10.9,63.5-17.3,101.1-17.3c33,0,63.9,4.9,90.3,13.5L432,222.9z"/>
		</g>
	</g>
	<g>
		<g>
			<path fill="#414042" d="M256,426.1c-48.4,0-94.1-10.3-128.5-28.9c-36.2-19.5-56.1-46.1-56.1-74.8c0-2.5,0.2-5,0.5-7.5v-85
				c0-4.7,3.8-8.5,8.4-8.6l72.9-1.4c30.4-11.3,65.9-17.3,102.8-17.3c32.2,0,63.9,4.6,91.6,13.4l84.2-1.7c2.3-0.1,4.5,0.8,6.2,2.5
				c1.7,1.6,2.6,3.8,2.6,6.2v99.5c0,28.7-19.9,55.3-56.1,74.8C350.1,415.9,304.4,426.1,256,426.1z M89.1,238.3v77.1
				c0,0.4,0,0.8-0.1,1.1c-0.3,2-0.4,3.9-0.4,5.8c0,22.1,16.7,43.3,47,59.7c32,17.3,74.7,26.8,120.3,26.8s88.3-9.5,120.3-26.8
				c30.3-16.4,47-37.6,47-59.7v-90.7l-76.9,1.5c-0.9,0-1.9-0.1-2.8-0.4c-26.4-8.5-56.7-13-87.7-13c-35.4,0-69.3,5.8-98.1,16.7
				c-0.9,0.3-1.9,0.5-2.9,0.6L89.1,238.3z"/>
		</g>
	</g>
	<g>
		<g>
			<g>
				<path fill="#EDB940" d="M397,165.5c-13.9,4.8-29.2,10.1-45.5,15.7c-64.4,22.3-143.6,49.8-203.4,70.9
					c-17.3,6.1-32.9,11.6-46.2,16.3c30,29.3,87.7,49.1,154,49.1c97.2,0,176-42.6,176-95.1C432,201,419,181.3,397,165.5z"/>
			</g>
		</g>
		<g>
			<g>
				<path fill="#E6E6E6" d="M256,127.3c-97.2,0-176,42.6-176,95.1c0,16.7,8,32.4,22,46c13.3-4.7,28.9-10.2,46.2-16.3
					c59.9-21,139-48.5,203.4-70.9c16.3-5.6,31.6-11,45.5-15.7C364.9,142.3,313.7,127.3,256,127.3z"/>
			</g>
		</g>
	</g>
	<g>
		<g>
			<path fill="#414042" d="M256,326.1c-48.4,0-94.1-10.3-128.5-28.9c-36.2-19.5-56.1-46.1-56.1-74.8s19.9-55.3,56.1-74.8
				c34.5-18.6,80.1-28.9,128.5-28.9s94.1,10.3,128.5,28.9c36.2,19.5,56.1,46.1,56.1,74.8s-19.9,55.3-56.1,74.8
				C350.1,315.8,304.4,326.1,256,326.1z M256,135.9c-45.6,0-88.3,9.5-120.3,26.8c-30.3,16.4-47,37.6-47,59.7s16.7,43.3,47,59.7
				c32,17.3,74.7,26.8,120.3,26.8s88.3-9.5,120.3-26.8c30.3-16.4,47-37.6,47-59.7s-16.7-43.3-47-59.7
				C344.3,145.4,301.6,135.9,256,135.9z"/>
		</g>
	</g>
	<g>
		<g>
			<g>
				<path fill="#F15A22" d="M320.8,203.4l27.8-13.4c-0.2-0.1-0.3-0.2-0.5-0.2c-11.5-5.6-24.5-9.8-38.5-12.9l-16.3,17.5
					C303.3,196.5,312.6,199.5,320.8,203.4z"/>
			</g>
		</g>
		<g>
			<g>
				<path fill="#F15A22" d="M347.4,234.4l38.9,0c0-8.3-3.4-16.5-10-24.2l-36,7.3C345,222.8,347.4,228.6,347.4,234.4z"/>
			</g>
		</g>
		<g>
			<g>
				<path fill="#F15A22" d="M258.8,190.8l1.1-19.5c-16.2-0.2-32.5,1-48,3.7l13.9,18.6C236.4,191.7,247.6,190.7,258.8,190.8z"/>
			</g>
		</g>
		<g>
			<g>
				<path fill="#F15A22" d="M321.1,265.2c-0.2,0.1-0.3,0.2-0.5,0.2l28,13.5c11.5-5.6,20.3-12,26.6-18.9l-35.7-7.7
					C335.1,257,329,261.4,321.1,265.2z"/>
			</g>
		</g>
		<g>
			<g>
				<path fill="#F15A22" d="M301,293.8l-13.7-18.3c-10.7,1.8-22,2.6-33.3,2.4l-1.1,19.7C269.2,297.8,285.5,296.5,301,293.8z"/>
			</g>
		</g>
		<g>
			<g>
				<path fill="#F15A22" d="M193.9,265.2c-0.3-0.1-0.5-0.3-0.8-0.4L163.5,279c0.1,0.1,0.2,0.1,0.3,0.2c11.6,5.6,24.8,9.9,39,13
					l16.9-18.2C210.4,271.8,201.6,268.9,193.9,265.2z"/>
			</g>
		</g>
		<g>
			<g>
				<path fill="#F15A22" d="M193.3,203.9L164,189.7c-0.1,0-0.1,0.1-0.2,0.1c-11.5,5.6-20.4,12-26.7,18.8l38.1,8.2
					C179.5,212.1,185.5,207.7,193.3,203.9z"/>
			</g>
		</g>
		<g>
			<g>
				<path fill="#F15A22" d="M167.6,234.4l-41.9,0c0,8.3,3.3,16.6,10,24.4l38.7-7.8C169.9,245.7,167.6,240,167.6,234.4z"/>
			</g>
		</g>
		<g>
			<g>
				<path fill="none" d="M320.8,203.4l27.8-13.4c-0.2-0.1-0.3-0.2-0.5-0.2c-11.5-5.6-24.5-9.8-38.5-12.9l-16.3,17.5
					C303.3,196.5,312.6,199.5,320.8,203.4z"/>
			</g>
		</g>
		<g>
			<g>
				<path fill="none" d="M347.4,234.4l38.9,0c0-8.3-3.4-16.5-10-24.2l-36,7.3C345,222.8,347.4,228.6,347.4,234.4z"/>
			</g>
		</g>
		<g>
			<g>
				<path fill="#414042" d="M321.1,203.6c8.5,4.1,14.9,8.8,19.2,13.8l36-7.3c-6.3-7.3-15.5-14.1-27.7-20.1l-27.8,13.4
					C320.9,203.5,321,203.5,321.1,203.6z"/>
			</g>
		</g>
		<g>
			<g>
				<path fill="#414042" d="M293.4,194.4l16.3-17.5c-15.8-3.5-32.8-5.3-49.8-5.6l-1.1,19.5C270.6,190.9,282.4,192.1,293.4,194.4z"/>
			</g>
		</g>
		<g>
			<g>
				<path fill="#414042" d="M287.3,275.5l13.7,18.3c17.2-3.1,33.4-7.9,47.2-14.6c0.1-0.1,0.3-0.1,0.4-0.2l-28-13.5
					C310.8,270.1,299.4,273.4,287.3,275.5z"/>
			</g>
		</g>
		<g>
			<g>
				<path fill="#414042" d="M339.4,252.3l35.7,7.7c7.5-8.2,11.2-16.9,11.2-25.7l-38.9,0C347.4,240.5,344.7,246.6,339.4,252.3z"/>
			</g>
		</g>
		<g>
			<g>
				<path fill="none" d="M258.8,190.8l1.1-19.5c-16.2-0.2-32.5,1-48,3.7l13.9,18.6C236.4,191.7,247.6,190.7,258.8,190.8z"/>
			</g>
		</g>
		<g>
			<g>
				<path fill="none" d="M321.1,265.2c-0.2,0.1-0.3,0.2-0.5,0.2l28,13.5c11.5-5.6,20.3-12,26.6-18.9l-35.7-7.7
					C335.1,257,329,261.4,321.1,265.2z"/>
			</g>
		</g>
		<g>
			<g>
				<path fill="none" d="M301,293.8l-13.7-18.3c-10.7,1.8-22,2.6-33.3,2.4l-1.1,19.7C269.2,297.8,285.5,296.5,301,293.8z"/>
			</g>
		</g>
		<g>
			<g>
				<path fill="none" d="M193.9,265.2c-0.3-0.1-0.5-0.3-0.8-0.4L163.5,279c0.1,0.1,0.2,0.1,0.3,0.2c11.6,5.6,24.8,9.9,39,13
					l16.9-18.2C210.4,271.8,201.6,268.9,193.9,265.2z"/>
			</g>
		</g>
		<g>
			<g>
				<path fill="#414042" d="M193.9,203.6c9.3-4.5,20.2-7.8,31.8-10L211.8,175c-17.4,3-33.8,7.9-47.8,14.7l29.3,14.2
					C193.5,203.8,193.7,203.7,193.9,203.6z"/>
			</g>
		</g>
		<g>
			<g>
				<path fill="#414042" d="M174.4,251l-38.7,7.8c6.3,7.3,15.6,14.2,27.9,20.2l29.6-14.2C184.9,260.7,178.6,256,174.4,251z"/>
			</g>
		</g>
		<g>
			<g>
				<path fill="#414042" d="M219.7,273.9l-16.9,18.2c15.9,3.4,33,5.3,50.1,5.5l1.1-19.7C242.2,277.7,230.6,276.4,219.7,273.9z"/>
			</g>
		</g>
		<g>
			<g>
				<path fill="none" d="M193.3,203.9L164,189.7c-0.1,0-0.1,0.1-0.2,0.1c-11.5,5.6-20.4,12-26.7,18.8l38.1,8.2
					C179.5,212.1,185.5,207.7,193.3,203.9z"/>
			</g>
		</g>
		<g>
			<g>
				<path fill="#414042" d="M175.2,216.8l-38.1-8.2c-7.6,8.2-11.4,17-11.5,25.8l41.9,0C167.6,228.4,170.2,222.4,175.2,216.8z"/>
			</g>
		</g>
		<g>
			<g>
				<path fill="none" d="M167.6,234.4l-41.9,0c0,8.3,3.3,16.6,10,24.4l38.7-7.8C169.9,245.7,167.6,240,167.6,234.4z"/>
			</g>
		</g>
	</g>
	<g>
		<g>
			<path fill="none" d="M376.3,210.1c-6.3-7.3-15.5-14.1-27.7-20.1c-0.2-0.1-0.3-0.2-0.5-0.2c-11.5-5.6-24.5-9.8-38.5-12.9
				c-15.8-3.5-32.8-5.3-49.8-5.6c-16.2-0.2-32.5,1-48,3.7c-17.4,3-33.8,7.9-47.8,14.7c-0.1,0-0.1,0.1-0.2,0.1
				c-11.5,5.6-20.4,12-26.7,18.8c-7.6,8.2-11.4,17-11.5,25.8c0,8.3,3.3,16.6,10,24.4c6.3,7.3,15.6,14.2,27.9,20.2
				c0.1,0.1,0.2,0.1,0.3,0.2c11.6,5.6,24.8,9.9,39,13c15.9,3.4,33,5.3,50.1,5.5c16.3,0.2,32.6-1.1,48.1-3.8
				c17.2-3.1,33.4-7.9,47.2-14.6c0.1-0.1,0.3-0.1,0.4-0.2c11.5-5.6,20.3-12,26.6-18.9c7.5-8.2,11.2-16.9,11.2-25.7
				C386.3,226.1,382.9,217.9,376.3,210.1z M321.1,265.2c-0.2,0.1-0.3,0.2-0.5,0.2c-9.8,4.7-21.2,8-33.3,10.1
				c-10.7,1.8-22,2.6-33.3,2.4c-11.7-0.2-23.4-1.5-34.3-4c-9.3-2.1-18.1-5-25.8-8.7c-0.3-0.1-0.5-0.3-0.8-0.4
				c-8.3-4.1-14.5-8.8-18.8-13.8c-4.5-5.3-6.7-10.9-6.7-16.6c0-6,2.6-12,7.6-17.6c4.2-4.7,10.3-9.1,18.1-12.9
				c0.2-0.1,0.4-0.2,0.6-0.3c9.3-4.5,20.2-7.8,31.8-10c10.6-1.9,21.8-2.9,33-2.8c11.8,0.1,23.6,1.3,34.7,3.6
				c9.9,2.1,19.2,5.1,27.4,9c0.1,0,0.2,0.1,0.3,0.1c8.5,4.1,14.9,8.8,19.2,13.8c4.7,5.4,7.1,11.2,7.1,17c0,6.1-2.7,12.3-8,18
				C335.1,257,329,261.4,321.1,265.2z"/>
		</g>
	</g>
	<g>
		<g>
			<ellipse fill="#414042" cx="256.8" cy="117.4" rx="26.3" ry="31.5"/>
		</g>
	</g>
	<g>
		<g>
			<path fill="#414042" d="M265.5,129.1h-8.7h-8.7l-17,111c0,0,11.4,5,25.7,5c14.3,0,25.7-5,25.7-5L265.5,129.1z"/>
		</g>
	</g>
</g>
</svg>
