<?xml version="1.0" encoding="utf-8"?>
<!-- Generator: Adobe Illustrator 18.0.0, SVG Export Plug-In . SVG Version: 6.00 Build 0)  -->
<!DOCTYPE svg PUBLIC "-//W3C//DTD SVG 1.1//EN" "http://www.w3.org/Graphics/SVG/1.1/DTD/svg11.dtd">
<svg version="1.1" id="Layer_1" xmlns="http://www.w3.org/2000/svg" xmlns:xlink="http://www.w3.org/1999/xlink" x="0px" y="0px"
	 viewBox="0 0 512 512" enable-background="new 0 0 512 512" xml:space="preserve">
<g>
	<g>
		<g>
			<path fill="#D04527" d="M391.8,262.3c29.6-61.1,23.6-105.7,15.8-129.5c-2.2-6.8-6-12.8-10.8-17.6s-10.9-8.6-17.6-10.8
				c-23.8-7.8-68.4-13.8-129.5,15.8c-56.3,27.3-102.2,73.1-129.5,129.5c-29.6,61.1-23.6,105.7-15.8,129.5c2.2,6.8,6,12.8,10.8,17.6
				c4.9,4.9,10.9,8.6,17.6,10.8c23.8,7.8,68.4,13.8,129.5-15.8C318.7,364.5,364.5,318.7,391.8,262.3z"/>
		</g>
	</g>
	<g>
		<g>
			<path fill="#BB3826" d="M391.3,263.3c-27.3,55.9-73,101.3-129,128.5c-61.1,29.6-105.7,23.6-129.5,15.8c-6.8-2.2-12.8-6-17.6-10.8
				c-0.8-0.8-1.6-1.7-2.4-2.6c55.8-9.4,110.3-24.7,161.9-49.5c29.8-14.3,59.2-31,85.5-51.1C362.9,291.6,377.3,277.8,391.3,263.3z"/>
		</g>
	</g>
	<g>
		<g>
			<path fill="#414042" d="M174.7,422.6C174.7,422.6,174.7,422.6,174.7,422.6c-15.8,0-30.8-2.3-44.5-6.8c-7.9-2.6-15.2-7.1-21-12.9
				c-5.9-5.9-10.3-13.1-12.9-21c-9.2-27.8-13.8-74,16.3-135.9c28.1-58,75.5-105.4,133.5-133.5c31.6-15.3,62.3-23.1,91.4-23.1
				c15.8,0,30.8,2.3,44.5,6.8c7.9,2.6,15.2,7.1,21,12.9c5.9,5.9,10.3,13.1,12.9,21c9.2,27.8,13.8,74-16.3,135.9
				c-28.1,58-75.5,105.4-133.5,133.5C234.5,414.8,203.8,422.6,174.7,422.6z M337.3,106.6c-26.4,0-54.7,7.2-83.9,21.3
				c-54.5,26.4-99.1,71-125.5,125.5c-29,59.7-22.1,102.7-15.4,123.1c1.8,5.4,4.8,10.3,8.8,14.2c4,4,8.9,7,14.2,8.8
				c12,3.9,25.2,6,39.2,6c26.4,0,54.7-7.2,83.9-21.3c54.5-26.4,99.1-71,125.5-125.5c29-59.8,22.1-102.7,15.4-123
				c-1.8-5.4-4.8-10.3-8.8-14.2c-4-4-8.9-7-14.2-8.8C364.5,108.6,351.3,106.6,337.3,106.6z"/>
		</g>
	</g>
	<g>
		<g>
			<path fill="#E6E7E8" d="M243.3,400.1c-16.5,6.4-31.7,10.2-45.3,12.2c-14.7-32-41.4-57-41.4-57s-24.9-26.7-57-41.4
				c2-13.6,5.8-28.8,12.2-45.3c16,7.1,42.2,22.5,75.6,55.9S236.3,384.1,243.3,400.1z"/>
		</g>
	</g>
	<g>
		<g>
			<path fill="#E6E7E8" d="M403.3,234.6c-16.2-7.7-40.9-23.2-71.8-54.1s-46.4-55.6-54.1-71.8c17.1-5.9,32.6-8.9,46.4-10.1
				c15,29.2,38.5,51.1,38.5,51.1s21.9,23.5,51.1,38.5C412.3,201.9,409.2,217.4,403.3,234.6z"/>
		</g>
	</g>
	<g>
		<g>
			<path fill="#414042" d="M198,420.9c-3.3,0-6.4-1.9-7.8-5c-13.8-30.1-39.2-54-39.4-54.3c-0.1-0.1-0.3-0.3-0.4-0.4
				c-0.2-0.2-24.2-25.7-54.3-39.4c-3.5-1.6-5.5-5.3-4.9-9c2.2-15.3,6.5-31.2,12.7-47.2c0.9-2.2,2.6-3.9,4.7-4.8
				c2.2-0.9,4.6-0.9,6.7,0.1c16.7,7.4,43.9,23.3,78.2,57.6c34.3,34.3,50.3,61.5,57.6,78.2c0.9,2.1,1,4.6,0.1,6.7
				c-0.9,2.2-2.6,3.9-4.8,4.7c-16,6.2-31.8,10.5-47.2,12.7C198.9,420.9,198.4,420.9,198,420.9z M162.7,349.3
				c2.6,2.5,25.3,24.4,40.2,53.5c9.3-1.7,18.9-4.2,28.5-7.5c-8.1-15.5-22.9-37.6-50.1-64.7c-27.1-27.1-49.2-42-64.7-50.1
				c-3.3,9.6-5.8,19.2-7.5,28.5C138.3,323.9,160.2,346.6,162.7,349.3z"/>
		</g>
	</g>
	<g>
		<g>
			<path fill="#414042" d="M403.3,243.2c-1.3,0-2.5-0.3-3.7-0.8c-16-7.6-41.9-23.5-74.2-55.8c-32.3-32.3-48.1-58.1-55.8-74.2
				c-1.1-2.2-1.1-4.8-0.2-7c0.9-2.3,2.8-4,5.1-4.8c16.5-5.7,32.8-9.2,48.5-10.5c3.5-0.3,6.8,1.5,8.4,4.6
				c14.1,27.4,36.5,48.5,36.7,48.7c0.1,0.1,0.3,0.3,0.4,0.4c0.2,0.2,21.3,22.6,48.7,36.7c3.1,1.6,4.9,4.9,4.6,8.4
				c-1.3,15.7-4.9,32-10.5,48.5c-0.8,2.3-2.5,4.2-4.8,5.1C405.6,242.9,404.5,243.2,403.3,243.2z M289.8,113.8
				c8.3,14.8,22.8,35.5,47.9,60.6c25.1,25.1,45.8,39.6,60.6,47.9c2.9-9.9,4.9-19.7,6.1-29.2c-26.3-14.8-45.7-34.8-48-37.3
				c-2.4-2.3-22.5-21.7-37.3-48C309.4,108.8,299.7,110.9,289.8,113.8z"/>
		</g>
	</g>
	<g>
		<g>
			<path fill="#E6E7E8" d="M209.9,310.6c-2.2,0-4.4-0.8-6.1-2.5c-3.4-3.4-3.4-8.8,0-12.2l98.4-98.4c3.4-3.4,8.8-3.4,12.2,0
				c3.4,3.4,3.4,8.8,0,12.2L216,308.1C214.3,309.8,212.1,310.6,209.9,310.6z"/>
		</g>
	</g>
	<g>
		<g>
			<g>
				<path fill="#E6E7E8" d="M311.5,245.7c-2.2,0-4.4-0.8-6.1-2.5l-36.6-36.6c-3.4-3.4-3.4-8.8,0-12.2c3.4-3.4,8.8-3.4,12.2,0
					l36.6,36.6c3.4,3.4,3.4,8.8,0,12.2C315.9,244.8,313.7,245.7,311.5,245.7z"/>
			</g>
		</g>
		<g>
			<g>
				<path fill="#E6E7E8" d="M288.8,268.4c-2.2,0-4.4-0.8-6.1-2.5l-36.6-36.6c-3.4-3.4-3.4-8.8,0-12.2c3.4-3.4,8.8-3.4,12.2,0
					l36.6,36.6c3.4,3.4,3.4,8.8,0,12.2C293.2,267.5,291,268.4,288.8,268.4z"/>
			</g>
		</g>
		<g>
			<g>
				<path fill="#E6E7E8" d="M266.1,291.1c-2.2,0-4.4-0.8-6.1-2.5L223.4,252c-3.4-3.4-3.4-8.8,0-12.2c3.4-3.4,8.8-3.4,12.2,0
					l36.6,36.6c3.4,3.4,3.4,8.8,0,12.2C270.5,290.3,268.3,291.1,266.1,291.1z"/>
			</g>
		</g>
		<g>
			<g>
				<path fill="#E6E7E8" d="M243.4,313.8c-2.2,0-4.4-0.8-6.1-2.5l-36.6-36.6c-3.4-3.4-3.4-8.8,0-12.2c3.4-3.4,8.8-3.4,12.2,0
					l36.6,36.6c3.4,3.4,3.4,8.8,0,12.2C247.8,313,245.6,313.8,243.4,313.8z"/>
			</g>
		</g>
	</g>
</g>
</svg>
