<?xml version="1.0" encoding="utf-8"?>
<!-- Generator: Adobe Illustrator 23.0.3, SVG Export Plug-In . SVG Version: 6.00 Build 0)  -->
<svg version="1.1" id="Capa_1" xmlns="http://www.w3.org/2000/svg" xmlns:xlink="http://www.w3.org/1999/xlink" x="0px" y="0px"
	 viewBox="0 0 1200 1200" enable-background="new 0 0 1200 1200" xml:space="preserve">
<g>
	<path fill="#C8CDD4" d="M745.783,67.03c125.034,10.133,134.24,14.173,258.416,31.966c6.149,118.889,5.258,238.142-2.665,356.926
		c-3.563,53.423-8.577,106.936-20.412,159.154c-24.38,107.562-77.393,207.278-144.586,294.737
		c-67.819,88.274-149.91,164.681-236,235.233c-86.093-70.551-168.185-146.958-236.005-235.233
		c-67.193-87.459-120.206-187.176-144.585-294.737c-11.835-52.217-16.849-105.731-20.412-159.154
		c-7.826-117.33-8.792-235.117-2.89-352.56c130.89-21.652,262.642-38.097,394.838-49.285c3.59,0.268,7.179,0.539,10.768,0.813
		c1.147,0.088,2.293,0.176,3.44,0.264L745.783,67.03z"/>
	<path fill="#8E9196" d="M595.236,54.36v1086.306c-84.155-69.337-164.281-144.396-230.704-230.853
		c-67.193-87.459-120.206-187.176-144.586-294.737c-11.836-52.217-16.849-105.731-20.412-159.153
		c-7.826-117.33-8.791-235.117-2.89-352.56c130.89-21.652,262.641-38.097,394.838-49.285
		C592.733,54.17,593.984,54.266,595.236,54.36z"/>
	<path fill="#737575" d="M771.136,138.8c-5.51-5.777-11.02-11.554-16.53-17.331c5.511-5.028,11.021-10.056,16.53-15.083
		c5.51,5.028,11.02,10.056,16.53,15.083C782.156,127.246,776.646,133.023,771.136,138.8z M301.17,768.493
		c5.51,5.777,11.02,11.554,16.53,17.331c5.51-5.777,11.02-11.554,16.53-17.331c-5.51-5.028-11.02-10.056-16.53-15.084
		C312.19,758.437,306.68,763.465,301.17,768.493z M969.306,148.048c-5.509-5.028-11.02-10.056-16.53-15.084
		c-5.51,5.028-11.02,10.056-16.53,15.084c5.51,5.777,11.02,11.554,16.53,17.331C958.286,159.601,963.797,153.824,969.306,148.048z
		 M357.841,859.534c5.51,5.777,11.021,11.554,16.53,17.331c5.511-5.777,11.021-11.554,16.53-17.331
		c-5.51-5.028-11.02-10.056-16.53-15.084C368.861,849.478,363.351,854.506,357.841,859.534z M438.48,127.088
		c-5.51-5.028-11.02-10.056-16.53-15.084c-5.509,5.028-11.02,10.056-16.53,15.084c5.51,5.777,11.021,11.554,16.53,17.331
		C427.461,138.642,432.971,132.865,438.48,127.088z M254.58,667.758c5.51,5.777,11.02,11.554,16.53,17.331
		c5.51-5.777,11.02-11.554,16.53-17.331c-5.51-5.028-11.02-10.056-16.53-15.084C265.6,657.702,260.09,662.73,254.58,667.758z
		 M251.693,423.944c-5.51-5.028-11.02-10.056-16.53-15.083c-5.51,5.028-11.021,10.056-16.53,15.083
		c5.509,5.777,11.02,11.554,16.53,17.331C240.673,435.498,246.183,429.721,251.693,423.944z M265.377,147.975
		c-5.511-5.028-11.021-10.056-16.53-15.083c-5.51,5.028-11.02,10.056-16.53,15.083c5.51,5.777,11.02,11.554,16.53,17.331
		C254.357,159.529,259.867,153.752,265.377,147.975z M604.94,109.902c-5.51-5.028-11.02-10.056-16.53-15.083
		c-5.509,5.028-11.02,10.056-16.53,15.083c5.51,5.777,11.021,11.554,16.53,17.331C593.92,121.456,599.43,115.679,604.94,109.902z
		 M435.635,954.85c5.51,5.777,11.02,11.554,16.53,17.331c5.51-5.777,11.02-11.554,16.53-17.331
		c-5.51-5.028-11.02-10.056-16.53-15.083C446.655,944.794,441.145,949.822,435.635,954.85z M246.001,530.767
		c-5.51,5.028-11.02,10.056-16.53,15.084c5.51,5.777,11.02,11.554,16.53,17.331c5.51-5.777,11.02-11.554,16.53-17.331
		C257.021,540.823,251.511,535.795,246.001,530.767z M248.847,283.898c-5.51-5.028-11.02-10.056-16.53-15.083
		c-5.51,5.028-11.021,10.056-16.53,15.083c5.509,5.777,11.02,11.554,16.53,17.331C237.827,295.452,243.337,289.675,248.847,283.898z
		 M938.262,545.851c5.51,5.777,11.02,11.554,16.53,17.331c5.51-5.777,11.02-11.554,16.53-17.331
		c-5.511-5.028-11.021-10.056-16.53-15.084C949.282,535.795,943.772,540.823,938.262,545.851z M866.563,768.493
		c5.51,5.777,11.02,11.554,16.53,17.331c5.51-5.777,11.021-11.554,16.53-17.331c-5.51-5.028-11.021-10.056-16.53-15.084
		C877.583,758.437,872.073,763.465,866.563,768.493z M949.1,423.944c5.51,5.777,11.02,11.554,16.53,17.331
		c5.51-5.777,11.02-11.554,16.53-17.331c-5.51-5.028-11.02-10.056-16.53-15.083C960.12,413.889,954.61,418.916,949.1,423.944z
		 M913.154,667.758c5.51,5.777,11.02,11.554,16.53,17.331c5.509-5.777,11.02-11.554,16.53-17.331
		c-5.51-5.028-11.021-10.056-16.53-15.084C924.173,657.702,918.664,662.73,913.154,667.758z M1001.533,455.921
		c-3.563,53.423-8.576,106.936-20.412,159.154c-24.38,107.562-77.393,207.278-144.586,294.737
		c-67.818,88.273-149.909,164.681-236,235.233c-86.093-70.551-168.185-146.959-236.004-235.233
		c-67.193-87.459-120.206-187.176-144.586-294.737c-11.835-52.218-16.849-105.731-20.413-159.154
		c-7.825-117.33-8.791-235.117-2.89-352.56c130.89-21.652,262.642-38.097,394.838-49.285c3.59,0.268,7.179,0.539,10.768,0.814
		c1.147,0.088,2.294,0.175,3.44,0.264L745.783,67.03c125.034,10.133,134.24,14.173,258.415,31.966
		C1010.348,217.885,1009.456,337.137,1001.533,455.921z M988.515,118.444c-111.279-15.945-179.219-24.799-291.228-34.345
		l-105.521-8.823c-127.038,10.752-253.648,26.558-379.431,47.364c-5.672,112.881-4.744,226.091,2.778,338.863
		c3.425,51.347,8.243,102.782,19.619,152.97c23.433,103.383,74.386,199.225,138.968,283.286
		c65.185,84.845,144.087,158.284,226.836,226.094c82.745-67.811,161.647-141.25,226.831-226.094
		c64.582-84.061,115.535-179.903,138.968-283.286c11.376-50.188,16.194-101.623,19.619-152.97
		C993.569,347.333,994.426,232.713,988.515,118.444z M539.867,1051.598c5.511,5.777,11.021,11.554,16.53,17.331
		c5.51-5.777,11.02-11.554,16.53-17.331c-5.51-5.028-11.02-10.056-16.53-15.084C550.888,1041.542,545.378,1046.57,539.867,1051.598z
		 M951.946,283.898c5.51,5.777,11.02,11.554,16.53,17.331c5.51-5.777,11.02-11.554,16.53-17.331
		c-5.51-5.028-11.02-10.056-16.53-15.083C962.966,273.842,957.456,278.87,951.946,283.898z M810.169,859.534
		c5.51,5.777,11.02,11.554,16.531,17.331c5.509-5.777,11.02-11.554,16.53-17.331c-5.51-5.028-11.021-10.056-16.53-15.084
		C821.189,849.478,815.679,854.506,810.169,859.534z M732.099,954.85c5.51,5.777,11.02,11.554,16.53,17.331
		c5.51-5.777,11.02-11.554,16.53-17.331c-5.511-5.028-11.021-10.056-16.53-15.083C743.119,944.794,737.609,949.822,732.099,954.85z
		 M627.866,1051.598c5.51,5.777,11.02,11.554,16.531,17.331c5.51-5.777,11.02-11.554,16.53-17.331
		c-5.51-5.028-11.02-10.056-16.53-15.084C638.886,1041.542,633.376,1046.57,627.866,1051.598z M920.574,612.806
		c-20.501,90.409-65.08,174.225-121.583,247.737c-57.03,74.197-126.061,138.42-198.455,197.722
		c-72.397-59.3-141.429-123.524-198.459-197.722c-56.503-73.512-101.083-157.328-121.584-247.737
		c-9.953-43.891-14.168-88.871-17.165-133.775c-6.581-98.62-7.393-197.624-2.43-296.339
		c110.067-18.199,220.858-32.022,332.024-41.426c1.82,0.135,3.638,0.272,5.458,0.41l102.076,8.747
		c80.051,7.662,159.921,17.198,239.524,28.599c5.171,99.931,4.421,200.167-2.241,300.009
		C934.742,523.936,930.527,568.915,920.574,612.806z M905.398,611.988c9.481-41.828,13.497-84.694,16.351-127.488
		c6.346-95.15,7.061-190.676,2.135-285.911c-82.047-11.756-119.774-16.361-202.31-23.945L599.79,163.098
		c-2.169-0.165-4.338-0.328-6.507-0.49c-105.895,8.962-211.432,22.135-316.28,39.479c-4.727,94.077-3.954,188.428,2.316,282.414
		c2.854,42.794,6.87,85.66,16.351,127.488c19.529,86.161,61.994,166.038,115.819,236.096
		c54.325,70.711,120.085,131.917,189.048,188.43c68.962-56.515,134.72-117.72,189.045-188.43
		C843.404,778.026,885.869,698.149,905.398,611.988z M882.089,509.329c-15.007,19.674-36.967,33.932-61.046,39.633
		c10.799,23.775,10.279,52.387-1.282,75.785c-7.798-18.849-18.306-36.998-33.026-51.204c-13.341-12.876-30.345-22.38-48.718-24.862
		c0,0-13.059-1.765-26.464-3.576c0,0-38.524,0-75.451,0c0.001,37.889,0.001,75.45,0.001,75.45
		c2.181,16.142,3.576,26.464,3.576,26.464c1.062,7.86,3.408,15.469,6.754,22.648c4.476,9.603,10.74,18.436,18.108,26.07
		c14.207,14.72,32.355,25.228,51.205,33.026c-23.397,11.562-63.702,15.292-87.477,4.493c-5.701,24.079-18.118,42.829-37.792,57.836
		c-19.675-15.007-24.081-36.967-29.782-61.046c-23.634,10.735-52.048,10.285-75.368-1.083c8.258-1.547,15.76-6.203,22.93-10.743
		c7.55-4.781,15.279-9.725,20.593-16.909c4.312-5.829,6.771-12.787,9.17-19.63c3.449-9.837,6.897-19.674,10.347-29.513
		c0,0,0-43.115,0-107.06c-28.577-0.003-58.849-0.003-58.849-0.003c-16.142,2.181-26.464,3.576-26.464,3.576
		c-7.86,1.062-15.469,3.409-22.648,6.755c-9.603,4.475-18.436,10.739-26.07,18.107c-14.72,14.207-25.228,32.355-33.025,51.204
		c-11.562-23.398-12.082-52.01-1.283-75.785c-24.079-5.701-46.039-19.959-61.046-39.633c15.007-19.674,36.967-33.932,61.046-39.633
		c-10.735-23.634-10.285-52.048,1.083-75.368c1.547,8.258,6.203,15.76,10.743,22.93c4.78,7.549,9.726,15.278,16.909,20.593
		c5.83,4.312,12.787,6.771,19.63,9.17c9.837,3.449,19.674,6.898,29.512,10.347c0,0,34.588,0,87.752,0c0.898,0,1.801,0,2.709,0
		c0.002-28.903,0.002-59.449,0.002-90.464c-3.449-9.837-6.898-19.675-10.347-29.512c-2.399-6.843-4.858-13.801-9.17-19.63
		c-5.315-7.184-13.044-12.128-20.593-16.909c-7.17-4.54-14.671-9.195-22.932-10.72c23.322-11.391,51.736-11.841,75.37-1.106
		c5.701-24.079,10.107-46.039,29.782-61.046c19.674,15.007,32.091,36.967,37.792,61.046c23.775-10.799,64.08-10.279,87.477,1.283
		c-18.849,7.798-36.997,18.306-51.205,33.026c-12.875,13.341-22.379,30.344-24.862,48.718c0,0-1.765,13.059-3.576,26.464
		c0,19.616,0,39.233,0,58.849c33.676,0,70.037,0,107.065,0c9.837-3.449,19.675-6.898,29.512-10.347
		c6.842-2.399,13.8-4.858,19.63-9.17c7.184-5.315,12.128-13.044,16.909-20.593c4.54-7.17,9.195-14.672,10.72-22.932
		c11.391,23.323,11.841,51.736,1.106,75.37C845.122,475.397,867.082,489.654,882.089,509.329z M419.388,498.027
		c-3.928-3.928-10.297-3.928-14.225,0c-3.928,3.928-3.928,10.297,0,14.225c3.928,3.928,10.297,3.928,14.225,0
		C423.316,508.324,423.316,501.955,419.388,498.027z M483.663,505.139c0-5.555-4.503-10.058-10.058-10.058
		s-10.058,4.503-10.058,10.058s4.503,10.058,10.058,10.058S483.663,510.694,483.663,505.139z M600.534,683.339
		c0-5.555-4.503-10.058-10.059-10.058c-5.555,0-10.058,4.503-10.058,10.058c0,5.555,4.503,10.058,10.058,10.058
		C596.031,693.397,600.534,688.894,600.534,683.339z M600.534,622.01c0-5.555-4.503-10.058-10.059-10.058
		c-5.555,0-10.058,4.503-10.058,10.058c0,5.555,4.503,10.058,10.058,10.058C596.031,632.068,600.534,627.565,600.534,622.01z
		 M600.534,388.269c0-5.555-4.503-10.059-10.059-10.059c-5.555,0-10.058,4.504-10.058,10.059s4.503,10.058,10.058,10.058
		C596.031,398.327,600.534,393.824,600.534,388.269z M600.534,326.939c0-5.555-4.503-10.058-10.059-10.058
		c-5.555,0-10.058,4.503-10.058,10.058s4.503,10.058,10.058,10.058C596.031,336.998,600.534,332.495,600.534,326.939z
		 M717.404,505.139c0-5.555-4.503-10.058-10.058-10.058c-5.555,0-10.058,4.503-10.058,10.058s4.503,10.058,10.058,10.058
		C712.901,515.197,717.404,510.694,717.404,505.139z M778.733,505.139c0-5.555-4.503-10.058-10.058-10.058
		c-5.555,0-10.058,4.503-10.058,10.058s4.503,10.058,10.058,10.058C774.229,515.197,778.733,510.694,778.733,505.139z"/>
	<path fill="#585959" d="M373.944,901.187c-64.669-84.403-115.691-180.635-139.155-284.438
		c-11.391-50.392-16.216-102.036-19.645-153.592c-7.532-113.23-8.461-226.9-2.782-340.24
		c125.952-20.891,252.733-36.76,379.942-47.557l2.574,0.216V54.293c-0.953-0.072-1.906-0.145-2.859-0.217
		c-132.375,11.233-264.303,27.745-395.37,49.485c-5.909,117.921-4.943,236.186,2.894,353.993c3.568,53.64,8.588,107.371,20.44,159.8
		c24.412,107.999,77.497,208.121,144.781,295.935c66.276,86.499,146.175,161.633,230.115,231.045v-21.279
		C514.287,1056.397,437.582,984.244,373.944,901.187z M594.878,695.218v95.777c-1.258,1.047-2.543,2.08-3.867,3.092
		c-19.701-15.068-24.113-37.118-29.822-61.294c-23.666,10.779-52.118,10.327-75.47-1.088c8.269-1.553,15.781-6.228,22.961-10.786
		c7.56-4.8,15.299-9.765,20.621-16.978c4.318-5.853,6.78-12.839,9.182-19.71c3.453-9.877,6.907-19.754,10.361-29.633
		c0,0,0-43.29,0-107.495c-28.616-0.004-58.929-0.004-58.929-0.004c-16.164,2.19-26.5,3.59-26.5,3.59
		c-7.871,1.066-15.49,3.423-22.679,6.782c-9.616,4.494-18.461,10.783-26.105,18.181c-14.74,14.264-25.262,32.487-33.07,51.412
		c-11.577-23.493-12.098-52.221-1.285-76.093c-24.111-5.724-46.101-20.04-61.128-39.794c15.027-19.754,37.017-34.07,61.128-39.794
		c-10.749-23.73-10.299-52.259,1.085-75.674c1.549,8.292,6.211,15.824,10.757,23.023c4.787,7.58,9.739,15.34,16.932,20.677
		c5.837,4.33,12.804,6.798,19.657,9.207c9.85,3.463,19.701,6.926,29.552,10.389c0,0,34.635,0,87.87,0c0.899,0,1.803,0,2.713,0
		c0.002-29.02,0.002-59.691,0.002-90.831c-3.453-9.877-6.907-19.755-10.361-29.632c-2.402-6.871-4.864-13.857-9.182-19.71
		c-5.322-7.213-13.061-12.178-20.621-16.978c-7.179-4.559-14.691-9.233-22.963-10.763c23.354-11.437,51.806-11.889,75.472-1.111
		c5.709-24.177,10.121-46.226,29.822-61.294c1.324,1.012,2.609,2.062,3.867,3.136v86.903c-1.192-0.497-2.496-0.777-3.867-0.777
		c-5.563,0-10.072,4.522-10.072,10.099c0,5.578,4.509,10.099,10.072,10.099c1.371,0,2.676-0.28,3.867-0.777v42.934
		c-1.192-0.497-2.496-0.777-3.867-0.777c-5.563,0-10.072,4.522-10.072,10.1s4.509,10.099,10.072,10.099
		c1.371,0,2.676-0.28,3.867-0.777v216.046c-1.192-0.497-2.496-0.777-3.867-0.777c-5.563,0-10.072,4.522-10.072,10.099
		c0,5.578,4.509,10.099,10.072,10.099c1.371,0,2.676-0.28,3.867-0.777v42.934c-1.192-0.497-2.496-0.777-3.867-0.777
		c-5.563,0-10.072,4.522-10.072,10.099c0,5.578,4.509,10.099,10.072,10.099C592.382,695.995,593.686,695.716,594.878,695.218z
		 M419.693,499.831c-3.933-3.944-10.31-3.944-14.244,0c-3.933,3.944-3.933,10.338,0,14.282c3.933,3.944,10.311,3.944,14.244,0
		C423.627,510.17,423.627,503.775,419.693,499.831z M484.055,506.972c0-5.578-4.509-10.099-10.072-10.099
		c-5.563,0-10.072,4.522-10.072,10.099s4.509,10.099,10.072,10.099C479.546,517.072,484.055,512.55,484.055,506.972z
		 M411.782,851.311c-53.897-70.343-96.42-150.544-115.975-237.055c-9.493-41.998-13.515-85.038-16.373-128.006
		c-6.278-94.367-7.052-189.103-2.319-283.561c104.99-17.414,210.669-30.642,316.707-39.639c0.351,0.026,0.703,0.053,1.055,0.08
		v-21.4c-0.472-0.036-0.945-0.071-1.417-0.107c-111.315,9.442-222.256,23.321-332.471,41.594
		c-4.969,99.116-4.157,198.523,2.433,297.544c3,45.087,7.222,90.249,17.188,134.318c20.529,90.777,65.168,174.933,121.748,248.744
		c55.472,72.367,122.294,135.269,192.519,193.384v-21.841C528.091,980.047,464.546,920.176,411.782,851.311z"/>
	<path fill="#2F1E38" d="M989.487,114.918c-97.206-13.629-194.356-25.088-292.2-33.043c-0.463-0.038-0.822,0.076-1.133,0.245
		c-20.08-1.764-40.029-5.727-60.074-7.898c-12.302-1.332-24.682-2.196-37.013-3.228c-14.568-1.219-29.198,1.271-43.718,2.611
		C440.087,84.24,325.24,99.091,211.032,117.911c-2.172,0.358-3.502,2.734-3.6,4.729c-3.989,80.909-4.746,161.954-2.036,242.918
		c2.581,77.111,5.864,155.446,20.629,231.345c26.675,137.114,100.829,259.888,192.947,363.086
		c54.347,60.884,115.102,115.59,178.135,167.292c2.18,1.788,4.659,1.806,6.856,0c110.418-90.781,214.898-192.242,287.735-316.435
		c34.773-59.291,62.185-123.379,77.867-190.413c17.502-74.812,21.219-152.651,24.336-229.167
		c3.704-90.9,3.146-181.977-1.729-272.822C992.095,117.007,991.102,115.144,989.487,114.918z M227.948,548.523
		c5.211,5.691,10.47,11.337,15.723,16.99c1.203,1.294,3.449,1.238,4.66,0c5.438-5.557,10.816-11.171,16.201-16.778
		c1.89,14.818,4.13,29.576,6.863,44.233c4.627,24.823,11.052,49.105,19,72.824c-0.113-0.154-0.174-0.335-0.32-0.469
		c-5.49-5.047-10.916-10.175-16.544-15.069c-2.408-2.094-5.588-0.183-5.876,2.199c-4.679,4.082-9.357,8.166-14.032,12.253
		c-4.949-15.406-9.332-30.999-13.046-46.775C235.19,595.041,231.116,571.861,227.948,548.523z M265.618,186.875
		c105.833-17.334,212.184-30.268,318.967-40.089c19.919-1.832,40.739,1.109,60.661,2.275c18.011,1.054,36.127,1.647,54.104,3.149
		c0.307,0.218,0.659,0.392,1.106,0.437c42.841,4.339,85.556,9.594,128.285,14.91c20.117,2.503,40.221,5.123,60.307,7.866
		c10.187,1.392,20.37,2.814,30.547,4.267c3.169,0.453,11.546,0.131,13.877,1.999c5.506,4.412,3.634,13.378,3.897,19.965
		c3.31,83.017,2.707,166.161-2.054,249.111c-4.558,79.416-12.579,158.141-40.935,233.054c-26.653,70.412-67,135.256-114.544,193.407
		c-52.982,64.802-114.784,121.663-179.29,174.767c-94.359-77.891-183.671-164.654-246.294-270.745
		c-30.76-52.11-54.783-108.333-68.465-167.373c-15.272-65.897-18.42-134.503-21.13-201.881
		C261.64,336.977,262.052,261.864,265.618,186.875z M814.656,906.495c-62.547,78.743-136.643,147.321-214.12,211.096
		c-107.283-88.51-208.771-187.068-280.44-307.34c-25.584-42.934-47.149-88.363-63.209-135.682c3.958,4.29,7.919,8.575,11.892,12.85
		c1.203,1.294,3.449,1.238,4.66,0c5.584-5.705,11.104-11.47,16.635-17.226c0.616-0.642,0.958-1.525,0.984-2.409
		c11.032,32.529,24.968,63.977,41.241,94.242c-4.021-3.723-8.045-7.443-12.179-11.038c-2.408-2.093-5.588-0.183-5.876,2.198
		c-5.052,4.408-10.104,8.816-15.15,13.231c-1.231,1.076-1.013,3.043,0,4.15c5.39,5.894,10.837,11.735,16.275,17.586
		c1.203,1.294,3.449,1.238,4.66,0c5.584-5.705,11.104-11.47,16.635-17.226c0.119-0.123,0.176-0.289,0.274-0.429
		c28.449,51.166,63.485,98.884,102.295,142.633c48.05,54.164,101.944,102.707,157.871,148.564c2.182,1.79,4.662,1.808,6.861,0
		c96.256-79.143,187.357-167.514,251.077-275.639c3.019-5.123,5.956-10.299,8.846-15.503c0.088,0.12,0.136,0.266,0.239,0.373
		c5.531,5.756,11.051,11.521,16.635,17.226c1.212,1.238,3.456,1.296,4.66,0c5.438-5.851,10.885-11.692,16.276-17.586
		c1.015-1.111,1.237-3.068,0-4.15c-5.047-4.415-10.099-8.823-15.151-13.231c-0.288-2.381-3.467-4.292-5.875-2.198
		c-4.098,3.563-8.087,7.25-12.073,10.94c16.219-30.218,30.167-61.721,41.137-94.212c0.009,0.907,0.351,1.82,0.982,2.477
		c5.531,5.756,11.051,11.521,16.635,17.226c1.212,1.238,3.456,1.296,4.66,0c4.356-4.686,8.703-9.38,13.037-14.086
		c-0.115,0.341-0.214,0.686-0.33,1.028C916.103,758.833,869.986,836.837,814.656,906.495z M947.675,665.147
		c-4.843-4.236-9.689-8.466-14.537-12.695c-0.288-2.381-3.467-4.292-5.875-2.198c-5.628,4.894-11.054,10.022-16.544,15.069
		c-0.158,0.145-0.227,0.339-0.346,0.507c5.167-15.486,9.678-31.186,13.408-47.084c5.43-23.144,9.328-46.62,12.244-70.255
		c5.465,5.687,10.92,11.384,16.437,17.021c1.212,1.238,3.456,1.296,4.66,0c5.438-5.851,10.885-11.692,16.275-17.586
		c0.013-0.015,0.018-0.036,0.031-0.051C967.962,587.578,959.913,626.832,947.675,665.147z M985.787,388.455
		c-0.479,11.126-0.985,22.272-1.544,33.424c-0.003-0.003-0.003-0.007-0.007-0.01c-5.047-4.415-10.099-8.823-15.151-13.232
		c-0.288-2.381-3.467-4.292-5.875-2.198c-5.628,4.894-11.054,10.022-16.544,15.069c-1.389,1.277-1.247,3.572,0,4.87
		c5.531,5.756,11.051,11.521,16.635,17.226c1.212,1.238,3.456,1.296,4.661,0c5.365-5.774,10.74-11.54,16.06-17.354
		c-2.036,39.489-4.898,79.052-10.144,118.211c-0.132-0.242-0.257-0.49-0.48-0.686c-5.047-4.415-10.099-8.823-15.151-13.231
		c-0.288-2.381-3.467-4.292-5.875-2.198c-5.314,4.621-10.449,9.45-15.628,14.224c4.75-40.82,6.664-82.079,8.352-122.92
		c3.314-80.177,2.814-160.499-1.51-240.628c-0.076-1.415-1.054-3.254-2.646-3.476c-79.959-11.138-160.091-20.01-240.482-27.346
		c-0.472-0.043-0.834,0.073-1.149,0.245c-39.561-3.526-80.633-14.1-120.279-10.814c-106.944,8.867-213.566,22.903-319.434,40.332
		c-2.172,0.358-3.501,2.734-3.599,4.728c-3.483,70.788-4.154,141.691-1.779,212.528c1.639,48.881,3.645,98.283,9.505,147.045
		c-5.067-4.675-10.097-9.396-15.299-13.919c-2.407-2.093-5.588-0.183-5.876,2.198c-5.052,4.408-10.103,8.816-15.15,13.231
		c-0.029,0.025-0.035,0.062-0.062,0.088c-5.036-38.607-7.646-77.627-9.532-116.499c4.985,5.436,10.008,10.838,15.031,16.241
		c1.203,1.294,3.449,1.238,4.66,0c5.584-5.705,11.104-11.47,16.635-17.226c1.248-1.299,1.394-3.589,0-4.87
		c-5.49-5.047-10.916-10.176-16.544-15.069c-2.407-2.093-5.588-0.183-5.875,2.198c-4.737,4.133-9.475,8.268-14.207,12.407
		c-0.513-10.985-0.982-21.956-1.435-32.899c-1.412-34.063-2.194-68.147-2.391-102.233c0.015,0.018,0.022,0.042,0.037,0.06
		c5.39,5.894,10.838,11.735,16.275,17.586c1.203,1.294,3.449,1.238,4.66,0c5.584-5.705,11.104-11.47,16.635-17.226
		c1.248-1.299,1.394-3.589,0-4.87c-5.49-5.047-10.916-10.176-16.544-15.069c-2.407-2.093-5.588-0.183-5.875,2.198
		c-5.052,4.408-10.104,8.816-15.151,13.231c-0.019,0.017-0.022,0.042-0.04,0.058c-0.227-51.703,0.913-103.409,3.385-155.061
		c114.07-18.722,228.772-33.45,343.893-43.944c13.344-1.216,26.373-3.074,39.71-1.967c11.795,0.979,23.606,2.133,35.421,2.828
		c19.969,1.174,40.16,0.568,60.088,2.15c0.31,0.22,0.665,0.393,1.119,0.434c86.331,7.776,172.323,18.619,258.111,30.978
		c9.398,1.354,26.924-0.1,29.858,9.575c3.386,11.163,1.194,27.724,1.585,39.356c0.818,24.371,1.328,48.751,1.531,73.135
		C988.787,289.073,987.926,338.791,985.787,388.455z M287.617,597.564c22.184,114.214,83.976,216.5,160.622,302.514
		c45.384,50.931,96.194,96.636,148.878,139.854c2.173,1.783,4.646,1.801,6.835,0c68.042-55.979,133.349-116.813,187.329-186.563
		c1.961,0.401,4.222-0.691,4.408-3.388c0.059-0.865,0.1-1.733,0.156-2.598c12.552-16.538,24.502-33.547,35.656-51.141
		c0.687-0.446,1.2-1.118,1.335-2.035c0.009-0.06,0.011-0.122,0.02-0.181c3.497-5.561,6.948-11.155,10.29-16.828
		c29.194-49.565,52.247-103.161,65.401-159.255c14.509-61.866,17.71-126.171,20.327-189.452
		c3.169-76.613,2.661-153.336-1.478-229.902c-0.074-1.38-1.027-3.171-2.58-3.388c-43.798-6.111-87.588-11.369-131.486-15.931
		c-0.79-0.48-1.79-0.527-2.746-0.28c-21.923-2.263-43.874-4.359-65.868-6.287c-1.192-2.078-4.78-2.164-6.153-0.24
		c-39.487-3.902-78.645-10.777-118.229-14.206c-22.206-1.923-46.165,2.897-68.319,5.114c-28.756,2.877-57.479,6.067-86.165,9.565
		c-17.795,2.17-35.568,4.504-53.33,6.913c-1.315-0.754-3.246-0.556-4.223,0.584c-37.606,5.14-75.146,10.757-112.6,16.924
		c-2.172,0.357-3.503,2.735-3.601,4.729c-3.328,67.746-3.961,135.601-1.666,203.394C272.6,469.513,275.375,534.534,287.617,597.564z
		 M513.138,175.15c-1.405,12.597-1.924,26.048-0.347,38.644c0.52,4.164,5.969,4.173,6.492,0c1.596-12.763,1.047-26.407-0.4-39.15
		c-0.004-0.034-0.022-0.056-0.026-0.09c6.243-0.646,12.482-1.332,18.727-1.948c3.595-0.355,7.243-0.786,10.908-1.234
		c0.501,2.777,0.932,5.363,1.108,8.24c0.197,3.2,0.152,6.19,1.556,9.132c1.456,3.051,6.606,3.051,8.062,0
		c1.408-2.95,1.358-5.922,1.556-9.132c0.19-3.106,0.675-5.918,1.23-8.962c0.058-0.315,0.056-0.627,0.078-0.94
		c13.003-1.541,26.128-2.719,38.748-1.624c38.906,3.378,78.065,4.569,116.923,8.092c-1.278,10.962,0.074,22.762,0.264,33.7
		c0.08,4.577,7.034,4.585,7.114,0c0.184-10.58,1.465-21.965,0.396-32.612c20.686,2.04,41.337,4.274,61.974,6.674
		c-1.021,22.712,2.256,46.211,2.982,68.943c0.752,23.503,1.009,47.013,0.877,70.527c-0.018,3.269,4.967,3.257,5.069,0
		c0.763-24.442,1.109-48.894,0.911-73.348c-0.172-21.371,0.93-43.974-2.156-65.235c9.245,1.095,18.488,2.217,27.729,3.381
		c3.406,0.429,6.81,0.871,10.214,1.305c-1.235,0.008-2.464,0.674-2.676,2.003c-3.673,22.943-0.706,48.108-0.656,71.328
		c0.055,25.415,0.381,50.817,0.778,76.229c0.051,3.318,5.106,3.324,5.158,0c0.397-25.413,0.722-50.813,0.777-76.229
		c0.051-23.274,3.024-48.342-0.655-71.328c-0.172-1.074-1.014-1.696-1.981-1.907c11.51,1.468,23.017,2.96,34.513,4.547
		c7.762,1.072,15.52,2.168,23.277,3.278c7.555,1.081,24.257,0.123,28.972,6.757c1.798,2.529,0.588,13.614,0.713,16.811
		c0.182,4.67,0.349,9.341,0.503,14.013c0.34,10.278,0.627,20.557,0.852,30.838c0.449,20.563,0.636,41.132,0.562,61.699
		c-0.143,39.268-1.242,78.534-3.296,117.749c-4.025,76.862-10.505,153.671-36.844,226.574
		c-7.135,19.748-15.443,39.036-24.701,57.866c0.8-10.736,0.016-21.758-0.092-32.445c-0.047-4.692-7.245-4.699-7.292,0
		c-0.127,12.563-1.209,25.593,0.473,38.067c0.201,1.487,1.542,2.246,2.941,2.326c-6.614,12.971-13.696,25.706-21.183,38.205
		c-0.347-6.059-0.952-12.128-1.187-17.915c-0.149-3.66-5.542-3.666-5.691,0c-0.409,10.052-1.919,20.941-1.265,31.164
		c-8.972,14.228-18.457,28.134-28.394,41.694c2.491-57.979-1.2-116.762-1.441-174.648c-0.018-4.177-6.475-4.184-6.492,0
		c-0.258,61.797-4.449,124.616-0.847,186.387c-4.642,6.088-9.351,12.12-14.159,18.062c-6.918,8.55-14.01,16.946-21.237,25.217
		c2.245-35.827-0.796-72.412-0.908-108.301c-0.011-3.433-5.325-3.439-5.336,0c-0.114,36.329-3.25,73.375-0.845,109.62
		c0.134,2.024,1.508,3.092,3.001,3.302c-23.31,26.319-48.082,51.287-73.834,75.233c0.299-54.216,0.555-108.526-1.331-162.707
		c-0.117-3.374-5.129-3.38-5.247,0c-1.97,56.606-1.603,113.354-1.291,169.987c-21.534,19.706-43.706,38.728-66.218,57.274
		c-73.452-60.68-143.633-127.027-199.385-204.449c0.881-0.688,1.558-1.745,1.738-3.237c3.064-25.296,0.824-51.891,0.15-77.321
		c-0.684-25.779-1.809-51.534-2.151-77.321c-0.04-2.975-4.585-2.98-4.624,0c-0.342,25.788-1.468,51.542-2.151,77.321
		c-0.608,22.924-2.45,46.792-0.57,69.801c-9.15-13.196-17.916-26.683-26.164-40.547c-29.446-49.492-52.584-102.916-65.868-159.049
		c-14.903-62.98-17.991-128.584-20.631-193.037c-2.95-72.028-2.578-144.149,0.834-216.152c18.136-2.973,36.296-5.793,54.468-8.527
		c-3.438,41.039-2.131,84.702,1.091,125.671c0.26,3.314,4.896,3.32,5.158,0c3.249-41.323,4.564-85.399,1.013-126.749
		c14.432-2.145,28.874-4.211,43.328-6.199c-1.148,16.114,0.683,32.833,1.307,48.775c0.134,3.432,5.201,3.437,5.336,0
		c0.638-16.303,2.559-33.415,1.245-49.858c14.89-2.018,29.791-3.952,44.704-5.799c-1.183,7.324,1.214,15.168,1.835,22.379
		c0.265,3.085,4.536,3.09,4.802,0c0.651-7.564,3.248-15.797,1.633-23.419c2.181-0.265,4.357-0.561,6.539-0.823
		C473.815,179.369,493.472,177.213,513.138,175.15z M574.016,107.332c6.889-7.2,13.774-14.407,20.657-21.616
		c7.163,7.404,14.47,14.644,21.782,21.871c-6.906,8.002-13.8,16.014-20.657,24.067C588.555,123.528,581.304,115.41,574.016,107.332z
		 M424.371,109.584c-2.407-2.093-5.588-0.183-5.875,2.198c-5.053,4.408-10.104,8.816-15.151,13.231c-1.23,1.076-1.013,3.043,0,4.15
		c5.39,5.894,10.837,11.735,16.275,17.586c1.202,1.294,3.449,1.238,4.66,0c5.584-5.705,11.104-11.47,16.635-17.226
		c1.248-1.299,1.394-3.589,0-4.87C435.425,119.606,429.999,114.477,424.371,109.584z M251.268,130.471
		c-2.407-2.093-5.588-0.183-5.876,2.198c-5.052,4.408-10.104,8.816-15.15,13.231c-1.231,1.076-1.013,3.043,0,4.15
		c5.39,5.894,10.837,11.735,16.275,17.586c1.203,1.294,3.449,1.238,4.66,0c5.584-5.705,11.105-11.47,16.635-17.226
		c1.248-1.299,1.394-3.589,0-4.87C262.322,140.493,256.896,135.365,251.268,130.471z M376.792,842.029
		c-2.407-2.093-5.588-0.183-5.875,2.198c-5.053,4.408-10.104,8.816-15.151,13.231c-1.23,1.076-1.013,3.043,0,4.15
		c5.39,5.894,10.837,11.735,16.276,17.586c1.203,1.294,3.449,1.238,4.66,0c5.584-5.705,11.104-11.47,16.635-17.226
		c1.248-1.299,1.394-3.588,0-4.87C387.846,852.052,382.42,846.923,376.792,842.029z M830.153,844.227
		c-0.288-2.381-3.467-4.291-5.875-2.198c-5.628,4.894-11.054,10.022-16.544,15.069c-1.389,1.277-1.247,3.572,0,4.87
		c5.531,5.757,11.051,11.521,16.635,17.226c1.212,1.238,3.456,1.296,4.66,0c5.438-5.85,10.885-11.692,16.276-17.586
		c1.015-1.111,1.237-3.068,0-4.15C840.258,853.044,835.205,848.635,830.153,844.227z M454.586,937.346
		c-2.407-2.093-5.588-0.183-5.876,2.198c-5.052,4.408-10.103,8.816-15.15,13.231c-1.231,1.076-1.013,3.043,0,4.15
		c5.39,5.894,10.837,11.735,16.275,17.586c1.203,1.294,3.449,1.238,4.66,0c5.584-5.704,11.105-11.47,16.635-17.226
		c1.248-1.299,1.394-3.588,0-4.87C465.64,947.368,460.214,942.239,454.586,937.346z M558.818,1034.093
		c-2.407-2.093-5.588-0.183-5.875,2.199c-5.052,4.407-10.104,8.816-15.151,13.23c-1.23,1.077-1.013,3.043,0,4.15
		c5.39,5.894,10.838,11.735,16.275,17.586c1.203,1.294,3.449,1.238,4.66,0c5.584-5.704,11.104-11.47,16.635-17.226
		c1.248-1.299,1.394-3.588,0-4.87C569.872,1044.116,564.446,1038.987,558.818,1034.093z M971.93,268.592
		c-0.288-2.381-3.467-4.292-5.875-2.198c-5.628,4.894-11.054,10.022-16.544,15.069c-1.389,1.277-1.247,3.572,0,4.87
		c5.531,5.756,11.051,11.521,16.635,17.226c1.212,1.238,3.456,1.296,4.661,0c5.438-5.85,10.884-11.692,16.275-17.586
		c1.015-1.111,1.237-3.068,0-4.15C982.035,277.408,976.983,273,971.93,268.592z M752.083,939.544
		c-0.288-2.381-3.467-4.292-5.875-2.198c-5.627,4.894-11.053,10.022-16.544,15.069c-1.389,1.277-1.247,3.572,0,4.87
		c5.531,5.756,11.051,11.521,16.635,17.226c1.212,1.238,3.456,1.296,4.66,0c5.438-5.85,10.885-11.692,16.276-17.586
		c1.015-1.111,1.237-3.068,0-4.15C762.188,948.36,757.135,943.952,752.083,939.544z M647.85,1036.292
		c-0.288-2.381-3.467-4.292-5.875-2.198c-5.628,4.894-11.054,10.022-16.544,15.069c-1.389,1.277-1.247,3.572,0,4.87
		c5.531,5.756,11.051,11.521,16.635,17.226c1.212,1.238,3.456,1.296,4.661,0c5.438-5.85,10.884-11.692,16.275-17.586
		c1.015-1.11,1.237-3.068,0-4.15C657.955,1045.108,652.903,1040.7,647.85,1036.292z M774.591,106.163
		c-0.288-2.381-3.467-4.292-5.875-2.198c-5.628,4.894-11.054,10.022-16.544,15.069c-1.389,1.277-1.247,3.572,0,4.87
		c5.531,5.756,11.052,11.521,16.635,17.226c1.212,1.238,3.456,1.296,4.66,0c5.438-5.851,10.884-11.692,16.275-17.586
		c1.016-1.11,1.237-3.068,0-4.15C784.695,114.98,779.643,110.571,774.591,106.163z M955.106,167.709
		c5.438-5.85,10.885-11.692,16.275-17.586c1.016-1.111,1.237-3.068,0-4.15c-5.047-4.415-10.099-8.823-15.151-13.231
		c-0.288-2.381-3.467-4.292-5.875-2.198c-5.628,4.894-11.054,10.022-16.544,15.069c-1.389,1.277-1.248,3.572,0,4.87
		c5.531,5.756,11.051,11.521,16.635,17.226C951.658,168.947,953.902,169.005,955.106,167.709z M385.916,393.002
		c-1.011-3.864-7.289-5.208-9.116-1.191c-10.902,23.975-12.377,49.985-3.435,74.562c-22.983,7.047-42.814,20.474-57.888,39.456
		c-1.812,2.282-1.837,4.701,0,7.001c15.151,18.976,35.064,32.361,58.107,39.359c-9,24.707-7.489,50.916,3.621,74.955
		c1.403,3.036,6.849,3.183,8.201,0c14.933-35.158,39.306-67.595,79.24-74.084c26.346-4.281,52.636-3.553,79.233-3.479
		c0.02,31.609,0.04,63.218,0.061,94.827c0.007,11.162-4.739,20.623-8.443,31.184c-3.752,10.699-7.168,21.211-15.77,29.137
		c-9.451,8.709-23.351,16.831-35.561,20.039c-3.365,0.884-4.548,6.36-1.039,7.951c24.189,10.97,49.885,11.999,74.514,3.079
		c5.304,22.076,11.458,43.266,29.823,58.303c1.933,1.583,4.068,1.564,6.018,0c18.938-15.182,31.007-35.465,37.628-58.467
		c27.179,10.036,60.642,8.722,86.726-3.287c2.659-1.224,2.778-5.987,0-7.169c-36.759-15.642-68.581-40.897-74.675-82.516
		c-4.537-30.982-3.171-62.298-3.071-93.571c30.742-0.142,61.564-1.54,92.035,2.743c42.466,5.968,68.21,37.211,84.29,74.866
		c1.105,2.586,5.543,2.482,6.684,0c11.196-24.349,12.192-50.354,3.001-75.188c23.331-6.906,43.406-20.341,58.654-39.515
		c1.383-1.738,1.398-3.582,0-5.335c-15.284-19.169-35.399-32.586-58.763-39.452c9.289-24.591,8.081-50.69-2.883-74.738
		c-1.344-2.947-5.973-1.995-6.717,0.878c-3.954,15.266-15.642,35.395-29.545,43.739c-13.907,8.347-35.988,15.85-52,16.676
		c-31.568,1.63-63.624,0.195-95.271,0.122c-0.214-29.772-2.512-61.002,5.183-89.993c9.378-35.329,40.785-57.114,72.634-70.761
		c2.179-0.934,2.101-4.684,0-5.645c-26.382-12.065-59.77-12.861-87.036-2.563c-6.557-23.293-18.631-43.76-37.788-59.038
		c-1.349-1.075-2.833-1.116-4.19,0c-8.838,7.274-15.302,15.807-19.916,26.278c-2.614,5.934-6.428,30.606-11.239,32.362
		c-3.438,1.254-15.623-4.476-19.901-5.07c-5.54-0.77-11.128-1.099-16.721-0.864c-12.825,0.538-25.001,3.901-36.635,9.223
		c-2.149,0.983-1.461,4.366,0.641,4.908c14.789,3.811,32.773,14.37,41.974,26.712c8.536,11.449,13.974,29.409,17.649,43.215
		c1.898,7.131,2.298,77.535,1.649,90.386c-0.078-0.004-0.147-0.024-0.229-0.025c-27.582-0.276-55.935,1.399-83.451-0.588
		c-11-0.794-22.108-6.369-32.494-10.183C407.735,434.171,391.917,415.94,385.916,393.002z M458.023,462.314
		c8.115,1.104,17.275,0.006,25.422-0.01c20.735-0.041,41.473-0.372,62.206-0.58c1.891-0.019,3.13-1.017,3.746-2.324
		c0.743-0.391,1.279-1.155,1.281-2.033c0.038-19.284,0.074-38.568,0.111-57.851c0.018-9.798,0.989-20.134,0.056-29.878
		c-0.759-7.935-4.306-15.511-6.944-23.081c-4.673-13.408-8.431-27.247-19.237-37.151c-8.816-8.08-20.028-15.257-31.548-19.562
		c21.56-7.922,44.692-7.464,66.145,1.627c1.596,0.677,3.693,0.272,4.16-1.692c5.142-21.633,10.033-42.69,27.097-57.905
		c17.996,15.271,28.968,35.058,34.757,57.977c0.373,1.475,2.286,2.806,3.814,2.165c23.747-9.949,53.822-10.624,78.384-1.584
		c-28.371,13.13-54.702,32.827-66.373,62.889c-12.488,32.168-8.46,70.38-8.497,104.046c-0.002,1.891,1.603,3.494,3.497,3.496
		c21.027,0.023,42.054,0.045,63.08,0.068c19.575,0.021,38.668,2.11,57.242-4.389c14.016-4.903,30.677-8.551,41.876-18.962
		c9.117-8.476,17.035-20.503,21.922-32.642c6.934,20.561,6.199,42.524-2.396,62.876c-0.905,2.142-0.342,4.805,2.227,5.472
		c22.85,5.932,41.979,18.15,57.073,36.038c-15.113,17.863-34.248,30.052-57.099,35.953c-1.811,0.468-3.463,2.809-2.668,4.699
		c8.913,21.189,9.797,43.707,2.218,65.014c-16.157-34.024-42.021-63.862-81.099-70.195c-33.918-5.498-68.099-3.681-102.376-3.703
		c-2.17-0.001-4.009,1.839-4.011,4.011c-0.021,34.335-1.961,68.645,3.606,102.622c6.357,38.796,35.797,64.562,69.518,80.771
		c-24.019,8.181-52.925,7.153-75.829-2.51c-2.073-0.875-4.671,0.958-5.177,2.939c-5.7,22.329-16.319,41.581-33.653,56.572
		c-16.139-15.041-20.766-35.535-25.716-56.597c-0.483-2.054-3.198-3.884-5.29-3.004c-20.031,8.43-41.268,9.672-61.549,3.298
		c14.603-6.134,29.419-16.611,37.014-29.295c5.787-9.664,8.725-21.268,12.427-31.805c1.995-5.681,4.628-11.346,5.341-17.301
		c1.292-10.782,0.015-22.515,0.022-33.352c0.015-24.112,0.031-48.224,0.047-72.336c0.001-2.427-2.057-4.484-4.487-4.486
		c-30.532-0.028-61.114-1.702-91.221,4.411c-35.843,7.277-60.121,36.242-75.494,67.684c-6.579-20.055-5.813-41.498,2.564-61.306
		c1.18-2.791,0.443-6.258-2.9-7.128c-22.313-5.809-40.975-17.651-55.825-34.945c14.885-17.244,33.568-29.021,55.869-34.804
		c3.46-0.897,4.216-4.487,2.998-7.371c-7.946-18.828-8.993-39.165-3.372-58.352c5.734,12.895,14.77,25.756,25.267,33.328
		c7.643,5.514,16.949,8.298,25.738,11.385C440.119,456.381,449.438,461.146,458.023,462.314z M590.475,340.24
		c3.484-0.329,6.666-2.07,8.759-4.542c2.163-2.431,3.265-5.627,3.275-8.759c0.006-3.142-1.161-6.311-3.319-8.715
		c-2.139-2.407-5.286-4.07-8.715-4.359c-3.411-0.315-7.101,0.822-9.823,3.25c-2.725,2.399-4.464,6.076-4.482,9.824
		c-0.074,3.736,1.551,7.535,4.332,9.974C583.204,339.444,587.016,340.592,590.475,340.24z M590.475,401.57
		c3.484-0.329,6.666-2.07,8.759-4.542c2.163-2.431,3.265-5.626,3.275-8.759c0.006-3.142-1.161-6.311-3.319-8.715
		c-2.139-2.407-5.286-4.07-8.715-4.359c-3.411-0.315-7.101,0.822-9.823,3.25c-2.725,2.399-4.464,6.076-4.482,9.824
		c-0.074,3.736,1.551,7.535,4.332,9.975C583.204,400.773,587.016,401.921,590.475,401.57z M590.475,635.31
		c3.484-0.329,6.666-2.07,8.759-4.542c2.163-2.43,3.265-5.627,3.275-8.759c0.006-3.142-1.161-6.311-3.319-8.715
		c-2.139-2.407-5.286-4.07-8.715-4.359c-3.411-0.315-7.101,0.822-9.823,3.25c-2.725,2.399-4.464,6.076-4.482,9.824
		c-0.074,3.736,1.551,7.535,4.332,9.974C583.204,634.514,587.016,635.662,590.475,635.31z M590.475,696.64
		c3.484-0.329,6.666-2.07,8.759-4.542c2.163-2.431,3.265-5.627,3.275-8.759c0.006-3.142-1.161-6.311-3.319-8.715
		c-2.139-2.407-5.286-4.07-8.715-4.359c-3.411-0.315-7.101,0.822-9.823,3.25c-2.725,2.399-4.464,6.076-4.482,9.824
		c-0.074,3.736,1.551,7.535,4.332,9.974C583.204,695.843,587.016,696.991,590.475,696.64z M398.383,505.139
		c-0.231,3.622,1.141,7.453,3.777,10.116c2.589,2.695,6.426,4.231,10.116,3.99c3.701-0.123,7.208-2.006,9.405-4.701
		c2.231-2.697,3.25-6.177,2.982-9.405c-0.189-3.248-1.67-6.287-3.878-8.509c-2.218-2.226-5.283-3.642-8.509-3.815
		c-3.215-0.19-6.616,0.86-9.244,3.08C400.396,498.084,398.591,501.498,398.383,505.139z M473.605,518.44
		c3.484-0.329,6.665-2.07,8.758-4.542c2.163-2.431,3.265-5.627,3.275-8.759c0.006-3.142-1.16-6.311-3.319-8.715
		c-2.139-2.407-5.286-4.07-8.715-4.359c-3.411-0.315-7.102,0.822-9.824,3.25c-2.725,2.399-4.464,6.076-4.483,9.824
		c-0.074,3.736,1.551,7.535,4.332,9.974C466.334,517.643,470.145,518.792,473.605,518.44z M707.345,518.44
		c3.484-0.329,6.665-2.07,8.758-4.542c2.163-2.431,3.265-5.627,3.275-8.759c0.006-3.142-1.16-6.311-3.319-8.715
		c-2.139-2.407-5.286-4.07-8.715-4.359c-3.411-0.315-7.102,0.822-9.823,3.25c-2.725,2.399-4.464,6.076-4.483,9.824
		c-0.074,3.736,1.551,7.535,4.332,9.974C700.074,517.643,703.886,518.792,707.345,518.44z M768.674,518.44
		c3.484-0.329,6.666-2.07,8.759-4.542c2.163-2.431,3.265-5.627,3.275-8.759c0.006-3.142-1.161-6.311-3.319-8.715
		c-2.139-2.407-5.286-4.07-8.715-4.359c-3.411-0.315-7.101,0.822-9.824,3.25c-2.725,2.399-4.464,6.076-4.482,9.824
		c-0.074,3.736,1.551,7.535,4.332,9.974C761.403,517.643,765.215,518.792,768.674,518.44z M878.354,318.521
		c-0.147-35.391-1.886-71.411,1.201-106.683c0.286-3.262,4.784-3.256,5.069,0c3.087,35.27,1.348,71.294,1.201,106.683
		c-0.147,35.575-1.274,71.119-1.423,106.684c-0.013,2.98-4.612,2.975-4.624,0C879.629,389.64,878.502,354.096,878.354,318.521z
		 M604.879,857.812c0.272,27.836,4.437,57.452,0.418,85.035c-0.452,3.101-5.808,3.099-6.26,0
		c-4.019-27.584,0.145-57.199,0.418-85.035C599.488,854.316,604.845,854.322,604.879,857.812z M552.07,895.983
		c0.05,27.33,2.422,56.064-0.622,83.194c-0.591,5.261-7.592,5.25-8.181,0c-3.048-27.155-0.673-55.835-0.622-83.194
		c0.051-27.704,0.01-55.538,1.734-83.194c0.239-3.837,5.719-3.83,5.958,0C552.06,840.446,552.018,868.277,552.07,895.983z
		 M505.669,771.682c0.179,36.967,2.573,74.693,0.133,111.577c-0.295,4.466-6.642,4.458-6.936,0
		c-2.44-36.883-0.045-74.609,0.133-111.577C499.02,767.383,505.648,767.39,505.669,771.682z M428.17,601.379
		c0.401,37.778,1.731,75.772,0.4,113.535c-0.117,3.323-5.04,3.317-5.158,0c-1.33-37.763,0-75.757,0.4-113.535
		C423.843,598.571,428.141,598.576,428.17,601.379z M301.066,315.584c1.49,58.37,4.314,115.908,0.445,174.217
		c-0.235,3.55-5.278,3.544-5.513,0c-3.869-58.31-1.045-115.848,0.445-174.217C296.518,312.605,300.99,312.61,301.066,315.584z
		 M421.99,415.417c-2.049-17.261,0.357-35.535,1.156-52.852c0.169-3.666,5.523-3.66,5.691,0c0.8,17.322,3.206,35.593,1.156,52.852
		C429.382,420.563,422.6,420.552,421.99,415.417z M579.976,196.898c-1.642-8.487-0.535-17.585-0.23-26.168
		c0.13-3.667,5.561-3.661,5.691,0c0.305,8.58,1.412,17.682-0.23,26.168C584.706,199.487,580.478,199.486,579.976,196.898z
		 M756.232,215.752c-0.736-9.275-1.238-18.121-0.756-27.405c0.22-4.239,6.361-4.231,6.581,0c0.482,9.292-0.019,18.119-0.756,27.405
		C761.042,219.015,756.491,219.009,756.232,215.752z M1007.73,99.216c-0.075-1.388-1.033-3.185-2.593-3.405
		c-86.503-12.178-172.208-24.054-259.354-30.785c-0.452-0.035-0.806,0.075-1.114,0.237c-14.736-1.384-29.348-5.348-44.204-6.67
		c-25.474-2.267-50.961-4.397-76.445-6.558c-5.952-0.505-11.902-1.031-17.856-1.514c-21.675-1.759-43.313,1.339-64.932,3.388
		c-54.877,5.2-109.668,11.307-164.343,18.317c-60.673,7.779-121.195,16.677-181.55,26.625c-2.174,0.358-3.504,2.735-3.602,4.731
		c-4.094,82.967-4.915,166.072-2.236,249.1c2.605,80.72,5.925,162.76,21.176,242.244c27.37,142.643,103.922,270.349,199.47,377.887
		c56.929,64.073,120.794,121.556,186.989,175.851c2.162,1.773,4.619,1.79,6.797,0c115.26-94.752,224.389-200.737,300.144-330.552
		c35.814-61.373,63.974-127.54,80.157-196.841c18.199-77.936,22.085-159.012,25.331-238.715
		C1013.411,288.138,1012.785,193.574,1007.73,99.216z M1002.313,362.729c-3.809,102.613-8.617,207.678-40.506,306.05
		C932.774,758.339,884.9,840.984,826.96,914.871c-65.758,83.856-144.331,156.626-226.424,224.186
		c-112.126-92.48-218.235-195.594-292.84-321.475c-36.674-61.879-65.406-128.657-81.893-198.785
		c-18.482-78.614-22.283-160.506-25.555-240.935c-3.592-88.271-3.194-176.661,0.891-264.905c0.489-0.634,0.979-1.267,1.468-1.901
		c0.841-1.09-0.092-2.567-1.255-2.947c0.006-0.116,0.009-0.231,0.015-0.347C307.669,90.309,414.498,76.18,521.703,65.59
		c32.167-3.178,63.762-7.038,95.981-4.307c23.532,1.994,47.06,4.053,70.599,5.959c18.764,1.519,37.744,0.33,56.377,1.799
		c0.31,0.219,0.666,0.392,1.122,0.431c70.063,6.002,139.331,15.368,208.829,25.901c10.04,1.522,20.082,3.03,30.127,4.52
		c5.169,0.767,13.182,0.015,16.2,4.984c2.523,4.156,0.791,17.855,0.98,22.652c1.007,25.488,1.719,50.99,2.113,76.495
		C1004.849,256.929,1004.275,309.854,1002.313,362.729z"/>
</g>
</svg>
