<?xml version="1.0" encoding="utf-8"?>
<!-- Generator: Adobe Illustrator 18.0.0, SVG Export Plug-In . SVG Version: 6.00 Build 0)  -->
<!DOCTYPE svg PUBLIC "-//W3C//DTD SVG 1.1//EN" "http://www.w3.org/Graphics/SVG/1.1/DTD/svg11.dtd">
<svg version="1.1" id="Layer_1" xmlns="http://www.w3.org/2000/svg" xmlns:xlink="http://www.w3.org/1999/xlink" x="0px" y="0px"
	 viewBox="0 0 512 512" enable-background="new 0 0 512 512" xml:space="preserve">
<g>
	<g>
		<g>
			<path fill="#EDEDED" d="M462.6,398.1H49.4c-13.5,0-24.4-10.9-24.4-24.4V138.3c0-13.5,10.9-24.4,24.4-24.4h413.2
				c13.5,0,24.4,10.9,24.4,24.4v235.4C487,387.2,476.1,398.1,462.6,398.1z"/>
		</g>
	</g>
	<g>
		<g>
			<path fill="#E9ECED" d="M462.6,398.1H49.4c-13.5,0-24.4-10.9-24.4-24.4V138.3c0-13.5,10.9-24.4,24.4-24.4h413.2
				c13.5,0,24.4,10.9,24.4,24.4v235.4C487,387.2,476.1,398.1,462.6,398.1z"/>
		</g>
	</g>
	<g>
		<g>
			<path fill="#414042" d="M462.6,406.9H49.4c-18.3,0-33.2-14.9-33.2-33.2V138.3c0-18.3,14.9-33.2,33.2-33.2h413.2
				c18.3,0,33.2,14.9,33.2,33.2v235.4C495.8,392,480.9,406.9,462.6,406.9z M49.4,122.6c-8.6,0-15.6,7-15.6,15.6v235.4
				c0,8.6,7,15.6,15.6,15.6h413.2c8.6,0,15.6-7,15.6-15.6V138.3c0-8.6-7-15.6-15.6-15.6H49.4z"/>
		</g>
	</g>
	<g>
		<g>
			<g>
				<path fill="#852164" d="M174.9,204.3l30.5-5.7v59c0,0,13.3-16,17.5-29.5h34.2c0,0-6.4,24.9-20.9,39.8c0,0,16.8,29.3,19.8,43.2
					h-38.2c0,0-3-24.7-12.4-31v31h-30.5V204.3z"/>
			</g>
		</g>
		<g>
			<g>
				<path fill="#852164" d="M261.1,311.1v-53.3c0,0-1.1-30.1,48.1-30.1v24.2c0,0-17.9,0.2-17.9,11.7c0,11.5,0,47.5,0,47.5H261.1z"/>
			</g>
		</g>
		<g>
			<g>
				<rect x="319" y="227.6" fill="#852164" width="29.8" height="83.4"/>
			</g>
		</g>
		<g>
			<g>
				<circle fill="#852164" cx="333.9" cy="203.6" r="14.6"/>
			</g>
		</g>
		<g>
			<g>
				<polygon fill="#852164" points="360.8,204.2 360.8,311.1 390.4,311.1 390.4,198.6 				"/>
			</g>
		</g>
		<g>
			<g>
				<polygon fill="#852164" points="403.7,204.2 403.7,311.1 433.2,311.1 433.2,198.6 				"/>
			</g>
		</g>
		<g>
			<g>
				<path fill="#852164" d="M161.5,204.6v25.2c0,0-19.2-7.8-30.9-7.8c-11.6,0-19.7,1.4-19.7,9.3c0,7.8,6.8,8.1,15.3,8.9
					c8.5,0.8,35.6,6.3,39,28.8c3.4,22.5-11.2,34.1-25.3,39.3s-49.3,2.2-59.1-1.2v-26.6c0,0,13.6,6.5,27.7,6.5s23.2-1.6,23.2-9.9
					s-7.6-9.8-14.4-9.9c-6.8-0.1-38.6-3.3-38.6-34.2c0,0-0.8-29.3,34.9-33.8C142.3,195.4,161.5,204.6,161.5,204.6z"/>
			</g>
		</g>
	</g>
</g>
</svg>
