<?xml version="1.0" encoding="utf-8"?>
<!-- Generator: Adobe Illustrator 18.0.0, SVG Export Plug-In . SVG Version: 6.00 Build 0)  -->
<!DOCTYPE svg PUBLIC "-//W3C//DTD SVG 1.1//EN" "http://www.w3.org/Graphics/SVG/1.1/DTD/svg11.dtd">
<svg version="1.1" id="Layer_1" xmlns="http://www.w3.org/2000/svg" xmlns:xlink="http://www.w3.org/1999/xlink" x="0px" y="0px"
	 viewBox="0 0 512 512" enable-background="new 0 0 512 512" xml:space="preserve">
<g>
	<g>
		<g>
			<g>
				<path fill="#EDB940" d="M232.7,71.7c-66.2,0-107.8,15.7-132.7,31.3c-20.4,12.7-32.8,35.2-32.8,59.3v44.2h321.4v-48.1
					c0-23.9-12.1-46.4-32.4-59C333.2,85.1,295.1,71.7,232.7,71.7z"/>
			</g>
		</g>
		<g>
			<g>
				<path fill="#BB8B30" d="M67.2,204.1c0,0,12.5-87.7,160.7-87.7s160.7,87.7,160.7,87.7H67.2z"/>
			</g>
		</g>
		<g>
			<g>
				<path fill="#414042" d="M388.6,212.8C388.6,212.8,388.5,212.8,388.6,212.8H67.2c-2.5,0-4.9-1.1-6.5-3c-1.6-1.9-2.4-4.4-2-6.9
					c0.1-1,3.8-25,27.2-48.7c20.9-21.2,62.5-46.4,142-46.4s121.1,25.2,142,46.4c20.9,21.1,26,42.5,27,47.6c0.2,0.7,0.3,1.5,0.3,2.3
					C397.2,208.9,393.3,212.8,388.6,212.8z M78.7,195.5H377c-3.1-7.7-9-18.9-20.2-30c-26.8-26.5-71.3-40.4-128.9-40.4
					s-102.2,14-128.9,40.4C87.7,176.6,81.8,187.8,78.7,195.5z"/>
			</g>
		</g>
		<g>
			<g>
				<g>
					<path fill="#BB8B30" d="M365.4,352.4v-75.9H90.2v75.9c0,48.5,39.3,87.9,87.9,87.9h99.5c24.2,0,46.2-9.8,62.1-25.7
						C355.6,398.6,365.5,376.7,365.4,352.4L365.4,352.4z"/>
				</g>
			</g>
			<g>
				<g>
					<path fill="#414042" d="M277.6,448.9h-99.5c-53.2,0-96.5-43.3-96.5-96.5v-75.9c0-4.8,3.9-8.6,8.6-8.6h275.2
						c4.8,0,8.6,3.9,8.6,8.6v75.2c0,0.2,0,0.5,0,0.7c0,25.8-10,50-28.3,68.2C327.6,438.8,303.4,448.9,277.6,448.9z M98.8,285.1v67.3
						c0,43.7,35.5,79.2,79.2,79.2h99.5c21.2,0,41.1-8.2,56-23.2c14.8-14.8,23-34.4,23.2-55.4c0-0.2,0-0.4,0-0.7v-67.3H98.8z"/>
				</g>
			</g>
		</g>
		<g>
			<g>
				<g>
					<path fill="#414042" d="M388.5,317.4h21.9c18.5,0,33.2-15.4,32.3-33.9l-4.7-97.8h-12.7l-5.6,81c-0.4,6.4-5.8,11.4-12.2,11.4
						h-19V317.4z"/>
				</g>
			</g>
			<g>
				<g>
					<circle fill="#414042" cx="431.7" cy="189.6" r="21.8"/>
				</g>
			</g>
		</g>
		<g>
			<g>
				<path fill="#D04527" d="M365,388.5H90.7c-13,0-23.5-10.5-23.5-23.5V203.6c0-13,10.5-23.5,23.5-23.5H365
					c13,0,23.5,10.5,23.5,23.5v161.4C388.5,378,378,388.5,365,388.5z"/>
			</g>
		</g>
		<g>
			<g>
				<path fill="#414042" d="M365,397.2H90.7c-17.7,0-32.1-14.4-32.1-32.1V203.6c0-17.7,14.4-32.1,32.1-32.1H365
					c17.7,0,32.1,14.4,32.1,32.1v161.4C397.1,382.8,382.7,397.2,365,397.2z M90.7,188.8c-8.2,0-14.9,6.7-14.9,14.9v161.4
					c0,8.2,6.7,14.9,14.9,14.9H365c8.2,0,14.9-6.7,14.9-14.9V203.6c0-8.2-6.7-14.9-14.9-14.9H90.7z"/>
			</g>
		</g>
		<g>
			<g>
				<rect x="100.8" y="231.3" fill="#E6E7E8" width="254.2" height="108.6"/>
			</g>
		</g>
		<g>
			<g>
				<path fill="#414042" d="M354.9,348.5H100.8c-4.8,0-8.6-3.9-8.6-8.6V231.3c0-4.8,3.9-8.6,8.6-8.6h254.2c4.8,0,8.6,3.9,8.6,8.6
					v108.6C363.5,344.7,359.7,348.5,354.9,348.5z M109.4,331.3h236.9v-91.4H109.4V331.3z"/>
			</g>
		</g>
		<g>
			<g>
				<path fill="#414042" d="M388.5,188.8H67.2c-4.8,0-8.6-3.9-8.6-8.6v-18.6c0-27.3,13.6-52.1,36.4-66.3
					c34.1-21.3,80.4-32.1,137.8-32.1c54.1,0,97.2,9.7,128,28.9c22.5,14,36.5,39.5,36.5,66.4v21.7
					C397.1,184.9,393.3,188.8,388.5,188.8z M75.8,171.5h304.1v-13.1c0-21-10.9-40.8-28.4-51.7c-27.6-17.2-68.7-26.3-118.9-26.3
					c-67.3,0-107.1,16-128.6,29.5c-17.4,10.9-28.3,30.7-28.3,51.7V171.5z"/>
			</g>
		</g>
		<g>
			<g>
				<g>
					<rect x="166.6" y="231.3" fill="#D04527" width="25.4" height="108.6"/>
				</g>
			</g>
			<g>
				<g>
					<path fill="#414042" d="M192.1,348.5h-25.4c-4.8,0-8.6-3.9-8.6-8.6V231.3c0-4.8,3.9-8.6,8.6-8.6h25.4c4.8,0,8.6,3.9,8.6,8.6
						v108.6C200.7,344.7,196.8,348.5,192.1,348.5z M175.3,331.3h8.2v-91.4h-8.2V331.3z"/>
				</g>
			</g>
		</g>
		<g>
			<g>
				<g>
					<rect x="261.5" y="231.3" fill="#D04527" width="25.4" height="108.6"/>
				</g>
			</g>
			<g>
				<g>
					<path fill="#414042" d="M286.9,348.5h-25.4c-4.8,0-8.6-3.9-8.6-8.6V231.3c0-4.8,3.9-8.6,8.6-8.6h25.4c4.8,0,8.6,3.9,8.6,8.6
						v108.6C295.5,344.7,291.7,348.5,286.9,348.5z M270.1,331.3h8.2v-91.4h-8.2V331.3z"/>
				</g>
			</g>
		</g>
		<g>
			<g>
				<path fill="#D04527" d="M138.4,281.7c-0.8-0.5-1.6-0.9-2.3-1.4c-0.5-0.3-0.9-0.6-1.5-0.9c-1.3-0.8-2.5-1.5-3.2-2.4
					c-0.6-0.7-0.9-1.5-0.9-2.2c0.1-1.1,1.6-2,3-2.1c1.6-0.1,3.5,0.3,5.2,1v3.9h8.4v-11.7h-5.3c-1.2-0.5-2.4-0.9-3.6-1.2V260h-8.4
					v4.9c-3.9,1.3-7.5,4.6-7.8,9.4c-0.2,2.8,0.9,5.8,2.8,8.2c1.6,1.9,3.5,3.1,5.2,4.1l0,0c0.4,0.3,0.8,0.5,1.2,0.8
					c0.8,0.5,1.7,1.1,2.6,1.6l0,0c4.5,2.7,6.5,4.2,6.3,6.3c-0.2,2-2.7,3.3-4.8,3.3c-2.9,0-4.5-1.3-5.1-2.2V292H122v6v0.5v6.1h5.2
					c0.8,0.5,1.7,1,2.7,1.4v5.2h8.4v-4.5c4.9-1,9.7-4.6,10.4-10.4C149.7,288.4,142.9,284.4,138.4,281.7z"/>
			</g>
		</g>
		<g>
			<g>
				<path fill="#D04527" d="M230.8,281.7c-0.8-0.5-1.6-0.9-2.3-1.4c-0.5-0.3-0.9-0.6-1.5-0.9c-1.3-0.8-2.5-1.5-3.2-2.4
					c-0.6-0.7-0.9-1.5-0.9-2.2c0.1-1.1,1.6-2,3-2.1c1.6-0.1,3.5,0.3,5.2,1v3.9h8.4v-11.7h-5.3c-1.2-0.5-2.4-0.9-3.6-1.2V260h-8.4
					v4.9c-3.9,1.3-7.5,4.6-7.8,9.4c-0.2,2.8,0.9,5.8,2.8,8.2c1.6,1.9,3.5,3.1,5.2,4.1l0,0c0.4,0.3,0.8,0.5,1.2,0.8
					c0.8,0.5,1.7,1.1,2.6,1.6l0,0c4.5,2.7,6.5,4.2,6.3,6.3c-0.2,2-2.7,3.3-4.8,3.3c-2.9,0-4.5-1.3-5.1-2.2V292h-8.4v6v0.5v6.1h5.2
					c0.8,0.5,1.7,1,2.7,1.4v5.2h8.4v-4.5c4.9-1,9.7-4.6,10.4-10.4C242.1,288.4,235.3,284.4,230.8,281.7z"/>
			</g>
		</g>
		<g>
			<g>
				<path fill="#D04527" d="M324.6,281.7c-0.8-0.5-1.6-0.9-2.3-1.4c-0.5-0.3-0.9-0.6-1.5-0.9c-1.3-0.8-2.5-1.5-3.2-2.4
					c-0.6-0.7-0.9-1.5-0.9-2.2c0.1-1.1,1.6-2,3-2.1c1.6-0.1,3.5,0.3,5.2,1v3.9h8.4v-11.7h-5.3c-1.2-0.5-2.4-0.9-3.6-1.2V260h-8.4
					v4.9c-3.9,1.3-7.5,4.6-7.8,9.4c-0.2,2.8,0.9,5.8,2.8,8.2c1.6,1.9,3.5,3.1,5.2,4.1l0,0c0.4,0.3,0.8,0.5,1.2,0.8
					c0.8,0.5,1.7,1.1,2.6,1.6l0,0c4.5,2.7,6.5,4.2,6.3,6.3c-0.2,2-2.7,3.3-4.8,3.3c-2.9,0-4.5-1.3-5.1-2.2V292h-8.4v6v0.5v6.1h5.2
					c0.8,0.5,1.7,1,2.7,1.4v5.2h8.4v-4.5c4.9-1,9.7-4.6,10.4-10.4C335.9,288.4,329.1,284.4,324.6,281.7z"/>
			</g>
		</g>
		<g>
			<g>
				<circle fill="#414042" cx="226.3" cy="149.7" r="11.8"/>
			</g>
		</g>
		<g>
			<g>
				<circle fill="#414042" cx="267.7" cy="149.7" r="11.8"/>
			</g>
		</g>
		<g>
			<g>
				<circle fill="#414042" cx="184.8" cy="149.7" r="11.8"/>
			</g>
		</g>
	</g>
	<g>
		<g>
			<path fill="#414042" d="M388.5,353.5H67.2c-4.8,0-8.6-3.9-8.6-8.6V178.6c0-4.8,3.9-8.6,8.6-8.6h321.4c4.8,0,8.6,3.9,8.6,8.6
				v166.3C397.1,349.6,393.3,353.5,388.5,353.5z M75.8,336.2h304.1v-149H75.8V336.2z"/>
		</g>
	</g>
</g>
</svg>
