<?xml version="1.0" encoding="utf-8"?>
<!-- Generator: Adobe Illustrator 18.0.0, SVG Export Plug-In . SVG Version: 6.00 Build 0)  -->
<!DOCTYPE svg PUBLIC "-//W3C//DTD SVG 1.1//EN" "http://www.w3.org/Graphics/SVG/1.1/DTD/svg11.dtd">
<svg version="1.1" id="Layer_1" xmlns="http://www.w3.org/2000/svg" xmlns:xlink="http://www.w3.org/1999/xlink" x="0px" y="0px"
	 viewBox="0 0 512 512" enable-background="new 0 0 512 512" xml:space="preserve">
<g>
	<g>
		<g>
			<circle fill="#E6E7E8" cx="256" cy="256" r="161.1"/>
		</g>
	</g>
	<g>
		<g>
			<path fill="#C6C6C5" d="M417.1,256c0,89-72.1,161.1-161.1,161.1c-19.6,0-38.3-3.5-55.7-9.9c24.3-4.6,48.2-11.9,70.8-21.9
				c41.4-18.3,79.2-45.5,106.5-81.6c17.2-22.7,30.1-49,36.8-76.6C416.2,236.5,417.1,246.1,417.1,256z"/>
		</g>
	</g>
	<g>
		<g>
			<path fill="#4F4F4F" d="M303.3,101.9L303.3,101.9L256,124.3L212,101c14-4,28.8-6.1,44-6.1C272.5,94.9,288.3,97.4,303.3,101.9z"/>
		</g>
	</g>
	<g>
		<g>
			<polygon fill="#4F4F4F" points="218.1,308.9 194.7,236.8 256,192.3 317.3,236.8 293.9,308.9 			"/>
		</g>
	</g>
	<g>
		<g>
			<path fill="#4F4F4F" d="M417.1,256c0,0.4,0,0.8,0,1.2l-1.4-1.2l-33.9-36.1l9.5-51.4C407.6,193.7,417.1,223.8,417.1,256z"/>
		</g>
	</g>
	<g>
		<g>
			<path fill="#4F4F4F" d="M194.7,405C194.7,405,194.7,405,194.7,405c-27.9-11.5-51.8-30.6-69.2-54.6l53.5,10.5L194.7,405z"/>
		</g>
	</g>
	<g>
		<g>
			<path fill="#4F4F4F" d="M317.3,405C317.3,405,317.3,405,317.3,405c27.9-11.5,51.8-30.6,69.2-54.6L333,360.8L317.3,405z"/>
		</g>
	</g>
	<g>
		<g>
			<path fill="#4F4F4F" d="M128.7,219.9l-33.8,34.5c0.3-30.9,9.3-59.7,24.6-84L128.7,219.9z"/>
		</g>
	</g>
	<g>
		<g>
			<path fill="#414042" d="M256,425.7c-93.6,0-169.7-76.1-169.7-169.7S162.4,86.3,256,86.3S425.7,162.4,425.7,256
				S349.6,425.7,256,425.7z M256,103.5c-84.1,0-152.5,68.4-152.5,152.5S171.9,408.5,256,408.5S408.5,340.1,408.5,256
				S340.1,103.5,256,103.5z"/>
		</g>
	</g>
	<g>
		<g>
			<path fill="#414042" d="M194.6,413.6c-1.1,0-2.2-0.2-3.3-0.6c-29.2-12-54.4-31.9-72.9-57.6c-2.1-2.9-2.2-6.7-0.3-9.7
				c1.9-3,5.4-4.5,8.9-3.8l53.5,10.5c3,0.6,5.4,2.7,6.4,5.6l15.7,44.2c1.1,3.1,0.3,6.6-2,8.9C199.1,412.7,196.9,413.6,194.6,413.6z
				 M147.8,363.5c9.4,9.5,20.1,17.7,31.7,24.5l-7-19.6L147.8,363.5z"/>
		</g>
	</g>
	<g>
		<g>
			<path fill="#414042" d="M94.9,263c-1.1,0-2.2-0.2-3.3-0.7c-3.2-1.3-5.3-4.5-5.3-8c0.3-31.4,9.3-62,25.9-88.5
				c1.9-3,5.4-4.5,8.9-3.9c3.5,0.7,6.2,3.4,6.8,6.9l9.2,49.5c0.5,2.8-0.4,5.6-2.3,7.6l-33.8,34.5C99.4,262.1,97.2,263,94.9,263z
				 M115.6,196.4c-4.8,11.2-8.1,22.9-10.1,35l13.9-14.2L115.6,196.4z"/>
		</g>
	</g>
	<g>
		<g>
			<path fill="#414042" d="M417.1,265.8c-2,0-3.9-0.7-5.5-2l-1.4-1.2c-0.3-0.2-0.5-0.5-0.7-0.7l-33.9-36.1c-1.9-2-2.7-4.8-2.2-7.5
				l9.5-51.4c0.6-3.5,3.3-6.2,6.8-6.9c3.5-0.7,7,0.8,8.9,3.8c17.8,27.4,27.2,59.3,27.2,92.2c0,0.5,0,1,0,1.6
				c-0.2,3.3-2.1,6.2-5.1,7.5C419.4,265.5,418.3,265.8,417.1,265.8z M391,217.2l16,17c-2-13.9-5.9-27.5-11.6-40.3L391,217.2z"/>
		</g>
	</g>
	<g>
		<g>
			<path fill="#414042" d="M194.7,245.6c-0.7,0-1.5-0.1-2.2-0.3L128,228.2c-4.6-1.2-7.3-5.9-6.1-10.5c1.2-4.6,5.9-7.3,10.5-6.1
				l64.5,17.1c4.6,1.2,7.3,5.9,6.1,10.5C202,243,198.5,245.6,194.7,245.6z"/>
		</g>
	</g>
	<g>
		<g>
			<path fill="#414042" d="M317.3,245.6c-3.8,0-7.3-2.5-8.3-6.4c-1.2-4.6,1.5-9.3,6.1-10.5l64.5-17.1c4.6-1.2,9.3,1.5,10.5,6.1
				c1.2,4.6-1.5,9.3-6.1,10.5l-64.5,17.1C318.8,245.5,318,245.6,317.3,245.6z"/>
		</g>
	</g>
	<g>
		<g>
			<path fill="#414042" d="M256.1,202.1c-4.7,0-8.6-3.8-8.6-8.6l-0.1-69.2c0-4.7,3.8-8.6,8.6-8.6c0,0,0,0,0,0c4.7,0,8.6,3.8,8.6,8.6
				l0.1,69.2C264.7,198.2,260.8,202.1,256.1,202.1C256.1,202.1,256.1,202.1,256.1,202.1z"/>
		</g>
	</g>
	<g>
		<g>
			<path fill="#414042" d="M333,369.4c-2.7,0-5.2-1.2-6.9-3.4L287,314c-2.9-3.8-2.1-9.2,1.7-12c3.8-2.9,9.2-2.1,12,1.7l35.9,47.7
				l48.3-9.4c4.7-0.9,9.2,2.1,10.1,6.8c0.9,4.7-2.1,9.2-6.8,10.1l-53.5,10.4C334.1,369.4,333.5,369.4,333,369.4z"/>
		</g>
	</g>
	<g>
		<g>
			<path fill="#414042" d="M179,369.4c-0.5,0-1.1-0.1-1.6-0.2l-53.5-10.4c-4.7-0.9-7.7-5.4-6.8-10.1c0.9-4.7,5.4-7.7,10.1-6.8
				l48.3,9.4l35.9-47.7c2.9-3.8,8.2-4.5,12-1.7c3.8,2.9,4.6,8.2,1.7,12l-39.1,52C184.2,368.2,181.6,369.4,179,369.4z"/>
		</g>
	</g>
	<g>
		<g>
			<path fill="#414042" d="M256,132.9c-1.4,0-2.8-0.3-4-1l-44.1-23.3c-3.1-1.6-4.9-5-4.5-8.5c0.4-3.5,2.8-6.4,6.2-7.4
				c15-4.3,30.6-6.4,46.4-6.4c17,0,33.7,2.5,49.8,7.4c3.6,1.1,6.1,4.4,6.1,8.2c0,3.3-1.9,6.4-4.9,7.8l-47.2,22.3
				C258.6,132.6,257.3,132.9,256,132.9z M237.2,104.6l19,10l20.7-9.8C263.9,103.1,250.4,103,237.2,104.6z"/>
		</g>
	</g>
	<g>
		<g>
			<path fill="#414042" d="M293.9,317.5h-75.8c-3.7,0-7-2.4-8.2-5.9l-23.4-72.1c-1.2-3.5,0.1-7.4,3.1-9.6l61.3-44.5
				c3-2.2,7.1-2.2,10.1,0l61.3,44.5c3,2.2,4.3,6.1,3.1,9.6l-23.4,72.1C300.9,315.1,297.6,317.5,293.9,317.5z M224.4,300.3h63.3
				l19.6-60.2L256,202.9l-51.2,37.2L224.4,300.3z"/>
		</g>
	</g>
	<g>
		<g>
			<path fill="#414042" d="M417.1,265.8c-2,0-3.9-0.7-5.5-2l-1.4-1.2c-0.3-0.2-0.5-0.5-0.7-0.7l-33.9-36.1c-1.9-2-2.7-4.8-2.2-7.5
				l9.5-51.4c0.6-3.5,3.3-6.2,6.8-6.9c3.5-0.7,7,0.8,8.9,3.8c17.8,27.4,27.2,59.3,27.2,92.2c0,0.5,0,1,0,1.6
				c-0.2,3.3-2.1,6.2-5.1,7.5C419.4,265.5,418.3,265.8,417.1,265.8z M391,217.2l16,17c-2-13.9-5.9-27.5-11.6-40.3L391,217.2z"/>
		</g>
	</g>
	<g>
		<g>
			<path fill="#414042" d="M194.6,413.6c-1.1,0-2.2-0.2-3.3-0.6c-29.2-12-54.4-31.9-72.9-57.6c-2.1-2.9-2.2-6.7-0.3-9.7
				c1.9-3,5.4-4.5,8.9-3.8l53.5,10.5c3,0.6,5.4,2.7,6.4,5.6l15.7,44.2c1.1,3.1,0.3,6.6-2,8.9C199.1,412.7,196.9,413.6,194.6,413.6z
				 M147.8,363.5c9.4,9.5,20.1,17.7,31.7,24.5l-7-19.6L147.8,363.5z"/>
		</g>
	</g>
	<g>
		<g>
			<path fill="#414042" d="M317.3,413.6c-2.2,0-4.4-0.9-6.1-2.5l0,0c-2.3-2.3-3.1-5.8-2-8.9l15.7-44.2c1-2.9,3.5-5,6.4-5.6
				l53.5-10.5c3.5-0.7,7,0.8,8.9,3.8c1.9,3,1.8,6.8-0.3,9.7C375,381,349.8,400.9,320.6,413C319.5,413.4,318.4,413.6,317.3,413.6z
				 M339.5,368.3l-7,19.6c11.6-6.7,22.2-15,31.7-24.5L339.5,368.3z"/>
		</g>
	</g>
	<g>
		<g>
			<path fill="#414042" d="M94.9,263c-1.1,0-2.2-0.2-3.3-0.7c-3.2-1.3-5.3-4.5-5.3-8c0.3-31.4,9.3-62,25.9-88.5
				c1.9-3,5.4-4.5,8.9-3.9c3.5,0.7,6.2,3.4,6.8,6.9l9.2,49.5c0.5,2.8-0.4,5.6-2.3,7.6l-33.8,34.5C99.4,262.1,97.2,263,94.9,263z
				 M115.6,196.4c-4.8,11.2-8.1,22.9-10.1,35l13.9-14.2L115.6,196.4z"/>
		</g>
	</g>
</g>
</svg>
