<?xml version="1.0" encoding="utf-8"?>
<!-- Generator: Adobe Illustrator 18.0.0, SVG Export Plug-In . SVG Version: 6.00 Build 0)  -->
<!DOCTYPE svg PUBLIC "-//W3C//DTD SVG 1.1//EN" "http://www.w3.org/Graphics/SVG/1.1/DTD/svg11.dtd">
<svg version="1.1" id="Layer_1" xmlns="http://www.w3.org/2000/svg" xmlns:xlink="http://www.w3.org/1999/xlink" x="0px" y="0px"
	 viewBox="0 0 512 512" enable-background="new 0 0 512 512" xml:space="preserve">
<g>
	<g>
		<g>
			<path fill="#F5E039" d="M420.9,256c0,29-7.5,56.2-20.6,79.9H111.8C98.6,312.2,91.2,285,91.2,256c0-28.8,7.4-55.8,20.3-79.4h289
				C413.5,200.2,420.9,227.2,420.9,256z"/>
		</g>
	</g>
	<g>
		<g>
			<path fill="#BFAE30" d="M218.1,207.3c0-2.9-2.4-5.3-5.3-5.3c-0.8,0-1.5,0.2-2.2,0.5c0-0.2,0.1-0.4,0.1-0.7c0-4.1-3.3-7.4-7.4-7.4
				c-0.9,0-1.7,0.2-2.4,0.4c-0.3-6-5.3-10.8-11.4-10.8c0,0,0,0,0,0c0,0,0,0,0,0c-6.1,0-11.1,4.8-11.4,10.8c-0.8-0.3-1.6-0.4-2.4-0.4
				c-4.1,0-7.4,3.3-7.4,7.4c0,0.2,0,0.4,0.1,0.7c-0.7-0.3-1.4-0.5-2.2-0.5c-2.9,0-5.3,2.4-5.3,5.3c0,2,1.1,3.7,2.7,4.6
				c0.5,0.5,4.4,4.8,5.3,9.6h20.6v0l0,0h20.6c1-5.1,5.3-9.5,5.4-9.7C217.1,210.9,218.1,209.3,218.1,207.3z M171.4,207.9L171.4,207.9
				L171.4,207.9C171.4,207.9,171.4,207.9,171.4,207.9z"/>
		</g>
	</g>
	<g>
		<g>
			<path fill="#D04527" d="M211.1,208.2c0-2.2-1.8-4-4-4c-0.6,0-1.2,0.1-1.7,0.4c0-0.2,0.1-0.3,0.1-0.5c0-3.1-2.5-5.6-5.6-5.6
				c-0.6,0-1.3,0.1-1.8,0.3c-0.2-4.5-4-8.1-8.6-8.1h0c0,0,0,0,0,0c-4.6,0-8.3,3.6-8.6,8.1c-0.6-0.2-1.2-0.3-1.8-0.3
				c-3.1,0-5.6,2.5-5.6,5.6c0,0.2,0,0.3,0.1,0.5c-0.5-0.2-1.1-0.4-1.7-0.4c-2.2,0-4,1.8-4,4c0,1.5,0.8,2.8,2.1,3.5
				c0.4,0.4,3.3,3.6,4,7.2h15.6v0l0,0h15.6c0.8-3.8,4-7.2,4.1-7.3C210.3,210.9,211.1,209.6,211.1,208.2z M175.8,208.6L175.8,208.6
				L175.8,208.6C175.8,208.6,175.8,208.6,175.8,208.6z"/>
		</g>
	</g>
	<g>
		<g>
			<path fill="#D04527" d="M400.5,176.6h-289c27-49.1,78.3-82.9,137.6-85.3h13.8C322.2,93.7,373.5,127.6,400.5,176.6z"/>
		</g>
	</g>
	<g>
		<g>
			<path fill="#D04527" d="M400.2,335.9c-28.1,50.7-82.2,85-144.2,85s-116.1-34.3-144.2-85H400.2z"/>
		</g>
	</g>
	<g>
		<g>
			<path fill="#414042" d="M256,429.6c-95.7,0-173.6-77.9-173.6-173.6S160.3,82.4,256,82.4S429.6,160.3,429.6,256
				S351.7,429.6,256,429.6z M256,99.9c-86,0-156.1,70-156.1,156.1S170,412.1,256,412.1S412.1,342,412.1,256S342,99.9,256,99.9z"/>
		</g>
	</g>
	<g>
		<g>
			<path fill="#D04527" d="M218.9,250.5v6.4c0,7-1.7,14-5.3,20c-4.2,7-11.6,14-24,14s-19.8-7-24-14c-3.6-6-5.3-13-5.3-20v-6.4H218.9
				z"/>
		</g>
	</g>
	<g>
		<g>
			<path fill="#D04527" d="M218.9,250.5v6.4c0,7-1.7,14-5.3,20c-4.2,7-11.6,14-24,14s-19.8-7-24-14c-3.6-6-5.3-13-5.3-20v-6.4H218.9
				z"/>
		</g>
	</g>
	<g>
		<g>
			<rect x="160.2" y="217.5" fill="#D04527" width="29.4" height="33"/>
		</g>
	</g>
	<g>
		<g>
			<rect x="189.5" y="217.5" fill="#E6E7E8" width="29.4" height="33"/>
		</g>
	</g>
	<g>
		<g>
			<ellipse fill="#4F4F4F" cx="189.5" cy="250.5" rx="10.2" ry="14.2"/>
		</g>
	</g>
	<g>
		<g>
			<rect x="160.2" y="247.7" fill="#4F4F4F" width="58.7" height="5.5"/>
		</g>
	</g>
	<g>
		<g>
			<path fill="#4F4F4F" d="M192.3,217.5v73.3c-0.9,0.1-1.8,0.1-2.8,0.1c-1,0-1.9,0-2.8-0.1v-73.3H192.3z"/>
		</g>
	</g>
	<g>
		<g>
			<g>
				<polygon fill="#4F4F4F" points="251.5,253.7 225.3,259.8 225.3,253.8 251.5,247.7 				"/>
			</g>
		</g>
		<g>
			<g>
				<polygon fill="#4F4F4F" points="251.5,268.4 229.4,273 229.4,266.9 251.5,262.4 				"/>
			</g>
		</g>
		<g>
			<g>
				<rect x="229.4" y="217.5" fill="#E6E7E8" width="17.2" height="64.3"/>
			</g>
		</g>
		<g>
			<g>
				<polygon fill="#4F4F4F" points="251.5,262.4 225.3,253.7 225.3,259.8 251.5,268.4 				"/>
			</g>
		</g>
		<g>
			<g>
				<path fill="#4F4F4F" d="M228.6,236.6h-9.7v5.7h9.7c8.1,0,16,2.3,22.9,6.6h0v-5.7h0C244.6,238.9,236.7,236.6,228.6,236.6z"/>
			</g>
		</g>
		<g>
			<g>
				<rect x="225.1" y="277.5" fill="#BFAE30" width="26.1" height="4.2"/>
			</g>
		</g>
		<g>
			<g>
				<rect x="220.4" y="281" fill="#2E576D" width="35.4" height="8.4"/>
			</g>
		</g>
		<g>
			<g>
				<path fill="#D04527" d="M244.7,202.8c-0.1,0-0.2,0-0.3,0c-0.1-3.3-2.8-6-6.2-6c-3.4,0-6.1,2.7-6.2,6c-0.1,0-0.2,0-0.3,0
					c-2.7,0-4.9,2.2-4.9,4.9s2.2,4.9,4.9,4.9h13.1c2.7,0,4.9-2.2,4.9-4.9S247.4,202.8,244.7,202.8z"/>
			</g>
		</g>
		<g>
			<g>
				<rect x="225.1" y="212.1" fill="#E6E7E8" width="26.1" height="5.3"/>
			</g>
		</g>
	</g>
	<g>
		<g>
			<g>
				<polygon fill="#4F4F4F" points="127.5,253.7 153.7,259.8 153.7,253.8 127.5,247.7 				"/>
			</g>
		</g>
		<g>
			<g>
				<polygon fill="#4F4F4F" points="127.5,268.4 149.6,273 149.6,266.9 127.5,262.4 				"/>
			</g>
		</g>
		<g>
			<g>
				<rect x="132.4" y="217.5" fill="#E6E7E8" width="17.2" height="64.3"/>
			</g>
		</g>
		<g>
			<g>
				<polygon fill="#4F4F4F" points="127.5,262.4 153.7,253.7 153.7,259.8 127.5,268.4 				"/>
			</g>
		</g>
		<g>
			<g>
				<path fill="#4F4F4F" d="M150.4,236.6h9.7v5.7h-9.7c-8.1,0-16,2.3-22.9,6.6h0v-5.7h0C134.4,238.9,142.3,236.6,150.4,236.6z"/>
			</g>
		</g>
		<g>
			<g>
				<rect x="127.8" y="277.5" fill="#BFAE30" width="26.1" height="4.2"/>
			</g>
		</g>
		<g>
			<g>
				<rect x="123.1" y="281" fill="#2E576D" width="35.4" height="8.4"/>
			</g>
		</g>
		<g>
			<g>
				<path fill="#D04527" d="M147.4,202.8c-0.1,0-0.2,0-0.3,0c-0.1-3.3-2.8-6-6.2-6c-3.4,0-6.1,2.7-6.2,6c-0.1,0-0.2,0-0.3,0
					c-2.7,0-4.9,2.2-4.9,4.9s2.2,4.9,4.9,4.9h13.1c2.7,0,4.9-2.2,4.9-4.9S150.1,202.8,147.4,202.8z"/>
			</g>
		</g>
		<g>
			<g>
				<rect x="127.8" y="212.1" fill="#E6E7E8" width="26.1" height="5.3"/>
			</g>
		</g>
	</g>
</g>
</svg>
