<?xml version="1.0" encoding="utf-8"?>
<!-- Generator: Adobe Illustrator 18.0.0, SVG Export Plug-In . SVG Version: 6.00 Build 0)  -->
<!DOCTYPE svg PUBLIC "-//W3C//DTD SVG 1.1//EN" "http://www.w3.org/Graphics/SVG/1.1/DTD/svg11.dtd">
<svg version="1.1" id="Layer_1" xmlns="http://www.w3.org/2000/svg" xmlns:xlink="http://www.w3.org/1999/xlink" x="0px" y="0px"
	 viewBox="0 0 512 512" enable-background="new 0 0 512 512" xml:space="preserve">
<g>
	<g>
		<g>
			<g>
				<path fill="#BB6FA0" d="M306.9,414.1l-184.3,32c-20.1,3.5-39.2-10-42.7-30.1L33.6,149.1c-3.5-20.1,10-39.2,30.1-42.7l184.3-32
					c20.1-3.5,39.2,10,42.7,30.1L337,371.4C340.5,391.5,327,410.6,306.9,414.1z"/>
			</g>
		</g>
		<g>
			<g>
				<g>
					<g>
						<g>
							<g>
								<path fill="#8D4F76" d="M321.3,284.9c-2.2,0.4-4.6-0.1-6.7-1.5L164.6,177.7c-4-2.8-5-8.4-2.2-12.4c2.8-4,8.4-5,12.4-2.2
									L325,268.8c4,2.8,5,8.4,2.2,12.4C325.7,283.3,323.6,284.5,321.3,284.9z"/>
							</g>
						</g>
					</g>
					<g>
						<g>
							<g>
								<path fill="#8D4F76" d="M329.2,330.2c-2.2,0.4-4.6-0.1-6.7-1.5L145.9,204.3c-4-2.8-5-8.4-2.2-12.4c2.8-4,8.4-5,12.4-2.2
									l176.7,124.5c4,2.8,5,8.4,2.2,12.4C333.6,328.6,331.5,329.8,329.2,330.2z"/>
							</g>
						</g>
					</g>
				</g>
				<g>
					<g>
						<g>
							<path fill="#8D4F76" d="M65.5,329.3c-2.2,0.4-4.6-0.1-6.7-1.5c-4-2.8-5-8.4-2.2-12.4l105.7-150.1c2.8-4,8.4-5,12.4-2.2
								c4,2.8,5,8.4,2.2,12.4L71.3,325.6C69.9,327.6,67.8,328.9,65.5,329.3z"/>
						</g>
					</g>
				</g>
				<g>
					<g>
						<g>
							<path fill="#8D4F76" d="M73.4,374.6c-2.2,0.4-4.6-0.1-6.7-1.5c-4-2.8-5-8.4-2.2-12.4L189,184c2.8-4,8.4-5,12.4-2.2
								c4,2.8,5,8.4,2.2,12.4L79.1,370.9C77.7,373,75.6,374.2,73.4,374.6z"/>
						</g>
					</g>
				</g>
			</g>
			<g>
				<g>
					<g>
						<path fill="#8D4F76" d="M84.4,414.5c-2.2,0.4-4.6-0.1-6.7-1.5c-4-2.8-5-8.4-2.2-12.4l204.9-291c2.8-4,8.4-5,12.4-2.2
							c4,2.8,5,8.4,2.2,12.4l-204.9,291C88.7,412.9,86.6,414.2,84.4,414.5z"/>
					</g>
				</g>
			</g>
			<g>
				<g>
					<g>
						<path fill="#8D4F76" d="M332.3,371.5c-2.2,0.4-4.6-0.1-6.7-1.5l-291-204.9c-4-2.8-5-8.4-2.2-12.4c2.8-4,8.4-5,12.4-2.2
							l291,204.9c4,2.8,5,8.4,2.2,12.4C336.7,369.9,334.6,371.1,332.3,371.5z"/>
					</g>
				</g>
			</g>
			<g>
				<g>
					<g>
						<g>
							<g>
								<path fill="#8D4F76" d="M202.4,359c-2.2,0.4-4.6-0.1-6.7-1.5L45.7,251.7c-4-2.8-5-8.4-2.2-12.4c2.8-4,8.4-5,12.4-2.2
									L206,342.9c4,2.8,5,8.4,2.2,12.4C206.8,357.3,204.7,358.6,202.4,359z"/>
							</g>
						</g>
					</g>
					<g>
						<g>
							<g>
								<path fill="#8D4F76" d="M221.2,332.4c-2.2,0.4-4.6-0.1-6.7-1.5L37.8,206.4c-4-2.8-5-8.4-2.2-12.4c2.8-4,8.4-5,12.4-2.2
									l176.7,124.5c4,2.8,5,8.4,2.2,12.4C225.5,330.7,223.4,332,221.2,332.4z"/>
							</g>
						</g>
					</g>
				</g>
				<g>
					<g>
						<g>
							<g>
								<path fill="#8D4F76" d="M202.4,359c-2.2,0.4-4.6-0.1-6.7-1.5c-4-2.8-5-8.4-2.2-12.4l105.7-150.1c2.8-4,8.4-5,12.4-2.2
									c4,2.8,5,8.4,2.2,12.4L208.2,355.3C206.8,357.3,204.7,358.6,202.4,359z"/>
							</g>
						</g>
					</g>
					<g>
						<g>
							<g>
								<path fill="#8D4F76" d="M175.8,340.2c-2.2,0.4-4.6-0.1-6.7-1.5c-4-2.8-5-8.4-2.2-12.4l124.5-176.7c2.8-4,8.4-5,12.4-2.2
									c4,2.8,5,8.4,2.2,12.4L181.6,336.6C180.2,338.6,178.1,339.8,175.8,340.2z"/>
							</g>
						</g>
					</g>
				</g>
			</g>
		</g>
		<g>
			<g>
				<path fill="#414042" d="M116.3,455.6c-22.3,0-41.3-16-45.1-38L24.8,150.6c-2.1-12.1,0.6-24.2,7.7-34.2
					c7.1-10,17.6-16.7,29.6-18.8l184.3-32c2.6-0.5,5.3-0.7,7.9-0.7c22.3,0,41.3,16,45.1,38l46.3,266.9c4.3,24.9-12.4,48.7-37.3,53
					l-184.3,32C121.5,455.3,118.9,455.6,116.3,455.6z M254.4,82.8c-1.6,0-3.2,0.1-4.8,0.4l-184.3,32c-15.2,2.6-25.4,17.2-22.8,32.4
					l46.3,266.9c2.3,13.5,13.9,23.2,27.5,23.2c1.6,0,3.2-0.1,4.8-0.4l184.3-32c15.2-2.6,25.4-17.2,22.8-32.4l-46.3-266.9
					C279.6,92.6,268,82.8,254.4,82.8z"/>
			</g>
		</g>
	</g>
	<g>
		<g>
			<g>
				<path fill="#BB6FA0" d="M292.5,431.8L106.1,416c-20.3-1.7-35.4-19.6-33.7-39.9l22.8-269.9c1.7-20.3,19.6-35.4,39.9-33.7
					l186.4,15.8c20.3,1.7,35.4,19.6,33.7,39.9l-22.8,269.9C330.7,418.5,312.8,433.5,292.5,431.8z"/>
			</g>
		</g>
		<g>
			<g>
				<g>
					<g>
						<g>
							<g>
								<path fill="#8D4F76" d="M339.2,310.5c-2.3-0.2-4.5-1.3-6.1-3.1L214.7,167c-3.2-3.8-2.7-9.4,1.1-12.6
									c3.8-3.2,9.4-2.7,12.6,1.1l118.4,140.3c3.2,3.8,2.7,9.4-1.1,12.6C343.8,310,341.5,310.7,339.2,310.5z"/>
							</g>
						</g>
					</g>
					<g>
						<g>
							<g>
								<path fill="#8D4F76" d="M335.3,356.3c-2.3-0.2-4.5-1.3-6.1-3.1L189.9,188c-3.2-3.8-2.7-9.4,1.1-12.6
									c3.8-3.2,9.4-2.7,12.6,1.1l139.4,165.2c3.2,3.8,2.7,9.4-1.1,12.6C339.9,355.8,337.6,356.5,335.3,356.3z"/>
							</g>
						</g>
					</g>
				</g>
				<g>
					<g>
						<g>
							<path fill="#8D4F76" d="M80.5,288.6c-2.3-0.2-4.5-1.3-6.1-3.1c-3.2-3.8-2.7-9.4,1.1-12.6l140.3-118.4
								c3.8-3.2,9.4-2.7,12.6,1.1c3.2,3.8,2.7,9.4-1.1,12.6L87,286.5C85.1,288.1,82.7,288.8,80.5,288.6z"/>
						</g>
					</g>
				</g>
				<g>
					<g>
						<g>
							<path fill="#8D4F76" d="M76.6,334.4c-2.3-0.2-4.5-1.3-6.1-3.1c-3.2-3.8-2.7-9.4,1.1-12.6l165.2-139.4
								c3.8-3.2,9.4-2.7,12.6,1.1c3.2,3.8,2.7,9.4-1.1,12.6L83.1,332.3C81.2,333.9,78.9,334.6,76.6,334.4z"/>
						</g>
					</g>
				</g>
			</g>
			<g>
				<g>
					<g>
						<path fill="#8D4F76" d="M77.1,375.8c-2.3-0.2-4.5-1.3-6.1-3.1c-3.2-3.8-2.7-9.4,1.1-12.6l272-229.5c3.8-3.2,9.4-2.7,12.6,1.1
							c3.2,3.8,2.7,9.4-1.1,12.6l-272,229.5C81.7,375.4,79.4,376,77.1,375.8z"/>
					</g>
				</g>
			</g>
			<g>
				<g>
					<g>
						<path fill="#8D4F76" d="M327.9,397.1c-2.3-0.2-4.5-1.3-6.1-3.1l-229.5-272c-3.2-3.8-2.7-9.4,1.1-12.6
							c3.8-3.2,9.4-2.7,12.6,1.1l229.5,272c3.2,3.8,2.7,9.4-1.1,12.6C332.5,396.6,330.1,397.2,327.9,397.1z"/>
					</g>
				</g>
			</g>
			<g>
				<g>
					<g>
						<g>
							<g>
								<path fill="#8D4F76" d="M205.4,352c-2.3-0.2-4.5-1.3-6.1-3.1L80.9,208.5c-3.2-3.8-2.7-9.4,1.1-12.6
									c3.8-3.2,9.4-2.7,12.6,1.1L213,337.3c3.2,3.8,2.7,9.4-1.1,12.6C210,351.5,207.7,352.2,205.4,352z"/>
							</g>
						</g>
					</g>
					<g>
						<g>
							<g>
								<path fill="#8D4F76" d="M230.3,331c-2.3-0.2-4.5-1.3-6.1-3.1L84.8,162.7c-3.2-3.8-2.7-9.4,1.1-12.6
									c3.8-3.2,9.4-2.7,12.6,1.1l139.4,165.2c3.2,3.8,2.7,9.4-1.1,12.6C234.9,330.5,232.5,331.2,230.3,331z"/>
							</g>
						</g>
					</g>
				</g>
				<g>
					<g>
						<g>
							<g>
								<path fill="#8D4F76" d="M205.4,352c-2.3-0.2-4.5-1.3-6.1-3.1c-3.2-3.8-2.7-9.4,1.1-12.6l140.3-118.4
									c3.8-3.2,9.4-2.7,12.6,1.1c3.2,3.8,2.7,9.4-1.1,12.6L211.9,349.9C210,351.5,207.7,352.2,205.4,352z"/>
							</g>
						</g>
					</g>
					<g>
						<g>
							<g>
								<path fill="#8D4F76" d="M184.4,327.1c-2.3-0.2-4.5-1.3-6.1-3.1c-3.2-3.8-2.7-9.4,1.1-12.6L344.6,172
									c3.8-3.2,9.4-2.7,12.6,1.1c3.2,3.8,2.7,9.4-1.1,12.6L190.9,325C189,326.6,186.7,327.3,184.4,327.1z"/>
							</g>
						</g>
					</g>
				</g>
			</g>
		</g>
		<g>
			<g>
				<path fill="#414042" d="M295.7,440.9c-1.3,0-2.6-0.1-3.9-0.2l-186.4-15.8c-25.2-2.1-43.9-24.4-41.8-49.5l22.8-269.9
					c2-23.5,22-42,45.6-42c1.3,0,2.6,0.1,3.9,0.2l186.4,15.8c25.2,2.1,43.9,24.4,41.8,49.5l-22.8,269.9
					C339.3,422.4,319.3,440.9,295.7,440.9z M132,81.3c-14.4,0-26.6,11.3-27.9,25.6L81.3,376.9c-1.3,15.4,10.2,29,25.5,30.3
					l186.4,15.8c0.8,0.1,1.6,0.1,2.4,0.1c14.4,0,26.6-11.3,27.9-25.6l22.8-269.9c0.6-7.5-1.7-14.7-6.5-20.4
					c-4.8-5.7-11.6-9.2-19-9.8L134.4,81.4C133.6,81.4,132.8,81.3,132,81.3z"/>
			</g>
		</g>
	</g>
	<g>
		<g>
			<g>
				<path fill="#BB6FA0" d="M300.1,441.3l-180.9-47.9c-19.7-5.2-31.5-25.4-26.2-45.1l69.3-261.9c5.2-19.7,25.4-31.5,45.1-26.2
					l180.9,47.9c19.7,5.2,31.5,25.4,26.2,45.1l-69.3,261.9C340,434.8,319.8,446.6,300.1,441.3z"/>
			</g>
		</g>
		<g>
			<g>
				<g>
					<g>
						<g>
							<g>
								<path fill="#8D4F76" d="M367.1,329.9c-2.2-0.6-4.2-2-5.4-4.1l-92.3-158.7c-2.5-4.3-1-9.7,3.2-12.2c4.3-2.5,9.7-1,12.2,3.2
									l92.3,158.7c2.5,4.3,1,9.7-3.2,12.2C371.8,330.3,369.3,330.5,367.1,329.9z"/>
							</g>
						</g>
					</g>
					<g>
						<g>
							<g>
								<path fill="#8D4F76" d="M355.4,374.4c-2.2-0.6-4.2-2-5.4-4.1L241.3,183.4c-2.5-4.3-1-9.7,3.2-12.2c4.3-2.5,9.7-1,12.2,3.2
									l108.6,186.8c2.5,4.3,1,9.7-3.2,12.2C360,374.7,357.6,375,355.4,374.4z"/>
							</g>
						</g>
					</g>
				</g>
				<g>
					<g>
						<g>
							<path fill="#8D4F76" d="M116.1,263.5c-2.2-0.6-4.2-2-5.4-4.1c-2.5-4.3-1-9.7,3.2-12.2l158.7-92.3c4.3-2.5,9.7-1,12.2,3.2
								c2.5,4.3,1,9.7-3.2,12.2l-158.7,92.3C120.7,263.8,118.3,264.1,116.1,263.5z"/>
						</g>
					</g>
				</g>
				<g>
					<g>
						<g>
							<path fill="#8D4F76" d="M104.3,308c-2.2-0.6-4.2-2-5.4-4.1c-2.5-4.3-1-9.7,3.2-12.2L289,183c4.3-2.5,9.7-1,12.2,3.2
								c2.5,4.3,1,9.7-3.2,12.2L111.1,307.1C109,308.3,106.5,308.6,104.3,308z"/>
						</g>
					</g>
				</g>
			</g>
			<g>
				<g>
					<g>
						<path fill="#8D4F76" d="M97.7,348.9c-2.2-0.6-4.2-2-5.4-4.1c-2.5-4.3-1-9.7,3.2-12.2l307.7-178.9c4.3-2.5,9.7-1,12.2,3.2
							c2.5,4.3,1,9.7-3.2,12.2L104.4,347.9C102.3,349.2,99.9,349.4,97.7,348.9z"/>
					</g>
				</g>
			</g>
			<g>
				<g>
					<g>
						<path fill="#8D4F76" d="M340.9,413.2c-2.2-0.6-4.2-2-5.4-4.1L156.6,101.4c-2.5-4.3-1-9.7,3.2-12.2c4.3-2.5,9.7-1,12.2,3.2
							l178.9,307.7c2.5,4.3,1,9.7-3.2,12.2C345.6,413.6,343.1,413.8,340.9,413.2z"/>
					</g>
				</g>
			</g>
			<g>
				<g>
					<g>
						<g>
							<g>
								<path fill="#8D4F76" d="M228.1,347.6c-2.2-0.6-4.2-2-5.4-4.1l-92.3-158.7c-2.5-4.3-1-9.7,3.2-12.2c4.3-2.5,9.7-1,12.2,3.2
									l92.3,158.7c2.5,4.3,1,9.7-3.2,12.2C232.8,347.9,230.4,348.2,228.1,347.6z"/>
							</g>
						</g>
					</g>
					<g>
						<g>
							<g>
								<path fill="#8D4F76" d="M256.3,331.3c-2.2-0.6-4.2-2-5.4-4.1L142.2,140.3c-2.5-4.3-1-9.7,3.2-12.2c4.3-2.5,9.7-1,12.2,3.2
									l108.6,186.8c2.5,4.3,1,9.7-3.2,12.2C260.9,331.6,258.5,331.8,256.3,331.3z"/>
							</g>
						</g>
					</g>
				</g>
				<g>
					<g>
						<g>
							<g>
								<path fill="#8D4F76" d="M228.1,347.6c-2.2-0.6-4.2-2-5.4-4.1c-2.5-4.3-1-9.7,3.2-12.2L384.7,239c4.3-2.5,9.7-1,12.2,3.2
									c2.5,4.3,1,9.7-3.2,12.2l-158.7,92.3C232.8,347.9,230.4,348.2,228.1,347.6z"/>
							</g>
						</g>
					</g>
					<g>
						<g>
							<g>
								<path fill="#8D4F76" d="M211.8,319.5c-2.2-0.6-4.2-2-5.4-4.1c-2.5-4.3-1-9.7,3.2-12.2l186.8-108.6c4.3-2.5,9.7-1,12.2,3.2
									c2.5,4.3,1,9.7-3.2,12.2L218.6,318.6C216.4,319.8,214,320.1,211.8,319.5z"/>
							</g>
						</g>
					</g>
				</g>
			</g>
		</g>
		<g>
			<g>
				<path fill="#414042" d="M309.6,451.5c-3.9,0-7.9-0.5-11.8-1.5L117,402.1c-11.8-3.1-21.7-10.7-27.9-21.3
					c-6.2-10.6-7.8-22.9-4.7-34.8l69.3-261.9c5.3-20.1,23.5-34.1,44.3-34.1c4,0,7.9,0.5,11.8,1.5l180.9,47.9
					c11.8,3.1,21.7,10.7,27.9,21.3c6.2,10.6,7.8,22.9,4.7,34.8l-69.3,261.9C348.5,437.5,330.3,451.5,309.6,451.5z M198,67.9
					c-12.7,0-23.8,8.6-27,20.8l-69.3,261.9c-1.9,7.2-0.9,14.8,2.9,21.2c3.8,6.5,9.8,11.1,17,13l180.9,47.9c2.4,0.6,4.8,0.9,7.2,0.9
					c12.7,0,23.8-8.6,27-20.8l69.3-261.9c1.9-7.2,0.9-14.8-2.9-21.2c-3.8-6.5-9.8-11.1-17-13L205.1,68.9
					C202.8,68.2,200.4,67.9,198,67.9z"/>
			</g>
		</g>
	</g>
	<g>
		<g>
			<g>
				<path fill="#E6E7E8" d="M305.3,451.6l-167.5-83.3c-18.3-9.1-25.7-31.2-16.6-49.5L241.8,76.3c9.1-18.3,31.2-25.7,49.5-16.6
					L458.8,143c18.3,9.1,25.7,31.2,16.6,49.5L354.8,435C345.7,453.3,323.5,460.7,305.3,451.6z"/>
			</g>
		</g>
		<g>
			<g>
				<path fill="#414042" d="M321.3,464.8c-7.1,0-14-1.6-20.4-4.8l-167.5-83.3c-22.6-11.3-31.9-38.8-20.6-61.5L233.4,72.7
					c7.8-15.7,23.5-25.4,41.1-25.4c7.1,0,14,1.6,20.4,4.8l167.5,83.3c11,5.5,19.1,14.8,23,26.5c3.9,11.6,3,24-2.4,35L362.4,439.3
					C354.6,455,338.9,464.8,321.3,464.8z M274.5,65.1c-10.7,0-20.3,6-25.1,15.5L128.8,323.2c-6.9,13.8-1.2,30.7,12.6,37.5L308.9,444
					c3.9,1.9,8.1,2.9,12.4,2.9c10.7,0,20.3-6,25.1-15.5l120.6-242.5c6.9-13.8,1.2-30.7-12.6-37.5L286.9,68
					C283,66.1,278.8,65.1,274.5,65.1z"/>
			</g>
		</g>
		<g>
			<g>
				<g>
					<g>
						
							<rect x="261.3" y="86.2" transform="matrix(0.8954 0.4453 -0.4453 0.8954 80.4234 -106.6883)" fill="#D04527" width="11.9" height="63.2"/>
					</g>
				</g>
			</g>
			<g>
				<g>
					<g>
						
							<rect x="239.6" y="140.6" transform="matrix(0.8954 0.4453 -0.4453 0.8954 91.8543 -97.8306)" fill="#D04527" width="29.1" height="11.9"/>
					</g>
				</g>
			</g>
			<g>
				<g>
					<g>
						
							<rect x="267.8" y="84" transform="matrix(0.8954 0.4453 -0.4453 0.8954 69.601 -116.2802)" fill="#D04527" width="29.1" height="11.9"/>
					</g>
				</g>
			</g>
			<g>
				<g>
					<g>
						
							<rect x="287.5" y="87.9" transform="matrix(0.2659 0.964 -0.964 0.2659 329.1955 -196.2377)" fill="#D04527" width="11.9" height="60.3"/>
					</g>
				</g>
			</g>
			<g>
				<g>
					<g>
						
							<rect x="266.6" y="139.3" transform="matrix(0.2402 0.9707 -0.9707 0.2402 359.7269 -169.0178)" fill="#D04527" width="42.4" height="11.9"/>
					</g>
				</g>
			</g>
			<g>
				<g>
					<g>
						
							<rect x="302.7" y="101.4" transform="matrix(0.8954 0.4453 -0.4453 0.8954 80.9896 -130.0166)" fill="#D04527" width="29.1" height="11.9"/>
					</g>
				</g>
			</g>
			<g>
				<g>
					<g>
						
							<rect x="274.5" y="158" transform="matrix(0.8954 0.4453 -0.4453 0.8954 103.2429 -111.567)" fill="#D04527" width="29.1" height="11.9"/>
					</g>
				</g>
			</g>
		</g>
		<g>
			<g>
				<path fill="#D04527" d="M359,300.1l-23.6-93c-2.3-9.2-12.3-14.2-21.1-10.5l-88.4,37.3c-7.1,3-10.9,10.7-9,18.2l23.6,93
					c2.3,9.2,12.3,14.2,21.1,10.5l88.4-37.3C357.1,315.3,360.9,307.6,359,300.1z"/>
			</g>
		</g>
	</g>
</g>
</svg>
