<?xml version="1.0" encoding="utf-8"?>
<!-- Generator: Adobe Illustrator 18.0.0, SVG Export Plug-In . SVG Version: 6.00 Build 0)  -->
<!DOCTYPE svg PUBLIC "-//W3C//DTD SVG 1.1//EN" "http://www.w3.org/Graphics/SVG/1.1/DTD/svg11.dtd">
<svg version="1.1" id="Layer_1" xmlns="http://www.w3.org/2000/svg" xmlns:xlink="http://www.w3.org/1999/xlink" x="0px" y="0px"
	 viewBox="0 0 512 512" enable-background="new 0 0 512 512" xml:space="preserve">
<g>
	<g>
		<g>
			<g>
				<g>
					<path fill="#4176AD" d="M226.3,286.8c-18.4-4.7-40.1-7.3-63.2-7.3s-44.7,2.7-63.2,7.3H41v43.6c0,28.1,54.7,50.9,122.2,50.9
						c67.5,0,122.2-22.8,122.2-50.9v-43.6H226.3z"/>
				</g>
			</g>
			<g>
				<g>
					<path fill="#E6E7E8" d="M98.1,329.9v43.6h0c-10.9-2.9-20.7-6.5-29-10.6v-43.6C77.4,323.5,87.2,327.1,98.1,329.9z"/>
				</g>
			</g>
			<g>
				<g>
					<path fill="#E6E7E8" d="M182.8,337.1v43.6c-6.4,0.4-13,0.7-19.7,0.7s-13.2-0.2-19.6-0.7v-43.6h0c6.4,0.4,12.9,0.7,19.6,0.7
						S176.4,337.5,182.8,337.1L182.8,337.1z"/>
				</g>
			</g>
			<g>
				<g>
					<path fill="#E6E7E8" d="M258.2,318.8l-0.1,43.7c-8,4.1-17.4,7.7-28.1,10.6v-43.6C240.7,326.5,250.2,323,258.2,318.8
						L258.2,318.8z"/>
				</g>
			</g>
			<g>
				<g>
					<path fill="#414042" d="M163.2,390.3c-74.7,0-131.1-25.7-131.1-59.9v-43.6c0-4.9,4-8.9,8.9-8.9h57.9
						c19.5-4.8,41.6-7.3,64.3-7.3s44.8,2.5,64.3,7.3h57.9c4.9,0,8.9,4,8.9,8.9v43.6C294.3,364.6,237.9,390.3,163.2,390.3z
						 M49.9,295.7v34.7c0,19.9,46.5,42,113.3,42s113.3-22.1,113.3-42v-34.7h-50.1c-0.7,0-1.5-0.1-2.2-0.3c-18.3-4.6-39.4-7.1-61-7.1
						s-42.7,2.4-61,7.1c-0.7,0.2-1.4,0.3-2.2,0.3H49.9z"/>
				</g>
			</g>
			<g>
				<g>
					<ellipse fill="#4176AD" cx="163.2" cy="286.8" rx="122.2" ry="50.9"/>
				</g>
			</g>
			<g>
				<g>
					<g>
						<g>
							<path fill="#E6E7E8" d="M182.8,244.8l-3.7,11.5c-5.2-0.4-10.5-0.6-15.9-0.6c-5.4,0-10.8,0.2-15.9,0.6l-3.7-11.5
								c6.4-0.4,12.9-0.6,19.6-0.6C169.9,244.2,176.4,244.4,182.8,244.8z"/>
						</g>
					</g>
				</g>
				<g>
					<g>
						<g>
							<path fill="#E6E7E8" d="M182.8,328.8c-6.4,0.4-12.9,0.6-19.6,0.6c-6.7,0-13.3-0.2-19.6-0.6l3.7-11.5
								c5.2,0.4,10.5,0.6,15.9,0.6c5.4,0,10.7-0.2,15.9-0.6L182.8,328.8z"/>
						</g>
					</g>
				</g>
				<g>
					<g>
						<g>
							<path fill="#E6E7E8" d="M116.2,261.1c-8.9,2.2-16.5,5.1-22.5,8.3l-24.5-7.1c3.7-2,8-3.8,12.7-5.6c4.7-1.8,9.8-3.3,15.1-4.7
								L116.2,261.1z"/>
						</g>
					</g>
				</g>
				<g>
					<g>
						<g>
							<path fill="#E6E7E8" d="M257.2,311.4c-3.7,2-8,3.8-12.7,5.6c-4.7,1.8-9.8,3.3-15.1,4.7l-19.2-9.1c8.9-2.2,16.5-5.1,22.5-8.3
								L257.2,311.4z"/>
						</g>
					</g>
				</g>
				<g>
					<g>
						<g>
							<path fill="#E6E7E8" d="M79.2,286.8c0,2,0.5,4,1.5,5.9l-30.9,1.4c-1.1-2.4-1.7-4.8-1.7-7.3c0-2.5,0.6-4.9,1.7-7.3l30.9,1.4
								C79.7,282.8,79.2,284.8,79.2,286.8z"/>
						</g>
					</g>
				</g>
				<g>
					<g>
						<g>
							<path fill="#E6E7E8" d="M278.2,286.8c0,2.5-0.6,4.9-1.7,7.3l-30.9-1.4c1-1.9,1.5-3.9,1.5-5.9c0-2-0.5-4-1.5-5.9l30.9-1.4
								C277.6,281.9,278.2,284.3,278.2,286.8z"/>
						</g>
					</g>
				</g>
				<g>
					<g>
						<g>
							<path fill="#E6E7E8" d="M116.2,312.6l-19.3,9.1c-5.3-1.4-10.3-3-15.1-4.7c-4.7-1.8-9-3.6-12.7-5.6l24.5-7.1
								C99.7,307.5,107.3,310.4,116.2,312.6z"/>
						</g>
					</g>
				</g>
				<g>
					<g>
						<g>
							<path fill="#E6E7E8" d="M257.2,262.3l-24.5,7.1c-6-3.3-13.6-6.1-22.5-8.3l19.2-9.1c5.3,1.4,10.3,3,15.1,4.7
								C249.2,258.4,253.5,260.3,257.2,262.3z"/>
						</g>
					</g>
				</g>
			</g>
			<g>
				<g>
					<path fill="#414042" d="M163.2,346.7c-74.7,0-131.1-25.7-131.1-59.9c0-34.1,56.4-59.9,131.1-59.9s131.1,25.7,131.1,59.9
						C294.3,320.9,237.9,346.7,163.2,346.7z M163.2,244.8c-66.7,0-113.3,22.1-113.3,42c0,19.9,46.5,42,113.3,42s113.3-22.1,113.3-42
						C276.4,267,229.9,244.8,163.2,244.8z"/>
				</g>
			</g>
			<g>
				<g>
					<ellipse fill="#E6E7E8" cx="163.2" cy="286.9" rx="61.3" ry="17.5"/>
				</g>
			</g>
			<g>
				<g>
					<path fill="#414042" d="M163.2,313.4c-7.2,0-70.2-0.7-70.2-26.5c0-25.7,63-26.5,70.2-26.5s70.2,0.7,70.2,26.5
						C233.4,312.7,170.3,313.4,163.2,313.4z M112.4,286.9c6.1,3.6,23.7,8.6,50.8,8.6s44.7-5,50.8-8.6c-6.1-3.6-23.7-8.6-50.8-8.6
						S118.5,283.3,112.4,286.9z"/>
				</g>
			</g>
		</g>
		<g>
			<g>
				<g>
					<path fill="#4176AD" d="M226.3,235.4c-18.4-4.7-40.1-7.3-63.2-7.3s-44.7,2.7-63.2,7.3H41V279c0,28.1,54.7,50.9,122.2,50.9
						c67.5,0,122.2-22.8,122.2-50.9v-43.6H226.3z"/>
				</g>
			</g>
			<g>
				<g>
					<path fill="#E6E7E8" d="M98.1,278.5v43.6h0c-10.9-2.9-20.7-6.5-29-10.6v-43.6C77.4,272,87.2,275.6,98.1,278.5z"/>
				</g>
			</g>
			<g>
				<g>
					<path fill="#E6E7E8" d="M182.8,285.6v43.6c-6.4,0.4-13,0.7-19.7,0.7s-13.2-0.2-19.6-0.7v-43.6h0c6.4,0.4,12.9,0.7,19.6,0.7
						S176.4,286.1,182.8,285.6L182.8,285.6z"/>
				</g>
			</g>
			<g>
				<g>
					<path fill="#E6E7E8" d="M258.2,267.4l-0.1,43.7c-8,4.1-17.4,7.7-28.1,10.6V278C240.7,275.1,250.2,271.5,258.2,267.4
						L258.2,267.4z"/>
				</g>
			</g>
			<g>
				<g>
					<path fill="#414042" d="M163.1,338.8C88.4,338.8,32,313.1,32,279v-43.6c0-4.9,4-8.9,8.9-8.9h57.9c19.4-4.8,41.6-7.3,64.3-7.3
						c22.6,0,44.8,2.5,64.3,7.3h57.9c4.9,0,8.9,4,8.9,8.9V279C294.2,313.1,237.9,338.8,163.1,338.8z M49.9,244.3V279
						c0,19.9,46.5,42,113.3,42s113.3-22.1,113.3-42v-34.7h-50.1c-0.7,0-1.5-0.1-2.2-0.3c-18.3-4.6-39.4-7.1-61-7.1s-42.7,2.4-61,7.1
						c-0.7,0.2-1.4,0.3-2.2,0.3H49.9z"/>
				</g>
			</g>
			<g>
				<g>
					<ellipse fill="#4176AD" cx="163.1" cy="235.4" rx="122.2" ry="50.9"/>
				</g>
			</g>
			<g>
				<g>
					<g>
						<g>
							<path fill="#E6E7E8" d="M182.8,193.4l-3.7,11.5c-5.2-0.4-10.5-0.6-15.9-0.6c-5.4,0-10.8,0.2-15.9,0.6l-3.7-11.5
								c6.4-0.4,12.9-0.6,19.6-0.6C169.8,192.7,176.4,192.9,182.8,193.4z"/>
						</g>
					</g>
				</g>
				<g>
					<g>
						<g>
							<path fill="#E6E7E8" d="M182.8,277.4c-6.4,0.4-12.9,0.6-19.6,0.6c-6.7,0-13.3-0.2-19.6-0.6l3.7-11.5
								c5.2,0.4,10.5,0.6,15.9,0.6c5.4,0,10.7-0.2,15.9-0.6L182.8,277.4z"/>
						</g>
					</g>
				</g>
				<g>
					<g>
						<g>
							<path fill="#E6E7E8" d="M116.1,209.6c-8.9,2.2-16.5,5.1-22.5,8.3l-24.5-7.1c3.7-2,8-3.8,12.7-5.6c4.7-1.8,9.8-3.3,15.1-4.7
								L116.1,209.6z"/>
						</g>
					</g>
				</g>
				<g>
					<g>
						<g>
							<path fill="#E6E7E8" d="M257.2,259.9c-3.7,2-8,3.8-12.7,5.6c-4.7,1.8-9.8,3.3-15.1,4.7l-19.2-9.1c8.9-2.2,16.5-5.1,22.5-8.3
								L257.2,259.9z"/>
						</g>
					</g>
				</g>
				<g>
					<g>
						<g>
							<path fill="#E6E7E8" d="M79.2,235.4c0,2,0.5,4,1.5,5.9l-30.9,1.4c-1.1-2.4-1.7-4.8-1.7-7.3c0-2.5,0.6-4.9,1.7-7.3l30.9,1.4
								C79.7,231.4,79.2,233.3,79.2,235.4z"/>
						</g>
					</g>
				</g>
				<g>
					<g>
						<g>
							<path fill="#E6E7E8" d="M278.2,235.4c0,2.5-0.6,4.9-1.7,7.3l-30.9-1.4c1-1.9,1.5-3.9,1.5-5.9c0-2-0.5-4-1.5-5.9l30.9-1.4
								C277.6,230.4,278.2,232.9,278.2,235.4z"/>
						</g>
					</g>
				</g>
				<g>
					<g>
						<g>
							<path fill="#E6E7E8" d="M116.1,261.1l-19.3,9.1c-5.3-1.4-10.3-3-15.1-4.7s-9-3.6-12.7-5.6l24.5-7.1
								C99.6,256.1,107.3,258.9,116.1,261.1z"/>
						</g>
					</g>
				</g>
				<g>
					<g>
						<g>
							<path fill="#E6E7E8" d="M257.2,210.8l-24.5,7.1c-6-3.3-13.6-6.1-22.5-8.3l19.2-9.1c5.3,1.4,10.3,3,15.1,4.7
								C249.2,207,253.5,208.8,257.2,210.8z"/>
						</g>
					</g>
				</g>
			</g>
			<g>
				<g>
					<path fill="#414042" d="M163.1,295.2C88.4,295.2,32,269.5,32,235.4c0-34.1,56.4-59.9,131.1-59.9c74.7,0,131.1,25.7,131.1,59.9
						C294.2,269.5,237.9,295.2,163.1,295.2z M163.1,193.3c-66.7,0-113.3,22.1-113.3,42s46.5,42,113.3,42s113.3-22.1,113.3-42
						S229.9,193.3,163.1,193.3z"/>
				</g>
			</g>
			<g>
				<g>
					<ellipse fill="#E6E7E8" cx="163.1" cy="235.5" rx="61.3" ry="17.5"/>
				</g>
			</g>
			<g>
				<g>
					<path fill="#414042" d="M163.1,261.9c-7.2,0-70.2-0.7-70.2-26.5c0-25.7,63-26.5,70.2-26.5s70.2,0.7,70.2,26.5
						C233.4,261.2,170.3,261.9,163.1,261.9z M112.4,235.5c6.1,3.6,23.7,8.6,50.8,8.6c27.1,0,44.7-5,50.8-8.6
						c-6.1-3.6-23.7-8.6-50.8-8.6C136,226.9,118.5,231.9,112.4,235.5z"/>
				</g>
			</g>
		</g>
	</g>
	<g>
		<g>
			<g>
				<g>
					<path fill="#F15A22" d="M375.1,311c-18.4-4.7-40.1-7.3-63.2-7.3c-23.1,0-44.7,2.7-63.2,7.3h-59v43.6
						c0,28.1,54.7,50.9,122.2,50.9c67.5,0,122.2-22.8,122.2-50.9V311H375.1z"/>
				</g>
			</g>
			<g>
				<g>
					<path fill="#E6E7E8" d="M246.9,354.2v43.6h0c-10.9-2.9-20.7-6.5-29-10.6v-43.6C226.1,347.7,235.9,351.3,246.9,354.2z"/>
				</g>
			</g>
			<g>
				<g>
					<path fill="#E6E7E8" d="M331.6,361.3v43.6c-6.4,0.4-13,0.7-19.7,0.7c-6.7,0-13.2-0.2-19.6-0.7v-43.6h0
						c6.4,0.4,12.9,0.7,19.6,0.7C318.6,362,325.1,361.7,331.6,361.3L331.6,361.3z"/>
				</g>
			</g>
			<g>
				<g>
					<path fill="#E6E7E8" d="M406.9,343.1l-0.1,43.7c-8,4.1-17.4,7.7-28.1,10.6v-43.6C389.5,350.8,398.9,347.2,406.9,343.1
						L406.9,343.1z"/>
				</g>
			</g>
			<g>
				<g>
					<path fill="#414042" d="M311.9,414.5c-74.7,0-131.1-25.7-131.1-59.9V311c0-4.9,4-8.9,8.9-8.9h57.9c19.5-4.8,41.6-7.3,64.3-7.3
						s44.8,2.5,64.3,7.3h57.9c4.9,0,8.9,4,8.9,8.9v43.6C443,388.8,386.6,414.5,311.9,414.5z M198.6,320v34.7
						c0,19.9,46.5,42,113.3,42s113.3-22.1,113.3-42V320h-50.1c-0.7,0-1.5-0.1-2.2-0.3c-18.3-4.6-39.4-7.1-61-7.1s-42.7,2.4-61,7.1
						c-0.7,0.2-1.4,0.3-2.2,0.3H198.6z"/>
				</g>
			</g>
			<g>
				<g>
					<ellipse fill="#F15A22" cx="311.9" cy="311" rx="122.2" ry="50.9"/>
				</g>
			</g>
			<g>
				<g>
					<g>
						<g>
							<path fill="#E6E7E8" d="M331.5,269l-3.7,11.5c-5.2-0.4-10.5-0.6-15.9-0.6c-5.4,0-10.8,0.2-15.9,0.6l-3.7-11.5
								c6.4-0.4,12.9-0.6,19.6-0.6C318.6,268.4,325.2,268.6,331.5,269z"/>
						</g>
					</g>
				</g>
				<g>
					<g>
						<g>
							<path fill="#E6E7E8" d="M331.5,353c-6.4,0.4-12.9,0.6-19.6,0.6c-6.7,0-13.3-0.2-19.6-0.6l3.7-11.5c5.2,0.4,10.5,0.6,15.9,0.6
								c5.4,0,10.7-0.2,15.9-0.6L331.5,353z"/>
						</g>
					</g>
				</g>
				<g>
					<g>
						<g>
							<path fill="#E6E7E8" d="M264.9,285.3c-8.9,2.2-16.5,5.1-22.5,8.3l-24.5-7.1c3.7-2,8-3.8,12.7-5.6c4.7-1.8,9.8-3.3,15.1-4.7
								L264.9,285.3z"/>
						</g>
					</g>
				</g>
				<g>
					<g>
						<g>
							<path fill="#E6E7E8" d="M405.9,335.6c-3.7,2-8,3.8-12.7,5.6c-4.7,1.8-9.8,3.3-15.1,4.7l-19.2-9.1c8.9-2.2,16.5-5.1,22.5-8.3
								L405.9,335.6z"/>
						</g>
					</g>
				</g>
				<g>
					<g>
						<g>
							<path fill="#E6E7E8" d="M228,311c0,2,0.5,4,1.5,5.9l-30.9,1.4c-1.1-2.4-1.7-4.8-1.7-7.3s0.6-4.9,1.7-7.3l30.9,1.4
								C228.5,307.1,228,309,228,311z"/>
						</g>
					</g>
				</g>
				<g>
					<g>
						<g>
							<path fill="#E6E7E8" d="M426.9,311c0,2.5-0.6,4.9-1.7,7.3l-30.9-1.4c1-1.9,1.5-3.9,1.5-5.9s-0.5-4-1.5-5.9l30.9-1.4
								C426.4,306.1,426.9,308.6,426.9,311z"/>
						</g>
					</g>
				</g>
				<g>
					<g>
						<g>
							<path fill="#E6E7E8" d="M264.9,336.8l-19.3,9.1c-5.3-1.4-10.3-3-15.1-4.7c-4.7-1.8-9-3.6-12.7-5.6l24.5-7.1
								C248.4,331.7,256.1,334.6,264.9,336.8z"/>
						</g>
					</g>
				</g>
				<g>
					<g>
						<g>
							<path fill="#E6E7E8" d="M405.9,286.5l-24.5,7.1c-6-3.3-13.6-6.1-22.5-8.3l19.2-9.1c5.3,1.4,10.3,3,15.1,4.7
								C398,282.7,402.2,284.5,405.9,286.5z"/>
						</g>
					</g>
				</g>
			</g>
			<g>
				<g>
					<path fill="#414042" d="M311.9,370.9c-74.7,0-131.1-25.7-131.1-59.9c0-34.1,56.4-59.9,131.1-59.9c74.7,0,131.1,25.7,131.1,59.9
						C443,345.2,386.6,370.9,311.9,370.9z M311.9,269c-66.7,0-113.3,22.1-113.3,42s46.5,42,113.3,42s113.3-22.1,113.3-42
						S378.7,269,311.9,269z"/>
				</g>
			</g>
			<g>
				<g>
					<ellipse fill="#E6E7E8" cx="311.9" cy="311.2" rx="61.3" ry="17.5"/>
				</g>
			</g>
			<g>
				<g>
					<path fill="#414042" d="M311.9,337.6c-7.2,0-70.2-0.7-70.2-26.5c0-25.7,63-26.5,70.2-26.5c7.2,0,70.2,0.7,70.2,26.5
						C382.1,336.9,319.1,337.6,311.9,337.6z M261.2,311.2c6.1,3.6,23.7,8.6,50.8,8.6c27.1,0,44.7-5,50.8-8.6
						c-6.1-3.6-23.7-8.6-50.8-8.6C284.8,302.5,267.2,307.5,261.2,311.2z"/>
				</g>
			</g>
		</g>
		<g>
			<g>
				<g>
					<path fill="#F15A22" d="M361.3,261.7c-18.4-4.7-40.1-7.3-63.2-7.3s-44.7,2.7-63.2,7.3h-59v43.6c0,28.1,54.7,50.9,122.2,50.9
						c67.5,0,122.2-22.8,122.2-50.9v-43.6H361.3z"/>
				</g>
			</g>
			<g>
				<g>
					<path fill="#E6E7E8" d="M233.1,304.8v43.6h0c-10.9-2.9-20.7-6.5-29-10.6v-43.6C212.4,298.4,222.2,302,233.1,304.8z"/>
				</g>
			</g>
			<g>
				<g>
					<path fill="#E6E7E8" d="M317.8,312v43.6c-6.4,0.4-13,0.7-19.7,0.7c-6.7,0-13.2-0.2-19.6-0.7V312h0c6.4,0.4,12.9,0.7,19.6,0.7
						C304.8,312.6,311.4,312.4,317.8,312L317.8,312z"/>
				</g>
			</g>
			<g>
				<g>
					<path fill="#E6E7E8" d="M393.2,293.7l-0.1,43.7c-8,4.1-17.4,7.7-28.1,10.6v-43.6C375.7,301.4,385.2,297.8,393.2,293.7
						L393.2,293.7z"/>
				</g>
			</g>
			<g>
				<g>
					<path fill="#414042" d="M298.2,365.2c-74.7,0-131.1-25.7-131.1-59.9v-43.6c0-4.9,4-8.9,8.9-8.9h57.9
						c19.5-4.8,41.6-7.3,64.3-7.3c22.6,0,44.8,2.5,64.3,7.3h57.9c4.9,0,8.9,4,8.9,8.9v43.6C429.3,339.4,372.9,365.2,298.2,365.2z
						 M184.9,270.6v34.7c0,19.9,46.5,42,113.3,42s113.3-22.1,113.3-42v-34.7h-50.1c-0.7,0-1.5-0.1-2.2-0.3
						c-18.3-4.6-39.4-7.1-61-7.1c-21.6,0-42.7,2.4-61,7.1c-0.7,0.2-1.4,0.3-2.2,0.3H184.9z"/>
				</g>
			</g>
			<g>
				<g>
					<ellipse fill="#F15A22" cx="298.2" cy="261.7" rx="122.2" ry="50.9"/>
				</g>
			</g>
			<g>
				<g>
					<g>
						<g>
							<path fill="#E6E7E8" d="M317.8,219.7l-3.7,11.5c-5.2-0.4-10.5-0.6-15.9-0.6c-5.4,0-10.8,0.2-15.9,0.6l-3.7-11.5
								c6.4-0.4,12.9-0.6,19.6-0.6C304.9,219.1,311.4,219.3,317.8,219.7z"/>
						</g>
					</g>
				</g>
				<g>
					<g>
						<g>
							<path fill="#E6E7E8" d="M317.8,303.7c-6.4,0.4-12.9,0.6-19.6,0.6c-6.7,0-13.3-0.2-19.6-0.6l3.7-11.5
								c5.2,0.4,10.5,0.6,15.9,0.6c5.4,0,10.7-0.2,15.9-0.6L317.8,303.7z"/>
						</g>
					</g>
				</g>
				<g>
					<g>
						<g>
							<path fill="#E6E7E8" d="M251.2,235.9c-8.9,2.2-16.5,5.1-22.5,8.3l-24.5-7.1c3.7-2,8-3.8,12.7-5.6c4.7-1.8,9.8-3.3,15.1-4.7
								L251.2,235.9z"/>
						</g>
					</g>
				</g>
				<g>
					<g>
						<g>
							<path fill="#E6E7E8" d="M392.2,286.3c-3.7,2-8,3.8-12.7,5.6c-4.7,1.8-9.8,3.3-15.1,4.7l-19.2-9.1c8.9-2.2,16.5-5.1,22.5-8.3
								L392.2,286.3z"/>
						</g>
					</g>
				</g>
				<g>
					<g>
						<g>
							<path fill="#E6E7E8" d="M214.2,261.7c0,2,0.5,4,1.5,5.9l-30.9,1.4c-1.1-2.4-1.7-4.8-1.7-7.3c0-2.5,0.6-4.9,1.7-7.3l30.9,1.4
								C214.8,257.7,214.2,259.7,214.2,261.7z"/>
						</g>
					</g>
				</g>
				<g>
					<g>
						<g>
							<path fill="#E6E7E8" d="M413.2,261.7c0,2.5-0.6,4.9-1.7,7.3l-30.9-1.4c1-1.9,1.5-3.9,1.5-5.9c0-2-0.5-4-1.5-5.9l30.9-1.4
								C412.6,256.8,413.2,259.2,413.2,261.7z"/>
						</g>
					</g>
				</g>
				<g>
					<g>
						<g>
							<path fill="#E6E7E8" d="M251.2,287.5l-19.3,9.1c-5.3-1.4-10.3-3-15.1-4.7c-4.7-1.8-9-3.6-12.7-5.6l24.5-7.1
								C234.7,282.4,242.3,285.2,251.2,287.5z"/>
						</g>
					</g>
				</g>
				<g>
					<g>
						<g>
							<path fill="#E6E7E8" d="M392.2,237.1l-24.5,7.1c-6-3.3-13.6-6.1-22.5-8.3l19.2-9.1c5.3,1.4,10.3,3,15.1,4.7
								C384.2,233.3,388.5,235.2,392.2,237.1z"/>
						</g>
					</g>
				</g>
			</g>
			<g>
				<g>
					<path fill="#414042" d="M298.2,321.6c-74.7,0-131.1-25.7-131.1-59.9c0-34.1,56.4-59.9,131.1-59.9c74.7,0,131.1,25.7,131.1,59.9
						C429.3,295.8,372.9,321.6,298.2,321.6z M298.2,219.7c-66.7,0-113.3,22.1-113.3,42c0,19.9,46.5,42,113.3,42s113.3-22.1,113.3-42
						C411.4,241.8,364.9,219.7,298.2,219.7z"/>
				</g>
			</g>
			<g>
				<g>
					<ellipse fill="#E6E7E8" cx="298.2" cy="261.8" rx="61.3" ry="17.5"/>
				</g>
			</g>
			<g>
				<g>
					<path fill="#414042" d="M298.2,288.3c-7.2,0-70.2-0.7-70.2-26.5c0-25.7,63-26.5,70.2-26.5c7.2,0,70.2,0.7,70.2,26.5
						C368.4,287.5,305.3,288.3,298.2,288.3z M247.4,261.8c6.1,3.6,23.7,8.6,50.8,8.6c27.1,0,44.7-5,50.8-8.6
						c-6.1-3.6-23.7-8.6-50.8-8.6C271.1,253.2,253.5,258.2,247.4,261.8z"/>
				</g>
			</g>
		</g>
		<g>
			<g>
				<g>
					<path fill="#F15A22" d="M412,200.8c-18.4-4.7-40.1-7.3-63.2-7.3c-23.1,0-44.7,2.7-63.2,7.3h-59v43.6
						c0,28.1,54.7,50.9,122.2,50.9c67.5,0,122.2-22.8,122.2-50.9v-43.6H412z"/>
				</g>
			</g>
			<g>
				<g>
					<path fill="#E6E7E8" d="M283.8,243.9v43.6h0c-10.9-2.9-20.7-6.5-29-10.6v-43.6C263.1,237.4,272.9,241,283.8,243.9z"/>
				</g>
			</g>
			<g>
				<g>
					<path fill="#E6E7E8" d="M368.5,251.1v43.6c-6.4,0.4-13,0.7-19.7,0.7c-6.7,0-13.2-0.2-19.6-0.7v-43.6h0
						c6.4,0.4,12.9,0.7,19.6,0.7C355.5,251.7,362.1,251.5,368.5,251.1L368.5,251.1z"/>
				</g>
			</g>
			<g>
				<g>
					<path fill="#E6E7E8" d="M443.9,232.8l-0.1,43.7c-8,4.1-17.4,7.7-28.1,10.6v-43.6C426.4,240.5,435.9,236.9,443.9,232.8
						L443.9,232.8z"/>
				</g>
			</g>
			<g>
				<g>
					<path fill="#414042" d="M348.9,304.2c-74.7,0-131.1-25.7-131.1-59.9v-43.6c0-4.9,4-8.9,8.9-8.9h57.9
						c19.4-4.8,41.6-7.3,64.3-7.3s44.8,2.5,64.3,7.3H471c4.9,0,8.9,4,8.9,8.9v43.6C480,278.5,423.6,304.2,348.9,304.2z M235.6,209.7
						v34.7c0,19.9,46.5,42,113.3,42s113.3-22.1,113.3-42v-34.7H412c-0.7,0-1.5-0.1-2.2-0.3c-18.3-4.6-39.4-7.1-61-7.1
						s-42.7,2.4-61,7.1c-0.7,0.2-1.4,0.3-2.2,0.3H235.6z"/>
				</g>
			</g>
			<g>
				<g>
					<ellipse fill="#F15A22" cx="348.9" cy="200.8" rx="122.2" ry="50.9"/>
				</g>
			</g>
			<g>
				<g>
					<g>
						<g>
							<path fill="#E6E7E8" d="M368.5,158.8l-3.7,11.5c-5.2-0.4-10.5-0.6-15.9-0.6c-5.4,0-10.8,0.2-15.9,0.6l-3.7-11.5
								c6.4-0.4,12.9-0.6,19.6-0.6C355.6,158.2,362.1,158.4,368.5,158.8z"/>
						</g>
					</g>
				</g>
				<g>
					<g>
						<g>
							<path fill="#E6E7E8" d="M368.5,242.8c-6.4,0.4-12.9,0.6-19.6,0.6c-6.7,0-13.3-0.2-19.6-0.6l3.7-11.5
								c5.2,0.4,10.5,0.6,15.9,0.6c5.4,0,10.7-0.2,15.9-0.6L368.5,242.8z"/>
						</g>
					</g>
				</g>
				<g>
					<g>
						<g>
							<path fill="#E6E7E8" d="M301.9,175c-8.9,2.2-16.5,5.1-22.5,8.3l-24.5-7.1c3.7-2,8-3.8,12.7-5.6c4.7-1.8,9.8-3.3,15.1-4.7
								L301.9,175z"/>
						</g>
					</g>
				</g>
				<g>
					<g>
						<g>
							<path fill="#E6E7E8" d="M442.9,225.3c-3.7,2-8,3.8-12.7,5.6c-4.7,1.8-9.8,3.3-15.1,4.7l-19.2-9.1c8.9-2.2,16.5-5.1,22.5-8.3
								L442.9,225.3z"/>
						</g>
					</g>
				</g>
				<g>
					<g>
						<g>
							<path fill="#E6E7E8" d="M264.9,200.8c0,2,0.5,4,1.5,5.9l-30.9,1.4c-1.1-2.4-1.7-4.8-1.7-7.3c0-2.5,0.6-4.9,1.7-7.3l30.9,1.4
								C265.4,196.8,264.9,198.8,264.9,200.8z"/>
						</g>
					</g>
				</g>
				<g>
					<g>
						<g>
							<path fill="#E6E7E8" d="M463.9,200.8c0,2.5-0.6,4.9-1.7,7.3l-30.9-1.4c1-1.9,1.5-3.9,1.5-5.9c0-2-0.5-4-1.5-5.9l30.9-1.4
								C463.3,195.9,463.9,198.3,463.9,200.8z"/>
						</g>
					</g>
				</g>
				<g>
					<g>
						<g>
							<path fill="#E6E7E8" d="M301.9,226.5l-19.3,9.1c-5.3-1.4-10.3-3-15.1-4.7c-4.7-1.8-9-3.6-12.7-5.6l24.5-7.1
								C285.4,221.5,293,224.3,301.9,226.5z"/>
						</g>
					</g>
				</g>
				<g>
					<g>
						<g>
							<path fill="#E6E7E8" d="M442.9,176.2l-24.5,7.1c-6-3.3-13.6-6.1-22.5-8.3l19.2-9.1c5.3,1.4,10.3,3,15.1,4.7
								C434.9,172.4,439.2,174.3,442.9,176.2z"/>
						</g>
					</g>
				</g>
			</g>
			<g>
				<g>
					<path fill="#414042" d="M348.9,260.6c-74.7,0-131.1-25.7-131.1-59.9c0-34.1,56.4-59.9,131.1-59.9c74.7,0,131.1,25.7,131.1,59.9
						C480,234.9,423.6,260.6,348.9,260.6z M348.9,158.8c-66.7,0-113.3,22.1-113.3,42s46.5,42,113.3,42s113.3-22.1,113.3-42
						S415.6,158.8,348.9,158.8z"/>
				</g>
			</g>
			<g>
				<g>
					<ellipse fill="#E6E7E8" cx="348.9" cy="200.9" rx="61.3" ry="17.5"/>
				</g>
			</g>
			<g>
				<g>
					<path fill="#414042" d="M348.9,227.4c-7.2,0-70.2-0.7-70.2-26.5c0-25.7,63-26.5,70.2-26.5c7.2,0,70.2,0.7,70.2,26.5
						C419.1,226.6,356,227.4,348.9,227.4z M298.1,200.9c6.1,3.6,23.7,8.6,50.8,8.6s44.7-5,50.8-8.6c-6.1-3.6-23.7-8.6-50.8-8.6
						S304.2,197.3,298.1,200.9z"/>
				</g>
			</g>
		</g>
		<g>
			<g>
				<g>
					<path fill="#F15A22" d="M399.8,157.4c-18.4-4.7-40.1-7.3-63.2-7.3c-23.1,0-44.7,2.7-63.2,7.3h-59V201
						c0,28.1,54.7,50.9,122.2,50.9c67.5,0,122.2-22.8,122.2-50.9v-43.6H399.8z"/>
				</g>
			</g>
			<g>
				<g>
					<path fill="#E6E7E8" d="M271.6,200.5v43.6h0c-10.9-2.9-20.7-6.5-29-10.6v-43.6C250.8,194,260.6,197.6,271.6,200.5z"/>
				</g>
			</g>
			<g>
				<g>
					<path fill="#E6E7E8" d="M356.2,207.6v43.6c-6.4,0.4-13,0.7-19.7,0.7c-6.7,0-13.2-0.2-19.6-0.7v-43.6h0
						c6.4,0.4,12.9,0.7,19.6,0.7C343.3,208.3,349.8,208.1,356.2,207.6L356.2,207.6z"/>
				</g>
			</g>
			<g>
				<g>
					<path fill="#E6E7E8" d="M431.6,189.4l-0.1,43.7c-8,4.1-17.4,7.7-28.1,10.6V200C414.1,197.1,423.6,193.5,431.6,189.4
						L431.6,189.4z"/>
				</g>
			</g>
			<g>
				<g>
					<path fill="#414042" d="M336.6,260.8c-74.7,0-131.1-25.7-131.1-59.9v-43.6c0-4.9,4-8.9,8.9-8.9h57.9
						c19.5-4.8,41.6-7.3,64.3-7.3s44.8,2.5,64.3,7.3h57.9c4.9,0,8.9,4,8.9,8.9V201C467.7,235.1,411.3,260.8,336.6,260.8z
						 M223.3,166.3V201c0,19.9,46.5,42,113.3,42s113.3-22.1,113.3-42v-34.7h-50.1c-0.7,0-1.5-0.1-2.2-0.3c-18.3-4.6-39.4-7.1-61-7.1
						c-21.6,0-42.7,2.4-61,7.1c-0.7,0.2-1.4,0.3-2.2,0.3H223.3z"/>
				</g>
			</g>
			<g>
				<g>
					<ellipse fill="#F15A22" cx="336.6" cy="157.4" rx="122.2" ry="50.9"/>
				</g>
			</g>
			<g>
				<g>
					<g>
						<g>
							<path fill="#E6E7E8" d="M356.2,115.3l-3.7,11.5c-5.2-0.4-10.5-0.6-15.9-0.6c-5.4,0-10.8,0.2-15.9,0.6l-3.7-11.5
								c6.4-0.4,12.9-0.6,19.6-0.6C343.3,114.7,349.8,114.9,356.2,115.3z"/>
						</g>
					</g>
				</g>
				<g>
					<g>
						<g>
							<path fill="#E6E7E8" d="M356.2,199.4c-6.4,0.4-12.9,0.6-19.6,0.6c-6.7,0-13.3-0.2-19.6-0.6l3.7-11.5
								c5.2,0.4,10.5,0.6,15.9,0.6c5.4,0,10.7-0.2,15.9-0.6L356.2,199.4z"/>
						</g>
					</g>
				</g>
				<g>
					<g>
						<g>
							<path fill="#E6E7E8" d="M289.6,131.6c-8.9,2.2-16.5,5.1-22.5,8.3l-24.5-7.1c3.7-2,8-3.8,12.7-5.6s9.8-3.3,15.1-4.7
								L289.6,131.6z"/>
						</g>
					</g>
				</g>
				<g>
					<g>
						<g>
							<path fill="#E6E7E8" d="M430.6,181.9c-3.7,2-8,3.8-12.7,5.6c-4.7,1.8-9.8,3.3-15.1,4.7l-19.2-9.1c8.9-2.2,16.5-5.1,22.5-8.3
								L430.6,181.9z"/>
						</g>
					</g>
				</g>
				<g>
					<g>
						<g>
							<path fill="#E6E7E8" d="M252.7,157.4c0,2,0.5,4,1.5,5.9l-30.9,1.4c-1.1-2.4-1.7-4.8-1.7-7.3c0-2.5,0.6-4.9,1.7-7.3l30.9,1.4
								C253.2,153.4,252.7,155.3,252.7,157.4z"/>
						</g>
					</g>
				</g>
				<g>
					<g>
						<g>
							<path fill="#E6E7E8" d="M451.6,157.4c0,2.5-0.6,4.9-1.7,7.3l-30.9-1.4c1-1.9,1.5-3.9,1.5-5.9c0-2-0.5-4-1.5-5.9l30.9-1.4
								C451,152.4,451.6,154.9,451.6,157.4z"/>
						</g>
					</g>
				</g>
				<g>
					<g>
						<g>
							<path fill="#E6E7E8" d="M289.6,183.1l-19.3,9.1c-5.3-1.4-10.3-3-15.1-4.7c-4.7-1.8-9-3.6-12.7-5.6l24.5-7.1
								C273.1,178.1,280.7,180.9,289.6,183.1z"/>
						</g>
					</g>
				</g>
				<g>
					<g>
						<g>
							<path fill="#E6E7E8" d="M430.6,132.8l-24.5,7.1c-6-3.3-13.6-6.1-22.5-8.3l19.2-9.1c5.3,1.4,10.3,3,15.1,4.7
								C422.7,129,426.9,130.8,430.6,132.8z"/>
						</g>
					</g>
				</g>
			</g>
			<g>
				<g>
					<path fill="#414042" d="M336.6,217.2c-74.7,0-131.1-25.7-131.1-59.9c0-34.1,56.4-59.9,131.1-59.9s131.1,25.7,131.1,59.9
						C467.7,191.5,411.3,217.2,336.6,217.2z M336.6,115.3c-66.7,0-113.3,22.1-113.3,42s46.5,42,113.3,42s113.3-22.1,113.3-42
						S403.3,115.3,336.6,115.3z"/>
				</g>
			</g>
			<g>
				<g>
					<ellipse fill="#E6E7E8" cx="336.6" cy="157.5" rx="61.3" ry="17.5"/>
				</g>
			</g>
			<g>
				<g>
					<path fill="#414042" d="M336.6,183.9c-7.2,0-70.2-0.7-70.2-26.5c0-25.7,63-26.5,70.2-26.5c7.2,0,70.2,0.7,70.2,26.5
						C406.8,183.2,343.8,183.9,336.6,183.9z M285.8,157.5c6.1,3.6,23.7,8.6,50.8,8.6s44.7-5,50.8-8.6c-6.1-3.6-23.7-8.6-50.8-8.6
						S291.9,153.9,285.8,157.5z"/>
				</g>
			</g>
		</g>
	</g>
</g>
</svg>
