<?xml version="1.0" encoding="utf-8"?>
<!-- Generator: Adobe Illustrator 18.0.0, SVG Export Plug-In . SVG Version: 6.00 Build 0)  -->
<!DOCTYPE svg PUBLIC "-//W3C//DTD SVG 1.1//EN" "http://www.w3.org/Graphics/SVG/1.1/DTD/svg11.dtd">
<svg version="1.1" id="Layer_1" xmlns="http://www.w3.org/2000/svg" xmlns:xlink="http://www.w3.org/1999/xlink" x="0px" y="0px"
	 viewBox="0 0 512 512" enable-background="new 0 0 512 512" xml:space="preserve">
<g>
	<g>
		<g>
			<g>
				<g>
					<rect x="45.1" y="126.2" fill="#EBDEB4" width="435.9" height="219.6"/>
				</g>
			</g>
			<g>
				<g>
					<path fill="#C6B993" d="M459.1,326.4h-392V145.7h392V326.4z M82.7,310.7h360.6V161.3H82.7V310.7z"/>
				</g>
			</g>
			<g>
				<g>
					<path fill="#C6B993" d="M263.1,303.3c-36.3,0-65.8-29.5-65.8-65.8c0-36.3,29.5-65.8,65.8-65.8s65.8,29.5,65.8,65.8
						C328.8,273.8,299.3,303.3,263.1,303.3z M263.1,187.4c-27.6,0-50.1,22.5-50.1,50.1c0,27.6,22.5,50.1,50.1,50.1
						s50.1-22.5,50.1-50.1C313.1,209.9,290.7,187.4,263.1,187.4z"/>
				</g>
			</g>
			<g>
				<g>
					<path fill="#C6B993" d="M459.1,212.7H421v-7.8c0-20.3-16.9-22.5-24.2-22.5l-0.3,0l-8.1,0.2l0-8.1v-28.9h70.7V212.7z M436.1,197
						h7.3v-35.7h-39.3v5.9c4,0.6,9.1,1.9,14,4.5C425.3,175.6,433.7,183,436.1,197z"/>
				</g>
			</g>
			<g>
				<g>
					<path fill="#C6B993" d="M457.2,326.4h-67v-38.1h7.8c7,0,12.3-1.9,16-5.7c6.8-7.1,6.5-18.6,6.5-18.7l-0.3-8.2h37V326.4z
						 M405.9,310.7h35.7v-39.3h-6c-1,6.3-3.6,15.1-10.3,22.1c-5.1,5.3-11.6,8.6-19.4,9.9V310.7z"/>
				</g>
			</g>
			<g>
				<g>
					<path fill="#C6B993" d="M137,326.4H66.3v-67h38.1v7.8c0,9.3,3.3,15.5,10.2,19.2c6,3.2,12.7,3.3,14,3.3l0.3,0l8.1-0.2l0,8.1
						V326.4z M82,310.7h39.3v-5.9c-4-0.6-9.1-1.9-14-4.5c-7.3-3.8-15.7-11.2-18-25.2H82V310.7z"/>
				</g>
			</g>
			<g>
				<g>
					<path fill="#C6B993" d="M105.2,216.3h-37l0-70.7h67v38.1h-7.8c-7,0-12.3,1.9-16,5.7c-6.8,7.1-6.5,18.6-6.5,18.7L105.2,216.3z
						 M83.8,200.7h6c1-6.3,3.6-15.1,10.3-22c5.1-5.3,11.6-8.6,19.4-9.9v-7.3H83.8L83.8,200.7z"/>
				</g>
			</g>
		</g>
		<g>
			<g>
				<path fill="#414042" d="M481,354.7H45.1c-4.9,0-8.8-3.9-8.8-8.8V126.2c0-4.9,3.9-8.8,8.8-8.8H481c4.9,0,8.8,3.9,8.8,8.8v219.6
					C489.8,350.7,485.9,354.7,481,354.7z M53.9,337h418.3V135H53.9V337z"/>
			</g>
		</g>
		<g>
			<g>
				<rect x="227.2" y="116.2" fill="#E6E7E8" width="73.4" height="229.6"/>
			</g>
		</g>
		<g>
			<g>
				<path fill="#414042" d="M300.6,354.7h-73.4c-4.9,0-8.8-3.9-8.8-8.8V116.2c0-4.9,3.9-8.8,8.8-8.8h73.4c4.9,0,8.8,3.9,8.8,8.8
					v229.6C309.5,350.7,305.5,354.7,300.6,354.7z M236,337h55.8V125H236V337z"/>
			</g>
		</g>
	</g>
	<g>
		<g>
			<rect x="48.4" y="314.4" fill="#EBDEB4" width="435.4" height="81.4"/>
		</g>
	</g>
	<g>
		<g>
			<path fill="#414042" d="M483.8,404.6H48.4c-4.9,0-8.8-3.9-8.8-8.8v-81.4c0-4.9,3.9-8.8,8.8-8.8h435.4c4.9,0,8.8,3.9,8.8,8.8v81.4
				C492.6,400.7,488.7,404.6,483.8,404.6z M57.2,387H475v-63.7H57.2V387z"/>
		</g>
	</g>
	<g>
		<g>
			<rect x="214.4" y="314.4" fill="#E6E7E8" width="103.8" height="81.4"/>
		</g>
	</g>
	<g>
		<g>
			<path fill="#414042" d="M318.2,404.6H214.4c-4.9,0-8.8-3.9-8.8-8.8v-81.4c0-4.9,3.9-8.8,8.8-8.8h103.8c4.9,0,8.8,3.9,8.8,8.8
				v81.4C327.1,400.7,323.1,404.6,318.2,404.6z M223.3,387h86.2v-63.7h-86.2V387z"/>
		</g>
	</g>
	<g>
		<g>
			<g>
				<g>
					<rect x="324.8" y="360.9" fill="#F15A22" width="167" height="34.8"/>
				</g>
			</g>
			<g>
				<g>
					<g>
						<rect x="446.7" y="360.9" fill="#E6E7E8" width="21.2" height="34.8"/>
					</g>
				</g>
				<g>
					<g>
						<rect x="397.7" y="360.9" fill="#E6E7E8" width="21.2" height="34.8"/>
					</g>
				</g>
				<g>
					<g>
						<rect x="348.7" y="360.9" fill="#E6E7E8" width="21.2" height="34.8"/>
					</g>
				</g>
			</g>
			<g>
				<g>
					<path fill="#414042" d="M491.8,404.6h-167c-4.9,0-8.8-3.9-8.8-8.8v-34.8c0-4.9,3.9-8.8,8.8-8.8h167c4.9,0,8.8,3.9,8.8,8.8v34.8
						C500.6,400.7,496.6,404.6,491.8,404.6z M333.6,387h149.3v-17.2H333.6V387z"/>
				</g>
			</g>
		</g>
		<g>
			<g>
				<g>
					<rect x="330.8" y="326.1" fill="#F15A22" width="167" height="34.8"/>
				</g>
			</g>
			<g>
				<g>
					<g>
						<rect x="452.7" y="326.1" fill="#E6E7E8" width="21.2" height="34.8"/>
					</g>
				</g>
				<g>
					<g>
						<rect x="403.7" y="326.1" fill="#E6E7E8" width="21.2" height="34.8"/>
					</g>
				</g>
				<g>
					<g>
						<rect x="354.7" y="326.1" fill="#E6E7E8" width="21.2" height="34.8"/>
					</g>
				</g>
			</g>
			<g>
				<g>
					<path fill="#414042" d="M497.8,369.8h-167c-4.9,0-8.8-3.9-8.8-8.8v-34.8c0-4.9,3.9-8.8,8.8-8.8h167c4.9,0,8.8,3.9,8.8,8.8v34.8
						C506.6,365.8,502.6,369.8,497.8,369.8z M339.6,352.1h149.3v-17.2H339.6V352.1z"/>
				</g>
			</g>
		</g>
		<g>
			<g>
				<g>
					<rect x="306.9" y="291.3" fill="#F15A22" width="167" height="34.8"/>
				</g>
			</g>
			<g>
				<g>
					<g>
						<rect x="428.8" y="291.3" fill="#E6E7E8" width="21.2" height="34.8"/>
					</g>
				</g>
				<g>
					<g>
						<rect x="379.8" y="291.3" fill="#E6E7E8" width="21.2" height="34.8"/>
					</g>
				</g>
				<g>
					<g>
						<rect x="330.8" y="291.3" fill="#E6E7E8" width="21.2" height="34.8"/>
					</g>
				</g>
			</g>
			<g>
				<g>
					<path fill="#414042" d="M473.9,334.9h-167c-4.9,0-8.8-3.9-8.8-8.8v-34.8c0-4.9,3.9-8.8,8.8-8.8h167c4.9,0,8.8,3.9,8.8,8.8v34.8
						C482.7,331,478.7,334.9,473.9,334.9z M315.7,317.3h149.3v-17.2H315.7V317.3z"/>
				</g>
			</g>
		</g>
		<g>
			<g>
				<g>
					<rect x="330.8" y="256.3" fill="#F15A22" width="167" height="34.8"/>
				</g>
			</g>
			<g>
				<g>
					<g>
						<rect x="452.7" y="256.3" fill="#E6E7E8" width="21.2" height="34.8"/>
					</g>
				</g>
				<g>
					<g>
						<rect x="403.7" y="256.3" fill="#E6E7E8" width="21.2" height="34.8"/>
					</g>
				</g>
				<g>
					<g>
						<rect x="354.7" y="256.3" fill="#E6E7E8" width="21.2" height="34.8"/>
					</g>
				</g>
			</g>
			<g>
				<g>
					<path fill="#414042" d="M497.8,299.9h-167c-4.9,0-8.8-3.9-8.8-8.8v-34.8c0-4.9,3.9-8.8,8.8-8.8h167c4.9,0,8.8,3.9,8.8,8.8v34.8
						C506.6,296,502.6,299.9,497.8,299.9z M339.6,282.3h149.3v-17.2H339.6V282.3z"/>
				</g>
			</g>
		</g>
	</g>
	<g>
		<g>
			<g>
				<g>
					<rect x="55" y="360.9" fill="#0DB14B" width="167" height="34.8"/>
				</g>
			</g>
			<g>
				<g>
					<g>
						<rect x="176.9" y="360.9" fill="#E6E7E8" width="21.2" height="34.8"/>
					</g>
				</g>
				<g>
					<g>
						<rect x="127.9" y="360.9" fill="#E6E7E8" width="21.2" height="34.8"/>
					</g>
				</g>
				<g>
					<g>
						<rect x="78.9" y="360.9" fill="#E6E7E8" width="21.2" height="34.8"/>
					</g>
				</g>
			</g>
			<g>
				<g>
					<path fill="#414042" d="M222,404.6H55c-4.9,0-8.8-3.9-8.8-8.8v-34.8c0-4.9,3.9-8.8,8.8-8.8h167c4.9,0,8.8,3.9,8.8,8.8v34.8
						C230.8,400.7,226.9,404.6,222,404.6z M63.9,387h149.3v-17.2H63.9V387z"/>
				</g>
			</g>
		</g>
		<g>
			<g>
				<g>
					<rect x="51.1" y="326.1" fill="#0DB14B" width="167" height="34.8"/>
				</g>
			</g>
			<g>
				<g>
					<g>
						<rect x="173" y="326.1" fill="#E6E7E8" width="21.2" height="34.8"/>
					</g>
				</g>
				<g>
					<g>
						<rect x="124" y="326.1" fill="#E6E7E8" width="21.2" height="34.8"/>
					</g>
				</g>
				<g>
					<g>
						<rect x="75" y="326.1" fill="#E6E7E8" width="21.2" height="34.8"/>
					</g>
				</g>
			</g>
			<g>
				<g>
					<path fill="#414042" d="M218.1,369.8h-167c-4.9,0-8.8-3.9-8.8-8.8v-34.8c0-4.9,3.9-8.8,8.8-8.8h167c4.9,0,8.8,3.9,8.8,8.8v34.8
						C226.9,365.8,223,369.8,218.1,369.8z M59.9,352.1h149.3v-17.2H59.9V352.1z"/>
				</g>
			</g>
		</g>
		<g>
			<g>
				<g>
					<rect x="14.2" y="291.3" fill="#0DB14B" width="167" height="34.8"/>
				</g>
			</g>
			<g>
				<g>
					<g>
						<rect x="136.1" y="291.3" fill="#E6E7E8" width="21.2" height="34.8"/>
					</g>
				</g>
				<g>
					<g>
						<rect x="87.1" y="291.3" fill="#E6E7E8" width="21.2" height="34.8"/>
					</g>
				</g>
				<g>
					<g>
						<rect x="38.1" y="291.3" fill="#E6E7E8" width="21.2" height="34.8"/>
					</g>
				</g>
			</g>
			<g>
				<g>
					<path fill="#414042" d="M181.2,334.9h-167c-4.9,0-8.8-3.9-8.8-8.8v-34.8c0-4.9,3.9-8.8,8.8-8.8h167c4.9,0,8.8,3.9,8.8,8.8v34.8
						C190,331,186.1,334.9,181.2,334.9z M23.1,317.3h149.3v-17.2H23.1V317.3z"/>
				</g>
			</g>
		</g>
	</g>
	<g>
		<g>
			<g>
				<g>
					<rect x="192.7" y="360.9" fill="#4176AD" width="167" height="34.8"/>
				</g>
			</g>
			<g>
				<g>
					<g>
						<rect x="314.6" y="360.9" fill="#E6E7E8" width="21.2" height="34.8"/>
					</g>
				</g>
				<g>
					<g>
						<rect x="265.6" y="360.9" fill="#E6E7E8" width="21.2" height="34.8"/>
					</g>
				</g>
				<g>
					<g>
						<rect x="216.6" y="360.9" fill="#E6E7E8" width="21.2" height="34.8"/>
					</g>
				</g>
			</g>
			<g>
				<g>
					<path fill="#414042" d="M359.7,404.6h-167c-4.9,0-8.8-3.9-8.8-8.8v-34.8c0-4.9,3.9-8.8,8.8-8.8h167c4.9,0,8.8,3.9,8.8,8.8v34.8
						C368.5,400.7,364.6,404.6,359.7,404.6z M201.5,387h149.3v-17.2H201.5V387z"/>
				</g>
			</g>
		</g>
		<g>
			<g>
				<g>
					<rect x="156.5" y="326.1" fill="#4176AD" width="167" height="34.8"/>
				</g>
			</g>
			<g>
				<g>
					<g>
						<rect x="263.1" y="326.1" fill="#E6E7E8" width="21.2" height="34.8"/>
					</g>
				</g>
				<g>
					<g>
						<rect x="214" y="326.1" fill="#E6E7E8" width="21.2" height="34.8"/>
					</g>
				</g>
				<g>
					<g>
						<rect x="310.8" y="326.1" fill="#E6E7E8" width="12.7" height="34.8"/>
					</g>
				</g>
				<g>
					<g>
						<rect x="165" y="326.1" fill="#E6E7E8" width="21.2" height="34.8"/>
					</g>
				</g>
			</g>
			<g>
				<g>
					<path fill="#414042" d="M323.5,369.8h-167c-4.9,0-8.8-3.9-8.8-8.8v-34.8c0-4.9,3.9-8.8,8.8-8.8h167c4.9,0,8.8,3.9,8.8,8.8v34.8
						C332.3,365.8,328.4,369.8,323.5,369.8z M165.4,352.1h149.3v-17.2H165.4V352.1z"/>
				</g>
			</g>
		</g>
	</g>
</g>
</svg>
