<?xml version="1.0" encoding="utf-8"?>
<!-- Generator: Adobe Illustrator 18.0.0, SVG Export Plug-In . SVG Version: 6.00 Build 0)  -->
<!DOCTYPE svg PUBLIC "-//W3C//DTD SVG 1.1//EN" "http://www.w3.org/Graphics/SVG/1.1/DTD/svg11.dtd">
<svg version="1.1" id="Layer_1" xmlns="http://www.w3.org/2000/svg" xmlns:xlink="http://www.w3.org/1999/xlink" x="0px" y="0px"
	 viewBox="0 0 512 512" enable-background="new 0 0 512 512" xml:space="preserve">
<g>
	<g>
		<g>
			<g>
				<rect x="222.5" y="333.1" fill="#AA2C23" width="66.9" height="108.1"/>
			</g>
		</g>
		<g>
			<g>
				<path fill="#414042" d="M289.5,450h-66.9c-4.9,0-8.8-3.9-8.8-8.8V333.1c0-4.9,3.9-8.8,8.8-8.8h66.9c4.9,0,8.8,3.9,8.8,8.8v108.1
					C298.3,446,294.3,450,289.5,450z M231.3,432.4h49.4v-90.5h-49.4V432.4z"/>
			</g>
		</g>
		<g>
			<g>
				<rect x="177.1" y="416.4" fill="#AA2C23" width="157.8" height="24.8"/>
			</g>
		</g>
		<g>
			<g>
				<path fill="#414042" d="M334.9,450H177.1c-4.9,0-8.8-3.9-8.8-8.8v-24.8c0-4.9,3.9-8.8,8.8-8.8h157.8c4.9,0,8.8,3.9,8.8,8.8v24.8
					C343.7,446,339.8,450,334.9,450z M185.9,432.4h140.2v-7.2H185.9V432.4z"/>
			</g>
		</g>
	</g>
	<g>
		<g>
			<g>
				<rect x="65.6" y="70.8" fill="#D8AD2F" width="380.8" height="28.5"/>
			</g>
		</g>
		<g>
			<g>
				<rect x="65.6" y="333.2" fill="#D8AD2F" width="380.8" height="28.5"/>
			</g>
		</g>
		<g>
			<g>
				<rect x="88.9" y="99.3" fill="#4F4F4F" width="334.1" height="234"/>
			</g>
		</g>
		<g>
			<g>
				<path fill="#414042" d="M423.1,342H88.9c-4.9,0-8.8-3.9-8.8-8.8v-234c0-4.9,3.9-8.8,8.8-8.8h334.1c4.9,0,8.8,3.9,8.8,8.8v234
					C431.8,338.1,427.9,342,423.1,342z M97.7,324.4h316.5V108.1H97.7V324.4z"/>
			</g>
		</g>
		<g>
			<g>
				<path fill="#414042" d="M446.4,108.1H65.6c-4.9,0-8.8-3.9-8.8-8.8V70.8c0-4.9,3.9-8.8,8.8-8.8h380.8c4.9,0,8.8,3.9,8.8,8.8v28.5
					C455.2,104.1,451.2,108.1,446.4,108.1z M74.4,90.5h363.2V79.6H74.4V90.5z"/>
			</g>
		</g>
		<g>
			<g>
				<path fill="#414042" d="M446.4,370.5H65.6c-4.9,0-8.8-3.9-8.8-8.8v-28.5c0-4.9,3.9-8.8,8.8-8.8h380.8c4.9,0,8.8,3.9,8.8,8.8
					v28.5C455.2,366.5,451.2,370.5,446.4,370.5z M74.4,352.9h363.2V342H74.4V352.9z"/>
			</g>
		</g>
	</g>
	<g>
		<g>
			<path fill="#E6E7E8" d="M195,248.7c-2.2,0-4.5-0.9-6.2-2.6l-39.6-39.6c-3.4-3.4-3.4-9,0-12.4c3.4-3.4,9-3.4,12.4,0l39.6,39.6
				c3.4,3.4,3.4,9,0,12.4C199.5,247.9,197.2,248.7,195,248.7z"/>
		</g>
	</g>
	<g>
		<g>
			<path fill="#E6E7E8" d="M155.4,248.7c-2.2,0-4.5-0.9-6.2-2.6c-3.4-3.4-3.4-9,0-12.4l39.6-39.6c3.4-3.4,9-3.4,12.4,0
				c3.4,3.4,3.4,9,0,12.4l-39.6,39.6C159.9,247.9,157.6,248.7,155.4,248.7z"/>
		</g>
	</g>
	<g>
		<g>
			<path fill="#E6E7E8" d="M345.3,214c-19.4,0-35.1-15.7-35.1-35.1s15.7-35.1,35.1-35.1c19.4,0,35.1,15.7,35.1,35.1
				S364.7,214,345.3,214z M345.3,161.3c-9.7,0-17.5,7.9-17.5,17.5c0,9.7,7.9,17.5,17.5,17.5s17.5-7.9,17.5-17.5
				C362.9,169.2,355,161.3,345.3,161.3z"/>
		</g>
	</g>
	<g>
		<g>
			<path fill="#E6E7E8" d="M259.6,286.4c-24.4,0-44.1-6.6-45.7-7.2c-4.6-1.6-7-6.6-5.4-11.2c1.6-4.6,6.6-7,11.2-5.4l0,0
				c0.7,0.2,69.3,23.2,102.4-22.2c2.9-3.9,8.4-4.8,12.3-1.9c3.9,2.9,4.8,8.4,1.9,12.3C315.5,279.3,285,286.4,259.6,286.4z"/>
		</g>
	</g>
	<g>
		<g>
			<path fill="#E6E7E8" d="M335.7,284.2c-4.8,0-8.7-3.8-8.8-8.6l-0.6-26.9h-26.2c-4.9,0-8.8-3.9-8.8-8.8c0-4.9,3.9-8.8,8.8-8.8h34.8
				c4.8,0,8.7,3.8,8.8,8.6l0.7,35.5c0.1,4.9-3.8,8.9-8.6,9C335.8,284.2,335.7,284.2,335.7,284.2z"/>
		</g>
	</g>
</g>
</svg>
