<?xml version="1.0" encoding="utf-8"?>
<!-- Generator: Adobe Illustrator 18.0.0, SVG Export Plug-In . SVG Version: 6.00 Build 0)  -->
<!DOCTYPE svg PUBLIC "-//W3C//DTD SVG 1.1//EN" "http://www.w3.org/Graphics/SVG/1.1/DTD/svg11.dtd">
<svg version="1.1" id="Layer_1" xmlns="http://www.w3.org/2000/svg" xmlns:xlink="http://www.w3.org/1999/xlink" x="0px" y="0px"
	 viewBox="0 0 512 512" enable-background="new 0 0 512 512" xml:space="preserve">
<g>
	<g>
		<g>
			<path fill="#D04527" d="M198.1,140.5c0,0-132,64.3-67.5,165.6c64.5,101.3,176.1,143.9,224.5,117.3
				c48.4-26.6,71.6-143.3,19.8-251.6C323,63.6,198.1,140.5,198.1,140.5z"/>
		</g>
	</g>
	<g>
		<g>
			<path fill="#DB802D" d="M238,233.4c0,11.8-3,23.1-5.4,34.5c-0.5,2.2-1.5,7.3-4.7,6.6c-2.5-0.5-2-4.7-2.1-6.5
				c-0.3-8.1-3.5-15.7-8.3-22.1c-2.9-3.9-6.5-6.7-11.5-6c-7.6,1.1-14.7,6-17.9,13.2c-3.7,8.4,3.1,16.8,9.7,21.5
				c4.7,3.3,9.8,5.8,15.1,7.8c2.6,1,5.5,1.1,7.9,2.4c4.6,2.4,2.8,7.7,0.1,10.9c-4.4,5.4-13.5,8.9-18.8,2.8c-7.8-9-20.2-9-24.4-1.1
				c0,0.1-0.1,0.1-0.1,0.2c-3.3,6.1-11.9,7-16.8,2.1c-14-13.9,6.2-32.2,11.9-44.9c4.4-9.8,2.1-15.3-1.5-18.5
				c-4.1-3.5-4.6-9.7-1.5-14.1c14-19.7,34.7-29.8,49.5-25.2c0,0,0,0,0.1,0c3.4,1.1,5.5,4.5,5.2,8.1c-0.7,6.4,0.8,15.1,10.3,22.2
				C236.7,228.7,238,230.9,238,233.4z"/>
		</g>
	</g>
	<g>
		<g>
			<path fill="#EDB940" d="M190.8,93.2c1.7,13.7,6.4,31.6,19.3,45c3.9,4,3.2,9.4-1.8,12.1l0,0c-3.8,2.1-8.5,1.7-11.9-1.1
				c-9.1-7.3-26-24-33.3-50.8c-1.8-6.6,1.4-13.5,7.6-16.4l0,0C179.5,78,189.6,83.7,190.8,93.2z"/>
		</g>
	</g>
	<g>
		<g>
			<path fill="#414042" d="M203.2,160.3c-4.4,0-8.7-1.5-12.1-4.3c-10.1-8.2-28.3-26.2-36.2-55.2c-2.9-10.6,2.3-21.7,12.2-26.4
				c3.1-1.4,6.3-2.2,9.7-2.2c11.5,0,21.2,8.6,22.5,19.9c1.4,11.7,5.5,28.2,17,40.2c3.7,3.9,5.4,8.9,4.7,13.8
				c-0.7,4.9-3.8,9.1-8.5,11.7C209.6,159.4,206.4,160.3,203.2,160.3z M176.7,89.3c-0.8,0-1.6,0.2-2.4,0.5c-2.4,1.1-3.7,3.9-3,6.5
				c6.6,24.3,21.9,39.5,30.4,46.4c0.5,0.4,0.9,0.5,1.3,0.5c-14.1-15.3-19.1-35-20.8-49C181.9,91,179.1,89.3,176.7,89.3z"/>
		</g>
	</g>
	<g>
		<g>
			<path fill="#C13C27" d="M355.1,423.5c-22.8,12.6-59.7,9.7-99-7.4c33.7-5.9,67.8-16.4,90.3-34.6c31.2-25.2,48.2-62.4,57.7-92.6
				C406.5,353.3,385.9,406.5,355.1,423.5z"/>
		</g>
	</g>
	<g>
		<g>
			<path fill="#414042" d="M320.4,439.7C320.4,439.7,320.4,439.7,320.4,439.7c-57.1,0-143.1-44.3-197-129
				c-18.2-28.6-23.4-57.3-15.5-85.2c16-56.4,80-89.4,86.1-92.5c4.6-2.8,47-27.5,93.2-27.5c42.8,0,75.8,21.7,95.5,62.7
				c24.5,51.2,34.6,108.4,28.5,161c-5.7,48.9-25.1,86.9-51.9,101.6C348.6,436.8,335.5,439.7,320.4,439.7z M287.2,122.6
				c-43.1,0-84.2,25-84.6,25.2c-0.2,0.1-0.5,0.3-0.7,0.4c-0.6,0.3-63.2,31.4-77.5,82c-6.5,23-2,47.1,13.5,71.4
				c50.6,79.5,130.1,121.1,182.5,121.1c12.2,0,22.6-2.3,30.6-6.7c21.6-11.9,38.1-45.9,43.1-88.7c5.8-49.5-3.8-103.4-27-151.7
				C350.3,140.4,323.4,122.6,287.2,122.6z"/>
		</g>
	</g>
	<g>
		<g>
			<path fill="#EDB940" d="M249.7,288.4c0,0-8.9,5-1.6,15.4c7.3,10.4,21.6,12.8,21.6,12.8s2.5-14.1-4.8-24.5
				C257.5,281.8,249.7,288.4,249.7,288.4z"/>
		</g>
	</g>
	<g>
		<g>
			<path fill="#EDB940" d="M300.8,260.2c0,0-9.4,4-3.3,15.1c6.2,11.1,20,15.1,20,15.1s4-13.8-2.2-24.9
				C309.2,254.4,300.8,260.2,300.8,260.2z"/>
		</g>
	</g>
	<g>
		<g>
			<path fill="#EDB940" d="M346.2,207.6c0,0-9.9,2.6-5.5,14.5c4.4,11.9,17.6,17.9,17.6,17.9s6-13.1,1.6-24.9
				S346.2,207.6,346.2,207.6z"/>
		</g>
	</g>
	<g>
		<g>
			<path fill="#EDB940" d="M357.8,271.6c0,0-10.1,1.6-7,13.8c3.2,12.3,15.6,19.6,15.6,19.6s7.3-12.4,4.1-24.7
				C367.5,268.1,357.8,271.6,357.8,271.6z"/>
		</g>
	</g>
	<g>
		<g>
			<path fill="#EDB940" d="M308,387.7c0,0-4.5,6.6,4.2,11.3c8.7,4.8,19.5,1.6,19.5,1.6s-3.1-10.8-11.9-15.5S308,387.7,308,387.7z"/>
		</g>
	</g>
	<g>
		<g>
			<path fill="#EDB940" d="M360.9,338.7c0,0-7.9-0.9-8.2,8.9c-0.2,9.8,7.5,17.8,7.5,17.8s8.1-7.7,8.4-17.6
				C368.9,338.1,360.9,338.7,360.9,338.7z"/>
		</g>
	</g>
	<g>
		<g>
			<path fill="#EDB940" d="M244.7,354.9c0,0-8.1,6.3,0.7,15.5c8.8,9.2,23.2,9.6,23.2,9.6s0.4-14.4-8.4-23.6
				C251.4,347.1,244.7,354.9,244.7,354.9z"/>
		</g>
	</g>
	<g>
		<g>
			<path fill="#EDB940" d="M295.7,206.3c0,0-9.8,3-4.9,14.7s18.3,17.1,18.3,17.1s5.4-13.3,0.5-25S295.7,206.3,295.7,206.3z"/>
		</g>
	</g>
	<g>
		<g>
			<path fill="#EDB940" d="M199.4,250.3c0,0-8,4.6-1.2,13.9c6.7,9.3,19.6,11.3,19.6,11.3s2.1-12.8-4.7-22
				C206.3,244.2,199.4,250.3,199.4,250.3z"/>
		</g>
	</g>
	<g>
		<g>
			<path fill="#EDB940" d="M307.4,332.9c0,0-6.6,4.7,0.1,12.2c6.6,7.5,18,8.2,18,8.2s0.7-11.3-5.9-18.8
				C313,327,307.4,332.9,307.4,332.9z"/>
		</g>
	</g>
	<g>
		<g>
			<path fill="#EDB940" d="M239.5,197.8c0,0-9.8,3-4.9,14.7c5,11.7,18.3,17.1,18.3,17.1s5.4-13.3,0.5-25S239.5,197.8,239.5,197.8z"
				/>
		</g>
	</g>
	<g>
		<g>
			<path fill="#EDB940" d="M307.5,155.1c0,0-6.1,8.2,4.8,14.7c10.9,6.5,24.9,3,24.9,3s-3.5-13.9-14.5-20.4
				C311.8,145.9,307.5,155.1,307.5,155.1z"/>
		</g>
	</g>
	<g>
		<g>
			<path fill="#EDB940" d="M185.1,303c0,0-8.2,3.5-2.8,13.2c5.4,9.7,17.4,13.1,17.4,13.1s3.5-12-1.9-21.7
				C192.4,297.9,185.1,303,185.1,303z"/>
		</g>
	</g>
	<g>
		<g>
			<path fill="#EDB940" d="M160.5,238.3c0,0-8.4-3.1-11.2,7.7c-2.8,10.7,3.7,21.5,3.7,21.5s10.9-6.4,13.6-17.1
				S160.5,238.3,160.5,238.3z"/>
		</g>
	</g>
	<g>
		<g>
			<g>
				<path fill="#EDB940" d="M107.7,208.3c-0.2-18.7,6-60.1,63.3-72.6c5.4-1.2,10.5,2.9,10.5,8.4c-0.1,20.3-7.1,64.5-63.9,72.6
					C112.4,217.3,107.7,213.4,107.7,208.3z"/>
			</g>
		</g>
		<g>
			<g>
				<path fill="#414042" d="M116.3,225.2c-9.4,0-17.1-7.6-17.2-16.8c-0.2-19.7,6.2-67,70.1-81.1c5.7-1.2,11.8,0.6,15.9,4.7
					c3.2,3.2,5,7.5,5,12.1c-0.1,21.3-7.4,71.8-71.3,81C118,225.1,117.1,225.2,116.3,225.2z M172.9,143.9
					c-49.8,10.9-56.9,44.9-56.7,64.2l0.1,0C165.3,201.2,172.8,164.9,172.9,143.9z"/>
			</g>
		</g>
	</g>
	<g>
		<g>
			<g>
				<path fill="#EDB940" d="M201.7,119.4c11.3-14.9,41.6-44,94.7-19.2c5,2.3,6.5,8.7,3.2,13c-12.5,16-45.1,46.8-95.1,18.8
					C199.9,129.4,198.6,123.5,201.7,119.4z"/>
			</g>
		</g>
		<g>
			<g>
				<path fill="#414042" d="M243.6,151.8c-14.1,0-28.7-4.2-43.4-12.4c-4.3-2.4-7.4-6.6-8.4-11.4c-1-4.8,0.1-9.8,3-13.7
					c9.1-12,29.3-32.2,62.3-32.2c13.6,0,28.1,3.5,42.9,10.5c4.8,2.2,8.2,6.4,9.4,11.5c1.2,5.1,0.1,10.3-3.1,14.4
					C296.5,130.9,275.4,151.8,243.6,151.8z M257.1,99c-25.6,0-41.4,15.9-48.6,25.4c12.2,6.8,24,10.3,35.1,10.3
					c24.5,0,41.3-16.8,49.2-26.8C280.2,102,268.2,99,257.1,99z"/>
			</g>
		</g>
	</g>
	<g>
		<g>
			<g>
				<path fill="#EDB940" d="M180.9,128.7c16.9-8.1,57.2-20,93,26.3c3.3,4.3,1.8,10.7-3.2,13c-18.5,8.5-61.7,21-93.2-26.8
					C174.7,136.8,176.2,131,180.9,128.7z"/>
			</g>
		</g>
		<g>
			<g>
				<path fill="#414042" d="M236,184.5c-18.3,0-44.5-6.7-65.6-38.7c-2.7-4.1-3.5-9.2-2.2-14c1.3-4.7,4.6-8.7,9-10.8
					c8.1-3.9,20.9-8.5,36.1-8.5c17.6,0,43.6,6.5,67.3,37.2c3.2,4.1,4.3,9.4,3.1,14.5c-1.3,5.1-4.7,9.2-9.4,11.4
					C265.5,179.7,251.7,184.5,236,184.5z M213.3,129.6c-12,0-22.2,3.7-28.7,6.8c13.6,20.7,30.9,31.1,51.3,31.1
					c12.6,0,23.9-4,31.2-7.3C251.4,139.9,233.4,129.6,213.3,129.6z"/>
			</g>
		</g>
	</g>
</g>
</svg>
