<?xml version="1.0" encoding="utf-8"?>
<!-- Generator: Adobe Illustrator 18.0.0, SVG Export Plug-In . SVG Version: 6.00 Build 0)  -->
<!DOCTYPE svg PUBLIC "-//W3C//DTD SVG 1.1//EN" "http://www.w3.org/Graphics/SVG/1.1/DTD/svg11.dtd">
<svg version="1.1" id="Layer_1" xmlns="http://www.w3.org/2000/svg" xmlns:xlink="http://www.w3.org/1999/xlink" x="0px" y="0px"
	 viewBox="0 0 512 512" enable-background="new 0 0 512 512" xml:space="preserve">
<g>
	<g>
		<g>
			<circle fill="#F2C637" cx="256" cy="256" r="163.3"/>
		</g>
	</g>
	<g>
		<g>
			<path fill="#D8AA29" d="M419.3,259.2c0,89-72.1,161.1-161.1,161.1c-19.6,0-38.3-3.5-55.7-9.9c24.3-4.6,48.2-11.9,70.8-21.9
				c41.4-18.3,79.2-45.5,106.5-81.6c17.2-22.7,30.1-49,36.8-76.6C418.4,239.7,419.3,249.3,419.3,259.2z"/>
		</g>
	</g>
	<g>
		<g>
			<path fill="#E6E7E8" d="M296.9,423c-4.1,0-7.7-2.9-8.5-7.1c-0.1-0.4-7.6-40.3-45.6-72.6c-28.2-24-49.1-36-59-41
				c-11.3-5.8-21.3-12.9-29.6-21.2c-18.4-18.4-55.4-67.2-1.5-124.2c0.8-0.8,1.6-1.7,2.4-2.5l0.9-0.9c0.8-0.8,1.6-1.6,2.4-2.4
				c57-53.9,105.9-16.9,124.2,1.5c8.3,8.4,15.4,18.3,21.2,29.6c5.1,9.9,17.1,30.8,41.1,59c30.6,36,67.9,44.6,72.1,45.5
				c4.6,1,7.6,5.5,6.7,10.2c-1,4.6-5.5,7.6-10.2,6.7c-7.7-1.6-48.1-11.7-81.7-51.2c-25.1-29.5-37.9-51.7-43.3-62.3
				c-4.9-9.7-11-18.2-18-25.3c-22.5-22.5-58.1-41-100.2-1.2c-0.7,0.7-1.4,1.4-2.1,2.1l-0.8,0.8c-0.7,0.7-1.4,1.4-2.1,2.2
				c-39.8,42.1-21.4,77.8,1.2,100.2c7.1,7,15.6,13.1,25.3,18c10.6,5.4,32.8,18.2,62.3,43.3c42.9,36.4,51.1,80.8,51.4,82.7
				c0.8,4.7-2.3,9.1-7,9.9C297.9,422.9,297.4,423,296.9,423z"/>
		</g>
	</g>
	<g>
		<g>
			<path fill="#414042" d="M256,427.9c-45.9,0-89.1-17.9-121.5-50.3C102,345.1,84.1,301.9,84.1,256c0-45.9,17.9-89.1,50.3-121.5
				C166.9,102,210.1,84.1,256,84.1c45.9,0,89.1,17.9,121.5,50.3c32.5,32.5,50.3,75.6,50.3,121.5c0,45.9-17.9,89.1-50.3,121.5
				C345.1,410,301.9,427.9,256,427.9z M256,101.3c-41.3,0-80.2,16.1-109.4,45.3c-60.3,60.3-60.3,158.4,0,218.7
				c29.2,29.2,68.1,45.3,109.4,45.3s80.2-16.1,109.4-45.3c29.2-29.2,45.3-68.1,45.3-109.4c0-41.3-16.1-80.2-45.3-109.4
				S297.3,101.3,256,101.3z"/>
		</g>
	</g>
</g>
</svg>
