<?xml version="1.0" encoding="utf-8"?>
<!-- Generator: Adobe Illustrator 18.0.0, SVG Export Plug-In . SVG Version: 6.00 Build 0)  -->
<!DOCTYPE svg PUBLIC "-//W3C//DTD SVG 1.1//EN" "http://www.w3.org/Graphics/SVG/1.1/DTD/svg11.dtd">
<svg version="1.1" id="Layer_1" xmlns="http://www.w3.org/2000/svg" xmlns:xlink="http://www.w3.org/1999/xlink" x="0px" y="0px"
	 viewBox="0 0 512 512" enable-background="new 0 0 512 512" xml:space="preserve">
<g>
	<g>
		<g>
			<path fill="#4176AD" d="M94.9,280.2c15.1,69.6,70.6,124.1,140.8,137.7l0-137.7H94.9z"/>
		</g>
	</g>
	<g>
		<g>
			<path fill="#4176AD" d="M276.3,417.8c70.2-13.5,125.8-68,140.8-137.7H276.3L276.3,417.8z"/>
		</g>
	</g>
	<g>
		<g>
			<path fill="#4176AD" d="M236.1,94.2c-70.4,13.5-126.1,68.2-141.2,138h141.2V94.2z"/>
		</g>
	</g>
	<g>
		<g>
			<g>
				<path fill="#E6E7E8" d="M361.6,391.4c-2.3,0-4.5-0.9-6.2-2.6L123.2,156.6c-3.2-3.2-3.4-8.4-0.5-11.9c6.6-7.9,14-15.3,22-22
					c3.5-2.9,8.6-2.7,11.9,0.5l232.2,232.2c3.2,3.2,3.4,8.4,0.5,11.9c-6.6,7.9-14,15.4-22,22C365.6,390.7,363.6,391.4,361.6,391.4z
					 M141.5,150L362,370.5c2.9-2.7,5.8-5.6,8.5-8.5L150,141.5C147,144.2,144.2,147.1,141.5,150z"/>
			</g>
		</g>
	</g>
	<g>
		<g>
			<path fill="#4176AD" d="M417.1,234.4c-15.3-71-72-126.5-143.5-140.3v140.3H417.1z"/>
		</g>
	</g>
	<g>
		<g>
			<g>
				<path fill="#E6E7E8" d="M150.4,391.3c-2,0-4-0.7-5.6-2c-8-6.6-15.4-14-22.1-22c-2.9-3.5-2.7-8.6,0.5-11.9l232.2-232.2
					c3.2-3.2,8.4-3.4,11.9-0.5c8,6.7,15.4,14.1,22,22c2.9,3.5,2.7,8.6-0.5,11.9L156.6,388.8C154.9,390.5,152.6,391.3,150.4,391.3z
					 M141.5,362c2.7,2.9,5.6,5.8,8.5,8.5L370.5,150c-2.7-2.9-5.6-5.8-8.5-8.5L141.5,362z"/>
			</g>
		</g>
	</g>
	<g>
		<g>
			<path fill="#D04527" d="M381.2,147L272.1,256L256,272.1L149.4,378.8c-5.9-4.9-11.3-10.3-16.2-16.1L239.9,256l16.2-16.1l109.1-109
				C370.9,135.7,376.3,141.1,381.2,147z"/>
		</g>
	</g>
	<g>
		<g>
			<path fill="#D04527" d="M380,363.8l-109.1-109l-16.1-16.2L148.2,132c-5.9,4.9-11.3,10.3-16.2,16.1l106.6,106.6l16.2,16.1
				l109.1,109C369.7,375.1,375.1,369.7,380,363.8z"/>
		</g>
	</g>
	<g>
		<g>
			<path fill="#D04527" d="M415.2,227.4H281.6V92.3c-8.3-1.6-16.9-2.5-25.6-2.5c-8.8,0-17.3,0.9-25.6,2.5v135.1H92.9
				c-2,9.2-3.1,18.8-3.1,28.6c0,9.8,1.1,19.4,3.1,28.6h137.4l0,133.1c8.3,1.6,16.9,2.5,25.6,2.5c8.8,0,17.3-0.9,25.6-2.5l0-133.1
				h133.5c2-9.2,3.1-18.8,3.1-28.6C418.2,246.2,417.2,236.6,415.2,227.4z"/>
		</g>
	</g>
	<g>
		<g>
			<g>
				<g>
					<polygon fill="#E6E7E8" points="228.2,92.9 228.2,226.3 95.2,226.3 95.2,238.8 243.3,238.8 243.3,237.2 243.3,226.3 
						243.3,92.9 					"/>
				</g>
			</g>
			<g>
				<g>
					<polygon fill="#E6E7E8" points="283.8,226.3 283.8,92.9 268.7,92.9 268.7,226.3 268.7,237.2 268.7,238.8 416.8,238.8 
						416.8,226.3 					"/>
				</g>
			</g>
		</g>
		<g>
			<g>
				<g>
					<polygon fill="#E6E7E8" points="243.1,273.7 228.2,273.7 95,273.7 95,286.3 228.2,286.3 228.2,421.9 243.3,421.9 243.3,273.7 
											"/>
				</g>
			</g>
			<g>
				<g>
					<polygon fill="#E6E7E8" points="417,273.7 283.8,273.7 268.9,273.7 268.7,273.7 268.7,422.2 283.8,422.2 283.8,286.3 
						417,286.3 					"/>
				</g>
			</g>
		</g>
	</g>
	<g>
		<g>
			<path fill="#414042" d="M256,429.6c-95.7,0-173.6-77.9-173.6-173.6S160.3,82.4,256,82.4S429.6,160.3,429.6,256
				S351.7,429.6,256,429.6z M256,99.9c-86,0-156.1,70-156.1,156.1S170,412.1,256,412.1S412.1,342,412.1,256S342,99.9,256,99.9z"/>
		</g>
	</g>
</g>
</svg>
