<?xml version="1.0" encoding="utf-8"?>
<!-- Generator: Adobe Illustrator 18.0.0, SVG Export Plug-In . SVG Version: 6.00 Build 0)  -->
<!DOCTYPE svg PUBLIC "-//W3C//DTD SVG 1.1//EN" "http://www.w3.org/Graphics/SVG/1.1/DTD/svg11.dtd">
<svg version="1.1" id="Layer_1" xmlns="http://www.w3.org/2000/svg" xmlns:xlink="http://www.w3.org/1999/xlink" x="0px" y="0px"
	 viewBox="0 0 512 512" enable-background="new 0 0 512 512" xml:space="preserve">
<g>
	<g>
		<g>
			<path fill="#3D3B6F" d="M252.7,91.2v170.2H91.3c-0.1-1.8-0.1-3.6-0.1-5.4C91.2,166.1,163.2,92.9,252.7,91.2z"/>
		</g>
	</g>
	<g>
		<g>
			<g>
				<path fill="#B22334" d="M382.2,150H252.7V94.3h35.4C325.7,101.7,358.6,121.8,382.2,150z"/>
			</g>
		</g>
		<g>
			<g>
				<path fill="#E6E7E8" d="M413,205.7H252.7V150h129.5C395.9,166.2,406.4,185,413,205.7z"/>
			</g>
		</g>
		<g>
			<g>
				<path fill="#B22334" d="M419.7,236.9v24.4h-167v-55.7H413C416.2,215.7,418.5,226.1,419.7,236.9z"/>
			</g>
		</g>
		<g>
			<g>
				<path fill="#E6E7E8" d="M419.8,261.3v13.2c-1.6,14.8-5.3,29.1-10.6,42.5H102.8c-6.9-17.3-11-36.1-11.6-55.7H419.8z"/>
			</g>
		</g>
		<g>
			<g>
				<path fill="#B22334" d="M409.2,317c-8.4,21-21,40-36.8,55.7H139.6c-15.8-15.7-28.4-34.6-36.8-55.7H409.2z"/>
			</g>
		</g>
		<g>
			<g>
				<path fill="#E6E7E8" d="M372.4,372.7c-29.8,29.7-71,48.1-116.4,48.1c-45.4,0-86.6-18.4-116.4-48.1H372.4z"/>
			</g>
		</g>
	</g>
	<g>
		<g>
			<path fill="#414042" d="M256,429.6c-95.7,0-173.6-77.9-173.6-173.6S160.3,82.4,256,82.4c95.7,0,173.6,77.9,173.6,173.6
				S351.7,429.6,256,429.6z M256,99.9c-86,0-156.1,70-156.1,156.1S170,412.1,256,412.1S412.1,342,412.1,256S342,99.9,256,99.9z"/>
		</g>
	</g>
	<g>
		<g>
			<path fill="#414042" d="M256,429.6c-95.7,0-173.6-77.9-173.6-173.6S160.3,82.4,256,82.4c95.7,0,173.6,77.9,173.6,173.6
				S351.7,429.6,256,429.6z M256,99.9c-86,0-156.1,70-156.1,156.1S170,412.1,256,412.1S412.1,342,412.1,256S342,99.9,256,99.9z"/>
		</g>
	</g>
	<g>
		<g>
			<polygon fill="#E6E7E8" points="222.7,115.4 227.2,129.3 241.9,129.3 230,137.9 234.5,151.7 222.7,143.2 210.9,151.7 
				215.4,137.9 203.6,129.3 218.2,129.3 			"/>
		</g>
	</g>
	<g>
		<g>
			<polygon fill="#E6E7E8" points="222.7,162.2 227.2,176.1 241.9,176.1 230,184.7 234.5,198.6 222.7,190 210.9,198.6 215.4,184.7 
				203.6,176.1 218.2,176.1 			"/>
		</g>
	</g>
	<g>
		<g>
			<polygon fill="#E6E7E8" points="175.9,162.2 180.4,176.1 195,176.1 183.2,184.7 187.7,198.6 175.9,190 164,198.6 168.5,184.7 
				156.7,176.1 171.3,176.1 			"/>
		</g>
	</g>
	<g>
		<g>
			<polygon fill="#E6E7E8" points="222.7,208.4 227.2,222.3 241.9,222.3 230,230.9 234.5,244.8 222.7,236.2 210.9,244.8 
				215.4,230.9 203.6,222.3 218.2,222.3 			"/>
		</g>
	</g>
	<g>
		<g>
			<polygon fill="#E6E7E8" points="175.9,208.4 180.4,222.3 195,222.3 183.2,230.9 187.7,244.8 175.9,236.2 164,244.8 168.5,230.9 
				156.7,222.3 171.3,222.3 			"/>
		</g>
	</g>
	<g>
		<g>
			<polygon fill="#E6E7E8" points="128.8,208.4 133.3,222.3 147.9,222.3 136.1,230.9 140.6,244.8 128.8,236.2 117,244.8 
				121.5,230.9 109.7,222.3 124.3,222.3 			"/>
		</g>
	</g>
</g>
</svg>
