<svg xmlns="http://www.w3.org/2000/svg" xmlns:xlink="http://www.w3.org/1999/xlink" version="1.1" width="256" height="256" viewBox="0 0 256 256" xml:space="preserve">
<g style="stroke: none; stroke-width: 0; stroke-dasharray: none; stroke-linecap: butt; stroke-linejoin: miter; stroke-miterlimit: 10; fill: none; fill-rule: nonzero; opacity: 1;" transform="translate(1.4065934065934016 1.4065934065934016) scale(2.81 2.81)">
	<path d="M 62.025 28.591 h -1.707 V 15.492 H 29.719 v 11.593 l 0.091 1.506 h -1.834 c -1.03 0 -1.865 0.835 -1.865 1.865 v 3.083 c 0 3.025 2.021 5.578 4.787 6.382 l -0.006 -0.065 c 1.562 5.707 5.798 10.4 11.492 12.458 c 1.691 0.611 3.543 0.611 5.235 0 c 2.561 -0.925 4.83 -2.383 6.693 -4.227 c 0.795 -0.787 1.516 -1.644 2.155 -2.559 c 0.639 -0.916 1.195 -1.89 1.659 -2.912 c 0.399 -0.877 0.723 -1.793 0.982 -2.733 l -0.004 0.038 c 2.766 -0.804 4.788 -3.358 4.788 -6.384 v -3.08 C 63.89 29.426 63.055 28.591 62.025 28.591 z" style="stroke: none; stroke-width: 1; stroke-dasharray: none; stroke-linecap: butt; stroke-linejoin: miter; stroke-miterlimit: 10; fill: rgb(255,206,191); fill-rule: nonzero; opacity: 1;" transform=" matrix(1 0 0 1 0 0) " stroke-linecap="round"/>
	<path d="M 51.477 40.772 c -4.318 5.676 -8.636 5.715 -12.954 0 H 51.477 z" style="stroke: none; stroke-width: 1; stroke-dasharray: none; stroke-linecap: butt; stroke-linejoin: miter; stroke-miterlimit: 10; fill: rgb(239,237,239); fill-rule: nonzero; opacity: 1;" transform=" matrix(1 0 0 1 0 0) " stroke-linecap="round"/>
	<path d="M 60.317 27.085 c 6.758 -10.057 3.691 -16.911 -7.189 -21.217 c 0.237 -0.994 1.607 -1.987 3.77 -2.981 C 47.95 -0.475 37.309 0.294 32.441 8.155 c -6.669 2.248 -8.711 9.713 -2.722 18.93 c 0.668 -11.281 7.991 -10.364 16.834 -6.663 c 4.471 1.711 8.352 1.535 12.012 0.964 C 60.564 21.012 60.465 24.57 60.317 27.085 z" style="stroke: none; stroke-width: 1; stroke-dasharray: none; stroke-linecap: butt; stroke-linejoin: miter; stroke-miterlimit: 10; fill: rgb(251,210,112); fill-rule: nonzero; opacity: 1;" transform=" matrix(1 0 0 1 0 0) " stroke-linecap="round"/>
	<path d="M 56.364 54.687 l 12.495 3.125 c 4.645 1.162 7.903 5.335 7.903 10.123 v 0 v 15.138 c 0 3.273 -2.653 5.927 -5.927 5.927 H 45 H 19.164 c -3.273 0 -5.927 -2.653 -5.927 -5.927 V 67.935 v 0 c 0 -4.788 3.258 -8.961 7.903 -10.123 l 12.495 -3.125 H 56.364 z" style="stroke: none; stroke-width: 1; stroke-dasharray: none; stroke-linecap: butt; stroke-linejoin: miter; stroke-miterlimit: 10; fill: rgb(101,161,211); fill-rule: nonzero; opacity: 1;" transform=" matrix(1 0 0 1 0 0) " stroke-linecap="round"/>
	<polygon points="34.86,62.06 41.09,63.9 48.91,63.9 55.12,62.18 56.36,54.69 46.98,57.87 43.02,57.87 33.64,54.69 " style="stroke: none; stroke-width: 1; stroke-dasharray: none; stroke-linecap: butt; stroke-linejoin: miter; stroke-miterlimit: 10; fill: rgb(190,212,229); fill-rule: nonzero; opacity: 1;" transform="  matrix(1 0 0 1 0 0) "/>
	<path d="M 56.364 54.687 c -1.652 -1.43 -2.452 -3.513 -2.565 -6.12 l -17.534 0.052 c -0.113 2.607 -0.978 4.638 -2.63 6.068 l 11.382 5.396 L 56.364 54.687 z" style="stroke: none; stroke-width: 1; stroke-dasharray: none; stroke-linecap: butt; stroke-linejoin: miter; stroke-miterlimit: 10; fill: rgb(255,206,191); fill-rule: nonzero; opacity: 1;" transform=" matrix(1 0 0 1 0 0) " stroke-linecap="round"/>
	<path d="M 43.024 57.874 h 3.952 l 9.388 -3.186 C 54.716 65.647 52.209 79.006 45 89 c -7.209 -9.994 -9.716 -23.353 -11.364 -34.313 L 43.024 57.874" style="stroke: none; stroke-width: 1; stroke-dasharray: none; stroke-linecap: butt; stroke-linejoin: miter; stroke-miterlimit: 10; fill: rgb(190,212,229); fill-rule: nonzero; opacity: 1;" transform=" matrix(1 0 0 1 0 0) " stroke-linecap="round"/>
	<polyline points="50.42,79.02 46.98,67.15 48.91,63.9 46.98,57.87 43.02,57.87 41.09,63.9 43.02,67.15 39.58,79.01 39.58,89 50.42,89 50.42,79.02 " style="stroke: none; stroke-width: 1; stroke-dasharray: none; stroke-linecap: butt; stroke-linejoin: miter; stroke-miterlimit: 10; fill: rgb(254,147,211); fill-rule: nonzero; opacity: 1;" transform="  matrix(1 0 0 1 0 0) "/>
	<path d="M 33.636 54.687 C 35.284 65.647 37.791 79.006 45 89 h -8.625 l -8.666 -12.882 c -2.798 -4.16 -3.666 -9.324 -2.38 -14.17 l 1.472 -5.551 L 33.636 54.687 z" style="stroke: none; stroke-width: 1; stroke-dasharray: none; stroke-linecap: butt; stroke-linejoin: miter; stroke-miterlimit: 10; fill: rgb(72,126,167); fill-rule: nonzero; opacity: 1;" transform=" matrix(1 0 0 1 0 0) " stroke-linecap="round"/>
	<path d="M 63.187 56.397 l 1.472 5.551 c 1.285 4.846 0.418 10.01 -2.38 14.17 L 53.614 89 H 45 c 7.209 -9.994 9.716 -23.353 11.364 -34.313 L 63.187 56.397 z" style="stroke: none; stroke-width: 1; stroke-dasharray: none; stroke-linecap: butt; stroke-linejoin: miter; stroke-miterlimit: 10; fill: rgb(72,126,167); fill-rule: nonzero; opacity: 1;" transform=" matrix(1 0 0 1 0 0) " stroke-linecap="round"/>
	<path d="M 45 53.771 c -1.002 0 -2.003 -0.172 -2.957 -0.517 c -7.115 -2.57 -12.119 -9.102 -12.75 -16.641 l -0.573 -9.468 c -0.034 -0.551 0.386 -1.025 0.938 -1.059 c 0.546 -0.038 1.025 0.386 1.059 0.938 l 0.571 9.445 c 0.564 6.739 5.053 12.598 11.435 14.904 c 1.469 0.531 3.086 0.531 4.555 0 c 2.394 -0.864 4.522 -2.209 6.329 -3.997 c 0.751 -0.744 1.437 -1.558 2.038 -2.42 c 0.604 -0.865 1.131 -1.792 1.569 -2.754 c 0.828 -1.823 1.333 -3.759 1.5 -5.755 l 0.605 -9.426 c 0.035 -0.551 0.487 -0.975 1.063 -0.934 c 0.551 0.036 0.969 0.511 0.934 1.062 l -0.607 9.445 c -0.188 2.244 -0.75 4.403 -1.674 6.436 c -0.488 1.073 -1.077 2.106 -1.749 3.07 c -0.67 0.961 -1.435 1.869 -2.272 2.698 c -2.014 1.993 -4.388 3.493 -7.056 4.456 C 47.004 53.599 46.002 53.771 45 53.771 z" style="stroke: none; stroke-width: 1; stroke-dasharray: none; stroke-linecap: butt; stroke-linejoin: miter; stroke-miterlimit: 10; fill: rgb(63,63,63); fill-rule: nonzero; opacity: 1;" transform=" matrix(1 0 0 1 0 0) " stroke-linecap="round"/>
	<path d="M 42.456 30.963 c -0.156 0 -0.313 -0.036 -0.461 -0.113 c -1.589 -0.828 -3.133 -0.828 -4.722 0 c -0.489 0.256 -1.094 0.065 -1.349 -0.424 s -0.065 -1.094 0.424 -1.349 c 2.179 -1.137 4.39 -1.137 6.571 0 c 0.49 0.255 0.68 0.859 0.424 1.349 C 43.166 30.767 42.817 30.963 42.456 30.963 z" style="stroke: none; stroke-width: 1; stroke-dasharray: none; stroke-linecap: butt; stroke-linejoin: miter; stroke-miterlimit: 10; fill: rgb(63,63,63); fill-rule: nonzero; opacity: 1;" transform=" matrix(1 0 0 1 0 0) " stroke-linecap="round"/>
	<path d="M 53.188 30.963 c -0.155 0 -0.313 -0.036 -0.462 -0.113 c -1.588 -0.829 -3.133 -0.829 -4.721 0 c -0.493 0.257 -1.094 0.064 -1.35 -0.424 c -0.255 -0.49 -0.065 -1.094 0.424 -1.349 c 2.182 -1.137 4.391 -1.137 6.572 0 c 0.489 0.255 0.679 0.859 0.424 1.349 C 53.897 30.767 53.55 30.963 53.188 30.963 z" style="stroke: none; stroke-width: 1; stroke-dasharray: none; stroke-linecap: butt; stroke-linejoin: miter; stroke-miterlimit: 10; fill: rgb(63,63,63); fill-rule: nonzero; opacity: 1;" transform=" matrix(1 0 0 1 0 0) " stroke-linecap="round"/>
	<path d="M 44.988 46.044 c -0.003 0 -0.006 0 -0.01 0 c -2.476 -0.005 -4.916 -1.575 -7.253 -4.669 c -0.229 -0.303 -0.267 -0.709 -0.097 -1.049 c 0.169 -0.339 0.516 -0.554 0.895 -0.554 h 12.954 c 0.38 0 0.728 0.215 0.896 0.556 c 0.169 0.341 0.131 0.748 -0.1 1.05 C 49.917 44.474 47.467 46.044 44.988 46.044 z M 40.685 41.772 c 1.468 1.507 2.909 2.269 4.297 2.271 c 0.002 0 0.004 0 0.006 0 c 1.392 0 2.839 -0.763 4.318 -2.271 H 40.685 z" style="stroke: none; stroke-width: 1; stroke-dasharray: none; stroke-linecap: butt; stroke-linejoin: miter; stroke-miterlimit: 10; fill: rgb(63,63,63); fill-rule: nonzero; opacity: 1;" transform=" matrix(1 0 0 1 0 0) " stroke-linecap="round"/>
	<path d="M 30.897 40.921 c -0.092 0 -0.187 -0.013 -0.28 -0.04 c -3.243 -0.943 -5.507 -3.962 -5.507 -7.343 v -3.083 c 0 -1.58 1.285 -2.866 2.865 -2.866 h 1.834 c 0.552 0 1 0.448 1 1 s -0.448 1 -1 1 h -1.834 c -0.477 0 -0.865 0.388 -0.865 0.866 v 3.083 c 0 2.497 1.672 4.726 4.066 5.422 c 0.53 0.154 0.835 0.709 0.681 1.24 C 31.729 40.637 31.33 40.921 30.897 40.921 z" style="stroke: none; stroke-width: 1; stroke-dasharray: none; stroke-linecap: butt; stroke-linejoin: miter; stroke-miterlimit: 10; fill: rgb(63,63,63); fill-rule: nonzero; opacity: 1;" transform=" matrix(1 0 0 1 0 0) " stroke-linecap="round"/>
	<path d="M 59.102 40.921 c -0.434 0 -0.833 -0.284 -0.96 -0.721 c -0.154 -0.53 0.15 -1.085 0.681 -1.24 c 2.395 -0.696 4.067 -2.926 4.067 -5.424 v -3.08 c 0 -0.478 -0.388 -0.866 -0.865 -0.866 h -1.764 c -0.553 0 -1 -0.448 -1 -1 s 0.447 -1 1 -1 h 1.764 c 1.58 0 2.865 1.286 2.865 2.866 v 3.08 c 0 3.381 -2.266 6.402 -5.509 7.345 C 59.287 40.908 59.193 40.921 59.102 40.921 z" style="stroke: none; stroke-width: 1; stroke-dasharray: none; stroke-linecap: butt; stroke-linejoin: miter; stroke-miterlimit: 10; fill: rgb(63,63,63); fill-rule: nonzero; opacity: 1;" transform=" matrix(1 0 0 1 0 0) " stroke-linecap="round"/>
	<path d="M 70.836 90 H 19.165 c -3.819 0 -6.927 -3.107 -6.927 -6.927 V 67.936 c 0 -5.256 3.561 -9.817 8.66 -11.093 l 12.496 -3.125 c 0.537 -0.135 1.079 0.19 1.213 0.728 c 0.134 0.535 -0.192 1.078 -0.728 1.212 l -12.496 3.125 c -4.207 1.053 -7.145 4.817 -7.145 9.153 v 15.138 c 0 2.717 2.21 4.927 4.927 4.927 h 51.671 c 2.716 0 4.926 -2.21 4.926 -4.927 V 67.936 c 0 -4.337 -2.938 -8.101 -7.146 -9.153 l -12.494 -3.125 c -0.536 -0.134 -0.862 -0.677 -0.728 -1.212 c 0.133 -0.537 0.674 -0.863 1.212 -0.728 l 12.495 3.125 c 5.1 1.275 8.66 5.837 8.66 11.093 v 15.138 C 77.762 86.893 74.655 90 70.836 90 z" style="stroke: none; stroke-width: 1; stroke-dasharray: none; stroke-linecap: butt; stroke-linejoin: miter; stroke-miterlimit: 10; fill: rgb(63,63,63); fill-rule: nonzero; opacity: 1;" transform=" matrix(1 0 0 1 0 0) " stroke-linecap="round"/>
	<path d="M 26.249 90 c -0.532 0 -0.974 -0.419 -0.998 -0.955 c -0.016 -0.358 -0.015 -1.102 -0.01 -4.23 l 0 -0.419 c 0.001 -0.552 0.448 -0.999 1 -0.999 c 0 0 0.001 0 0.001 0 c 0.552 0.001 1 0.449 0.999 1.001 l 0 0.42 c -0.004 2.939 -0.006 3.826 0.008 4.138 c 0.024 0.552 -0.403 1.02 -0.955 1.044 C 26.279 90 26.264 90 26.249 90 z" style="stroke: none; stroke-width: 1; stroke-dasharray: none; stroke-linecap: butt; stroke-linejoin: miter; stroke-miterlimit: 10; fill: rgb(63,63,63); fill-rule: nonzero; opacity: 1;" transform=" matrix(1 0 0 1 0 0) " stroke-linecap="round"/>
	<path d="M 63.685 90 c -0.016 0 -0.03 0 -0.046 -0.001 c -0.552 -0.024 -0.979 -0.492 -0.954 -1.044 c 0.014 -0.312 0.013 -1.198 0.009 -4.138 l -0.001 -0.42 c -0.001 -0.552 0.446 -1 0.999 -1.001 h 0.001 c 0.552 0 0.999 0.446 1 0.999 l 0.001 0.419 c 0.004 3.129 0.005 3.872 -0.011 4.23 C 64.658 89.581 64.216 90 63.685 90 z" style="stroke: none; stroke-width: 1; stroke-dasharray: none; stroke-linecap: butt; stroke-linejoin: miter; stroke-miterlimit: 10; fill: rgb(63,63,63); fill-rule: nonzero; opacity: 1;" transform=" matrix(1 0 0 1 0 0) " stroke-linecap="round"/>
	<path d="M 60.317 28.085 c -0.106 0 -0.215 -0.017 -0.319 -0.052 c -0.428 -0.145 -0.705 -0.557 -0.679 -1.007 c 0.198 -3.367 -0.114 -4.386 -0.412 -4.648 c -0.012 -0.009 -0.034 -0.031 -0.16 -0.008 c -3.492 0.545 -7.689 0.847 -12.552 -1.013 c -3.875 -1.622 -9.345 -3.543 -12.413 -1.627 c -1.835 1.145 -2.838 3.57 -3.066 7.415 c -0.025 0.431 -0.325 0.797 -0.742 0.908 c -0.417 0.11 -0.859 -0.06 -1.094 -0.422 c -3.41 -5.248 -4.521 -10.347 -3.125 -14.357 c 0.959 -2.757 3.092 -4.857 6.026 -5.945 c 5.394 -8.293 16.634 -8.695 25.469 -5.377 c 0.378 0.142 0.634 0.497 0.647 0.9 c 0.015 0.403 -0.215 0.776 -0.582 0.944 c -1.46 0.671 -2.259 1.213 -2.696 1.608 c 5.376 2.335 8.676 5.372 9.814 9.039 c 1.171 3.771 0.065 8.212 -3.286 13.201 C 60.958 27.925 60.644 28.085 60.317 28.085 z M 46.887 2.001 c -5.464 0 -10.639 1.904 -13.596 6.68 c -0.123 0.198 -0.31 0.347 -0.531 0.421 c -2.547 0.858 -4.316 2.527 -5.116 4.826 c -0.973 2.799 -0.454 6.313 1.454 10.087 c 0.588 -2.866 1.786 -4.837 3.626 -5.984 c 3.81 -2.377 9.598 -0.465 14.214 1.468 c 4.383 1.676 8.106 1.424 11.471 0.898 c 0.866 -0.163 1.469 0.17 1.82 0.479 c 0.612 0.54 0.933 1.397 1.071 2.549 c 1.559 -3.171 1.971 -5.984 1.223 -8.391 c -1.027 -3.309 -4.313 -6.081 -9.764 -8.238 c -0.462 -0.183 -0.72 -0.678 -0.604 -1.162 c 0.211 -0.881 0.929 -1.708 2.219 -2.533 C 51.94 2.399 49.383 2.001 46.887 2.001 z" style="stroke: none; stroke-width: 1; stroke-dasharray: none; stroke-linecap: butt; stroke-linejoin: miter; stroke-miterlimit: 10; fill: rgb(63,63,63); fill-rule: nonzero; opacity: 1;" transform=" matrix(1 0 0 1 0 0) " stroke-linecap="round"/>
	<path d="M 45.001 90 c -0.311 0 -0.617 -0.144 -0.812 -0.415 c -7.014 -9.725 -9.692 -22.447 -11.542 -34.749 c -0.052 -0.345 0.08 -0.691 0.347 -0.916 c 0.269 -0.224 0.634 -0.289 0.963 -0.18 l 9.388 3.187 c 0.523 0.178 0.803 0.746 0.625 1.269 c -0.177 0.523 -0.747 0.804 -1.268 0.626 l -7.829 -2.657 c 1.806 11.538 4.476 23.293 10.937 32.251 c 0.323 0.448 0.222 1.073 -0.226 1.396 C 45.408 89.938 45.204 90 45.001 90 z" style="stroke: none; stroke-width: 1; stroke-dasharray: none; stroke-linecap: butt; stroke-linejoin: miter; stroke-miterlimit: 10; fill: rgb(63,63,63); fill-rule: nonzero; opacity: 1;" transform=" matrix(1 0 0 1 0 0) " stroke-linecap="round"/>
	<path d="M 50.418 80.015 c -0.434 0 -0.833 -0.284 -0.96 -0.722 l -3.442 -11.86 c -0.078 -0.266 -0.041 -0.552 0.101 -0.789 l 1.702 -2.863 l -1.572 -4.906 h -2.493 l -1.572 4.906 l 1.702 2.863 c 0.142 0.237 0.178 0.523 0.101 0.789 l -3.442 11.859 c -0.154 0.53 -0.709 0.837 -1.239 0.682 c -0.53 -0.153 -0.835 -0.708 -0.682 -1.238 l 3.321 -11.443 l -1.71 -2.877 c -0.146 -0.246 -0.18 -0.543 -0.093 -0.815 l 1.932 -6.03 c 0.132 -0.414 0.518 -0.695 0.952 -0.695 h 3.952 c 0.435 0 0.819 0.281 0.952 0.694 l 1.933 6.03 c 0.088 0.273 0.054 0.57 -0.093 0.816 l -1.711 2.877 l 3.321 11.444 c 0.154 0.53 -0.15 1.085 -0.682 1.238 C 50.604 80.002 50.51 80.015 50.418 80.015 z" style="stroke: none; stroke-width: 1; stroke-dasharray: none; stroke-linecap: butt; stroke-linejoin: miter; stroke-miterlimit: 10; fill: rgb(63,63,63); fill-rule: nonzero; opacity: 1;" transform=" matrix(1 0 0 1 0 0) " stroke-linecap="round"/>
	<path d="M 41.092 64.904 c -0.094 0 -0.189 -0.013 -0.284 -0.041 l -6.23 -1.844 c -0.53 -0.157 -0.832 -0.713 -0.675 -1.243 c 0.157 -0.529 0.714 -0.833 1.243 -0.675 l 6.23 1.844 c 0.53 0.157 0.832 0.713 0.675 1.243 C 41.922 64.623 41.524 64.904 41.092 64.904 z" style="stroke: none; stroke-width: 1; stroke-dasharray: none; stroke-linecap: butt; stroke-linejoin: miter; stroke-miterlimit: 10; fill: rgb(63,63,63); fill-rule: nonzero; opacity: 1;" transform=" matrix(1 0 0 1 0 0) " stroke-linecap="round"/>
	<path d="M 48.907 64.904 c -0.438 0 -0.84 -0.29 -0.963 -0.732 c -0.147 -0.532 0.164 -1.084 0.696 -1.231 l 6.207 -1.721 c 0.531 -0.146 1.083 0.164 1.231 0.696 c 0.147 0.532 -0.164 1.084 -0.696 1.231 l -6.207 1.721 C 49.086 64.893 48.996 64.904 48.907 64.904 z" style="stroke: none; stroke-width: 1; stroke-dasharray: none; stroke-linecap: butt; stroke-linejoin: miter; stroke-miterlimit: 10; fill: rgb(63,63,63); fill-rule: nonzero; opacity: 1;" transform=" matrix(1 0 0 1 0 0) " stroke-linecap="round"/>
	<path d="M 44.999 90 c -0.203 0 -0.407 -0.062 -0.584 -0.189 c -0.448 -0.322 -0.549 -0.947 -0.226 -1.396 c 6.459 -8.956 9.13 -20.712 10.937 -32.251 l -7.829 2.657 c -0.522 0.18 -1.09 -0.103 -1.269 -0.626 c -0.177 -0.522 0.103 -1.091 0.626 -1.269 l 9.389 -3.187 c 0.33 -0.11 0.696 -0.044 0.963 0.18 c 0.268 0.225 0.399 0.571 0.348 0.916 c -1.851 12.303 -4.53 25.027 -11.542 34.749 C 45.616 89.856 45.31 90 44.999 90 z" style="stroke: none; stroke-width: 1; stroke-dasharray: none; stroke-linecap: butt; stroke-linejoin: miter; stroke-miterlimit: 10; fill: rgb(63,63,63); fill-rule: nonzero; opacity: 1;" transform=" matrix(1 0 0 1 0 0) " stroke-linecap="round"/>
	<path d="M 36.376 90 c -0.322 0 -0.638 -0.155 -0.831 -0.441 L 26.88 76.677 c -2.959 -4.399 -3.877 -9.861 -2.518 -14.986 l 1.472 -5.551 c 0.142 -0.533 0.691 -0.848 1.223 -0.71 c 0.534 0.142 0.852 0.689 0.71 1.224 l -1.472 5.551 c -1.212 4.566 -0.394 9.435 2.243 13.355 l 8.666 12.882 c 0.309 0.459 0.187 1.08 -0.271 1.389 C 36.762 89.945 36.568 90 36.376 90 z" style="stroke: none; stroke-width: 1; stroke-dasharray: none; stroke-linecap: butt; stroke-linejoin: miter; stroke-miterlimit: 10; fill: rgb(63,63,63); fill-rule: nonzero; opacity: 1;" transform=" matrix(1 0 0 1 0 0) " stroke-linecap="round"/>
	<path d="M 53.613 90 h -8.625 c -0.552 0 -1 -0.447 -1 -1 s 0.448 -1 1 -1 h 8.625 c 0.553 0 1 0.447 1 1 S 54.166 90 53.613 90 z" style="stroke: none; stroke-width: 1; stroke-dasharray: none; stroke-linecap: butt; stroke-linejoin: miter; stroke-miterlimit: 10; fill: rgb(63,63,63); fill-rule: nonzero; opacity: 1;" transform=" matrix(1 0 0 1 0 0) " stroke-linecap="round"/>
	<path d="M 53.612 90 c -0.192 0 -0.386 -0.055 -0.558 -0.17 c -0.458 -0.309 -0.579 -0.93 -0.271 -1.389 l 8.666 -12.882 c 0.31 -0.457 0.93 -0.579 1.389 -0.271 c 0.458 0.309 0.579 0.93 0.271 1.389 l -8.666 12.882 C 54.25 89.845 53.934 90 53.612 90 z" style="stroke: none; stroke-width: 1; stroke-dasharray: none; stroke-linecap: butt; stroke-linejoin: miter; stroke-miterlimit: 10; fill: rgb(63,63,63); fill-rule: nonzero; opacity: 1;" transform=" matrix(1 0 0 1 0 0) " stroke-linecap="round"/>
	<path d="M 62.278 77.118 c -0.191 0 -0.386 -0.055 -0.557 -0.17 c -0.459 -0.309 -0.58 -0.93 -0.272 -1.388 c 2.638 -3.922 3.455 -8.79 2.243 -13.356 c -0.142 -0.534 0.177 -1.082 0.71 -1.224 c 0.533 -0.139 1.081 0.177 1.224 0.71 c 1.359 5.124 0.442 10.586 -2.517 14.985 C 62.916 76.963 62.601 77.118 62.278 77.118 z" style="stroke: none; stroke-width: 1; stroke-dasharray: none; stroke-linecap: butt; stroke-linejoin: miter; stroke-miterlimit: 10; fill: rgb(63,63,63); fill-rule: nonzero; opacity: 1;" transform=" matrix(1 0 0 1 0 0) " stroke-linecap="round"/>
	<path d="M 64.658 62.947 c -0.442 0 -0.847 -0.296 -0.966 -0.744 l -1.472 -5.551 c -0.142 -0.533 0.177 -1.081 0.711 -1.223 c 0.528 -0.141 1.081 0.177 1.223 0.711 l 1.472 5.551 c 0.142 0.533 -0.177 1.081 -0.711 1.223 C 64.83 62.937 64.743 62.947 64.658 62.947 z" style="stroke: none; stroke-width: 1; stroke-dasharray: none; stroke-linecap: butt; stroke-linejoin: miter; stroke-miterlimit: 10; fill: rgb(63,63,63); fill-rule: nonzero; opacity: 1;" transform=" matrix(1 0 0 1 0 0) " stroke-linecap="round"/>
	<path d="M 33.636 55.688 c -0.28 0 -0.559 -0.117 -0.756 -0.346 c -0.362 -0.417 -0.316 -1.049 0.101 -1.41 c 1.437 -1.244 2.184 -2.996 2.286 -5.355 c 0.023 -0.552 0.496 -0.983 1.042 -0.956 c 0.552 0.023 0.98 0.49 0.956 1.042 c -0.125 2.898 -1.125 5.18 -2.974 6.781 C 34.101 55.607 33.868 55.688 33.636 55.688 z" style="stroke: none; stroke-width: 1; stroke-dasharray: none; stroke-linecap: butt; stroke-linejoin: miter; stroke-miterlimit: 10; fill: rgb(63,63,63); fill-rule: nonzero; opacity: 1;" transform=" matrix(1 0 0 1 0 0) " stroke-linecap="round"/>
	<path d="M 56.364 55.688 c -0.232 0 -0.466 -0.08 -0.655 -0.244 c -1.802 -1.562 -2.78 -3.86 -2.908 -6.833 c -0.023 -0.552 0.404 -1.019 0.956 -1.042 c 0.561 -0.032 1.019 0.404 1.042 0.956 c 0.104 2.436 0.831 4.204 2.221 5.407 c 0.417 0.361 0.462 0.993 0.101 1.411 C 56.922 55.57 56.644 55.688 56.364 55.688 z" style="stroke: none; stroke-width: 1; stroke-dasharray: none; stroke-linecap: butt; stroke-linejoin: miter; stroke-miterlimit: 10; fill: rgb(63,63,63); fill-rule: nonzero; opacity: 1;" transform=" matrix(1 0 0 1 0 0) " stroke-linecap="round"/>
</g>
</svg>