<?xml version="1.0" encoding="utf-8"?>
<!-- Generator: Adobe Illustrator 18.0.0, SVG Export Plug-In . SVG Version: 6.00 Build 0)  -->
<!DOCTYPE svg PUBLIC "-//W3C//DTD SVG 1.1//EN" "http://www.w3.org/Graphics/SVG/1.1/DTD/svg11.dtd">
<svg version="1.1" id="Layer_1" xmlns="http://www.w3.org/2000/svg" xmlns:xlink="http://www.w3.org/1999/xlink" x="0px" y="0px"
	 viewBox="0 0 512 512" enable-background="new 0 0 512 512" xml:space="preserve">
<g>
	<g>
		<g>
			<ellipse fill="#74A858" cx="256" cy="256" rx="172.5" ry="171.6"/>
		</g>
	</g>
	<g>
		<g>
			<path fill="#99CD76" d="M319.6,96.4c13.8,5.5,8.8,26.2-6,24.6c-35.7-3.7-81.3,1.1-127.8,31.3c-46.6,30.2-68.6,71.3-78.8,106
				c-3.9,13.2-23.6,10.3-23.5-3.5c0-0.7,0-1.3,0-2c1.7-93.5,79.7-169.2,173.7-168.5C279.3,84.5,300.3,88.8,319.6,96.4z"/>
		</g>
	</g>
	<g>
		<g>
			<path fill="#5F8F53" d="M384.8,141.8c0,0,21.2,97.6-74.4,165.9c-108.6,77.7-211.7,18.5-211.7,18.5s90.1,85.9,217.2,13.9
				C427.2,277.1,384.8,141.8,384.8,141.8z"/>
		</g>
	</g>
	<g>
		<g>
			<path fill="#5F8F53" d="M428.5,256c0,94.8-77.2,171.6-172.5,171.6c-70.1,0-130.4-41.6-157.4-101.3c3.8,8.4,13.4,16.5,19.9,22.7
				c16.9,16.2,36.9,29.3,58.9,37.5c65.4,24.3,142.9-0.4,190.9-48.4C414,292.2,416.6,221,398,162c-0.7-2.2-1.4-4.3-2.2-6.5
				C416.4,183.8,428.5,218.5,428.5,256z"/>
		</g>
	</g>
	<g>
		<g>
			<path fill="#74A858" d="M395.8,155.5c-31.4-32.9-75.9-53.4-125.1-53.4c-95.3,0-172.5,76.8-172.5,171.6
				c0,37.5,12.1,72.2,32.6,100.4c-29.3-30.8-47.3-72.3-47.3-118.1c0-94.8,77.2-171.6,172.5-171.6
				C313.6,84.4,364.5,112.4,395.8,155.5z"/>
		</g>
	</g>
	<g>
		<g>
			<path fill="#D04527" d="M98.6,326.3c0,0,235,51.1,286.2-184.5c0,0-97.2-55.5-198.9,10.5C88.3,215.6,98.6,326.3,98.6,326.3z"/>
		</g>
	</g>
	<g>
		<g>
			<path fill="#F15A22" d="M384.8,141.8C333.6,377.4,98.6,326.3,98.6,326.3L384.8,141.8z"/>
		</g>
	</g>
	<g>
		<g>
			<path fill="#EE6F5B" d="M120.7,311.5c0,0,0.4-99.2,76-145.3c90.1-55,167.4-11.6,167.4-11.6l13.3-8.6c0,0-88.8-56-188.8,10
				c-92.8,61.2-82.8,165.1-82.8,165.1L120.7,311.5z"/>
		</g>
	</g>
	<g>
		<g>
			<path fill="#F8A390" d="M105.9,321.1l14.8-9.5c0,0,87.2,10.3,154.5-31s88.9-125.9,88.9-125.9l13.3-8.6c0,0-17.5,96.6-91.6,144.1
				S127,323.2,105.9,321.1z"/>
		</g>
	</g>
	<g>
		<g>
			<path fill="#414042" d="M151.8,339.6c-31.3,0-53.1-4.6-55-5l3.7-16.6c0.6,0.1,58,12.2,120.5-4c82.7-21.4,135-79.9,155.5-174
				l16.7,3.6c-15.7,72-49.7,125.3-101.3,158.3C243.9,332.6,190.6,339.6,151.8,339.6z"/>
		</g>
	</g>
	<g>
		<g>
			<path fill="#414042" d="M151.8,339.6c-31.3,0-53.1-4.6-55-5l3.7-16.6c0.6,0.1,58,12.2,120.5-4c82.7-21.4,135-79.9,155.5-174
				l16.7,3.6c-15.7,72-49.7,125.3-101.3,158.3C243.9,332.6,190.6,339.6,151.8,339.6z"/>
		</g>
	</g>
	<g>
		<g>
			<path fill="#414042" d="M151.8,339.6c-31.3,0-53.1-4.6-55-5l3.7-16.6c0.6,0.1,58,12.2,120.5-4c82.7-21.4,135-79.9,155.5-174
				l16.7,3.6c-15.7,72-49.7,125.3-101.3,158.3C243.9,332.6,190.6,339.6,151.8,339.6z"/>
		</g>
	</g>
	<g>
		<g>
			<path fill="#414042" d="M256,436.1c-99.8,0-181-80.8-181-180.1S156.2,75.9,256,75.9S437,156.7,437,256S355.8,436.1,256,436.1z
				 M256,92.9c-90.4,0-163.9,73.2-163.9,163.1S165.6,419.1,256,419.1S419.9,345.9,419.9,256S346.4,92.9,256,92.9z"/>
		</g>
	</g>
	<g>
		<g>
			<path fill="#414042" d="M151.5,339.5C151.5,339.5,151.5,339.5,151.5,339.5c-32,0-53.8-4.7-54.8-4.9l-6.7-7.5
				c-0.1-1.2-2.6-29.6,7.3-66.3c9.2-33.9,31.1-81.5,83.8-115.6c34.5-22.4,72.1-33.7,111.8-33.7c55.2,0,94.4,22,96.1,23l4.1,9.2
				C356.1,314,225.9,339.5,151.5,339.5z M106.9,319.1c8.4,1.3,24.5,3.3,44.6,3.3c68.2,0,187.1-23,223.4-176
				c-12.1-5.6-42.9-17.9-82-17.9c-36.3,0-70.8,10.4-102.4,31C111.6,210.7,106.6,295.3,106.9,319.1z"/>
		</g>
	</g>
	<g>
		<g>
			<path fill="#414042" d="M182.8,240.6c0,0-26.7,4.4-23-7.3S182.8,240.6,182.8,240.6z"/>
		</g>
	</g>
	<g>
		<g>
			<path fill="#414042" d="M279,179.4c0,0-9.6-25.2,2.7-23.8C294.1,157,279,179.4,279,179.4z"/>
		</g>
	</g>
	<g>
		<g>
			<path fill="#414042" d="M221.4,196.8c0,0-22.9-14.3-12.3-20.6S221.4,196.8,221.4,196.8z"/>
		</g>
	</g>
	<g>
		<g>
			<path fill="#414042" d="M306.1,214.1c0,0,21.9-3.3,18.7,6.2C321.6,229.9,306.1,214.1,306.1,214.1z"/>
		</g>
	</g>
	<g>
		<g>
			<path fill="#414042" d="M208.1,277.1c0,0,7.6,20.7-2.5,19.5C195.6,295.3,208.1,277.1,208.1,277.1z"/>
		</g>
	</g>
	<g>
		<g>
			<path fill="#414042" d="M264.6,249.5c0,0,18.6,11.9,9.9,17C265.7,271.5,264.6,249.5,264.6,249.5z"/>
		</g>
	</g>
</g>
</svg>
