<svg width="44" height="41" viewBox="0 0 44 41" fill="none" xmlns="http://www.w3.org/2000/svg">
<g clip-path="url(#clip0_2_9079)">
<path fill-rule="evenodd" clip-rule="evenodd" d="M12.6895 2.66943L15.3614 6.14152L17.1895 2.66943L19.2052 6.14152L21.6895 2.66943V10.0345H12.6895V2.66943ZM3.33319 11.5065H0.0957031V26.6775H8.69169V23.8073H3.33319V11.5065ZM13.2232 25.9941C14.3396 26.647 15.6271 26.9736 17.0857 26.9736C18.5444 26.9737 19.8319 26.6472 20.9483 25.9941C22.0532 25.3381 22.9518 24.374 23.5382 23.2151C24.1485 22.0153 24.4536 20.6334 24.4536 19.0692C24.4536 17.5354 24.1485 16.1838 23.5382 15.0145C22.9534 13.8718 22.0529 12.9293 20.9483 12.3037C19.8319 11.6507 18.5444 11.3242 17.0857 11.3242C15.6121 11.3242 14.3171 11.6507 13.2008 12.3037C12.0937 12.9468 11.1939 13.9045 10.6109 15.0601C10.0005 16.2446 9.69541 17.6113 9.69548 19.1603C9.69548 20.6941 10.0006 22.0533 10.6109 23.2378C11.2068 24.3916 12.113 25.3478 13.2232 25.9941ZM20.0108 22.7366C19.2814 23.6327 18.3064 24.0807 17.0857 24.0806C16.3344 24.096 15.5957 23.8818 14.9646 23.4656C14.3386 23.0367 13.8434 22.4367 13.5357 21.7343C13.2082 20.9902 13.0445 20.1321 13.0445 19.1602C13.0445 18.1883 13.2082 17.3303 13.5357 16.5862C13.8781 15.8268 14.3544 15.2497 14.9646 14.8549C15.5975 14.4426 16.3349 14.2287 17.0857 14.2399C17.8298 14.2267 18.5607 14.4408 19.1844 14.8549C19.8245 15.2676 20.3237 15.8724 20.6134 16.5862C20.9558 17.3303 21.1269 18.1883 21.1269 19.1602C21.1271 20.6486 20.7549 21.8408 20.0108 22.7366ZM30.1521 11.5065H26.9146V26.6775H30.1521V20.5499L34.6175 26.6775H38.5471L32.7421 18.7051L38.8595 11.5065H34.997L30.152 17.3835L30.1521 11.5065ZM44.067 11.5065H40.8296V26.6775H44.067V11.5065Z" fill="white"/>
<path fill-rule="evenodd" clip-rule="evenodd" d="M0.126709 28.9731H44.0957V38.5381H0.126709V28.9731ZM2.86972 36.6304C3.48198 37.2272 4.33226 37.5257 5.42058 37.5257C5.99811 37.5357 6.57251 37.4371 7.11503 37.2348L6.89003 35.9543C6.47645 36.0999 6.04191 36.1738 5.60442 36.173C4.93123 36.1726 4.40401 35.9781 4.02276 35.5895C3.64151 35.2009 3.45088 34.6561 3.45088 33.9551C3.45088 33.2678 3.63116 32.7194 3.99173 32.3099C4.35254 31.8934 4.84233 31.6852 5.46108 31.6852C5.9276 31.6925 6.38705 31.8026 6.80799 32.0079L7.08343 30.665C6.56322 30.4575 6.00942 30.3515 5.45086 30.3527C4.80866 30.3394 4.17462 30.5012 3.61419 30.8214C3.08507 31.1251 2.65557 31.5814 2.3795 32.133C2.08437 32.7445 1.9374 33.4192 1.95097 34.1006C1.95122 35.1903 2.25747 36.0335 2.86972 36.6304ZM12.8464 30.4572H11.0709L8.58119 37.3905H10.0914L10.6117 35.8081H13.2851L13.8362 37.3905H15.3667L12.8464 30.4572ZM11.9276 31.8625L12.8464 34.5172H11.0399L11.9276 31.8625ZM17.7311 37.3905C18.1019 37.482 18.4822 37.5274 18.8637 37.5259V37.5257C19.6663 37.5256 20.2922 37.3382 20.7412 36.9633C21.1902 36.5885 21.4147 36.0645 21.4147 35.3913C21.4146 34.9542 21.3228 34.6003 21.1392 34.3296C20.9711 34.0669 20.7436 33.8491 20.4759 33.6946C20.16 33.5224 19.8327 33.3728 19.4964 33.247L19.078 33.0804C18.8667 32.9975 18.6676 32.8855 18.4862 32.7474C18.4248 32.6938 18.3763 32.6264 18.3444 32.5506C18.3126 32.4748 18.2983 32.3925 18.3026 32.3102C18.3001 32.2091 18.3232 32.109 18.3697 32.0197C18.4162 31.9303 18.4844 31.8546 18.5678 31.8C18.7446 31.6682 18.9929 31.6023 19.3127 31.6023C19.5892 31.605 19.8639 31.647 20.129 31.7272C20.4138 31.8072 20.688 31.9226 20.9453 32.0707L21.1697 30.6966C20.586 30.4551 19.9629 30.328 19.3331 30.3217C18.5439 30.3217 17.9283 30.5126 17.4862 30.8943C17.0441 31.276 16.823 31.8 16.823 32.4663C16.8231 32.8758 16.9047 33.2089 17.0679 33.4657C17.224 33.7085 17.4293 33.9144 17.6699 34.0695C17.9656 34.24 18.2724 34.3896 18.5882 34.5171C18.6369 34.5354 18.6845 34.5563 18.7311 34.5796C18.772 34.5935 18.8095 34.6074 18.8436 34.6213L19.0877 34.7254C19.3148 34.8087 19.5307 34.9207 19.7306 35.0586C19.7974 35.1061 19.8512 35.1702 19.887 35.2449C19.9227 35.3196 19.9391 35.4024 19.9347 35.4854C19.9354 35.5966 19.9075 35.7061 19.8538 35.803C19.8001 35.8998 19.7224 35.9805 19.6286 36.0372C19.3894 36.1856 19.1123 36.2581 18.8326 36.2454C18.5139 36.2401 18.1977 36.1874 17.8939 36.0892C17.5572 35.9766 17.2352 35.8228 16.9347 35.6311L16.8123 37.0262C17.1004 37.1907 17.4097 37.3133 17.7311 37.3905ZM25.0677 30.4573H23.5881V37.3903H25.0677V30.4573ZM29.2282 30.4573H27.4939V37.3903H28.851V32.4978L31.6874 37.3903H33.4016V30.457H32.0445V35.319L29.2282 30.4573ZM37.0522 37.0782C37.5914 37.3842 38.2006 37.5387 38.8175 37.5259V37.5257C39.4344 37.5385 40.0435 37.3841 40.5827 37.0782C41.0877 36.7784 41.4983 36.3378 41.7663 35.8081C42.0542 35.2204 42.1977 34.5702 42.1847 33.9135C42.1979 33.2699 42.0542 32.633 41.7663 32.0602C41.4991 31.538 41.0876 31.1072 40.5827 30.8214C40.0435 30.5154 39.4344 30.361 38.8175 30.3737C38.1973 30.3601 37.5847 30.5146 37.0421 30.8214C36.5361 31.1152 36.1249 31.5529 35.8584 32.081C35.583 32.6639 35.4401 33.3026 35.4401 33.9497C35.4401 34.5967 35.583 35.2354 35.8584 35.8183C36.1307 36.3456 36.5448 36.7827 37.0522 37.0782ZM39.5564 36.0565C39.3245 36.163 39.0716 36.2134 38.8175 36.2037V36.2035C38.4743 36.2106 38.1368 36.1128 37.8484 35.9228C37.5623 35.7267 37.336 35.4526 37.1954 35.1315C36.8961 34.3769 36.8961 33.5332 37.1954 32.7786C37.3302 32.4552 37.5567 32.1803 37.8458 31.9892C38.1349 31.7981 38.4734 31.6996 38.8178 31.7063C39.1578 31.7003 39.4918 31.7982 39.7769 31.9875C40.0694 32.176 40.2976 32.4524 40.4299 32.7786C40.5924 33.1482 40.6724 33.55 40.6643 33.9551C40.6643 34.6352 40.4942 35.18 40.1541 35.5895C39.9928 35.7901 39.7883 35.9499 39.5564 36.0565Z" fill="white"/>
</g>
<defs>
<clipPath id="clip0_2_9079">
<rect width="44" height="40" fill="white" transform="translate(0 0.498047)"/>
</clipPath>
</defs>
</svg>
